<?xml version="1.0" encoding="utf-8" standalone="no"?>
<!DOCTYPE svg PUBLIC "-//W3C//DTD SVG 1.1//EN"
  "http://www.w3.org/Graphics/SVG/1.1/DTD/svg11.dtd">
<svg xmlns:xlink="http://www.w3.org/1999/xlink" width="720pt" height="432pt" viewBox="0 0 720 432" xmlns="http://www.w3.org/2000/svg" version="1.1">
 <metadata>
  <rdf:RDF xmlns:dc="http://purl.org/dc/elements/1.1/" xmlns:cc="http://creativecommons.org/ns#" xmlns:rdf="http://www.w3.org/1999/02/22-rdf-syntax-ns#">
   <cc:Work>
    <dc:type rdf:resource="http://purl.org/dc/dcmitype/StillImage"/>
    <dc:date>2023-04-19T18:20:55.177044</dc:date>
    <dc:format>image/svg+xml</dc:format>
    <dc:creator>
     <cc:Agent>
      <dc:title>Matplotlib v3.7.1, https://matplotlib.org/</dc:title>
     </cc:Agent>
    </dc:creator>
   </cc:Work>
  </rdf:RDF>
 </metadata>
 <defs>
  <style type="text/css">*{stroke-linejoin: round; stroke-linecap: butt}</style>
 </defs>
 <g id="figure_1">
  <g id="patch_1">
   <path d="M 0 432 
L 720 432 
L 720 0 
L 0 0 
z
" style="fill: #ffffff"/>
  </g>
  <g id="axes_1">
   <g id="patch_2">
    <path d="M 90 384.48 
L 648 384.48 
L 648 51.84 
L 90 51.84 
z
" style="fill: #ffffff"/>
   </g>
   <g id="matplotlib.axis_1">
    <g id="xtick_1">
     <g id="line2d_1">
      <defs>
       <path id="m261283bd7b" d="M 0 0 
L 0 3.5 
" style="stroke: #000000; stroke-width: 0.8"/>
      </defs>
      <g>
       <use xlink:href="#m261283bd7b" x="115.363636" y="384.48" style="stroke: #000000; stroke-width: 0.8"/>
      </g>
     </g>
     <g id="text_1">
      <!-- 0 -->
      <g transform="translate(112.182386 399.078438) scale(0.1 -0.1)">
       <defs>
        <path id="DejaVuSans-30" d="M 2034 4250 
Q 1547 4250 1301 3770 
Q 1056 3291 1056 2328 
Q 1056 1369 1301 889 
Q 1547 409 2034 409 
Q 2525 409 2770 889 
Q 3016 1369 3016 2328 
Q 3016 3291 2770 3770 
Q 2525 4250 2034 4250 
z
M 2034 4750 
Q 2819 4750 3233 4129 
Q 3647 3509 3647 2328 
Q 3647 1150 3233 529 
Q 2819 -91 2034 -91 
Q 1250 -91 836 529 
Q 422 1150 422 2328 
Q 422 3509 836 4129 
Q 1250 4750 2034 4750 
z
" transform="scale(0.015625)"/>
       </defs>
       <use xlink:href="#DejaVuSans-30"/>
      </g>
     </g>
    </g>
    <g id="xtick_2">
     <g id="line2d_2">
      <g>
       <use xlink:href="#m261283bd7b" x="216.919738" y="384.48" style="stroke: #000000; stroke-width: 0.8"/>
      </g>
     </g>
     <g id="text_2">
      <!-- 200 -->
      <g transform="translate(207.375988 399.078438) scale(0.1 -0.1)">
       <defs>
        <path id="DejaVuSans-32" d="M 1228 531 
L 3431 531 
L 3431 0 
L 469 0 
L 469 531 
Q 828 903 1448 1529 
Q 2069 2156 2228 2338 
Q 2531 2678 2651 2914 
Q 2772 3150 2772 3378 
Q 2772 3750 2511 3984 
Q 2250 4219 1831 4219 
Q 1534 4219 1204 4116 
Q 875 4013 500 3803 
L 500 4441 
Q 881 4594 1212 4672 
Q 1544 4750 1819 4750 
Q 2544 4750 2975 4387 
Q 3406 4025 3406 3419 
Q 3406 3131 3298 2873 
Q 3191 2616 2906 2266 
Q 2828 2175 2409 1742 
Q 1991 1309 1228 531 
z
" transform="scale(0.015625)"/>
       </defs>
       <use xlink:href="#DejaVuSans-32"/>
       <use xlink:href="#DejaVuSans-30" x="63.623047"/>
       <use xlink:href="#DejaVuSans-30" x="127.246094"/>
      </g>
     </g>
    </g>
    <g id="xtick_3">
     <g id="line2d_3">
      <g>
       <use xlink:href="#m261283bd7b" x="318.475839" y="384.48" style="stroke: #000000; stroke-width: 0.8"/>
      </g>
     </g>
     <g id="text_3">
      <!-- 400 -->
      <g transform="translate(308.932089 399.078438) scale(0.1 -0.1)">
       <defs>
        <path id="DejaVuSans-34" d="M 2419 4116 
L 825 1625 
L 2419 1625 
L 2419 4116 
z
M 2253 4666 
L 3047 4666 
L 3047 1625 
L 3713 1625 
L 3713 1100 
L 3047 1100 
L 3047 0 
L 2419 0 
L 2419 1100 
L 313 1100 
L 313 1709 
L 2253 4666 
z
" transform="scale(0.015625)"/>
       </defs>
       <use xlink:href="#DejaVuSans-34"/>
       <use xlink:href="#DejaVuSans-30" x="63.623047"/>
       <use xlink:href="#DejaVuSans-30" x="127.246094"/>
      </g>
     </g>
    </g>
    <g id="xtick_4">
     <g id="line2d_4">
      <g>
       <use xlink:href="#m261283bd7b" x="420.031941" y="384.48" style="stroke: #000000; stroke-width: 0.8"/>
      </g>
     </g>
     <g id="text_4">
      <!-- 600 -->
      <g transform="translate(410.488191 399.078438) scale(0.1 -0.1)">
       <defs>
        <path id="DejaVuSans-36" d="M 2113 2584 
Q 1688 2584 1439 2293 
Q 1191 2003 1191 1497 
Q 1191 994 1439 701 
Q 1688 409 2113 409 
Q 2538 409 2786 701 
Q 3034 994 3034 1497 
Q 3034 2003 2786 2293 
Q 2538 2584 2113 2584 
z
M 3366 4563 
L 3366 3988 
Q 3128 4100 2886 4159 
Q 2644 4219 2406 4219 
Q 1781 4219 1451 3797 
Q 1122 3375 1075 2522 
Q 1259 2794 1537 2939 
Q 1816 3084 2150 3084 
Q 2853 3084 3261 2657 
Q 3669 2231 3669 1497 
Q 3669 778 3244 343 
Q 2819 -91 2113 -91 
Q 1303 -91 875 529 
Q 447 1150 447 2328 
Q 447 3434 972 4092 
Q 1497 4750 2381 4750 
Q 2619 4750 2861 4703 
Q 3103 4656 3366 4563 
z
" transform="scale(0.015625)"/>
       </defs>
       <use xlink:href="#DejaVuSans-36"/>
       <use xlink:href="#DejaVuSans-30" x="63.623047"/>
       <use xlink:href="#DejaVuSans-30" x="127.246094"/>
      </g>
     </g>
    </g>
    <g id="xtick_5">
     <g id="line2d_5">
      <g>
       <use xlink:href="#m261283bd7b" x="521.588043" y="384.48" style="stroke: #000000; stroke-width: 0.8"/>
      </g>
     </g>
     <g id="text_5">
      <!-- 800 -->
      <g transform="translate(512.044293 399.078438) scale(0.1 -0.1)">
       <defs>
        <path id="DejaVuSans-38" d="M 2034 2216 
Q 1584 2216 1326 1975 
Q 1069 1734 1069 1313 
Q 1069 891 1326 650 
Q 1584 409 2034 409 
Q 2484 409 2743 651 
Q 3003 894 3003 1313 
Q 3003 1734 2745 1975 
Q 2488 2216 2034 2216 
z
M 1403 2484 
Q 997 2584 770 2862 
Q 544 3141 544 3541 
Q 544 4100 942 4425 
Q 1341 4750 2034 4750 
Q 2731 4750 3128 4425 
Q 3525 4100 3525 3541 
Q 3525 3141 3298 2862 
Q 3072 2584 2669 2484 
Q 3125 2378 3379 2068 
Q 3634 1759 3634 1313 
Q 3634 634 3220 271 
Q 2806 -91 2034 -91 
Q 1263 -91 848 271 
Q 434 634 434 1313 
Q 434 1759 690 2068 
Q 947 2378 1403 2484 
z
M 1172 3481 
Q 1172 3119 1398 2916 
Q 1625 2713 2034 2713 
Q 2441 2713 2670 2916 
Q 2900 3119 2900 3481 
Q 2900 3844 2670 4047 
Q 2441 4250 2034 4250 
Q 1625 4250 1398 4047 
Q 1172 3844 1172 3481 
z
" transform="scale(0.015625)"/>
       </defs>
       <use xlink:href="#DejaVuSans-38"/>
       <use xlink:href="#DejaVuSans-30" x="63.623047"/>
       <use xlink:href="#DejaVuSans-30" x="127.246094"/>
      </g>
     </g>
    </g>
    <g id="xtick_6">
     <g id="line2d_6">
      <g>
       <use xlink:href="#m261283bd7b" x="623.144144" y="384.48" style="stroke: #000000; stroke-width: 0.8"/>
      </g>
     </g>
     <g id="text_6">
      <!-- 1000 -->
      <g transform="translate(610.419144 399.078438) scale(0.1 -0.1)">
       <defs>
        <path id="DejaVuSans-31" d="M 794 531 
L 1825 531 
L 1825 4091 
L 703 3866 
L 703 4441 
L 1819 4666 
L 2450 4666 
L 2450 531 
L 3481 531 
L 3481 0 
L 794 0 
L 794 531 
z
" transform="scale(0.015625)"/>
       </defs>
       <use xlink:href="#DejaVuSans-31"/>
       <use xlink:href="#DejaVuSans-30" x="63.623047"/>
       <use xlink:href="#DejaVuSans-30" x="127.246094"/>
       <use xlink:href="#DejaVuSans-30" x="190.869141"/>
      </g>
     </g>
    </g>
    <g id="text_7">
     <!-- Epoch -->
     <g transform="translate(353.689062 412.756563) scale(0.1 -0.1)">
      <defs>
       <path id="DejaVuSans-45" d="M 628 4666 
L 3578 4666 
L 3578 4134 
L 1259 4134 
L 1259 2753 
L 3481 2753 
L 3481 2222 
L 1259 2222 
L 1259 531 
L 3634 531 
L 3634 0 
L 628 0 
L 628 4666 
z
" transform="scale(0.015625)"/>
       <path id="DejaVuSans-70" d="M 1159 525 
L 1159 -1331 
L 581 -1331 
L 581 3500 
L 1159 3500 
L 1159 2969 
Q 1341 3281 1617 3432 
Q 1894 3584 2278 3584 
Q 2916 3584 3314 3078 
Q 3713 2572 3713 1747 
Q 3713 922 3314 415 
Q 2916 -91 2278 -91 
Q 1894 -91 1617 61 
Q 1341 213 1159 525 
z
M 3116 1747 
Q 3116 2381 2855 2742 
Q 2594 3103 2138 3103 
Q 1681 3103 1420 2742 
Q 1159 2381 1159 1747 
Q 1159 1113 1420 752 
Q 1681 391 2138 391 
Q 2594 391 2855 752 
Q 3116 1113 3116 1747 
z
" transform="scale(0.015625)"/>
       <path id="DejaVuSans-6f" d="M 1959 3097 
Q 1497 3097 1228 2736 
Q 959 2375 959 1747 
Q 959 1119 1226 758 
Q 1494 397 1959 397 
Q 2419 397 2687 759 
Q 2956 1122 2956 1747 
Q 2956 2369 2687 2733 
Q 2419 3097 1959 3097 
z
M 1959 3584 
Q 2709 3584 3137 3096 
Q 3566 2609 3566 1747 
Q 3566 888 3137 398 
Q 2709 -91 1959 -91 
Q 1206 -91 779 398 
Q 353 888 353 1747 
Q 353 2609 779 3096 
Q 1206 3584 1959 3584 
z
" transform="scale(0.015625)"/>
       <path id="DejaVuSans-63" d="M 3122 3366 
L 3122 2828 
Q 2878 2963 2633 3030 
Q 2388 3097 2138 3097 
Q 1578 3097 1268 2742 
Q 959 2388 959 1747 
Q 959 1106 1268 751 
Q 1578 397 2138 397 
Q 2388 397 2633 464 
Q 2878 531 3122 666 
L 3122 134 
Q 2881 22 2623 -34 
Q 2366 -91 2075 -91 
Q 1284 -91 818 406 
Q 353 903 353 1747 
Q 353 2603 823 3093 
Q 1294 3584 2113 3584 
Q 2378 3584 2631 3529 
Q 2884 3475 3122 3366 
z
" transform="scale(0.015625)"/>
       <path id="DejaVuSans-68" d="M 3513 2113 
L 3513 0 
L 2938 0 
L 2938 2094 
Q 2938 2591 2744 2837 
Q 2550 3084 2163 3084 
Q 1697 3084 1428 2787 
Q 1159 2491 1159 1978 
L 1159 0 
L 581 0 
L 581 4863 
L 1159 4863 
L 1159 2956 
Q 1366 3272 1645 3428 
Q 1925 3584 2291 3584 
Q 2894 3584 3203 3211 
Q 3513 2838 3513 2113 
z
" transform="scale(0.015625)"/>
      </defs>
      <use xlink:href="#DejaVuSans-45"/>
      <use xlink:href="#DejaVuSans-70" x="63.183594"/>
      <use xlink:href="#DejaVuSans-6f" x="126.660156"/>
      <use xlink:href="#DejaVuSans-63" x="187.841797"/>
      <use xlink:href="#DejaVuSans-68" x="242.822266"/>
     </g>
    </g>
   </g>
   <g id="matplotlib.axis_2">
    <g id="ytick_1">
     <g id="line2d_7">
      <defs>
       <path id="m3e06ab326d" d="M 0 0 
L -3.5 0 
" style="stroke: #000000; stroke-width: 0.8"/>
      </defs>
      <g>
       <use xlink:href="#m3e06ab326d" x="90" y="369.364382" style="stroke: #000000; stroke-width: 0.8"/>
      </g>
     </g>
     <g id="text_8">
      <!-- 0.0 -->
      <g transform="translate(67.096875 373.163601) scale(0.1 -0.1)">
       <defs>
        <path id="DejaVuSans-2e" d="M 684 794 
L 1344 794 
L 1344 0 
L 684 0 
L 684 794 
z
" transform="scale(0.015625)"/>
       </defs>
       <use xlink:href="#DejaVuSans-30"/>
       <use xlink:href="#DejaVuSans-2e" x="63.623047"/>
       <use xlink:href="#DejaVuSans-30" x="95.410156"/>
      </g>
     </g>
    </g>
    <g id="ytick_2">
     <g id="line2d_8">
      <g>
       <use xlink:href="#m3e06ab326d" x="90" y="308.852039" style="stroke: #000000; stroke-width: 0.8"/>
      </g>
     </g>
     <g id="text_9">
      <!-- 0.2 -->
      <g transform="translate(67.096875 312.651258) scale(0.1 -0.1)">
       <use xlink:href="#DejaVuSans-30"/>
       <use xlink:href="#DejaVuSans-2e" x="63.623047"/>
       <use xlink:href="#DejaVuSans-32" x="95.410156"/>
      </g>
     </g>
    </g>
    <g id="ytick_3">
     <g id="line2d_9">
      <g>
       <use xlink:href="#m3e06ab326d" x="90" y="248.339696" style="stroke: #000000; stroke-width: 0.8"/>
      </g>
     </g>
     <g id="text_10">
      <!-- 0.4 -->
      <g transform="translate(67.096875 252.138915) scale(0.1 -0.1)">
       <use xlink:href="#DejaVuSans-30"/>
       <use xlink:href="#DejaVuSans-2e" x="63.623047"/>
       <use xlink:href="#DejaVuSans-34" x="95.410156"/>
      </g>
     </g>
    </g>
    <g id="ytick_4">
     <g id="line2d_10">
      <g>
       <use xlink:href="#m3e06ab326d" x="90" y="187.827354" style="stroke: #000000; stroke-width: 0.8"/>
      </g>
     </g>
     <g id="text_11">
      <!-- 0.6 -->
      <g transform="translate(67.096875 191.626572) scale(0.1 -0.1)">
       <use xlink:href="#DejaVuSans-30"/>
       <use xlink:href="#DejaVuSans-2e" x="63.623047"/>
       <use xlink:href="#DejaVuSans-36" x="95.410156"/>
      </g>
     </g>
    </g>
    <g id="ytick_5">
     <g id="line2d_11">
      <g>
       <use xlink:href="#m3e06ab326d" x="90" y="127.315011" style="stroke: #000000; stroke-width: 0.8"/>
      </g>
     </g>
     <g id="text_12">
      <!-- 0.8 -->
      <g transform="translate(67.096875 131.11423) scale(0.1 -0.1)">
       <use xlink:href="#DejaVuSans-30"/>
       <use xlink:href="#DejaVuSans-2e" x="63.623047"/>
       <use xlink:href="#DejaVuSans-38" x="95.410156"/>
      </g>
     </g>
    </g>
    <g id="ytick_6">
     <g id="line2d_12">
      <g>
       <use xlink:href="#m3e06ab326d" x="90" y="66.802668" style="stroke: #000000; stroke-width: 0.8"/>
      </g>
     </g>
     <g id="text_13">
      <!-- 1.0 -->
      <g transform="translate(67.096875 70.601887) scale(0.1 -0.1)">
       <use xlink:href="#DejaVuSans-31"/>
       <use xlink:href="#DejaVuSans-2e" x="63.623047"/>
       <use xlink:href="#DejaVuSans-30" x="95.410156"/>
      </g>
     </g>
    </g>
    <g id="text_14">
     <!-- Accuracy -->
     <g transform="translate(61.017187 240.988125) rotate(-90) scale(0.1 -0.1)">
      <defs>
       <path id="DejaVuSans-41" d="M 2188 4044 
L 1331 1722 
L 3047 1722 
L 2188 4044 
z
M 1831 4666 
L 2547 4666 
L 4325 0 
L 3669 0 
L 3244 1197 
L 1141 1197 
L 716 0 
L 50 0 
L 1831 4666 
z
" transform="scale(0.015625)"/>
       <path id="DejaVuSans-75" d="M 544 1381 
L 544 3500 
L 1119 3500 
L 1119 1403 
Q 1119 906 1312 657 
Q 1506 409 1894 409 
Q 2359 409 2629 706 
Q 2900 1003 2900 1516 
L 2900 3500 
L 3475 3500 
L 3475 0 
L 2900 0 
L 2900 538 
Q 2691 219 2414 64 
Q 2138 -91 1772 -91 
Q 1169 -91 856 284 
Q 544 659 544 1381 
z
M 1991 3584 
L 1991 3584 
z
" transform="scale(0.015625)"/>
       <path id="DejaVuSans-72" d="M 2631 2963 
Q 2534 3019 2420 3045 
Q 2306 3072 2169 3072 
Q 1681 3072 1420 2755 
Q 1159 2438 1159 1844 
L 1159 0 
L 581 0 
L 581 3500 
L 1159 3500 
L 1159 2956 
Q 1341 3275 1631 3429 
Q 1922 3584 2338 3584 
Q 2397 3584 2469 3576 
Q 2541 3569 2628 3553 
L 2631 2963 
z
" transform="scale(0.015625)"/>
       <path id="DejaVuSans-61" d="M 2194 1759 
Q 1497 1759 1228 1600 
Q 959 1441 959 1056 
Q 959 750 1161 570 
Q 1363 391 1709 391 
Q 2188 391 2477 730 
Q 2766 1069 2766 1631 
L 2766 1759 
L 2194 1759 
z
M 3341 1997 
L 3341 0 
L 2766 0 
L 2766 531 
Q 2569 213 2275 61 
Q 1981 -91 1556 -91 
Q 1019 -91 701 211 
Q 384 513 384 1019 
Q 384 1609 779 1909 
Q 1175 2209 1959 2209 
L 2766 2209 
L 2766 2266 
Q 2766 2663 2505 2880 
Q 2244 3097 1772 3097 
Q 1472 3097 1187 3025 
Q 903 2953 641 2809 
L 641 3341 
Q 956 3463 1253 3523 
Q 1550 3584 1831 3584 
Q 2591 3584 2966 3190 
Q 3341 2797 3341 1997 
z
" transform="scale(0.015625)"/>
       <path id="DejaVuSans-79" d="M 2059 -325 
Q 1816 -950 1584 -1140 
Q 1353 -1331 966 -1331 
L 506 -1331 
L 506 -850 
L 844 -850 
Q 1081 -850 1212 -737 
Q 1344 -625 1503 -206 
L 1606 56 
L 191 3500 
L 800 3500 
L 1894 763 
L 2988 3500 
L 3597 3500 
L 2059 -325 
z
" transform="scale(0.015625)"/>
      </defs>
      <use xlink:href="#DejaVuSans-41"/>
      <use xlink:href="#DejaVuSans-63" x="66.658203"/>
      <use xlink:href="#DejaVuSans-63" x="121.638672"/>
      <use xlink:href="#DejaVuSans-75" x="176.619141"/>
      <use xlink:href="#DejaVuSans-72" x="239.998047"/>
      <use xlink:href="#DejaVuSans-61" x="281.111328"/>
      <use xlink:href="#DejaVuSans-63" x="342.390625"/>
      <use xlink:href="#DejaVuSans-79" x="397.371094"/>
     </g>
    </g>
   </g>
   <g id="line2d_13">
    <path d="M 115.363636 366.350867 
L 115.871417 366.072511 
L 117.394758 365.897025 
L 117.902539 366.090664 
L 118.9181 365.618668 
L 119.42588 366.01805 
L 120.441441 365.388721 
L 120.949222 365.455285 
L 122.980344 364.698881 
L 123.488124 364.862264 
L 123.995905 364.583907 
L 124.503686 364.723085 
L 125.011466 364.723085 
L 125.519247 364.583907 
L 126.027027 364.723085 
L 126.534808 365.019596 
L 128.058149 364.94093 
L 128.56593 364.075603 
L 129.07371 361.491726 
L 131.104832 354.665934 
L 132.120393 352.112313 
L 133.135954 348.778083 
L 134.151515 343.265409 
L 134.659296 340.808608 
L 135.167076 339.10216 
L 135.674857 338.127911 
L 136.182637 336.155208 
L 136.690418 335.435112 
L 137.198198 333.873893 
L 137.705979 333.12354 
L 138.213759 331.326323 
L 139.737101 329.244699 
L 140.244881 328.17363 
L 140.752662 326.497438 
L 141.260442 326.449029 
L 141.768223 325.026989 
L 142.276003 324.058791 
L 142.783784 323.586795 
L 143.291564 322.352343 
L 143.799345 322.267626 
L 144.307125 321.311531 
L 144.814906 319.084676 
L 145.322686 319.072574 
L 145.830467 318.201196 
L 146.338247 317.650534 
L 146.846028 316.089316 
L 148.87715 313.572002 
L 149.38493 313.093955 
L 150.400491 311.435916 
L 150.908272 311.151508 
L 151.923833 308.852039 
L 152.431613 307.77492 
L 152.939394 307.393692 
L 153.447174 306.679646 
L 154.462735 305.741705 
L 154.970516 305.366528 
L 155.986077 303.448287 
L 156.493857 302.322758 
L 157.001638 302.092811 
L 157.509419 302.250143 
L 158.52498 300.22903 
L 159.03276 299.73888 
L 159.540541 298.080842 
L 160.048321 298.474173 
L 160.556102 298.11715 
L 161.063882 296.616444 
L 161.571663 296.295728 
L 162.079443 295.545375 
L 162.587224 295.394094 
L 163.095004 293.959952 
L 163.602785 293.572673 
L 164.110565 293.85103 
L 164.618346 293.046215 
L 165.126126 291.660483 
L 165.633907 291.20664 
L 166.649468 290.595465 
L 167.157248 289.63937 
L 167.665029 289.100811 
L 168.172809 287.557746 
L 168.68059 288.31415 
L 169.18837 287.43067 
L 169.696151 285.954169 
L 170.203931 285.585043 
L 170.711712 284.495821 
L 171.219492 284.592641 
L 171.727273 282.910398 
L 172.235053 282.220557 
L 172.742834 281.161591 
L 173.250614 280.925593 
L 173.758395 279.739551 
L 174.266175 279.219145 
L 174.773956 278.008898 
L 175.281736 277.984693 
L 176.297297 276.508192 
L 176.805078 275.951479 
L 177.312858 273.742778 
L 177.820639 273.845649 
L 178.328419 272.8714 
L 178.8362 272.532531 
L 179.851761 270.408548 
L 180.359541 268.932047 
L 180.867322 270.112037 
L 181.375102 268.423743 
L 181.882883 267.479751 
L 182.898444 265.228691 
L 183.406224 265.047154 
L 183.914005 264.405723 
L 184.929566 261.737129 
L 185.437346 261.162262 
L 185.945127 260.363499 
L 186.452907 259.225867 
L 186.960688 258.753871 
L 187.976249 255.964252 
L 188.484029 255.177591 
L 188.99181 255.213899 
L 189.49959 253.70109 
L 190.007371 253.416682 
L 191.022932 251.165623 
L 191.530713 250.772293 
L 192.038493 250.094554 
L 192.546274 247.250474 
L 193.054054 246.845042 
L 193.561835 245.937356 
L 194.069615 244.708956 
L 195.085176 243.873886 
L 195.592957 241.762005 
L 196.100737 241.144779 
L 196.608518 241.156881 
L 197.116298 238.276494 
L 197.624079 238.270443 
L 198.131859 236.745532 
L 198.63964 236.29774 
L 199.14742 234.833342 
L 199.655201 234.185859 
L 200.670762 230.518811 
L 201.178542 230.421992 
L 201.686323 229.605075 
L 202.194103 228.497699 
L 202.701884 226.773097 
L 204.225225 223.578046 
L 204.733006 221.109142 
L 205.240786 221.44196 
L 205.748567 220.679505 
L 206.256347 218.731007 
L 206.764128 217.327121 
L 207.271908 216.7341 
L 207.779689 214.374118 
L 208.287469 213.750841 
L 208.79525 212.183572 
L 209.30303 211.578448 
L 209.810811 210.241125 
L 210.318591 207.996117 
L 210.826372 206.852434 
L 211.334152 206.168645 
L 211.841933 203.699741 
L 212.349713 203.602921 
L 212.857494 202.332162 
L 213.365274 200.35946 
L 213.873055 200.250538 
L 214.380835 198.108401 
L 215.396396 195.990469 
L 215.904177 193.182696 
L 216.411957 192.111627 
L 216.919738 191.833271 
L 217.427518 190.199437 
L 217.935299 189.570109 
L 218.443079 188.371965 
L 218.95086 186.036188 
L 219.45864 184.765429 
L 219.966421 184.105845 
L 220.474201 181.770068 
L 220.981982 181.770068 
L 221.489762 179.192242 
L 221.997543 178.339018 
L 223.013104 175.301299 
L 223.520885 174.199974 
L 224.028665 174.290743 
L 224.536446 171.603994 
L 225.044226 169.594985 
L 225.552007 170.908103 
L 226.059787 167.791717 
L 226.567568 166.018705 
L 227.583129 164.396974 
L 228.090909 162.418221 
L 228.59869 161.093001 
L 229.10647 160.397109 
L 229.614251 158.067383 
L 230.122031 158.200511 
L 230.629812 155.804222 
L 231.137592 155.168842 
L 231.645373 154.345874 
L 232.153153 151.755946 
L 232.660934 150.920876 
L 233.168714 151.471538 
L 233.676495 149.504887 
L 234.184275 149.190223 
L 234.692056 147.320391 
L 235.199836 146.47927 
L 235.707617 144.597336 
L 236.215397 144.639695 
L 237.738739 139.913681 
L 238.246519 139.17543 
L 238.7543 139.241994 
L 239.26208 137.335855 
L 239.769861 137.196676 
L 240.277641 136.597604 
L 240.785422 135.74438 
L 242.308763 132.567482 
L 242.816544 132.204408 
L 243.324324 130.588729 
L 243.832105 129.723402 
L 244.339885 128.19244 
L 245.355446 127.50865 
L 245.863227 126.691734 
L 246.371007 125.384667 
L 246.878788 124.676673 
L 247.386568 124.531443 
L 247.894349 122.074642 
L 248.402129 122.086744 
L 248.90991 121.021727 
L 249.41769 120.356091 
L 249.925471 119.12164 
L 250.433251 118.903795 
L 250.941032 118.53467 
L 251.448812 117.60278 
L 251.956593 117.572524 
L 252.464373 116.864529 
L 252.972154 115.363823 
L 254.495495 114.540855 
L 255.511057 112.894919 
L 256.018837 112.314001 
L 256.526618 111.321599 
L 257.034398 111.478931 
L 257.542179 110.583348 
L 258.049959 110.032686 
L 258.55774 109.929815 
L 259.06552 109.427562 
L 259.573301 107.8966 
L 260.081081 107.648499 
L 260.588862 106.9163 
L 261.096642 107.642448 
L 261.604423 105.391389 
L 262.112203 106.165947 
L 262.619984 105.730258 
L 263.127764 105.585028 
L 263.635545 103.981451 
L 264.143325 104.193245 
L 264.651106 104.060117 
L 265.158886 102.989049 
L 266.174447 102.40813 
L 266.682228 101.887724 
L 267.190008 101.905878 
L 267.697789 101.567009 
L 268.71335 100.048149 
L 269.22113 100.023944 
L 269.728911 99.455128 
L 270.236691 99.654819 
L 270.744472 99.285694 
L 271.252252 98.468777 
L 271.760033 98.517187 
L 272.267813 98.710826 
L 272.775594 97.440067 
L 273.791155 97.639758 
L 274.298935 96.483972 
L 274.806716 97.204069 
L 275.314496 95.44316 
L 276.330057 95.8849 
L 276.837838 95.358442 
L 277.345618 94.057427 
L 277.853399 94.341835 
L 278.361179 94.26922 
L 278.86896 93.887993 
L 279.37674 94.196606 
L 279.884521 92.841129 
L 280.392301 93.186049 
L 280.900082 92.907693 
L 281.407862 93.216306 
L 281.915643 92.223903 
L 282.423423 92.653541 
L 282.931204 91.739804 
L 283.438984 91.830573 
L 284.454545 91.528011 
L 284.962326 91.062066 
L 285.470106 91.122579 
L 285.977887 90.287508 
L 286.485667 90.553762 
L 286.993448 89.615821 
L 287.501229 90.087817 
L 288.009009 89.543206 
L 288.51679 88.738392 
L 289.02457 89.434284 
L 289.532351 89.083313 
L 290.040131 88.956237 
L 290.547912 88.429779 
L 291.055692 89.301157 
L 292.071253 87.691529 
L 292.579034 88.060654 
L 293.086814 88.036449 
L 293.594595 87.885168 
L 294.102375 88.000142 
L 294.610156 86.535743 
L 295.117936 86.71728 
L 295.625717 87.098508 
L 296.133497 86.783844 
L 296.641278 85.930619 
L 297.149058 86.457077 
L 297.656839 86.481282 
L 298.6724 85.386008 
L 299.18018 85.367855 
L 299.687961 85.646211 
L 300.195741 85.059242 
L 300.703522 85.761185 
L 301.211302 85.34365 
L 301.719083 85.646211 
L 302.226863 84.744578 
L 302.734644 84.768783 
L 303.242424 84.333094 
L 303.750205 84.448067 
L 304.257985 83.649304 
L 304.765766 84.206018 
L 305.273546 84.399657 
L 305.781327 83.661407 
L 306.289107 84.163659 
L 306.796888 83.449613 
L 307.304668 83.637202 
L 307.812449 83.298333 
L 308.320229 83.709817 
L 308.82801 82.783978 
L 309.33579 83.43146 
L 309.843571 82.826336 
L 310.351351 83.013925 
L 310.859132 82.923156 
L 311.366912 82.711363 
L 311.874693 82.045727 
L 312.382473 82.529826 
L 313.398034 82.330135 
L 313.905815 82.05783 
L 314.413595 81.307476 
L 314.921376 81.71896 
L 315.429156 81.755268 
L 315.936937 81.119888 
L 316.444717 81.86419 
L 316.952498 81.948907 
L 317.460278 81.32563 
L 317.968059 82.112291 
L 318.475839 81.392194 
L 318.98362 80.920197 
L 319.999181 81.37404 
L 321.014742 80.690251 
L 322.538084 80.563175 
L 323.045864 80.73866 
L 323.553645 79.976205 
L 324.061425 80.472406 
L 324.569206 79.244006 
L 325.076986 80.448201 
L 325.584767 80.042769 
L 326.600328 79.722053 
L 327.108108 80.581328 
L 327.615889 79.346877 
L 328.123669 79.419491 
L 328.63145 79.685746 
L 329.13923 79.340825 
L 329.647011 79.328723 
L 330.154791 78.838573 
L 330.662572 78.548114 
L 331.678133 79.219801 
L 332.185913 78.784112 
L 332.693694 79.001956 
L 334.217035 77.955093 
L 334.724816 78.493653 
L 335.232596 78.372628 
L 335.740377 78.396833 
L 336.248157 77.840119 
L 336.755938 78.499704 
L 337.263718 78.965649 
L 337.771499 78.451294 
L 338.279279 78.511806 
L 339.29484 77.755402 
L 339.802621 77.749351 
L 340.310401 77.59807 
L 341.325962 78.354474 
L 341.833743 77.876427 
L 342.849304 78.076117 
L 343.357084 77.664633 
L 343.864865 77.767504 
L 344.372645 77.59807 
L 344.880426 77.186586 
L 345.388206 77.053459 
L 345.895987 77.271303 
L 346.911548 76.793256 
L 347.419328 77.271303 
L 348.434889 76.932434 
L 348.94267 76.96269 
L 349.45045 76.732743 
L 349.958231 76.805358 
L 350.466011 77.343918 
L 350.973792 76.859819 
L 351.481572 76.775102 
L 351.989353 76.297055 
L 352.497133 76.756948 
L 353.512695 76.206286 
L 354.020475 76.333362 
L 354.528256 76.835614 
L 355.036036 76.339413 
L 355.543817 76.303106 
L 356.051597 76.702487 
L 356.559378 76.07921 
L 357.067158 76.708538 
L 357.574939 76.0308 
L 358.082719 75.583009 
L 358.5905 75.885571 
L 359.09828 76.557258 
L 359.606061 76.17603 
L 360.621622 76.024749 
L 361.637183 75.455933 
L 362.144963 76.0308 
L 362.652744 75.328857 
L 363.160524 75.843212 
L 363.668305 75.776648 
L 364.176085 75.970288 
L 364.683866 75.080756 
L 365.191646 75.770597 
L 366.207207 75.274396 
L 366.714988 75.625367 
L 367.222768 75.353062 
L 367.730549 75.879519 
L 368.238329 75.365164 
L 368.74611 76.061056 
L 369.25389 75.619316 
L 370.269451 74.082303 
L 370.777232 74.064149 
L 372.300573 72.811544 
L 372.808354 72.617904 
L 373.823915 72.623955 
L 375.855037 71.595245 
L 376.870598 71.788885 
L 377.378378 71.528682 
L 377.886159 71.080891 
L 378.90172 71.159557 
L 379.4095 70.68756 
L 379.917281 70.675458 
L 380.425061 71.074839 
L 380.932842 70.760175 
L 381.948403 70.820687 
L 382.456183 70.608894 
L 382.963964 70.675458 
L 383.471744 70.282128 
L 383.979525 70.378947 
L 384.487305 70.348691 
L 384.995086 70.445511 
L 385.502867 70.336589 
L 386.010647 69.973515 
L 386.518428 70.052181 
L 387.026208 69.943259 
L 387.533989 69.695158 
L 388.041769 69.580184 
L 388.54955 70.100591 
L 389.05733 69.80408 
L 391.596233 69.45916 
L 392.104013 69.198957 
L 392.611794 69.513621 
L 393.119574 69.392596 
L 395.150696 69.465211 
L 395.658477 69.114239 
L 396.166257 69.326033 
L 396.674038 69.01742 
L 397.181818 69.247367 
L 397.689599 69.108188 
L 398.197379 69.144496 
L 399.720721 68.9206 
L 403.782965 68.793524 
L 404.290745 68.82378 
L 404.798526 68.484911 
L 405.306306 68.890344 
L 406.829648 68.593833 
L 407.337428 68.896395 
L 407.845209 68.630141 
L 408.352989 68.545423 
L 408.86077 68.666448 
L 410.384111 68.363886 
L 410.891892 68.43045 
L 411.399672 68.267067 
L 411.907453 68.375989 
L 412.923014 68.267067 
L 413.430794 68.43045 
L 413.938575 68.23681 
L 414.446355 68.369938 
L 415.969697 68.23681 
L 416.477477 68.297323 
L 416.985258 68.139991 
L 420.031941 68.194452 
L 420.539722 67.958454 
L 421.047502 68.133939 
L 421.555283 68.000812 
L 422.063063 68.079478 
L 422.570844 68.03712 
L 423.078624 67.873736 
L 423.586405 68.176298 
L 424.094185 68.206554 
L 424.601966 67.807173 
L 425.109746 68.000812 
L 426.125307 67.946351 
L 426.633088 67.801122 
L 427.140868 68.079478 
L 428.156429 67.801122 
L 429.17199 68.018966 
L 430.187551 67.813224 
L 430.695332 67.922146 
L 431.203112 67.813224 
L 432.218673 67.922146 
L 432.726454 67.807173 
L 433.742015 67.837429 
L 434.757576 67.686148 
L 436.788698 67.631687 
L 437.296478 67.722456 
L 438.312039 67.667994 
L 439.835381 67.577226 
L 440.850942 67.565123 
L 441.866503 67.613533 
L 442.374283 67.686148 
L 443.389844 67.468304 
L 444.405405 67.613533 
L 446.436527 67.480406 
L 450.498771 67.468304 
L 451.006552 67.625636 
L 451.514333 67.35333 
L 452.529894 67.486457 
L 455.068796 67.49856 
L 455.576577 67.292818 
L 456.084357 67.492509 
L 457.099918 67.444099 
L 461.162162 67.383586 
L 462.177723 67.383586 
L 463.193284 67.323074 
L 464.208845 67.347279 
L 464.716626 67.383586 
L 465.732187 67.244408 
L 467.763309 67.383586 
L 470.302211 67.202049 
L 470.809992 67.268613 
L 471.825553 67.183896 
L 472.333333 67.286767 
L 472.841114 67.183896 
L 473.856675 67.165742 
L 476.395577 67.25651 
L 478.93448 67.10523 
L 479.950041 67.292818 
L 482.996724 67.171793 
L 484.520066 67.189947 
L 485.027846 67.141537 
L 486.043407 67.195998 
L 487.566749 67.171793 
L 488.074529 67.274664 
L 489.09009 67.214152 
L 490.105651 67.111281 
L 491.628993 67.141537 
L 493.152334 67.129435 
L 493.660115 67.202049 
L 494.675676 67.153639 
L 495.691237 67.189947 
L 496.706798 67.111281 
L 497.214578 67.202049 
L 498.230139 67.093127 
L 498.73792 67.147588 
L 499.2457 67.05682 
L 502.292383 67.10523 
L 503.307944 67.05682 
L 507.877969 67.068922 
L 518.033579 67.044717 
L 519.04914 67.05682 
L 521.080262 67.068922 
L 523.111384 67.050769 
L 528.69697 67.014461 
L 529.712531 67.062871 
L 530.220311 67.002359 
L 531.235872 67.062871 
L 537.329238 67.074973 
L 538.344799 67.020512 
L 539.868141 67.038666 
L 541.391482 67.050769 
L 542.407043 67.014461 
L 545.453726 67.032615 
L 546.977068 67.038666 
L 549.00819 67.014461 
L 556.624898 67.020512 
L 559.1638 67.00841 
L 568.81163 66.996307 
L 572.366093 67.020512 
L 577.443898 66.996307 
L 577.951679 67.062871 
L 578.459459 66.984205 
L 579.47502 66.978154 
L 581.506143 67.020512 
L 589.12285 67.020512 
L 590.646192 67.00841 
L 592.169533 67.002359 
L 593.692875 66.972102 
L 594.708436 67.00841 
L 595.723997 67.00841 
L 596.739558 67.002359 
L 605.371826 66.996307 
L 606.895168 67.020512 
L 607.910729 67.002359 
L 612.988534 66.978154 
L 621.620803 66.990256 
L 622.636364 66.996307 
L 622.636364 66.996307 
" clip-path="url(#pdfd6735149)" style="fill: none; stroke: #1f77b4; stroke-width: 1.5; stroke-linecap: square"/>
   </g>
   <g id="line2d_14">
    <path d="M 115.363636 366.732095 
L 116.379197 366.126972 
L 116.886978 366.096716 
L 118.410319 365.340311 
L 119.42588 364.644419 
L 119.933661 363.706478 
L 120.949222 363.161867 
L 121.457002 363.222379 
L 122.472563 363.918271 
L 122.980344 364.341858 
L 126.534808 365.82441 
L 127.042588 365.884922 
L 127.550369 365.521848 
L 128.058149 364.281345 
L 129.07371 357.594731 
L 129.581491 356.384485 
L 130.597052 353.540405 
L 131.104832 352.844513 
L 131.612613 351.210679 
L 132.628174 346.884047 
L 133.135954 345.583031 
L 133.643735 342.164084 
L 134.151515 339.531797 
L 135.674857 333.571331 
L 136.182637 332.421597 
L 136.690418 331.967754 
L 137.198198 330.454946 
L 138.213759 328.306758 
L 138.72154 326.672924 
L 139.22932 326.340106 
L 139.737101 325.492934 
L 140.244881 324.191918 
L 140.752662 324.131406 
L 141.768223 320.893996 
L 142.276003 320.803227 
L 142.783784 319.744261 
L 143.799345 318.685295 
L 144.307125 317.081718 
L 144.814906 316.11352 
L 146.338247 313.753539 
L 146.846028 312.210474 
L 147.861589 311.121252 
L 148.369369 310.153055 
L 148.87715 309.517675 
L 149.38493 308.60999 
L 149.892711 307.460255 
L 150.400491 307.883842 
L 150.908272 307.97461 
L 151.416052 306.492058 
L 151.923833 306.703851 
L 152.431613 304.646431 
L 152.939394 304.464894 
L 153.447174 303.678234 
L 153.954955 303.678234 
L 154.462735 302.67978 
L 154.970516 302.952086 
L 155.478296 301.348509 
L 155.986077 300.834154 
L 157.001638 300.440824 
L 157.509419 300.713129 
L 158.017199 299.593651 
L 158.52498 298.776734 
L 159.03276 298.201867 
L 159.540541 296.840339 
L 160.048321 297.657256 
L 160.556102 297.808537 
L 161.063882 297.173157 
L 161.571663 295.388043 
L 162.079443 295.630092 
L 162.587224 295.388043 
L 163.095004 294.903944 
L 163.602785 294.964457 
L 165.633907 292.876781 
L 166.141687 293.51216 
L 166.649468 291.333716 
L 167.157248 292.453194 
L 168.172809 290.698336 
L 168.68059 291.000898 
L 169.18837 290.91013 
L 169.696151 289.367065 
L 170.203931 289.457833 
L 170.711712 288.731685 
L 171.219492 287.733232 
L 171.727273 287.733232 
L 172.742834 286.190167 
L 173.250614 287.097852 
L 174.266175 284.526077 
L 174.773956 284.828639 
L 175.281736 284.828639 
L 175.789517 284.374797 
L 176.297297 284.253772 
L 176.805078 281.167642 
L 177.312858 281.863534 
L 177.820639 280.865081 
L 178.328419 280.471751 
L 179.34398 280.683544 
L 179.851761 279.140479 
L 180.359541 279.170735 
L 180.867322 279.503553 
L 181.375102 278.595868 
L 181.882883 278.716893 
L 182.390663 277.173828 
L 182.898444 277.839464 
L 183.406224 276.992291 
L 183.914005 277.204084 
L 184.421785 276.568704 
L 184.929566 275.02564 
L 185.945127 275.176921 
L 186.452907 273.936417 
L 186.960688 274.511285 
L 187.976249 273.512831 
L 188.484029 272.060535 
L 188.99181 272.786683 
L 189.49959 272.786683 
L 190.007371 272.514377 
L 190.515152 271.243618 
L 191.022932 271.031825 
L 191.530713 271.818485 
L 192.038493 270.971313 
L 192.546274 271.818485 
L 193.054054 271.15285 
L 193.561835 270.12414 
L 194.069615 269.519016 
L 194.577396 269.761066 
L 195.085176 269.700553 
L 195.592957 269.09543 
L 196.100737 269.397992 
L 196.608518 268.157489 
L 197.116298 269.065174 
L 197.624079 267.491853 
L 198.131859 267.552365 
L 198.63964 266.947242 
L 199.14742 269.125686 
L 199.655201 268.46005 
L 200.670762 266.130325 
L 201.178542 266.523655 
L 201.686323 266.25135 
L 202.194103 265.555458 
L 202.701884 265.585714 
L 203.209664 265.85802 
L 203.717445 265.585714 
L 204.225225 264.920078 
L 204.733006 264.678029 
L 205.240786 266.25135 
L 205.748567 265.101615 
L 206.256347 264.647773 
L 206.764128 264.375467 
L 207.271908 264.375467 
L 207.779689 264.012393 
L 208.287469 264.920078 
L 208.79525 263.528295 
L 209.30303 262.802146 
L 209.810811 263.044196 
L 210.826372 261.501131 
L 211.334152 263.16522 
L 211.841933 263.044196 
L 212.349713 262.166767 
L 212.857494 262.075998 
L 213.365274 262.197023 
L 213.873055 262.136511 
L 214.380835 262.197023 
L 214.888616 262.106254 
L 215.396396 262.439072 
L 215.904177 261.410363 
L 216.411957 262.590353 
L 216.919738 261.198569 
L 217.427518 261.712924 
L 217.935299 261.5919 
L 218.443079 260.774983 
L 218.95086 260.351397 
L 219.45864 262.075998 
L 219.966421 261.561643 
L 220.474201 260.865751 
L 220.981982 261.410363 
L 221.997543 260.805239 
L 222.505324 260.95652 
L 223.013104 259.988322 
L 223.520885 261.047288 
L 224.028665 260.351397 
L 224.536446 261.531387 
L 225.044226 261.259082 
L 225.552007 260.018579 
L 226.059787 261.773437 
L 226.567568 260.109347 
L 227.075348 260.684214 
L 227.583129 260.95652 
L 228.090909 259.625248 
L 228.59869 261.017032 
L 229.10647 259.443711 
L 229.614251 260.200116 
L 230.122031 261.470875 
L 230.629812 259.504224 
L 231.137592 260.532934 
L 231.645373 260.200116 
L 232.153153 259.171406 
L 232.660934 260.714471 
L 233.168714 260.351397 
L 233.676495 259.564736 
L 234.184275 260.079091 
L 234.692056 259.867298 
L 235.199836 260.623702 
L 235.707617 259.685761 
L 236.215397 258.50577 
L 236.723178 259.080637 
L 237.230958 258.475514 
L 237.738739 258.687307 
L 238.246519 258.657051 
L 238.7543 259.443711 
L 239.26208 258.657051 
L 239.769861 259.020125 
L 240.277641 260.200116 
L 240.785422 257.930903 
L 241.293202 258.929356 
L 241.800983 258.142696 
L 242.308763 258.8991 
L 242.816544 258.778076 
L 243.324324 258.808332 
L 243.832105 258.415002 
L 244.339885 258.203208 
L 244.847666 258.626795 
L 245.355446 258.082184 
L 245.863227 258.596539 
L 246.371007 258.657051 
L 246.878788 259.867298 
L 247.386568 259.564736 
L 247.894349 258.445258 
L 248.402129 259.988322 
L 249.41769 258.263721 
L 249.925471 258.657051 
L 250.433251 258.747819 
L 251.448812 259.504224 
L 251.956593 259.685761 
L 252.464373 259.625248 
L 252.972154 259.383199 
L 253.479934 257.537573 
L 253.987715 258.203208 
L 255.003276 258.021671 
L 255.511057 259.322687 
L 257.034398 258.838588 
L 258.049959 258.021671 
L 258.55774 258.354489 
L 259.06552 258.959613 
L 259.573301 258.868844 
L 260.081081 258.172952 
L 260.588862 258.445258 
L 261.604423 258.082184 
L 262.112203 258.959613 
L 262.619984 258.324233 
L 263.127764 257.356036 
L 263.635545 258.626795 
L 264.143325 257.567829 
L 264.651106 258.051927 
L 265.158886 259.262174 
L 265.666667 257.628341 
L 266.174447 258.082184 
L 266.682228 257.598085 
L 267.190008 258.021671 
L 268.205569 258.566282 
L 268.71335 257.628341 
L 269.22113 258.536026 
L 269.728911 258.536026 
L 270.744472 257.688853 
L 271.252252 258.415002 
L 271.760033 257.688853 
L 272.775594 258.717563 
L 273.791155 257.446804 
L 274.298935 257.295523 
L 274.806716 257.446804 
L 275.314496 257.356036 
L 275.822277 256.902193 
L 276.330057 257.567829 
L 276.837838 257.08373 
L 277.345618 257.204755 
L 277.853399 256.902193 
L 278.361179 257.567829 
L 278.86896 256.962705 
L 279.37674 257.567829 
L 279.884521 256.781168 
L 280.392301 257.87039 
L 280.900082 257.356036 
L 281.407862 257.325779 
L 281.915643 257.567829 
L 282.423423 256.327326 
L 282.931204 256.508863 
L 283.438984 257.144242 
L 283.946765 257.08373 
L 284.454545 256.781168 
L 286.485667 257.446804 
L 286.993448 257.416548 
L 287.501229 257.567829 
L 288.009009 257.386292 
L 288.51679 257.023218 
L 289.02457 256.024764 
L 289.532351 256.357582 
L 290.040131 257.47706 
L 290.547912 258.172952 
L 291.055692 256.206301 
L 291.563473 257.356036 
L 292.071253 256.6904 
L 292.579034 257.961159 
L 293.594595 257.47706 
L 294.102375 257.295523 
L 294.610156 257.628341 
L 295.117936 257.47706 
L 296.133497 256.992961 
L 296.641278 256.05502 
L 297.149058 257.749366 
L 297.656839 256.811424 
L 298.164619 256.932449 
L 298.6724 257.537573 
L 299.18018 256.871937 
L 299.687961 257.144242 
L 300.195741 257.113986 
L 300.703522 256.418094 
L 301.211302 257.295523 
L 301.719083 256.841681 
L 302.226863 257.295523 
L 302.734644 256.478607 
L 303.242424 256.266813 
L 303.750205 256.811424 
L 304.257985 256.902193 
L 304.765766 256.29707 
L 305.273546 256.871937 
L 305.781327 256.871937 
L 306.289107 256.720656 
L 306.796888 257.053474 
L 307.304668 257.053474 
L 307.812449 256.024764 
L 308.320229 256.599631 
L 309.33579 257.356036 
L 310.351351 256.206301 
L 310.859132 255.994508 
L 311.366912 257.023218 
L 311.874693 256.206301 
L 312.382473 256.569375 
L 312.890254 257.446804 
L 313.398034 256.6904 
L 313.905815 256.629887 
L 314.921376 257.416548 
L 315.429156 257.235011 
L 315.936937 256.508863 
L 316.952498 256.992961 
L 317.460278 257.688853 
L 317.968059 256.720656 
L 318.475839 256.266813 
L 318.98362 257.204755 
L 319.4914 257.628341 
L 319.999181 256.206301 
L 320.506962 256.599631 
L 321.014742 257.507316 
L 321.522523 257.567829 
L 322.030303 256.024764 
L 322.538084 257.023218 
L 323.045864 257.356036 
L 323.553645 256.871937 
L 324.061425 257.08373 
L 324.569206 257.47706 
L 325.076986 256.206301 
L 325.584767 255.812971 
L 326.092547 256.44835 
L 326.600328 254.935542 
L 327.108108 255.873483 
L 327.615889 255.691946 
L 328.123669 256.418094 
L 328.63145 255.873483 
L 329.13923 255.903739 
L 329.647011 255.66169 
L 330.154791 256.781168 
L 330.662572 255.570921 
L 331.170352 254.965798 
L 331.678133 255.419641 
L 332.185913 256.115533 
L 332.693694 255.812971 
L 333.201474 255.66169 
L 333.709255 255.903739 
L 334.217035 255.540665 
L 334.724816 255.328872 
L 335.232596 257.174499 
L 335.740377 256.387838 
L 336.248157 256.418094 
L 336.755938 255.933995 
L 337.263718 256.418094 
L 337.771499 255.177591 
L 338.279279 256.085276 
L 338.78706 256.266813 
L 339.29484 255.389384 
L 339.802621 255.449897 
L 340.310401 256.629887 
L 340.818182 255.631434 
L 341.325962 256.05502 
L 341.833743 255.691946 
L 342.341523 255.66169 
L 342.849304 256.024764 
L 343.357084 255.903739 
L 343.864865 256.599631 
L 344.372645 256.418094 
L 344.880426 255.510409 
L 345.388206 256.569375 
L 345.895987 257.08373 
L 346.403767 255.964252 
L 346.911548 256.599631 
L 347.419328 255.631434 
L 347.927109 255.873483 
L 348.434889 255.691946 
L 348.94267 254.784261 
L 349.45045 255.722202 
L 349.958231 254.905286 
L 350.466011 256.29707 
L 350.973792 257.113986 
L 351.481572 256.357582 
L 351.989353 256.085276 
L 352.497133 256.660144 
L 353.004914 255.873483 
L 354.528256 256.024764 
L 355.036036 256.266813 
L 355.543817 255.510409 
L 356.051597 256.176045 
L 356.559378 256.115533 
L 357.067158 255.26836 
L 357.574939 256.024764 
L 358.082719 255.812971 
L 358.5905 254.784261 
L 359.09828 256.750912 
L 359.606061 255.480153 
L 360.621622 255.994508 
L 361.129402 255.752458 
L 361.637183 255.812971 
L 362.144963 254.935542 
L 363.668305 257.023218 
L 364.176085 256.387838 
L 364.683866 255.359128 
L 365.191646 255.147335 
L 365.699427 255.328872 
L 366.207207 255.389384 
L 366.714988 255.843227 
L 367.222768 255.752458 
L 367.730549 256.145789 
L 368.238329 257.628341 
L 368.74611 256.539119 
L 369.25389 255.933995 
L 369.761671 256.387838 
L 370.269451 255.66169 
L 370.777232 256.387838 
L 371.285012 255.631434 
L 371.792793 256.206301 
L 372.300573 255.419641 
L 372.808354 255.177591 
L 373.316134 255.207847 
L 373.823915 255.933995 
L 374.331695 255.056567 
L 374.839476 255.631434 
L 375.347256 255.691946 
L 375.855037 255.056567 
L 376.362817 255.480153 
L 376.870598 255.631434 
L 377.378378 256.508863 
L 377.886159 256.720656 
L 378.393939 256.145789 
L 378.90172 255.752458 
L 379.4095 255.086823 
L 379.917281 255.933995 
L 380.425061 255.631434 
L 380.932842 255.601178 
L 381.440622 256.05502 
L 382.456183 255.631434 
L 382.963964 255.722202 
L 383.471744 254.360675 
L 383.979525 255.631434 
L 384.995086 255.722202 
L 386.010647 255.177591 
L 386.518428 254.996054 
L 387.026208 254.209394 
L 387.533989 254.996054 
L 388.041769 255.147335 
L 388.54955 255.631434 
L 389.05733 254.814517 
L 389.565111 255.389384 
L 390.072891 254.663236 
L 390.580672 256.05502 
L 391.596233 255.843227 
L 392.611794 255.298616 
L 393.119574 254.693492 
L 393.627355 254.360675 
L 394.135135 255.177591 
L 394.642916 255.056567 
L 395.150696 255.147335 
L 395.658477 255.389384 
L 396.166257 254.058113 
L 396.674038 255.419641 
L 397.181818 255.298616 
L 397.689599 255.298616 
L 398.197379 255.086823 
L 398.70516 254.330418 
L 399.21294 255.298616 
L 399.720721 254.542212 
L 400.228501 254.754005 
L 400.736282 255.359128 
L 401.244062 255.117079 
L 401.751843 255.02631 
L 402.259623 255.782715 
L 402.767404 254.663236 
L 403.275184 255.298616 
L 403.782965 255.117079 
L 404.290745 255.66169 
L 404.798526 255.480153 
L 405.306306 254.663236 
L 405.814087 255.843227 
L 406.321867 253.785807 
L 406.829648 254.844773 
L 407.337428 255.177591 
L 407.845209 254.421187 
L 408.352989 254.844773 
L 408.86077 254.390931 
L 409.876331 255.086823 
L 410.891892 255.449897 
L 411.399672 255.752458 
L 412.415233 254.542212 
L 412.923014 255.389384 
L 413.430794 254.996054 
L 413.938575 254.996054 
L 414.446355 254.663236 
L 414.954136 255.933995 
L 415.461916 255.177591 
L 415.969697 254.784261 
L 416.477477 255.873483 
L 416.985258 255.601178 
L 417.493038 255.086823 
L 418.000819 255.359128 
L 418.5086 255.147335 
L 419.01638 255.903739 
L 419.524161 254.511955 
L 420.031941 254.996054 
L 420.539722 254.542212 
L 421.555283 254.814517 
L 422.063063 255.177591 
L 422.570844 255.117079 
L 423.078624 255.359128 
L 423.586405 255.328872 
L 424.094185 254.965798 
L 424.601966 255.419641 
L 425.109746 254.602724 
L 425.617527 254.693492 
L 426.633088 255.752458 
L 427.140868 255.056567 
L 427.648649 254.935542 
L 428.156429 255.238104 
L 428.66421 255.147335 
L 429.17199 255.449897 
L 429.679771 255.449897 
L 430.187551 256.387838 
L 430.695332 255.812971 
L 431.203112 255.449897 
L 431.710893 256.145789 
L 432.218673 255.238104 
L 432.726454 255.177591 
L 433.234234 255.722202 
L 433.742015 254.875029 
L 434.757576 255.540665 
L 435.773137 255.328872 
L 436.280917 256.539119 
L 436.788698 255.782715 
L 437.296478 255.752458 
L 437.804259 254.935542 
L 438.312039 254.875029 
L 438.81982 255.631434 
L 439.3276 256.115533 
L 439.835381 255.570921 
L 440.343161 255.26836 
L 440.850942 255.691946 
L 441.866503 255.086823 
L 442.374283 255.510409 
L 442.882064 255.510409 
L 443.389844 254.814517 
L 443.897625 255.086823 
L 444.405405 255.631434 
L 444.913186 255.722202 
L 445.420966 255.389384 
L 445.928747 254.663236 
L 446.436527 254.481699 
L 446.944308 254.814517 
L 447.452088 255.873483 
L 447.959869 255.056567 
L 448.467649 254.996054 
L 448.97543 254.814517 
L 449.48321 254.875029 
L 449.990991 255.722202 
L 450.498771 255.389384 
L 451.006552 255.328872 
L 451.514333 254.511955 
L 452.022113 254.663236 
L 452.529894 254.451443 
L 453.037674 254.935542 
L 453.545455 255.631434 
L 454.053235 255.66169 
L 454.561016 256.206301 
L 455.068796 254.027857 
L 455.576577 254.542212 
L 456.084357 255.298616 
L 456.592138 255.601178 
L 457.099918 254.663236 
L 457.607699 255.328872 
L 458.115479 255.238104 
L 458.62326 256.206301 
L 459.13104 255.510409 
L 459.638821 255.480153 
L 460.146601 255.086823 
L 461.669943 255.994508 
L 462.177723 254.63298 
L 462.685504 254.572468 
L 463.193284 254.148881 
L 463.701065 254.693492 
L 464.208845 255.66169 
L 464.716626 254.996054 
L 465.224406 254.996054 
L 465.732187 254.754005 
L 466.239967 255.056567 
L 466.747748 255.117079 
L 467.255528 254.693492 
L 467.763309 254.63298 
L 468.271089 254.421187 
L 468.77887 254.875029 
L 469.28665 254.693492 
L 469.794431 254.209394 
L 470.302211 254.330418 
L 470.809992 254.935542 
L 472.333333 254.663236 
L 472.841114 255.177591 
L 473.348894 255.328872 
L 473.856675 254.451443 
L 474.364455 254.814517 
L 474.872236 254.935542 
L 475.380016 254.754005 
L 475.887797 254.269906 
L 476.395577 255.02631 
L 476.903358 254.663236 
L 477.411138 255.02631 
L 477.918919 254.814517 
L 478.426699 255.359128 
L 478.93448 255.66169 
L 479.950041 254.481699 
L 480.457821 254.572468 
L 480.965602 255.873483 
L 481.473382 255.570921 
L 481.981163 255.570921 
L 482.488943 256.236557 
L 482.996724 255.782715 
L 483.504505 255.964252 
L 484.012285 255.389384 
L 484.520066 255.238104 
L 485.027846 255.812971 
L 485.535627 255.601178 
L 486.043407 255.26836 
L 486.551188 255.177591 
L 487.058968 254.663236 
L 487.566749 254.663236 
L 488.074529 254.451443 
L 488.58231 254.390931 
L 489.09009 254.784261 
L 489.597871 254.996054 
L 490.105651 254.421187 
L 490.613432 254.693492 
L 491.121212 255.207847 
L 491.628993 254.63298 
L 492.136773 254.965798 
L 492.644554 254.935542 
L 493.660115 255.328872 
L 494.167895 254.572468 
L 494.675676 254.179138 
L 495.183456 254.693492 
L 495.691237 254.481699 
L 496.199017 254.693492 
L 496.706798 254.542212 
L 497.214578 255.086823 
L 497.722359 254.360675 
L 498.230139 254.179138 
L 498.73792 254.511955 
L 499.2457 254.421187 
L 499.753481 254.209394 
L 500.261261 254.390931 
L 500.769042 254.390931 
L 501.276822 254.63298 
L 501.784603 254.179138 
L 502.800164 254.905286 
L 503.307944 254.421187 
L 503.815725 254.572468 
L 504.323505 254.330418 
L 505.846847 254.118625 
L 506.862408 253.84632 
L 507.877969 254.330418 
L 509.909091 254.63298 
L 510.416871 254.209394 
L 510.924652 254.63298 
L 511.432432 254.511955 
L 511.940213 254.602724 
L 512.447993 254.905286 
L 512.955774 254.421187 
L 513.463554 254.390931 
L 513.971335 254.693492 
L 514.479115 254.663236 
L 515.494676 253.997601 
L 516.510238 254.027857 
L 518.54136 255.510409 
L 519.04914 254.723749 
L 519.556921 254.935542 
L 520.064701 255.328872 
L 520.572482 254.996054 
L 521.080262 254.965798 
L 521.588043 254.390931 
L 522.095823 254.088369 
L 522.603604 254.088369 
L 523.111384 254.209394 
L 524.126945 254.723749 
L 525.142506 254.451443 
L 525.650287 254.481699 
L 526.158067 254.814517 
L 526.665848 254.451443 
L 527.173628 254.875029 
L 528.189189 254.723749 
L 528.69697 254.905286 
L 529.20475 254.602724 
L 529.712531 254.723749 
L 530.220311 255.147335 
L 530.728092 254.693492 
L 531.235872 254.754005 
L 531.743653 255.177591 
L 532.251433 254.784261 
L 532.759214 255.389384 
L 533.774775 254.421187 
L 534.282555 255.177591 
L 534.790336 255.177591 
L 535.298116 254.693492 
L 535.805897 254.875029 
L 536.313677 255.298616 
L 536.821458 255.177591 
L 537.329238 254.360675 
L 538.344799 254.935542 
L 538.85258 254.269906 
L 539.36036 255.02631 
L 539.868141 254.723749 
L 540.375921 253.876576 
L 540.883702 254.663236 
L 541.391482 253.755551 
L 541.899263 254.058113 
L 542.407043 254.723749 
L 543.422604 254.269906 
L 543.930385 253.725295 
L 544.438165 254.330418 
L 544.945946 254.511955 
L 545.453726 254.269906 
L 545.961507 254.330418 
L 546.469287 254.511955 
L 546.977068 254.935542 
L 547.484848 254.844773 
L 547.992629 254.965798 
L 548.50041 254.935542 
L 549.00819 254.572468 
L 549.515971 254.481699 
L 550.531532 254.663236 
L 551.039312 254.451443 
L 551.547093 254.754005 
L 552.054873 254.572468 
L 553.578215 254.572468 
L 554.085995 254.179138 
L 554.593776 254.572468 
L 555.101556 255.147335 
L 555.609337 254.451443 
L 556.117117 254.481699 
L 557.132678 253.937088 
L 557.640459 254.360675 
L 559.671581 254.088369 
L 560.179361 254.179138 
L 560.687142 254.451443 
L 561.194922 253.997601 
L 561.702703 253.785807 
L 562.210483 253.906832 
L 562.718264 253.664783 
L 563.226044 254.330418 
L 563.733825 253.725295 
L 564.749386 254.572468 
L 565.257166 254.542212 
L 565.764947 254.118625 
L 566.272727 254.602724 
L 566.780508 254.179138 
L 567.288288 254.693492 
L 568.81163 254.693492 
L 569.31941 254.300162 
L 569.827191 254.875029 
L 570.334971 255.02631 
L 570.842752 254.784261 
L 571.350532 255.056567 
L 571.858313 254.542212 
L 572.366093 254.754005 
L 572.873874 254.481699 
L 573.381654 254.935542 
L 573.889435 254.572468 
L 574.397215 254.481699 
L 574.904996 254.23965 
L 575.412776 254.844773 
L 575.920557 254.905286 
L 576.428337 255.207847 
L 576.936118 254.63298 
L 577.443898 254.723749 
L 577.951679 254.693492 
L 578.459459 254.996054 
L 578.96724 254.300162 
L 579.47502 254.693492 
L 580.490581 254.269906 
L 581.506143 254.118625 
L 582.013923 254.360675 
L 582.521704 253.755551 
L 583.537265 253.997601 
L 584.045045 253.906832 
L 585.060606 254.118625 
L 585.568387 253.997601 
L 586.076167 253.997601 
L 587.091728 253.483246 
L 587.599509 253.84632 
L 588.61507 253.967344 
L 589.12285 254.330418 
L 590.138411 254.511955 
L 590.646192 253.997601 
L 591.153972 254.360675 
L 591.661753 254.542212 
L 592.169533 254.542212 
L 592.677314 254.179138 
L 593.185094 254.451443 
L 593.692875 253.937088 
L 594.708436 253.997601 
L 595.216216 254.330418 
L 595.723997 254.027857 
L 596.231777 254.330418 
L 596.739558 253.906832 
L 597.247338 254.209394 
L 597.755119 254.300162 
L 598.262899 253.967344 
L 598.77068 253.816063 
L 599.786241 253.84632 
L 600.801802 254.360675 
L 601.309582 254.027857 
L 601.817363 254.996054 
L 602.325143 254.23965 
L 602.832924 254.390931 
L 603.340704 254.058113 
L 603.848485 253.967344 
L 604.356265 254.209394 
L 604.864046 254.300162 
L 605.371826 253.785807 
L 605.879607 254.088369 
L 606.387387 254.875029 
L 606.895168 254.148881 
L 607.402948 253.937088 
L 608.418509 254.451443 
L 608.92629 254.693492 
L 609.43407 254.754005 
L 609.941851 254.23965 
L 611.465192 254.269906 
L 611.972973 254.754005 
L 612.480753 254.542212 
L 613.496314 254.844773 
L 614.004095 254.390931 
L 614.511876 254.814517 
L 615.019656 254.754005 
L 615.527437 254.542212 
L 616.035217 254.148881 
L 616.542998 254.451443 
L 617.050778 254.269906 
L 617.558559 254.693492 
L 618.066339 254.511955 
L 618.57412 254.784261 
L 619.0819 254.63298 
L 619.589681 254.23965 
L 620.605242 254.390931 
L 621.113022 254.663236 
L 621.620803 254.754005 
L 622.128583 254.693492 
L 622.636364 254.148881 
L 622.636364 254.148881 
" clip-path="url(#pdfd6735149)" style="fill: none; stroke: #ff7f0e; stroke-width: 1.5; stroke-linecap: square"/>
   </g>
   <g id="line2d_15">
    <path d="M 115.363636 347.599988 
L 127.550369 347.718731 
L 129.07371 348.031831 
L 130.089271 348.480449 
L 131.104832 348.913834 
L 133.135954 349.574211 
L 134.659296 350.523105 
L 136.182637 350.987672 
L 139.737101 351.683636 
L 147.353808 352.898883 
L 159.03276 354.308536 
L 165.126126 354.962944 
L 167.157248 355.177419 
L 170.711712 355.584047 
L 172.742834 355.797995 
L 178.328419 356.488148 
L 180.359541 356.754194 
L 181.882883 356.936011 
L 182.898444 357.092397 
L 185.437346 357.429307 
L 209.810811 361.251139 
L 211.841933 361.66546 
L 215.396396 362.241023 
L 217.427518 362.610107 
L 218.443079 362.74657 
L 223.520885 363.623359 
L 224.536446 363.77821 
L 232.660934 364.983327 
L 234.184275 365.133267 
L 239.26208 365.765378 
L 249.41769 366.678734 
L 249.925471 366.775486 
L 250.941032 366.794915 
L 270.236691 367.768914 
L 280.900082 368.080327 
L 283.438984 368.134404 
L 285.977887 368.199555 
L 287.501229 368.230864 
L 292.071253 368.340647 
L 296.133497 368.380881 
L 297.656839 368.427423 
L 354.020475 368.898523 
L 356.051597 368.889602 
L 358.5905 368.924758 
L 361.129402 368.927052 
L 366.207207 368.947025 
L 369.761671 368.965363 
L 372.808354 369.074586 
L 393.119574 369.231292 
L 403.275184 369.258242 
L 423.078624 369.306392 
L 428.156429 369.307807 
L 448.467649 369.328935 
L 622.636364 369.358557 
L 622.636364 369.358557 
" clip-path="url(#pdfd6735149)" style="fill: none; stroke: #2ca02c; stroke-width: 1.5; stroke-linecap: square"/>
   </g>
   <g id="line2d_16">
    <path d="M 115.363636 347.628216 
L 127.042588 347.725858 
L 128.56593 348.01991 
L 129.581491 348.470559 
L 130.597052 349.04813 
L 133.135954 349.959422 
L 134.151515 350.712906 
L 135.674857 351.212437 
L 138.213759 351.695061 
L 142.276003 352.363577 
L 146.338247 352.931739 
L 148.87715 353.239759 
L 153.954955 353.772288 
L 154.970516 353.836379 
L 156.493857 353.98709 
L 162.587224 354.446396 
L 166.141687 354.590879 
L 167.157248 354.752141 
L 176.805078 355.422907 
L 182.898444 355.780602 
L 191.022932 356.208163 
L 192.038493 356.237842 
L 202.701884 356.548148 
L 203.209664 356.449177 
L 204.733006 356.522153 
L 205.240786 356.444539 
L 205.748567 356.571221 
L 206.764128 356.519734 
L 209.810811 356.577127 
L 210.826372 356.546545 
L 212.857494 356.483101 
L 216.411957 356.433546 
L 216.919738 356.488799 
L 218.443079 356.309655 
L 218.95086 356.38506 
L 219.966421 356.312428 
L 221.997543 356.271133 
L 222.505324 356.33846 
L 223.013104 356.196912 
L 229.614251 355.842012 
L 230.122031 355.730284 
L 231.137592 355.842238 
L 232.153153 355.762715 
L 232.660934 355.759554 
L 233.676495 355.586482 
L 236.215397 355.486537 
L 236.723178 355.361453 
L 237.230958 355.483727 
L 239.26208 355.198 
L 241.800983 355.141705 
L 242.308763 354.997527 
L 242.816544 355.096937 
L 243.324324 354.932672 
L 244.847666 354.97155 
L 245.355446 354.82836 
L 246.878788 354.754099 
L 247.894349 354.684824 
L 250.433251 354.572317 
L 250.941032 354.424588 
L 252.464373 354.462226 
L 253.987715 354.174857 
L 254.495495 354.280394 
L 255.003276 354.130654 
L 255.511057 354.304212 
L 256.526618 354.107452 
L 257.034398 354.229641 
L 258.55774 354.055974 
L 260.588862 353.903744 
L 261.096642 353.906192 
L 262.112203 353.646606 
L 262.619984 353.860109 
L 263.127764 353.681363 
L 263.635545 353.779512 
L 264.143325 353.645663 
L 264.651106 353.667906 
L 265.158886 353.518264 
L 267.190008 353.566754 
L 267.697789 353.463829 
L 268.205569 353.23702 
L 268.71335 353.545131 
L 269.22113 353.394911 
L 270.236691 353.471644 
L 271.252252 353.206385 
L 271.760033 353.35727 
L 273.283374 353.31865 
L 273.791155 353.22757 
L 274.298935 353.360351 
L 275.314496 353.256636 
L 276.330057 353.160447 
L 276.837838 352.865731 
L 277.345618 352.952564 
L 277.853399 353.246856 
L 278.361179 353.046579 
L 279.884521 353.039392 
L 282.931204 352.869696 
L 283.438984 352.756678 
L 283.946765 352.889709 
L 284.454545 352.674518 
L 284.962326 352.815342 
L 286.485667 352.774958 
L 286.993448 352.60157 
L 288.009009 352.746538 
L 288.51679 352.594736 
L 289.02457 352.668296 
L 289.532351 352.391987 
L 290.547912 352.552167 
L 291.563473 352.404441 
L 292.579034 352.5379 
L 293.086814 352.253185 
L 295.117936 352.108007 
L 295.625717 352.408606 
L 296.133497 352.267215 
L 296.641278 352.313706 
L 297.149058 352.069268 
L 297.656839 352.13639 
L 298.164619 352.330043 
L 298.6724 352.010782 
L 299.18018 352.157117 
L 300.195741 352.057138 
L 301.211302 352.084355 
L 303.750205 351.907419 
L 304.257985 351.498642 
L 304.765766 351.908973 
L 305.273546 351.930117 
L 305.781327 351.785928 
L 307.304668 351.781841 
L 307.812449 351.695166 
L 308.320229 351.771467 
L 308.82801 351.539375 
L 309.33579 351.765554 
L 310.859132 351.640866 
L 311.366912 351.741726 
L 312.382473 351.637875 
L 312.890254 351.804487 
L 313.905815 351.630691 
L 314.413595 351.580484 
L 314.921376 351.724949 
L 315.936937 351.518138 
L 316.952498 351.441583 
L 317.460278 351.64478 
L 317.968059 351.516431 
L 318.475839 351.528914 
L 318.98362 351.400335 
L 319.4914 351.485703 
L 321.014742 351.38089 
L 322.030303 351.477311 
L 323.045864 351.181717 
L 324.569206 351.154726 
L 325.076986 351.324614 
L 325.584767 351.287471 
L 326.092547 351.035521 
L 326.600328 351.273114 
L 327.108108 351.283143 
L 327.615889 351.448788 
L 328.63145 351.28011 
L 330.154791 350.999362 
L 330.662572 351.192105 
L 331.170352 350.997939 
L 331.678133 351.187484 
L 332.185913 351.02545 
L 332.693694 351.000449 
L 333.201474 351.138548 
L 333.709255 350.921989 
L 334.217035 350.854597 
L 334.724816 351.058711 
L 335.740377 351.053583 
L 336.248157 350.890106 
L 337.263718 351.143121 
L 340.310401 351.046692 
L 340.818182 350.86611 
L 341.325962 350.997605 
L 341.833743 350.989657 
L 342.341523 350.817848 
L 342.849304 351.12881 
L 343.357084 351.144298 
L 343.864865 350.851363 
L 344.880426 350.820474 
L 345.895987 350.592242 
L 346.403767 350.830263 
L 347.927109 350.598931 
L 348.434889 350.774009 
L 349.45045 350.730944 
L 349.958231 350.725208 
L 350.973792 350.478788 
L 351.481572 350.58473 
L 351.989353 350.474715 
L 352.497133 350.75002 
L 353.512695 350.751404 
L 354.020475 350.806039 
L 354.528256 350.51795 
L 356.559378 350.480757 
L 357.067158 350.71975 
L 357.574939 350.351772 
L 358.082719 350.604013 
L 359.09828 350.363211 
L 359.606061 350.599128 
L 360.113841 350.230112 
L 360.621622 350.496356 
L 361.129402 350.488315 
L 361.637183 350.23752 
L 362.144963 350.674735 
L 362.652744 350.428849 
L 363.668305 350.412552 
L 364.176085 350.233937 
L 365.191646 350.325015 
L 365.699427 350.057662 
L 366.207207 350.369774 
L 367.222768 350.261645 
L 367.730549 350.379686 
L 368.238329 350.21639 
L 368.74611 350.353348 
L 369.25389 350.042929 
L 370.269451 350.184359 
L 370.777232 350.076125 
L 371.285012 350.290826 
L 371.792793 350.255843 
L 372.808354 349.885753 
L 373.316134 349.793222 
L 373.823915 349.906186 
L 374.331695 349.728277 
L 374.839476 349.428415 
L 375.347256 349.376324 
L 375.855037 349.53618 
L 376.870598 349.537469 
L 378.393939 348.880098 
L 378.90172 349.071023 
L 379.4095 348.90343 
L 380.932842 348.773862 
L 381.440622 348.968525 
L 383.471744 348.717138 
L 383.979525 348.44981 
L 384.487305 348.353754 
L 384.995086 348.610216 
L 386.010647 348.292087 
L 387.533989 348.38473 
L 388.041769 348.210494 
L 388.54955 348.319487 
L 389.05733 347.952175 
L 390.072891 347.940174 
L 390.580672 348.035444 
L 391.088452 347.805285 
L 391.596233 347.828868 
L 392.104013 347.700324 
L 392.611794 347.960383 
L 393.119574 347.688393 
L 394.135135 347.68763 
L 394.642916 347.91965 
L 395.150696 347.742557 
L 395.658477 347.381892 
L 396.674038 347.469878 
L 397.181818 347.791817 
L 397.689599 347.201391 
L 399.720721 347.295143 
L 400.228501 347.196898 
L 400.736282 347.274911 
L 401.751843 347.114142 
L 403.275184 346.986825 
L 403.782965 346.757223 
L 404.290745 347.126001 
L 404.798526 346.854672 
L 405.814087 346.616032 
L 407.845209 346.809856 
L 408.352989 346.469774 
L 410.384111 346.576436 
L 410.891892 346.27535 
L 412.923014 346.155515 
L 413.430794 345.980071 
L 414.446355 346.112912 
L 414.954136 345.879309 
L 416.985258 345.927682 
L 417.493038 345.662684 
L 418.000819 345.729725 
L 418.5086 345.665354 
L 419.01638 345.959552 
L 420.031941 345.5791 
L 420.539722 345.705372 
L 421.047502 345.665782 
L 421.555283 345.440215 
L 422.063063 345.527309 
L 423.586405 345.434975 
L 424.094185 345.401186 
L 424.601966 345.18518 
L 425.109746 345.480603 
L 426.125307 345.27009 
L 427.140868 345.294224 
L 427.648649 345.437845 
L 428.156429 345.124218 
L 429.17199 345.163825 
L 429.679771 345.037667 
L 431.203112 345.225763 
L 431.710893 344.681819 
L 432.218673 344.913464 
L 432.726454 344.815507 
L 434.249795 344.965676 
L 434.757576 344.834601 
L 435.265356 344.883989 
L 435.773137 344.671982 
L 436.788698 344.709679 
L 437.804259 344.317306 
L 438.312039 344.55176 
L 438.81982 344.331979 
L 439.3276 344.625286 
L 439.835381 344.278109 
L 440.343161 344.463481 
L 440.850942 344.481538 
L 441.358722 344.370285 
L 441.866503 344.461063 
L 442.882064 344.335999 
L 443.389844 344.03106 
L 443.897625 344.270248 
L 444.405405 344.156002 
L 444.913186 343.883895 
L 445.420966 344.25311 
L 445.928747 344.188603 
L 446.436527 344.250743 
L 446.944308 344.183168 
L 448.467649 343.737398 
L 449.990991 343.887454 
L 450.498771 343.709851 
L 451.514333 343.799576 
L 452.022113 343.880369 
L 454.561016 343.613532 
L 456.084357 343.847982 
L 456.592138 343.713676 
L 457.099918 343.829316 
L 458.62326 343.536116 
L 459.13104 343.645718 
L 460.146601 343.531553 
L 460.654382 343.59502 
L 461.669943 343.392555 
L 462.177723 343.51435 
L 462.685504 343.360093 
L 463.701065 343.274494 
L 466.239967 343.281482 
L 466.747748 343.001493 
L 467.255528 343.029779 
L 467.763309 343.414799 
L 468.77887 343.050859 
L 469.28665 343.300496 
L 469.794431 343.304714 
L 470.302211 343.159893 
L 470.809992 343.186565 
L 471.317772 343.009992 
L 471.825553 343.12082 
L 472.333333 342.952727 
L 473.856675 342.898079 
L 474.872236 342.770952 
L 475.380016 342.890348 
L 475.887797 342.688392 
L 476.395577 342.677539 
L 477.411138 342.857239 
L 477.918919 342.605628 
L 479.44226 342.791231 
L 479.950041 342.495586 
L 480.965602 342.796097 
L 481.981163 342.509391 
L 482.996724 342.658768 
L 483.504505 342.689097 
L 484.012285 342.524322 
L 486.043407 342.536431 
L 486.551188 342.312395 
L 488.58231 342.520599 
L 489.09009 342.462158 
L 489.597871 342.527269 
L 490.105651 342.345642 
L 490.613432 342.475338 
L 491.121212 342.304358 
L 491.628993 342.423771 
L 493.152334 342.23827 
L 493.660115 342.40311 
L 494.167895 342.156844 
L 494.675676 342.335415 
L 495.183456 342.180832 
L 495.691237 342.198403 
L 496.199017 342.085815 
L 496.706798 342.174255 
L 498.73792 341.915138 
L 499.2457 342.10129 
L 500.261261 342.101204 
L 500.769042 342.082682 
L 501.276822 342.178904 
L 501.784603 342.033699 
L 502.292383 342.075951 
L 502.800164 341.850062 
L 503.307944 342.058682 
L 503.815725 341.959031 
L 504.323505 342.108037 
L 504.831286 341.852983 
L 505.339066 341.806048 
L 505.846847 341.883954 
L 506.354627 341.788473 
L 506.862408 341.838651 
L 507.370188 341.740616 
L 507.877969 341.888328 
L 509.909091 341.734634 
L 510.416871 341.486309 
L 510.924652 341.678883 
L 511.432432 341.744164 
L 511.940213 341.664433 
L 512.447993 341.443989 
L 512.955774 341.740494 
L 513.463554 341.745227 
L 513.971335 341.621395 
L 514.479115 341.34796 
L 514.986896 341.635289 
L 516.002457 341.392114 
L 516.510238 341.557449 
L 518.033579 341.451998 
L 518.54136 341.602649 
L 519.04914 341.466264 
L 520.064701 341.405736 
L 520.572482 341.570174 
L 523.111384 341.438414 
L 523.619165 341.476432 
L 524.634726 341.238174 
L 525.142506 341.32367 
L 525.650287 341.228092 
L 527.173628 341.403212 
L 527.681409 341.227823 
L 530.728092 341.355665 
L 531.743653 341.402764 
L 532.759214 341.062009 
L 533.266994 341.175598 
L 533.774775 341.008086 
L 534.282555 341.200488 
L 534.790336 341.230372 
L 535.805897 341.0135 
L 541.899263 341.050469 
L 542.914824 340.971547 
L 544.438165 340.993309 
L 544.945946 341.122725 
L 546.469287 340.853744 
L 546.977068 341.02576 
L 547.484848 340.945938 
L 548.50041 340.90166 
L 550.531532 340.784357 
L 553.578215 340.798955 
L 554.085995 340.665892 
L 555.101556 340.885954 
L 555.609337 340.574355 
L 556.117117 340.540988 
L 556.624898 340.725404 
L 557.640459 340.63443 
L 558.148239 340.581866 
L 558.65602 340.659003 
L 559.671581 340.555153 
L 560.179361 340.75413 
L 560.687142 340.625297 
L 561.702703 340.585715 
L 562.210483 340.50771 
L 563.226044 340.579385 
L 563.733825 340.436613 
L 564.241605 340.565728 
L 564.749386 340.580062 
L 565.257166 340.472379 
L 565.764947 340.517016 
L 566.272727 340.407508 
L 567.288288 340.6716 
L 567.796069 340.761499 
L 568.303849 340.554774 
L 571.858313 340.481844 
L 572.366093 340.264873 
L 573.889435 340.592569 
L 574.904996 340.396174 
L 575.412776 340.360552 
L 575.920557 340.448404 
L 576.936118 340.428916 
L 577.951679 340.415772 
L 578.459459 340.524186 
L 578.96724 340.365614 
L 580.490581 340.318043 
L 580.998362 340.228288 
L 582.013923 340.423554 
L 583.029484 340.339217 
L 584.552826 340.355706 
L 586.583948 340.195819 
L 587.599509 340.353948 
L 588.107289 340.211318 
L 588.61507 340.352607 
L 589.12285 340.231454 
L 589.630631 340.264103 
L 590.138411 340.138464 
L 591.153972 340.371681 
L 591.661753 340.185006 
L 593.692875 340.119686 
L 594.200655 340.256977 
L 595.723997 340.243405 
L 597.247338 340.198194 
L 597.755119 340.141277 
L 598.262899 340.312433 
L 599.27846 340.172319 
L 601.309582 340.175049 
L 601.817363 340.233583 
L 602.325143 340.175992 
L 602.832924 340.006368 
L 606.387387 340.11641 
L 606.895168 340.240489 
L 607.910729 340.090164 
L 608.92629 340.095814 
L 609.43407 340.263811 
L 610.449631 340.110771 
L 614.511876 339.913937 
L 615.019656 339.836571 
L 615.527437 339.948565 
L 619.0819 339.760509 
L 620.605242 339.902064 
L 621.620803 339.866495 
L 622.128583 339.742927 
L 622.636364 339.85159 
L 622.636364 339.85159 
" clip-path="url(#pdfd6735149)" style="fill: none; stroke: #d62728; stroke-width: 1.5; stroke-linecap: square"/>
   </g>
   <g id="patch_3">
    <path d="M 90 384.48 
L 90 51.84 
" style="fill: none; stroke: #000000; stroke-width: 0.8; stroke-linejoin: miter; stroke-linecap: square"/>
   </g>
   <g id="patch_4">
    <path d="M 648 384.48 
L 648 51.84 
" style="fill: none; stroke: #000000; stroke-width: 0.8; stroke-linejoin: miter; stroke-linecap: square"/>
   </g>
   <g id="patch_5">
    <path d="M 90 384.48 
L 648 384.48 
" style="fill: none; stroke: #000000; stroke-width: 0.8; stroke-linejoin: miter; stroke-linecap: square"/>
   </g>
   <g id="patch_6">
    <path d="M 90 51.84 
L 648 51.84 
" style="fill: none; stroke: #000000; stroke-width: 0.8; stroke-linejoin: miter; stroke-linecap: square"/>
   </g>
   <g id="text_15">
    <!-- Accuracy -->
    <g transform="translate(341.60625 45.84) scale(0.12 -0.12)">
     <use xlink:href="#DejaVuSans-41"/>
     <use xlink:href="#DejaVuSans-63" x="66.658203"/>
     <use xlink:href="#DejaVuSans-63" x="121.638672"/>
     <use xlink:href="#DejaVuSans-75" x="176.619141"/>
     <use xlink:href="#DejaVuSans-72" x="239.998047"/>
     <use xlink:href="#DejaVuSans-61" x="281.111328"/>
     <use xlink:href="#DejaVuSans-63" x="342.390625"/>
     <use xlink:href="#DejaVuSans-79" x="397.371094"/>
    </g>
   </g>
   <g id="legend_1">
    <g id="patch_7">
     <path d="M 97 119.665 
L 177.303125 119.665 
Q 179.303125 119.665 179.303125 117.665 
L 179.303125 58.84 
Q 179.303125 56.84 177.303125 56.84 
L 97 56.84 
Q 95 56.84 95 58.84 
L 95 117.665 
Q 95 119.665 97 119.665 
z
" style="fill: #ffffff; opacity: 0.8; stroke: #cccccc; stroke-linejoin: miter"/>
    </g>
    <g id="line2d_17">
     <path d="M 99 64.938437 
L 109 64.938437 
L 119 64.938437 
" style="fill: none; stroke: #1f77b4; stroke-width: 1.5; stroke-linecap: square"/>
    </g>
    <g id="text_16">
     <!-- Train_acc -->
     <g transform="translate(127 68.438437) scale(0.1 -0.1)">
      <defs>
       <path id="DejaVuSans-54" d="M -19 4666 
L 3928 4666 
L 3928 4134 
L 2272 4134 
L 2272 0 
L 1638 0 
L 1638 4134 
L -19 4134 
L -19 4666 
z
" transform="scale(0.015625)"/>
       <path id="DejaVuSans-69" d="M 603 3500 
L 1178 3500 
L 1178 0 
L 603 0 
L 603 3500 
z
M 603 4863 
L 1178 4863 
L 1178 4134 
L 603 4134 
L 603 4863 
z
" transform="scale(0.015625)"/>
       <path id="DejaVuSans-6e" d="M 3513 2113 
L 3513 0 
L 2938 0 
L 2938 2094 
Q 2938 2591 2744 2837 
Q 2550 3084 2163 3084 
Q 1697 3084 1428 2787 
Q 1159 2491 1159 1978 
L 1159 0 
L 581 0 
L 581 3500 
L 1159 3500 
L 1159 2956 
Q 1366 3272 1645 3428 
Q 1925 3584 2291 3584 
Q 2894 3584 3203 3211 
Q 3513 2838 3513 2113 
z
" transform="scale(0.015625)"/>
       <path id="DejaVuSans-5f" d="M 3263 -1063 
L 3263 -1509 
L -63 -1509 
L -63 -1063 
L 3263 -1063 
z
" transform="scale(0.015625)"/>
      </defs>
      <use xlink:href="#DejaVuSans-54"/>
      <use xlink:href="#DejaVuSans-72" x="46.333984"/>
      <use xlink:href="#DejaVuSans-61" x="87.447266"/>
      <use xlink:href="#DejaVuSans-69" x="148.726562"/>
      <use xlink:href="#DejaVuSans-6e" x="176.509766"/>
      <use xlink:href="#DejaVuSans-5f" x="239.888672"/>
      <use xlink:href="#DejaVuSans-61" x="289.888672"/>
      <use xlink:href="#DejaVuSans-63" x="351.167969"/>
      <use xlink:href="#DejaVuSans-63" x="406.148438"/>
     </g>
    </g>
    <g id="line2d_18">
     <path d="M 99 79.894687 
L 109 79.894687 
L 119 79.894687 
" style="fill: none; stroke: #ff7f0e; stroke-width: 1.5; stroke-linecap: square"/>
    </g>
    <g id="text_17">
     <!-- Test_acc -->
     <g transform="translate(127 83.394687) scale(0.1 -0.1)">
      <defs>
       <path id="DejaVuSans-65" d="M 3597 1894 
L 3597 1613 
L 953 1613 
Q 991 1019 1311 708 
Q 1631 397 2203 397 
Q 2534 397 2845 478 
Q 3156 559 3463 722 
L 3463 178 
Q 3153 47 2828 -22 
Q 2503 -91 2169 -91 
Q 1331 -91 842 396 
Q 353 884 353 1716 
Q 353 2575 817 3079 
Q 1281 3584 2069 3584 
Q 2775 3584 3186 3129 
Q 3597 2675 3597 1894 
z
M 3022 2063 
Q 3016 2534 2758 2815 
Q 2500 3097 2075 3097 
Q 1594 3097 1305 2825 
Q 1016 2553 972 2059 
L 3022 2063 
z
" transform="scale(0.015625)"/>
       <path id="DejaVuSans-73" d="M 2834 3397 
L 2834 2853 
Q 2591 2978 2328 3040 
Q 2066 3103 1784 3103 
Q 1356 3103 1142 2972 
Q 928 2841 928 2578 
Q 928 2378 1081 2264 
Q 1234 2150 1697 2047 
L 1894 2003 
Q 2506 1872 2764 1633 
Q 3022 1394 3022 966 
Q 3022 478 2636 193 
Q 2250 -91 1575 -91 
Q 1294 -91 989 -36 
Q 684 19 347 128 
L 347 722 
Q 666 556 975 473 
Q 1284 391 1588 391 
Q 1994 391 2212 530 
Q 2431 669 2431 922 
Q 2431 1156 2273 1281 
Q 2116 1406 1581 1522 
L 1381 1569 
Q 847 1681 609 1914 
Q 372 2147 372 2553 
Q 372 3047 722 3315 
Q 1072 3584 1716 3584 
Q 2034 3584 2315 3537 
Q 2597 3491 2834 3397 
z
" transform="scale(0.015625)"/>
       <path id="DejaVuSans-74" d="M 1172 4494 
L 1172 3500 
L 2356 3500 
L 2356 3053 
L 1172 3053 
L 1172 1153 
Q 1172 725 1289 603 
Q 1406 481 1766 481 
L 2356 481 
L 2356 0 
L 1766 0 
Q 1100 0 847 248 
Q 594 497 594 1153 
L 594 3053 
L 172 3053 
L 172 3500 
L 594 3500 
L 594 4494 
L 1172 4494 
z
" transform="scale(0.015625)"/>
      </defs>
      <use xlink:href="#DejaVuSans-54"/>
      <use xlink:href="#DejaVuSans-65" x="44.083984"/>
      <use xlink:href="#DejaVuSans-73" x="105.607422"/>
      <use xlink:href="#DejaVuSans-74" x="157.707031"/>
      <use xlink:href="#DejaVuSans-5f" x="196.916016"/>
      <use xlink:href="#DejaVuSans-61" x="246.916016"/>
      <use xlink:href="#DejaVuSans-63" x="308.195312"/>
      <use xlink:href="#DejaVuSans-63" x="363.175781"/>
     </g>
    </g>
    <g id="line2d_19">
     <path d="M 99 94.850937 
L 109 94.850937 
L 119 94.850937 
" style="fill: none; stroke: #2ca02c; stroke-width: 1.5; stroke-linecap: square"/>
    </g>
    <g id="text_18">
     <!-- Train_loss -->
     <g transform="translate(127 98.350937) scale(0.1 -0.1)">
      <defs>
       <path id="DejaVuSans-6c" d="M 603 4863 
L 1178 4863 
L 1178 0 
L 603 0 
L 603 4863 
z
" transform="scale(0.015625)"/>
      </defs>
      <use xlink:href="#DejaVuSans-54"/>
      <use xlink:href="#DejaVuSans-72" x="46.333984"/>
      <use xlink:href="#DejaVuSans-61" x="87.447266"/>
      <use xlink:href="#DejaVuSans-69" x="148.726562"/>
      <use xlink:href="#DejaVuSans-6e" x="176.509766"/>
      <use xlink:href="#DejaVuSans-5f" x="239.888672"/>
      <use xlink:href="#DejaVuSans-6c" x="289.888672"/>
      <use xlink:href="#DejaVuSans-6f" x="317.671875"/>
      <use xlink:href="#DejaVuSans-73" x="378.853516"/>
      <use xlink:href="#DejaVuSans-73" x="430.953125"/>
     </g>
    </g>
    <g id="line2d_20">
     <path d="M 99 109.807187 
L 109 109.807187 
L 119 109.807187 
" style="fill: none; stroke: #d62728; stroke-width: 1.5; stroke-linecap: square"/>
    </g>
    <g id="text_19">
     <!-- Test_loss -->
     <g transform="translate(127 113.307187) scale(0.1 -0.1)">
      <use xlink:href="#DejaVuSans-54"/>
      <use xlink:href="#DejaVuSans-65" x="44.083984"/>
      <use xlink:href="#DejaVuSans-73" x="105.607422"/>
      <use xlink:href="#DejaVuSans-74" x="157.707031"/>
      <use xlink:href="#DejaVuSans-5f" x="196.916016"/>
      <use xlink:href="#DejaVuSans-6c" x="246.916016"/>
      <use xlink:href="#DejaVuSans-6f" x="274.699219"/>
      <use xlink:href="#DejaVuSans-73" x="335.880859"/>
      <use xlink:href="#DejaVuSans-73" x="387.980469"/>
     </g>
    </g>
   </g>
  </g>
 </g>
 <defs>
  <clipPath id="pdfd6735149">
   <rect x="90" y="51.84" width="558" height="332.64"/>
  </clipPath>
 </defs>
</svg>
