<?xml version="1.0" encoding="utf-8" standalone="no"?>
<!DOCTYPE svg PUBLIC "-//W3C//DTD SVG 1.1//EN"
  "http://www.w3.org/Graphics/SVG/1.1/DTD/svg11.dtd">
<svg xmlns:xlink="http://www.w3.org/1999/xlink" width="720pt" height="432pt" viewBox="0 0 720 432" xmlns="http://www.w3.org/2000/svg" version="1.1">
 <metadata>
  <rdf:RDF xmlns:dc="http://purl.org/dc/elements/1.1/" xmlns:cc="http://creativecommons.org/ns#" xmlns:rdf="http://www.w3.org/1999/02/22-rdf-syntax-ns#">
   <cc:Work>
    <dc:type rdf:resource="http://purl.org/dc/dcmitype/StillImage"/>
    <dc:date>2023-04-19T13:40:56.538713</dc:date>
    <dc:format>image/svg+xml</dc:format>
    <dc:creator>
     <cc:Agent>
      <dc:title>Matplotlib v3.7.1, https://matplotlib.org/</dc:title>
     </cc:Agent>
    </dc:creator>
   </cc:Work>
  </rdf:RDF>
 </metadata>
 <defs>
  <style type="text/css">*{stroke-linejoin: round; stroke-linecap: butt}</style>
 </defs>
 <g id="figure_1">
  <g id="patch_1">
   <path d="M 0 432 
L 720 432 
L 720 0 
L 0 0 
z
" style="fill: #ffffff"/>
  </g>
  <g id="axes_1">
   <g id="patch_2">
    <path d="M 90 384.48 
L 648 384.48 
L 648 51.84 
L 90 51.84 
z
" style="fill: #ffffff"/>
   </g>
   <g id="matplotlib.axis_1">
    <g id="xtick_1">
     <g id="line2d_1">
      <defs>
       <path id="m9d6b45a341" d="M 0 0 
L 0 3.5 
" style="stroke: #000000; stroke-width: 0.8"/>
      </defs>
      <g>
       <use xlink:href="#m9d6b45a341" x="115.363636" y="384.48" style="stroke: #000000; stroke-width: 0.8"/>
      </g>
     </g>
     <g id="text_1">
      <!-- 0 -->
      <g transform="translate(112.182386 399.078438) scale(0.1 -0.1)">
       <defs>
        <path id="DejaVuSans-30" d="M 2034 4250 
Q 1547 4250 1301 3770 
Q 1056 3291 1056 2328 
Q 1056 1369 1301 889 
Q 1547 409 2034 409 
Q 2525 409 2770 889 
Q 3016 1369 3016 2328 
Q 3016 3291 2770 3770 
Q 2525 4250 2034 4250 
z
M 2034 4750 
Q 2819 4750 3233 4129 
Q 3647 3509 3647 2328 
Q 3647 1150 3233 529 
Q 2819 -91 2034 -91 
Q 1250 -91 836 529 
Q 422 1150 422 2328 
Q 422 3509 836 4129 
Q 1250 4750 2034 4750 
z
" transform="scale(0.015625)"/>
       </defs>
       <use xlink:href="#DejaVuSans-30"/>
      </g>
     </g>
    </g>
    <g id="xtick_2">
     <g id="line2d_2">
      <g>
       <use xlink:href="#m9d6b45a341" x="216.919738" y="384.48" style="stroke: #000000; stroke-width: 0.8"/>
      </g>
     </g>
     <g id="text_2">
      <!-- 200 -->
      <g transform="translate(207.375988 399.078438) scale(0.1 -0.1)">
       <defs>
        <path id="DejaVuSans-32" d="M 1228 531 
L 3431 531 
L 3431 0 
L 469 0 
L 469 531 
Q 828 903 1448 1529 
Q 2069 2156 2228 2338 
Q 2531 2678 2651 2914 
Q 2772 3150 2772 3378 
Q 2772 3750 2511 3984 
Q 2250 4219 1831 4219 
Q 1534 4219 1204 4116 
Q 875 4013 500 3803 
L 500 4441 
Q 881 4594 1212 4672 
Q 1544 4750 1819 4750 
Q 2544 4750 2975 4387 
Q 3406 4025 3406 3419 
Q 3406 3131 3298 2873 
Q 3191 2616 2906 2266 
Q 2828 2175 2409 1742 
Q 1991 1309 1228 531 
z
" transform="scale(0.015625)"/>
       </defs>
       <use xlink:href="#DejaVuSans-32"/>
       <use xlink:href="#DejaVuSans-30" x="63.623047"/>
       <use xlink:href="#DejaVuSans-30" x="127.246094"/>
      </g>
     </g>
    </g>
    <g id="xtick_3">
     <g id="line2d_3">
      <g>
       <use xlink:href="#m9d6b45a341" x="318.475839" y="384.48" style="stroke: #000000; stroke-width: 0.8"/>
      </g>
     </g>
     <g id="text_3">
      <!-- 400 -->
      <g transform="translate(308.932089 399.078438) scale(0.1 -0.1)">
       <defs>
        <path id="DejaVuSans-34" d="M 2419 4116 
L 825 1625 
L 2419 1625 
L 2419 4116 
z
M 2253 4666 
L 3047 4666 
L 3047 1625 
L 3713 1625 
L 3713 1100 
L 3047 1100 
L 3047 0 
L 2419 0 
L 2419 1100 
L 313 1100 
L 313 1709 
L 2253 4666 
z
" transform="scale(0.015625)"/>
       </defs>
       <use xlink:href="#DejaVuSans-34"/>
       <use xlink:href="#DejaVuSans-30" x="63.623047"/>
       <use xlink:href="#DejaVuSans-30" x="127.246094"/>
      </g>
     </g>
    </g>
    <g id="xtick_4">
     <g id="line2d_4">
      <g>
       <use xlink:href="#m9d6b45a341" x="420.031941" y="384.48" style="stroke: #000000; stroke-width: 0.8"/>
      </g>
     </g>
     <g id="text_4">
      <!-- 600 -->
      <g transform="translate(410.488191 399.078438) scale(0.1 -0.1)">
       <defs>
        <path id="DejaVuSans-36" d="M 2113 2584 
Q 1688 2584 1439 2293 
Q 1191 2003 1191 1497 
Q 1191 994 1439 701 
Q 1688 409 2113 409 
Q 2538 409 2786 701 
Q 3034 994 3034 1497 
Q 3034 2003 2786 2293 
Q 2538 2584 2113 2584 
z
M 3366 4563 
L 3366 3988 
Q 3128 4100 2886 4159 
Q 2644 4219 2406 4219 
Q 1781 4219 1451 3797 
Q 1122 3375 1075 2522 
Q 1259 2794 1537 2939 
Q 1816 3084 2150 3084 
Q 2853 3084 3261 2657 
Q 3669 2231 3669 1497 
Q 3669 778 3244 343 
Q 2819 -91 2113 -91 
Q 1303 -91 875 529 
Q 447 1150 447 2328 
Q 447 3434 972 4092 
Q 1497 4750 2381 4750 
Q 2619 4750 2861 4703 
Q 3103 4656 3366 4563 
z
" transform="scale(0.015625)"/>
       </defs>
       <use xlink:href="#DejaVuSans-36"/>
       <use xlink:href="#DejaVuSans-30" x="63.623047"/>
       <use xlink:href="#DejaVuSans-30" x="127.246094"/>
      </g>
     </g>
    </g>
    <g id="xtick_5">
     <g id="line2d_5">
      <g>
       <use xlink:href="#m9d6b45a341" x="521.588043" y="384.48" style="stroke: #000000; stroke-width: 0.8"/>
      </g>
     </g>
     <g id="text_5">
      <!-- 800 -->
      <g transform="translate(512.044293 399.078438) scale(0.1 -0.1)">
       <defs>
        <path id="DejaVuSans-38" d="M 2034 2216 
Q 1584 2216 1326 1975 
Q 1069 1734 1069 1313 
Q 1069 891 1326 650 
Q 1584 409 2034 409 
Q 2484 409 2743 651 
Q 3003 894 3003 1313 
Q 3003 1734 2745 1975 
Q 2488 2216 2034 2216 
z
M 1403 2484 
Q 997 2584 770 2862 
Q 544 3141 544 3541 
Q 544 4100 942 4425 
Q 1341 4750 2034 4750 
Q 2731 4750 3128 4425 
Q 3525 4100 3525 3541 
Q 3525 3141 3298 2862 
Q 3072 2584 2669 2484 
Q 3125 2378 3379 2068 
Q 3634 1759 3634 1313 
Q 3634 634 3220 271 
Q 2806 -91 2034 -91 
Q 1263 -91 848 271 
Q 434 634 434 1313 
Q 434 1759 690 2068 
Q 947 2378 1403 2484 
z
M 1172 3481 
Q 1172 3119 1398 2916 
Q 1625 2713 2034 2713 
Q 2441 2713 2670 2916 
Q 2900 3119 2900 3481 
Q 2900 3844 2670 4047 
Q 2441 4250 2034 4250 
Q 1625 4250 1398 4047 
Q 1172 3844 1172 3481 
z
" transform="scale(0.015625)"/>
       </defs>
       <use xlink:href="#DejaVuSans-38"/>
       <use xlink:href="#DejaVuSans-30" x="63.623047"/>
       <use xlink:href="#DejaVuSans-30" x="127.246094"/>
      </g>
     </g>
    </g>
    <g id="xtick_6">
     <g id="line2d_6">
      <g>
       <use xlink:href="#m9d6b45a341" x="623.144144" y="384.48" style="stroke: #000000; stroke-width: 0.8"/>
      </g>
     </g>
     <g id="text_6">
      <!-- 1000 -->
      <g transform="translate(610.419144 399.078438) scale(0.1 -0.1)">
       <defs>
        <path id="DejaVuSans-31" d="M 794 531 
L 1825 531 
L 1825 4091 
L 703 3866 
L 703 4441 
L 1819 4666 
L 2450 4666 
L 2450 531 
L 3481 531 
L 3481 0 
L 794 0 
L 794 531 
z
" transform="scale(0.015625)"/>
       </defs>
       <use xlink:href="#DejaVuSans-31"/>
       <use xlink:href="#DejaVuSans-30" x="63.623047"/>
       <use xlink:href="#DejaVuSans-30" x="127.246094"/>
       <use xlink:href="#DejaVuSans-30" x="190.869141"/>
      </g>
     </g>
    </g>
    <g id="text_7">
     <!-- Epoch -->
     <g transform="translate(353.689062 412.756563) scale(0.1 -0.1)">
      <defs>
       <path id="DejaVuSans-45" d="M 628 4666 
L 3578 4666 
L 3578 4134 
L 1259 4134 
L 1259 2753 
L 3481 2753 
L 3481 2222 
L 1259 2222 
L 1259 531 
L 3634 531 
L 3634 0 
L 628 0 
L 628 4666 
z
" transform="scale(0.015625)"/>
       <path id="DejaVuSans-70" d="M 1159 525 
L 1159 -1331 
L 581 -1331 
L 581 3500 
L 1159 3500 
L 1159 2969 
Q 1341 3281 1617 3432 
Q 1894 3584 2278 3584 
Q 2916 3584 3314 3078 
Q 3713 2572 3713 1747 
Q 3713 922 3314 415 
Q 2916 -91 2278 -91 
Q 1894 -91 1617 61 
Q 1341 213 1159 525 
z
M 3116 1747 
Q 3116 2381 2855 2742 
Q 2594 3103 2138 3103 
Q 1681 3103 1420 2742 
Q 1159 2381 1159 1747 
Q 1159 1113 1420 752 
Q 1681 391 2138 391 
Q 2594 391 2855 752 
Q 3116 1113 3116 1747 
z
" transform="scale(0.015625)"/>
       <path id="DejaVuSans-6f" d="M 1959 3097 
Q 1497 3097 1228 2736 
Q 959 2375 959 1747 
Q 959 1119 1226 758 
Q 1494 397 1959 397 
Q 2419 397 2687 759 
Q 2956 1122 2956 1747 
Q 2956 2369 2687 2733 
Q 2419 3097 1959 3097 
z
M 1959 3584 
Q 2709 3584 3137 3096 
Q 3566 2609 3566 1747 
Q 3566 888 3137 398 
Q 2709 -91 1959 -91 
Q 1206 -91 779 398 
Q 353 888 353 1747 
Q 353 2609 779 3096 
Q 1206 3584 1959 3584 
z
" transform="scale(0.015625)"/>
       <path id="DejaVuSans-63" d="M 3122 3366 
L 3122 2828 
Q 2878 2963 2633 3030 
Q 2388 3097 2138 3097 
Q 1578 3097 1268 2742 
Q 959 2388 959 1747 
Q 959 1106 1268 751 
Q 1578 397 2138 397 
Q 2388 397 2633 464 
Q 2878 531 3122 666 
L 3122 134 
Q 2881 22 2623 -34 
Q 2366 -91 2075 -91 
Q 1284 -91 818 406 
Q 353 903 353 1747 
Q 353 2603 823 3093 
Q 1294 3584 2113 3584 
Q 2378 3584 2631 3529 
Q 2884 3475 3122 3366 
z
" transform="scale(0.015625)"/>
       <path id="DejaVuSans-68" d="M 3513 2113 
L 3513 0 
L 2938 0 
L 2938 2094 
Q 2938 2591 2744 2837 
Q 2550 3084 2163 3084 
Q 1697 3084 1428 2787 
Q 1159 2491 1159 1978 
L 1159 0 
L 581 0 
L 581 4863 
L 1159 4863 
L 1159 2956 
Q 1366 3272 1645 3428 
Q 1925 3584 2291 3584 
Q 2894 3584 3203 3211 
Q 3513 2838 3513 2113 
z
" transform="scale(0.015625)"/>
      </defs>
      <use xlink:href="#DejaVuSans-45"/>
      <use xlink:href="#DejaVuSans-70" x="63.183594"/>
      <use xlink:href="#DejaVuSans-6f" x="126.660156"/>
      <use xlink:href="#DejaVuSans-63" x="187.841797"/>
      <use xlink:href="#DejaVuSans-68" x="242.822266"/>
     </g>
    </g>
   </g>
   <g id="matplotlib.axis_2">
    <g id="ytick_1">
     <g id="line2d_7">
      <defs>
       <path id="mc1fdfccdd3" d="M 0 0 
L -3.5 0 
" style="stroke: #000000; stroke-width: 0.8"/>
      </defs>
      <g>
       <use xlink:href="#mc1fdfccdd3" x="90" y="369.360284" style="stroke: #000000; stroke-width: 0.8"/>
      </g>
     </g>
     <g id="text_8">
      <!-- 0.0 -->
      <g transform="translate(67.096875 373.159503) scale(0.1 -0.1)">
       <defs>
        <path id="DejaVuSans-2e" d="M 684 794 
L 1344 794 
L 1344 0 
L 684 0 
L 684 794 
z
" transform="scale(0.015625)"/>
       </defs>
       <use xlink:href="#DejaVuSans-30"/>
       <use xlink:href="#DejaVuSans-2e" x="63.623047"/>
       <use xlink:href="#DejaVuSans-30" x="95.410156"/>
      </g>
     </g>
    </g>
    <g id="ytick_2">
     <g id="line2d_8">
      <g>
       <use xlink:href="#mc1fdfccdd3" x="90" y="308.860867" style="stroke: #000000; stroke-width: 0.8"/>
      </g>
     </g>
     <g id="text_9">
      <!-- 0.2 -->
      <g transform="translate(67.096875 312.660086) scale(0.1 -0.1)">
       <use xlink:href="#DejaVuSans-30"/>
       <use xlink:href="#DejaVuSans-2e" x="63.623047"/>
       <use xlink:href="#DejaVuSans-32" x="95.410156"/>
      </g>
     </g>
    </g>
    <g id="ytick_3">
     <g id="line2d_9">
      <g>
       <use xlink:href="#mc1fdfccdd3" x="90" y="248.361451" style="stroke: #000000; stroke-width: 0.8"/>
      </g>
     </g>
     <g id="text_10">
      <!-- 0.4 -->
      <g transform="translate(67.096875 252.160669) scale(0.1 -0.1)">
       <use xlink:href="#DejaVuSans-30"/>
       <use xlink:href="#DejaVuSans-2e" x="63.623047"/>
       <use xlink:href="#DejaVuSans-34" x="95.410156"/>
      </g>
     </g>
    </g>
    <g id="ytick_4">
     <g id="line2d_10">
      <g>
       <use xlink:href="#mc1fdfccdd3" x="90" y="187.862034" style="stroke: #000000; stroke-width: 0.8"/>
      </g>
     </g>
     <g id="text_11">
      <!-- 0.6 -->
      <g transform="translate(67.096875 191.661253) scale(0.1 -0.1)">
       <use xlink:href="#DejaVuSans-30"/>
       <use xlink:href="#DejaVuSans-2e" x="63.623047"/>
       <use xlink:href="#DejaVuSans-36" x="95.410156"/>
      </g>
     </g>
    </g>
    <g id="ytick_5">
     <g id="line2d_11">
      <g>
       <use xlink:href="#mc1fdfccdd3" x="90" y="127.362618" style="stroke: #000000; stroke-width: 0.8"/>
      </g>
     </g>
     <g id="text_12">
      <!-- 0.8 -->
      <g transform="translate(67.096875 131.161836) scale(0.1 -0.1)">
       <use xlink:href="#DejaVuSans-30"/>
       <use xlink:href="#DejaVuSans-2e" x="63.623047"/>
       <use xlink:href="#DejaVuSans-38" x="95.410156"/>
      </g>
     </g>
    </g>
    <g id="ytick_6">
     <g id="line2d_12">
      <g>
       <use xlink:href="#mc1fdfccdd3" x="90" y="66.863201" style="stroke: #000000; stroke-width: 0.8"/>
      </g>
     </g>
     <g id="text_13">
      <!-- 1.0 -->
      <g transform="translate(67.096875 70.66242) scale(0.1 -0.1)">
       <use xlink:href="#DejaVuSans-31"/>
       <use xlink:href="#DejaVuSans-2e" x="63.623047"/>
       <use xlink:href="#DejaVuSans-30" x="95.410156"/>
      </g>
     </g>
    </g>
    <g id="text_14">
     <!-- Accuracy -->
     <g transform="translate(61.017187 240.988125) rotate(-90) scale(0.1 -0.1)">
      <defs>
       <path id="DejaVuSans-41" d="M 2188 4044 
L 1331 1722 
L 3047 1722 
L 2188 4044 
z
M 1831 4666 
L 2547 4666 
L 4325 0 
L 3669 0 
L 3244 1197 
L 1141 1197 
L 716 0 
L 50 0 
L 1831 4666 
z
" transform="scale(0.015625)"/>
       <path id="DejaVuSans-75" d="M 544 1381 
L 544 3500 
L 1119 3500 
L 1119 1403 
Q 1119 906 1312 657 
Q 1506 409 1894 409 
Q 2359 409 2629 706 
Q 2900 1003 2900 1516 
L 2900 3500 
L 3475 3500 
L 3475 0 
L 2900 0 
L 2900 538 
Q 2691 219 2414 64 
Q 2138 -91 1772 -91 
Q 1169 -91 856 284 
Q 544 659 544 1381 
z
M 1991 3584 
L 1991 3584 
z
" transform="scale(0.015625)"/>
       <path id="DejaVuSans-72" d="M 2631 2963 
Q 2534 3019 2420 3045 
Q 2306 3072 2169 3072 
Q 1681 3072 1420 2755 
Q 1159 2438 1159 1844 
L 1159 0 
L 581 0 
L 581 3500 
L 1159 3500 
L 1159 2956 
Q 1341 3275 1631 3429 
Q 1922 3584 2338 3584 
Q 2397 3584 2469 3576 
Q 2541 3569 2628 3553 
L 2631 2963 
z
" transform="scale(0.015625)"/>
       <path id="DejaVuSans-61" d="M 2194 1759 
Q 1497 1759 1228 1600 
Q 959 1441 959 1056 
Q 959 750 1161 570 
Q 1363 391 1709 391 
Q 2188 391 2477 730 
Q 2766 1069 2766 1631 
L 2766 1759 
L 2194 1759 
z
M 3341 1997 
L 3341 0 
L 2766 0 
L 2766 531 
Q 2569 213 2275 61 
Q 1981 -91 1556 -91 
Q 1019 -91 701 211 
Q 384 513 384 1019 
Q 384 1609 779 1909 
Q 1175 2209 1959 2209 
L 2766 2209 
L 2766 2266 
Q 2766 2663 2505 2880 
Q 2244 3097 1772 3097 
Q 1472 3097 1187 3025 
Q 903 2953 641 2809 
L 641 3341 
Q 956 3463 1253 3523 
Q 1550 3584 1831 3584 
Q 2591 3584 2966 3190 
Q 3341 2797 3341 1997 
z
" transform="scale(0.015625)"/>
       <path id="DejaVuSans-79" d="M 2059 -325 
Q 1816 -950 1584 -1140 
Q 1353 -1331 966 -1331 
L 506 -1331 
L 506 -850 
L 844 -850 
Q 1081 -850 1212 -737 
Q 1344 -625 1503 -206 
L 1606 56 
L 191 3500 
L 800 3500 
L 1894 763 
L 2988 3500 
L 3597 3500 
L 2059 -325 
z
" transform="scale(0.015625)"/>
      </defs>
      <use xlink:href="#DejaVuSans-41"/>
      <use xlink:href="#DejaVuSans-63" x="66.658203"/>
      <use xlink:href="#DejaVuSans-63" x="121.638672"/>
      <use xlink:href="#DejaVuSans-75" x="176.619141"/>
      <use xlink:href="#DejaVuSans-72" x="239.998047"/>
      <use xlink:href="#DejaVuSans-61" x="281.111328"/>
      <use xlink:href="#DejaVuSans-63" x="342.390625"/>
      <use xlink:href="#DejaVuSans-79" x="397.371094"/>
     </g>
    </g>
   </g>
   <g id="line2d_13">
    <path d="M 115.363636 338.741529 
L 115.871417 338.62053 
L 116.379197 336.950746 
L 116.886978 335.716558 
L 117.394758 333.084834 
L 117.902539 329.557718 
L 118.410319 327.22849 
L 118.9181 329.30362 
L 119.42588 329.019273 
L 120.441441 306.168643 
L 120.949222 299.961403 
L 121.964783 292.380826 
L 122.472563 289.325606 
L 122.980344 287.280725 
L 124.503686 279.51865 
L 125.011466 277.612919 
L 127.042588 262.004069 
L 128.56593 251.398521 
L 129.07371 248.39775 
L 131.104832 239.891532 
L 131.612613 238.167299 
L 132.120393 235.916721 
L 132.628174 234.646233 
L 133.135954 232.093158 
L 133.643735 231.591012 
L 134.659296 227.942898 
L 135.674857 225.117575 
L 136.182637 223.127144 
L 138.213759 217.918144 
L 140.752662 210.05927 
L 142.783784 204.432824 
L 143.291564 203.561633 
L 144.307125 200.863359 
L 144.814906 200.095016 
L 145.322686 198.67328 
L 145.830467 197.66294 
L 146.846028 194.837617 
L 147.353808 194.54722 
L 147.861589 192.514439 
L 148.87715 190.487709 
L 149.38493 190.269911 
L 149.892711 188.884474 
L 150.400491 187.922533 
L 150.908272 186.428198 
L 151.416052 185.883703 
L 151.923833 184.601116 
L 152.939394 182.828483 
L 154.462735 179.446565 
L 154.970516 178.90207 
L 155.478296 177.679982 
L 155.986077 177.522684 
L 156.493857 175.8045 
L 157.001638 175.731901 
L 157.509419 174.534013 
L 158.017199 172.833979 
L 159.03276 172.192685 
L 159.540541 171.285194 
L 160.048321 169.452062 
L 160.556102 169.60936 
L 161.063882 167.485831 
L 161.571663 168.133174 
L 162.079443 166.245593 
L 162.587224 166.160893 
L 163.095004 164.581859 
L 163.602785 164.563709 
L 164.110565 163.135923 
L 164.618346 162.851575 
L 165.126126 161.484288 
L 165.633907 161.103142 
L 166.141687 159.003812 
L 166.649468 158.743665 
L 167.157248 157.939023 
L 167.665029 157.588126 
L 168.172809 156.952882 
L 168.68059 155.972792 
L 169.18837 154.732554 
L 170.711712 152.681623 
L 171.219492 151.459535 
L 171.727273 150.527844 
L 172.235053 150.334246 
L 175.789517 144.199605 
L 176.297297 143.915258 
L 176.805078 142.862568 
L 177.312858 141.005236 
L 177.820639 140.872137 
L 178.328419 140.297393 
L 179.34398 138.246463 
L 180.867322 136.159233 
L 182.390663 133.745306 
L 182.898444 132.384069 
L 183.406224 131.694376 
L 183.914005 130.738485 
L 184.421785 130.066941 
L 184.929566 128.923502 
L 185.437346 128.433457 
L 185.945127 127.610665 
L 186.452907 126.473276 
L 186.960688 126.176829 
L 187.468468 124.706693 
L 187.976249 124.180348 
L 188.99181 122.444015 
L 189.49959 121.221927 
L 190.007371 120.411235 
L 191.022932 119.189146 
L 191.530713 118.203006 
L 192.038493 117.74926 
L 193.054054 115.347433 
L 194.069615 114.439942 
L 194.577396 113.405402 
L 195.085176 113.399352 
L 196.100737 110.350182 
L 196.608518 110.259432 
L 197.116298 109.612089 
L 197.624079 108.141953 
L 198.131859 107.815256 
L 199.655201 105.086732 
L 200.162981 104.887084 
L 201.178542 103.525847 
L 201.686323 102.17066 
L 202.194103 101.898413 
L 202.701884 100.996972 
L 203.209664 100.531126 
L 203.717445 99.254589 
L 204.225225 99.254589 
L 204.733006 98.08695 
L 205.240786 97.917551 
L 205.748567 96.731763 
L 206.256347 96.755963 
L 206.764128 95.134578 
L 207.271908 94.850231 
L 207.779689 94.98333 
L 208.287469 94.136338 
L 208.79525 92.84165 
L 209.30303 92.127757 
L 209.810811 92.387905 
L 210.318591 91.601412 
L 210.826372 91.280765 
L 211.334152 90.724171 
L 211.841933 89.834829 
L 212.349713 89.296385 
L 212.857494 89.296385 
L 213.365274 88.897088 
L 214.380835 87.039756 
L 215.396396 86.906658 
L 215.904177 86.356113 
L 216.411957 85.103775 
L 216.919738 85.176374 
L 217.427518 85.382072 
L 217.935299 85.073525 
L 218.443079 84.353582 
L 218.95086 83.361392 
L 219.45864 83.385592 
L 219.966421 82.859247 
L 220.474201 82.877397 
L 220.981982 82.659599 
L 221.997543 81.407261 
L 222.505324 81.292312 
L 223.013104 81.304412 
L 223.520885 80.983765 
L 224.028665 80.366671 
L 224.536446 80.191222 
L 225.044226 79.713277 
L 225.552007 79.767726 
L 226.059787 79.41683 
L 226.567568 79.205082 
L 227.075348 78.811836 
L 227.583129 78.594038 
L 228.090909 78.950984 
L 228.59869 78.206842 
L 229.10647 78.134242 
L 230.629812 77.456649 
L 231.137592 77.668397 
L 231.645373 77.099702 
L 232.153153 77.136002 
L 233.168714 76.385809 
L 233.676495 76.440259 
L 234.184275 75.980463 
L 234.692056 76.234561 
L 235.199836 75.532767 
L 235.707617 76.174061 
L 236.215397 75.956263 
L 236.723178 75.139521 
L 237.230958 75.327069 
L 237.738739 74.939873 
L 238.246519 75.200021 
L 238.7543 74.915673 
L 239.26208 75.169771 
L 239.769861 74.849124 
L 240.277641 74.667626 
L 240.785422 74.274379 
L 241.293202 74.474028 
L 241.800983 74.486127 
L 242.308763 73.971882 
L 242.816544 73.820634 
L 243.324324 74.286479 
L 243.832105 73.717785 
L 244.339885 73.566536 
L 245.863227 73.705685 
L 246.878788 72.864743 
L 247.386568 73.20354 
L 247.894349 73.22774 
L 248.402129 73.112791 
L 248.90991 72.677195 
L 249.925471 73.088591 
L 250.433251 72.822393 
L 250.941032 72.683245 
L 251.448812 72.392848 
L 251.956593 72.362598 
L 252.464373 72.18715 
L 252.972154 72.350498 
L 253.479934 72.029851 
L 253.987715 71.854403 
L 254.495495 72.253699 
L 255.003276 71.854403 
L 255.511057 72.235549 
L 256.018837 71.672905 
L 256.526618 71.884653 
L 257.034398 71.769704 
L 257.542179 71.806003 
L 258.049959 71.467207 
L 258.55774 71.660805 
L 259.06552 71.576105 
L 259.573301 71.709204 
L 260.081081 71.564006 
L 260.588862 71.13446 
L 261.096642 71.037661 
L 261.604423 71.315958 
L 262.112203 71.352258 
L 263.635545 71.06791 
L 264.143325 71.207059 
L 264.651106 71.031611 
L 265.158886 71.037661 
L 265.666667 70.813813 
L 266.174447 70.874312 
L 266.682228 70.686764 
L 267.190008 70.650464 
L 267.697789 70.789613 
L 268.205569 70.596015 
L 268.71335 71.164709 
L 269.22113 70.583915 
L 269.728911 70.214869 
L 270.236691 70.608115 
L 270.744472 70.589965 
L 271.252252 70.414517 
L 271.760033 70.493166 
L 272.267813 70.710964 
L 273.283374 70.202769 
L 273.791155 70.783563 
L 274.298935 70.602065 
L 274.806716 70.287468 
L 275.822277 70.03942 
L 276.330057 70.487116 
L 277.853399 69.978921 
L 278.361179 69.912372 
L 279.37674 70.190669 
L 279.884521 70.009171 
L 280.392301 70.03337 
L 280.900082 69.882122 
L 281.407862 70.08177 
L 281.915643 69.773223 
L 282.931204 69.621974 
L 283.438984 69.833722 
L 284.454545 69.736923 
L 284.962326 69.833722 
L 285.977887 69.561475 
L 286.993448 69.773223 
L 287.501229 69.797423 
L 288.009009 69.398126 
L 288.51679 69.621974 
L 289.02457 69.712723 
L 290.040131 69.597775 
L 290.547912 69.283178 
L 291.055692 69.404176 
L 291.563473 69.283178 
L 292.579034 69.507025 
L 293.086814 69.210578 
L 294.102375 69.549375 
L 294.610156 69.416276 
L 295.117936 69.464676 
L 296.133497 69.373927 
L 296.641278 69.367877 
L 297.656839 69.08353 
L 298.164619 69.222678 
L 298.6724 69.125879 
L 299.18018 69.349727 
L 299.687961 68.980681 
L 300.195741 69.168229 
L 301.211302 69.02303 
L 301.719083 69.186379 
L 303.750205 69.03513 
L 304.257985 69.01698 
L 304.765766 69.192428 
L 309.843571 68.847582 
L 310.351351 68.932281 
L 310.859132 68.750783 
L 312.382473 68.690283 
L 312.890254 68.545085 
L 313.398034 68.774982 
L 314.413595 68.938331 
L 314.921376 68.738683 
L 315.936937 68.908081 
L 316.444717 68.702383 
L 316.952498 68.617684 
L 317.460278 68.793132 
L 318.475839 68.696333 
L 318.98362 68.744733 
L 319.4914 68.647934 
L 319.999181 68.853632 
L 320.506962 68.405936 
L 321.014742 68.563235 
L 321.522523 68.230488 
L 322.030303 68.617684 
L 322.538084 68.762883 
L 323.045864 68.678183 
L 323.553645 68.799182 
L 325.076986 68.684233 
L 325.584767 68.569284 
L 326.092547 68.327287 
L 326.600328 68.587434 
L 327.108108 68.514835 
L 327.615889 68.557185 
L 328.63145 68.823382 
L 329.13923 68.545085 
L 329.647011 68.442236 
L 330.154791 68.702383 
L 330.662572 68.436186 
L 331.678133 68.520885 
L 332.185913 68.581384 
L 332.693694 68.514835 
L 333.201474 68.787082 
L 333.709255 68.720533 
L 334.217035 68.218388 
L 334.724816 68.254688 
L 335.232596 68.490635 
L 335.740377 68.405936 
L 337.263718 68.514835 
L 337.771499 68.333337 
L 338.279279 68.484585 
L 338.78706 68.424086 
L 339.29484 68.079239 
L 341.833743 68.496685 
L 342.341523 68.272837 
L 343.357084 68.169988 
L 344.372645 68.321237 
L 345.895987 68.212338 
L 346.403767 68.188138 
L 346.911548 68.393836 
L 347.927109 68.436186 
L 348.434889 68.188138 
L 348.94267 68.315187 
L 351.481572 68.03689 
L 351.989353 68.176038 
L 352.497133 68.055039 
L 353.512695 68.242588 
L 354.528256 68.109489 
L 355.543817 67.927991 
L 356.051597 68.067139 
L 356.559378 68.055039 
L 357.067158 68.188138 
L 357.574939 68.03689 
L 358.082719 68.00664 
L 358.5905 68.182088 
L 359.606061 68.055039 
L 360.621622 68.169988 
L 361.129402 68.145789 
L 361.637183 67.95219 
L 362.144963 67.885641 
L 362.652744 68.073189 
L 363.160524 68.115539 
L 364.176085 67.98849 
L 365.699427 68.194188 
L 366.207207 67.873541 
L 367.222768 67.97639 
L 367.730549 68.01269 
L 368.238329 67.873541 
L 369.25389 68.097389 
L 370.269451 67.667843 
L 370.777232 67.788842 
L 371.285012 67.558944 
L 372.300573 67.613394 
L 375.347256 67.564994 
L 375.855037 67.625494 
L 376.362817 67.456095 
L 377.378378 67.492395 
L 377.886159 67.571044 
L 378.393939 67.419796 
L 383.471744 67.365346 
L 383.979525 67.171748 
L 386.010647 67.286697 
L 388.041769 67.214098 
L 389.05733 67.195948 
L 391.596233 67.214098 
L 392.104013 67.129398 
L 393.627355 67.195948 
L 394.642916 67.165698 
L 395.658477 67.147548 
L 396.166257 67.298797 
L 396.674038 67.111249 
L 397.181818 67.195948 
L 398.197379 67.141498 
L 398.70516 67.214098 
L 400.228501 67.087049 
L 404.290745 67.074949 
L 407.337428 67.080999 
L 408.352989 67.080999 
L 409.876331 67.032599 
L 410.891892 67.050749 
L 414.954136 67.00235 
L 416.477477 67.056799 
L 421.555283 67.032599 
L 423.078624 67.020499 
L 424.601966 67.032599 
L 428.156429 67.00235 
L 432.218673 66.99025 
L 436.280917 67.020499 
L 437.296478 67.0084 
L 440.343161 66.9721 
L 441.866503 67.0084 
L 445.420966 66.99025 
L 449.48321 66.99025 
L 452.529894 66.9721 
L 456.592138 66.9842 
L 460.146601 66.96605 
L 622.636364 66.96 
L 622.636364 66.96 
" clip-path="url(#p892437f568)" style="fill: none; stroke: #1f77b4; stroke-width: 1.5; stroke-linecap: square"/>
   </g>
   <g id="line2d_14">
    <path d="M 115.363636 339.534071 
L 115.871417 337.719089 
L 116.379197 337.477091 
L 116.886978 334.300872 
L 117.902539 318.96427 
L 118.9181 331.064153 
L 119.42588 322.715234 
L 119.933661 304.625908 
L 120.949222 294.00826 
L 122.980344 281.333633 
L 123.488124 279.5489 
L 123.995905 277.310421 
L 125.519247 267.509516 
L 126.027027 264.847542 
L 127.550369 250.902426 
L 129.07371 242.614006 
L 130.089271 239.316788 
L 130.597052 238.348797 
L 131.612613 232.964349 
L 132.120393 232.601353 
L 132.628174 230.84687 
L 133.135954 229.606632 
L 133.643735 227.247154 
L 134.151515 226.127915 
L 134.659296 225.64392 
L 135.167076 223.768438 
L 135.674857 220.985465 
L 136.182637 220.44097 
L 136.690418 217.657997 
L 137.198198 216.659756 
L 137.705979 216.901754 
L 138.213759 212.969292 
L 138.72154 213.513787 
L 139.22932 212.09205 
L 139.737101 211.033311 
L 140.244881 210.882062 
L 140.752662 207.221847 
L 141.260442 207.494095 
L 141.768223 206.072358 
L 142.276003 207.312597 
L 142.783784 203.259136 
L 143.291564 200.869409 
L 144.307125 199.417423 
L 144.814906 197.511691 
L 145.322686 197.360442 
L 145.830467 196.422702 
L 146.338247 195.182463 
L 146.846028 195.636209 
L 147.353808 193.730477 
L 147.861589 193.579229 
L 148.369369 191.129003 
L 148.87715 191.008004 
L 149.892711 188.346029 
L 150.400491 188.013283 
L 151.416052 186.803294 
L 151.923833 184.806814 
L 152.431613 185.532807 
L 153.447174 183.203579 
L 153.954955 183.385077 
L 154.462735 182.901082 
L 154.970516 180.299607 
L 155.478296 181.509595 
L 155.986077 179.785362 
L 156.493857 177.032639 
L 157.001638 178.212377 
L 157.509419 177.183887 
L 158.017199 175.762151 
L 159.03276 174.400914 
L 159.540541 174.279915 
L 160.048321 172.948928 
L 160.556102 173.311924 
L 161.063882 171.527192 
L 161.571663 171.70869 
L 162.587224 171.254944 
L 163.095004 172.73718 
L 163.602785 169.802958 
L 164.110565 168.350972 
L 164.618346 169.470211 
L 165.126126 168.381222 
L 165.633907 169.167714 
L 166.141687 166.808237 
L 166.649468 167.624979 
L 167.157248 166.112494 
L 167.665029 166.687238 
L 168.172809 165.447 
L 168.68059 166.021745 
L 169.18837 166.203243 
L 169.696151 164.267262 
L 170.203931 163.722767 
L 170.711712 162.754776 
L 171.219492 163.722767 
L 171.727273 165.416751 
L 172.235053 162.512779 
L 172.742834 164.176512 
L 173.758395 161.696036 
L 174.266175 162.270781 
L 175.281736 160.637297 
L 175.789517 159.850804 
L 176.297297 159.336559 
L 176.805078 160.425549 
L 177.312858 160.032302 
L 177.820639 158.519817 
L 178.328419 158.24757 
L 178.8362 158.459318 
L 179.34398 157.854323 
L 179.851761 156.916583 
L 180.359541 158.610566 
L 180.867322 157.18883 
L 181.375102 156.825833 
L 181.882883 156.220839 
L 182.390663 156.977082 
L 182.898444 156.795584 
L 183.406224 157.793824 
L 183.914005 155.585595 
L 184.929566 155.676344 
L 185.437346 155.343598 
L 185.945127 155.192349 
L 186.452907 154.315108 
L 186.960688 154.405857 
L 187.468468 153.861362 
L 187.976249 154.405857 
L 188.99181 153.256368 
L 189.49959 153.256368 
L 190.007371 154.738604 
L 190.515152 154.07311 
L 191.022932 151.532134 
L 191.530713 153.800863 
L 192.038493 154.194109 
L 192.546274 152.379126 
L 193.054054 152.923621 
L 193.561835 152.651374 
L 194.069615 152.802622 
L 195.085176 151.95563 
L 195.592957 153.105119 
L 196.100737 151.532134 
L 197.116298 150.231397 
L 197.624079 152.621124 
L 198.131859 150.503644 
L 198.63964 150.715392 
L 199.14742 150.806141 
L 199.655201 152.379126 
L 200.162981 150.382646 
L 200.670762 150.624643 
L 201.178542 150.654893 
L 202.194103 150.291896 
L 202.701884 149.323906 
L 203.209664 149.626403 
L 203.717445 150.080148 
L 204.225225 151.592634 
L 204.733006 149.717152 
L 205.240786 150.775892 
L 205.748567 149.323906 
L 206.256347 150.624643 
L 206.764128 150.201147 
L 207.271908 148.87016 
L 207.779689 148.779411 
L 208.287469 150.382646 
L 208.79525 148.749161 
L 209.30303 148.779411 
L 209.810811 149.807901 
L 210.318591 149.233157 
L 211.334152 148.83991 
L 212.349713 149.233157 
L 212.857494 148.83991 
L 213.365274 148.991159 
L 213.873055 148.053418 
L 214.380835 149.021409 
L 215.396396 148.83991 
L 215.904177 147.720671 
L 216.411957 148.023168 
L 216.919738 149.051658 
L 217.427518 148.174417 
L 217.935299 148.113917 
L 218.443079 150.049899 
L 219.45864 147.750921 
L 219.966421 148.537413 
L 220.474201 148.325665 
L 220.981982 146.873679 
L 221.489762 147.357675 
L 221.997543 148.507164 
L 222.505324 148.113917 
L 223.013104 146.722431 
L 223.520885 147.478674 
L 224.028665 149.263406 
L 224.536446 146.934179 
L 225.044226 147.750921 
L 225.552007 146.934179 
L 226.059787 146.84343 
L 226.567568 146.480433 
L 227.075348 148.386165 
L 227.583129 146.510683 
L 228.090909 145.845189 
L 228.59869 146.994678 
L 229.10647 147.84167 
L 229.614251 147.448424 
L 230.122031 146.601432 
L 230.629812 146.419934 
L 231.137592 145.088947 
L 231.645373 147.085427 
L 232.660934 146.722431 
L 233.168714 146.419934 
L 233.676495 146.268685 
L 234.184275 146.389684 
L 234.692056 146.329185 
L 235.199836 146.419934 
L 235.707617 147.720671 
L 236.215397 147.297175 
L 236.723178 147.297175 
L 237.230958 146.510683 
L 237.738739 147.115677 
L 238.246519 146.056937 
L 238.7543 146.78293 
L 239.26208 146.389684 
L 239.769861 147.236676 
L 240.277641 145.966188 
L 240.785422 146.903929 
L 241.293202 146.389684 
L 241.800983 145.512442 
L 242.816544 146.208186 
L 243.324324 146.208186 
L 243.832105 145.451943 
L 244.339885 145.935938 
L 244.847666 145.451943 
L 245.355446 145.482193 
L 245.863227 146.026688 
L 246.371007 145.966188 
L 246.878788 145.75444 
L 247.386568 146.994678 
L 247.894349 145.451943 
L 248.402129 146.480433 
L 248.90991 146.298935 
L 249.41769 145.542692 
L 249.925471 145.996438 
L 250.433251 146.752681 
L 250.941032 145.512442 
L 251.448812 146.208186 
L 251.956593 145.996438 
L 252.464373 146.359434 
L 252.972154 146.389684 
L 253.479934 146.208186 
L 253.987715 146.329185 
L 254.495495 146.147686 
L 255.003276 145.482193 
L 255.511057 146.510683 
L 256.018837 145.75444 
L 256.526618 144.665451 
L 257.034398 144.241955 
L 257.542179 144.72595 
L 258.049959 145.75444 
L 258.55774 144.151206 
L 259.06552 144.544452 
L 259.573301 146.117437 
L 260.588862 144.937698 
L 261.096642 145.270445 
L 262.112203 145.542692 
L 262.619984 146.78293 
L 263.127764 145.693941 
L 263.635545 145.330944 
L 264.143325 145.572942 
L 264.651106 145.119196 
L 265.158886 145.179696 
L 265.666667 145.482193 
L 266.174447 144.604951 
L 266.682228 145.603192 
L 267.190008 145.270445 
L 267.697789 144.6957 
L 268.205569 144.937698 
L 268.71335 146.359434 
L 269.22113 145.451943 
L 269.728911 144.090706 
L 270.236691 144.6957 
L 270.744472 144.604951 
L 271.252252 144.967948 
L 271.760033 143.909208 
L 272.775594 146.238435 
L 273.283374 144.181455 
L 273.791155 145.270445 
L 274.298935 143.878958 
L 274.806716 145.270445 
L 275.314496 144.181455 
L 275.822277 145.270445 
L 276.330057 144.393203 
L 276.837838 145.088947 
L 277.345618 144.544452 
L 277.853399 144.7562 
L 278.361179 145.633441 
L 278.86896 144.423453 
L 279.37674 145.542692 
L 279.884521 144.483952 
L 280.392301 144.393203 
L 280.900082 144.907448 
L 281.407862 144.967948 
L 281.915643 146.117437 
L 282.423423 144.181455 
L 282.931204 143.576461 
L 283.438984 144.241955 
L 283.946765 145.300695 
L 284.454545 145.482193 
L 284.962326 144.937698 
L 285.470106 145.663691 
L 285.977887 144.907448 
L 286.485667 145.512442 
L 286.993448 145.209945 
L 288.009009 145.482193 
L 288.51679 144.453703 
L 289.02457 144.393203 
L 289.532351 145.240195 
L 290.040131 144.423453 
L 290.547912 144.816699 
L 291.055692 144.665451 
L 291.563473 145.149446 
L 292.071253 144.151206 
L 292.579034 144.544452 
L 293.086814 144.362954 
L 293.594595 144.6957 
L 294.102375 145.391444 
L 294.610156 144.362954 
L 295.117936 144.060456 
L 295.625717 143.939458 
L 296.133497 143.455462 
L 296.641278 144.241955 
L 297.149058 144.241955 
L 297.656839 144.604951 
L 298.164619 143.394963 
L 298.6724 143.576461 
L 299.18018 143.425213 
L 299.687961 144.423453 
L 300.195741 144.907448 
L 300.703522 143.848709 
L 301.211302 143.788209 
L 301.719083 143.122716 
L 302.226863 145.512442 
L 302.734644 144.604951 
L 303.242424 145.209945 
L 303.750205 144.544452 
L 304.257985 145.058697 
L 304.765766 144.877199 
L 305.273546 144.483952 
L 305.781327 144.816699 
L 306.289107 144.877199 
L 306.796888 144.362954 
L 307.304668 144.393203 
L 307.812449 143.636961 
L 308.320229 144.120956 
L 308.82801 143.969707 
L 309.843571 143.878958 
L 310.351351 144.272204 
L 310.859132 144.211705 
L 311.366912 144.635201 
L 311.874693 143.546211 
L 312.382473 144.604951 
L 313.398034 143.878958 
L 313.905815 144.090706 
L 314.413595 143.546211 
L 314.921376 143.909208 
L 315.429156 144.423453 
L 315.936937 143.576461 
L 316.444717 143.818459 
L 316.952498 144.6957 
L 317.460278 143.66721 
L 317.968059 143.939458 
L 318.475839 144.483952 
L 318.98362 144.483952 
L 319.4914 144.967948 
L 319.999181 143.878958 
L 320.506962 144.635201 
L 321.014742 144.907448 
L 321.522523 144.120956 
L 322.030303 144.211705 
L 322.538084 144.030207 
L 323.045864 144.272204 
L 324.061425 143.939458 
L 324.569206 144.967948 
L 325.584767 144.514202 
L 326.092547 143.72771 
L 326.600328 145.119196 
L 327.108108 144.6957 
L 327.615889 144.846949 
L 328.123669 144.816699 
L 328.63145 144.635201 
L 329.13923 145.512442 
L 329.647011 144.362954 
L 330.154791 145.270445 
L 330.662572 143.878958 
L 331.170352 143.969707 
L 331.678133 144.211705 
L 332.693694 143.939458 
L 333.201474 144.816699 
L 333.709255 144.453703 
L 334.217035 145.088947 
L 334.724816 144.786449 
L 335.232596 144.332704 
L 335.740377 144.090706 
L 336.248157 144.453703 
L 336.755938 144.120956 
L 337.263718 144.362954 
L 337.771499 143.818459 
L 338.279279 143.72771 
L 338.78706 144.120956 
L 339.29484 143.394963 
L 339.802621 144.302454 
L 340.818182 143.909208 
L 341.325962 144.181455 
L 341.833743 144.151206 
L 342.341523 144.302454 
L 343.357084 143.576461 
L 343.864865 143.546211 
L 344.372645 143.848709 
L 344.880426 143.152965 
L 345.388206 144.090706 
L 345.895987 143.909208 
L 346.403767 143.364713 
L 346.911548 144.423453 
L 347.419328 144.302454 
L 347.927109 145.058697 
L 348.434889 144.604951 
L 348.94267 145.028447 
L 349.45045 143.546211 
L 349.958231 144.030207 
L 350.466011 144.211705 
L 350.973792 144.6957 
L 351.481572 144.665451 
L 351.989353 144.846949 
L 352.497133 144.272204 
L 353.004914 144.302454 
L 353.512695 143.304214 
L 354.020475 142.60847 
L 354.528256 143.546211 
L 355.036036 143.939458 
L 355.543817 143.72771 
L 356.051597 144.514202 
L 356.559378 143.243714 
L 357.067158 143.69746 
L 357.574939 143.515962 
L 358.082719 143.66721 
L 358.5905 143.546211 
L 359.09828 143.606711 
L 359.606061 142.941217 
L 360.113841 144.090706 
L 360.621622 144.393203 
L 361.129402 143.818459 
L 361.637183 143.546211 
L 362.144963 143.72771 
L 362.652744 143.455462 
L 363.160524 143.788209 
L 363.668305 143.334463 
L 364.176085 144.241955 
L 364.683866 143.364713 
L 365.191646 143.394963 
L 365.699427 143.183215 
L 366.207207 143.122716 
L 367.222768 144.362954 
L 367.730549 143.304214 
L 368.74611 143.576461 
L 369.25389 144.030207 
L 369.761671 142.910968 
L 370.777232 143.425213 
L 371.285012 142.971467 
L 372.300573 143.909208 
L 372.808354 143.788209 
L 373.316134 142.880718 
L 374.331695 144.090706 
L 374.839476 143.455462 
L 375.347256 143.999957 
L 375.855037 142.820218 
L 376.362817 143.062216 
L 377.378378 144.272204 
L 377.886159 144.060456 
L 378.393939 143.243714 
L 378.90172 143.092466 
L 379.4095 143.485712 
L 379.917281 143.66721 
L 380.425061 143.243714 
L 380.932842 143.606711 
L 381.440622 145.058697 
L 381.948403 143.788209 
L 382.456183 144.181455 
L 382.963964 144.332704 
L 383.471744 143.546211 
L 384.487305 143.062216 
L 384.995086 144.030207 
L 385.502867 142.941217 
L 386.010647 143.69746 
L 386.518428 142.941217 
L 387.026208 142.910968 
L 387.533989 142.759719 
L 388.041769 143.304214 
L 389.05733 143.485712 
L 389.565111 144.302454 
L 390.072891 143.606711 
L 390.580672 143.66721 
L 391.088452 144.120956 
L 391.596233 144.181455 
L 392.104013 143.243714 
L 392.611794 143.999957 
L 393.119574 142.396723 
L 394.135135 143.606711 
L 394.642916 143.757959 
L 395.150696 143.304214 
L 395.658477 143.999957 
L 396.166257 143.878958 
L 396.674038 143.213465 
L 397.689599 143.69746 
L 398.70516 143.243714 
L 399.21294 143.031966 
L 399.720721 143.606711 
L 400.228501 143.606711 
L 400.736282 143.122716 
L 401.244062 143.334463 
L 401.751843 143.213465 
L 402.767404 143.122716 
L 403.275184 143.425213 
L 403.782965 142.547971 
L 404.290745 142.69922 
L 404.798526 143.485712 
L 405.306306 143.455462 
L 405.814087 142.578221 
L 406.321867 143.001717 
L 406.829648 142.487472 
L 407.337428 143.485712 
L 407.845209 143.757959 
L 408.352989 143.304214 
L 408.86077 143.757959 
L 409.36855 143.848709 
L 409.876331 144.060456 
L 410.384111 143.485712 
L 410.891892 143.092466 
L 411.399672 143.455462 
L 412.415233 143.364713 
L 412.923014 143.818459 
L 413.430794 143.818459 
L 413.938575 143.394963 
L 414.446355 143.243714 
L 414.954136 142.759719 
L 415.461916 144.483952 
L 415.969697 143.152965 
L 416.477477 143.152965 
L 416.985258 143.969707 
L 417.493038 143.334463 
L 418.5086 142.880718 
L 419.01638 142.66897 
L 419.524161 143.425213 
L 420.031941 143.455462 
L 420.539722 142.457222 
L 421.047502 142.275724 
L 422.063063 143.546211 
L 422.570844 142.759719 
L 423.078624 142.63872 
L 423.586405 143.273964 
L 424.094185 143.455462 
L 424.601966 143.122716 
L 425.109746 142.154725 
L 425.617527 142.880718 
L 426.125307 143.304214 
L 426.633088 142.66897 
L 427.140868 143.152965 
L 427.648649 143.062216 
L 428.156429 143.576461 
L 428.66421 142.971467 
L 429.17199 143.213465 
L 429.679771 142.971467 
L 430.695332 143.66721 
L 431.203112 143.72771 
L 431.710893 143.031966 
L 432.218673 143.304214 
L 432.726454 142.60847 
L 433.234234 142.729469 
L 433.742015 143.092466 
L 434.249795 142.69922 
L 434.757576 142.729469 
L 435.265356 143.273964 
L 436.280917 143.001717 
L 436.788698 142.69922 
L 437.296478 142.850468 
L 437.804259 142.789969 
L 438.312039 142.971467 
L 439.3276 142.63872 
L 440.343161 143.031966 
L 441.358722 142.850468 
L 442.374283 143.122716 
L 442.882064 142.971467 
L 444.405405 143.515962 
L 444.913186 143.878958 
L 445.420966 142.910968 
L 445.928747 143.485712 
L 446.436527 142.426972 
L 446.944308 142.820218 
L 447.452088 142.820218 
L 447.959869 143.031966 
L 448.467649 142.66897 
L 448.97543 142.60847 
L 449.48321 142.789969 
L 449.990991 143.213465 
L 450.498771 143.092466 
L 451.006552 142.789969 
L 451.514333 142.850468 
L 452.529894 142.215224 
L 453.037674 142.578221 
L 453.545455 142.517721 
L 454.053235 142.69922 
L 454.561016 143.66721 
L 455.068796 142.729469 
L 455.576577 143.062216 
L 456.084357 142.426972 
L 456.592138 142.094225 
L 457.607699 142.910968 
L 458.115479 142.729469 
L 458.62326 142.69922 
L 459.13104 143.122716 
L 459.638821 143.213465 
L 460.146601 143.031966 
L 461.162162 142.336223 
L 461.669943 143.243714 
L 462.177723 142.578221 
L 462.685504 142.60847 
L 463.193284 142.880718 
L 463.701065 142.880718 
L 464.208845 142.457222 
L 465.224406 142.759719 
L 466.239967 142.66897 
L 467.255528 143.515962 
L 467.763309 142.789969 
L 468.271089 143.152965 
L 468.77887 142.63872 
L 469.794431 142.971467 
L 470.302211 143.152965 
L 470.809992 142.759719 
L 471.317772 142.578221 
L 471.825553 142.910968 
L 472.333333 142.69922 
L 472.841114 142.729469 
L 473.348894 143.031966 
L 473.856675 142.457222 
L 474.872236 142.729469 
L 475.380016 142.729469 
L 475.887797 142.941217 
L 476.903358 142.66897 
L 477.918919 142.850468 
L 478.426699 142.366473 
L 478.93448 142.759719 
L 479.950041 142.154725 
L 480.457821 142.547971 
L 480.965602 143.122716 
L 481.473382 142.63872 
L 482.488943 143.485712 
L 482.996724 143.092466 
L 483.504505 143.122716 
L 484.012285 142.729469 
L 484.520066 142.60847 
L 485.027846 142.971467 
L 485.535627 143.001717 
L 486.043407 142.66897 
L 486.551188 143.243714 
L 487.058968 142.971467 
L 487.566749 142.850468 
L 488.074529 143.122716 
L 488.58231 142.578221 
L 489.09009 142.910968 
L 489.597871 142.66897 
L 490.105651 142.910968 
L 490.613432 142.487472 
L 491.121212 142.789969 
L 491.628993 142.457222 
L 492.136773 142.850468 
L 492.644554 142.578221 
L 493.660115 142.69922 
L 494.167895 142.245474 
L 495.183456 142.60847 
L 495.691237 142.336223 
L 496.199017 142.820218 
L 497.214578 142.60847 
L 497.722359 142.578221 
L 498.230139 142.941217 
L 499.2457 142.517721 
L 499.753481 142.971467 
L 500.261261 142.729469 
L 500.769042 142.820218 
L 501.276822 143.152965 
L 501.784603 143.001717 
L 502.292383 143.122716 
L 503.307944 142.910968 
L 504.323505 142.971467 
L 504.831286 142.729469 
L 505.339066 142.63872 
L 506.862408 142.729469 
L 507.370188 142.547971 
L 507.877969 142.66897 
L 508.385749 142.578221 
L 508.89353 142.759719 
L 509.909091 142.820218 
L 510.924652 142.66897 
L 511.940213 142.729469 
L 512.447993 142.789969 
L 512.955774 143.001717 
L 513.463554 142.66897 
L 513.971335 142.66897 
L 514.479115 142.547971 
L 514.986896 142.69922 
L 516.002457 142.66897 
L 516.510238 142.820218 
L 517.018018 142.69922 
L 518.033579 142.820218 
L 518.54136 142.63872 
L 519.04914 142.880718 
L 520.064701 142.759719 
L 520.572482 142.426972 
L 521.588043 142.366473 
L 522.095823 142.63872 
L 522.603604 142.66897 
L 523.111384 143.031966 
L 523.619165 142.63872 
L 524.126945 142.094225 
L 524.634726 142.184975 
L 525.142506 142.759719 
L 525.650287 142.910968 
L 526.665848 142.759719 
L 527.173628 142.487472 
L 527.681409 142.941217 
L 528.69697 142.910968 
L 529.20475 142.63872 
L 529.712531 142.820218 
L 530.220311 142.789969 
L 530.728092 143.062216 
L 531.235872 142.578221 
L 531.743653 142.850468 
L 532.251433 142.789969 
L 532.759214 142.850468 
L 534.282555 142.66897 
L 534.790336 143.031966 
L 535.298116 142.820218 
L 536.313677 142.789969 
L 536.821458 142.547971 
L 537.837019 142.910968 
L 540.375921 142.578221 
L 541.391482 142.941217 
L 541.899263 142.850468 
L 542.407043 143.031966 
L 542.914824 142.759719 
L 543.930385 142.578221 
L 544.438165 142.69922 
L 544.945946 142.971467 
L 546.469287 142.457222 
L 547.484848 142.820218 
L 547.992629 142.578221 
L 548.50041 142.60847 
L 549.00819 143.243714 
L 549.515971 142.971467 
L 550.023751 143.031966 
L 550.531532 142.729469 
L 551.039312 142.910968 
L 552.054873 142.880718 
L 552.562654 143.092466 
L 553.070434 142.910968 
L 553.578215 143.001717 
L 554.593776 142.789969 
L 555.609337 142.820218 
L 556.624898 142.426972 
L 557.640459 142.63872 
L 558.148239 142.457222 
L 558.65602 142.759719 
L 559.1638 142.487472 
L 559.671581 142.789969 
L 560.179361 142.487472 
L 560.687142 142.578221 
L 561.194922 142.457222 
L 561.702703 142.63872 
L 562.210483 142.366473 
L 563.226044 142.880718 
L 563.733825 142.820218 
L 565.257166 142.941217 
L 566.272727 142.820218 
L 566.780508 142.396723 
L 567.288288 142.517721 
L 567.796069 142.880718 
L 568.303849 142.789969 
L 568.81163 142.910968 
L 569.31941 142.880718 
L 569.827191 142.69922 
L 571.350532 143.122716 
L 571.858313 142.850468 
L 572.366093 142.729469 
L 572.873874 143.001717 
L 573.889435 142.880718 
L 574.397215 142.941217 
L 574.904996 143.152965 
L 575.412776 142.880718 
L 575.920557 142.759719 
L 576.428337 142.759719 
L 576.936118 142.910968 
L 577.443898 142.69922 
L 577.951679 142.63872 
L 578.96724 142.880718 
L 579.47502 142.789969 
L 580.490581 142.941217 
L 580.998362 142.69922 
L 581.506143 142.971467 
L 582.521704 142.880718 
L 583.029484 142.820218 
L 583.537265 143.062216 
L 584.552826 142.910968 
L 585.060606 142.941217 
L 585.568387 143.092466 
L 588.107289 142.880718 
L 588.61507 142.63872 
L 589.12285 142.729469 
L 590.138411 142.63872 
L 590.646192 142.880718 
L 591.153972 142.880718 
L 591.661753 143.001717 
L 592.169533 142.850468 
L 595.723997 142.941217 
L 596.231777 143.031966 
L 596.739558 142.759719 
L 597.247338 142.729469 
L 597.755119 142.880718 
L 598.262899 142.820218 
L 598.77068 142.971467 
L 599.27846 142.880718 
L 599.786241 143.001717 
L 600.294021 142.69922 
L 600.801802 143.001717 
L 601.309582 142.971467 
L 601.817363 143.183215 
L 602.325143 142.850468 
L 602.832924 143.062216 
L 604.356265 142.69922 
L 604.864046 143.031966 
L 605.371826 143.152965 
L 605.879607 142.880718 
L 606.387387 143.001717 
L 606.895168 143.001717 
L 607.402948 142.729469 
L 607.910729 142.910968 
L 608.92629 142.66897 
L 609.941851 142.880718 
L 610.449631 143.092466 
L 610.957412 142.971467 
L 612.480753 142.941217 
L 612.988534 142.789969 
L 613.496314 142.820218 
L 614.004095 142.63872 
L 614.511876 142.880718 
L 615.019656 142.971467 
L 615.527437 142.850468 
L 616.035217 143.031966 
L 616.542998 142.910968 
L 617.558559 143.001717 
L 618.066339 143.031966 
L 620.097461 142.69922 
L 620.605242 143.001717 
L 621.113022 143.031966 
L 621.620803 142.880718 
L 622.128583 142.850468 
L 622.636364 143.001717 
L 622.636364 143.001717 
" clip-path="url(#p892437f568)" style="fill: none; stroke: #ff7f0e; stroke-width: 1.5; stroke-linecap: square"/>
   </g>
   <g id="line2d_15">
    <path d="M 115.363636 358.48117 
L 118.9181 358.580476 
L 119.933661 358.796404 
L 120.949222 359.224681 
L 121.964783 359.685608 
L 123.488124 360.025477 
L 126.027027 360.597563 
L 130.597052 361.854302 
L 134.151515 362.343758 
L 145.830467 363.600373 
L 165.126126 365.126607 
L 170.203931 365.489154 
L 177.312858 366.006614 
L 203.717445 367.918428 
L 206.256347 368.045643 
L 207.271908 368.113017 
L 208.79525 368.198533 
L 214.380835 368.447151 
L 220.981982 368.655393 
L 223.520885 368.717488 
L 228.59869 368.842926 
L 232.153153 368.89936 
L 239.26208 368.988937 
L 268.205569 369.181096 
L 271.252252 369.192552 
L 297.656839 369.252559 
L 317.968059 369.269959 
L 329.647011 369.286011 
L 336.248157 369.291276 
L 343.864865 369.295901 
L 381.440622 369.33659 
L 406.829648 369.352057 
L 532.251433 369.359756 
L 622.636364 369.35999 
L 622.636364 369.35999 
" clip-path="url(#p892437f568)" style="fill: none; stroke: #2ca02c; stroke-width: 1.5; stroke-linecap: square"/>
   </g>
   <g id="line2d_16">
    <path d="M 115.363636 358.496541 
L 118.410319 358.572472 
L 119.42588 358.773095 
L 120.441441 359.179152 
L 121.457002 359.749833 
L 122.472563 360.042986 
L 125.011466 360.5825 
L 127.042588 361.215722 
L 129.581491 361.940073 
L 132.120393 362.290581 
L 149.38493 363.996832 
L 171.219492 365.000593 
L 171.727273 364.917629 
L 172.235053 365.027384 
L 172.742834 364.898844 
L 173.758395 365.024779 
L 174.773956 365.052915 
L 178.328419 365.174551 
L 179.851761 365.178182 
L 183.406224 365.150954 
L 183.914005 365.272619 
L 184.929566 365.23273 
L 186.960688 365.249597 
L 187.976249 365.185155 
L 188.99181 365.245235 
L 189.49959 365.249082 
L 190.007371 365.099394 
L 191.022932 365.260076 
L 191.530713 365.115179 
L 193.054054 365.225146 
L 194.069615 365.146593 
L 195.085176 365.176787 
L 195.592957 365.066138 
L 197.116298 365.142922 
L 197.624079 365.054649 
L 199.14742 365.062351 
L 199.655201 364.932319 
L 200.162981 365.039903 
L 205.748567 364.832275 
L 206.256347 364.866725 
L 206.764128 364.636646 
L 207.779689 364.771059 
L 208.287469 364.642346 
L 209.30303 364.660097 
L 211.334152 364.592911 
L 211.841933 364.535652 
L 212.349713 364.626338 
L 213.365274 364.495471 
L 214.888616 364.426791 
L 215.396396 364.339043 
L 216.411957 364.370978 
L 216.919738 364.222425 
L 217.427518 364.36495 
L 218.443079 364.122987 
L 220.474201 364.182048 
L 221.997543 363.907121 
L 223.013104 364.148464 
L 223.520885 364.047628 
L 224.028665 363.802616 
L 226.059787 363.806714 
L 228.090909 363.832536 
L 228.59869 363.676434 
L 229.10647 363.771154 
L 229.614251 363.617057 
L 230.629812 363.700517 
L 231.137592 363.7581 
L 233.168714 363.478554 
L 233.676495 363.677798 
L 234.184275 363.531499 
L 234.692056 363.588635 
L 235.199836 363.388485 
L 236.215397 363.354236 
L 236.723178 363.313984 
L 237.230958 363.425509 
L 237.738739 363.355226 
L 238.7543 363.382627 
L 240.277641 363.276489 
L 241.293202 363.165613 
L 241.800983 363.319481 
L 243.324324 363.065637 
L 243.832105 363.205339 
L 246.878788 363.085318 
L 248.402129 362.980105 
L 248.90991 363.090622 
L 251.448812 362.802408 
L 251.956593 362.971615 
L 252.464373 362.830849 
L 255.511057 362.767519 
L 257.034398 362.737979 
L 257.542179 362.815267 
L 258.049959 362.692857 
L 258.55774 362.762507 
L 259.06552 362.69885 
L 259.573301 362.811898 
L 260.081081 362.588998 
L 260.588862 362.741196 
L 261.096642 362.739501 
L 261.604423 362.616073 
L 262.619984 362.628429 
L 263.635545 362.595438 
L 264.143325 362.456984 
L 265.158886 362.60297 
L 266.174447 362.562156 
L 266.682228 362.61344 
L 267.190008 362.449689 
L 267.697789 362.556339 
L 268.71335 362.386903 
L 271.252252 362.485445 
L 271.760033 362.39305 
L 272.267813 362.523785 
L 272.775594 362.349872 
L 273.283374 362.425841 
L 273.791155 362.256043 
L 274.298935 362.358467 
L 274.806716 362.294828 
L 276.330057 362.432024 
L 276.837838 362.236781 
L 280.900082 362.216113 
L 281.407862 362.295784 
L 281.915643 361.99898 
L 282.423423 362.238924 
L 282.931204 362.052626 
L 283.438984 362.202113 
L 283.946765 362.001178 
L 284.962326 362.130452 
L 285.470106 362.010325 
L 285.977887 362.203493 
L 286.993448 362.125254 
L 288.009009 362.046626 
L 288.51679 361.957434 
L 289.02457 362.150149 
L 290.040131 362.058806 
L 294.610156 361.995286 
L 296.133497 361.964185 
L 296.641278 362.023678 
L 297.656839 361.80144 
L 298.164619 361.974833 
L 302.734644 361.741769 
L 303.242424 361.883109 
L 305.273546 361.862375 
L 307.812449 361.850932 
L 308.320229 361.761298 
L 308.82801 361.818981 
L 309.33579 361.739999 
L 310.351351 361.824637 
L 311.874693 361.739973 
L 312.382473 361.504366 
L 312.890254 361.65013 
L 314.921376 361.604956 
L 315.429156 361.525318 
L 316.444717 361.634707 
L 316.952498 361.532469 
L 317.460278 361.815491 
L 317.968059 361.655362 
L 319.4914 361.634795 
L 321.014742 361.56319 
L 322.538084 361.59227 
L 323.045864 361.550185 
L 323.553645 361.644628 
L 324.061425 361.504298 
L 325.076986 361.488081 
L 326.092547 361.468545 
L 326.600328 361.513228 
L 327.108108 361.398119 
L 329.13923 361.495769 
L 331.170352 361.340414 
L 332.185913 361.494319 
L 333.201474 361.387668 
L 333.709255 361.545114 
L 334.217035 361.23944 
L 335.740377 361.350709 
L 336.248157 361.231143 
L 336.755938 361.360717 
L 337.263718 361.374893 
L 337.771499 361.503525 
L 338.279279 361.338166 
L 338.78706 361.485128 
L 340.818182 361.276333 
L 341.325962 361.374445 
L 342.849304 361.307098 
L 343.357084 361.408614 
L 344.372645 361.268123 
L 345.388206 361.428506 
L 345.895987 361.299884 
L 347.927109 361.212599 
L 351.989353 361.183965 
L 352.497133 361.067604 
L 353.512695 361.271162 
L 356.051597 361.070554 
L 356.559378 361.219681 
L 357.067158 361.128405 
L 357.574939 361.208095 
L 358.5905 361.032582 
L 359.09828 360.997012 
L 359.606061 361.270587 
L 360.621622 360.910294 
L 362.652744 361.005954 
L 363.160524 360.975698 
L 363.668305 361.081489 
L 364.176085 360.884094 
L 365.699427 361.211403 
L 366.207207 361.090072 
L 366.714988 361.170452 
L 369.25389 360.925747 
L 369.761671 361.053605 
L 373.316134 360.885068 
L 373.823915 360.747557 
L 374.331695 360.830526 
L 376.362817 360.587213 
L 376.870598 360.785535 
L 377.378378 360.587047 
L 377.886159 360.686358 
L 378.393939 360.607769 
L 378.90172 360.716721 
L 379.917281 360.526917 
L 380.932842 360.58175 
L 381.440622 360.263074 
L 382.456183 360.462949 
L 383.471744 360.548709 
L 384.487305 360.348417 
L 384.995086 360.442561 
L 385.502867 360.354027 
L 386.010647 360.423314 
L 386.518428 360.223159 
L 387.026208 360.361865 
L 387.533989 360.183281 
L 388.041769 360.416724 
L 388.54955 360.176895 
L 389.05733 360.277221 
L 390.072891 360.269008 
L 391.088452 360.299353 
L 392.611794 360.158216 
L 393.627355 360.181394 
L 395.658477 360.127617 
L 396.674038 360.147575 
L 397.181818 359.898984 
L 397.689599 359.84944 
L 398.197379 359.915611 
L 398.70516 360.096851 
L 400.736282 359.890821 
L 401.244062 359.820462 
L 401.751843 359.997165 
L 402.767404 359.84064 
L 403.275184 359.945791 
L 403.782965 359.810624 
L 404.290745 359.962189 
L 405.306306 359.811998 
L 405.814087 359.924617 
L 419.524161 359.459979 
L 420.031941 359.559534 
L 420.539722 359.442551 
L 421.555283 359.633385 
L 422.063063 359.388938 
L 423.078624 359.585797 
L 423.586405 359.397263 
L 424.601966 359.439212 
L 425.617527 359.446425 
L 426.633088 359.396519 
L 428.66421 359.402129 
L 429.679771 359.307738 
L 430.695332 359.381965 
L 431.203112 359.210563 
L 431.710893 359.381875 
L 433.234234 359.342032 
L 435.265356 359.288787 
L 436.280917 359.377598 
L 437.296478 359.303015 
L 437.804259 359.3801 
L 438.81982 359.304963 
L 440.343161 359.136689 
L 440.850942 359.082928 
L 441.866503 359.176098 
L 442.882064 359.105276 
L 444.405405 359.084184 
L 446.944308 359.055909 
L 448.97543 359.004843 
L 449.48321 358.93215 
L 449.990991 359.066552 
L 451.006552 358.981644 
L 452.022113 359.008845 
L 455.068796 358.889178 
L 455.576577 358.79435 
L 456.592138 358.87699 
L 458.62326 358.8503 
L 460.146601 358.86924 
L 462.177723 358.850334 
L 463.701065 358.750567 
L 464.208845 358.857518 
L 466.747748 358.806666 
L 467.255528 358.62703 
L 467.763309 358.704941 
L 468.271089 358.617866 
L 469.794431 358.728113 
L 470.809992 358.650555 
L 472.333333 358.696122 
L 480.457821 358.598925 
L 481.473382 358.632285 
L 481.981163 358.57945 
L 482.996724 358.616692 
L 484.012285 358.583106 
L 488.58231 358.586599 
L 489.09009 358.48013 
L 490.105651 358.529808 
L 493.152334 358.451155 
L 494.675676 358.447088 
L 496.199017 358.395047 
L 520.064701 358.168312 
L 521.080262 358.203664 
L 522.603604 358.135169 
L 537.837019 358.003435 
L 549.00819 357.943455 
L 550.531532 357.964319 
L 552.562654 357.963879 
L 554.593776 357.962792 
L 556.624898 357.892463 
L 561.702703 357.848863 
L 580.490581 357.71072 
L 581.506143 357.749342 
L 584.045045 357.683048 
L 589.12285 357.676569 
L 591.661753 357.632447 
L 595.723997 357.617539 
L 598.77068 357.574766 
L 606.387387 357.588977 
L 608.92629 357.530208 
L 622.636364 357.46754 
L 622.636364 357.46754 
" clip-path="url(#p892437f568)" style="fill: none; stroke: #d62728; stroke-width: 1.5; stroke-linecap: square"/>
   </g>
   <g id="patch_3">
    <path d="M 90 384.48 
L 90 51.84 
" style="fill: none; stroke: #000000; stroke-width: 0.8; stroke-linejoin: miter; stroke-linecap: square"/>
   </g>
   <g id="patch_4">
    <path d="M 648 384.48 
L 648 51.84 
" style="fill: none; stroke: #000000; stroke-width: 0.8; stroke-linejoin: miter; stroke-linecap: square"/>
   </g>
   <g id="patch_5">
    <path d="M 90 384.48 
L 648 384.48 
" style="fill: none; stroke: #000000; stroke-width: 0.8; stroke-linejoin: miter; stroke-linecap: square"/>
   </g>
   <g id="patch_6">
    <path d="M 90 51.84 
L 648 51.84 
" style="fill: none; stroke: #000000; stroke-width: 0.8; stroke-linejoin: miter; stroke-linecap: square"/>
   </g>
   <g id="text_15">
    <!-- Accuracy -->
    <g transform="translate(341.60625 45.84) scale(0.12 -0.12)">
     <use xlink:href="#DejaVuSans-41"/>
     <use xlink:href="#DejaVuSans-63" x="66.658203"/>
     <use xlink:href="#DejaVuSans-63" x="121.638672"/>
     <use xlink:href="#DejaVuSans-75" x="176.619141"/>
     <use xlink:href="#DejaVuSans-72" x="239.998047"/>
     <use xlink:href="#DejaVuSans-61" x="281.111328"/>
     <use xlink:href="#DejaVuSans-63" x="342.390625"/>
     <use xlink:href="#DejaVuSans-79" x="397.371094"/>
    </g>
   </g>
   <g id="legend_1">
    <g id="patch_7">
     <path d="M 97 119.665 
L 177.303125 119.665 
Q 179.303125 119.665 179.303125 117.665 
L 179.303125 58.84 
Q 179.303125 56.84 177.303125 56.84 
L 97 56.84 
Q 95 56.84 95 58.84 
L 95 117.665 
Q 95 119.665 97 119.665 
z
" style="fill: #ffffff; opacity: 0.8; stroke: #cccccc; stroke-linejoin: miter"/>
    </g>
    <g id="line2d_17">
     <path d="M 99 64.938437 
L 109 64.938437 
L 119 64.938437 
" style="fill: none; stroke: #1f77b4; stroke-width: 1.5; stroke-linecap: square"/>
    </g>
    <g id="text_16">
     <!-- Train_acc -->
     <g transform="translate(127 68.438437) scale(0.1 -0.1)">
      <defs>
       <path id="DejaVuSans-54" d="M -19 4666 
L 3928 4666 
L 3928 4134 
L 2272 4134 
L 2272 0 
L 1638 0 
L 1638 4134 
L -19 4134 
L -19 4666 
z
" transform="scale(0.015625)"/>
       <path id="DejaVuSans-69" d="M 603 3500 
L 1178 3500 
L 1178 0 
L 603 0 
L 603 3500 
z
M 603 4863 
L 1178 4863 
L 1178 4134 
L 603 4134 
L 603 4863 
z
" transform="scale(0.015625)"/>
       <path id="DejaVuSans-6e" d="M 3513 2113 
L 3513 0 
L 2938 0 
L 2938 2094 
Q 2938 2591 2744 2837 
Q 2550 3084 2163 3084 
Q 1697 3084 1428 2787 
Q 1159 2491 1159 1978 
L 1159 0 
L 581 0 
L 581 3500 
L 1159 3500 
L 1159 2956 
Q 1366 3272 1645 3428 
Q 1925 3584 2291 3584 
Q 2894 3584 3203 3211 
Q 3513 2838 3513 2113 
z
" transform="scale(0.015625)"/>
       <path id="DejaVuSans-5f" d="M 3263 -1063 
L 3263 -1509 
L -63 -1509 
L -63 -1063 
L 3263 -1063 
z
" transform="scale(0.015625)"/>
      </defs>
      <use xlink:href="#DejaVuSans-54"/>
      <use xlink:href="#DejaVuSans-72" x="46.333984"/>
      <use xlink:href="#DejaVuSans-61" x="87.447266"/>
      <use xlink:href="#DejaVuSans-69" x="148.726562"/>
      <use xlink:href="#DejaVuSans-6e" x="176.509766"/>
      <use xlink:href="#DejaVuSans-5f" x="239.888672"/>
      <use xlink:href="#DejaVuSans-61" x="289.888672"/>
      <use xlink:href="#DejaVuSans-63" x="351.167969"/>
      <use xlink:href="#DejaVuSans-63" x="406.148438"/>
     </g>
    </g>
    <g id="line2d_18">
     <path d="M 99 79.894687 
L 109 79.894687 
L 119 79.894687 
" style="fill: none; stroke: #ff7f0e; stroke-width: 1.5; stroke-linecap: square"/>
    </g>
    <g id="text_17">
     <!-- Test_acc -->
     <g transform="translate(127 83.394687) scale(0.1 -0.1)">
      <defs>
       <path id="DejaVuSans-65" d="M 3597 1894 
L 3597 1613 
L 953 1613 
Q 991 1019 1311 708 
Q 1631 397 2203 397 
Q 2534 397 2845 478 
Q 3156 559 3463 722 
L 3463 178 
Q 3153 47 2828 -22 
Q 2503 -91 2169 -91 
Q 1331 -91 842 396 
Q 353 884 353 1716 
Q 353 2575 817 3079 
Q 1281 3584 2069 3584 
Q 2775 3584 3186 3129 
Q 3597 2675 3597 1894 
z
M 3022 2063 
Q 3016 2534 2758 2815 
Q 2500 3097 2075 3097 
Q 1594 3097 1305 2825 
Q 1016 2553 972 2059 
L 3022 2063 
z
" transform="scale(0.015625)"/>
       <path id="DejaVuSans-73" d="M 2834 3397 
L 2834 2853 
Q 2591 2978 2328 3040 
Q 2066 3103 1784 3103 
Q 1356 3103 1142 2972 
Q 928 2841 928 2578 
Q 928 2378 1081 2264 
Q 1234 2150 1697 2047 
L 1894 2003 
Q 2506 1872 2764 1633 
Q 3022 1394 3022 966 
Q 3022 478 2636 193 
Q 2250 -91 1575 -91 
Q 1294 -91 989 -36 
Q 684 19 347 128 
L 347 722 
Q 666 556 975 473 
Q 1284 391 1588 391 
Q 1994 391 2212 530 
Q 2431 669 2431 922 
Q 2431 1156 2273 1281 
Q 2116 1406 1581 1522 
L 1381 1569 
Q 847 1681 609 1914 
Q 372 2147 372 2553 
Q 372 3047 722 3315 
Q 1072 3584 1716 3584 
Q 2034 3584 2315 3537 
Q 2597 3491 2834 3397 
z
" transform="scale(0.015625)"/>
       <path id="DejaVuSans-74" d="M 1172 4494 
L 1172 3500 
L 2356 3500 
L 2356 3053 
L 1172 3053 
L 1172 1153 
Q 1172 725 1289 603 
Q 1406 481 1766 481 
L 2356 481 
L 2356 0 
L 1766 0 
Q 1100 0 847 248 
Q 594 497 594 1153 
L 594 3053 
L 172 3053 
L 172 3500 
L 594 3500 
L 594 4494 
L 1172 4494 
z
" transform="scale(0.015625)"/>
      </defs>
      <use xlink:href="#DejaVuSans-54"/>
      <use xlink:href="#DejaVuSans-65" x="44.083984"/>
      <use xlink:href="#DejaVuSans-73" x="105.607422"/>
      <use xlink:href="#DejaVuSans-74" x="157.707031"/>
      <use xlink:href="#DejaVuSans-5f" x="196.916016"/>
      <use xlink:href="#DejaVuSans-61" x="246.916016"/>
      <use xlink:href="#DejaVuSans-63" x="308.195312"/>
      <use xlink:href="#DejaVuSans-63" x="363.175781"/>
     </g>
    </g>
    <g id="line2d_19">
     <path d="M 99 94.850937 
L 109 94.850937 
L 119 94.850937 
" style="fill: none; stroke: #2ca02c; stroke-width: 1.5; stroke-linecap: square"/>
    </g>
    <g id="text_18">
     <!-- Train_loss -->
     <g transform="translate(127 98.350937) scale(0.1 -0.1)">
      <defs>
       <path id="DejaVuSans-6c" d="M 603 4863 
L 1178 4863 
L 1178 0 
L 603 0 
L 603 4863 
z
" transform="scale(0.015625)"/>
      </defs>
      <use xlink:href="#DejaVuSans-54"/>
      <use xlink:href="#DejaVuSans-72" x="46.333984"/>
      <use xlink:href="#DejaVuSans-61" x="87.447266"/>
      <use xlink:href="#DejaVuSans-69" x="148.726562"/>
      <use xlink:href="#DejaVuSans-6e" x="176.509766"/>
      <use xlink:href="#DejaVuSans-5f" x="239.888672"/>
      <use xlink:href="#DejaVuSans-6c" x="289.888672"/>
      <use xlink:href="#DejaVuSans-6f" x="317.671875"/>
      <use xlink:href="#DejaVuSans-73" x="378.853516"/>
      <use xlink:href="#DejaVuSans-73" x="430.953125"/>
     </g>
    </g>
    <g id="line2d_20">
     <path d="M 99 109.807187 
L 109 109.807187 
L 119 109.807187 
" style="fill: none; stroke: #d62728; stroke-width: 1.5; stroke-linecap: square"/>
    </g>
    <g id="text_19">
     <!-- Test_loss -->
     <g transform="translate(127 113.307187) scale(0.1 -0.1)">
      <use xlink:href="#DejaVuSans-54"/>
      <use xlink:href="#DejaVuSans-65" x="44.083984"/>
      <use xlink:href="#DejaVuSans-73" x="105.607422"/>
      <use xlink:href="#DejaVuSans-74" x="157.707031"/>
      <use xlink:href="#DejaVuSans-5f" x="196.916016"/>
      <use xlink:href="#DejaVuSans-6c" x="246.916016"/>
      <use xlink:href="#DejaVuSans-6f" x="274.699219"/>
      <use xlink:href="#DejaVuSans-73" x="335.880859"/>
      <use xlink:href="#DejaVuSans-73" x="387.980469"/>
     </g>
    </g>
   </g>
  </g>
 </g>
 <defs>
  <clipPath id="p892437f568">
   <rect x="90" y="51.84" width="558" height="332.64"/>
  </clipPath>
 </defs>
</svg>
