<?xml version="1.0" encoding="utf-8" standalone="no"?>
<!DOCTYPE svg PUBLIC "-//W3C//DTD SVG 1.1//EN"
  "http://www.w3.org/Graphics/SVG/1.1/DTD/svg11.dtd">
<svg xmlns:xlink="http://www.w3.org/1999/xlink" width="720pt" height="432pt" viewBox="0 0 720 432" xmlns="http://www.w3.org/2000/svg" version="1.1">
 <metadata>
  <rdf:RDF xmlns:dc="http://purl.org/dc/elements/1.1/" xmlns:cc="http://creativecommons.org/ns#" xmlns:rdf="http://www.w3.org/1999/02/22-rdf-syntax-ns#">
   <cc:Work>
    <dc:type rdf:resource="http://purl.org/dc/dcmitype/StillImage"/>
    <dc:date>2023-04-19T08:59:11.240732</dc:date>
    <dc:format>image/svg+xml</dc:format>
    <dc:creator>
     <cc:Agent>
      <dc:title>Matplotlib v3.7.1, https://matplotlib.org/</dc:title>
     </cc:Agent>
    </dc:creator>
   </cc:Work>
  </rdf:RDF>
 </metadata>
 <defs>
  <style type="text/css">*{stroke-linejoin: round; stroke-linecap: butt}</style>
 </defs>
 <g id="figure_1">
  <g id="patch_1">
   <path d="M 0 432 
L 720 432 
L 720 0 
L 0 0 
z
" style="fill: #ffffff"/>
  </g>
  <g id="axes_1">
   <g id="patch_2">
    <path d="M 90 384.48 
L 648 384.48 
L 648 51.84 
L 90 51.84 
z
" style="fill: #ffffff"/>
   </g>
   <g id="matplotlib.axis_1">
    <g id="xtick_1">
     <g id="line2d_1">
      <defs>
       <path id="mde7d4d76e5" d="M 0 0 
L 0 3.5 
" style="stroke: #000000; stroke-width: 0.8"/>
      </defs>
      <g>
       <use xlink:href="#mde7d4d76e5" x="115.363636" y="384.48" style="stroke: #000000; stroke-width: 0.8"/>
      </g>
     </g>
     <g id="text_1">
      <!-- 0 -->
      <g transform="translate(112.182386 399.078438) scale(0.1 -0.1)">
       <defs>
        <path id="DejaVuSans-30" d="M 2034 4250 
Q 1547 4250 1301 3770 
Q 1056 3291 1056 2328 
Q 1056 1369 1301 889 
Q 1547 409 2034 409 
Q 2525 409 2770 889 
Q 3016 1369 3016 2328 
Q 3016 3291 2770 3770 
Q 2525 4250 2034 4250 
z
M 2034 4750 
Q 2819 4750 3233 4129 
Q 3647 3509 3647 2328 
Q 3647 1150 3233 529 
Q 2819 -91 2034 -91 
Q 1250 -91 836 529 
Q 422 1150 422 2328 
Q 422 3509 836 4129 
Q 1250 4750 2034 4750 
z
" transform="scale(0.015625)"/>
       </defs>
       <use xlink:href="#DejaVuSans-30"/>
      </g>
     </g>
    </g>
    <g id="xtick_2">
     <g id="line2d_2">
      <g>
       <use xlink:href="#mde7d4d76e5" x="216.919738" y="384.48" style="stroke: #000000; stroke-width: 0.8"/>
      </g>
     </g>
     <g id="text_2">
      <!-- 200 -->
      <g transform="translate(207.375988 399.078438) scale(0.1 -0.1)">
       <defs>
        <path id="DejaVuSans-32" d="M 1228 531 
L 3431 531 
L 3431 0 
L 469 0 
L 469 531 
Q 828 903 1448 1529 
Q 2069 2156 2228 2338 
Q 2531 2678 2651 2914 
Q 2772 3150 2772 3378 
Q 2772 3750 2511 3984 
Q 2250 4219 1831 4219 
Q 1534 4219 1204 4116 
Q 875 4013 500 3803 
L 500 4441 
Q 881 4594 1212 4672 
Q 1544 4750 1819 4750 
Q 2544 4750 2975 4387 
Q 3406 4025 3406 3419 
Q 3406 3131 3298 2873 
Q 3191 2616 2906 2266 
Q 2828 2175 2409 1742 
Q 1991 1309 1228 531 
z
" transform="scale(0.015625)"/>
       </defs>
       <use xlink:href="#DejaVuSans-32"/>
       <use xlink:href="#DejaVuSans-30" x="63.623047"/>
       <use xlink:href="#DejaVuSans-30" x="127.246094"/>
      </g>
     </g>
    </g>
    <g id="xtick_3">
     <g id="line2d_3">
      <g>
       <use xlink:href="#mde7d4d76e5" x="318.475839" y="384.48" style="stroke: #000000; stroke-width: 0.8"/>
      </g>
     </g>
     <g id="text_3">
      <!-- 400 -->
      <g transform="translate(308.932089 399.078438) scale(0.1 -0.1)">
       <defs>
        <path id="DejaVuSans-34" d="M 2419 4116 
L 825 1625 
L 2419 1625 
L 2419 4116 
z
M 2253 4666 
L 3047 4666 
L 3047 1625 
L 3713 1625 
L 3713 1100 
L 3047 1100 
L 3047 0 
L 2419 0 
L 2419 1100 
L 313 1100 
L 313 1709 
L 2253 4666 
z
" transform="scale(0.015625)"/>
       </defs>
       <use xlink:href="#DejaVuSans-34"/>
       <use xlink:href="#DejaVuSans-30" x="63.623047"/>
       <use xlink:href="#DejaVuSans-30" x="127.246094"/>
      </g>
     </g>
    </g>
    <g id="xtick_4">
     <g id="line2d_4">
      <g>
       <use xlink:href="#mde7d4d76e5" x="420.031941" y="384.48" style="stroke: #000000; stroke-width: 0.8"/>
      </g>
     </g>
     <g id="text_4">
      <!-- 600 -->
      <g transform="translate(410.488191 399.078438) scale(0.1 -0.1)">
       <defs>
        <path id="DejaVuSans-36" d="M 2113 2584 
Q 1688 2584 1439 2293 
Q 1191 2003 1191 1497 
Q 1191 994 1439 701 
Q 1688 409 2113 409 
Q 2538 409 2786 701 
Q 3034 994 3034 1497 
Q 3034 2003 2786 2293 
Q 2538 2584 2113 2584 
z
M 3366 4563 
L 3366 3988 
Q 3128 4100 2886 4159 
Q 2644 4219 2406 4219 
Q 1781 4219 1451 3797 
Q 1122 3375 1075 2522 
Q 1259 2794 1537 2939 
Q 1816 3084 2150 3084 
Q 2853 3084 3261 2657 
Q 3669 2231 3669 1497 
Q 3669 778 3244 343 
Q 2819 -91 2113 -91 
Q 1303 -91 875 529 
Q 447 1150 447 2328 
Q 447 3434 972 4092 
Q 1497 4750 2381 4750 
Q 2619 4750 2861 4703 
Q 3103 4656 3366 4563 
z
" transform="scale(0.015625)"/>
       </defs>
       <use xlink:href="#DejaVuSans-36"/>
       <use xlink:href="#DejaVuSans-30" x="63.623047"/>
       <use xlink:href="#DejaVuSans-30" x="127.246094"/>
      </g>
     </g>
    </g>
    <g id="xtick_5">
     <g id="line2d_5">
      <g>
       <use xlink:href="#mde7d4d76e5" x="521.588043" y="384.48" style="stroke: #000000; stroke-width: 0.8"/>
      </g>
     </g>
     <g id="text_5">
      <!-- 800 -->
      <g transform="translate(512.044293 399.078438) scale(0.1 -0.1)">
       <defs>
        <path id="DejaVuSans-38" d="M 2034 2216 
Q 1584 2216 1326 1975 
Q 1069 1734 1069 1313 
Q 1069 891 1326 650 
Q 1584 409 2034 409 
Q 2484 409 2743 651 
Q 3003 894 3003 1313 
Q 3003 1734 2745 1975 
Q 2488 2216 2034 2216 
z
M 1403 2484 
Q 997 2584 770 2862 
Q 544 3141 544 3541 
Q 544 4100 942 4425 
Q 1341 4750 2034 4750 
Q 2731 4750 3128 4425 
Q 3525 4100 3525 3541 
Q 3525 3141 3298 2862 
Q 3072 2584 2669 2484 
Q 3125 2378 3379 2068 
Q 3634 1759 3634 1313 
Q 3634 634 3220 271 
Q 2806 -91 2034 -91 
Q 1263 -91 848 271 
Q 434 634 434 1313 
Q 434 1759 690 2068 
Q 947 2378 1403 2484 
z
M 1172 3481 
Q 1172 3119 1398 2916 
Q 1625 2713 2034 2713 
Q 2441 2713 2670 2916 
Q 2900 3119 2900 3481 
Q 2900 3844 2670 4047 
Q 2441 4250 2034 4250 
Q 1625 4250 1398 4047 
Q 1172 3844 1172 3481 
z
" transform="scale(0.015625)"/>
       </defs>
       <use xlink:href="#DejaVuSans-38"/>
       <use xlink:href="#DejaVuSans-30" x="63.623047"/>
       <use xlink:href="#DejaVuSans-30" x="127.246094"/>
      </g>
     </g>
    </g>
    <g id="xtick_6">
     <g id="line2d_6">
      <g>
       <use xlink:href="#mde7d4d76e5" x="623.144144" y="384.48" style="stroke: #000000; stroke-width: 0.8"/>
      </g>
     </g>
     <g id="text_6">
      <!-- 1000 -->
      <g transform="translate(610.419144 399.078438) scale(0.1 -0.1)">
       <defs>
        <path id="DejaVuSans-31" d="M 794 531 
L 1825 531 
L 1825 4091 
L 703 3866 
L 703 4441 
L 1819 4666 
L 2450 4666 
L 2450 531 
L 3481 531 
L 3481 0 
L 794 0 
L 794 531 
z
" transform="scale(0.015625)"/>
       </defs>
       <use xlink:href="#DejaVuSans-31"/>
       <use xlink:href="#DejaVuSans-30" x="63.623047"/>
       <use xlink:href="#DejaVuSans-30" x="127.246094"/>
       <use xlink:href="#DejaVuSans-30" x="190.869141"/>
      </g>
     </g>
    </g>
    <g id="text_7">
     <!-- Epoch -->
     <g transform="translate(353.689062 412.756563) scale(0.1 -0.1)">
      <defs>
       <path id="DejaVuSans-45" d="M 628 4666 
L 3578 4666 
L 3578 4134 
L 1259 4134 
L 1259 2753 
L 3481 2753 
L 3481 2222 
L 1259 2222 
L 1259 531 
L 3634 531 
L 3634 0 
L 628 0 
L 628 4666 
z
" transform="scale(0.015625)"/>
       <path id="DejaVuSans-70" d="M 1159 525 
L 1159 -1331 
L 581 -1331 
L 581 3500 
L 1159 3500 
L 1159 2969 
Q 1341 3281 1617 3432 
Q 1894 3584 2278 3584 
Q 2916 3584 3314 3078 
Q 3713 2572 3713 1747 
Q 3713 922 3314 415 
Q 2916 -91 2278 -91 
Q 1894 -91 1617 61 
Q 1341 213 1159 525 
z
M 3116 1747 
Q 3116 2381 2855 2742 
Q 2594 3103 2138 3103 
Q 1681 3103 1420 2742 
Q 1159 2381 1159 1747 
Q 1159 1113 1420 752 
Q 1681 391 2138 391 
Q 2594 391 2855 752 
Q 3116 1113 3116 1747 
z
" transform="scale(0.015625)"/>
       <path id="DejaVuSans-6f" d="M 1959 3097 
Q 1497 3097 1228 2736 
Q 959 2375 959 1747 
Q 959 1119 1226 758 
Q 1494 397 1959 397 
Q 2419 397 2687 759 
Q 2956 1122 2956 1747 
Q 2956 2369 2687 2733 
Q 2419 3097 1959 3097 
z
M 1959 3584 
Q 2709 3584 3137 3096 
Q 3566 2609 3566 1747 
Q 3566 888 3137 398 
Q 2709 -91 1959 -91 
Q 1206 -91 779 398 
Q 353 888 353 1747 
Q 353 2609 779 3096 
Q 1206 3584 1959 3584 
z
" transform="scale(0.015625)"/>
       <path id="DejaVuSans-63" d="M 3122 3366 
L 3122 2828 
Q 2878 2963 2633 3030 
Q 2388 3097 2138 3097 
Q 1578 3097 1268 2742 
Q 959 2388 959 1747 
Q 959 1106 1268 751 
Q 1578 397 2138 397 
Q 2388 397 2633 464 
Q 2878 531 3122 666 
L 3122 134 
Q 2881 22 2623 -34 
Q 2366 -91 2075 -91 
Q 1284 -91 818 406 
Q 353 903 353 1747 
Q 353 2603 823 3093 
Q 1294 3584 2113 3584 
Q 2378 3584 2631 3529 
Q 2884 3475 3122 3366 
z
" transform="scale(0.015625)"/>
       <path id="DejaVuSans-68" d="M 3513 2113 
L 3513 0 
L 2938 0 
L 2938 2094 
Q 2938 2591 2744 2837 
Q 2550 3084 2163 3084 
Q 1697 3084 1428 2787 
Q 1159 2491 1159 1978 
L 1159 0 
L 581 0 
L 581 4863 
L 1159 4863 
L 1159 2956 
Q 1366 3272 1645 3428 
Q 1925 3584 2291 3584 
Q 2894 3584 3203 3211 
Q 3513 2838 3513 2113 
z
" transform="scale(0.015625)"/>
      </defs>
      <use xlink:href="#DejaVuSans-45"/>
      <use xlink:href="#DejaVuSans-70" x="63.183594"/>
      <use xlink:href="#DejaVuSans-6f" x="126.660156"/>
      <use xlink:href="#DejaVuSans-63" x="187.841797"/>
      <use xlink:href="#DejaVuSans-68" x="242.822266"/>
     </g>
    </g>
   </g>
   <g id="matplotlib.axis_2">
    <g id="ytick_1">
     <g id="line2d_7">
      <defs>
       <path id="m74421c10dc" d="M 0 0 
L -3.5 0 
" style="stroke: #000000; stroke-width: 0.8"/>
      </defs>
      <g>
       <use xlink:href="#m74421c10dc" x="90" y="369.362621" style="stroke: #000000; stroke-width: 0.8"/>
      </g>
     </g>
     <g id="text_8">
      <!-- 0.0 -->
      <g transform="translate(67.096875 373.16184) scale(0.1 -0.1)">
       <defs>
        <path id="DejaVuSans-2e" d="M 684 794 
L 1344 794 
L 1344 0 
L 684 0 
L 684 794 
z
" transform="scale(0.015625)"/>
       </defs>
       <use xlink:href="#DejaVuSans-30"/>
       <use xlink:href="#DejaVuSans-2e" x="63.623047"/>
       <use xlink:href="#DejaVuSans-30" x="95.410156"/>
      </g>
     </g>
    </g>
    <g id="ytick_2">
     <g id="line2d_8">
      <g>
       <use xlink:href="#m74421c10dc" x="90" y="308.847805" style="stroke: #000000; stroke-width: 0.8"/>
      </g>
     </g>
     <g id="text_9">
      <!-- 0.2 -->
      <g transform="translate(67.096875 312.647024) scale(0.1 -0.1)">
       <use xlink:href="#DejaVuSans-30"/>
       <use xlink:href="#DejaVuSans-2e" x="63.623047"/>
       <use xlink:href="#DejaVuSans-32" x="95.410156"/>
      </g>
     </g>
    </g>
    <g id="ytick_3">
     <g id="line2d_9">
      <g>
       <use xlink:href="#m74421c10dc" x="90" y="248.332989" style="stroke: #000000; stroke-width: 0.8"/>
      </g>
     </g>
     <g id="text_10">
      <!-- 0.4 -->
      <g transform="translate(67.096875 252.132208) scale(0.1 -0.1)">
       <use xlink:href="#DejaVuSans-30"/>
       <use xlink:href="#DejaVuSans-2e" x="63.623047"/>
       <use xlink:href="#DejaVuSans-34" x="95.410156"/>
      </g>
     </g>
    </g>
    <g id="ytick_4">
     <g id="line2d_10">
      <g>
       <use xlink:href="#m74421c10dc" x="90" y="187.818173" style="stroke: #000000; stroke-width: 0.8"/>
      </g>
     </g>
     <g id="text_11">
      <!-- 0.6 -->
      <g transform="translate(67.096875 191.617392) scale(0.1 -0.1)">
       <use xlink:href="#DejaVuSans-30"/>
       <use xlink:href="#DejaVuSans-2e" x="63.623047"/>
       <use xlink:href="#DejaVuSans-36" x="95.410156"/>
      </g>
     </g>
    </g>
    <g id="ytick_5">
     <g id="line2d_11">
      <g>
       <use xlink:href="#m74421c10dc" x="90" y="127.303357" style="stroke: #000000; stroke-width: 0.8"/>
      </g>
     </g>
     <g id="text_12">
      <!-- 0.8 -->
      <g transform="translate(67.096875 131.102576) scale(0.1 -0.1)">
       <use xlink:href="#DejaVuSans-30"/>
       <use xlink:href="#DejaVuSans-2e" x="63.623047"/>
       <use xlink:href="#DejaVuSans-38" x="95.410156"/>
      </g>
     </g>
    </g>
    <g id="ytick_6">
     <g id="line2d_12">
      <g>
       <use xlink:href="#m74421c10dc" x="90" y="66.788541" style="stroke: #000000; stroke-width: 0.8"/>
      </g>
     </g>
     <g id="text_13">
      <!-- 1.0 -->
      <g transform="translate(67.096875 70.58776) scale(0.1 -0.1)">
       <use xlink:href="#DejaVuSans-31"/>
       <use xlink:href="#DejaVuSans-2e" x="63.623047"/>
       <use xlink:href="#DejaVuSans-30" x="95.410156"/>
      </g>
     </g>
    </g>
    <g id="text_14">
     <!-- Accuracy -->
     <g transform="translate(61.017187 240.988125) rotate(-90) scale(0.1 -0.1)">
      <defs>
       <path id="DejaVuSans-41" d="M 2188 4044 
L 1331 1722 
L 3047 1722 
L 2188 4044 
z
M 1831 4666 
L 2547 4666 
L 4325 0 
L 3669 0 
L 3244 1197 
L 1141 1197 
L 716 0 
L 50 0 
L 1831 4666 
z
" transform="scale(0.015625)"/>
       <path id="DejaVuSans-75" d="M 544 1381 
L 544 3500 
L 1119 3500 
L 1119 1403 
Q 1119 906 1312 657 
Q 1506 409 1894 409 
Q 2359 409 2629 706 
Q 2900 1003 2900 1516 
L 2900 3500 
L 3475 3500 
L 3475 0 
L 2900 0 
L 2900 538 
Q 2691 219 2414 64 
Q 2138 -91 1772 -91 
Q 1169 -91 856 284 
Q 544 659 544 1381 
z
M 1991 3584 
L 1991 3584 
z
" transform="scale(0.015625)"/>
       <path id="DejaVuSans-72" d="M 2631 2963 
Q 2534 3019 2420 3045 
Q 2306 3072 2169 3072 
Q 1681 3072 1420 2755 
Q 1159 2438 1159 1844 
L 1159 0 
L 581 0 
L 581 3500 
L 1159 3500 
L 1159 2956 
Q 1341 3275 1631 3429 
Q 1922 3584 2338 3584 
Q 2397 3584 2469 3576 
Q 2541 3569 2628 3553 
L 2631 2963 
z
" transform="scale(0.015625)"/>
       <path id="DejaVuSans-61" d="M 2194 1759 
Q 1497 1759 1228 1600 
Q 959 1441 959 1056 
Q 959 750 1161 570 
Q 1363 391 1709 391 
Q 2188 391 2477 730 
Q 2766 1069 2766 1631 
L 2766 1759 
L 2194 1759 
z
M 3341 1997 
L 3341 0 
L 2766 0 
L 2766 531 
Q 2569 213 2275 61 
Q 1981 -91 1556 -91 
Q 1019 -91 701 211 
Q 384 513 384 1019 
Q 384 1609 779 1909 
Q 1175 2209 1959 2209 
L 2766 2209 
L 2766 2266 
Q 2766 2663 2505 2880 
Q 2244 3097 1772 3097 
Q 1472 3097 1187 3025 
Q 903 2953 641 2809 
L 641 3341 
Q 956 3463 1253 3523 
Q 1550 3584 1831 3584 
Q 2591 3584 2966 3190 
Q 3341 2797 3341 1997 
z
" transform="scale(0.015625)"/>
       <path id="DejaVuSans-79" d="M 2059 -325 
Q 1816 -950 1584 -1140 
Q 1353 -1331 966 -1331 
L 506 -1331 
L 506 -850 
L 844 -850 
Q 1081 -850 1212 -737 
Q 1344 -625 1503 -206 
L 1606 56 
L 191 3500 
L 800 3500 
L 1894 763 
L 2988 3500 
L 3597 3500 
L 2059 -325 
z
" transform="scale(0.015625)"/>
      </defs>
      <use xlink:href="#DejaVuSans-41"/>
      <use xlink:href="#DejaVuSans-63" x="66.658203"/>
      <use xlink:href="#DejaVuSans-63" x="121.638672"/>
      <use xlink:href="#DejaVuSans-75" x="176.619141"/>
      <use xlink:href="#DejaVuSans-72" x="239.998047"/>
      <use xlink:href="#DejaVuSans-61" x="281.111328"/>
      <use xlink:href="#DejaVuSans-63" x="342.390625"/>
      <use xlink:href="#DejaVuSans-79" x="397.371094"/>
     </g>
    </g>
   </g>
   <g id="line2d_13">
    <path d="M 115.363636 328.116731 
L 115.871417 231.061052 
L 116.379197 189.467202 
L 116.886978 177.041493 
L 117.394758 170.268877 
L 117.902539 165.079731 
L 118.9181 158.534045 
L 121.457002 146.128508 
L 121.964783 145.372073 
L 122.472563 143.390212 
L 122.980344 141.9429 
L 123.995905 138.685186 
L 124.503686 137.207615 
L 125.011466 136.461266 
L 126.027027 133.400225 
L 126.534808 132.825334 
L 127.042588 131.277164 
L 127.550369 130.788002 
L 128.56593 129.038115 
L 129.07371 127.666446 
L 130.089271 125.861087 
L 130.597052 125.266025 
L 131.104832 124.262488 
L 131.612613 123.88427 
L 132.628174 121.846938 
L 133.135954 121.559493 
L 133.643735 120.873658 
L 134.151515 120.571084 
L 134.659296 119.25993 
L 135.167076 118.871626 
L 136.182637 117.686544 
L 136.690418 117.298241 
L 137.198198 117.273027 
L 137.705979 116.647707 
L 138.213759 116.224103 
L 138.72154 115.457582 
L 139.22932 115.129793 
L 139.737101 114.489345 
L 140.244881 114.141385 
L 140.752662 113.561451 
L 141.260442 113.223577 
L 141.768223 113.082376 
L 142.276003 112.32594 
L 142.783784 112.194825 
L 143.291564 112.396541 
L 143.799345 112.023366 
L 144.307125 111.04 
L 145.322686 110.913928 
L 145.830467 110.50041 
L 146.338247 110.53571 
L 147.353808 109.244728 
L 147.861589 109.209427 
L 148.369369 108.715223 
L 148.87715 108.684966 
L 149.38493 108.478207 
L 149.892711 108.649665 
L 150.400491 108.256319 
L 150.908272 107.620913 
L 151.416052 107.560399 
L 151.923833 107.212438 
L 152.431613 107.212438 
L 152.939394 106.60729 
L 153.447174 106.652676 
L 153.954955 106.481218 
L 154.970516 105.830683 
L 155.478296 105.94667 
L 155.986077 105.558367 
L 157.001638 105.32135 
L 157.509419 104.97339 
L 158.017199 104.948176 
L 158.52498 104.403542 
L 159.540541 104.302684 
L 160.048321 104.358156 
L 160.556102 103.747965 
L 161.063882 103.848823 
L 161.571663 103.173074 
L 162.079443 102.905801 
L 162.587224 103.107517 
L 163.095004 102.840243 
L 163.602785 102.860415 
L 164.618346 102.542712 
L 165.126126 102.815028 
L 165.633907 102.078765 
L 167.157248 102.240138 
L 167.665029 101.877049 
L 168.172809 101.816534 
L 168.68059 101.211386 
L 169.18837 101.090356 
L 169.696151 101.428231 
L 170.203931 101.186171 
L 170.711712 101.483702 
L 171.219492 100.782739 
L 172.235053 100.515465 
L 172.742834 100.051518 
L 173.250614 100.137248 
L 173.758395 100.046476 
L 174.266175 99.728773 
L 174.773956 99.935532 
L 175.281736 99.95066 
L 176.297297 99.406027 
L 176.805078 99.169011 
L 177.312858 99.345512 
L 177.820639 99.194225 
L 178.328419 99.239611 
L 178.8362 98.805922 
L 179.34398 98.770622 
L 179.851761 99.002595 
L 180.359541 98.836179 
L 180.867322 98.538648 
L 181.375102 98.578991 
L 181.882883 98.331889 
L 182.390663 98.291546 
L 182.898444 98.104959 
L 183.914005 98.266331 
L 184.421785 97.822556 
L 184.929566 97.883071 
L 185.437346 97.313223 
L 185.945127 97.454424 
L 186.452907 97.166979 
L 186.960688 97.46451 
L 187.468468 97.313223 
L 187.976249 96.914834 
L 188.484029 97.232537 
L 188.99181 96.758504 
L 190.007371 96.849276 
L 190.515152 97.020735 
L 191.022932 96.571917 
L 192.546274 96.319772 
L 193.054054 95.901211 
L 193.561835 95.926425 
L 194.069615 95.724709 
L 194.577396 96.218913 
L 195.592957 95.628894 
L 196.100737 95.981897 
L 196.608518 95.48265 
L 197.116298 95.462478 
L 197.624079 95.235548 
L 198.131859 95.336406 
L 198.63964 95.185119 
L 199.14742 94.746386 
L 199.655201 95.089304 
L 200.162981 95.119561 
L 200.670762 94.423641 
L 201.686323 94.635442 
L 202.194103 94.368169 
L 202.701884 94.640485 
L 203.209664 93.828578 
L 203.717445 94.327825 
L 204.225225 93.989951 
L 204.733006 94.015166 
L 205.240786 93.873964 
L 206.256347 94.050466 
L 206.764128 93.909265 
L 207.271908 93.561304 
L 207.779689 93.369674 
L 208.287469 93.541133 
L 208.79525 92.845213 
L 209.30303 93.041886 
L 209.810811 93.601648 
L 210.318591 93.036843 
L 210.826372 92.920856 
L 211.334152 92.941028 
L 211.841933 92.749397 
L 212.349713 92.714097 
L 212.857494 92.497252 
L 213.365274 92.850255 
L 213.873055 92.416566 
L 214.888616 92.426652 
L 215.396396 93.011628 
L 215.904177 92.003048 
L 216.411957 92.320751 
L 216.919738 92.154335 
L 217.427518 92.184592 
L 217.935299 91.645002 
L 218.443079 92.270322 
L 218.95086 91.609702 
L 219.45864 91.286956 
L 219.966421 91.407986 
L 220.474201 91.650045 
L 221.489762 91.670216 
L 221.997543 91.231484 
L 222.505324 91.019682 
L 223.013104 90.944039 
L 223.520885 90.520435 
L 224.028665 90.903695 
L 225.044226 90.833095 
L 226.059787 90.288462 
L 227.583129 90.384277 
L 228.090909 90.006059 
L 228.59869 90.07666 
L 229.10647 89.99093 
L 229.614251 90.081703 
L 230.122031 89.627841 
L 230.629812 89.577412 
L 231.137592 89.935458 
L 231.645373 89.663142 
L 232.153153 89.95563 
L 232.660934 89.279881 
L 233.168714 89.41604 
L 233.676495 89.027736 
L 234.184275 89.194152 
L 234.692056 88.886535 
L 235.707617 88.66969 
L 236.215397 89.027736 
L 236.723178 88.715076 
L 237.230958 88.684819 
L 238.246519 88.341902 
L 238.7543 88.589004 
L 239.26208 88.266258 
L 239.769861 88.523446 
L 240.277641 88.432674 
L 241.293202 87.585466 
L 241.800983 87.66111 
L 242.308763 87.898126 
L 242.816544 87.978813 
L 243.324324 87.424094 
L 243.832105 87.429136 
L 244.339885 87.731711 
L 244.847666 87.69641 
L 245.355446 87.066048 
L 245.863227 87.459394 
L 246.371007 87.560252 
L 246.878788 87.086219 
L 247.386568 86.945018 
L 247.894349 86.939975 
L 248.402129 86.738259 
L 248.90991 86.87946 
L 249.41769 86.597058 
L 249.925471 86.728173 
L 250.433251 86.324741 
L 250.941032 86.289441 
L 251.448812 86.632358 
L 251.956593 86.244055 
L 252.464373 86.208754 
L 252.972154 85.921309 
L 253.479934 86.117982 
L 253.987715 86.173454 
L 255.003276 85.739765 
L 255.511057 85.477534 
L 256.018837 85.886009 
L 256.526618 85.533006 
L 257.542179 85.59352 
L 258.049959 85.250603 
L 259.06552 85.180002 
L 259.573301 85.598563 
L 260.081081 85.008544 
L 261.096642 84.912729 
L 261.604423 84.70597 
L 262.112203 85.164874 
L 262.619984 84.716056 
L 263.127764 84.610155 
L 263.635545 84.368095 
L 264.143325 84.27228 
L 264.651106 84.418524 
L 265.158886 84.176465 
L 266.174447 84.347924 
L 266.682228 83.979792 
L 268.205569 84.095779 
L 268.71335 83.64696 
L 269.22113 83.828505 
L 271.252252 83.581403 
L 271.760033 83.717561 
L 272.267813 83.440202 
L 272.775594 83.309086 
L 273.283374 82.930868 
L 273.791155 82.855225 
L 274.298935 83.082156 
L 275.314496 82.779581 
L 275.822277 82.925826 
L 276.330057 82.83001 
L 276.837838 82.507265 
L 277.345618 82.784624 
L 277.853399 82.507265 
L 278.361179 82.391278 
L 278.86896 82.774539 
L 279.37674 82.250077 
L 279.884521 82.643423 
L 280.900082 81.992889 
L 281.407862 82.60308 
L 281.915643 81.967674 
L 282.423423 81.730658 
L 282.931204 82.093747 
L 283.946765 81.94246 
L 284.454545 81.43817 
L 285.470106 81.680229 
L 286.993448 81.513813 
L 287.501229 81.296968 
L 288.009009 80.943965 
L 288.51679 81.075081 
L 289.532351 80.954051 
L 290.040131 81.014566 
L 291.055692 80.374118 
L 291.563473 80.616177 
L 292.071253 80.596005 
L 292.579034 80.434632 
L 293.086814 80.822936 
L 294.102375 80.293431 
L 294.610156 80.540533 
L 295.117936 80.419504 
L 295.625717 79.945471 
L 296.133497 80.101801 
L 296.641278 79.910171 
L 297.149058 79.486567 
L 297.656839 80.086672 
L 298.164619 79.602554 
L 298.6724 79.678197 
L 300.703522 79.345366 
L 301.211302 79.451267 
L 301.719083 79.254593 
L 302.226863 79.305022 
L 302.734644 79.05792 
L 303.750205 79.274765 
L 304.257985 79.052877 
L 304.765766 78.699874 
L 305.273546 78.704917 
L 305.781327 78.593973 
L 306.289107 78.810818 
L 306.796888 78.417472 
L 307.304668 78.427558 
L 307.812449 78.881419 
L 308.320229 78.291399 
L 308.82801 78.124984 
L 309.33579 78.432601 
L 309.843571 78.599016 
L 310.351351 78.412429 
L 310.859132 78.619188 
L 311.366912 78.457815 
L 311.874693 78.452772 
L 312.382473 78.296442 
L 312.890254 77.867796 
L 313.398034 77.681208 
L 313.905815 78.089683 
L 314.413595 77.837538 
L 314.921376 77.923267 
L 315.429156 77.731637 
L 315.936937 77.66608 
L 316.444717 77.89301 
L 316.952498 77.418977 
L 317.460278 77.403849 
L 317.968059 77.66608 
L 318.475839 77.408892 
L 318.98362 77.282819 
L 319.4914 77.383677 
L 319.999181 76.970159 
L 321.014742 77.318119 
L 321.522523 77.23239 
L 322.030303 77.318119 
L 322.538084 76.667585 
L 323.045864 76.864258 
L 323.553645 76.894516 
L 324.061425 76.748271 
L 324.569206 76.975202 
L 325.076986 76.45074 
L 325.584767 76.823915 
L 326.600328 76.566727 
L 327.108108 76.586899 
L 329.13923 76.143123 
L 329.647011 76.470912 
L 330.662572 75.98175 
L 331.170352 76.153209 
L 331.678133 75.830463 
L 333.201474 76.173381 
L 333.709255 75.75482 
L 334.217035 75.941407 
L 334.724816 76.38014 
L 335.232596 75.739691 
L 335.740377 75.729605 
L 336.248157 75.517804 
L 336.755938 75.724563 
L 337.263718 75.543018 
L 337.771499 75.104286 
L 338.279279 75.59849 
L 338.78706 75.28583 
L 339.29484 75.56319 
L 339.802621 75.190015 
L 340.310401 75.653962 
L 341.833743 74.81684 
L 342.341523 75.205144 
L 342.849304 75.200101 
L 343.357084 75.048814 
L 344.880426 74.988299 
L 345.388206 74.635296 
L 345.895987 74.700854 
L 346.403767 74.599996 
L 346.911548 74.983256 
L 347.419328 74.418451 
L 347.927109 74.484009 
L 348.434889 74.292379 
L 348.94267 74.655467 
L 349.45045 74.373065 
L 349.958231 74.579824 
L 350.466011 74.322636 
L 351.481572 74.342808 
L 351.989353 74.146134 
L 352.497133 73.697316 
L 353.004914 74.015019 
L 353.512695 73.823389 
L 354.020475 74.065448 
L 354.528256 74.110834 
L 355.036036 73.84356 
L 355.543817 73.96459 
L 356.051597 73.833475 
L 358.082719 73.873818 
L 358.5905 73.672102 
L 361.129402 73.762874 
L 362.144963 73.142597 
L 363.668305 73.056868 
L 364.176085 73.208155 
L 364.683866 73.621673 
L 365.699427 72.814808 
L 366.714988 73.324141 
L 367.222768 72.900538 
L 367.730549 73.127468 
L 368.74611 72.996353 
L 369.25389 72.950967 
L 370.269451 72.52232 
L 370.777232 72.023073 
L 371.285012 72.234875 
L 371.792793 71.952472 
L 372.300573 72.01803 
L 373.316134 71.952472 
L 373.823915 71.463311 
L 374.331695 71.604512 
L 374.839476 71.347324 
L 375.347256 71.39271 
L 375.855037 71.281766 
L 376.362817 71.32211 
L 376.870598 71.039707 
L 377.886159 71.206123 
L 378.393939 71.317067 
L 378.90172 70.752262 
L 379.4095 71.069965 
L 380.425061 70.797648 
L 380.932842 70.85312 
L 381.948403 70.727047 
L 382.963964 70.787562 
L 383.471744 70.595932 
L 383.979525 70.691747 
L 384.995086 70.706876 
L 385.502867 70.439602 
L 387.026208 70.394216 
L 389.05733 70.363958 
L 389.565111 70.142071 
L 390.072891 70.298401 
L 391.088452 69.91514 
L 391.596233 70.157199 
L 392.611794 70.031127 
L 393.119574 70.308486 
L 393.627355 69.985741 
L 394.642916 69.84454 
L 395.150696 70.03617 
L 395.658477 69.920183 
L 396.674038 70.000869 
L 397.181818 69.657952 
L 397.689599 69.713424 
L 398.197379 70.000869 
L 398.70516 69.728553 
L 399.720721 69.703338 
L 400.228501 69.794111 
L 401.751843 69.572223 
L 402.259623 69.309992 
L 402.767404 69.642824 
L 403.275184 69.481451 
L 403.782965 69.657952 
L 404.798526 69.44615 
L 405.306306 69.471365 
L 405.814087 69.194005 
L 406.321867 69.541965 
L 406.829648 69.148619 
L 407.337428 69.380593 
L 407.845209 69.390678 
L 408.86077 69.168791 
L 409.36855 69.340249 
L 409.876331 69.183919 
L 410.384111 69.350335 
L 410.891892 68.956989 
L 411.907453 69.204091 
L 412.415233 69.320078 
L 413.430794 69.072976 
L 413.938575 69.320078 
L 414.954136 69.108276 
L 417.493038 68.956989 
L 418.000819 68.820831 
L 419.524161 69.052804 
L 420.031941 68.977161 
L 421.047502 68.664501 
L 421.555283 68.967075 
L 422.063063 68.78553 
L 422.570844 68.775444 
L 423.078624 69.012461 
L 423.586405 68.967075 
L 424.094185 68.770402 
L 424.601966 68.886388 
L 425.109746 68.805702 
L 426.125307 68.805702 
L 426.633088 68.639286 
L 427.140868 68.896474 
L 427.648649 68.548514 
L 428.66421 68.47287 
L 430.187551 68.578771 
L 430.695332 68.780487 
L 432.726454 68.477913 
L 433.234234 68.881345 
L 434.249795 68.341755 
L 435.773137 68.523299 
L 436.280917 68.321583 
L 437.296478 68.518257 
L 437.804259 68.321583 
L 438.312039 68.361927 
L 440.343161 68.029095 
L 440.850942 68.296369 
L 442.374283 68.256026 
L 442.882064 68.366969 
L 443.389844 68.286283 
L 443.897625 68.40227 
L 444.405405 68.276197 
L 444.913186 68.412356 
L 445.928747 68.331669 
L 446.436527 68.145082 
L 446.944308 68.493042 
L 448.467649 68.08961 
L 448.97543 68.276197 
L 449.48321 68.084567 
L 450.498771 68.321583 
L 451.006552 68.230811 
L 451.514333 68.356884 
L 452.529894 68.160211 
L 453.545455 68.170296 
L 454.053235 68.003881 
L 454.561016 68.250983 
L 455.576577 67.988752 
L 456.084357 68.129953 
L 456.592138 68.084567 
L 457.099918 67.882851 
L 458.115479 68.094653 
L 459.13104 67.953452 
L 459.638821 68.084567 
L 460.146601 67.867722 
L 461.162162 67.983709 
L 461.669943 67.787036 
L 462.177723 67.943366 
L 462.685504 67.938323 
L 463.193284 67.81225 
L 463.701065 67.928237 
L 464.716626 67.681135 
L 465.224406 67.696264 
L 465.732187 67.93328 
L 467.255528 67.716435 
L 467.763309 67.887894 
L 468.77887 68.003881 
L 469.28665 67.852594 
L 471.317772 67.998838 
L 471.825553 67.887894 
L 472.333333 67.93328 
L 472.841114 67.771907 
L 474.872236 67.842508 
L 475.380016 68.134996 
L 478.426699 67.645835 
L 478.93448 67.827379 
L 479.44226 67.691221 
L 479.950041 67.671049 
L 480.457821 67.81225 
L 480.965602 67.580277 
L 482.996724 67.77695 
L 484.520066 67.550019 
L 485.027846 67.625663 
L 485.535627 67.580277 
L 486.043407 67.746693 
L 486.551188 67.615577 
L 487.058968 67.751736 
L 487.566749 67.640792 
L 488.074529 67.686178 
L 489.09009 67.534891 
L 489.597871 67.711392 
L 490.613432 67.822336 
L 491.121212 67.686178 
L 492.136773 67.630706 
L 492.644554 67.781993 
L 493.152334 67.605491 
L 493.660115 67.580277 
L 494.167895 67.42899 
L 494.675676 67.595406 
L 497.722359 67.514719 
L 498.73792 67.817293 
L 499.2457 67.676092 
L 500.261261 67.671049 
L 501.276822 67.514719 
L 501.784603 67.686178 
L 503.307944 67.398732 
L 503.815725 67.560105 
L 504.323505 67.449161 
L 505.339066 67.555062 
L 507.877969 67.605491 
L 508.385749 67.318046 
L 509.40131 67.454204 
L 509.909091 67.479419 
L 510.416871 67.363432 
L 510.924652 67.504633 
L 511.940213 67.383604 
L 512.447993 67.575234 
L 513.463554 67.348303 
L 513.971335 67.333175 
L 514.479115 67.519762 
L 515.494676 67.398732 
L 516.510238 67.625663 
L 517.018018 67.706349 
L 517.525799 67.509676 
L 518.033579 67.610534 
L 518.54136 67.398732 
L 519.04914 67.323089 
L 519.556921 67.534891 
L 520.572482 67.474376 
L 521.080262 67.39369 
L 521.588043 67.645835 
L 522.095823 67.479419 
L 524.634726 67.519762 
L 525.650287 67.358389 
L 526.158067 67.318046 
L 527.681409 67.524805 
L 528.189189 67.252488 
L 529.20475 67.207102 
L 530.220311 67.338218 
L 530.728092 67.257531 
L 531.235872 67.297874 
L 531.743653 67.171802 
L 532.251433 67.277703 
L 533.774775 67.202059 
L 534.282555 67.30796 
L 535.298116 67.232317 
L 536.313677 67.343261 
L 536.821458 67.207102 
L 537.837019 67.287789 
L 540.883702 67.514719 
L 541.899263 67.111287 
L 542.407043 67.262574 
L 542.914824 67.287789 
L 543.422604 67.121373 
L 544.945946 67.318046 
L 545.453726 67.242402 
L 546.469287 67.418904 
L 549.515971 67.156673 
L 550.531532 67.121373 
L 551.039312 67.313003 
L 552.054873 67.186931 
L 556.624898 67.091115 
L 558.148239 67.020515 
L 560.179361 67.070944 
L 560.687142 67.313003 
L 561.702703 67.323089 
L 562.718264 67.383604 
L 564.241605 67.222231 
L 567.796069 67.035644 
L 568.81163 67.30796 
L 570.334971 67.091115 
L 570.842752 67.176845 
L 571.350532 67.096158 
L 571.858313 67.197016 
L 572.873874 67.171802 
L 575.920557 67.161716 
L 577.443898 67.23736 
L 577.951679 67.343261 
L 578.459459 67.08103 
L 578.96724 67.207102 
L 579.47502 67.15163 
L 580.490581 67.292831 
L 582.521704 67.11633 
L 583.029484 67.353346 
L 584.045045 67.338218 
L 585.060606 67.318046 
L 585.568387 67.227274 
L 587.091728 67.297874 
L 587.599509 67.191973 
L 589.12285 67.328132 
L 590.646192 67.267617 
L 595.723997 67.11633 
L 606.895168 67.055815 
L 607.910729 67.11633 
L 608.418509 67.136502 
L 608.92629 67.010429 
L 609.941851 67.040686 
L 612.480753 66.985215 
L 613.496314 66.985215 
L 614.511876 67.040686 
L 615.527437 67.020515 
L 622.128583 67.005386 
L 622.636364 67.075987 
L 622.636364 67.075987 
" clip-path="url(#p945bf1c5cb)" style="fill: none; stroke: #1f77b4; stroke-width: 1.5; stroke-linecap: square"/>
   </g>
   <g id="line2d_14">
    <path d="M 115.363636 242.069706 
L 115.871417 185.579125 
L 116.379197 172.810499 
L 116.886978 167.303651 
L 117.394758 165.155375 
L 117.902539 165.306662 
L 118.410319 158.529002 
L 118.9181 155.805836 
L 119.42588 153.899619 
L 120.441441 149.149206 
L 121.457002 147.031187 
L 122.472563 141.584854 
L 122.980344 140.707389 
L 123.488124 137.711906 
L 123.995905 137.137015 
L 124.503686 136.13852 
L 125.519247 132.689176 
L 126.027027 133.92973 
L 126.534808 133.445611 
L 127.042588 130.087039 
L 127.550369 129.784465 
L 128.058149 130.450128 
L 129.07371 125.760229 
L 129.581491 126.698209 
L 130.089271 127.333615 
L 130.597052 123.521181 
L 131.104832 124.368389 
L 131.612613 124.065815 
L 132.120393 121.31239 
L 132.628174 122.764746 
L 133.135954 120.979559 
L 133.643735 120.555955 
L 134.151515 118.98257 
L 134.659296 119.133857 
L 135.674857 118.195877 
L 136.182637 117.34867 
L 136.690418 117.34867 
L 137.198198 120.011322 
L 137.705979 116.108116 
L 138.213759 115.230651 
L 138.72154 116.229146 
L 139.737101 114.2019 
L 140.244881 114.383444 
L 140.752662 113.717781 
L 141.260442 113.38495 
L 141.768223 113.596751 
L 142.276003 113.082376 
L 142.783784 112.204911 
L 143.291564 112.689029 
L 143.799345 112.749544 
L 144.307125 111.418218 
L 144.814906 111.145901 
L 145.322686 111.387961 
L 146.338247 111.055129 
L 146.846028 112.114138 
L 147.353808 109.542259 
L 147.861589 110.177664 
L 148.369369 108.937111 
L 148.87715 109.754061 
L 149.38493 109.269942 
L 149.892711 108.452992 
L 150.400491 108.210933 
L 150.908272 108.574022 
L 151.416052 108.271448 
L 151.923833 107.636042 
L 152.431613 107.303211 
L 152.939394 108.301705 
L 153.447174 108.180675 
L 153.954955 107.54527 
L 154.462735 109.027883 
L 154.970516 107.061151 
L 155.478296 106.546775 
L 155.986077 108.029388 
L 157.001638 106.304716 
L 157.509419 106.183687 
L 158.017199 106.72832 
L 158.52498 106.092914 
L 159.03276 105.215449 
L 160.048321 105.487766 
L 160.556102 105.336479 
L 161.063882 104.822103 
L 161.571663 105.669311 
L 162.079443 104.640559 
L 162.587224 104.337985 
L 163.095004 104.27747 
L 164.110565 106.002142 
L 164.618346 104.459014 
L 165.126126 103.732836 
L 165.633907 103.521035 
L 166.141687 103.672322 
L 166.649468 103.46052 
L 167.157248 104.065668 
L 167.665029 102.946144 
L 168.172809 103.430262 
L 168.68059 103.430262 
L 169.18837 102.734342 
L 169.696151 103.006659 
L 170.711712 102.159451 
L 171.219492 103.369748 
L 171.727273 101.917392 
L 172.235053 102.401511 
L 172.742834 102.462025 
L 173.250614 103.067173 
L 173.758395 102.340996 
L 174.266175 102.038422 
L 174.773956 102.64357 
L 175.281736 102.613312 
L 175.789517 101.977907 
L 176.297297 101.584561 
L 176.805078 102.885629 
L 177.312858 101.281986 
L 177.820639 101.463531 
L 178.328419 101.039927 
L 178.8362 101.735848 
L 179.34398 103.400005 
L 179.851761 103.33949 
L 180.359541 101.524046 
L 180.867322 101.433273 
L 181.375102 101.191214 
L 181.882883 100.586066 
L 182.390663 101.312244 
L 182.898444 100.374264 
L 183.406224 101.100442 
L 183.914005 100.555809 
L 184.421785 101.312244 
L 184.929566 100.616323 
L 185.437346 100.162462 
L 185.945127 100.041433 
L 186.452907 100.132205 
L 186.960688 100.101948 
L 187.468468 99.859888 
L 187.976249 100.88864 
L 188.484029 99.859888 
L 188.99181 100.646581 
L 189.49959 99.829631 
L 190.007371 99.829631 
L 191.022932 100.344007 
L 191.530713 99.890146 
L 192.038493 99.194225 
L 192.546274 99.617829 
L 193.054054 99.103453 
L 193.561835 99.163968 
L 194.069615 99.103453 
L 194.577396 99.587572 
L 195.085176 100.313749 
L 195.592957 99.769116 
L 196.100737 99.587572 
L 197.116298 98.740364 
L 197.624079 99.37577 
L 198.63964 98.710107 
L 199.14742 98.770622 
L 199.655201 98.710107 
L 200.162981 99.224483 
L 200.670762 99.042938 
L 201.686323 98.347018 
L 202.194103 98.649592 
L 202.701884 98.014186 
L 203.209664 98.498305 
L 203.717445 98.195731 
L 204.225225 98.377275 
L 204.733006 99.224483 
L 205.240786 98.377275 
L 205.748567 97.802385 
L 206.256347 98.468047 
L 206.764128 98.589077 
L 207.271908 98.589077 
L 207.779689 98.225988 
L 208.287469 98.195731 
L 208.79525 97.560325 
L 209.30303 97.257751 
L 209.810811 97.378781 
L 210.318591 98.407533 
L 210.826372 97.772127 
L 211.334152 97.49981 
L 211.841933 98.679849 
L 212.857494 97.560325 
L 213.365274 98.135216 
L 213.873055 99.163968 
L 214.380835 97.227494 
L 214.888616 98.256246 
L 215.396396 97.257751 
L 215.904177 97.832642 
L 216.411957 98.014186 
L 216.919738 97.74187 
L 217.427518 98.407533 
L 218.443079 97.681355 
L 218.95086 97.530068 
L 219.45864 98.407533 
L 219.966421 96.894662 
L 220.474201 97.378781 
L 220.981982 97.045949 
L 221.489762 96.561831 
L 221.997543 97.197236 
L 222.505324 96.985434 
L 223.013104 97.772127 
L 223.520885 96.834147 
L 224.028665 97.49981 
L 224.536446 96.501316 
L 225.044226 97.197236 
L 225.552007 96.501316 
L 226.059787 97.530068 
L 226.567568 96.894662 
L 227.075348 97.015692 
L 227.583129 96.471059 
L 228.090909 96.864405 
L 228.59869 96.592088 
L 229.10647 97.257751 
L 229.614251 96.773633 
L 230.122031 96.713118 
L 230.629812 96.471059 
L 231.137592 96.834147 
L 231.645373 96.440801 
L 232.153153 97.318266 
L 232.660934 96.047455 
L 233.168714 96.319772 
L 233.676495 96.864405 
L 234.184275 97.136722 
L 234.692056 96.834147 
L 235.199836 95.896168 
L 236.215397 96.047455 
L 236.723178 97.076207 
L 237.230958 96.047455 
L 237.738739 96.592088 
L 238.246519 96.894662 
L 238.7543 96.622346 
L 239.769861 96.350029 
L 240.277641 95.835653 
L 240.785422 96.168484 
L 241.800983 96.319772 
L 242.308763 96.228999 
L 242.816544 95.835653 
L 243.324324 96.380286 
L 243.832105 96.168484 
L 244.339885 95.351534 
L 244.847666 96.077712 
L 245.355446 95.805396 
L 246.371007 95.714623 
L 246.878788 95.805396 
L 247.386568 96.501316 
L 247.894349 95.86591 
L 248.402129 95.533079 
L 248.90991 95.835653 
L 249.925471 95.593594 
L 250.433251 95.260762 
L 250.941032 96.198742 
L 251.448812 96.228999 
L 251.956593 95.079218 
L 252.464373 96.380286 
L 252.972154 95.714623 
L 253.479934 95.412049 
L 254.495495 96.259257 
L 255.003276 94.927931 
L 255.511057 95.98694 
L 256.018837 96.168484 
L 256.526618 95.16999 
L 257.034398 95.412049 
L 257.542179 94.867416 
L 258.55774 95.714623 
L 259.06552 94.655614 
L 259.573301 95.230505 
L 260.588862 95.684366 
L 261.096642 94.927931 
L 261.604423 95.412049 
L 262.619984 94.988446 
L 263.127764 94.625357 
L 263.635545 95.200247 
L 264.143325 94.958188 
L 264.651106 95.260762 
L 265.158886 94.746386 
L 265.666667 94.655614 
L 266.174447 95.472564 
L 266.682228 95.321277 
L 267.190008 95.714623 
L 267.697789 95.654109 
L 268.205569 96.138227 
L 268.71335 95.109475 
L 269.22113 95.351534 
L 269.728911 94.413555 
L 270.236691 95.442307 
L 270.744472 94.988446 
L 271.252252 95.351534 
L 271.760033 95.926425 
L 272.267813 94.716129 
L 272.775594 94.534584 
L 273.283374 95.442307 
L 274.298935 94.534584 
L 274.806716 94.504327 
L 275.314496 95.16999 
L 275.822277 95.533079 
L 276.330057 95.29102 
L 276.837838 94.23201 
L 277.345618 94.564842 
L 277.853399 95.563336 
L 278.361179 93.838664 
L 278.86896 95.139733 
L 279.37674 95.654109 
L 279.884521 94.595099 
L 280.392301 95.16999 
L 281.407862 94.383297 
L 281.915643 95.018703 
L 282.423423 94.625357 
L 283.946765 95.139733 
L 284.454545 94.201753 
L 285.977887 95.381792 
L 286.485667 94.837159 
L 286.993448 94.595099 
L 288.009009 94.988446 
L 288.51679 95.654109 
L 289.02457 94.35304 
L 289.532351 94.35304 
L 290.040131 94.927931 
L 290.547912 94.443812 
L 291.055692 94.141238 
L 291.563473 94.504327 
L 292.071253 94.685871 
L 292.579034 94.292525 
L 293.086814 94.776644 
L 293.594595 94.292525 
L 294.102375 95.714623 
L 294.610156 94.716129 
L 295.117936 94.47407 
L 295.625717 94.655614 
L 296.133497 95.16999 
L 296.641278 95.079218 
L 297.149058 94.625357 
L 297.656839 94.534584 
L 298.164619 94.564842 
L 298.6724 94.443812 
L 299.18018 94.443812 
L 299.687961 94.776644 
L 300.195741 94.050466 
L 300.703522 95.139733 
L 302.226863 94.413555 
L 302.734644 94.625357 
L 303.242424 95.381792 
L 304.257985 94.504327 
L 304.765766 94.746386 
L 306.289107 94.201753 
L 306.796888 94.504327 
L 307.304668 95.442307 
L 307.812449 94.897673 
L 308.320229 94.110981 
L 308.82801 94.534584 
L 309.33579 93.989951 
L 309.843571 95.018703 
L 310.351351 94.23201 
L 310.859132 94.746386 
L 311.366912 94.292525 
L 311.874693 94.685871 
L 312.382473 94.927931 
L 312.890254 94.35304 
L 313.398034 94.292525 
L 313.905815 95.260762 
L 314.413595 94.080723 
L 315.429156 94.806901 
L 315.936937 94.564842 
L 316.444717 94.050466 
L 316.952498 94.23201 
L 317.968059 94.020209 
L 318.475839 94.625357 
L 318.98362 94.47407 
L 319.4914 94.050466 
L 319.999181 94.564842 
L 320.506962 94.201753 
L 321.522523 94.655614 
L 322.030303 94.595099 
L 322.538084 94.867416 
L 323.045864 94.020209 
L 323.553645 94.746386 
L 324.061425 94.141238 
L 324.569206 95.381792 
L 325.076986 95.623851 
L 325.584767 94.23201 
L 326.092547 94.716129 
L 326.600328 94.23201 
L 327.108108 94.020209 
L 328.123669 94.564842 
L 329.13923 94.080723 
L 329.647011 94.141238 
L 330.154791 94.927931 
L 330.662572 93.929436 
L 331.678133 94.443812 
L 332.185913 94.201753 
L 332.693694 94.141238 
L 333.201474 94.958188 
L 333.709255 94.504327 
L 334.217035 94.655614 
L 334.724816 94.020209 
L 335.232596 94.201753 
L 335.740377 93.989951 
L 336.248157 94.35304 
L 336.755938 93.596605 
L 337.263718 94.201753 
L 338.279279 93.899179 
L 338.78706 94.383297 
L 339.29484 94.23201 
L 339.802621 93.929436 
L 340.310401 94.443812 
L 340.818182 94.35304 
L 341.833743 93.989951 
L 342.341523 95.321277 
L 342.849304 94.292525 
L 343.357084 93.989951 
L 343.864865 94.595099 
L 344.372645 94.262268 
L 345.895987 94.564842 
L 346.403767 94.141238 
L 347.419328 95.04896 
L 348.434889 94.080723 
L 348.94267 94.867416 
L 349.45045 93.959694 
L 349.958231 94.322783 
L 350.466011 94.050466 
L 350.973792 94.383297 
L 351.481572 94.47407 
L 351.989353 94.746386 
L 352.497133 94.171496 
L 353.004914 94.413555 
L 353.512695 94.47407 
L 354.020475 94.080723 
L 354.528256 93.868921 
L 355.036036 94.322783 
L 355.543817 94.201753 
L 356.051597 94.504327 
L 356.559378 94.171496 
L 357.067158 94.020209 
L 357.574939 94.201753 
L 358.082719 94.050466 
L 358.5905 94.080723 
L 359.09828 94.23201 
L 359.606061 94.595099 
L 360.621622 93.838664 
L 361.129402 94.080723 
L 362.652744 93.778149 
L 363.160524 93.929436 
L 363.668305 93.717634 
L 364.176085 94.685871 
L 364.683866 93.868921 
L 365.191646 94.504327 
L 365.699427 93.717634 
L 366.207207 93.475575 
L 366.714988 93.808407 
L 367.222768 93.596605 
L 368.238329 94.262268 
L 368.74611 93.65712 
L 369.25389 93.53609 
L 369.761671 94.23201 
L 370.269451 93.959694 
L 370.777232 94.141238 
L 371.285012 93.899179 
L 371.792793 94.35304 
L 372.300573 94.413555 
L 372.808354 94.35304 
L 373.823915 93.778149 
L 374.331695 93.838664 
L 374.839476 94.262268 
L 375.347256 94.262268 
L 375.855037 93.626862 
L 376.362817 93.566347 
L 376.870598 93.989951 
L 377.378378 93.838664 
L 377.886159 94.776644 
L 378.393939 93.959694 
L 378.90172 94.110981 
L 379.4095 93.899179 
L 379.917281 93.838664 
L 380.425061 94.35304 
L 380.932842 94.080723 
L 381.440622 94.262268 
L 381.948403 93.65712 
L 382.456183 94.201753 
L 382.963964 93.808407 
L 383.471744 93.899179 
L 383.979525 94.171496 
L 384.487305 93.505833 
L 384.995086 94.020209 
L 385.502867 94.141238 
L 386.518428 93.717634 
L 387.026208 93.989951 
L 387.533989 93.808407 
L 388.041769 94.806901 
L 389.05733 94.262268 
L 389.565111 94.625357 
L 390.072891 93.808407 
L 390.580672 93.626862 
L 391.088452 94.504327 
L 391.596233 94.262268 
L 392.104013 93.808407 
L 392.611794 94.171496 
L 393.119574 93.899179 
L 393.627355 93.959694 
L 394.135135 93.687377 
L 394.642916 93.929436 
L 395.150696 94.47407 
L 395.658477 93.687377 
L 396.166257 94.050466 
L 396.674038 94.110981 
L 397.181818 93.959694 
L 397.689599 94.383297 
L 398.197379 93.747892 
L 398.70516 94.110981 
L 399.21294 93.687377 
L 399.720721 94.716129 
L 400.228501 93.747892 
L 400.736282 93.596605 
L 401.244062 94.322783 
L 402.259623 93.838664 
L 402.767404 94.564842 
L 403.275184 93.687377 
L 403.782965 94.110981 
L 404.290745 93.687377 
L 404.798526 94.322783 
L 405.306306 94.050466 
L 406.321867 94.383297 
L 406.829648 94.23201 
L 407.337428 95.018703 
L 407.845209 94.080723 
L 408.352989 94.383297 
L 408.86077 94.897673 
L 409.36855 94.746386 
L 409.876331 93.959694 
L 410.384111 94.988446 
L 410.891892 94.322783 
L 411.399672 93.868921 
L 411.907453 94.171496 
L 412.415233 93.687377 
L 412.923014 94.595099 
L 413.430794 93.929436 
L 413.938575 94.020209 
L 414.446355 94.35304 
L 414.954136 94.534584 
L 415.461916 94.262268 
L 415.969697 94.958188 
L 416.477477 94.625357 
L 416.985258 94.080723 
L 418.5086 93.808407 
L 419.524161 93.989951 
L 420.539722 94.897673 
L 421.047502 94.262268 
L 421.555283 94.201753 
L 422.063063 94.020209 
L 422.570844 93.959694 
L 423.078624 94.322783 
L 423.586405 94.020209 
L 424.094185 94.625357 
L 424.601966 93.959694 
L 425.109746 94.201753 
L 425.617527 93.959694 
L 426.125307 94.292525 
L 426.633088 93.808407 
L 427.140868 94.35304 
L 427.648649 93.868921 
L 428.156429 93.778149 
L 428.66421 94.23201 
L 429.17199 94.35304 
L 429.679771 93.65712 
L 430.187551 94.685871 
L 430.695332 93.989951 
L 431.203112 94.504327 
L 431.710893 93.868921 
L 432.218673 94.201753 
L 433.234234 94.171496 
L 433.742015 94.322783 
L 434.249795 93.838664 
L 434.757576 94.958188 
L 435.265356 94.171496 
L 436.280917 93.778149 
L 436.788698 94.020209 
L 437.296478 94.110981 
L 437.804259 94.413555 
L 438.312039 94.201753 
L 438.81982 93.505833 
L 439.3276 93.566347 
L 439.835381 94.23201 
L 440.343161 93.808407 
L 440.850942 93.868921 
L 441.358722 93.626862 
L 441.866503 93.808407 
L 442.374283 93.596605 
L 442.882064 93.929436 
L 443.389844 93.868921 
L 444.405405 93.324288 
L 444.913186 93.233516 
L 445.420966 93.929436 
L 446.436527 93.838664 
L 446.944308 94.020209 
L 447.452088 93.41506 
L 447.959869 93.717634 
L 448.467649 93.838664 
L 448.97543 94.322783 
L 449.48321 94.262268 
L 449.990991 94.080723 
L 450.498771 94.35304 
L 451.006552 94.806901 
L 451.514333 94.322783 
L 452.022113 94.141238 
L 452.529894 94.685871 
L 453.037674 94.171496 
L 454.053235 93.959694 
L 454.561016 94.110981 
L 455.068796 93.778149 
L 455.576577 94.262268 
L 456.084357 93.65712 
L 456.592138 93.41506 
L 457.099918 93.747892 
L 457.607699 93.687377 
L 458.115479 93.929436 
L 458.62326 94.504327 
L 459.13104 93.566347 
L 459.638821 94.110981 
L 460.146601 94.292525 
L 460.654382 93.899179 
L 461.162162 94.171496 
L 461.669943 94.171496 
L 462.177723 93.989951 
L 462.685504 93.929436 
L 463.193284 93.717634 
L 463.701065 94.201753 
L 464.208845 93.747892 
L 464.716626 93.778149 
L 465.224406 93.566347 
L 465.732187 93.747892 
L 466.239967 93.324288 
L 467.255528 94.201753 
L 469.28665 93.989951 
L 469.794431 93.566347 
L 470.302211 94.47407 
L 470.809992 94.262268 
L 471.317772 94.201753 
L 471.825553 94.47407 
L 472.333333 93.959694 
L 472.841114 94.050466 
L 473.348894 94.020209 
L 473.856675 93.868921 
L 474.364455 94.050466 
L 475.380016 93.838664 
L 476.395577 94.110981 
L 476.903358 94.080723 
L 477.411138 93.838664 
L 477.918919 93.929436 
L 478.426699 94.201753 
L 478.93448 94.171496 
L 479.44226 93.445318 
L 479.950041 93.868921 
L 480.457821 93.566347 
L 480.965602 94.141238 
L 481.473382 93.747892 
L 481.981163 93.687377 
L 482.488943 94.47407 
L 482.996724 94.35304 
L 483.504505 93.808407 
L 484.012285 93.959694 
L 484.520066 94.383297 
L 485.535627 93.475575 
L 486.043407 94.35304 
L 486.551188 93.626862 
L 487.058968 94.110981 
L 487.566749 94.201753 
L 488.074529 93.899179 
L 488.58231 93.445318 
L 489.09009 94.141238 
L 489.597871 93.989951 
L 490.105651 94.020209 
L 491.628993 93.778149 
L 492.644554 94.383297 
L 493.152334 93.505833 
L 493.660115 93.294031 
L 494.167895 93.65712 
L 494.675676 93.838664 
L 495.183456 93.868921 
L 495.691237 93.324288 
L 496.706798 93.838664 
L 497.214578 93.445318 
L 497.722359 93.384803 
L 498.230139 93.687377 
L 498.73792 94.262268 
L 499.2457 93.838664 
L 499.753481 93.989951 
L 500.261261 93.596605 
L 500.769042 93.838664 
L 501.276822 93.354546 
L 501.784603 93.65712 
L 502.292383 94.35304 
L 502.800164 93.778149 
L 503.307944 93.65712 
L 503.815725 93.778149 
L 504.323505 94.020209 
L 504.831286 93.233516 
L 505.339066 94.020209 
L 506.354627 93.53609 
L 506.862408 93.626862 
L 507.370188 94.171496 
L 507.877969 93.445318 
L 508.89353 94.47407 
L 509.909091 93.778149 
L 510.416871 93.838664 
L 510.924652 93.626862 
L 511.432432 93.747892 
L 511.940213 93.65712 
L 512.955774 93.808407 
L 513.463554 94.050466 
L 514.479115 93.778149 
L 514.986896 93.808407 
L 515.494676 93.596605 
L 517.018018 94.322783 
L 517.525799 93.899179 
L 518.033579 94.080723 
L 518.54136 94.413555 
L 519.04914 93.505833 
L 519.556921 94.655614 
L 520.064701 93.778149 
L 520.572482 93.596605 
L 521.080262 93.717634 
L 522.095823 93.41506 
L 522.603604 93.53609 
L 523.111384 93.868921 
L 523.619165 94.655614 
L 524.126945 93.868921 
L 524.634726 93.778149 
L 525.142506 93.233516 
L 525.650287 93.082229 
L 526.158067 93.082229 
L 526.665848 93.596605 
L 527.173628 94.35304 
L 528.69697 93.868921 
L 529.20475 93.989951 
L 529.712531 94.23201 
L 530.220311 93.65712 
L 530.728092 93.475575 
L 531.743653 93.778149 
L 532.251433 94.35304 
L 532.759214 94.47407 
L 533.774775 93.747892 
L 534.282555 93.929436 
L 534.790336 94.292525 
L 535.298116 93.626862 
L 536.313677 94.110981 
L 536.821458 93.475575 
L 537.329238 93.868921 
L 537.837019 93.717634 
L 538.85258 93.778149 
L 539.36036 93.626862 
L 539.868141 94.443812 
L 540.883702 93.53609 
L 541.391482 93.445318 
L 541.899263 93.868921 
L 542.914824 93.112486 
L 543.422604 93.687377 
L 544.438165 93.626862 
L 544.945946 94.080723 
L 546.977068 93.747892 
L 547.484848 93.263773 
L 548.50041 93.899179 
L 549.515971 93.354546 
L 550.023751 94.050466 
L 550.531532 93.717634 
L 551.039312 93.989951 
L 552.054873 93.959694 
L 552.562654 94.322783 
L 553.070434 93.929436 
L 553.578215 93.778149 
L 554.085995 93.989951 
L 554.593776 93.808407 
L 555.101556 94.080723 
L 555.609337 93.989951 
L 556.117117 93.445318 
L 556.624898 94.050466 
L 557.132678 93.899179 
L 557.640459 93.475575 
L 558.148239 93.505833 
L 559.1638 93.868921 
L 559.671581 93.868921 
L 560.179361 93.566347 
L 560.687142 94.262268 
L 561.702703 93.53609 
L 562.210483 93.808407 
L 562.718264 94.655614 
L 563.733825 93.838664 
L 564.241605 94.504327 
L 565.257166 94.050466 
L 566.780508 93.687377 
L 567.288288 94.110981 
L 567.796069 93.778149 
L 568.303849 94.080723 
L 568.81163 93.717634 
L 569.31941 93.747892 
L 570.334971 93.989951 
L 570.842752 93.475575 
L 571.350532 93.989951 
L 571.858313 93.747892 
L 572.366093 93.717634 
L 572.873874 94.050466 
L 573.889435 93.324288 
L 574.397215 93.899179 
L 574.904996 93.566347 
L 575.412776 93.868921 
L 575.920557 93.778149 
L 576.428337 94.110981 
L 576.936118 93.808407 
L 577.443898 94.050466 
L 577.951679 94.504327 
L 578.459459 93.929436 
L 578.96724 93.596605 
L 579.982801 94.383297 
L 580.490581 93.384803 
L 580.998362 94.292525 
L 583.029484 93.717634 
L 583.537265 93.899179 
L 584.552826 93.868921 
L 585.060606 93.717634 
L 585.568387 93.445318 
L 586.076167 93.687377 
L 586.583948 93.65712 
L 587.091728 94.262268 
L 587.599509 93.989951 
L 588.107289 94.534584 
L 588.61507 93.808407 
L 589.12285 94.564842 
L 591.153972 93.687377 
L 591.661753 93.778149 
L 592.169533 94.110981 
L 592.677314 94.23201 
L 593.692875 93.868921 
L 594.200655 94.262268 
L 595.216216 94.020209 
L 595.723997 93.808407 
L 596.231777 93.747892 
L 596.739558 93.505833 
L 597.247338 93.445318 
L 597.755119 93.717634 
L 598.77068 93.354546 
L 599.27846 93.505833 
L 599.786241 93.899179 
L 600.801802 94.110981 
L 601.309582 93.868921 
L 601.817363 93.445318 
L 602.325143 93.838664 
L 603.340704 93.838664 
L 603.848485 94.322783 
L 604.864046 93.626862 
L 605.371826 93.445318 
L 605.879607 93.959694 
L 607.402948 93.959694 
L 607.910729 93.868921 
L 608.418509 94.141238 
L 608.92629 93.838664 
L 609.941851 93.808407 
L 610.449631 93.959694 
L 610.957412 93.717634 
L 611.972973 93.53609 
L 612.480753 93.778149 
L 612.988534 93.65712 
L 613.496314 94.23201 
L 614.004095 93.868921 
L 614.511876 93.989951 
L 615.527437 93.566347 
L 616.035217 93.747892 
L 616.542998 94.413555 
L 617.050778 93.959694 
L 617.558559 94.080723 
L 618.066339 93.929436 
L 618.57412 93.142744 
L 619.0819 93.65712 
L 619.589681 93.959694 
L 620.605242 93.475575 
L 622.128583 93.747892 
L 622.636364 93.324288 
L 622.636364 93.324288 
" clip-path="url(#p945bf1c5cb)" style="fill: none; stroke: #ff7f0e; stroke-width: 1.5; stroke-linecap: square"/>
   </g>
   <g id="line2d_15">
    <path d="M 115.363636 350.77594 
L 115.871417 362.403408 
L 116.379197 364.162535 
L 116.886978 364.679273 
L 117.902539 365.198785 
L 119.933661 365.726617 
L 122.980344 366.211827 
L 126.027027 366.577192 
L 132.628174 367.046819 
L 148.369369 367.577037 
L 173.758395 367.965242 
L 182.898444 368.049048 
L 311.366912 368.897771 
L 350.466011 369.053287 
L 356.559378 369.078306 
L 389.05733 369.214075 
L 397.689599 369.24139 
L 403.782965 369.245836 
L 426.633088 369.28602 
L 433.742015 369.283561 
L 439.835381 369.300818 
L 449.48321 369.306467 
L 470.302211 369.313724 
L 484.520066 369.33187 
L 500.261261 369.329624 
L 614.004095 369.359069 
L 622.636364 369.353337 
L 622.636364 369.353337 
" clip-path="url(#p945bf1c5cb)" style="fill: none; stroke: #2ca02c; stroke-width: 1.5; stroke-linecap: square"/>
   </g>
   <g id="line2d_16">
    <path d="M 115.363636 360.153737 
L 115.871417 364.240711 
L 116.379197 364.723613 
L 117.394758 365.140112 
L 117.902539 365.119688 
L 118.410319 365.462408 
L 125.519247 366.568789 
L 127.042588 366.650508 
L 131.104832 366.966004 
L 131.612613 366.93551 
L 132.120393 367.038449 
L 133.643735 367.064021 
L 135.167076 367.150892 
L 142.276003 367.386176 
L 146.338247 367.490237 
L 147.353808 367.509374 
L 165.126126 367.758112 
L 169.696151 367.806319 
L 179.34398 367.807954 
L 180.867322 367.880783 
L 188.99181 367.9114 
L 191.022932 367.920583 
L 206.256347 368.01118 
L 207.779689 368.008031 
L 226.567568 368.043219 
L 233.676495 368.053665 
L 234.692056 368.050601 
L 260.081081 368.045532 
L 281.407862 368.015637 
L 284.962326 367.998463 
L 289.02457 367.964212 
L 291.055692 367.975301 
L 300.703522 367.921464 
L 302.226863 367.92802 
L 307.304668 367.889053 
L 311.366912 367.899887 
L 314.413595 367.86446 
L 315.429156 367.850183 
L 341.325962 367.721766 
L 342.341523 367.665557 
L 349.958231 367.649077 
L 350.973792 367.654809 
L 355.543817 367.590964 
L 370.269451 367.542137 
L 370.777232 367.407334 
L 371.792793 367.436054 
L 373.316134 367.4121 
L 374.839476 367.403014 
L 378.90172 367.317928 
L 381.948403 367.262316 
L 382.456183 367.350857 
L 384.487305 367.287058 
L 387.533989 367.218319 
L 388.041769 367.120354 
L 389.05733 367.172702 
L 390.580672 367.128326 
L 391.596233 367.167747 
L 392.611794 367.13573 
L 393.627355 367.130291 
L 394.642916 367.079676 
L 395.150696 367.166221 
L 396.166257 367.100838 
L 401.751843 366.979958 
L 402.259623 366.899014 
L 403.782965 367.068013 
L 404.290745 366.958706 
L 405.306306 367.004871 
L 405.814087 366.886352 
L 407.337428 366.959895 
L 408.86077 366.87361 
L 409.876331 366.919135 
L 410.891892 366.861196 
L 428.66421 366.717964 
L 430.695332 366.629579 
L 433.742015 366.789447 
L 434.249795 366.653294 
L 442.882064 366.577341 
L 443.389844 366.624483 
L 443.897625 366.484735 
L 444.913186 366.513002 
L 451.514333 366.446703 
L 453.545455 366.434458 
L 456.084357 366.3998 
L 457.607699 366.354199 
L 458.115479 366.321769 
L 458.62326 366.412834 
L 460.146601 366.307438 
L 460.654382 366.417342 
L 461.669943 366.2968 
L 462.685504 366.379561 
L 465.732187 366.284116 
L 466.747748 366.334053 
L 467.255528 366.238626 
L 469.794431 366.255352 
L 470.302211 366.189134 
L 470.809992 366.336958 
L 472.841114 366.301208 
L 473.856675 366.243164 
L 475.380016 366.133138 
L 475.887797 366.30511 
L 476.903358 366.241046 
L 479.44226 366.179492 
L 480.457821 366.177497 
L 482.996724 366.149642 
L 483.504505 366.252595 
L 485.027846 366.112786 
L 491.121212 366.097021 
L 492.644554 366.16463 
L 497.722359 366.07144 
L 498.230139 365.953747 
L 498.73792 366.12279 
L 500.261261 366.029258 
L 501.276822 366.025315 
L 502.292383 366.039325 
L 502.800164 366.059642 
L 503.307944 365.954216 
L 504.323505 366.00659 
L 505.846847 366.015772 
L 538.85258 365.671319 
L 539.36036 365.780749 
L 539.868141 365.647743 
L 541.899263 365.709196 
L 543.422604 365.707188 
L 543.930385 365.764863 
L 544.438165 365.705236 
L 545.453726 365.744409 
L 546.469287 365.669497 
L 547.484848 365.702771 
L 553.578215 365.571329 
L 559.1638 365.484005 
L 560.179361 365.437759 
L 561.194922 365.596542 
L 561.702703 365.517455 
L 562.210483 365.673974 
L 562.718264 365.547961 
L 563.733825 365.587902 
L 564.241605 365.425209 
L 564.749386 365.609622 
L 565.764947 365.576258 
L 572.873874 365.431431 
L 573.381654 365.626775 
L 574.904996 365.520648 
L 575.920557 365.479442 
L 576.936118 365.473461 
L 579.982801 365.496319 
L 580.490581 365.526967 
L 580.998362 365.422139 
L 587.091728 365.540345 
L 587.599509 365.397823 
L 588.107289 365.4975 
L 589.12285 365.370509 
L 590.138411 365.495731 
L 601.817363 365.282505 
L 602.325143 365.230493 
L 602.832924 365.320332 
L 604.864046 365.221031 
L 606.895168 365.308125 
L 607.402948 365.171132 
L 607.910729 365.365521 
L 609.43407 365.296625 
L 610.449631 365.23271 
L 611.972973 365.232494 
L 612.988534 365.315704 
L 614.004095 365.157227 
L 615.019656 365.232232 
L 621.113022 365.197021 
L 621.620803 365.101069 
L 622.636364 365.224572 
L 622.636364 365.224572 
" clip-path="url(#p945bf1c5cb)" style="fill: none; stroke: #d62728; stroke-width: 1.5; stroke-linecap: square"/>
   </g>
   <g id="patch_3">
    <path d="M 90 384.48 
L 90 51.84 
" style="fill: none; stroke: #000000; stroke-width: 0.8; stroke-linejoin: miter; stroke-linecap: square"/>
   </g>
   <g id="patch_4">
    <path d="M 648 384.48 
L 648 51.84 
" style="fill: none; stroke: #000000; stroke-width: 0.8; stroke-linejoin: miter; stroke-linecap: square"/>
   </g>
   <g id="patch_5">
    <path d="M 90 384.48 
L 648 384.48 
" style="fill: none; stroke: #000000; stroke-width: 0.8; stroke-linejoin: miter; stroke-linecap: square"/>
   </g>
   <g id="patch_6">
    <path d="M 90 51.84 
L 648 51.84 
" style="fill: none; stroke: #000000; stroke-width: 0.8; stroke-linejoin: miter; stroke-linecap: square"/>
   </g>
   <g id="text_15">
    <!-- Accuracy -->
    <g transform="translate(341.60625 45.84) scale(0.12 -0.12)">
     <use xlink:href="#DejaVuSans-41"/>
     <use xlink:href="#DejaVuSans-63" x="66.658203"/>
     <use xlink:href="#DejaVuSans-63" x="121.638672"/>
     <use xlink:href="#DejaVuSans-75" x="176.619141"/>
     <use xlink:href="#DejaVuSans-72" x="239.998047"/>
     <use xlink:href="#DejaVuSans-61" x="281.111328"/>
     <use xlink:href="#DejaVuSans-63" x="342.390625"/>
     <use xlink:href="#DejaVuSans-79" x="397.371094"/>
    </g>
   </g>
   <g id="legend_1">
    <g id="patch_7">
     <path d="M 560.696875 249.5725 
L 641 249.5725 
Q 643 249.5725 643 247.5725 
L 643 188.7475 
Q 643 186.7475 641 186.7475 
L 560.696875 186.7475 
Q 558.696875 186.7475 558.696875 188.7475 
L 558.696875 247.5725 
Q 558.696875 249.5725 560.696875 249.5725 
z
" style="fill: #ffffff; opacity: 0.8; stroke: #cccccc; stroke-linejoin: miter"/>
    </g>
    <g id="line2d_17">
     <path d="M 562.696875 194.845937 
L 572.696875 194.845937 
L 582.696875 194.845937 
" style="fill: none; stroke: #1f77b4; stroke-width: 1.5; stroke-linecap: square"/>
    </g>
    <g id="text_16">
     <!-- Train_acc -->
     <g transform="translate(590.696875 198.345937) scale(0.1 -0.1)">
      <defs>
       <path id="DejaVuSans-54" d="M -19 4666 
L 3928 4666 
L 3928 4134 
L 2272 4134 
L 2272 0 
L 1638 0 
L 1638 4134 
L -19 4134 
L -19 4666 
z
" transform="scale(0.015625)"/>
       <path id="DejaVuSans-69" d="M 603 3500 
L 1178 3500 
L 1178 0 
L 603 0 
L 603 3500 
z
M 603 4863 
L 1178 4863 
L 1178 4134 
L 603 4134 
L 603 4863 
z
" transform="scale(0.015625)"/>
       <path id="DejaVuSans-6e" d="M 3513 2113 
L 3513 0 
L 2938 0 
L 2938 2094 
Q 2938 2591 2744 2837 
Q 2550 3084 2163 3084 
Q 1697 3084 1428 2787 
Q 1159 2491 1159 1978 
L 1159 0 
L 581 0 
L 581 3500 
L 1159 3500 
L 1159 2956 
Q 1366 3272 1645 3428 
Q 1925 3584 2291 3584 
Q 2894 3584 3203 3211 
Q 3513 2838 3513 2113 
z
" transform="scale(0.015625)"/>
       <path id="DejaVuSans-5f" d="M 3263 -1063 
L 3263 -1509 
L -63 -1509 
L -63 -1063 
L 3263 -1063 
z
" transform="scale(0.015625)"/>
      </defs>
      <use xlink:href="#DejaVuSans-54"/>
      <use xlink:href="#DejaVuSans-72" x="46.333984"/>
      <use xlink:href="#DejaVuSans-61" x="87.447266"/>
      <use xlink:href="#DejaVuSans-69" x="148.726562"/>
      <use xlink:href="#DejaVuSans-6e" x="176.509766"/>
      <use xlink:href="#DejaVuSans-5f" x="239.888672"/>
      <use xlink:href="#DejaVuSans-61" x="289.888672"/>
      <use xlink:href="#DejaVuSans-63" x="351.167969"/>
      <use xlink:href="#DejaVuSans-63" x="406.148438"/>
     </g>
    </g>
    <g id="line2d_18">
     <path d="M 562.696875 209.802188 
L 572.696875 209.802188 
L 582.696875 209.802188 
" style="fill: none; stroke: #ff7f0e; stroke-width: 1.5; stroke-linecap: square"/>
    </g>
    <g id="text_17">
     <!-- Test_acc -->
     <g transform="translate(590.696875 213.302188) scale(0.1 -0.1)">
      <defs>
       <path id="DejaVuSans-65" d="M 3597 1894 
L 3597 1613 
L 953 1613 
Q 991 1019 1311 708 
Q 1631 397 2203 397 
Q 2534 397 2845 478 
Q 3156 559 3463 722 
L 3463 178 
Q 3153 47 2828 -22 
Q 2503 -91 2169 -91 
Q 1331 -91 842 396 
Q 353 884 353 1716 
Q 353 2575 817 3079 
Q 1281 3584 2069 3584 
Q 2775 3584 3186 3129 
Q 3597 2675 3597 1894 
z
M 3022 2063 
Q 3016 2534 2758 2815 
Q 2500 3097 2075 3097 
Q 1594 3097 1305 2825 
Q 1016 2553 972 2059 
L 3022 2063 
z
" transform="scale(0.015625)"/>
       <path id="DejaVuSans-73" d="M 2834 3397 
L 2834 2853 
Q 2591 2978 2328 3040 
Q 2066 3103 1784 3103 
Q 1356 3103 1142 2972 
Q 928 2841 928 2578 
Q 928 2378 1081 2264 
Q 1234 2150 1697 2047 
L 1894 2003 
Q 2506 1872 2764 1633 
Q 3022 1394 3022 966 
Q 3022 478 2636 193 
Q 2250 -91 1575 -91 
Q 1294 -91 989 -36 
Q 684 19 347 128 
L 347 722 
Q 666 556 975 473 
Q 1284 391 1588 391 
Q 1994 391 2212 530 
Q 2431 669 2431 922 
Q 2431 1156 2273 1281 
Q 2116 1406 1581 1522 
L 1381 1569 
Q 847 1681 609 1914 
Q 372 2147 372 2553 
Q 372 3047 722 3315 
Q 1072 3584 1716 3584 
Q 2034 3584 2315 3537 
Q 2597 3491 2834 3397 
z
" transform="scale(0.015625)"/>
       <path id="DejaVuSans-74" d="M 1172 4494 
L 1172 3500 
L 2356 3500 
L 2356 3053 
L 1172 3053 
L 1172 1153 
Q 1172 725 1289 603 
Q 1406 481 1766 481 
L 2356 481 
L 2356 0 
L 1766 0 
Q 1100 0 847 248 
Q 594 497 594 1153 
L 594 3053 
L 172 3053 
L 172 3500 
L 594 3500 
L 594 4494 
L 1172 4494 
z
" transform="scale(0.015625)"/>
      </defs>
      <use xlink:href="#DejaVuSans-54"/>
      <use xlink:href="#DejaVuSans-65" x="44.083984"/>
      <use xlink:href="#DejaVuSans-73" x="105.607422"/>
      <use xlink:href="#DejaVuSans-74" x="157.707031"/>
      <use xlink:href="#DejaVuSans-5f" x="196.916016"/>
      <use xlink:href="#DejaVuSans-61" x="246.916016"/>
      <use xlink:href="#DejaVuSans-63" x="308.195312"/>
      <use xlink:href="#DejaVuSans-63" x="363.175781"/>
     </g>
    </g>
    <g id="line2d_19">
     <path d="M 562.696875 224.758437 
L 572.696875 224.758437 
L 582.696875 224.758437 
" style="fill: none; stroke: #2ca02c; stroke-width: 1.5; stroke-linecap: square"/>
    </g>
    <g id="text_18">
     <!-- Train_loss -->
     <g transform="translate(590.696875 228.258437) scale(0.1 -0.1)">
      <defs>
       <path id="DejaVuSans-6c" d="M 603 4863 
L 1178 4863 
L 1178 0 
L 603 0 
L 603 4863 
z
" transform="scale(0.015625)"/>
      </defs>
      <use xlink:href="#DejaVuSans-54"/>
      <use xlink:href="#DejaVuSans-72" x="46.333984"/>
      <use xlink:href="#DejaVuSans-61" x="87.447266"/>
      <use xlink:href="#DejaVuSans-69" x="148.726562"/>
      <use xlink:href="#DejaVuSans-6e" x="176.509766"/>
      <use xlink:href="#DejaVuSans-5f" x="239.888672"/>
      <use xlink:href="#DejaVuSans-6c" x="289.888672"/>
      <use xlink:href="#DejaVuSans-6f" x="317.671875"/>
      <use xlink:href="#DejaVuSans-73" x="378.853516"/>
      <use xlink:href="#DejaVuSans-73" x="430.953125"/>
     </g>
    </g>
    <g id="line2d_20">
     <path d="M 562.696875 239.714687 
L 572.696875 239.714687 
L 582.696875 239.714687 
" style="fill: none; stroke: #d62728; stroke-width: 1.5; stroke-linecap: square"/>
    </g>
    <g id="text_19">
     <!-- Test_loss -->
     <g transform="translate(590.696875 243.214687) scale(0.1 -0.1)">
      <use xlink:href="#DejaVuSans-54"/>
      <use xlink:href="#DejaVuSans-65" x="44.083984"/>
      <use xlink:href="#DejaVuSans-73" x="105.607422"/>
      <use xlink:href="#DejaVuSans-74" x="157.707031"/>
      <use xlink:href="#DejaVuSans-5f" x="196.916016"/>
      <use xlink:href="#DejaVuSans-6c" x="246.916016"/>
      <use xlink:href="#DejaVuSans-6f" x="274.699219"/>
      <use xlink:href="#DejaVuSans-73" x="335.880859"/>
      <use xlink:href="#DejaVuSans-73" x="387.980469"/>
     </g>
    </g>
   </g>
  </g>
 </g>
 <defs>
  <clipPath id="p945bf1c5cb">
   <rect x="90" y="51.84" width="558" height="332.64"/>
  </clipPath>
 </defs>
</svg>
