<?xml version="1.0" encoding="utf-8" standalone="no"?>
<!DOCTYPE svg PUBLIC "-//W3C//DTD SVG 1.1//EN"
  "http://www.w3.org/Graphics/SVG/1.1/DTD/svg11.dtd">
<svg xmlns:xlink="http://www.w3.org/1999/xlink" width="720pt" height="432pt" viewBox="0 0 720 432" xmlns="http://www.w3.org/2000/svg" version="1.1">
 <metadata>
  <rdf:RDF xmlns:dc="http://purl.org/dc/elements/1.1/" xmlns:cc="http://creativecommons.org/ns#" xmlns:rdf="http://www.w3.org/1999/02/22-rdf-syntax-ns#">
   <cc:Work>
    <dc:type rdf:resource="http://purl.org/dc/dcmitype/StillImage"/>
    <dc:date>2023-04-19T04:36:00.350044</dc:date>
    <dc:format>image/svg+xml</dc:format>
    <dc:creator>
     <cc:Agent>
      <dc:title>Matplotlib v3.7.1, https://matplotlib.org/</dc:title>
     </cc:Agent>
    </dc:creator>
   </cc:Work>
  </rdf:RDF>
 </metadata>
 <defs>
  <style type="text/css">*{stroke-linejoin: round; stroke-linecap: butt}</style>
 </defs>
 <g id="figure_1">
  <g id="patch_1">
   <path d="M 0 432 
L 720 432 
L 720 0 
L 0 0 
z
" style="fill: #ffffff"/>
  </g>
  <g id="axes_1">
   <g id="patch_2">
    <path d="M 90 384.48 
L 648 384.48 
L 648 51.84 
L 90 51.84 
z
" style="fill: #ffffff"/>
   </g>
   <g id="matplotlib.axis_1">
    <g id="xtick_1">
     <g id="line2d_1">
      <defs>
       <path id="m4769517a91" d="M 0 0 
L 0 3.5 
" style="stroke: #000000; stroke-width: 0.8"/>
      </defs>
      <g>
       <use xlink:href="#m4769517a91" x="115.363636" y="384.48" style="stroke: #000000; stroke-width: 0.8"/>
      </g>
     </g>
     <g id="text_1">
      <!-- 0 -->
      <g transform="translate(112.182386 399.078438) scale(0.1 -0.1)">
       <defs>
        <path id="DejaVuSans-30" d="M 2034 4250 
Q 1547 4250 1301 3770 
Q 1056 3291 1056 2328 
Q 1056 1369 1301 889 
Q 1547 409 2034 409 
Q 2525 409 2770 889 
Q 3016 1369 3016 2328 
Q 3016 3291 2770 3770 
Q 2525 4250 2034 4250 
z
M 2034 4750 
Q 2819 4750 3233 4129 
Q 3647 3509 3647 2328 
Q 3647 1150 3233 529 
Q 2819 -91 2034 -91 
Q 1250 -91 836 529 
Q 422 1150 422 2328 
Q 422 3509 836 4129 
Q 1250 4750 2034 4750 
z
" transform="scale(0.015625)"/>
       </defs>
       <use xlink:href="#DejaVuSans-30"/>
      </g>
     </g>
    </g>
    <g id="xtick_2">
     <g id="line2d_2">
      <g>
       <use xlink:href="#m4769517a91" x="216.919738" y="384.48" style="stroke: #000000; stroke-width: 0.8"/>
      </g>
     </g>
     <g id="text_2">
      <!-- 200 -->
      <g transform="translate(207.375988 399.078438) scale(0.1 -0.1)">
       <defs>
        <path id="DejaVuSans-32" d="M 1228 531 
L 3431 531 
L 3431 0 
L 469 0 
L 469 531 
Q 828 903 1448 1529 
Q 2069 2156 2228 2338 
Q 2531 2678 2651 2914 
Q 2772 3150 2772 3378 
Q 2772 3750 2511 3984 
Q 2250 4219 1831 4219 
Q 1534 4219 1204 4116 
Q 875 4013 500 3803 
L 500 4441 
Q 881 4594 1212 4672 
Q 1544 4750 1819 4750 
Q 2544 4750 2975 4387 
Q 3406 4025 3406 3419 
Q 3406 3131 3298 2873 
Q 3191 2616 2906 2266 
Q 2828 2175 2409 1742 
Q 1991 1309 1228 531 
z
" transform="scale(0.015625)"/>
       </defs>
       <use xlink:href="#DejaVuSans-32"/>
       <use xlink:href="#DejaVuSans-30" x="63.623047"/>
       <use xlink:href="#DejaVuSans-30" x="127.246094"/>
      </g>
     </g>
    </g>
    <g id="xtick_3">
     <g id="line2d_3">
      <g>
       <use xlink:href="#m4769517a91" x="318.475839" y="384.48" style="stroke: #000000; stroke-width: 0.8"/>
      </g>
     </g>
     <g id="text_3">
      <!-- 400 -->
      <g transform="translate(308.932089 399.078438) scale(0.1 -0.1)">
       <defs>
        <path id="DejaVuSans-34" d="M 2419 4116 
L 825 1625 
L 2419 1625 
L 2419 4116 
z
M 2253 4666 
L 3047 4666 
L 3047 1625 
L 3713 1625 
L 3713 1100 
L 3047 1100 
L 3047 0 
L 2419 0 
L 2419 1100 
L 313 1100 
L 313 1709 
L 2253 4666 
z
" transform="scale(0.015625)"/>
       </defs>
       <use xlink:href="#DejaVuSans-34"/>
       <use xlink:href="#DejaVuSans-30" x="63.623047"/>
       <use xlink:href="#DejaVuSans-30" x="127.246094"/>
      </g>
     </g>
    </g>
    <g id="xtick_4">
     <g id="line2d_4">
      <g>
       <use xlink:href="#m4769517a91" x="420.031941" y="384.48" style="stroke: #000000; stroke-width: 0.8"/>
      </g>
     </g>
     <g id="text_4">
      <!-- 600 -->
      <g transform="translate(410.488191 399.078438) scale(0.1 -0.1)">
       <defs>
        <path id="DejaVuSans-36" d="M 2113 2584 
Q 1688 2584 1439 2293 
Q 1191 2003 1191 1497 
Q 1191 994 1439 701 
Q 1688 409 2113 409 
Q 2538 409 2786 701 
Q 3034 994 3034 1497 
Q 3034 2003 2786 2293 
Q 2538 2584 2113 2584 
z
M 3366 4563 
L 3366 3988 
Q 3128 4100 2886 4159 
Q 2644 4219 2406 4219 
Q 1781 4219 1451 3797 
Q 1122 3375 1075 2522 
Q 1259 2794 1537 2939 
Q 1816 3084 2150 3084 
Q 2853 3084 3261 2657 
Q 3669 2231 3669 1497 
Q 3669 778 3244 343 
Q 2819 -91 2113 -91 
Q 1303 -91 875 529 
Q 447 1150 447 2328 
Q 447 3434 972 4092 
Q 1497 4750 2381 4750 
Q 2619 4750 2861 4703 
Q 3103 4656 3366 4563 
z
" transform="scale(0.015625)"/>
       </defs>
       <use xlink:href="#DejaVuSans-36"/>
       <use xlink:href="#DejaVuSans-30" x="63.623047"/>
       <use xlink:href="#DejaVuSans-30" x="127.246094"/>
      </g>
     </g>
    </g>
    <g id="xtick_5">
     <g id="line2d_5">
      <g>
       <use xlink:href="#m4769517a91" x="521.588043" y="384.48" style="stroke: #000000; stroke-width: 0.8"/>
      </g>
     </g>
     <g id="text_5">
      <!-- 800 -->
      <g transform="translate(512.044293 399.078438) scale(0.1 -0.1)">
       <defs>
        <path id="DejaVuSans-38" d="M 2034 2216 
Q 1584 2216 1326 1975 
Q 1069 1734 1069 1313 
Q 1069 891 1326 650 
Q 1584 409 2034 409 
Q 2484 409 2743 651 
Q 3003 894 3003 1313 
Q 3003 1734 2745 1975 
Q 2488 2216 2034 2216 
z
M 1403 2484 
Q 997 2584 770 2862 
Q 544 3141 544 3541 
Q 544 4100 942 4425 
Q 1341 4750 2034 4750 
Q 2731 4750 3128 4425 
Q 3525 4100 3525 3541 
Q 3525 3141 3298 2862 
Q 3072 2584 2669 2484 
Q 3125 2378 3379 2068 
Q 3634 1759 3634 1313 
Q 3634 634 3220 271 
Q 2806 -91 2034 -91 
Q 1263 -91 848 271 
Q 434 634 434 1313 
Q 434 1759 690 2068 
Q 947 2378 1403 2484 
z
M 1172 3481 
Q 1172 3119 1398 2916 
Q 1625 2713 2034 2713 
Q 2441 2713 2670 2916 
Q 2900 3119 2900 3481 
Q 2900 3844 2670 4047 
Q 2441 4250 2034 4250 
Q 1625 4250 1398 4047 
Q 1172 3844 1172 3481 
z
" transform="scale(0.015625)"/>
       </defs>
       <use xlink:href="#DejaVuSans-38"/>
       <use xlink:href="#DejaVuSans-30" x="63.623047"/>
       <use xlink:href="#DejaVuSans-30" x="127.246094"/>
      </g>
     </g>
    </g>
    <g id="xtick_6">
     <g id="line2d_6">
      <g>
       <use xlink:href="#m4769517a91" x="623.144144" y="384.48" style="stroke: #000000; stroke-width: 0.8"/>
      </g>
     </g>
     <g id="text_6">
      <!-- 1000 -->
      <g transform="translate(610.419144 399.078438) scale(0.1 -0.1)">
       <defs>
        <path id="DejaVuSans-31" d="M 794 531 
L 1825 531 
L 1825 4091 
L 703 3866 
L 703 4441 
L 1819 4666 
L 2450 4666 
L 2450 531 
L 3481 531 
L 3481 0 
L 794 0 
L 794 531 
z
" transform="scale(0.015625)"/>
       </defs>
       <use xlink:href="#DejaVuSans-31"/>
       <use xlink:href="#DejaVuSans-30" x="63.623047"/>
       <use xlink:href="#DejaVuSans-30" x="127.246094"/>
       <use xlink:href="#DejaVuSans-30" x="190.869141"/>
      </g>
     </g>
    </g>
    <g id="text_7">
     <!-- Epoch -->
     <g transform="translate(353.689062 412.756563) scale(0.1 -0.1)">
      <defs>
       <path id="DejaVuSans-45" d="M 628 4666 
L 3578 4666 
L 3578 4134 
L 1259 4134 
L 1259 2753 
L 3481 2753 
L 3481 2222 
L 1259 2222 
L 1259 531 
L 3634 531 
L 3634 0 
L 628 0 
L 628 4666 
z
" transform="scale(0.015625)"/>
       <path id="DejaVuSans-70" d="M 1159 525 
L 1159 -1331 
L 581 -1331 
L 581 3500 
L 1159 3500 
L 1159 2969 
Q 1341 3281 1617 3432 
Q 1894 3584 2278 3584 
Q 2916 3584 3314 3078 
Q 3713 2572 3713 1747 
Q 3713 922 3314 415 
Q 2916 -91 2278 -91 
Q 1894 -91 1617 61 
Q 1341 213 1159 525 
z
M 3116 1747 
Q 3116 2381 2855 2742 
Q 2594 3103 2138 3103 
Q 1681 3103 1420 2742 
Q 1159 2381 1159 1747 
Q 1159 1113 1420 752 
Q 1681 391 2138 391 
Q 2594 391 2855 752 
Q 3116 1113 3116 1747 
z
" transform="scale(0.015625)"/>
       <path id="DejaVuSans-6f" d="M 1959 3097 
Q 1497 3097 1228 2736 
Q 959 2375 959 1747 
Q 959 1119 1226 758 
Q 1494 397 1959 397 
Q 2419 397 2687 759 
Q 2956 1122 2956 1747 
Q 2956 2369 2687 2733 
Q 2419 3097 1959 3097 
z
M 1959 3584 
Q 2709 3584 3137 3096 
Q 3566 2609 3566 1747 
Q 3566 888 3137 398 
Q 2709 -91 1959 -91 
Q 1206 -91 779 398 
Q 353 888 353 1747 
Q 353 2609 779 3096 
Q 1206 3584 1959 3584 
z
" transform="scale(0.015625)"/>
       <path id="DejaVuSans-63" d="M 3122 3366 
L 3122 2828 
Q 2878 2963 2633 3030 
Q 2388 3097 2138 3097 
Q 1578 3097 1268 2742 
Q 959 2388 959 1747 
Q 959 1106 1268 751 
Q 1578 397 2138 397 
Q 2388 397 2633 464 
Q 2878 531 3122 666 
L 3122 134 
Q 2881 22 2623 -34 
Q 2366 -91 2075 -91 
Q 1284 -91 818 406 
Q 353 903 353 1747 
Q 353 2603 823 3093 
Q 1294 3584 2113 3584 
Q 2378 3584 2631 3529 
Q 2884 3475 3122 3366 
z
" transform="scale(0.015625)"/>
       <path id="DejaVuSans-68" d="M 3513 2113 
L 3513 0 
L 2938 0 
L 2938 2094 
Q 2938 2591 2744 2837 
Q 2550 3084 2163 3084 
Q 1697 3084 1428 2787 
Q 1159 2491 1159 1978 
L 1159 0 
L 581 0 
L 581 4863 
L 1159 4863 
L 1159 2956 
Q 1366 3272 1645 3428 
Q 1925 3584 2291 3584 
Q 2894 3584 3203 3211 
Q 3513 2838 3513 2113 
z
" transform="scale(0.015625)"/>
      </defs>
      <use xlink:href="#DejaVuSans-45"/>
      <use xlink:href="#DejaVuSans-70" x="63.183594"/>
      <use xlink:href="#DejaVuSans-6f" x="126.660156"/>
      <use xlink:href="#DejaVuSans-63" x="187.841797"/>
      <use xlink:href="#DejaVuSans-68" x="242.822266"/>
     </g>
    </g>
   </g>
   <g id="matplotlib.axis_2">
    <g id="ytick_1">
     <g id="line2d_7">
      <defs>
       <path id="mf2950a7281" d="M 0 0 
L -3.5 0 
" style="stroke: #000000; stroke-width: 0.8"/>
      </defs>
      <g>
       <use xlink:href="#mf2950a7281" x="90" y="369.360093" style="stroke: #000000; stroke-width: 0.8"/>
      </g>
     </g>
     <g id="text_8">
      <!-- 0.0 -->
      <g transform="translate(67.096875 373.159312) scale(0.1 -0.1)">
       <defs>
        <path id="DejaVuSans-2e" d="M 684 794 
L 1344 794 
L 1344 0 
L 684 0 
L 684 794 
z
" transform="scale(0.015625)"/>
       </defs>
       <use xlink:href="#DejaVuSans-30"/>
       <use xlink:href="#DejaVuSans-2e" x="63.623047"/>
       <use xlink:href="#DejaVuSans-30" x="95.410156"/>
      </g>
     </g>
    </g>
    <g id="ytick_2">
     <g id="line2d_8">
      <g>
       <use xlink:href="#mf2950a7281" x="90" y="308.847801" style="stroke: #000000; stroke-width: 0.8"/>
      </g>
     </g>
     <g id="text_9">
      <!-- 0.2 -->
      <g transform="translate(67.096875 312.64702) scale(0.1 -0.1)">
       <use xlink:href="#DejaVuSans-30"/>
       <use xlink:href="#DejaVuSans-2e" x="63.623047"/>
       <use xlink:href="#DejaVuSans-32" x="95.410156"/>
      </g>
     </g>
    </g>
    <g id="ytick_3">
     <g id="line2d_9">
      <g>
       <use xlink:href="#mf2950a7281" x="90" y="248.335509" style="stroke: #000000; stroke-width: 0.8"/>
      </g>
     </g>
     <g id="text_10">
      <!-- 0.4 -->
      <g transform="translate(67.096875 252.134728) scale(0.1 -0.1)">
       <use xlink:href="#DejaVuSans-30"/>
       <use xlink:href="#DejaVuSans-2e" x="63.623047"/>
       <use xlink:href="#DejaVuSans-34" x="95.410156"/>
      </g>
     </g>
    </g>
    <g id="ytick_4">
     <g id="line2d_10">
      <g>
       <use xlink:href="#mf2950a7281" x="90" y="187.823218" style="stroke: #000000; stroke-width: 0.8"/>
      </g>
     </g>
     <g id="text_11">
      <!-- 0.6 -->
      <g transform="translate(67.096875 191.622436) scale(0.1 -0.1)">
       <use xlink:href="#DejaVuSans-30"/>
       <use xlink:href="#DejaVuSans-2e" x="63.623047"/>
       <use xlink:href="#DejaVuSans-36" x="95.410156"/>
      </g>
     </g>
    </g>
    <g id="ytick_5">
     <g id="line2d_11">
      <g>
       <use xlink:href="#mf2950a7281" x="90" y="127.310926" style="stroke: #000000; stroke-width: 0.8"/>
      </g>
     </g>
     <g id="text_12">
      <!-- 0.8 -->
      <g transform="translate(67.096875 131.110144) scale(0.1 -0.1)">
       <use xlink:href="#DejaVuSans-30"/>
       <use xlink:href="#DejaVuSans-2e" x="63.623047"/>
       <use xlink:href="#DejaVuSans-38" x="95.410156"/>
      </g>
     </g>
    </g>
    <g id="ytick_6">
     <g id="line2d_12">
      <g>
       <use xlink:href="#mf2950a7281" x="90" y="66.798634" style="stroke: #000000; stroke-width: 0.8"/>
      </g>
     </g>
     <g id="text_13">
      <!-- 1.0 -->
      <g transform="translate(67.096875 70.597853) scale(0.1 -0.1)">
       <use xlink:href="#DejaVuSans-31"/>
       <use xlink:href="#DejaVuSans-2e" x="63.623047"/>
       <use xlink:href="#DejaVuSans-30" x="95.410156"/>
      </g>
     </g>
    </g>
    <g id="text_14">
     <!-- Accuracy -->
     <g transform="translate(61.017187 240.988125) rotate(-90) scale(0.1 -0.1)">
      <defs>
       <path id="DejaVuSans-41" d="M 2188 4044 
L 1331 1722 
L 3047 1722 
L 2188 4044 
z
M 1831 4666 
L 2547 4666 
L 4325 0 
L 3669 0 
L 3244 1197 
L 1141 1197 
L 716 0 
L 50 0 
L 1831 4666 
z
" transform="scale(0.015625)"/>
       <path id="DejaVuSans-75" d="M 544 1381 
L 544 3500 
L 1119 3500 
L 1119 1403 
Q 1119 906 1312 657 
Q 1506 409 1894 409 
Q 2359 409 2629 706 
Q 2900 1003 2900 1516 
L 2900 3500 
L 3475 3500 
L 3475 0 
L 2900 0 
L 2900 538 
Q 2691 219 2414 64 
Q 2138 -91 1772 -91 
Q 1169 -91 856 284 
Q 544 659 544 1381 
z
M 1991 3584 
L 1991 3584 
z
" transform="scale(0.015625)"/>
       <path id="DejaVuSans-72" d="M 2631 2963 
Q 2534 3019 2420 3045 
Q 2306 3072 2169 3072 
Q 1681 3072 1420 2755 
Q 1159 2438 1159 1844 
L 1159 0 
L 581 0 
L 581 3500 
L 1159 3500 
L 1159 2956 
Q 1341 3275 1631 3429 
Q 1922 3584 2338 3584 
Q 2397 3584 2469 3576 
Q 2541 3569 2628 3553 
L 2631 2963 
z
" transform="scale(0.015625)"/>
       <path id="DejaVuSans-61" d="M 2194 1759 
Q 1497 1759 1228 1600 
Q 959 1441 959 1056 
Q 959 750 1161 570 
Q 1363 391 1709 391 
Q 2188 391 2477 730 
Q 2766 1069 2766 1631 
L 2766 1759 
L 2194 1759 
z
M 3341 1997 
L 3341 0 
L 2766 0 
L 2766 531 
Q 2569 213 2275 61 
Q 1981 -91 1556 -91 
Q 1019 -91 701 211 
Q 384 513 384 1019 
Q 384 1609 779 1909 
Q 1175 2209 1959 2209 
L 2766 2209 
L 2766 2266 
Q 2766 2663 2505 2880 
Q 2244 3097 1772 3097 
Q 1472 3097 1187 3025 
Q 903 2953 641 2809 
L 641 3341 
Q 956 3463 1253 3523 
Q 1550 3584 1831 3584 
Q 2591 3584 2966 3190 
Q 3341 2797 3341 1997 
z
" transform="scale(0.015625)"/>
       <path id="DejaVuSans-79" d="M 2059 -325 
Q 1816 -950 1584 -1140 
Q 1353 -1331 966 -1331 
L 506 -1331 
L 506 -850 
L 844 -850 
Q 1081 -850 1212 -737 
Q 1344 -625 1503 -206 
L 1606 56 
L 191 3500 
L 800 3500 
L 1894 763 
L 2988 3500 
L 3597 3500 
L 2059 -325 
z
" transform="scale(0.015625)"/>
      </defs>
      <use xlink:href="#DejaVuSans-41"/>
      <use xlink:href="#DejaVuSans-63" x="66.658203"/>
      <use xlink:href="#DejaVuSans-63" x="121.638672"/>
      <use xlink:href="#DejaVuSans-75" x="176.619141"/>
      <use xlink:href="#DejaVuSans-72" x="239.998047"/>
      <use xlink:href="#DejaVuSans-61" x="281.111328"/>
      <use xlink:href="#DejaVuSans-63" x="342.390625"/>
      <use xlink:href="#DejaVuSans-79" x="397.371094"/>
     </g>
    </g>
   </g>
   <g id="line2d_13">
    <path d="M 115.363636 325.755944 
L 115.871417 289.302331 
L 116.379197 261.103603 
L 117.394758 121.718581 
L 117.902539 105.481116 
L 118.410319 98.128873 
L 118.9181 93.227377 
L 119.42588 89.460487 
L 119.933661 86.873587 
L 120.441441 85.320438 
L 120.949222 83.126867 
L 121.964783 80.766888 
L 122.472563 79.687752 
L 122.980344 79.04733 
L 123.488124 78.628787 
L 123.995905 77.942981 
L 124.503686 77.468968 
L 125.011466 76.838632 
L 125.519247 76.621796 
L 126.027027 76.001545 
L 127.042588 75.381294 
L 127.550369 74.871982 
L 128.058149 74.977879 
L 128.56593 74.352585 
L 129.07371 74.539165 
L 131.612613 73.253278 
L 132.628174 73.21798 
L 133.135954 72.890205 
L 133.643735 72.779265 
L 134.151515 72.43132 
L 136.182637 72.471661 
L 136.690418 72.108587 
L 137.705979 71.715258 
L 138.213759 71.836282 
L 140.244881 71.392525 
L 141.260442 71.221074 
L 141.768223 71.347141 
L 142.783784 70.873128 
L 143.291564 70.994153 
L 144.307125 70.716805 
L 144.814906 70.822701 
L 146.338247 70.742018 
L 146.846028 70.555439 
L 147.861589 70.489884 
L 148.369369 70.545353 
L 148.87715 70.232706 
L 149.38493 70.404158 
L 149.892711 70.20245 
L 150.400491 70.252877 
L 151.416052 69.960401 
L 151.923833 70.106639 
L 152.939394 69.879718 
L 153.447174 70.041084 
L 153.954955 69.859547 
L 154.462735 69.930145 
L 154.970516 69.703224 
L 155.478296 69.819206 
L 155.986077 69.799035 
L 157.001638 69.466217 
L 159.03276 69.551943 
L 159.540541 69.52673 
L 160.556102 69.304851 
L 161.571663 69.325022 
L 165.633907 69.234254 
L 166.141687 68.977076 
L 166.649468 68.941778 
L 167.665029 69.082973 
L 169.696151 68.750155 
L 170.203931 69.012375 
L 171.219492 68.775369 
L 172.235053 68.775369 
L 173.250614 68.931692 
L 173.758395 68.714856 
L 174.266175 68.825796 
L 174.773956 68.679558 
L 179.34398 68.437508 
L 179.851761 68.548448 
L 180.359541 68.387082 
L 181.375102 68.518192 
L 181.882883 68.407252 
L 182.390663 68.508106 
L 183.914005 68.220673 
L 185.945127 68.301356 
L 187.468468 68.225715 
L 187.976249 68.351783 
L 188.484029 68.331612 
L 189.49959 68.104691 
L 190.515152 68.129904 
L 191.022932 68.003837 
L 191.530713 68.16016 
L 192.038493 67.993752 
L 193.054054 68.114776 
L 193.561835 67.968538 
L 194.577396 68.089563 
L 195.592957 67.968538 
L 196.100737 68.024008 
L 196.608518 67.918111 
L 197.624079 68.013922 
L 199.14742 67.832386 
L 199.655201 67.968538 
L 200.670762 67.792044 
L 201.178542 67.918111 
L 203.717445 67.842471 
L 204.225225 67.817257 
L 204.733006 67.913069 
L 205.748567 67.781959 
L 206.256347 67.892898 
L 206.764128 67.726489 
L 208.287469 67.74666 
L 208.79525 67.882812 
L 209.810811 67.701276 
L 212.349713 67.681105 
L 213.365274 67.817257 
L 213.873055 67.660934 
L 214.380835 67.696233 
L 214.888616 67.555038 
L 215.396396 67.620593 
L 215.904177 67.524781 
L 216.411957 67.671019 
L 217.427518 67.61555 
L 218.95086 67.676062 
L 219.966421 67.509653 
L 220.474201 67.640763 
L 221.997543 67.504611 
L 223.520885 67.665977 
L 224.028665 67.555038 
L 226.059787 67.610507 
L 226.567568 67.464269 
L 227.075348 67.544952 
L 228.090909 67.469312 
L 228.59869 67.650849 
L 229.10647 67.413842 
L 229.614251 67.590336 
L 231.137592 67.363415 
L 232.153153 67.519739 
L 234.692056 67.494525 
L 235.199836 67.403757 
L 236.215397 67.439056 
L 236.723178 67.35333 
L 237.738739 67.408799 
L 238.246519 67.363415 
L 239.26208 67.459226 
L 241.293202 67.368458 
L 241.800983 67.48444 
L 242.816544 67.408799 
L 247.386568 67.378543 
L 248.90991 67.343245 
L 255.511057 67.292818 
L 256.018837 67.42897 
L 256.526618 67.287775 
L 257.542179 67.368458 
L 259.06552 67.338202 
L 260.081081 67.373501 
L 260.588862 67.252476 
L 263.635545 67.27769 
L 273.791155 67.22222 
L 274.298935 67.156665 
L 275.314496 67.232305 
L 278.361179 67.212135 
L 280.900082 67.307946 
L 281.407862 67.176836 
L 281.915643 67.302903 
L 284.962326 67.202049 
L 287.501229 67.197006 
L 288.009009 67.272647 
L 289.02457 67.171793 
L 289.532351 67.22222 
L 290.547912 67.181878 
L 291.055692 67.131451 
L 291.563473 67.262561 
L 293.086814 67.126409 
L 294.102375 67.181878 
L 295.117936 67.186921 
L 296.641278 67.202049 
L 298.6724 67.16675 
L 301.211302 67.176836 
L 302.226863 67.141537 
L 303.750205 67.116323 
L 371.792793 67.030598 
L 372.808354 66.980171 
L 374.331695 66.995299 
L 380.425061 66.975128 
L 390.580672 66.975128 
L 396.674038 66.96 
L 402.259623 66.96 
L 413.938575 66.970085 
L 426.125307 66.96 
L 622.636364 66.96 
L 622.636364 66.96 
" clip-path="url(#pe10859dbae)" style="fill: none; stroke: #1f77b4; stroke-width: 1.5; stroke-linecap: square"/>
   </g>
   <g id="line2d_14">
    <path d="M 115.363636 281.465989 
L 115.871417 213.450173 
L 116.379197 176.900749 
L 116.886978 119.141766 
L 117.394758 102.621911 
L 117.902539 94.392239 
L 118.410319 91.185088 
L 119.42588 83.500026 
L 119.933661 81.140047 
L 120.441441 79.62724 
L 120.949222 79.203654 
L 121.457002 77.388285 
L 121.964783 76.631881 
L 122.472563 76.510857 
L 123.488124 74.967793 
L 123.995905 74.816513 
L 124.503686 74.36267 
L 125.011466 74.060109 
L 125.519247 74.271902 
L 126.027027 73.666779 
L 126.534808 73.303705 
L 127.550369 73.182681 
L 128.058149 72.910375 
L 128.56593 73.061656 
L 129.581491 72.426277 
L 130.089271 72.789351 
L 130.597052 72.456533 
L 131.612613 72.093459 
L 132.120393 72.274996 
L 132.628174 72.24474 
L 133.135954 72.063203 
L 133.643735 72.426277 
L 134.151515 71.790898 
L 134.659296 71.760642 
L 135.167076 71.881666 
L 135.674857 71.70013 
L 136.182637 71.972435 
L 136.690418 71.669873 
L 137.198198 71.730386 
L 137.705979 71.488337 
L 138.213759 71.609361 
L 138.72154 71.185775 
L 139.22932 71.397568 
L 140.244881 71.3068 
L 141.260442 71.337056 
L 141.768223 71.488337 
L 142.276003 71.155519 
L 143.799345 70.973982 
L 144.307125 70.792445 
L 144.814906 71.004238 
L 145.322686 70.943726 
L 145.830467 71.216031 
L 146.338247 70.883214 
L 146.846028 70.852957 
L 147.353808 70.701677 
L 147.861589 70.822701 
L 148.369369 70.731933 
L 149.892711 70.762189 
L 151.416052 70.671421 
L 152.939394 70.671421 
L 153.447174 70.489884 
L 153.954955 70.701677 
L 154.462735 70.610908 
L 154.970516 70.641164 
L 155.478296 70.883214 
L 155.986077 70.610908 
L 156.493857 70.610908 
L 157.001638 70.278091 
L 157.509419 70.641164 
L 158.017199 70.52014 
L 158.52498 70.731933 
L 159.03276 70.641164 
L 159.540541 70.671421 
L 160.048321 70.459628 
L 161.063882 70.278091 
L 161.571663 70.550396 
L 162.079443 70.550396 
L 162.587224 70.338603 
L 163.095004 70.368859 
L 163.602785 70.580652 
L 164.110565 70.338603 
L 164.618346 70.429371 
L 165.126126 70.368859 
L 165.633907 70.52014 
L 166.141687 70.308347 
L 166.649468 70.52014 
L 167.157248 70.338603 
L 167.665029 70.641164 
L 168.172809 70.308347 
L 168.68059 70.459628 
L 169.18837 70.278091 
L 169.696151 70.338603 
L 170.203931 70.580652 
L 170.711712 70.580652 
L 171.219492 70.187322 
L 172.742834 70.368859 
L 173.250614 70.217578 
L 174.266175 70.157066 
L 174.773956 70.399115 
L 175.281736 70.157066 
L 175.789517 70.187322 
L 176.297297 70.550396 
L 176.805078 70.12681 
L 177.312858 70.066298 
L 178.8362 70.157066 
L 179.34398 70.187322 
L 180.359541 70.066298 
L 180.867322 70.308347 
L 181.882883 70.247835 
L 182.390663 70.399115 
L 183.406224 70.217578 
L 183.914005 70.217578 
L 184.421785 70.036042 
L 185.437346 70.005785 
L 185.945127 70.247835 
L 186.452907 70.217578 
L 186.960688 70.338603 
L 187.468468 70.187322 
L 187.976249 70.217578 
L 188.484029 70.12681 
L 188.99181 70.368859 
L 189.49959 70.157066 
L 192.546274 69.945273 
L 193.561835 70.247835 
L 194.069615 70.036042 
L 194.577396 70.217578 
L 197.624079 69.975529 
L 198.131859 70.278091 
L 198.63964 70.247835 
L 199.14742 70.066298 
L 199.655201 70.005785 
L 200.162981 69.793992 
L 200.670762 70.157066 
L 201.686323 70.066298 
L 202.194103 69.945273 
L 202.701884 70.005785 
L 203.209664 69.884761 
L 203.717445 70.12681 
L 204.733006 70.005785 
L 207.271908 69.915017 
L 207.779689 70.187322 
L 208.287469 69.975529 
L 209.30303 70.066298 
L 209.810811 69.915017 
L 210.318591 70.217578 
L 210.826372 70.096554 
L 211.334152 70.278091 
L 211.841933 70.157066 
L 212.349713 70.217578 
L 212.857494 70.157066 
L 213.365274 70.217578 
L 213.873055 70.005785 
L 214.380835 70.247835 
L 214.888616 69.945273 
L 215.396396 70.12681 
L 216.411957 70.036042 
L 219.45864 70.217578 
L 219.966421 70.036042 
L 220.474201 70.247835 
L 221.997543 69.884761 
L 223.013104 70.187322 
L 223.520885 69.945273 
L 225.044226 70.12681 
L 226.567568 69.975529 
L 227.075348 70.066298 
L 227.583129 69.884761 
L 228.090909 69.975529 
L 229.10647 70.005785 
L 230.122031 70.005785 
L 230.629812 69.945273 
L 231.137592 70.005785 
L 231.645373 69.945273 
L 232.660934 70.12681 
L 233.168714 70.187322 
L 233.676495 70.036042 
L 234.184275 70.217578 
L 235.707617 70.036042 
L 236.215397 70.005785 
L 236.723178 70.247835 
L 237.230958 70.096554 
L 238.246519 70.157066 
L 238.7543 70.066298 
L 239.26208 70.096554 
L 239.769861 70.247835 
L 240.277641 70.066298 
L 240.785422 70.217578 
L 241.293202 70.096554 
L 242.816544 70.217578 
L 243.832105 69.975529 
L 244.339885 70.187322 
L 244.847666 70.217578 
L 245.355446 70.096554 
L 246.878788 70.247835 
L 247.386568 70.036042 
L 249.41769 70.157066 
L 250.433251 70.066298 
L 250.941032 70.187322 
L 251.448812 70.005785 
L 252.464373 70.187322 
L 252.972154 70.036042 
L 254.495495 69.884761 
L 255.511057 70.157066 
L 256.018837 70.005785 
L 256.526618 70.096554 
L 257.542179 69.945273 
L 258.049959 70.096554 
L 258.55774 70.12681 
L 259.573301 69.854505 
L 260.588862 70.12681 
L 262.112203 69.975529 
L 262.619984 70.096554 
L 263.127764 70.096554 
L 263.635545 69.945273 
L 264.143325 70.005785 
L 264.651106 69.915017 
L 265.158886 70.187322 
L 265.666667 69.945273 
L 266.174447 70.066298 
L 267.190008 69.975529 
L 268.71335 69.975529 
L 269.22113 70.096554 
L 269.728911 69.945273 
L 272.775594 70.036042 
L 276.837838 70.036042 
L 277.853399 70.278091 
L 278.361179 70.157066 
L 278.86896 69.854505 
L 279.37674 70.066298 
L 279.884521 69.975529 
L 280.392301 70.066298 
L 280.900082 69.975529 
L 281.407862 70.005785 
L 281.915643 69.884761 
L 282.931204 70.066298 
L 283.438984 70.005785 
L 284.454545 70.096554 
L 285.470106 70.217578 
L 285.977887 70.036042 
L 286.485667 70.096554 
L 287.501229 69.945273 
L 289.532351 70.217578 
L 290.040131 70.066298 
L 291.563473 70.096554 
L 292.071253 70.036042 
L 292.579034 70.278091 
L 293.594595 69.975529 
L 294.102375 70.066298 
L 294.610156 69.915017 
L 296.133497 70.005785 
L 296.641278 70.187322 
L 297.656839 69.945273 
L 298.164619 70.157066 
L 298.6724 69.975529 
L 299.18018 69.945273 
L 299.687961 70.157066 
L 300.703522 69.975529 
L 301.211302 70.096554 
L 301.719083 70.066298 
L 302.226863 70.157066 
L 304.765766 69.945273 
L 306.289107 70.066298 
L 308.82801 70.005785 
L 309.33579 70.12681 
L 312.382473 70.005785 
L 312.890254 70.187322 
L 313.398034 70.005785 
L 313.905815 70.066298 
L 314.413595 69.915017 
L 314.921376 70.036042 
L 315.429156 69.975529 
L 315.936937 70.066298 
L 316.444717 69.945273 
L 316.952498 70.005785 
L 317.460278 69.793992 
L 317.968059 70.005785 
L 318.98362 70.036042 
L 319.4914 70.12681 
L 321.014742 69.915017 
L 323.045864 70.066298 
L 324.569206 70.036042 
L 327.615889 70.217578 
L 328.63145 70.096554 
L 330.662572 70.005785 
L 331.678133 70.066298 
L 332.185913 70.005785 
L 332.693694 70.308347 
L 333.201474 70.247835 
L 333.709255 70.005785 
L 336.248157 70.096554 
L 336.755938 70.12681 
L 337.263718 69.945273 
L 337.771499 70.066298 
L 340.818182 70.066298 
L 341.325962 70.278091 
L 341.833743 70.036042 
L 342.849304 70.066298 
L 344.880426 70.066298 
L 345.388206 69.884761 
L 345.895987 70.096554 
L 346.403767 69.884761 
L 347.419328 70.066298 
L 347.927109 69.884761 
L 348.434889 69.945273 
L 349.45045 69.915017 
L 351.989353 70.096554 
L 352.497133 69.945273 
L 353.004914 70.036042 
L 353.512695 70.005785 
L 354.020475 70.157066 
L 354.528256 70.12681 
L 355.036036 70.217578 
L 355.543817 70.005785 
L 356.051597 70.096554 
L 358.5905 70.005785 
L 360.621622 70.157066 
L 361.129402 70.005785 
L 364.176085 70.096554 
L 366.207207 69.854505 
L 367.222768 69.945273 
L 368.74611 70.096554 
L 369.25389 70.005785 
L 370.777232 70.187322 
L 371.792793 70.036042 
L 372.808354 70.157066 
L 374.331695 70.066298 
L 374.839476 70.157066 
L 376.870598 70.005785 
L 377.886159 70.036042 
L 378.393939 70.187322 
L 380.425061 70.036042 
L 382.456183 69.975529 
L 383.979525 70.005785 
L 384.995086 69.884761 
L 385.502867 70.036042 
L 386.010647 69.884761 
L 386.518428 70.036042 
L 387.026208 69.975529 
L 388.54955 70.066298 
L 389.05733 69.945273 
L 389.565111 70.066298 
L 392.104013 69.975529 
L 392.611794 70.036042 
L 393.119574 69.975529 
L 394.135135 70.036042 
L 404.798526 70.036042 
L 405.306306 69.884761 
L 405.814087 70.036042 
L 406.321867 69.945273 
L 407.845209 70.066298 
L 410.384111 69.975529 
L 410.891892 69.945273 
L 411.399672 70.036042 
L 412.415233 69.975529 
L 412.923014 70.005785 
L 413.430794 69.884761 
L 415.461916 70.036042 
L 415.969697 69.945273 
L 416.477477 70.036042 
L 416.985258 69.975529 
L 418.000819 70.096554 
L 419.01638 69.975529 
L 622.636364 69.915017 
L 622.636364 69.915017 
" clip-path="url(#pe10859dbae)" style="fill: none; stroke: #ff7f0e; stroke-width: 1.5; stroke-linecap: square"/>
   </g>
   <g id="line2d_15">
    <path d="M 115.363636 358.495977 
L 115.871417 358.539386 
L 116.379197 358.718037 
L 117.394758 366.62292 
L 117.902539 367.396496 
L 118.9181 368.017355 
L 119.933661 368.338801 
L 122.472563 368.709151 
L 127.550369 368.957138 
L 153.954955 369.22249 
L 163.095004 369.251108 
L 225.552007 369.33178 
L 244.847666 369.339363 
L 285.470106 369.348821 
L 475.380016 369.359813 
L 622.636364 369.359977 
L 622.636364 369.359977 
" clip-path="url(#pe10859dbae)" style="fill: none; stroke: #2ca02c; stroke-width: 1.5; stroke-linecap: square"/>
   </g>
   <g id="line2d_16">
    <path d="M 115.363636 358.528349 
L 115.871417 358.609808 
L 116.379197 359.148598 
L 116.886978 366.619978 
L 117.394758 367.547066 
L 117.902539 367.958205 
L 119.42588 368.553612 
L 121.457002 368.844163 
L 125.011466 369.022707 
L 130.089271 369.098595 
L 133.135954 369.138896 
L 184.421785 369.222719 
L 190.007371 369.215829 
L 206.764128 369.210279 
L 327.108108 369.162531 
L 331.678133 369.168804 
L 341.325962 369.149716 
L 349.45045 369.161558 
L 371.285012 369.154154 
L 403.275184 369.147102 
L 430.695332 369.127949 
L 442.882064 369.13692 
L 470.302211 369.12254 
L 527.681409 369.115997 
L 554.085995 369.112104 
L 622.636364 369.106972 
L 622.636364 369.106972 
" clip-path="url(#pe10859dbae)" style="fill: none; stroke: #d62728; stroke-width: 1.5; stroke-linecap: square"/>
   </g>
   <g id="patch_3">
    <path d="M 90 384.48 
L 90 51.84 
" style="fill: none; stroke: #000000; stroke-width: 0.8; stroke-linejoin: miter; stroke-linecap: square"/>
   </g>
   <g id="patch_4">
    <path d="M 648 384.48 
L 648 51.84 
" style="fill: none; stroke: #000000; stroke-width: 0.8; stroke-linejoin: miter; stroke-linecap: square"/>
   </g>
   <g id="patch_5">
    <path d="M 90 384.48 
L 648 384.48 
" style="fill: none; stroke: #000000; stroke-width: 0.8; stroke-linejoin: miter; stroke-linecap: square"/>
   </g>
   <g id="patch_6">
    <path d="M 90 51.84 
L 648 51.84 
" style="fill: none; stroke: #000000; stroke-width: 0.8; stroke-linejoin: miter; stroke-linecap: square"/>
   </g>
   <g id="text_15">
    <!-- Accuracy -->
    <g transform="translate(341.60625 45.84) scale(0.12 -0.12)">
     <use xlink:href="#DejaVuSans-41"/>
     <use xlink:href="#DejaVuSans-63" x="66.658203"/>
     <use xlink:href="#DejaVuSans-63" x="121.638672"/>
     <use xlink:href="#DejaVuSans-75" x="176.619141"/>
     <use xlink:href="#DejaVuSans-72" x="239.998047"/>
     <use xlink:href="#DejaVuSans-61" x="281.111328"/>
     <use xlink:href="#DejaVuSans-63" x="342.390625"/>
     <use xlink:href="#DejaVuSans-79" x="397.371094"/>
    </g>
   </g>
   <g id="legend_1">
    <g id="patch_7">
     <path d="M 560.696875 249.5725 
L 641 249.5725 
Q 643 249.5725 643 247.5725 
L 643 188.7475 
Q 643 186.7475 641 186.7475 
L 560.696875 186.7475 
Q 558.696875 186.7475 558.696875 188.7475 
L 558.696875 247.5725 
Q 558.696875 249.5725 560.696875 249.5725 
z
" style="fill: #ffffff; opacity: 0.8; stroke: #cccccc; stroke-linejoin: miter"/>
    </g>
    <g id="line2d_17">
     <path d="M 562.696875 194.845937 
L 572.696875 194.845937 
L 582.696875 194.845937 
" style="fill: none; stroke: #1f77b4; stroke-width: 1.5; stroke-linecap: square"/>
    </g>
    <g id="text_16">
     <!-- Train_acc -->
     <g transform="translate(590.696875 198.345937) scale(0.1 -0.1)">
      <defs>
       <path id="DejaVuSans-54" d="M -19 4666 
L 3928 4666 
L 3928 4134 
L 2272 4134 
L 2272 0 
L 1638 0 
L 1638 4134 
L -19 4134 
L -19 4666 
z
" transform="scale(0.015625)"/>
       <path id="DejaVuSans-69" d="M 603 3500 
L 1178 3500 
L 1178 0 
L 603 0 
L 603 3500 
z
M 603 4863 
L 1178 4863 
L 1178 4134 
L 603 4134 
L 603 4863 
z
" transform="scale(0.015625)"/>
       <path id="DejaVuSans-6e" d="M 3513 2113 
L 3513 0 
L 2938 0 
L 2938 2094 
Q 2938 2591 2744 2837 
Q 2550 3084 2163 3084 
Q 1697 3084 1428 2787 
Q 1159 2491 1159 1978 
L 1159 0 
L 581 0 
L 581 3500 
L 1159 3500 
L 1159 2956 
Q 1366 3272 1645 3428 
Q 1925 3584 2291 3584 
Q 2894 3584 3203 3211 
Q 3513 2838 3513 2113 
z
" transform="scale(0.015625)"/>
       <path id="DejaVuSans-5f" d="M 3263 -1063 
L 3263 -1509 
L -63 -1509 
L -63 -1063 
L 3263 -1063 
z
" transform="scale(0.015625)"/>
      </defs>
      <use xlink:href="#DejaVuSans-54"/>
      <use xlink:href="#DejaVuSans-72" x="46.333984"/>
      <use xlink:href="#DejaVuSans-61" x="87.447266"/>
      <use xlink:href="#DejaVuSans-69" x="148.726562"/>
      <use xlink:href="#DejaVuSans-6e" x="176.509766"/>
      <use xlink:href="#DejaVuSans-5f" x="239.888672"/>
      <use xlink:href="#DejaVuSans-61" x="289.888672"/>
      <use xlink:href="#DejaVuSans-63" x="351.167969"/>
      <use xlink:href="#DejaVuSans-63" x="406.148438"/>
     </g>
    </g>
    <g id="line2d_18">
     <path d="M 562.696875 209.802188 
L 572.696875 209.802188 
L 582.696875 209.802188 
" style="fill: none; stroke: #ff7f0e; stroke-width: 1.5; stroke-linecap: square"/>
    </g>
    <g id="text_17">
     <!-- Test_acc -->
     <g transform="translate(590.696875 213.302188) scale(0.1 -0.1)">
      <defs>
       <path id="DejaVuSans-65" d="M 3597 1894 
L 3597 1613 
L 953 1613 
Q 991 1019 1311 708 
Q 1631 397 2203 397 
Q 2534 397 2845 478 
Q 3156 559 3463 722 
L 3463 178 
Q 3153 47 2828 -22 
Q 2503 -91 2169 -91 
Q 1331 -91 842 396 
Q 353 884 353 1716 
Q 353 2575 817 3079 
Q 1281 3584 2069 3584 
Q 2775 3584 3186 3129 
Q 3597 2675 3597 1894 
z
M 3022 2063 
Q 3016 2534 2758 2815 
Q 2500 3097 2075 3097 
Q 1594 3097 1305 2825 
Q 1016 2553 972 2059 
L 3022 2063 
z
" transform="scale(0.015625)"/>
       <path id="DejaVuSans-73" d="M 2834 3397 
L 2834 2853 
Q 2591 2978 2328 3040 
Q 2066 3103 1784 3103 
Q 1356 3103 1142 2972 
Q 928 2841 928 2578 
Q 928 2378 1081 2264 
Q 1234 2150 1697 2047 
L 1894 2003 
Q 2506 1872 2764 1633 
Q 3022 1394 3022 966 
Q 3022 478 2636 193 
Q 2250 -91 1575 -91 
Q 1294 -91 989 -36 
Q 684 19 347 128 
L 347 722 
Q 666 556 975 473 
Q 1284 391 1588 391 
Q 1994 391 2212 530 
Q 2431 669 2431 922 
Q 2431 1156 2273 1281 
Q 2116 1406 1581 1522 
L 1381 1569 
Q 847 1681 609 1914 
Q 372 2147 372 2553 
Q 372 3047 722 3315 
Q 1072 3584 1716 3584 
Q 2034 3584 2315 3537 
Q 2597 3491 2834 3397 
z
" transform="scale(0.015625)"/>
       <path id="DejaVuSans-74" d="M 1172 4494 
L 1172 3500 
L 2356 3500 
L 2356 3053 
L 1172 3053 
L 1172 1153 
Q 1172 725 1289 603 
Q 1406 481 1766 481 
L 2356 481 
L 2356 0 
L 1766 0 
Q 1100 0 847 248 
Q 594 497 594 1153 
L 594 3053 
L 172 3053 
L 172 3500 
L 594 3500 
L 594 4494 
L 1172 4494 
z
" transform="scale(0.015625)"/>
      </defs>
      <use xlink:href="#DejaVuSans-54"/>
      <use xlink:href="#DejaVuSans-65" x="44.083984"/>
      <use xlink:href="#DejaVuSans-73" x="105.607422"/>
      <use xlink:href="#DejaVuSans-74" x="157.707031"/>
      <use xlink:href="#DejaVuSans-5f" x="196.916016"/>
      <use xlink:href="#DejaVuSans-61" x="246.916016"/>
      <use xlink:href="#DejaVuSans-63" x="308.195312"/>
      <use xlink:href="#DejaVuSans-63" x="363.175781"/>
     </g>
    </g>
    <g id="line2d_19">
     <path d="M 562.696875 224.758437 
L 572.696875 224.758437 
L 582.696875 224.758437 
" style="fill: none; stroke: #2ca02c; stroke-width: 1.5; stroke-linecap: square"/>
    </g>
    <g id="text_18">
     <!-- Train_loss -->
     <g transform="translate(590.696875 228.258437) scale(0.1 -0.1)">
      <defs>
       <path id="DejaVuSans-6c" d="M 603 4863 
L 1178 4863 
L 1178 0 
L 603 0 
L 603 4863 
z
" transform="scale(0.015625)"/>
      </defs>
      <use xlink:href="#DejaVuSans-54"/>
      <use xlink:href="#DejaVuSans-72" x="46.333984"/>
      <use xlink:href="#DejaVuSans-61" x="87.447266"/>
      <use xlink:href="#DejaVuSans-69" x="148.726562"/>
      <use xlink:href="#DejaVuSans-6e" x="176.509766"/>
      <use xlink:href="#DejaVuSans-5f" x="239.888672"/>
      <use xlink:href="#DejaVuSans-6c" x="289.888672"/>
      <use xlink:href="#DejaVuSans-6f" x="317.671875"/>
      <use xlink:href="#DejaVuSans-73" x="378.853516"/>
      <use xlink:href="#DejaVuSans-73" x="430.953125"/>
     </g>
    </g>
    <g id="line2d_20">
     <path d="M 562.696875 239.714687 
L 572.696875 239.714687 
L 582.696875 239.714687 
" style="fill: none; stroke: #d62728; stroke-width: 1.5; stroke-linecap: square"/>
    </g>
    <g id="text_19">
     <!-- Test_loss -->
     <g transform="translate(590.696875 243.214687) scale(0.1 -0.1)">
      <use xlink:href="#DejaVuSans-54"/>
      <use xlink:href="#DejaVuSans-65" x="44.083984"/>
      <use xlink:href="#DejaVuSans-73" x="105.607422"/>
      <use xlink:href="#DejaVuSans-74" x="157.707031"/>
      <use xlink:href="#DejaVuSans-5f" x="196.916016"/>
      <use xlink:href="#DejaVuSans-6c" x="246.916016"/>
      <use xlink:href="#DejaVuSans-6f" x="274.699219"/>
      <use xlink:href="#DejaVuSans-73" x="335.880859"/>
      <use xlink:href="#DejaVuSans-73" x="387.980469"/>
     </g>
    </g>
   </g>
  </g>
 </g>
 <defs>
  <clipPath id="pe10859dbae">
   <rect x="90" y="51.84" width="558" height="332.64"/>
  </clipPath>
 </defs>
</svg>
