<?xml version="1.0" encoding="utf-8" standalone="no"?>
<!DOCTYPE svg PUBLIC "-//W3C//DTD SVG 1.1//EN"
  "http://www.w3.org/Graphics/SVG/1.1/DTD/svg11.dtd">
<svg xmlns:xlink="http://www.w3.org/1999/xlink" width="720pt" height="432pt" viewBox="0 0 720 432" xmlns="http://www.w3.org/2000/svg" version="1.1">
 <metadata>
  <rdf:RDF xmlns:dc="http://purl.org/dc/elements/1.1/" xmlns:cc="http://creativecommons.org/ns#" xmlns:rdf="http://www.w3.org/1999/02/22-rdf-syntax-ns#">
   <cc:Work>
    <dc:type rdf:resource="http://purl.org/dc/dcmitype/StillImage"/>
    <dc:date>2023-04-17T16:47:29.311387</dc:date>
    <dc:format>image/svg+xml</dc:format>
    <dc:creator>
     <cc:Agent>
      <dc:title>Matplotlib v3.7.1, https://matplotlib.org/</dc:title>
     </cc:Agent>
    </dc:creator>
   </cc:Work>
  </rdf:RDF>
 </metadata>
 <defs>
  <style type="text/css">*{stroke-linejoin: round; stroke-linecap: butt}</style>
 </defs>
 <g id="figure_1">
  <g id="patch_1">
   <path d="M 0 432 
L 720 432 
L 720 0 
L 0 0 
z
" style="fill: #ffffff"/>
  </g>
  <g id="axes_1">
   <g id="patch_2">
    <path d="M 90 384.48 
L 648 384.48 
L 648 51.84 
L 90 51.84 
z
" style="fill: #ffffff"/>
   </g>
   <g id="matplotlib.axis_1">
    <g id="xtick_1">
     <g id="line2d_1">
      <defs>
       <path id="mae4b1a3f83" d="M 0 0 
L 0 3.5 
" style="stroke: #000000; stroke-width: 0.8"/>
      </defs>
      <g>
       <use xlink:href="#mae4b1a3f83" x="115.363636" y="384.48" style="stroke: #000000; stroke-width: 0.8"/>
      </g>
     </g>
     <g id="text_1">
      <!-- 0 -->
      <g transform="translate(112.182386 399.078438) scale(0.1 -0.1)">
       <defs>
        <path id="DejaVuSans-30" d="M 2034 4250 
Q 1547 4250 1301 3770 
Q 1056 3291 1056 2328 
Q 1056 1369 1301 889 
Q 1547 409 2034 409 
Q 2525 409 2770 889 
Q 3016 1369 3016 2328 
Q 3016 3291 2770 3770 
Q 2525 4250 2034 4250 
z
M 2034 4750 
Q 2819 4750 3233 4129 
Q 3647 3509 3647 2328 
Q 3647 1150 3233 529 
Q 2819 -91 2034 -91 
Q 1250 -91 836 529 
Q 422 1150 422 2328 
Q 422 3509 836 4129 
Q 1250 4750 2034 4750 
z
" transform="scale(0.015625)"/>
       </defs>
       <use xlink:href="#DejaVuSans-30"/>
      </g>
     </g>
    </g>
    <g id="xtick_2">
     <g id="line2d_2">
      <g>
       <use xlink:href="#mae4b1a3f83" x="216.919738" y="384.48" style="stroke: #000000; stroke-width: 0.8"/>
      </g>
     </g>
     <g id="text_2">
      <!-- 200 -->
      <g transform="translate(207.375988 399.078438) scale(0.1 -0.1)">
       <defs>
        <path id="DejaVuSans-32" d="M 1228 531 
L 3431 531 
L 3431 0 
L 469 0 
L 469 531 
Q 828 903 1448 1529 
Q 2069 2156 2228 2338 
Q 2531 2678 2651 2914 
Q 2772 3150 2772 3378 
Q 2772 3750 2511 3984 
Q 2250 4219 1831 4219 
Q 1534 4219 1204 4116 
Q 875 4013 500 3803 
L 500 4441 
Q 881 4594 1212 4672 
Q 1544 4750 1819 4750 
Q 2544 4750 2975 4387 
Q 3406 4025 3406 3419 
Q 3406 3131 3298 2873 
Q 3191 2616 2906 2266 
Q 2828 2175 2409 1742 
Q 1991 1309 1228 531 
z
" transform="scale(0.015625)"/>
       </defs>
       <use xlink:href="#DejaVuSans-32"/>
       <use xlink:href="#DejaVuSans-30" x="63.623047"/>
       <use xlink:href="#DejaVuSans-30" x="127.246094"/>
      </g>
     </g>
    </g>
    <g id="xtick_3">
     <g id="line2d_3">
      <g>
       <use xlink:href="#mae4b1a3f83" x="318.475839" y="384.48" style="stroke: #000000; stroke-width: 0.8"/>
      </g>
     </g>
     <g id="text_3">
      <!-- 400 -->
      <g transform="translate(308.932089 399.078438) scale(0.1 -0.1)">
       <defs>
        <path id="DejaVuSans-34" d="M 2419 4116 
L 825 1625 
L 2419 1625 
L 2419 4116 
z
M 2253 4666 
L 3047 4666 
L 3047 1625 
L 3713 1625 
L 3713 1100 
L 3047 1100 
L 3047 0 
L 2419 0 
L 2419 1100 
L 313 1100 
L 313 1709 
L 2253 4666 
z
" transform="scale(0.015625)"/>
       </defs>
       <use xlink:href="#DejaVuSans-34"/>
       <use xlink:href="#DejaVuSans-30" x="63.623047"/>
       <use xlink:href="#DejaVuSans-30" x="127.246094"/>
      </g>
     </g>
    </g>
    <g id="xtick_4">
     <g id="line2d_4">
      <g>
       <use xlink:href="#mae4b1a3f83" x="420.031941" y="384.48" style="stroke: #000000; stroke-width: 0.8"/>
      </g>
     </g>
     <g id="text_4">
      <!-- 600 -->
      <g transform="translate(410.488191 399.078438) scale(0.1 -0.1)">
       <defs>
        <path id="DejaVuSans-36" d="M 2113 2584 
Q 1688 2584 1439 2293 
Q 1191 2003 1191 1497 
Q 1191 994 1439 701 
Q 1688 409 2113 409 
Q 2538 409 2786 701 
Q 3034 994 3034 1497 
Q 3034 2003 2786 2293 
Q 2538 2584 2113 2584 
z
M 3366 4563 
L 3366 3988 
Q 3128 4100 2886 4159 
Q 2644 4219 2406 4219 
Q 1781 4219 1451 3797 
Q 1122 3375 1075 2522 
Q 1259 2794 1537 2939 
Q 1816 3084 2150 3084 
Q 2853 3084 3261 2657 
Q 3669 2231 3669 1497 
Q 3669 778 3244 343 
Q 2819 -91 2113 -91 
Q 1303 -91 875 529 
Q 447 1150 447 2328 
Q 447 3434 972 4092 
Q 1497 4750 2381 4750 
Q 2619 4750 2861 4703 
Q 3103 4656 3366 4563 
z
" transform="scale(0.015625)"/>
       </defs>
       <use xlink:href="#DejaVuSans-36"/>
       <use xlink:href="#DejaVuSans-30" x="63.623047"/>
       <use xlink:href="#DejaVuSans-30" x="127.246094"/>
      </g>
     </g>
    </g>
    <g id="xtick_5">
     <g id="line2d_5">
      <g>
       <use xlink:href="#mae4b1a3f83" x="521.588043" y="384.48" style="stroke: #000000; stroke-width: 0.8"/>
      </g>
     </g>
     <g id="text_5">
      <!-- 800 -->
      <g transform="translate(512.044293 399.078438) scale(0.1 -0.1)">
       <defs>
        <path id="DejaVuSans-38" d="M 2034 2216 
Q 1584 2216 1326 1975 
Q 1069 1734 1069 1313 
Q 1069 891 1326 650 
Q 1584 409 2034 409 
Q 2484 409 2743 651 
Q 3003 894 3003 1313 
Q 3003 1734 2745 1975 
Q 2488 2216 2034 2216 
z
M 1403 2484 
Q 997 2584 770 2862 
Q 544 3141 544 3541 
Q 544 4100 942 4425 
Q 1341 4750 2034 4750 
Q 2731 4750 3128 4425 
Q 3525 4100 3525 3541 
Q 3525 3141 3298 2862 
Q 3072 2584 2669 2484 
Q 3125 2378 3379 2068 
Q 3634 1759 3634 1313 
Q 3634 634 3220 271 
Q 2806 -91 2034 -91 
Q 1263 -91 848 271 
Q 434 634 434 1313 
Q 434 1759 690 2068 
Q 947 2378 1403 2484 
z
M 1172 3481 
Q 1172 3119 1398 2916 
Q 1625 2713 2034 2713 
Q 2441 2713 2670 2916 
Q 2900 3119 2900 3481 
Q 2900 3844 2670 4047 
Q 2441 4250 2034 4250 
Q 1625 4250 1398 4047 
Q 1172 3844 1172 3481 
z
" transform="scale(0.015625)"/>
       </defs>
       <use xlink:href="#DejaVuSans-38"/>
       <use xlink:href="#DejaVuSans-30" x="63.623047"/>
       <use xlink:href="#DejaVuSans-30" x="127.246094"/>
      </g>
     </g>
    </g>
    <g id="xtick_6">
     <g id="line2d_6">
      <g>
       <use xlink:href="#mae4b1a3f83" x="623.144144" y="384.48" style="stroke: #000000; stroke-width: 0.8"/>
      </g>
     </g>
     <g id="text_6">
      <!-- 1000 -->
      <g transform="translate(610.419144 399.078438) scale(0.1 -0.1)">
       <defs>
        <path id="DejaVuSans-31" d="M 794 531 
L 1825 531 
L 1825 4091 
L 703 3866 
L 703 4441 
L 1819 4666 
L 2450 4666 
L 2450 531 
L 3481 531 
L 3481 0 
L 794 0 
L 794 531 
z
" transform="scale(0.015625)"/>
       </defs>
       <use xlink:href="#DejaVuSans-31"/>
       <use xlink:href="#DejaVuSans-30" x="63.623047"/>
       <use xlink:href="#DejaVuSans-30" x="127.246094"/>
       <use xlink:href="#DejaVuSans-30" x="190.869141"/>
      </g>
     </g>
    </g>
    <g id="text_7">
     <!-- Epoch -->
     <g transform="translate(353.689062 412.756563) scale(0.1 -0.1)">
      <defs>
       <path id="DejaVuSans-45" d="M 628 4666 
L 3578 4666 
L 3578 4134 
L 1259 4134 
L 1259 2753 
L 3481 2753 
L 3481 2222 
L 1259 2222 
L 1259 531 
L 3634 531 
L 3634 0 
L 628 0 
L 628 4666 
z
" transform="scale(0.015625)"/>
       <path id="DejaVuSans-70" d="M 1159 525 
L 1159 -1331 
L 581 -1331 
L 581 3500 
L 1159 3500 
L 1159 2969 
Q 1341 3281 1617 3432 
Q 1894 3584 2278 3584 
Q 2916 3584 3314 3078 
Q 3713 2572 3713 1747 
Q 3713 922 3314 415 
Q 2916 -91 2278 -91 
Q 1894 -91 1617 61 
Q 1341 213 1159 525 
z
M 3116 1747 
Q 3116 2381 2855 2742 
Q 2594 3103 2138 3103 
Q 1681 3103 1420 2742 
Q 1159 2381 1159 1747 
Q 1159 1113 1420 752 
Q 1681 391 2138 391 
Q 2594 391 2855 752 
Q 3116 1113 3116 1747 
z
" transform="scale(0.015625)"/>
       <path id="DejaVuSans-6f" d="M 1959 3097 
Q 1497 3097 1228 2736 
Q 959 2375 959 1747 
Q 959 1119 1226 758 
Q 1494 397 1959 397 
Q 2419 397 2687 759 
Q 2956 1122 2956 1747 
Q 2956 2369 2687 2733 
Q 2419 3097 1959 3097 
z
M 1959 3584 
Q 2709 3584 3137 3096 
Q 3566 2609 3566 1747 
Q 3566 888 3137 398 
Q 2709 -91 1959 -91 
Q 1206 -91 779 398 
Q 353 888 353 1747 
Q 353 2609 779 3096 
Q 1206 3584 1959 3584 
z
" transform="scale(0.015625)"/>
       <path id="DejaVuSans-63" d="M 3122 3366 
L 3122 2828 
Q 2878 2963 2633 3030 
Q 2388 3097 2138 3097 
Q 1578 3097 1268 2742 
Q 959 2388 959 1747 
Q 959 1106 1268 751 
Q 1578 397 2138 397 
Q 2388 397 2633 464 
Q 2878 531 3122 666 
L 3122 134 
Q 2881 22 2623 -34 
Q 2366 -91 2075 -91 
Q 1284 -91 818 406 
Q 353 903 353 1747 
Q 353 2603 823 3093 
Q 1294 3584 2113 3584 
Q 2378 3584 2631 3529 
Q 2884 3475 3122 3366 
z
" transform="scale(0.015625)"/>
       <path id="DejaVuSans-68" d="M 3513 2113 
L 3513 0 
L 2938 0 
L 2938 2094 
Q 2938 2591 2744 2837 
Q 2550 3084 2163 3084 
Q 1697 3084 1428 2787 
Q 1159 2491 1159 1978 
L 1159 0 
L 581 0 
L 581 4863 
L 1159 4863 
L 1159 2956 
Q 1366 3272 1645 3428 
Q 1925 3584 2291 3584 
Q 2894 3584 3203 3211 
Q 3513 2838 3513 2113 
z
" transform="scale(0.015625)"/>
      </defs>
      <use xlink:href="#DejaVuSans-45"/>
      <use xlink:href="#DejaVuSans-70" x="63.183594"/>
      <use xlink:href="#DejaVuSans-6f" x="126.660156"/>
      <use xlink:href="#DejaVuSans-63" x="187.841797"/>
      <use xlink:href="#DejaVuSans-68" x="242.822266"/>
     </g>
    </g>
   </g>
   <g id="matplotlib.axis_2">
    <g id="ytick_1">
     <g id="line2d_7">
      <defs>
       <path id="mc3aabde1ee" d="M 0 0 
L -3.5 0 
" style="stroke: #000000; stroke-width: 0.8"/>
      </defs>
      <g>
       <use xlink:href="#mc3aabde1ee" x="90" y="369.369377" style="stroke: #000000; stroke-width: 0.8"/>
      </g>
     </g>
     <g id="text_8">
      <!-- 0.0 -->
      <g transform="translate(67.096875 373.168596) scale(0.1 -0.1)">
       <defs>
        <path id="DejaVuSans-2e" d="M 684 794 
L 1344 794 
L 1344 0 
L 684 0 
L 684 794 
z
" transform="scale(0.015625)"/>
       </defs>
       <use xlink:href="#DejaVuSans-30"/>
       <use xlink:href="#DejaVuSans-2e" x="63.623047"/>
       <use xlink:href="#DejaVuSans-30" x="95.410156"/>
      </g>
     </g>
    </g>
    <g id="ytick_2">
     <g id="line2d_8">
      <g>
       <use xlink:href="#mc3aabde1ee" x="90" y="308.84998" style="stroke: #000000; stroke-width: 0.8"/>
      </g>
     </g>
     <g id="text_9">
      <!-- 0.2 -->
      <g transform="translate(67.096875 312.649199) scale(0.1 -0.1)">
       <use xlink:href="#DejaVuSans-30"/>
       <use xlink:href="#DejaVuSans-2e" x="63.623047"/>
       <use xlink:href="#DejaVuSans-32" x="95.410156"/>
      </g>
     </g>
    </g>
    <g id="ytick_3">
     <g id="line2d_9">
      <g>
       <use xlink:href="#mc3aabde1ee" x="90" y="248.330582" style="stroke: #000000; stroke-width: 0.8"/>
      </g>
     </g>
     <g id="text_10">
      <!-- 0.4 -->
      <g transform="translate(67.096875 252.129801) scale(0.1 -0.1)">
       <use xlink:href="#DejaVuSans-30"/>
       <use xlink:href="#DejaVuSans-2e" x="63.623047"/>
       <use xlink:href="#DejaVuSans-34" x="95.410156"/>
      </g>
     </g>
    </g>
    <g id="ytick_4">
     <g id="line2d_10">
      <g>
       <use xlink:href="#mc3aabde1ee" x="90" y="187.811185" style="stroke: #000000; stroke-width: 0.8"/>
      </g>
     </g>
     <g id="text_11">
      <!-- 0.6 -->
      <g transform="translate(67.096875 191.610404) scale(0.1 -0.1)">
       <use xlink:href="#DejaVuSans-30"/>
       <use xlink:href="#DejaVuSans-2e" x="63.623047"/>
       <use xlink:href="#DejaVuSans-36" x="95.410156"/>
      </g>
     </g>
    </g>
    <g id="ytick_5">
     <g id="line2d_11">
      <g>
       <use xlink:href="#mc3aabde1ee" x="90" y="127.291787" style="stroke: #000000; stroke-width: 0.8"/>
      </g>
     </g>
     <g id="text_12">
      <!-- 0.8 -->
      <g transform="translate(67.096875 131.091006) scale(0.1 -0.1)">
       <use xlink:href="#DejaVuSans-30"/>
       <use xlink:href="#DejaVuSans-2e" x="63.623047"/>
       <use xlink:href="#DejaVuSans-38" x="95.410156"/>
      </g>
     </g>
    </g>
    <g id="ytick_6">
     <g id="line2d_12">
      <g>
       <use xlink:href="#mc3aabde1ee" x="90" y="66.77239" style="stroke: #000000; stroke-width: 0.8"/>
      </g>
     </g>
     <g id="text_13">
      <!-- 1.0 -->
      <g transform="translate(67.096875 70.571609) scale(0.1 -0.1)">
       <use xlink:href="#DejaVuSans-31"/>
       <use xlink:href="#DejaVuSans-2e" x="63.623047"/>
       <use xlink:href="#DejaVuSans-30" x="95.410156"/>
      </g>
     </g>
    </g>
    <g id="text_14">
     <!-- Accuracy -->
     <g transform="translate(61.017187 240.988125) rotate(-90) scale(0.1 -0.1)">
      <defs>
       <path id="DejaVuSans-41" d="M 2188 4044 
L 1331 1722 
L 3047 1722 
L 2188 4044 
z
M 1831 4666 
L 2547 4666 
L 4325 0 
L 3669 0 
L 3244 1197 
L 1141 1197 
L 716 0 
L 50 0 
L 1831 4666 
z
" transform="scale(0.015625)"/>
       <path id="DejaVuSans-75" d="M 544 1381 
L 544 3500 
L 1119 3500 
L 1119 1403 
Q 1119 906 1312 657 
Q 1506 409 1894 409 
Q 2359 409 2629 706 
Q 2900 1003 2900 1516 
L 2900 3500 
L 3475 3500 
L 3475 0 
L 2900 0 
L 2900 538 
Q 2691 219 2414 64 
Q 2138 -91 1772 -91 
Q 1169 -91 856 284 
Q 544 659 544 1381 
z
M 1991 3584 
L 1991 3584 
z
" transform="scale(0.015625)"/>
       <path id="DejaVuSans-72" d="M 2631 2963 
Q 2534 3019 2420 3045 
Q 2306 3072 2169 3072 
Q 1681 3072 1420 2755 
Q 1159 2438 1159 1844 
L 1159 0 
L 581 0 
L 581 3500 
L 1159 3500 
L 1159 2956 
Q 1341 3275 1631 3429 
Q 1922 3584 2338 3584 
Q 2397 3584 2469 3576 
Q 2541 3569 2628 3553 
L 2631 2963 
z
" transform="scale(0.015625)"/>
       <path id="DejaVuSans-61" d="M 2194 1759 
Q 1497 1759 1228 1600 
Q 959 1441 959 1056 
Q 959 750 1161 570 
Q 1363 391 1709 391 
Q 2188 391 2477 730 
Q 2766 1069 2766 1631 
L 2766 1759 
L 2194 1759 
z
M 3341 1997 
L 3341 0 
L 2766 0 
L 2766 531 
Q 2569 213 2275 61 
Q 1981 -91 1556 -91 
Q 1019 -91 701 211 
Q 384 513 384 1019 
Q 384 1609 779 1909 
Q 1175 2209 1959 2209 
L 2766 2209 
L 2766 2266 
Q 2766 2663 2505 2880 
Q 2244 3097 1772 3097 
Q 1472 3097 1187 3025 
Q 903 2953 641 2809 
L 641 3341 
Q 956 3463 1253 3523 
Q 1550 3584 1831 3584 
Q 2591 3584 2966 3190 
Q 3341 2797 3341 1997 
z
" transform="scale(0.015625)"/>
       <path id="DejaVuSans-79" d="M 2059 -325 
Q 1816 -950 1584 -1140 
Q 1353 -1331 966 -1331 
L 506 -1331 
L 506 -850 
L 844 -850 
Q 1081 -850 1212 -737 
Q 1344 -625 1503 -206 
L 1606 56 
L 191 3500 
L 800 3500 
L 1894 763 
L 2988 3500 
L 3597 3500 
L 2059 -325 
z
" transform="scale(0.015625)"/>
      </defs>
      <use xlink:href="#DejaVuSans-41"/>
      <use xlink:href="#DejaVuSans-63" x="66.658203"/>
      <use xlink:href="#DejaVuSans-63" x="121.638672"/>
      <use xlink:href="#DejaVuSans-75" x="176.619141"/>
      <use xlink:href="#DejaVuSans-72" x="239.998047"/>
      <use xlink:href="#DejaVuSans-61" x="281.111328"/>
      <use xlink:href="#DejaVuSans-63" x="342.390625"/>
      <use xlink:href="#DejaVuSans-79" x="397.371094"/>
     </g>
    </g>
   </g>
   <g id="line2d_13">
    <path d="M 115.363636 366.155797 
L 115.871417 364.975669 
L 116.379197 365.308526 
L 116.886978 355.480176 
L 117.394758 343.116063 
L 118.410319 330.606703 
L 123.995905 273.288782 
L 124.503686 268.519853 
L 126.027027 251.707565 
L 127.042588 240.77171 
L 128.058149 227.941597 
L 128.56593 222.742981 
L 134.151515 143.135766 
L 135.167076 131.503937 
L 136.690418 116.779568 
L 137.198198 115.042661 
L 137.705979 110.279785 
L 138.213759 106.951218 
L 138.72154 104.530442 
L 139.737101 98.69032 
L 140.244881 97.685698 
L 140.752662 94.932066 
L 141.768223 92.384199 
L 143.799345 86.410934 
L 144.307125 86.592493 
L 144.814906 85.309481 
L 145.322686 85.164235 
L 146.338247 82.313771 
L 147.861589 81.502811 
L 148.369369 80.619228 
L 148.87715 80.613176 
L 149.38493 79.560139 
L 149.892711 79.426996 
L 150.400491 77.932167 
L 150.908272 78.053206 
L 151.416052 77.605362 
L 151.923833 77.484323 
L 152.431613 77.169622 
L 152.939394 76.534169 
L 153.447174 76.873077 
L 153.954955 75.916871 
L 154.462735 76.407078 
L 154.970516 75.741365 
L 155.478296 75.469027 
L 155.986077 74.494665 
L 156.493857 74.857781 
L 157.001638 74.833574 
L 157.509419 74.930405 
L 158.52498 74.288899 
L 159.03276 74.01051 
L 159.540541 74.083133 
L 160.048321 73.726069 
L 160.556102 73.683705 
L 161.063882 73.096667 
L 161.571663 73.350848 
L 162.079443 73.247965 
L 162.587224 73.030096 
L 163.602785 73.01194 
L 164.110565 72.842485 
L 165.126126 72.642771 
L 165.633907 72.376486 
L 166.141687 72.636719 
L 166.649468 72.146512 
L 167.157248 72.164668 
L 167.665029 72.455161 
L 168.68059 71.674461 
L 169.18837 71.535266 
L 169.696151 71.771292 
L 171.219492 71.438435 
L 171.727273 71.099527 
L 173.250614 71.335552 
L 173.758395 70.857449 
L 174.773956 71.250825 
L 175.789517 70.881657 
L 176.297297 70.893761 
L 176.805078 70.681943 
L 177.312858 70.742462 
L 177.820639 70.451969 
L 178.328419 70.936124 
L 178.8362 70.161476 
L 179.34398 70.367242 
L 180.359541 70.131216 
L 180.867322 70.161476 
L 181.375102 70.42171 
L 181.882883 70.137268 
L 182.898444 69.919399 
L 183.406224 70.20384 
L 183.914005 69.79836 
L 184.929566 70.094905 
L 186.960688 69.671269 
L 187.468468 70.004126 
L 187.976249 69.792308 
L 188.484029 69.816516 
L 188.99181 69.653113 
L 190.515152 69.689425 
L 191.022932 69.441295 
L 191.530713 69.943606 
L 192.038493 69.507867 
L 193.054054 69.641009 
L 193.561835 69.326308 
L 194.577396 69.592594 
L 195.085176 69.060023 
L 195.592957 69.199218 
L 196.608518 69.168958 
L 198.63964 69.259737 
L 199.14742 69.156854 
L 199.655201 69.368672 
L 200.670762 68.890569 
L 201.686323 69.283945 
L 202.194103 69.259737 
L 202.701884 69.041867 
L 203.209664 69.241581 
L 203.717445 69.259737 
L 204.225225 68.975296 
L 204.733006 68.945036 
L 205.240786 69.078179 
L 205.748567 68.817946 
L 206.256347 68.981348 
L 207.779689 68.709011 
L 208.287469 68.872413 
L 208.79525 68.745322 
L 209.30303 68.793738 
L 209.810811 68.618231 
L 210.826372 68.763478 
L 211.334152 68.575868 
L 211.841933 68.775582 
L 212.857494 68.702959 
L 213.365274 68.951088 
L 213.873055 68.817946 
L 214.380835 68.860309 
L 214.888616 68.527452 
L 215.396396 68.55166 
L 215.904177 68.448777 
L 216.919738 68.721114 
L 217.427518 68.690855 
L 217.935299 68.448777 
L 218.95086 68.442725 
L 219.45864 68.624283 
L 220.474201 68.642439 
L 220.981982 68.442725 
L 221.489762 68.533504 
L 221.997543 68.243011 
L 222.505324 68.418517 
L 227.075348 68.261167 
L 228.090909 68.472985 
L 229.614251 68.261167 
L 230.629812 68.442725 
L 231.137592 68.182492 
L 231.645373 68.230907 
L 232.660934 68.091713 
L 233.168714 68.388258 
L 234.184275 68.2067 
L 234.692056 68.406414 
L 235.707617 68.249063 
L 236.215397 68.000934 
L 236.723178 68.031193 
L 237.230958 68.255115 
L 237.738739 68.339842 
L 238.246519 68.121972 
L 239.769861 68.067505 
L 240.785422 68.273271 
L 241.293202 68.079609 
L 242.308763 68.182492 
L 242.816544 67.98883 
L 243.832105 67.922258 
L 244.339885 68.194596 
L 244.847666 68.243011 
L 245.863227 67.916206 
L 246.878788 68.019089 
L 247.386568 67.879895 
L 248.402129 68.121972 
L 251.956593 68.043297 
L 252.464373 67.825427 
L 252.972154 67.970674 
L 254.495495 67.849635 
L 255.511057 67.849635 
L 257.034398 67.77096 
L 257.542179 67.994882 
L 258.049959 67.789116 
L 258.55774 67.898051 
L 259.06552 67.662025 
L 261.604423 67.994882 
L 262.112203 67.692285 
L 263.127764 67.885947 
L 264.143325 67.686233 
L 265.158886 67.916206 
L 266.682228 67.77096 
L 267.190008 67.95857 
L 267.697789 67.716492 
L 268.205569 67.891999 
L 268.71335 67.643869 
L 269.22113 67.861739 
L 270.236691 67.795168 
L 270.744472 67.879895 
L 271.760033 67.698337 
L 274.298935 67.831479 
L 274.806716 67.692285 
L 275.314496 67.77096 
L 275.822277 67.601506 
L 277.345618 67.752804 
L 277.853399 67.595454 
L 278.86896 67.692285 
L 279.37674 67.565194 
L 280.392301 67.722544 
L 282.423423 67.595454 
L 283.946765 67.619661 
L 284.454545 67.55309 
L 285.470106 67.722544 
L 285.977887 67.601506 
L 290.040131 67.613609 
L 291.055692 67.662025 
L 292.579034 67.625713 
L 293.086814 67.438103 
L 293.594595 67.637817 
L 294.102375 67.510727 
L 295.117936 67.680181 
L 296.133497 67.450207 
L 296.641278 67.565194 
L 297.149058 67.438103 
L 298.164619 67.577298 
L 299.18018 67.377584 
L 299.687961 67.534934 
L 302.226863 67.401792 
L 302.734644 67.595454 
L 303.242424 67.601506 
L 303.750205 67.456259 
L 304.257985 67.547038 
L 304.765766 67.498623 
L 305.273546 67.643869 
L 306.289107 67.607558 
L 306.796888 67.456259 
L 307.304668 67.58335 
L 308.82801 67.55309 
L 309.843571 67.619661 
L 310.351351 67.492571 
L 312.890254 67.534934 
L 313.398034 67.353376 
L 313.905815 67.565194 
L 314.413595 67.462311 
L 315.936937 67.55309 
L 316.444717 67.39574 
L 316.952498 67.510727 
L 317.460278 67.39574 
L 317.968059 67.55309 
L 318.475839 67.401792 
L 319.999181 67.492571 
L 320.506962 67.389688 
L 321.014742 67.528882 
L 322.030303 67.371532 
L 323.045864 67.510727 
L 323.553645 67.589402 
L 324.061425 67.547038 
L 324.569206 67.359428 
L 327.108108 67.468363 
L 327.615889 67.329168 
L 328.123669 67.450207 
L 328.63145 67.371532 
L 329.13923 67.528882 
L 329.647011 67.389688 
L 330.154791 67.377584 
L 330.662572 67.516778 
L 331.170352 67.516778 
L 331.678133 67.359428 
L 332.693694 67.456259 
L 333.709255 67.432051 
L 334.724816 67.39574 
L 335.232596 67.317064 
L 335.740377 67.413895 
L 336.248157 67.286805 
L 337.263718 67.486519 
L 338.279279 67.33522 
L 338.78706 67.413895 
L 339.802621 67.341272 
L 341.325962 67.504675 
L 342.849304 67.347324 
L 343.357084 67.36548 
L 343.864865 67.565194 
L 345.388206 67.383636 
L 345.895987 67.498623 
L 348.434889 67.347324 
L 354.020475 67.383636 
L 354.528256 67.304961 
L 355.036036 67.377584 
L 355.543817 67.280753 
L 356.051597 67.359428 
L 357.067158 67.347324 
L 357.574939 67.432051 
L 358.5905 67.298909 
L 359.09828 67.432051 
L 359.606061 67.33522 
L 360.621622 67.498623 
L 361.129402 67.274701 
L 362.144963 67.36548 
L 363.668305 67.238389 
L 364.176085 67.371532 
L 364.683866 67.298909 
L 366.207207 67.377584 
L 371.285012 67.202078 
L 371.792793 67.383636 
L 372.300573 67.214181 
L 374.331695 67.317064 
L 375.855037 67.33522 
L 376.362817 67.419947 
L 377.886159 67.268649 
L 378.393939 67.226285 
L 378.90172 67.323116 
L 381.948403 67.280753 
L 382.963964 67.36548 
L 383.979525 67.304961 
L 387.533989 67.317064 
L 388.041769 67.329168 
L 388.54955 67.196026 
L 389.05733 67.274701 
L 390.072891 67.214181 
L 390.580672 67.304961 
L 391.596233 67.244441 
L 392.104013 67.165766 
L 394.642916 67.371532 
L 395.150696 67.244441 
L 400.736282 67.189974 
L 401.751843 67.268649 
L 403.275184 67.135506 
L 403.782965 67.36548 
L 406.829648 67.159714 
L 410.891892 67.111298 
L 411.399672 67.298909 
L 412.923014 67.183922 
L 413.430794 67.256545 
L 414.446355 67.153662 
L 414.954136 67.298909 
L 415.969697 67.202078 
L 416.477477 67.189974 
L 416.985258 67.311013 
L 417.493038 67.20813 
L 418.000819 67.286805 
L 420.539722 67.159714 
L 422.063063 67.232337 
L 422.570844 67.183922 
L 423.078624 67.280753 
L 423.586405 67.159714 
L 424.601966 67.20813 
L 425.109746 67.153662 
L 425.617527 67.262597 
L 426.633088 67.202078 
L 427.140868 67.304961 
L 428.156429 67.171818 
L 430.187551 67.226285 
L 434.249795 67.189974 
L 435.265356 67.135506 
L 436.280917 67.256545 
L 436.788698 67.135506 
L 442.882064 67.189974 
L 443.389844 67.087091 
L 444.913186 67.371532 
L 445.420966 67.220233 
L 446.944308 67.20813 
L 447.452088 67.238389 
L 447.959869 67.111298 
L 448.467649 67.220233 
L 449.990991 67.093143 
L 450.498771 67.196026 
L 451.006552 67.111298 
L 451.514333 67.153662 
L 452.022113 67.038675 
L 452.529894 67.20813 
L 453.545455 67.153662 
L 454.561016 67.087091 
L 455.068796 67.220233 
L 455.576577 67.232337 
L 456.084357 67.123402 
L 457.099918 67.17787 
L 457.607699 67.099195 
L 458.115479 67.250493 
L 458.62326 67.099195 
L 459.638821 67.20813 
L 461.162162 67.081039 
L 461.669943 67.189974 
L 462.177723 67.11735 
L 463.193284 67.159714 
L 464.716626 67.159714 
L 467.763309 67.183922 
L 468.77887 67.196026 
L 469.28665 67.153662 
L 469.794431 67.250493 
L 473.348894 67.129454 
L 474.872236 67.20813 
L 475.887797 67.105247 
L 476.395577 67.129454 
L 476.903358 67.268649 
L 477.411138 67.11735 
L 482.996724 67.026571 
L 483.504505 67.165766 
L 484.012285 67.11735 
L 484.520066 67.183922 
L 485.027846 67.074987 
L 486.043407 67.159714 
L 488.074529 67.044727 
L 489.597871 67.14761 
L 493.660115 67.099195 
L 494.675676 67.123402 
L 498.230139 67.153662 
L 499.2457 67.032623 
L 500.769042 67.093143 
L 501.784603 67.062883 
L 502.292383 67.220233 
L 502.800164 67.056831 
L 508.89353 67.105247 
L 509.40131 67.189974 
L 510.416871 67.093143 
L 512.447993 67.220233 
L 516.002457 67.074987 
L 516.510238 67.20813 
L 518.033579 67.056831 
L 518.54136 67.141558 
L 519.556921 67.032623 
L 520.572482 67.129454 
L 521.080262 67.056831 
L 522.095823 67.129454 
L 530.728092 67.123402 
L 531.743653 67.129454 
L 532.251433 67.038675 
L 534.282555 67.11735 
L 538.344799 67.062883 
L 539.36036 67.020519 
L 540.883702 67.111298 
L 541.899263 67.074987 
L 542.914824 67.038675 
L 544.438165 67.141558 
L 544.945946 67.093143 
L 545.453726 67.17787 
L 546.469287 67.026571 
L 547.484848 67.111298 
L 547.992629 67.038675 
L 549.515971 67.062883 
L 550.023751 67.008416 
L 550.531532 67.111298 
L 553.070434 67.081039 
L 554.085995 67.099195 
L 555.101556 67.165766 
L 555.609337 67.008416 
L 556.624898 67.202078 
L 557.640459 67.002364 
L 558.65602 67.050779 
L 560.687142 66.99026 
L 561.702703 67.038675 
L 562.210483 67.141558 
L 564.241605 67.056831 
L 566.272727 67.17787 
L 566.780508 67.020519 
L 567.796069 67.081039 
L 568.303849 67.165766 
L 568.81163 67.020519 
L 570.334971 67.153662 
L 570.842752 67.020519 
L 572.873874 67.008416 
L 580.490581 67.129454 
L 580.998362 67.026571 
L 582.521704 67.105247 
L 583.029484 67.044727 
L 583.537265 67.111298 
L 585.060606 67.014467 
L 586.583948 67.050779 
L 589.12285 67.014467 
L 589.630631 67.202078 
L 590.138411 67.002364 
L 590.646192 67.141558 
L 592.677314 67.008416 
L 593.692875 67.081039 
L 595.723997 66.96 
L 596.739558 67.093143 
L 601.817363 67.044727 
L 603.340704 67.068935 
L 603.848485 67.008416 
L 604.864046 67.105247 
L 614.004095 67.093143 
L 615.527437 67.068935 
L 620.097461 66.99026 
L 620.605242 67.081039 
L 622.636364 67.062883 
L 622.636364 67.062883 
" clip-path="url(#p1511803c48)" style="fill: none; stroke: #1f77b4; stroke-width: 1.5; stroke-linecap: square"/>
   </g>
   <g id="line2d_14">
    <path d="M 115.363636 362.924061 
L 115.871417 364.769903 
L 116.379197 360.957181 
L 116.886978 346.311487 
L 117.902539 330.213327 
L 119.933661 309.424914 
L 120.441441 303.100637 
L 120.949222 300.316745 
L 121.964783 291.904549 
L 122.472563 287.426113 
L 122.980344 289.332474 
L 123.488124 280.859758 
L 123.995905 277.470672 
L 124.503686 274.868338 
L 125.011466 269.875488 
L 125.519247 266.335103 
L 126.027027 265.790428 
L 126.534808 261.463292 
L 127.042588 260.131865 
L 127.550369 258.043946 
L 128.058149 255.139015 
L 128.56593 254.231224 
L 129.07371 252.56694 
L 129.581491 252.113045 
L 130.089271 248.814738 
L 130.597052 250.236943 
L 131.612613 247.210973 
L 132.120393 246.696559 
L 132.628174 250.297463 
L 133.135954 247.967466 
L 133.643735 247.51357 
L 134.659296 246.272923 
L 135.674857 244.57838 
L 136.182637 243.428511 
L 136.690418 245.788768 
L 137.198198 245.758508 
L 137.705979 243.942926 
L 138.213759 246.091365 
L 138.72154 244.396821 
L 139.22932 245.57695 
L 139.737101 244.306042 
L 140.244881 244.820457 
L 140.752662 244.51786 
L 141.260442 243.367992 
L 141.768223 244.699418 
L 142.276003 241.703708 
L 142.783784 243.095654 
L 143.291564 242.823317 
L 143.799345 245.637469 
L 144.307125 242.006305 
L 144.814906 244.275783 
L 145.322686 242.157604 
L 145.830467 241.55241 
L 146.338247 242.611499 
L 146.846028 243.065395 
L 147.353808 244.638899 
L 147.861589 242.58124 
L 148.369369 242.036565 
L 148.87715 242.218123 
L 149.38493 241.007735 
L 149.892711 241.612929 
L 150.400491 241.673449 
L 150.908272 240.886696 
L 151.416052 239.888126 
L 151.923833 242.339162 
L 152.431613 241.128774 
L 152.939394 241.068255 
L 153.447174 241.58267 
L 153.954955 240.826177 
L 154.462735 241.733968 
L 154.970516 239.252673 
L 155.478296 239.403971 
L 156.493857 240.402541 
L 157.001638 241.431371 
L 157.509419 239.464491 
L 158.017199 240.614359 
L 158.52498 238.980335 
L 159.03276 241.098514 
L 159.540541 240.55384 
L 160.048321 240.947216 
L 160.556102 241.612929 
L 161.063882 238.707998 
L 162.079443 240.190723 
L 162.587224 239.797347 
L 163.095004 240.039425 
L 163.602785 240.584099 
L 164.110565 240.432801 
L 164.618346 241.733968 
L 165.126126 240.009165 
L 165.633907 239.161894 
L 166.141687 239.313192 
L 166.649468 239.918386 
L 167.157248 241.885266 
L 167.665029 238.859297 
L 168.172809 239.282932 
L 168.68059 239.252673 
L 169.18837 239.857867 
L 169.696151 238.859297 
L 170.203931 238.889556 
L 170.711712 238.52644 
L 171.219492 238.889556 
L 171.727273 238.012025 
L 172.235053 240.251243 
L 172.742834 239.52501 
L 173.250614 239.373711 
L 173.758395 239.343452 
L 174.266175 240.069685 
L 174.773956 238.798777 
L 175.281736 238.617219 
L 175.789517 239.313192 
L 176.297297 239.403971 
L 176.805078 237.769947 
L 177.312858 238.465921 
L 177.820639 240.220983 
L 178.328419 238.768518 
L 178.8362 238.889556 
L 179.34398 239.464491 
L 179.851761 238.859297 
L 180.359541 238.52644 
L 180.867322 237.648909 
L 181.375102 238.193583 
L 181.882883 238.950076 
L 182.390663 238.586959 
L 182.898444 238.49618 
L 183.406224 240.432801 
L 183.914005 238.980335 
L 184.421785 238.163324 
L 184.929566 238.829037 
L 185.437346 239.888126 
L 185.945127 238.647479 
L 186.452907 238.254103 
L 186.960688 238.768518 
L 187.468468 238.980335 
L 187.976249 238.950076 
L 188.99181 237.46735 
L 189.49959 237.013455 
L 190.007371 238.042285 
L 190.515152 238.768518 
L 191.022932 239.161894 
L 191.530713 238.314622 
L 192.038493 238.254103 
L 192.546274 238.980335 
L 193.054054 240.190723 
L 193.561835 239.434231 
L 194.577396 237.225273 
L 195.085176 239.192153 
L 195.592957 239.040855 
L 196.100737 237.800207 
L 196.608518 237.225273 
L 197.116298 238.5567 
L 197.624079 237.739688 
L 198.131859 238.5567 
L 198.63964 237.951506 
L 199.14742 237.890986 
L 199.655201 237.55813 
L 200.670762 237.769947 
L 201.178542 238.133064 
L 201.686323 239.040855 
L 202.194103 238.49618 
L 203.209664 238.889556 
L 203.717445 238.042285 
L 204.225225 238.859297 
L 204.733006 239.101374 
L 205.240786 237.316052 
L 205.748567 238.738258 
L 206.256347 238.980335 
L 206.764128 238.102804 
L 207.271908 238.919816 
L 207.779689 238.314622 
L 208.287469 237.49761 
L 208.79525 238.223843 
L 209.30303 238.133064 
L 209.810811 237.648909 
L 210.318591 237.52787 
L 210.826372 236.983195 
L 211.334152 237.073974 
L 211.841933 238.49618 
L 212.349713 237.709428 
L 212.857494 238.405401 
L 213.365274 238.435661 
L 213.873055 237.890986 
L 214.380835 239.010595 
L 214.888616 238.980335 
L 215.396396 238.284362 
L 215.904177 238.314622 
L 216.411957 238.707998 
L 216.919738 237.890986 
L 217.427518 239.313192 
L 218.443079 237.648909 
L 218.95086 238.586959 
L 219.45864 237.769947 
L 219.966421 238.889556 
L 220.474201 238.012025 
L 220.981982 237.709428 
L 221.489762 239.131634 
L 221.997543 237.739688 
L 222.505324 238.707998 
L 223.013104 238.405401 
L 223.520885 238.344882 
L 224.028665 238.133064 
L 224.536446 237.800207 
L 225.044226 238.49618 
L 225.552007 238.072544 
L 226.059787 236.46878 
L 226.567568 237.830467 
L 227.075348 236.862157 
L 227.583129 237.346312 
L 228.090909 237.618649 
L 228.59869 237.195013 
L 229.10647 237.46735 
L 229.614251 237.921246 
L 230.122031 236.922676 
L 230.629812 237.316052 
L 231.137592 236.650339 
L 231.645373 242.339162 
L 232.153153 238.163324 
L 232.660934 237.588389 
L 233.168714 238.102804 
L 233.676495 238.012025 
L 234.184275 238.042285 
L 234.692056 237.588389 
L 235.199836 237.951506 
L 235.707617 238.980335 
L 236.215397 236.952936 
L 236.723178 237.406831 
L 237.230958 237.104234 
L 237.738739 237.46735 
L 238.246519 237.043715 
L 238.7543 237.49761 
L 239.26208 238.193583 
L 239.769861 237.951506 
L 240.277641 237.890986 
L 240.785422 238.950076 
L 241.293202 236.589819 
L 241.800983 238.193583 
L 242.308763 237.316052 
L 242.816544 237.225273 
L 243.324324 237.588389 
L 243.832105 238.49618 
L 244.339885 238.284362 
L 244.847666 238.889556 
L 245.355446 236.983195 
L 245.863227 237.830467 
L 246.371007 237.255533 
L 246.878788 238.798777 
L 247.386568 237.921246 
L 247.894349 238.344882 
L 248.402129 237.800207 
L 248.90991 238.435661 
L 249.41769 238.254103 
L 249.925471 237.49761 
L 250.433251 238.738258 
L 251.448812 237.951506 
L 251.956593 238.405401 
L 252.464373 239.52501 
L 252.972154 238.163324 
L 253.479934 237.648909 
L 253.987715 238.254103 
L 254.495495 238.314622 
L 255.511057 237.46735 
L 256.018837 237.285792 
L 256.526618 238.072544 
L 257.034398 237.981765 
L 257.542179 238.617219 
L 258.049959 237.316052 
L 258.55774 238.163324 
L 259.06552 237.830467 
L 259.573301 238.344882 
L 260.588862 237.376571 
L 261.604423 238.375141 
L 262.619984 237.769947 
L 263.127764 238.102804 
L 263.635545 237.316052 
L 264.143325 238.012025 
L 264.651106 238.072544 
L 265.158886 236.5293 
L 265.666667 237.921246 
L 266.682228 237.255533 
L 267.190008 238.344882 
L 267.697789 237.073974 
L 268.205569 236.892416 
L 268.71335 237.830467 
L 269.22113 236.831897 
L 269.728911 239.252673 
L 270.236691 237.104234 
L 270.744472 236.650339 
L 271.252252 236.438521 
L 271.760033 235.621509 
L 272.267813 237.043715 
L 272.775594 237.346312 
L 274.298935 236.317482 
L 274.806716 237.195013 
L 275.314496 236.287222 
L 275.822277 237.134494 
L 276.330057 236.801637 
L 276.837838 237.951506 
L 277.345618 236.620079 
L 277.853399 237.588389 
L 278.86896 236.650339 
L 279.37674 237.225273 
L 279.884521 237.043715 
L 280.392301 236.166183 
L 280.900082 236.801637 
L 281.407862 237.104234 
L 281.915643 237.043715 
L 282.423423 237.316052 
L 282.931204 236.408261 
L 283.438984 237.739688 
L 283.946765 237.164753 
L 284.454545 236.226703 
L 284.962326 237.346312 
L 285.470106 237.55813 
L 285.977887 236.922676 
L 286.485667 237.648909 
L 286.993448 237.255533 
L 287.501229 236.317482 
L 288.009009 236.801637 
L 288.51679 236.317482 
L 289.02457 236.5293 
L 289.532351 236.49904 
L 290.040131 236.075404 
L 290.547912 236.952936 
L 291.055692 236.045145 
L 291.563473 237.437091 
L 292.071253 237.195013 
L 292.579034 236.680598 
L 293.086814 236.680598 
L 293.594595 237.55813 
L 294.102375 236.256963 
L 294.610156 236.892416 
L 295.117936 235.772807 
L 295.625717 236.710858 
L 296.133497 235.984625 
L 296.641278 237.588389 
L 297.149058 237.709428 
L 297.656839 236.287222 
L 298.164619 236.438521 
L 298.6724 237.437091 
L 299.18018 237.55813 
L 299.687961 235.893846 
L 300.195741 236.045145 
L 301.211302 237.225273 
L 301.719083 235.924106 
L 302.226863 236.045145 
L 302.734644 238.435661 
L 303.750205 236.287222 
L 304.257985 235.863586 
L 304.765766 237.49761 
L 305.273546 236.347742 
L 305.781327 236.46878 
L 306.289107 236.710858 
L 306.796888 236.317482 
L 307.812449 236.045145 
L 308.320229 236.801637 
L 308.82801 236.922676 
L 309.33579 235.924106 
L 309.843571 236.166183 
L 310.859132 237.043715 
L 311.874693 236.166183 
L 312.382473 236.49904 
L 312.890254 236.5293 
L 313.398034 235.439951 
L 313.905815 235.682028 
L 314.413595 237.104234 
L 314.921376 235.863586 
L 315.429156 235.228133 
L 315.936937 236.135924 
L 316.444717 235.409691 
L 316.952498 237.46735 
L 317.460278 235.803067 
L 317.968059 235.984625 
L 318.475839 235.863586 
L 318.98362 237.195013 
L 319.4914 235.742548 
L 319.999181 236.135924 
L 320.506962 235.742548 
L 321.014742 237.255533 
L 321.522523 236.5293 
L 322.030303 235.47021 
L 322.538084 236.317482 
L 323.045864 235.682028 
L 323.553645 235.621509 
L 324.061425 236.378001 
L 324.569206 236.014885 
L 325.076986 235.228133 
L 325.584767 235.560989 
L 326.092547 234.441381 
L 326.600328 234.895276 
L 327.108108 235.591249 
L 327.615889 235.349172 
L 328.123669 234.895276 
L 328.63145 234.834757 
L 329.13923 235.046575 
L 329.647011 234.562419 
L 330.154791 235.349172 
L 330.662572 236.49904 
L 331.170352 235.712288 
L 331.678133 235.379431 
L 332.185913 236.075404 
L 332.693694 235.924106 
L 333.201474 236.831897 
L 334.217035 235.53073 
L 334.724816 236.256963 
L 335.232596 235.228133 
L 335.740377 235.803067 
L 336.755938 234.562419 
L 337.263718 235.591249 
L 337.771499 235.924106 
L 338.279279 235.349172 
L 339.29484 235.560989 
L 339.802621 235.076834 
L 340.310401 235.712288 
L 340.818182 234.895276 
L 341.325962 236.408261 
L 341.833743 236.226703 
L 342.341523 236.347742 
L 342.849304 234.895276 
L 343.357084 235.803067 
L 343.864865 236.46878 
L 344.880426 234.743978 
L 345.388206 236.317482 
L 345.895987 237.104234 
L 346.403767 235.591249 
L 346.911548 236.650339 
L 347.419328 235.197873 
L 347.927109 235.742548 
L 348.94267 236.075404 
L 349.45045 236.46878 
L 349.958231 235.53073 
L 350.466011 236.983195 
L 350.973792 235.349172 
L 351.989353 234.683458 
L 352.497133 236.075404 
L 353.004914 236.46878 
L 353.512695 235.379431 
L 354.020475 236.226703 
L 354.528256 235.833327 
L 355.036036 235.984625 
L 355.543817 235.53073 
L 356.051597 235.954366 
L 356.559378 235.833327 
L 357.574939 236.892416 
L 358.082719 236.226703 
L 358.5905 236.256963 
L 359.09828 235.197873 
L 359.606061 235.833327 
L 360.113841 236.710858 
L 360.621622 235.924106 
L 361.129402 235.591249 
L 361.637183 237.104234 
L 362.144963 236.105664 
L 362.652744 235.772807 
L 363.160524 235.682028 
L 363.668305 237.104234 
L 364.176085 234.925536 
L 364.683866 234.259822 
L 365.191646 235.409691 
L 365.699427 235.349172 
L 366.207207 236.922676 
L 366.714988 235.439951 
L 367.222768 236.317482 
L 367.730549 236.287222 
L 368.238329 236.045145 
L 368.74611 235.016315 
L 369.25389 235.167613 
L 369.761671 236.741118 
L 370.269451 235.803067 
L 370.777232 235.924106 
L 371.285012 236.196443 
L 372.300573 236.045145 
L 372.808354 236.226703 
L 373.316134 235.712288 
L 373.823915 235.379431 
L 374.331695 235.197873 
L 374.839476 236.46878 
L 375.855037 235.833327 
L 376.362817 236.014885 
L 376.870598 235.046575 
L 377.378378 236.55956 
L 377.886159 235.47021 
L 378.393939 235.924106 
L 378.90172 236.014885 
L 379.4095 235.954366 
L 379.917281 235.742548 
L 380.425061 235.742548 
L 380.932842 235.379431 
L 381.440622 235.742548 
L 381.948403 235.893846 
L 382.456183 235.651769 
L 382.963964 235.863586 
L 383.471744 235.742548 
L 383.979525 235.772807 
L 384.487305 236.710858 
L 384.995086 235.954366 
L 385.502867 235.893846 
L 386.010647 236.680598 
L 386.518428 235.742548 
L 387.026208 236.952936 
L 387.533989 236.166183 
L 388.041769 235.803067 
L 388.54955 235.288652 
L 389.05733 235.682028 
L 389.565111 235.439951 
L 390.072891 236.55956 
L 390.580672 235.107094 
L 391.088452 235.954366 
L 391.596233 234.986055 
L 392.104013 236.378001 
L 392.611794 235.53073 
L 393.119574 235.651769 
L 393.627355 235.137354 
L 394.135135 235.076834 
L 394.642916 235.893846 
L 395.150696 235.016315 
L 395.658477 236.408261 
L 396.166257 235.288652 
L 397.181818 235.409691 
L 397.689599 234.925536 
L 398.197379 235.47021 
L 398.70516 234.592679 
L 399.21294 234.683458 
L 400.228501 234.5019 
L 400.736282 234.138784 
L 401.244062 235.621509 
L 401.751843 235.349172 
L 402.259623 234.653198 
L 402.767404 234.683458 
L 403.275184 235.016315 
L 403.782965 233.53359 
L 404.290745 234.290082 
L 404.798526 234.622939 
L 405.306306 234.441381 
L 405.814087 234.986055 
L 406.321867 233.805927 
L 406.829648 234.865016 
L 407.337428 234.048005 
L 407.845209 233.805927 
L 408.352989 234.653198 
L 409.36855 234.713718 
L 409.876331 235.228133 
L 410.384111 234.53216 
L 410.891892 235.016315 
L 411.399672 234.774237 
L 411.907453 234.865016 
L 412.415233 236.256963 
L 412.923014 235.682028 
L 413.430794 234.683458 
L 413.938575 234.774237 
L 414.446355 236.5293 
L 414.954136 235.379431 
L 415.461916 234.562419 
L 415.969697 235.560989 
L 416.477477 234.774237 
L 417.493038 235.893846 
L 418.000819 234.199303 
L 418.5086 235.984625 
L 419.01638 235.863586 
L 419.524161 235.258392 
L 420.031941 234.865016 
L 420.539722 234.653198 
L 421.047502 234.320342 
L 421.555283 234.895276 
L 422.063063 235.137354 
L 422.570844 234.53216 
L 423.078624 234.290082 
L 423.586405 233.866446 
L 424.094185 234.169043 
L 424.601966 235.742548 
L 425.109746 234.743978 
L 425.617527 235.651769 
L 426.125307 234.622939 
L 427.140868 235.349172 
L 427.648649 235.560989 
L 428.156429 234.895276 
L 428.66421 235.046575 
L 429.17199 234.350602 
L 429.679771 235.016315 
L 430.187551 235.318912 
L 430.695332 235.772807 
L 431.203112 235.439951 
L 431.710893 234.622939 
L 432.726454 236.378001 
L 433.234234 235.621509 
L 433.742015 235.591249 
L 434.249795 236.256963 
L 434.757576 234.713718 
L 435.265356 235.682028 
L 435.773137 233.987485 
L 436.280917 235.53073 
L 436.788698 235.349172 
L 437.296478 235.046575 
L 438.312039 235.076834 
L 438.81982 235.893846 
L 439.3276 235.682028 
L 439.835381 235.591249 
L 440.343161 236.378001 
L 440.850942 235.772807 
L 441.358722 235.379431 
L 441.866503 236.196443 
L 442.374283 236.075404 
L 442.882064 234.804497 
L 443.389844 233.896706 
L 443.897625 235.924106 
L 444.405405 234.955795 
L 444.913186 236.196443 
L 445.420966 235.651769 
L 445.928747 236.287222 
L 446.436527 235.984625 
L 446.944308 235.046575 
L 447.452088 235.47021 
L 447.959869 236.287222 
L 448.467649 235.349172 
L 448.97543 235.318912 
L 449.48321 235.772807 
L 449.990991 235.924106 
L 450.498771 235.50047 
L 451.006552 234.653198 
L 451.514333 235.742548 
L 452.022113 234.5019 
L 452.529894 235.863586 
L 453.037674 236.287222 
L 453.545455 235.046575 
L 454.053235 235.924106 
L 454.561016 233.775667 
L 455.068796 235.863586 
L 455.576577 235.742548 
L 456.084357 236.135924 
L 456.592138 236.952936 
L 457.099918 235.50047 
L 458.115479 236.408261 
L 458.62326 234.986055 
L 459.638821 235.439951 
L 460.146601 235.53073 
L 460.654382 236.226703 
L 461.669943 236.49904 
L 462.177723 235.560989 
L 462.685504 236.680598 
L 463.193284 236.771377 
L 463.701065 235.167613 
L 464.208845 235.53073 
L 464.716626 234.955795 
L 465.224406 235.803067 
L 465.732187 235.803067 
L 466.239967 235.560989 
L 466.747748 234.5019 
L 467.255528 235.803067 
L 467.763309 236.710858 
L 468.271089 235.409691 
L 468.77887 234.47164 
L 469.28665 235.682028 
L 469.794431 235.167613 
L 470.302211 235.47021 
L 470.809992 235.621509 
L 471.317772 236.347742 
L 471.825553 235.50047 
L 472.333333 235.833327 
L 472.841114 234.592679 
L 473.348894 235.803067 
L 473.856675 235.318912 
L 474.364455 236.166183 
L 474.872236 235.379431 
L 475.380016 235.439951 
L 475.887797 235.742548 
L 476.395577 235.591249 
L 476.903358 235.016315 
L 477.411138 235.954366 
L 477.918919 234.774237 
L 478.93448 235.409691 
L 479.44226 235.137354 
L 479.950041 235.076834 
L 480.457821 235.258392 
L 480.965602 234.350602 
L 481.981163 235.560989 
L 482.488943 234.713718 
L 482.996724 235.318912 
L 483.504505 235.318912 
L 484.520066 234.804497 
L 485.027846 235.772807 
L 485.535627 235.591249 
L 486.043407 235.560989 
L 486.551188 235.197873 
L 487.058968 236.710858 
L 487.566749 235.197873 
L 488.074529 235.591249 
L 488.58231 236.196443 
L 489.09009 235.621509 
L 489.597871 235.379431 
L 490.105651 235.954366 
L 490.613432 235.954366 
L 491.628993 235.016315 
L 492.136773 235.439951 
L 492.644554 236.831897 
L 493.152334 236.317482 
L 493.660115 235.107094 
L 494.167895 235.621509 
L 494.675676 235.318912 
L 495.183456 237.104234 
L 495.691237 235.318912 
L 496.706798 235.318912 
L 497.214578 234.986055 
L 497.722359 236.075404 
L 498.230139 234.078264 
L 498.73792 235.107094 
L 499.753481 234.653198 
L 500.261261 235.833327 
L 500.769042 235.984625 
L 501.276822 235.50047 
L 501.784603 234.562419 
L 502.292383 235.349172 
L 502.800164 235.349172 
L 503.307944 235.651769 
L 504.323505 234.683458 
L 504.831286 234.53216 
L 505.339066 236.378001 
L 505.846847 236.287222 
L 506.354627 235.560989 
L 506.862408 235.197873 
L 507.370188 235.621509 
L 507.877969 236.46878 
L 508.385749 235.712288 
L 508.89353 236.226703 
L 509.40131 235.560989 
L 509.909091 236.710858 
L 510.416871 235.772807 
L 510.924652 237.013455 
L 511.432432 235.984625 
L 511.940213 235.833327 
L 512.447993 235.984625 
L 512.955774 236.378001 
L 513.463554 235.682028 
L 513.971335 234.411121 
L 514.479115 235.379431 
L 514.986896 236.014885 
L 516.002457 235.409691 
L 516.510238 235.651769 
L 517.018018 235.712288 
L 517.525799 237.195013 
L 518.033579 235.984625 
L 519.04914 234.622939 
L 519.556921 234.865016 
L 520.064701 235.803067 
L 520.572482 235.742548 
L 521.080262 236.014885 
L 521.588043 235.50047 
L 522.095823 235.50047 
L 522.603604 236.075404 
L 523.111384 236.256963 
L 523.619165 236.680598 
L 524.126945 236.075404 
L 524.634726 236.741118 
L 525.142506 236.378001 
L 525.650287 236.347742 
L 526.158067 237.46735 
L 526.665848 237.52787 
L 527.173628 235.833327 
L 527.681409 237.618649 
L 528.189189 235.954366 
L 528.69697 241.58267 
L 529.20475 235.742548 
L 529.712531 235.682028 
L 530.220311 235.318912 
L 530.728092 235.893846 
L 531.235872 236.105664 
L 531.743653 237.437091 
L 532.251433 236.075404 
L 532.759214 235.984625 
L 533.266994 235.682028 
L 533.774775 235.682028 
L 534.282555 235.560989 
L 534.790336 235.924106 
L 535.298116 236.801637 
L 535.805897 235.651769 
L 536.313677 235.833327 
L 536.821458 234.925536 
L 537.329238 235.863586 
L 537.837019 234.713718 
L 538.344799 234.925536 
L 538.85258 235.863586 
L 539.36036 235.560989 
L 539.868141 235.893846 
L 540.375921 235.197873 
L 540.883702 235.772807 
L 541.899263 235.803067 
L 542.407043 235.53073 
L 543.422604 235.50047 
L 543.930385 236.196443 
L 544.438165 235.197873 
L 544.945946 235.167613 
L 545.453726 235.712288 
L 545.961507 235.046575 
L 546.469287 235.228133 
L 546.977068 234.622939 
L 547.484848 235.621509 
L 547.992629 235.682028 
L 548.50041 236.075404 
L 549.515971 236.075404 
L 550.023751 235.349172 
L 550.531532 235.379431 
L 551.039312 234.834757 
L 551.547093 235.318912 
L 552.054873 236.46878 
L 552.562654 235.560989 
L 553.070434 235.651769 
L 553.578215 235.439951 
L 554.085995 235.016315 
L 554.593776 235.712288 
L 555.609337 235.197873 
L 556.117117 235.318912 
L 557.132678 234.955795 
L 557.640459 235.318912 
L 558.148239 235.53073 
L 559.1638 234.5019 
L 559.671581 235.379431 
L 560.179361 235.591249 
L 560.687142 235.924106 
L 561.194922 234.713718 
L 561.702703 235.984625 
L 562.210483 235.833327 
L 562.718264 235.137354 
L 563.226044 235.682028 
L 563.733825 234.955795 
L 564.241605 234.804497 
L 564.749386 234.834757 
L 565.257166 235.803067 
L 565.764947 234.653198 
L 566.272727 234.955795 
L 566.780508 234.774237 
L 567.288288 235.409691 
L 567.796069 236.256963 
L 568.303849 235.50047 
L 568.81163 234.986055 
L 569.31941 235.409691 
L 569.827191 235.258392 
L 570.334971 235.984625 
L 570.842752 236.408261 
L 571.350532 235.379431 
L 571.858313 235.560989 
L 572.873874 236.862157 
L 573.381654 235.712288 
L 573.889435 235.591249 
L 574.397215 236.256963 
L 574.904996 237.49761 
L 575.920557 235.742548 
L 576.428337 236.892416 
L 576.936118 236.045145 
L 577.951679 235.379431 
L 578.459459 235.803067 
L 578.96724 236.378001 
L 579.47502 235.50047 
L 579.982801 236.650339 
L 580.490581 236.5293 
L 580.998362 236.831897 
L 581.506143 237.346312 
L 582.013923 236.892416 
L 583.029484 236.5293 
L 583.537265 236.5293 
L 584.552826 235.682028 
L 585.568387 236.347742 
L 586.076167 235.984625 
L 586.583948 235.833327 
L 587.091728 236.075404 
L 587.599509 235.893846 
L 588.107289 236.408261 
L 588.61507 235.803067 
L 589.12285 235.924106 
L 589.630631 236.408261 
L 590.138411 236.49904 
L 590.646192 236.862157 
L 591.153972 236.045145 
L 591.661753 237.316052 
L 592.677314 236.317482 
L 593.185094 235.803067 
L 593.692875 236.46878 
L 594.200655 235.651769 
L 594.708436 236.922676 
L 595.216216 236.105664 
L 595.723997 236.166183 
L 596.739558 236.862157 
L 597.247338 236.135924 
L 597.755119 237.043715 
L 598.262899 237.043715 
L 598.77068 237.376571 
L 599.27846 236.347742 
L 599.786241 236.55956 
L 600.294021 236.226703 
L 600.801802 236.620079 
L 601.309582 236.135924 
L 601.817363 236.5293 
L 602.325143 235.924106 
L 602.832924 235.984625 
L 603.340704 236.196443 
L 603.848485 236.710858 
L 604.356265 236.378001 
L 604.864046 235.833327 
L 605.371826 235.833327 
L 605.879607 236.317482 
L 606.387387 236.49904 
L 606.895168 235.924106 
L 607.402948 235.682028 
L 607.910729 235.742548 
L 608.418509 235.984625 
L 608.92629 236.771377 
L 609.941851 236.922676 
L 610.957412 235.772807 
L 611.465192 236.014885 
L 611.972973 236.589819 
L 612.480753 236.105664 
L 612.988534 236.166183 
L 613.496314 236.075404 
L 614.004095 236.256963 
L 614.511876 235.984625 
L 615.019656 236.135924 
L 616.035217 235.893846 
L 616.542998 236.105664 
L 617.050778 235.560989 
L 617.558559 235.47021 
L 618.066339 234.865016 
L 618.57412 235.107094 
L 619.0819 234.804497 
L 619.589681 235.349172 
L 620.097461 236.256963 
L 620.605242 235.107094 
L 621.113022 234.743978 
L 621.620803 235.682028 
L 622.128583 235.137354 
L 622.636364 236.045145 
L 622.636364 236.045145 
" clip-path="url(#p1511803c48)" style="fill: none; stroke: #ff7f0e; stroke-width: 1.5; stroke-linecap: square"/>
   </g>
   <g id="line2d_15">
    <path d="M 115.363636 347.576435 
L 116.379197 347.671686 
L 116.886978 348.71282 
L 117.394758 350.417562 
L 118.410319 351.669565 
L 122.472563 355.286579 
L 129.581491 361.371064 
L 133.135954 364.661547 
L 135.167076 366.100876 
L 136.690418 366.856072 
L 140.752662 367.972399 
L 144.814906 368.455364 
L 149.892711 368.755405 
L 151.416052 368.839563 
L 176.297297 369.168092 
L 196.100737 369.249285 
L 203.717445 369.248691 
L 213.365274 369.264351 
L 260.588862 369.315471 
L 285.977887 369.329155 
L 516.002457 369.354315 
L 531.743653 369.351024 
L 540.883702 369.356467 
L 549.00819 369.3591 
L 569.31941 369.355535 
L 622.636364 369.356179 
L 622.636364 369.356179 
" clip-path="url(#p1511803c48)" style="fill: none; stroke: #2ca02c; stroke-width: 1.5; stroke-linecap: square"/>
   </g>
   <g id="line2d_16">
    <path d="M 115.363636 347.49692 
L 115.871417 347.516531 
L 116.379197 347.792072 
L 116.886978 349.97566 
L 117.394758 350.922414 
L 118.410319 352.047235 
L 119.42588 352.954197 
L 121.457002 354.499922 
L 122.472563 355.199282 
L 122.980344 354.931479 
L 123.488124 355.697326 
L 123.995905 355.860749 
L 125.011466 356.48088 
L 125.519247 356.772944 
L 126.027027 356.766029 
L 126.534808 356.980447 
L 127.550369 357.152083 
L 128.058149 357.489807 
L 128.56593 357.375768 
L 129.07371 357.531578 
L 131.104832 357.522095 
L 132.628174 356.914097 
L 133.135954 357.032156 
L 133.643735 356.853566 
L 134.151515 356.899446 
L 134.659296 356.785842 
L 137.705979 355.329021 
L 138.213759 354.890161 
L 138.72154 355.367193 
L 139.737101 355.046221 
L 140.244881 355.117052 
L 141.260442 354.949511 
L 141.768223 354.143669 
L 142.276003 354.642265 
L 142.783784 354.651194 
L 143.291564 354.501614 
L 143.799345 353.89834 
L 144.814906 354.172699 
L 145.322686 354.258032 
L 145.830467 354.116858 
L 146.338247 353.714399 
L 146.846028 353.651686 
L 147.353808 353.273374 
L 147.861589 353.722546 
L 148.369369 353.550872 
L 148.87715 353.763353 
L 149.892711 353.524524 
L 150.400491 353.208948 
L 151.416052 353.435795 
L 151.923833 352.852381 
L 152.939394 353.235439 
L 153.447174 353.010035 
L 153.954955 353.317006 
L 154.462735 352.651355 
L 154.970516 352.858042 
L 155.478296 352.932688 
L 158.017199 352.556918 
L 159.03276 352.64475 
L 159.540541 352.56103 
L 160.048321 351.815567 
L 160.556102 352.41883 
L 161.063882 352.094192 
L 161.571663 351.950115 
L 162.079443 352.515063 
L 162.587224 352.323416 
L 163.602785 352.355887 
L 164.110565 351.986531 
L 164.618346 351.994718 
L 165.126126 351.74685 
L 165.633907 351.644992 
L 166.141687 352.32271 
L 166.649468 351.183312 
L 167.157248 352.314418 
L 167.665029 351.973206 
L 168.172809 351.984566 
L 168.68059 351.842752 
L 169.18837 351.931414 
L 169.696151 351.655583 
L 170.203931 351.835825 
L 170.711712 351.608688 
L 171.219492 351.887479 
L 171.727273 351.680924 
L 172.235053 350.840377 
L 172.742834 351.364912 
L 173.250614 351.361937 
L 174.266175 351.530816 
L 174.773956 351.370713 
L 175.789517 351.709983 
L 176.297297 351.246556 
L 176.805078 351.073969 
L 177.312858 351.646387 
L 177.820639 351.036366 
L 178.328419 351.777861 
L 178.8362 351.32952 
L 179.34398 351.506832 
L 180.359541 350.938936 
L 180.867322 350.762106 
L 181.375102 350.868527 
L 181.882883 351.482719 
L 182.390663 351.071656 
L 183.406224 351.448537 
L 183.914005 351.007235 
L 184.421785 351.216693 
L 185.437346 350.80619 
L 185.945127 351.145401 
L 186.452907 351.061855 
L 187.468468 351.093946 
L 187.976249 350.751776 
L 188.484029 351.098467 
L 188.99181 350.862011 
L 189.49959 350.996392 
L 190.007371 350.98576 
L 190.515152 350.618308 
L 191.530713 351.205427 
L 192.038493 350.834056 
L 192.546274 351.073299 
L 193.054054 350.716513 
L 194.577396 350.857662 
L 195.085176 350.390886 
L 195.592957 350.735769 
L 196.100737 350.333917 
L 196.608518 350.754955 
L 197.116298 350.691694 
L 197.624079 350.842605 
L 198.131859 350.502796 
L 198.63964 350.356838 
L 199.14742 350.440944 
L 199.655201 350.84832 
L 200.162981 350.899563 
L 201.178542 350.572982 
L 201.686323 349.877463 
L 202.194103 350.469344 
L 203.717445 350.549456 
L 204.225225 350.615127 
L 204.733006 350.441966 
L 205.240786 350.484115 
L 205.748567 350.173394 
L 206.256347 350.598063 
L 206.764128 350.511912 
L 207.779689 349.940797 
L 208.287469 350.051155 
L 208.79525 350.537306 
L 209.30303 350.608953 
L 209.810811 350.108897 
L 210.318591 350.171376 
L 210.826372 350.423022 
L 211.334152 350.233326 
L 211.841933 350.518247 
L 212.349713 350.153231 
L 212.857494 350.033174 
L 213.365274 350.473023 
L 213.873055 350.448236 
L 214.380835 350.170402 
L 215.904177 350.385812 
L 216.411957 350.030237 
L 216.919738 350.12983 
L 217.935299 350.478013 
L 218.443079 349.749964 
L 218.95086 349.837741 
L 219.45864 350.057118 
L 220.474201 350.006257 
L 223.013104 349.695285 
L 224.028665 350.069209 
L 224.536446 349.91562 
L 225.044226 349.509856 
L 225.552007 350.032412 
L 227.075348 349.872336 
L 227.583129 349.899798 
L 228.090909 350.199112 
L 228.59869 349.766387 
L 229.10647 349.90753 
L 230.122031 349.731726 
L 230.629812 349.919046 
L 231.137592 349.777345 
L 231.645373 348.955701 
L 232.153153 349.567704 
L 232.660934 349.701217 
L 233.168714 350.07486 
L 233.676495 349.84154 
L 234.184275 349.934903 
L 234.692056 349.693695 
L 235.707617 350.014882 
L 237.230958 349.247407 
L 238.246519 349.720379 
L 238.7543 349.448944 
L 239.26208 349.922283 
L 239.769861 349.462223 
L 240.277641 349.501498 
L 240.785422 348.277842 
L 241.293202 349.655009 
L 241.800983 349.729476 
L 242.308763 349.571305 
L 243.324324 349.485742 
L 243.832105 349.894301 
L 244.847666 349.374411 
L 245.355446 349.622679 
L 245.863227 349.540573 
L 246.371007 349.778855 
L 247.386568 349.92031 
L 247.894349 349.576183 
L 248.90991 349.794115 
L 250.433251 349.918649 
L 250.941032 349.460009 
L 251.448812 349.853292 
L 252.464373 349.343071 
L 252.972154 349.628488 
L 253.479934 349.552892 
L 253.987715 349.29555 
L 255.003276 349.847929 
L 255.511057 349.289507 
L 256.526618 349.524506 
L 257.034398 349.340081 
L 257.542179 349.500418 
L 259.06552 348.895031 
L 259.573301 348.888768 
L 260.081081 348.505844 
L 260.588862 348.98566 
L 261.096642 349.12893 
L 261.604423 348.608546 
L 262.112203 349.22609 
L 262.619984 349.165044 
L 263.635545 349.213615 
L 264.143325 348.736893 
L 265.158886 348.969474 
L 265.666667 349.310993 
L 266.174447 348.657903 
L 266.682228 349.484393 
L 267.190008 349.271064 
L 268.205569 349.555316 
L 268.71335 349.403646 
L 269.22113 348.796657 
L 269.728911 349.108839 
L 270.236691 349.169059 
L 270.744472 348.91723 
L 271.252252 349.140299 
L 271.760033 349.132739 
L 272.267813 348.829449 
L 272.775594 349.196846 
L 273.283374 349.32896 
L 273.791155 348.810387 
L 274.298935 349.48801 
L 275.822277 349.256152 
L 276.330057 349.450207 
L 276.837838 349.300398 
L 277.345618 349.361382 
L 277.853399 348.993162 
L 278.361179 349.08444 
L 278.86896 349.498603 
L 279.37674 349.288712 
L 279.884521 349.498283 
L 280.392301 349.504542 
L 280.900082 349.200812 
L 281.407862 349.094207 
L 281.915643 348.850566 
L 282.423423 348.807967 
L 283.438984 349.329498 
L 284.454545 349.021799 
L 284.962326 349.24719 
L 286.993448 348.996175 
L 287.501229 349.137626 
L 288.009009 348.616006 
L 288.51679 349.130032 
L 289.02457 348.97996 
L 289.532351 349.021741 
L 290.040131 348.784848 
L 290.547912 348.935062 
L 292.071253 348.769025 
L 292.579034 348.362097 
L 293.086814 349.008426 
L 293.594595 348.85234 
L 294.610156 349.167921 
L 295.117936 348.586232 
L 295.625717 348.503869 
L 296.133497 348.919206 
L 296.641278 348.980863 
L 297.149058 348.80085 
L 297.656839 347.93418 
L 298.164619 348.745832 
L 299.18018 349.007937 
L 299.687961 348.561635 
L 300.195741 348.743017 
L 300.703522 348.357972 
L 301.211302 348.779902 
L 301.719083 348.922224 
L 302.226863 348.610688 
L 303.750205 348.732744 
L 304.257985 348.530945 
L 304.765766 348.51788 
L 305.273546 348.986608 
L 305.781327 348.569443 
L 306.289107 348.762665 
L 306.796888 348.790437 
L 307.304668 348.622668 
L 307.812449 348.753266 
L 308.320229 349.192647 
L 308.82801 348.925975 
L 309.843571 348.84399 
L 310.351351 348.605557 
L 310.859132 348.683598 
L 311.366912 348.141621 
L 312.382473 348.691348 
L 312.890254 348.34641 
L 313.905815 348.510662 
L 314.413595 348.208016 
L 314.921376 348.290559 
L 315.429156 348.623169 
L 315.936937 348.605801 
L 316.444717 348.40321 
L 317.968059 348.78243 
L 318.98362 348.862243 
L 319.4914 348.284138 
L 320.506962 348.759342 
L 321.014742 348.428361 
L 321.522523 348.239479 
L 322.030303 348.454362 
L 323.045864 349.159663 
L 323.553645 348.358987 
L 324.061425 348.907172 
L 324.569206 348.359364 
L 325.076986 348.264958 
L 326.092547 348.543371 
L 326.600328 348.359967 
L 327.108108 348.574224 
L 327.615889 348.277041 
L 328.123669 348.513196 
L 328.63145 348.259026 
L 329.13923 348.467239 
L 329.647011 348.191185 
L 330.154791 348.192134 
L 330.662572 348.305354 
L 331.170352 349.016159 
L 331.678133 348.420539 
L 332.185913 348.912102 
L 332.693694 348.483757 
L 333.201474 348.794842 
L 333.709255 348.746831 
L 334.217035 348.985527 
L 334.724816 348.681671 
L 335.232596 348.895571 
L 335.740377 348.61473 
L 336.755938 348.598133 
L 337.263718 348.455317 
L 337.771499 348.55948 
L 338.279279 348.370247 
L 338.78706 348.601073 
L 339.802621 348.353573 
L 340.310401 348.47831 
L 340.818182 348.242109 
L 341.833743 348.471141 
L 342.849304 348.340185 
L 343.357084 348.056375 
L 343.864865 347.338143 
L 344.880426 348.248233 
L 345.388206 348.407317 
L 346.403767 348.079141 
L 346.911548 348.770649 
L 347.419328 348.344899 
L 347.927109 348.911804 
L 348.94267 348.371635 
L 349.45045 348.635773 
L 349.958231 348.058728 
L 350.466011 348.538439 
L 350.973792 348.38284 
L 351.481572 348.522766 
L 351.989353 348.34613 
L 352.497133 348.454399 
L 353.004914 347.763319 
L 353.512695 348.593049 
L 354.020475 348.271197 
L 354.528256 348.329946 
L 355.036036 348.119747 
L 355.543817 348.463082 
L 356.051597 348.074767 
L 356.559378 348.339588 
L 357.067158 348.11932 
L 357.574939 348.946261 
L 358.082719 348.604344 
L 359.09828 348.494747 
L 359.606061 348.705587 
L 360.113841 348.661082 
L 360.621622 348.350727 
L 361.129402 348.602396 
L 361.637183 348.093628 
L 362.144963 347.872389 
L 362.652744 348.374757 
L 365.191646 348.339412 
L 365.699427 348.724066 
L 366.207207 348.465239 
L 367.730549 348.268173 
L 368.238329 348.126126 
L 368.74611 348.293266 
L 369.25389 348.257521 
L 369.761671 348.383518 
L 370.777232 348.193598 
L 371.285012 348.378443 
L 371.792793 348.240334 
L 372.300573 348.430083 
L 372.808354 348.1003 
L 373.316134 348.569299 
L 374.331695 348.330559 
L 374.839476 348.41174 
L 375.347256 347.998712 
L 376.362817 347.752667 
L 376.870598 348.198461 
L 377.378378 348.491694 
L 377.886159 347.747975 
L 378.393939 348.182563 
L 378.90172 348.452635 
L 379.4095 348.237579 
L 379.917281 348.168354 
L 380.425061 348.306863 
L 380.932842 348.325018 
L 381.440622 348.020554 
L 381.948403 348.251922 
L 382.963964 348.204247 
L 383.471744 348.349989 
L 383.979525 348.122516 
L 384.487305 348.22289 
L 384.995086 347.605609 
L 385.502867 348.259148 
L 386.010647 348.154918 
L 386.518428 347.890854 
L 387.026208 348.282576 
L 387.533989 348.153961 
L 388.041769 347.883761 
L 388.54955 348.253718 
L 389.05733 348.018751 
L 389.565111 348.185293 
L 390.580672 348.16565 
L 391.088452 347.67202 
L 391.596233 347.780763 
L 392.104013 347.761074 
L 392.611794 347.858869 
L 393.119574 347.244322 
L 394.135135 347.885595 
L 394.642916 347.980105 
L 395.150696 347.928487 
L 395.658477 348.253771 
L 396.166257 347.899402 
L 396.674038 348.062095 
L 397.181818 347.994644 
L 397.689599 348.134643 
L 398.197379 348.075675 
L 398.70516 347.419999 
L 399.21294 347.880891 
L 401.244062 347.777755 
L 401.751843 348.033991 
L 402.259623 347.60498 
L 402.767404 348.027354 
L 403.275184 347.948569 
L 403.782965 347.623877 
L 404.798526 348.03795 
L 406.829648 347.807211 
L 407.337428 348.112955 
L 407.845209 347.765232 
L 408.352989 347.978913 
L 408.86077 347.95907 
L 410.384111 347.460327 
L 411.399672 347.531431 
L 411.907453 347.124257 
L 412.415233 347.625264 
L 413.430794 347.612024 
L 413.938575 347.246587 
L 414.446355 347.761621 
L 414.954136 347.411192 
L 415.461916 347.249748 
L 415.969697 347.707473 
L 416.477477 347.368488 
L 416.985258 347.90181 
L 417.493038 347.651795 
L 418.000819 347.167618 
L 418.5086 347.608292 
L 419.01638 347.892497 
L 419.524161 347.942843 
L 421.047502 347.635434 
L 421.555283 347.260037 
L 422.063063 347.8312 
L 422.570844 347.680001 
L 423.078624 347.963318 
L 423.586405 347.633214 
L 424.094185 347.910013 
L 424.601966 347.291742 
L 425.109746 348.18506 
L 425.617527 348.044304 
L 426.633088 348.340816 
L 427.140868 347.739925 
L 427.648649 347.638402 
L 428.156429 347.812279 
L 428.66421 347.848391 
L 429.17199 347.205348 
L 429.679771 347.514044 
L 430.187551 347.609761 
L 430.695332 347.478556 
L 431.203112 348.012204 
L 431.710893 347.896245 
L 432.218673 347.986098 
L 433.234234 347.611771 
L 434.249795 347.911546 
L 434.757576 347.454521 
L 435.265356 347.630672 
L 435.773137 347.55667 
L 436.280917 347.337285 
L 437.804259 347.735669 
L 438.312039 347.649163 
L 438.81982 347.697893 
L 439.3276 347.631948 
L 440.343161 347.939605 
L 440.850942 347.822954 
L 441.358722 347.568563 
L 441.866503 347.498752 
L 442.374283 347.985932 
L 442.882064 347.322249 
L 443.389844 346.983099 
L 443.897625 347.151002 
L 444.405405 347.538304 
L 444.913186 347.37342 
L 445.420966 347.492549 
L 445.928747 347.930936 
L 446.436527 348.090951 
L 446.944308 347.730058 
L 447.959869 347.451639 
L 448.467649 347.949138 
L 448.97543 347.346672 
L 449.48321 347.358644 
L 449.990991 347.645511 
L 450.498771 347.653367 
L 451.006552 347.387967 
L 451.514333 347.459322 
L 452.022113 347.342323 
L 452.529894 348.141579 
L 453.037674 347.981328 
L 453.545455 347.625556 
L 454.053235 347.850943 
L 454.561016 347.586146 
L 455.068796 347.65447 
L 455.576577 347.588902 
L 456.084357 347.250721 
L 457.607699 347.716577 
L 458.115479 347.881162 
L 458.62326 347.803854 
L 459.13104 347.224853 
L 459.638821 347.550269 
L 460.146601 347.442061 
L 460.654382 347.142828 
L 461.162162 347.56654 
L 462.177723 347.281909 
L 462.685504 347.489161 
L 463.193284 347.532495 
L 463.701065 347.223216 
L 464.208845 346.590372 
L 464.716626 347.436673 
L 465.732187 347.386739 
L 466.747748 347.1752 
L 467.255528 347.090457 
L 467.763309 347.488446 
L 468.271089 347.700503 
L 468.77887 347.32681 
L 469.28665 347.281079 
L 469.794431 347.075236 
L 470.302211 346.734638 
L 470.809992 347.407943 
L 471.825553 347.583504 
L 472.333333 347.643548 
L 472.841114 347.272846 
L 473.348894 347.568378 
L 474.364455 347.312908 
L 474.872236 346.807861 
L 475.380016 347.288206 
L 475.887797 347.317967 
L 476.395577 347.59569 
L 476.903358 347.626399 
L 477.411138 347.511894 
L 477.918919 347.211807 
L 478.426699 347.074353 
L 478.93448 347.186878 
L 479.44226 347.044553 
L 480.457821 347.187309 
L 480.965602 346.952839 
L 481.473382 347.138501 
L 481.981163 347.074855 
L 482.488943 347.338707 
L 482.996724 347.179065 
L 483.504505 346.501775 
L 484.012285 347.131051 
L 484.520066 347.433312 
L 485.027846 346.650619 
L 485.535627 346.546434 
L 486.043407 347.230931 
L 486.551188 347.12452 
L 487.058968 347.465757 
L 487.566749 347.199211 
L 488.074529 347.484991 
L 488.58231 347.268769 
L 489.09009 347.232908 
L 489.597871 347.019667 
L 490.105651 346.944214 
L 490.613432 346.713914 
L 491.121212 347.027217 
L 491.628993 346.705601 
L 492.136773 347.559139 
L 493.152334 347.517111 
L 493.660115 347.259058 
L 494.167895 347.580367 
L 494.675676 347.411812 
L 495.183456 347.698067 
L 495.691237 347.242287 
L 496.199017 347.22231 
L 496.706798 346.978548 
L 497.214578 347.204301 
L 497.722359 347.199363 
L 498.230139 346.984889 
L 498.73792 347.232232 
L 499.2457 346.691488 
L 499.753481 346.951163 
L 500.261261 347.380268 
L 500.769042 347.364037 
L 501.276822 346.884634 
L 501.784603 346.783959 
L 502.292383 347.091146 
L 502.800164 347.260872 
L 503.307944 346.957188 
L 503.815725 346.976486 
L 504.323505 346.731079 
L 504.831286 347.22661 
L 505.339066 347.382199 
L 505.846847 347.095428 
L 506.862408 346.932949 
L 507.370188 347.144877 
L 507.877969 347.170003 
L 508.385749 346.833186 
L 508.89353 347.026917 
L 510.416871 347.081382 
L 510.924652 347.441476 
L 511.940213 346.758689 
L 512.447993 346.983046 
L 512.955774 346.217649 
L 513.463554 347.195543 
L 513.971335 346.914697 
L 514.479115 347.179341 
L 514.986896 346.69397 
L 516.002457 346.959616 
L 516.510238 347.292031 
L 517.018018 346.730709 
L 517.525799 346.693569 
L 518.033579 347.038537 
L 518.54136 346.794896 
L 519.04914 347.250084 
L 519.556921 346.768866 
L 520.572482 347.069889 
L 521.080262 347.295963 
L 522.603604 346.299254 
L 523.111384 347.2425 
L 523.619165 346.637398 
L 524.126945 347.227868 
L 525.142506 347.010292 
L 525.650287 346.689042 
L 526.158067 347.209684 
L 526.665848 347.084598 
L 527.173628 347.113812 
L 527.681409 346.50705 
L 528.189189 347.350195 
L 528.69697 347.041438 
L 529.20475 346.88255 
L 529.712531 347.322886 
L 530.220311 347.344206 
L 530.728092 347.03628 
L 531.235872 347.437755 
L 531.743653 346.227419 
L 532.251433 346.627308 
L 532.759214 347.267311 
L 533.266994 347.047157 
L 534.790336 346.857545 
L 535.298116 347.088672 
L 535.805897 346.977257 
L 536.313677 346.728061 
L 536.821458 346.745087 
L 537.329238 347.197513 
L 537.837019 346.812216 
L 538.85258 346.82303 
L 539.868141 347.350177 
L 540.883702 347.409706 
L 541.391482 346.806734 
L 541.899263 347.072459 
L 542.407043 347.097026 
L 542.914824 346.961286 
L 543.930385 347.0698 
L 544.438165 346.799566 
L 544.945946 347.147179 
L 545.453726 347.194825 
L 545.961507 346.706059 
L 547.484848 347.467078 
L 548.50041 347.027476 
L 549.00819 347.24786 
L 549.515971 346.991423 
L 550.023751 347.017471 
L 550.531532 346.766686 
L 551.039312 346.800325 
L 551.547093 346.56985 
L 552.054873 347.067454 
L 553.070434 346.770967 
L 553.578215 346.949578 
L 554.085995 346.838832 
L 554.593776 347.022628 
L 555.101556 346.858175 
L 556.117117 346.92119 
L 556.624898 346.668806 
L 557.132678 346.879484 
L 557.640459 347.304874 
L 558.148239 346.776444 
L 558.65602 346.547455 
L 559.1638 346.769759 
L 560.179361 346.760177 
L 560.687142 346.585705 
L 561.194922 346.890102 
L 561.702703 347.025179 
L 562.210483 346.630388 
L 562.718264 346.759385 
L 563.226044 347.028075 
L 564.241605 347.110814 
L 565.257166 347.318804 
L 565.764947 347.394911 
L 566.272727 346.733956 
L 566.780508 347.020154 
L 567.288288 346.91074 
L 567.796069 347.33153 
L 568.303849 346.731722 
L 568.81163 347.187976 
L 569.31941 347.219346 
L 569.827191 346.981995 
L 570.334971 346.873701 
L 570.842752 346.262936 
L 571.350532 346.886548 
L 571.858313 346.790579 
L 572.366093 346.318413 
L 573.381654 347.111529 
L 573.889435 346.806583 
L 574.397215 346.652612 
L 574.904996 347.393864 
L 575.412776 347.141955 
L 575.920557 347.201489 
L 576.428337 346.91945 
L 576.936118 346.925123 
L 577.951679 346.765876 
L 578.459459 346.262396 
L 578.96724 346.691726 
L 579.47502 346.88167 
L 579.982801 347.218254 
L 580.490581 346.859009 
L 580.998362 346.726286 
L 581.506143 347.021947 
L 582.521704 346.983613 
L 583.029484 347.359195 
L 583.537265 346.94863 
L 584.045045 347.338424 
L 584.552826 347.156599 
L 585.060606 346.474061 
L 586.076167 347.063072 
L 587.091728 347.15661 
L 587.599509 347.178065 
L 588.107289 346.779937 
L 588.61507 346.969427 
L 589.12285 346.819507 
L 589.630631 347.095251 
L 590.138411 346.85767 
L 590.646192 347.157568 
L 591.153972 346.825991 
L 591.661753 347.443934 
L 592.169533 347.20611 
L 593.185094 346.491335 
L 593.692875 346.708041 
L 594.200655 347.089094 
L 595.216216 346.979867 
L 595.723997 346.600727 
L 596.231777 347.079113 
L 596.739558 346.593733 
L 597.247338 346.670575 
L 597.755119 347.241058 
L 598.262899 346.967633 
L 598.77068 346.501092 
L 599.27846 346.796653 
L 599.786241 346.875485 
L 600.294021 346.741285 
L 600.801802 346.952609 
L 601.309582 346.382359 
L 601.817363 346.654537 
L 602.325143 347.054281 
L 603.848485 346.78531 
L 604.864046 347.058549 
L 605.371826 346.92945 
L 605.879607 346.492198 
L 606.387387 346.944691 
L 607.402948 347.201962 
L 607.910729 347.119661 
L 608.418509 346.621479 
L 609.43407 346.829072 
L 609.941851 346.09859 
L 610.449631 346.814562 
L 611.465192 346.46205 
L 611.972973 346.842773 
L 612.480753 346.534879 
L 612.988534 346.96397 
L 613.496314 346.351562 
L 615.019656 346.470398 
L 615.527437 346.69502 
L 616.035217 346.715889 
L 616.542998 347.044953 
L 617.050778 346.772033 
L 617.558559 346.292113 
L 618.066339 346.566805 
L 619.0819 346.756095 
L 619.589681 346.521575 
L 620.097461 346.413344 
L 620.605242 346.70132 
L 621.113022 346.713737 
L 621.620803 346.398078 
L 622.128583 346.625257 
L 622.636364 346.408067 
L 622.636364 346.408067 
" clip-path="url(#p1511803c48)" style="fill: none; stroke: #d62728; stroke-width: 1.5; stroke-linecap: square"/>
   </g>
   <g id="patch_3">
    <path d="M 90 384.48 
L 90 51.84 
" style="fill: none; stroke: #000000; stroke-width: 0.8; stroke-linejoin: miter; stroke-linecap: square"/>
   </g>
   <g id="patch_4">
    <path d="M 648 384.48 
L 648 51.84 
" style="fill: none; stroke: #000000; stroke-width: 0.8; stroke-linejoin: miter; stroke-linecap: square"/>
   </g>
   <g id="patch_5">
    <path d="M 90 384.48 
L 648 384.48 
" style="fill: none; stroke: #000000; stroke-width: 0.8; stroke-linejoin: miter; stroke-linecap: square"/>
   </g>
   <g id="patch_6">
    <path d="M 90 51.84 
L 648 51.84 
" style="fill: none; stroke: #000000; stroke-width: 0.8; stroke-linejoin: miter; stroke-linecap: square"/>
   </g>
   <g id="text_15">
    <!-- Accuracy -->
    <g transform="translate(341.60625 45.84) scale(0.12 -0.12)">
     <use xlink:href="#DejaVuSans-41"/>
     <use xlink:href="#DejaVuSans-63" x="66.658203"/>
     <use xlink:href="#DejaVuSans-63" x="121.638672"/>
     <use xlink:href="#DejaVuSans-75" x="176.619141"/>
     <use xlink:href="#DejaVuSans-72" x="239.998047"/>
     <use xlink:href="#DejaVuSans-61" x="281.111328"/>
     <use xlink:href="#DejaVuSans-63" x="342.390625"/>
     <use xlink:href="#DejaVuSans-79" x="397.371094"/>
    </g>
   </g>
   <g id="legend_1">
    <g id="patch_7">
     <path d="M 97 119.665 
L 177.303125 119.665 
Q 179.303125 119.665 179.303125 117.665 
L 179.303125 58.84 
Q 179.303125 56.84 177.303125 56.84 
L 97 56.84 
Q 95 56.84 95 58.84 
L 95 117.665 
Q 95 119.665 97 119.665 
z
" style="fill: #ffffff; opacity: 0.8; stroke: #cccccc; stroke-linejoin: miter"/>
    </g>
    <g id="line2d_17">
     <path d="M 99 64.938437 
L 109 64.938437 
L 119 64.938437 
" style="fill: none; stroke: #1f77b4; stroke-width: 1.5; stroke-linecap: square"/>
    </g>
    <g id="text_16">
     <!-- Train_acc -->
     <g transform="translate(127 68.438437) scale(0.1 -0.1)">
      <defs>
       <path id="DejaVuSans-54" d="M -19 4666 
L 3928 4666 
L 3928 4134 
L 2272 4134 
L 2272 0 
L 1638 0 
L 1638 4134 
L -19 4134 
L -19 4666 
z
" transform="scale(0.015625)"/>
       <path id="DejaVuSans-69" d="M 603 3500 
L 1178 3500 
L 1178 0 
L 603 0 
L 603 3500 
z
M 603 4863 
L 1178 4863 
L 1178 4134 
L 603 4134 
L 603 4863 
z
" transform="scale(0.015625)"/>
       <path id="DejaVuSans-6e" d="M 3513 2113 
L 3513 0 
L 2938 0 
L 2938 2094 
Q 2938 2591 2744 2837 
Q 2550 3084 2163 3084 
Q 1697 3084 1428 2787 
Q 1159 2491 1159 1978 
L 1159 0 
L 581 0 
L 581 3500 
L 1159 3500 
L 1159 2956 
Q 1366 3272 1645 3428 
Q 1925 3584 2291 3584 
Q 2894 3584 3203 3211 
Q 3513 2838 3513 2113 
z
" transform="scale(0.015625)"/>
       <path id="DejaVuSans-5f" d="M 3263 -1063 
L 3263 -1509 
L -63 -1509 
L -63 -1063 
L 3263 -1063 
z
" transform="scale(0.015625)"/>
      </defs>
      <use xlink:href="#DejaVuSans-54"/>
      <use xlink:href="#DejaVuSans-72" x="46.333984"/>
      <use xlink:href="#DejaVuSans-61" x="87.447266"/>
      <use xlink:href="#DejaVuSans-69" x="148.726562"/>
      <use xlink:href="#DejaVuSans-6e" x="176.509766"/>
      <use xlink:href="#DejaVuSans-5f" x="239.888672"/>
      <use xlink:href="#DejaVuSans-61" x="289.888672"/>
      <use xlink:href="#DejaVuSans-63" x="351.167969"/>
      <use xlink:href="#DejaVuSans-63" x="406.148438"/>
     </g>
    </g>
    <g id="line2d_18">
     <path d="M 99 79.894687 
L 109 79.894687 
L 119 79.894687 
" style="fill: none; stroke: #ff7f0e; stroke-width: 1.5; stroke-linecap: square"/>
    </g>
    <g id="text_17">
     <!-- Test_acc -->
     <g transform="translate(127 83.394687) scale(0.1 -0.1)">
      <defs>
       <path id="DejaVuSans-65" d="M 3597 1894 
L 3597 1613 
L 953 1613 
Q 991 1019 1311 708 
Q 1631 397 2203 397 
Q 2534 397 2845 478 
Q 3156 559 3463 722 
L 3463 178 
Q 3153 47 2828 -22 
Q 2503 -91 2169 -91 
Q 1331 -91 842 396 
Q 353 884 353 1716 
Q 353 2575 817 3079 
Q 1281 3584 2069 3584 
Q 2775 3584 3186 3129 
Q 3597 2675 3597 1894 
z
M 3022 2063 
Q 3016 2534 2758 2815 
Q 2500 3097 2075 3097 
Q 1594 3097 1305 2825 
Q 1016 2553 972 2059 
L 3022 2063 
z
" transform="scale(0.015625)"/>
       <path id="DejaVuSans-73" d="M 2834 3397 
L 2834 2853 
Q 2591 2978 2328 3040 
Q 2066 3103 1784 3103 
Q 1356 3103 1142 2972 
Q 928 2841 928 2578 
Q 928 2378 1081 2264 
Q 1234 2150 1697 2047 
L 1894 2003 
Q 2506 1872 2764 1633 
Q 3022 1394 3022 966 
Q 3022 478 2636 193 
Q 2250 -91 1575 -91 
Q 1294 -91 989 -36 
Q 684 19 347 128 
L 347 722 
Q 666 556 975 473 
Q 1284 391 1588 391 
Q 1994 391 2212 530 
Q 2431 669 2431 922 
Q 2431 1156 2273 1281 
Q 2116 1406 1581 1522 
L 1381 1569 
Q 847 1681 609 1914 
Q 372 2147 372 2553 
Q 372 3047 722 3315 
Q 1072 3584 1716 3584 
Q 2034 3584 2315 3537 
Q 2597 3491 2834 3397 
z
" transform="scale(0.015625)"/>
       <path id="DejaVuSans-74" d="M 1172 4494 
L 1172 3500 
L 2356 3500 
L 2356 3053 
L 1172 3053 
L 1172 1153 
Q 1172 725 1289 603 
Q 1406 481 1766 481 
L 2356 481 
L 2356 0 
L 1766 0 
Q 1100 0 847 248 
Q 594 497 594 1153 
L 594 3053 
L 172 3053 
L 172 3500 
L 594 3500 
L 594 4494 
L 1172 4494 
z
" transform="scale(0.015625)"/>
      </defs>
      <use xlink:href="#DejaVuSans-54"/>
      <use xlink:href="#DejaVuSans-65" x="44.083984"/>
      <use xlink:href="#DejaVuSans-73" x="105.607422"/>
      <use xlink:href="#DejaVuSans-74" x="157.707031"/>
      <use xlink:href="#DejaVuSans-5f" x="196.916016"/>
      <use xlink:href="#DejaVuSans-61" x="246.916016"/>
      <use xlink:href="#DejaVuSans-63" x="308.195312"/>
      <use xlink:href="#DejaVuSans-63" x="363.175781"/>
     </g>
    </g>
    <g id="line2d_19">
     <path d="M 99 94.850937 
L 109 94.850937 
L 119 94.850937 
" style="fill: none; stroke: #2ca02c; stroke-width: 1.5; stroke-linecap: square"/>
    </g>
    <g id="text_18">
     <!-- Train_loss -->
     <g transform="translate(127 98.350937) scale(0.1 -0.1)">
      <defs>
       <path id="DejaVuSans-6c" d="M 603 4863 
L 1178 4863 
L 1178 0 
L 603 0 
L 603 4863 
z
" transform="scale(0.015625)"/>
      </defs>
      <use xlink:href="#DejaVuSans-54"/>
      <use xlink:href="#DejaVuSans-72" x="46.333984"/>
      <use xlink:href="#DejaVuSans-61" x="87.447266"/>
      <use xlink:href="#DejaVuSans-69" x="148.726562"/>
      <use xlink:href="#DejaVuSans-6e" x="176.509766"/>
      <use xlink:href="#DejaVuSans-5f" x="239.888672"/>
      <use xlink:href="#DejaVuSans-6c" x="289.888672"/>
      <use xlink:href="#DejaVuSans-6f" x="317.671875"/>
      <use xlink:href="#DejaVuSans-73" x="378.853516"/>
      <use xlink:href="#DejaVuSans-73" x="430.953125"/>
     </g>
    </g>
    <g id="line2d_20">
     <path d="M 99 109.807187 
L 109 109.807187 
L 119 109.807187 
" style="fill: none; stroke: #d62728; stroke-width: 1.5; stroke-linecap: square"/>
    </g>
    <g id="text_19">
     <!-- Test_loss -->
     <g transform="translate(127 113.307187) scale(0.1 -0.1)">
      <use xlink:href="#DejaVuSans-54"/>
      <use xlink:href="#DejaVuSans-65" x="44.083984"/>
      <use xlink:href="#DejaVuSans-73" x="105.607422"/>
      <use xlink:href="#DejaVuSans-74" x="157.707031"/>
      <use xlink:href="#DejaVuSans-5f" x="196.916016"/>
      <use xlink:href="#DejaVuSans-6c" x="246.916016"/>
      <use xlink:href="#DejaVuSans-6f" x="274.699219"/>
      <use xlink:href="#DejaVuSans-73" x="335.880859"/>
      <use xlink:href="#DejaVuSans-73" x="387.980469"/>
     </g>
    </g>
   </g>
  </g>
 </g>
 <defs>
  <clipPath id="p1511803c48">
   <rect x="90" y="51.84" width="558" height="332.64"/>
  </clipPath>
 </defs>
</svg>
