<?xml version="1.0" encoding="utf-8" standalone="no"?>
<!DOCTYPE svg PUBLIC "-//W3C//DTD SVG 1.1//EN"
  "http://www.w3.org/Graphics/SVG/1.1/DTD/svg11.dtd">
<svg xmlns:xlink="http://www.w3.org/1999/xlink" width="720pt" height="432pt" viewBox="0 0 720 432" xmlns="http://www.w3.org/2000/svg" version="1.1">
 <metadata>
  <rdf:RDF xmlns:dc="http://purl.org/dc/elements/1.1/" xmlns:cc="http://creativecommons.org/ns#" xmlns:rdf="http://www.w3.org/1999/02/22-rdf-syntax-ns#">
   <cc:Work>
    <dc:type rdf:resource="http://purl.org/dc/dcmitype/StillImage"/>
    <dc:date>2023-04-16T20:04:52.635079</dc:date>
    <dc:format>image/svg+xml</dc:format>
    <dc:creator>
     <cc:Agent>
      <dc:title>Matplotlib v3.7.1, https://matplotlib.org/</dc:title>
     </cc:Agent>
    </dc:creator>
   </cc:Work>
  </rdf:RDF>
 </metadata>
 <defs>
  <style type="text/css">*{stroke-linejoin: round; stroke-linecap: butt}</style>
 </defs>
 <g id="figure_1">
  <g id="patch_1">
   <path d="M 0 432 
L 720 432 
L 720 0 
L 0 0 
z
" style="fill: #ffffff"/>
  </g>
  <g id="axes_1">
   <g id="patch_2">
    <path d="M 90 384.48 
L 648 384.48 
L 648 51.84 
L 90 51.84 
z
" style="fill: #ffffff"/>
   </g>
   <g id="matplotlib.axis_1">
    <g id="xtick_1">
     <g id="line2d_1">
      <defs>
       <path id="mebfd108ce3" d="M 0 0 
L 0 3.5 
" style="stroke: #000000; stroke-width: 0.8"/>
      </defs>
      <g>
       <use xlink:href="#mebfd108ce3" x="115.363636" y="384.48" style="stroke: #000000; stroke-width: 0.8"/>
      </g>
     </g>
     <g id="text_1">
      <!-- 0 -->
      <g transform="translate(112.182386 399.078438) scale(0.1 -0.1)">
       <defs>
        <path id="DejaVuSans-30" d="M 2034 4250 
Q 1547 4250 1301 3770 
Q 1056 3291 1056 2328 
Q 1056 1369 1301 889 
Q 1547 409 2034 409 
Q 2525 409 2770 889 
Q 3016 1369 3016 2328 
Q 3016 3291 2770 3770 
Q 2525 4250 2034 4250 
z
M 2034 4750 
Q 2819 4750 3233 4129 
Q 3647 3509 3647 2328 
Q 3647 1150 3233 529 
Q 2819 -91 2034 -91 
Q 1250 -91 836 529 
Q 422 1150 422 2328 
Q 422 3509 836 4129 
Q 1250 4750 2034 4750 
z
" transform="scale(0.015625)"/>
       </defs>
       <use xlink:href="#DejaVuSans-30"/>
      </g>
     </g>
    </g>
    <g id="xtick_2">
     <g id="line2d_2">
      <g>
       <use xlink:href="#mebfd108ce3" x="216.919738" y="384.48" style="stroke: #000000; stroke-width: 0.8"/>
      </g>
     </g>
     <g id="text_2">
      <!-- 200 -->
      <g transform="translate(207.375988 399.078438) scale(0.1 -0.1)">
       <defs>
        <path id="DejaVuSans-32" d="M 1228 531 
L 3431 531 
L 3431 0 
L 469 0 
L 469 531 
Q 828 903 1448 1529 
Q 2069 2156 2228 2338 
Q 2531 2678 2651 2914 
Q 2772 3150 2772 3378 
Q 2772 3750 2511 3984 
Q 2250 4219 1831 4219 
Q 1534 4219 1204 4116 
Q 875 4013 500 3803 
L 500 4441 
Q 881 4594 1212 4672 
Q 1544 4750 1819 4750 
Q 2544 4750 2975 4387 
Q 3406 4025 3406 3419 
Q 3406 3131 3298 2873 
Q 3191 2616 2906 2266 
Q 2828 2175 2409 1742 
Q 1991 1309 1228 531 
z
" transform="scale(0.015625)"/>
       </defs>
       <use xlink:href="#DejaVuSans-32"/>
       <use xlink:href="#DejaVuSans-30" x="63.623047"/>
       <use xlink:href="#DejaVuSans-30" x="127.246094"/>
      </g>
     </g>
    </g>
    <g id="xtick_3">
     <g id="line2d_3">
      <g>
       <use xlink:href="#mebfd108ce3" x="318.475839" y="384.48" style="stroke: #000000; stroke-width: 0.8"/>
      </g>
     </g>
     <g id="text_3">
      <!-- 400 -->
      <g transform="translate(308.932089 399.078438) scale(0.1 -0.1)">
       <defs>
        <path id="DejaVuSans-34" d="M 2419 4116 
L 825 1625 
L 2419 1625 
L 2419 4116 
z
M 2253 4666 
L 3047 4666 
L 3047 1625 
L 3713 1625 
L 3713 1100 
L 3047 1100 
L 3047 0 
L 2419 0 
L 2419 1100 
L 313 1100 
L 313 1709 
L 2253 4666 
z
" transform="scale(0.015625)"/>
       </defs>
       <use xlink:href="#DejaVuSans-34"/>
       <use xlink:href="#DejaVuSans-30" x="63.623047"/>
       <use xlink:href="#DejaVuSans-30" x="127.246094"/>
      </g>
     </g>
    </g>
    <g id="xtick_4">
     <g id="line2d_4">
      <g>
       <use xlink:href="#mebfd108ce3" x="420.031941" y="384.48" style="stroke: #000000; stroke-width: 0.8"/>
      </g>
     </g>
     <g id="text_4">
      <!-- 600 -->
      <g transform="translate(410.488191 399.078438) scale(0.1 -0.1)">
       <defs>
        <path id="DejaVuSans-36" d="M 2113 2584 
Q 1688 2584 1439 2293 
Q 1191 2003 1191 1497 
Q 1191 994 1439 701 
Q 1688 409 2113 409 
Q 2538 409 2786 701 
Q 3034 994 3034 1497 
Q 3034 2003 2786 2293 
Q 2538 2584 2113 2584 
z
M 3366 4563 
L 3366 3988 
Q 3128 4100 2886 4159 
Q 2644 4219 2406 4219 
Q 1781 4219 1451 3797 
Q 1122 3375 1075 2522 
Q 1259 2794 1537 2939 
Q 1816 3084 2150 3084 
Q 2853 3084 3261 2657 
Q 3669 2231 3669 1497 
Q 3669 778 3244 343 
Q 2819 -91 2113 -91 
Q 1303 -91 875 529 
Q 447 1150 447 2328 
Q 447 3434 972 4092 
Q 1497 4750 2381 4750 
Q 2619 4750 2861 4703 
Q 3103 4656 3366 4563 
z
" transform="scale(0.015625)"/>
       </defs>
       <use xlink:href="#DejaVuSans-36"/>
       <use xlink:href="#DejaVuSans-30" x="63.623047"/>
       <use xlink:href="#DejaVuSans-30" x="127.246094"/>
      </g>
     </g>
    </g>
    <g id="xtick_5">
     <g id="line2d_5">
      <g>
       <use xlink:href="#mebfd108ce3" x="521.588043" y="384.48" style="stroke: #000000; stroke-width: 0.8"/>
      </g>
     </g>
     <g id="text_5">
      <!-- 800 -->
      <g transform="translate(512.044293 399.078438) scale(0.1 -0.1)">
       <defs>
        <path id="DejaVuSans-38" d="M 2034 2216 
Q 1584 2216 1326 1975 
Q 1069 1734 1069 1313 
Q 1069 891 1326 650 
Q 1584 409 2034 409 
Q 2484 409 2743 651 
Q 3003 894 3003 1313 
Q 3003 1734 2745 1975 
Q 2488 2216 2034 2216 
z
M 1403 2484 
Q 997 2584 770 2862 
Q 544 3141 544 3541 
Q 544 4100 942 4425 
Q 1341 4750 2034 4750 
Q 2731 4750 3128 4425 
Q 3525 4100 3525 3541 
Q 3525 3141 3298 2862 
Q 3072 2584 2669 2484 
Q 3125 2378 3379 2068 
Q 3634 1759 3634 1313 
Q 3634 634 3220 271 
Q 2806 -91 2034 -91 
Q 1263 -91 848 271 
Q 434 634 434 1313 
Q 434 1759 690 2068 
Q 947 2378 1403 2484 
z
M 1172 3481 
Q 1172 3119 1398 2916 
Q 1625 2713 2034 2713 
Q 2441 2713 2670 2916 
Q 2900 3119 2900 3481 
Q 2900 3844 2670 4047 
Q 2441 4250 2034 4250 
Q 1625 4250 1398 4047 
Q 1172 3844 1172 3481 
z
" transform="scale(0.015625)"/>
       </defs>
       <use xlink:href="#DejaVuSans-38"/>
       <use xlink:href="#DejaVuSans-30" x="63.623047"/>
       <use xlink:href="#DejaVuSans-30" x="127.246094"/>
      </g>
     </g>
    </g>
    <g id="xtick_6">
     <g id="line2d_6">
      <g>
       <use xlink:href="#mebfd108ce3" x="623.144144" y="384.48" style="stroke: #000000; stroke-width: 0.8"/>
      </g>
     </g>
     <g id="text_6">
      <!-- 1000 -->
      <g transform="translate(610.419144 399.078438) scale(0.1 -0.1)">
       <defs>
        <path id="DejaVuSans-31" d="M 794 531 
L 1825 531 
L 1825 4091 
L 703 3866 
L 703 4441 
L 1819 4666 
L 2450 4666 
L 2450 531 
L 3481 531 
L 3481 0 
L 794 0 
L 794 531 
z
" transform="scale(0.015625)"/>
       </defs>
       <use xlink:href="#DejaVuSans-31"/>
       <use xlink:href="#DejaVuSans-30" x="63.623047"/>
       <use xlink:href="#DejaVuSans-30" x="127.246094"/>
       <use xlink:href="#DejaVuSans-30" x="190.869141"/>
      </g>
     </g>
    </g>
    <g id="text_7">
     <!-- Epoch -->
     <g transform="translate(353.689062 412.756563) scale(0.1 -0.1)">
      <defs>
       <path id="DejaVuSans-45" d="M 628 4666 
L 3578 4666 
L 3578 4134 
L 1259 4134 
L 1259 2753 
L 3481 2753 
L 3481 2222 
L 1259 2222 
L 1259 531 
L 3634 531 
L 3634 0 
L 628 0 
L 628 4666 
z
" transform="scale(0.015625)"/>
       <path id="DejaVuSans-70" d="M 1159 525 
L 1159 -1331 
L 581 -1331 
L 581 3500 
L 1159 3500 
L 1159 2969 
Q 1341 3281 1617 3432 
Q 1894 3584 2278 3584 
Q 2916 3584 3314 3078 
Q 3713 2572 3713 1747 
Q 3713 922 3314 415 
Q 2916 -91 2278 -91 
Q 1894 -91 1617 61 
Q 1341 213 1159 525 
z
M 3116 1747 
Q 3116 2381 2855 2742 
Q 2594 3103 2138 3103 
Q 1681 3103 1420 2742 
Q 1159 2381 1159 1747 
Q 1159 1113 1420 752 
Q 1681 391 2138 391 
Q 2594 391 2855 752 
Q 3116 1113 3116 1747 
z
" transform="scale(0.015625)"/>
       <path id="DejaVuSans-6f" d="M 1959 3097 
Q 1497 3097 1228 2736 
Q 959 2375 959 1747 
Q 959 1119 1226 758 
Q 1494 397 1959 397 
Q 2419 397 2687 759 
Q 2956 1122 2956 1747 
Q 2956 2369 2687 2733 
Q 2419 3097 1959 3097 
z
M 1959 3584 
Q 2709 3584 3137 3096 
Q 3566 2609 3566 1747 
Q 3566 888 3137 398 
Q 2709 -91 1959 -91 
Q 1206 -91 779 398 
Q 353 888 353 1747 
Q 353 2609 779 3096 
Q 1206 3584 1959 3584 
z
" transform="scale(0.015625)"/>
       <path id="DejaVuSans-63" d="M 3122 3366 
L 3122 2828 
Q 2878 2963 2633 3030 
Q 2388 3097 2138 3097 
Q 1578 3097 1268 2742 
Q 959 2388 959 1747 
Q 959 1106 1268 751 
Q 1578 397 2138 397 
Q 2388 397 2633 464 
Q 2878 531 3122 666 
L 3122 134 
Q 2881 22 2623 -34 
Q 2366 -91 2075 -91 
Q 1284 -91 818 406 
Q 353 903 353 1747 
Q 353 2603 823 3093 
Q 1294 3584 2113 3584 
Q 2378 3584 2631 3529 
Q 2884 3475 3122 3366 
z
" transform="scale(0.015625)"/>
       <path id="DejaVuSans-68" d="M 3513 2113 
L 3513 0 
L 2938 0 
L 2938 2094 
Q 2938 2591 2744 2837 
Q 2550 3084 2163 3084 
Q 1697 3084 1428 2787 
Q 1159 2491 1159 1978 
L 1159 0 
L 581 0 
L 581 4863 
L 1159 4863 
L 1159 2956 
Q 1366 3272 1645 3428 
Q 1925 3584 2291 3584 
Q 2894 3584 3203 3211 
Q 3513 2838 3513 2113 
z
" transform="scale(0.015625)"/>
      </defs>
      <use xlink:href="#DejaVuSans-45"/>
      <use xlink:href="#DejaVuSans-70" x="63.183594"/>
      <use xlink:href="#DejaVuSans-6f" x="126.660156"/>
      <use xlink:href="#DejaVuSans-63" x="187.841797"/>
      <use xlink:href="#DejaVuSans-68" x="242.822266"/>
     </g>
    </g>
   </g>
   <g id="matplotlib.axis_2">
    <g id="ytick_1">
     <g id="line2d_7">
      <defs>
       <path id="m1e5acb8c6d" d="M 0 0 
L -3.5 0 
" style="stroke: #000000; stroke-width: 0.8"/>
      </defs>
      <g>
       <use xlink:href="#m1e5acb8c6d" x="90" y="369.360519" style="stroke: #000000; stroke-width: 0.8"/>
      </g>
     </g>
     <g id="text_8">
      <!-- 0.0 -->
      <g transform="translate(67.096875 373.159737) scale(0.1 -0.1)">
       <defs>
        <path id="DejaVuSans-2e" d="M 684 794 
L 1344 794 
L 1344 0 
L 684 0 
L 684 794 
z
" transform="scale(0.015625)"/>
       </defs>
       <use xlink:href="#DejaVuSans-30"/>
       <use xlink:href="#DejaVuSans-2e" x="63.623047"/>
       <use xlink:href="#DejaVuSans-30" x="95.410156"/>
      </g>
     </g>
    </g>
    <g id="ytick_2">
     <g id="line2d_8">
      <g>
       <use xlink:href="#m1e5acb8c6d" x="90" y="308.880415" style="stroke: #000000; stroke-width: 0.8"/>
      </g>
     </g>
     <g id="text_9">
      <!-- 0.2 -->
      <g transform="translate(67.096875 312.679634) scale(0.1 -0.1)">
       <use xlink:href="#DejaVuSans-30"/>
       <use xlink:href="#DejaVuSans-2e" x="63.623047"/>
       <use xlink:href="#DejaVuSans-32" x="95.410156"/>
      </g>
     </g>
    </g>
    <g id="ytick_3">
     <g id="line2d_9">
      <g>
       <use xlink:href="#m1e5acb8c6d" x="90" y="248.400311" style="stroke: #000000; stroke-width: 0.8"/>
      </g>
     </g>
     <g id="text_10">
      <!-- 0.4 -->
      <g transform="translate(67.096875 252.19953) scale(0.1 -0.1)">
       <use xlink:href="#DejaVuSans-30"/>
       <use xlink:href="#DejaVuSans-2e" x="63.623047"/>
       <use xlink:href="#DejaVuSans-34" x="95.410156"/>
      </g>
     </g>
    </g>
    <g id="ytick_4">
     <g id="line2d_10">
      <g>
       <use xlink:href="#m1e5acb8c6d" x="90" y="187.920207" style="stroke: #000000; stroke-width: 0.8"/>
      </g>
     </g>
     <g id="text_11">
      <!-- 0.6 -->
      <g transform="translate(67.096875 191.719426) scale(0.1 -0.1)">
       <use xlink:href="#DejaVuSans-30"/>
       <use xlink:href="#DejaVuSans-2e" x="63.623047"/>
       <use xlink:href="#DejaVuSans-36" x="95.410156"/>
      </g>
     </g>
    </g>
    <g id="ytick_5">
     <g id="line2d_11">
      <g>
       <use xlink:href="#m1e5acb8c6d" x="90" y="127.440104" style="stroke: #000000; stroke-width: 0.8"/>
      </g>
     </g>
     <g id="text_12">
      <!-- 0.8 -->
      <g transform="translate(67.096875 131.239322) scale(0.1 -0.1)">
       <use xlink:href="#DejaVuSans-30"/>
       <use xlink:href="#DejaVuSans-2e" x="63.623047"/>
       <use xlink:href="#DejaVuSans-38" x="95.410156"/>
      </g>
     </g>
    </g>
    <g id="ytick_6">
     <g id="line2d_12">
      <g>
       <use xlink:href="#m1e5acb8c6d" x="90" y="66.96" style="stroke: #000000; stroke-width: 0.8"/>
      </g>
     </g>
     <g id="text_13">
      <!-- 1.0 -->
      <g transform="translate(67.096875 70.759219) scale(0.1 -0.1)">
       <use xlink:href="#DejaVuSans-31"/>
       <use xlink:href="#DejaVuSans-2e" x="63.623047"/>
       <use xlink:href="#DejaVuSans-30" x="95.410156"/>
      </g>
     </g>
    </g>
    <g id="text_14">
     <!-- Accuracy -->
     <g transform="translate(61.017187 240.988125) rotate(-90) scale(0.1 -0.1)">
      <defs>
       <path id="DejaVuSans-41" d="M 2188 4044 
L 1331 1722 
L 3047 1722 
L 2188 4044 
z
M 1831 4666 
L 2547 4666 
L 4325 0 
L 3669 0 
L 3244 1197 
L 1141 1197 
L 716 0 
L 50 0 
L 1831 4666 
z
" transform="scale(0.015625)"/>
       <path id="DejaVuSans-75" d="M 544 1381 
L 544 3500 
L 1119 3500 
L 1119 1403 
Q 1119 906 1312 657 
Q 1506 409 1894 409 
Q 2359 409 2629 706 
Q 2900 1003 2900 1516 
L 2900 3500 
L 3475 3500 
L 3475 0 
L 2900 0 
L 2900 538 
Q 2691 219 2414 64 
Q 2138 -91 1772 -91 
Q 1169 -91 856 284 
Q 544 659 544 1381 
z
M 1991 3584 
L 1991 3584 
z
" transform="scale(0.015625)"/>
       <path id="DejaVuSans-72" d="M 2631 2963 
Q 2534 3019 2420 3045 
Q 2306 3072 2169 3072 
Q 1681 3072 1420 2755 
Q 1159 2438 1159 1844 
L 1159 0 
L 581 0 
L 581 3500 
L 1159 3500 
L 1159 2956 
Q 1341 3275 1631 3429 
Q 1922 3584 2338 3584 
Q 2397 3584 2469 3576 
Q 2541 3569 2628 3553 
L 2631 2963 
z
" transform="scale(0.015625)"/>
       <path id="DejaVuSans-61" d="M 2194 1759 
Q 1497 1759 1228 1600 
Q 959 1441 959 1056 
Q 959 750 1161 570 
Q 1363 391 1709 391 
Q 2188 391 2477 730 
Q 2766 1069 2766 1631 
L 2766 1759 
L 2194 1759 
z
M 3341 1997 
L 3341 0 
L 2766 0 
L 2766 531 
Q 2569 213 2275 61 
Q 1981 -91 1556 -91 
Q 1019 -91 701 211 
Q 384 513 384 1019 
Q 384 1609 779 1909 
Q 1175 2209 1959 2209 
L 2766 2209 
L 2766 2266 
Q 2766 2663 2505 2880 
Q 2244 3097 1772 3097 
Q 1472 3097 1187 3025 
Q 903 2953 641 2809 
L 641 3341 
Q 956 3463 1253 3523 
Q 1550 3584 1831 3584 
Q 2591 3584 2966 3190 
Q 3341 2797 3341 1997 
z
" transform="scale(0.015625)"/>
       <path id="DejaVuSans-79" d="M 2059 -325 
Q 1816 -950 1584 -1140 
Q 1353 -1331 966 -1331 
L 506 -1331 
L 506 -850 
L 844 -850 
Q 1081 -850 1212 -737 
Q 1344 -625 1503 -206 
L 1606 56 
L 191 3500 
L 800 3500 
L 1894 763 
L 2988 3500 
L 3597 3500 
L 2059 -325 
z
" transform="scale(0.015625)"/>
      </defs>
      <use xlink:href="#DejaVuSans-41"/>
      <use xlink:href="#DejaVuSans-63" x="66.658203"/>
      <use xlink:href="#DejaVuSans-63" x="121.638672"/>
      <use xlink:href="#DejaVuSans-75" x="176.619141"/>
      <use xlink:href="#DejaVuSans-72" x="239.998047"/>
      <use xlink:href="#DejaVuSans-61" x="281.111328"/>
      <use xlink:href="#DejaVuSans-63" x="342.390625"/>
      <use xlink:href="#DejaVuSans-79" x="397.371094"/>
     </g>
    </g>
   </g>
   <g id="line2d_13">
    <path d="M 115.363636 331.112901 
L 115.871417 291.377473 
L 116.379197 260.399564 
L 117.394758 233.328669 
L 118.410319 212.692858 
L 120.441441 183.601928 
L 123.995905 141.852512 
L 128.56593 99.105175 
L 129.581491 92.40398 
L 130.089271 88.496965 
L 130.597052 87.275267 
L 131.104832 84.341982 
L 133.135954 77.864563 
L 133.643735 77.102513 
L 134.151515 76.667057 
L 134.659296 75.923151 
L 135.167076 74.798221 
L 135.674857 74.096652 
L 136.182637 73.975692 
L 136.690418 72.911242 
L 137.198198 72.905194 
L 137.705979 72.324585 
L 138.72154 71.70164 
L 139.22932 71.133127 
L 139.737101 71.45972 
L 140.244881 71.072647 
L 140.752662 71.018215 
L 141.768223 70.461798 
L 142.276003 70.18359 
L 142.783784 70.298502 
L 143.291564 69.705797 
L 143.799345 69.711845 
L 144.307125 70.050533 
L 144.814906 69.645317 
L 146.338247 69.627173 
L 146.846028 69.094948 
L 147.353808 69.14938 
L 147.861589 68.992131 
L 148.87715 68.955843 
L 149.38493 68.762307 
L 149.892711 69.0889 
L 150.400491 68.762307 
L 150.908272 68.961891 
L 151.923833 68.750211 
L 152.431613 68.435715 
L 152.939394 68.647395 
L 153.447174 68.38733 
L 154.462735 68.465955 
L 154.970516 68.532483 
L 155.478296 68.23613 
L 157.001638 68.284514 
L 157.509419 68.006306 
L 158.017199 68.290562 
L 158.52498 68.248226 
L 159.03276 68.08493 
L 159.540541 68.23613 
L 160.048321 68.072834 
L 161.063882 68.20589 
L 163.095004 67.976066 
L 163.602785 68.17565 
L 164.618346 67.891394 
L 165.126126 67.885346 
L 165.633907 67.576897 
L 166.141687 67.643425 
L 166.649468 67.921634 
L 167.665029 67.734145 
L 168.172809 67.867202 
L 168.68059 67.861154 
L 169.18837 67.595041 
L 169.696151 67.582945 
L 170.203931 67.722049 
L 170.711712 67.667617 
L 171.219492 67.728097 
L 172.235053 67.540609 
L 172.742834 67.685761 
L 173.250614 67.691809 
L 173.758395 67.407553 
L 174.266175 67.480129 
L 174.773956 67.782529 
L 175.789517 67.752289 
L 176.297297 67.570849 
L 176.805078 67.576897 
L 177.312858 67.746241 
L 177.820639 67.540609 
L 178.328419 67.752289 
L 180.359541 67.637377 
L 180.867322 67.625281 
L 181.375102 67.486177 
L 182.898444 67.540609 
L 183.406224 67.631329 
L 183.914005 67.540609 
L 184.421785 67.582945 
L 185.437346 67.365217 
L 185.945127 67.461985 
L 186.452907 67.413601 
L 186.960688 67.619233 
L 187.976249 67.522465 
L 188.484029 67.468033 
L 188.99181 67.564801 
L 190.007371 67.419649 
L 193.561835 67.449889 
L 194.069615 67.613185 
L 194.577396 67.292641 
L 196.608518 67.425697 
L 197.116298 67.498273 
L 197.624079 67.347073 
L 198.131859 67.474081 
L 199.14742 67.401505 
L 200.162981 67.262401 
L 201.178542 67.389409 
L 201.686323 67.250304 
L 207.271908 67.419649 
L 207.779689 67.250304 
L 209.810811 67.268449 
L 210.318591 67.298689 
L 210.826372 67.214016 
L 213.365274 67.347073 
L 214.380835 67.304737 
L 216.411957 67.189824 
L 216.919738 67.310785 
L 217.427518 67.165632 
L 218.95086 67.268449 
L 219.966421 67.23216 
L 224.536446 67.298689 
L 225.044226 67.165632 
L 225.552007 67.322881 
L 226.059787 67.17168 
L 226.567568 67.262401 
L 227.075348 67.207968 
L 227.583129 67.280545 
L 228.090909 67.20192 
L 229.614251 67.316833 
L 230.629812 67.244256 
L 232.153153 67.226112 
L 233.676495 67.280545 
L 234.184275 67.165632 
L 234.692056 67.286593 
L 235.707617 67.14144 
L 236.215397 67.195872 
L 236.723178 67.123296 
L 237.230958 67.238208 
L 237.738739 67.165632 
L 238.7543 67.214016 
L 242.816544 67.177728 
L 243.324324 67.280545 
L 243.832105 67.087008 
L 244.339885 67.165632 
L 244.847666 67.129344 
L 245.863227 67.20192 
L 248.90991 67.250304 
L 249.41769 67.359169 
L 250.433251 67.153536 
L 251.448812 67.256353 
L 251.956593 67.165632 
L 252.972154 67.250304 
L 253.987715 67.123296 
L 259.573301 67.159584 
L 260.588862 67.117248 
L 261.604423 67.20192 
L 271.252252 67.093056 
L 271.760033 67.038624 
L 273.283374 67.1112 
L 274.806716 67.062816 
L 275.822277 67.093056 
L 276.837838 67.044672 
L 277.345618 67.165632 
L 278.86896 67.032576 
L 279.37674 67.117248 
L 280.392301 67.08096 
L 281.407862 67.117248 
L 281.915643 67.153536 
L 282.931204 67.093056 
L 283.946765 67.129344 
L 284.454545 67.486177 
L 284.962326 67.153536 
L 286.485667 67.17168 
L 289.02457 67.099104 
L 295.625717 67.056768 
L 296.133497 67.135392 
L 296.641278 67.032576 
L 297.149058 67.129344 
L 298.164619 67.14144 
L 300.703522 67.129344 
L 303.242424 67.087008 
L 305.273546 67.153536 
L 306.289107 67.074912 
L 312.890254 67.05072 
L 318.98362 67.044672 
L 320.506962 67.117248 
L 326.092547 67.074912 
L 326.600328 67.14144 
L 327.615889 67.038624 
L 333.201474 67.08096 
L 334.724816 67.17168 
L 335.740377 67.05072 
L 336.755938 67.044672 
L 337.263718 67.153536 
L 338.279279 67.087008 
L 342.341523 67.044672 
L 345.388206 67.074912 
L 346.911548 67.056768 
L 347.927109 67.032576 
L 349.958231 67.099104 
L 351.989353 67.056768 
L 352.497133 67.099104 
L 353.512695 67.02048 
L 354.020475 67.105152 
L 354.528256 67.014432 
L 356.559378 67.074912 
L 359.606061 67.117248 
L 361.129402 67.038624 
L 362.144963 67.056768 
L 364.683866 67.032576 
L 370.777232 67.135392 
L 371.285012 67.026528 
L 374.331695 67.105152 
L 374.839476 67.02048 
L 377.378378 67.068864 
L 378.90172 67.05072 
L 379.917281 67.093056 
L 380.932842 67.044672 
L 381.440622 67.099104 
L 381.948403 66.99024 
L 382.963964 67.05072 
L 383.471744 67.087008 
L 383.979525 66.996288 
L 384.487305 67.087008 
L 385.502867 67.044672 
L 386.010647 67.105152 
L 387.026208 66.996288 
L 388.54955 67.074912 
L 389.565111 67.05072 
L 392.104013 67.05072 
L 393.627355 67.02048 
L 394.642916 67.02048 
L 399.21294 67.044672 
L 400.228501 67.032576 
L 401.751843 67.026528 
L 402.259623 67.099104 
L 402.767404 67.008384 
L 405.306306 67.05072 
L 409.36855 66.978144 
L 411.907453 67.087008 
L 413.430794 67.014432 
L 416.985258 67.068864 
L 419.01638 67.002336 
L 428.156429 67.032576 
L 428.66421 66.984192 
L 429.17199 67.05072 
L 430.187551 67.026528 
L 433.234234 66.99024 
L 434.757576 67.038624 
L 435.773137 66.99024 
L 437.296478 67.014432 
L 442.374283 67.044672 
L 444.405405 67.02048 
L 445.420966 67.068864 
L 455.068796 67.038624 
L 456.592138 67.044672 
L 459.13104 67.08096 
L 460.654382 67.038624 
L 467.255528 67.014432 
L 468.271089 67.056768 
L 470.302211 67.008384 
L 475.380016 67.02048 
L 622.636364 66.978144 
L 622.636364 66.978144 
" clip-path="url(#pdd04fb28d2)" style="fill: none; stroke: #1f77b4; stroke-width: 1.5; stroke-linecap: square"/>
   </g>
   <g id="line2d_14">
    <path d="M 115.363636 319.555153 
L 115.871417 271.624671 
L 116.379197 256.807046 
L 117.394758 237.755813 
L 117.902539 230.528441 
L 118.410319 215.045534 
L 118.9181 214.350013 
L 119.933661 190.339412 
L 120.441441 186.952526 
L 120.949222 182.295558 
L 121.964783 166.873131 
L 122.472563 162.639524 
L 122.980344 162.669764 
L 123.488124 156.591514 
L 123.995905 156.047193 
L 124.503686 153.325588 
L 125.519247 144.314053 
L 126.027027 145.916775 
L 126.534808 145.251494 
L 127.042588 145.039814 
L 127.550369 145.039814 
L 128.058149 142.68109 
L 128.56593 144.616453 
L 129.07371 141.290048 
L 129.581491 142.257729 
L 130.089271 142.076289 
L 130.597052 143.195171 
L 131.104832 141.683168 
L 131.612613 146.188936 
L 132.120393 140.806207 
L 133.135954 141.290048 
L 133.643735 147.005417 
L 134.151515 140.534046 
L 134.659296 138.870843 
L 135.167076 139.505884 
L 135.674857 139.687325 
L 136.182637 139.263964 
L 136.690418 138.054362 
L 137.198198 138.114842 
L 137.705979 138.689403 
L 138.213759 137.0262 
L 138.72154 139.868765 
L 139.22932 139.687325 
L 139.737101 137.782201 
L 140.244881 138.719643 
L 140.752662 138.024122 
L 141.260442 137.721721 
L 141.768223 136.99596 
L 142.276003 136.875 
L 143.291564 137.691481 
L 143.799345 137.268121 
L 144.307125 137.207641 
L 144.814906 136.602839 
L 145.322686 136.572599 
L 145.830467 135.967798 
L 146.338247 136.209719 
L 146.846028 136.058519 
L 147.353808 136.239959 
L 147.861589 134.637236 
L 148.369369 136.179479 
L 148.87715 135.121077 
L 149.38493 136.239959 
L 149.892711 136.78428 
L 150.400491 142.49965 
L 151.416052 135.967798 
L 151.923833 135.816598 
L 152.431613 136.149239 
L 152.939394 134.486036 
L 153.447174 135.665398 
L 153.954955 134.606996 
L 154.462735 141.290048 
L 154.970516 135.181557 
L 155.478296 134.334836 
L 155.986077 135.151317 
L 156.493857 134.213875 
L 157.001638 134.213875 
L 157.509419 133.548594 
L 158.017199 134.516276 
L 158.52498 133.911475 
L 159.03276 133.850995 
L 159.540541 134.697716 
L 160.048321 134.183635 
L 160.556102 135.967798 
L 161.063882 134.213875 
L 161.571663 133.760275 
L 162.079443 134.304596 
L 162.587224 134.274355 
L 163.095004 134.092915 
L 163.602785 133.034513 
L 164.110565 134.516276 
L 164.618346 135.060597 
L 165.126126 134.546516 
L 165.633907 133.094993 
L 166.141687 133.911475 
L 166.649468 133.306674 
L 167.157248 132.943793 
L 167.665029 134.697716 
L 168.68059 133.790515 
L 169.18837 133.669554 
L 170.203931 134.334836 
L 170.711712 134.002195 
L 171.219492 132.490192 
L 171.727273 133.548594 
L 172.235053 132.671633 
L 172.742834 133.427634 
L 173.250614 132.611153 
L 174.266175 133.699794 
L 174.773956 131.643471 
L 175.281736 133.790515 
L 175.789517 134.304596 
L 176.297297 133.578834 
L 176.805078 133.578834 
L 177.312858 133.185714 
L 177.820639 134.183635 
L 178.328419 132.853073 
L 179.34398 132.913553 
L 179.851761 132.913553 
L 180.359541 133.941715 
L 180.867322 132.429712 
L 181.375102 134.002195 
L 181.882883 132.913553 
L 182.390663 133.215954 
L 182.898444 132.792593 
L 183.406224 136.300439 
L 183.914005 133.609074 
L 184.421785 132.369232 
L 184.929566 132.822833 
L 185.437346 132.974033 
L 185.945127 132.369232 
L 186.452907 133.427634 
L 186.960688 133.276434 
L 187.468468 134.032435 
L 188.484029 132.883313 
L 188.99181 134.516276 
L 189.49959 133.790515 
L 190.515152 134.969877 
L 191.022932 132.671633 
L 191.530713 133.215954 
L 192.038493 133.397394 
L 193.054054 132.490192 
L 193.561835 132.218032 
L 194.069615 132.490192 
L 194.577396 134.304596 
L 195.085176 133.699794 
L 195.592957 133.397394 
L 196.100737 132.308752 
L 196.608518 133.306674 
L 197.116298 133.094993 
L 197.624079 135.665398 
L 198.131859 134.032435 
L 198.63964 134.062675 
L 199.14742 135.211797 
L 199.655201 134.576756 
L 200.162981 133.669554 
L 201.178542 132.883313 
L 201.686323 133.367154 
L 202.194103 132.822833 
L 202.701884 133.578834 
L 203.209664 133.669554 
L 203.717445 133.881235 
L 204.225225 133.185714 
L 204.733006 134.213875 
L 205.240786 133.336914 
L 205.748567 133.276434 
L 206.256347 134.153395 
L 206.764128 133.820755 
L 207.271908 133.215954 
L 207.779689 133.548594 
L 208.287469 132.792593 
L 208.79525 133.094993 
L 209.30303 132.369232 
L 209.810811 132.369232 
L 210.318591 133.336914 
L 210.826372 132.853073 
L 211.334152 132.762353 
L 211.841933 133.457874 
L 212.349713 133.699794 
L 212.857494 133.639314 
L 213.365274 133.367154 
L 214.380835 133.276434 
L 214.888616 133.699794 
L 215.396396 133.064753 
L 215.904177 132.762353 
L 216.411957 131.976112 
L 216.919738 133.699794 
L 217.427518 132.732113 
L 217.935299 133.488114 
L 218.443079 133.881235 
L 218.95086 132.006352 
L 219.45864 132.822833 
L 219.966421 132.732113 
L 220.474201 133.185714 
L 220.981982 132.429712 
L 221.997543 134.274355 
L 222.505324 133.457874 
L 223.013104 133.760275 
L 223.520885 134.274355 
L 224.028665 132.883313 
L 224.536446 133.306674 
L 225.044226 134.334836 
L 225.552007 131.31083 
L 226.059787 132.883313 
L 226.567568 133.094993 
L 227.075348 133.941715 
L 227.583129 133.760275 
L 228.090909 133.881235 
L 228.59869 133.699794 
L 229.10647 133.820755 
L 230.122031 132.701873 
L 231.137592 133.518354 
L 231.645373 131.976112 
L 232.153153 133.034513 
L 232.660934 133.367154 
L 233.168714 132.278512 
L 233.676495 133.457874 
L 234.184275 133.730035 
L 235.199836 131.613231 
L 235.707617 132.732113 
L 236.215397 132.974033 
L 236.723178 133.367154 
L 237.230958 133.397394 
L 237.738739 133.306674 
L 238.246519 132.943793 
L 238.7543 133.185714 
L 239.26208 132.641393 
L 239.769861 132.490192 
L 240.277641 134.002195 
L 240.785422 133.397394 
L 241.293202 133.306674 
L 241.800983 132.550673 
L 242.308763 132.459952 
L 242.816544 133.881235 
L 243.324324 133.306674 
L 243.832105 133.155474 
L 244.339885 132.157552 
L 244.847666 133.276434 
L 245.355446 133.548594 
L 245.863227 133.427634 
L 246.371007 132.611153 
L 246.878788 133.881235 
L 247.386568 133.820755 
L 247.894349 133.367154 
L 248.402129 132.308752 
L 248.90991 132.520432 
L 249.41769 134.244115 
L 249.925471 133.125234 
L 250.941032 132.369232 
L 251.448812 133.609074 
L 251.956593 133.881235 
L 252.464373 132.459952 
L 252.972154 132.701873 
L 253.479934 132.701873 
L 253.987715 131.824911 
L 254.495495 134.092915 
L 255.003276 133.215954 
L 255.511057 132.671633 
L 256.018837 132.732113 
L 257.034398 132.308752 
L 257.542179 132.550673 
L 258.049959 132.520432 
L 258.55774 131.462031 
L 259.06552 132.611153 
L 259.573301 131.522511 
L 260.081081 133.185714 
L 260.588862 132.701873 
L 261.096642 133.336914 
L 261.604423 131.613231 
L 262.112203 131.855151 
L 262.619984 132.520432 
L 263.127764 131.673711 
L 263.635545 131.552751 
L 264.143325 131.703951 
L 264.651106 132.550673 
L 265.158886 131.582991 
L 265.666667 131.613231 
L 266.174447 132.157552 
L 267.190008 131.734191 
L 267.697789 132.127312 
L 268.205569 132.006352 
L 268.71335 131.643471 
L 269.22113 131.945871 
L 269.728911 131.22011 
L 270.236691 133.064753 
L 271.252252 131.22011 
L 271.760033 131.12939 
L 272.267813 131.734191 
L 272.775594 131.15963 
L 273.283374 131.824911 
L 273.791155 132.006352 
L 274.298935 132.399472 
L 274.806716 132.157552 
L 275.314496 132.701873 
L 275.822277 132.338992 
L 276.330057 132.127312 
L 276.837838 131.703951 
L 277.345618 132.369232 
L 277.853399 132.399472 
L 278.361179 132.671633 
L 278.86896 131.824911 
L 279.37674 131.764431 
L 279.884521 132.278512 
L 280.392301 131.945871 
L 280.900082 132.127312 
L 281.407862 132.974033 
L 281.915643 133.004273 
L 282.423423 132.550673 
L 282.931204 132.792593 
L 283.438984 132.580913 
L 283.946765 160.583201 
L 284.454545 133.004273 
L 284.962326 134.516276 
L 285.977887 133.669554 
L 286.485667 132.792593 
L 286.993448 132.429712 
L 287.501229 133.336914 
L 288.009009 132.943793 
L 288.51679 132.036592 
L 289.02457 132.459952 
L 289.532351 133.367154 
L 290.040131 133.004273 
L 290.547912 132.490192 
L 291.055692 132.248272 
L 291.563473 132.611153 
L 292.071253 133.306674 
L 292.579034 131.734191 
L 293.086814 134.244115 
L 293.594595 132.097072 
L 294.102375 132.550673 
L 294.610156 132.248272 
L 295.117936 133.518354 
L 295.625717 131.794671 
L 296.133497 132.490192 
L 296.641278 132.853073 
L 297.149058 132.308752 
L 297.656839 132.127312 
L 298.164619 132.762353 
L 298.6724 131.734191 
L 299.18018 133.488114 
L 299.687961 131.673711 
L 300.195741 131.855151 
L 300.703522 132.883313 
L 301.211302 132.520432 
L 301.719083 132.520432 
L 302.226863 132.338992 
L 302.734644 131.976112 
L 303.242424 132.459952 
L 303.750205 132.611153 
L 304.257985 131.855151 
L 305.273546 131.976112 
L 305.781327 131.31083 
L 307.304668 131.28059 
L 307.812449 130.88747 
L 308.320229 131.401551 
L 308.82801 131.31083 
L 309.33579 132.338992 
L 309.843571 131.734191 
L 310.351351 131.34107 
L 310.859132 130.675789 
L 311.366912 132.127312 
L 311.874693 131.15963 
L 312.382473 131.552751 
L 312.890254 131.31083 
L 313.398034 131.673711 
L 313.905815 130.766509 
L 314.921376 131.522511 
L 315.429156 131.22011 
L 315.936937 131.824911 
L 316.444717 131.794671 
L 316.952498 131.34107 
L 317.460278 131.764431 
L 317.968059 131.552751 
L 318.475839 131.915631 
L 318.98362 132.066832 
L 319.4914 130.97819 
L 319.999181 132.671633 
L 320.506962 131.462031 
L 321.014742 132.066832 
L 321.522523 132.429712 
L 322.030303 130.94795 
L 322.538084 131.855151 
L 323.045864 131.22011 
L 323.553645 130.766509 
L 324.061425 130.766509 
L 324.569206 131.492271 
L 325.076986 130.94795 
L 325.584767 131.794671 
L 326.092547 131.855151 
L 327.108108 131.522511 
L 328.63145 131.794671 
L 329.13923 132.641393 
L 330.662572 130.94795 
L 331.170352 131.976112 
L 331.678133 131.00843 
L 332.185913 132.459952 
L 332.693694 132.278512 
L 333.201474 131.22011 
L 333.709255 131.976112 
L 334.217035 131.492271 
L 334.724816 131.855151 
L 335.232596 131.12939 
L 335.740377 132.187792 
L 336.248157 131.885391 
L 336.755938 133.578834 
L 337.263718 132.066832 
L 337.771499 131.37131 
L 338.279279 132.338992 
L 338.78706 131.945871 
L 339.29484 132.308752 
L 339.802621 132.187792 
L 340.310401 132.822833 
L 340.818182 132.097072 
L 341.325962 132.308752 
L 341.833743 131.431791 
L 342.341523 131.582991 
L 342.849304 132.066832 
L 343.357084 132.308752 
L 343.864865 131.794671 
L 344.880426 133.064753 
L 345.388206 132.187792 
L 345.895987 132.369232 
L 346.403767 131.824911 
L 346.911548 132.520432 
L 347.419328 132.671633 
L 347.927109 131.824911 
L 348.434889 131.945871 
L 348.94267 132.308752 
L 349.45045 132.157552 
L 349.958231 132.732113 
L 350.466011 131.25035 
L 350.973792 131.18987 
L 351.481572 131.885391 
L 352.497133 131.673711 
L 353.004914 132.641393 
L 353.512695 132.429712 
L 354.020475 133.850995 
L 354.528256 131.915631 
L 355.036036 131.976112 
L 355.543817 131.673711 
L 356.051597 131.18987 
L 356.559378 132.520432 
L 357.067158 132.580913 
L 357.574939 133.367154 
L 358.082719 131.855151 
L 359.09828 133.004273 
L 359.606061 131.945871 
L 360.113841 131.885391 
L 361.129402 131.492271 
L 361.637183 132.974033 
L 362.144963 133.488114 
L 362.652744 132.641393 
L 363.160524 132.218032 
L 363.668305 132.218032 
L 364.176085 131.794671 
L 364.683866 131.824911 
L 365.191646 132.853073 
L 365.699427 131.734191 
L 366.207207 132.157552 
L 366.714988 132.097072 
L 367.222768 132.641393 
L 367.730549 131.855151 
L 368.238329 133.518354 
L 368.74611 132.853073 
L 369.25389 131.462031 
L 369.761671 133.911475 
L 370.269451 133.941715 
L 371.285012 132.338992 
L 371.792793 134.213875 
L 372.300573 131.522511 
L 372.808354 132.006352 
L 373.316134 133.094993 
L 373.823915 132.792593 
L 374.331695 132.278512 
L 374.839476 132.490192 
L 375.347256 132.520432 
L 375.855037 131.734191 
L 376.362817 132.248272 
L 376.870598 132.429712 
L 377.378378 131.794671 
L 377.886159 131.703951 
L 378.393939 132.853073 
L 378.90172 132.066832 
L 379.917281 132.338992 
L 380.425061 131.462031 
L 380.932842 131.764431 
L 381.440622 131.401551 
L 382.456183 131.462031 
L 382.963964 131.824911 
L 383.471744 131.492271 
L 383.979525 131.673711 
L 384.487305 132.641393 
L 385.502867 132.338992 
L 386.010647 131.37131 
L 386.518428 131.734191 
L 387.026208 131.552751 
L 388.041769 131.00843 
L 388.54955 131.03867 
L 389.05733 131.703951 
L 389.565111 130.88747 
L 390.072891 131.25035 
L 390.580672 132.097072 
L 391.088452 132.218032 
L 391.596233 131.855151 
L 392.104013 131.945871 
L 392.611794 131.06891 
L 393.119574 131.552751 
L 393.627355 131.462031 
L 394.135135 131.492271 
L 394.642916 131.03867 
L 395.150696 130.97819 
L 395.658477 131.764431 
L 396.166257 131.552751 
L 396.674038 131.552751 
L 397.181818 132.278512 
L 397.689599 132.550673 
L 398.70516 132.006352 
L 399.720721 131.401551 
L 400.228501 132.308752 
L 401.244062 131.855151 
L 401.751843 131.25035 
L 402.259623 132.520432 
L 402.767404 132.157552 
L 403.275184 132.943793 
L 403.782965 132.248272 
L 404.290745 132.853073 
L 404.798526 131.915631 
L 405.306306 132.369232 
L 405.814087 132.611153 
L 406.321867 132.429712 
L 406.829648 132.732113 
L 407.337428 131.915631 
L 408.352989 132.278512 
L 409.36855 130.91771 
L 409.876331 132.127312 
L 410.384111 131.643471 
L 410.891892 132.611153 
L 411.399672 131.03867 
L 411.907453 132.036592 
L 412.415233 131.764431 
L 412.923014 132.429712 
L 413.430794 131.03867 
L 414.954136 132.036592 
L 415.461916 131.794671 
L 415.969697 131.703951 
L 416.477477 131.28059 
L 416.985258 132.641393 
L 417.493038 131.12939 
L 418.000819 132.490192 
L 418.5086 131.462031 
L 419.01638 132.278512 
L 419.524161 131.643471 
L 420.031941 131.915631 
L 420.539722 131.582991 
L 421.555283 131.552751 
L 422.063063 132.459952 
L 423.078624 131.945871 
L 423.586405 132.490192 
L 424.094185 132.520432 
L 424.601966 132.157552 
L 425.109746 132.974033 
L 425.617527 132.187792 
L 426.125307 131.915631 
L 426.633088 132.308752 
L 427.648649 131.522511 
L 428.156429 132.006352 
L 428.66421 130.766509 
L 429.17199 132.338992 
L 430.187551 131.522511 
L 430.695332 131.915631 
L 431.203112 130.343149 
L 431.710893 130.706029 
L 432.218673 131.22011 
L 432.726454 131.18987 
L 433.742015 133.457874 
L 434.757576 131.462031 
L 435.265356 131.18987 
L 435.773137 131.734191 
L 436.280917 131.06891 
L 436.788698 131.885391 
L 437.296478 131.06891 
L 438.312039 132.611153 
L 438.81982 131.734191 
L 439.835381 132.066832 
L 440.343161 131.03867 
L 440.850942 132.671633 
L 441.358722 131.31083 
L 441.866503 130.85723 
L 442.374283 130.79675 
L 442.882064 131.764431 
L 443.389844 131.37131 
L 443.897625 131.401551 
L 444.405405 131.12939 
L 444.913186 131.734191 
L 445.420966 131.37131 
L 445.928747 132.066832 
L 446.436527 132.127312 
L 446.944308 131.824911 
L 447.452088 131.22011 
L 447.959869 131.522511 
L 448.467649 131.976112 
L 448.97543 131.552751 
L 449.48321 132.157552 
L 449.990991 131.582991 
L 450.498771 132.308752 
L 451.006552 132.218032 
L 452.022113 131.37131 
L 452.529894 131.401551 
L 453.037674 133.004273 
L 453.545455 131.643471 
L 454.053235 132.157552 
L 454.561016 132.097072 
L 455.068796 130.675789 
L 455.576577 131.552751 
L 456.084357 131.28059 
L 456.592138 132.187792 
L 457.099918 132.218032 
L 457.607699 131.03867 
L 458.115479 130.97819 
L 458.62326 130.706029 
L 459.13104 131.522511 
L 459.638821 131.915631 
L 460.146601 131.431791 
L 460.654382 131.824911 
L 461.162162 132.006352 
L 461.669943 131.552751 
L 462.685504 132.157552 
L 463.193284 132.036592 
L 463.701065 133.155474 
L 464.208845 132.580913 
L 464.716626 131.673711 
L 465.732187 131.976112 
L 466.239967 131.28059 
L 466.747748 131.613231 
L 467.255528 130.524589 
L 467.763309 130.97819 
L 468.271089 131.734191 
L 468.77887 131.06891 
L 469.28665 131.25035 
L 469.794431 130.85723 
L 470.302211 131.00843 
L 470.809992 132.097072 
L 471.317772 131.00843 
L 471.825553 132.278512 
L 472.333333 130.736269 
L 472.841114 131.552751 
L 473.348894 130.97819 
L 473.856675 131.09915 
L 474.364455 130.524589 
L 474.872236 130.82699 
L 475.380016 132.097072 
L 475.887797 131.794671 
L 476.395577 130.85723 
L 476.903358 131.25035 
L 477.411138 130.97819 
L 477.918919 131.06891 
L 478.426699 131.703951 
L 478.93448 131.552751 
L 479.44226 131.522511 
L 479.950041 130.82699 
L 480.457821 131.613231 
L 480.965602 131.22011 
L 481.981163 131.582991 
L 482.488943 131.12939 
L 482.996724 131.522511 
L 483.504505 131.673711 
L 484.012285 131.703951 
L 484.520066 131.37131 
L 485.027846 131.734191 
L 485.535627 132.399472 
L 486.043407 132.127312 
L 486.551188 131.582991 
L 487.566749 132.006352 
L 488.074529 132.006352 
L 488.58231 132.853073 
L 489.597871 133.155474 
L 490.105651 132.278512 
L 491.121212 130.97819 
L 492.136773 131.28059 
L 492.644554 131.462031 
L 493.152334 131.976112 
L 493.660115 131.582991 
L 494.167895 132.974033 
L 494.675676 132.520432 
L 495.183456 131.37131 
L 495.691237 131.431791 
L 496.199017 132.338992 
L 496.706798 131.703951 
L 497.214578 131.794671 
L 497.722359 131.673711 
L 498.230139 131.976112 
L 498.73792 134.002195 
L 499.2457 131.03867 
L 500.261261 131.885391 
L 501.276822 133.306674 
L 501.784603 132.278512 
L 502.292383 132.459952 
L 502.800164 131.09915 
L 503.307944 131.764431 
L 503.815725 132.218032 
L 504.323505 131.22011 
L 504.831286 131.522511 
L 505.339066 131.431791 
L 505.846847 132.580913 
L 506.354627 132.036592 
L 506.862408 131.06891 
L 507.370188 131.613231 
L 507.877969 131.885391 
L 508.385749 130.645549 
L 508.89353 131.855151 
L 509.40131 132.097072 
L 509.909091 131.824911 
L 510.416871 132.429712 
L 510.924652 130.91771 
L 511.432432 131.824911 
L 511.940213 130.82699 
L 512.447993 131.703951 
L 512.955774 132.187792 
L 513.463554 132.218032 
L 513.971335 132.580913 
L 514.479115 131.945871 
L 514.986896 131.12939 
L 516.002457 130.706029 
L 516.510238 130.343149 
L 517.525799 131.522511 
L 518.033579 131.401551 
L 518.54136 130.736269 
L 519.04914 130.554829 
L 520.064701 131.462031 
L 520.572482 131.34107 
L 521.080262 130.736269 
L 521.588043 131.794671 
L 522.095823 131.12939 
L 522.603604 131.12939 
L 523.111384 131.976112 
L 523.619165 132.459952 
L 524.126945 131.401551 
L 524.634726 132.097072 
L 525.142506 131.31083 
L 525.650287 132.550673 
L 526.158067 132.187792 
L 527.173628 132.066832 
L 527.681409 131.492271 
L 528.189189 131.824911 
L 528.69697 131.824911 
L 529.20475 132.732113 
L 529.712531 131.794671 
L 530.220311 131.431791 
L 530.728092 131.915631 
L 531.235872 131.734191 
L 533.266994 131.582991 
L 533.774775 131.09915 
L 534.282555 131.492271 
L 534.790336 131.28059 
L 535.298116 131.37131 
L 535.805897 131.885391 
L 536.313677 131.582991 
L 536.821458 131.00843 
L 537.329238 131.492271 
L 537.837019 130.85723 
L 538.344799 130.736269 
L 538.85258 131.09915 
L 539.36036 130.645549 
L 539.868141 131.855151 
L 540.375921 132.338992 
L 540.883702 131.401551 
L 541.391482 130.82699 
L 541.899263 131.582991 
L 542.407043 131.37131 
L 542.914824 131.522511 
L 543.422604 130.97819 
L 543.930385 132.278512 
L 544.438165 132.399472 
L 544.945946 130.97819 
L 545.453726 132.127312 
L 545.961507 132.762353 
L 546.469287 131.37131 
L 546.977068 131.31083 
L 547.484848 131.431791 
L 547.992629 131.431791 
L 548.50041 131.824911 
L 549.00819 130.79675 
L 549.515971 130.82699 
L 550.023751 132.338992 
L 550.531532 132.097072 
L 551.039312 131.462031 
L 551.547093 131.15963 
L 552.054873 131.25035 
L 552.562654 130.706029 
L 553.070434 130.82699 
L 553.578215 130.282669 
L 554.085995 130.82699 
L 554.593776 130.403629 
L 555.101556 131.582991 
L 555.609337 130.706029 
L 556.117117 131.431791 
L 556.624898 130.585069 
L 557.132678 130.494349 
L 557.640459 131.492271 
L 558.148239 130.433869 
L 558.65602 130.706029 
L 559.1638 131.431791 
L 559.671581 131.00843 
L 560.687142 130.85723 
L 561.194922 130.161708 
L 561.702703 130.79675 
L 562.210483 131.12939 
L 562.718264 130.494349 
L 563.226044 130.585069 
L 563.733825 130.433869 
L 564.241605 132.641393 
L 564.749386 131.09915 
L 565.257166 130.766509 
L 565.764947 130.94795 
L 566.272727 130.706029 
L 566.780508 130.706029 
L 567.288288 129.768588 
L 567.796069 130.010508 
L 568.303849 129.768588 
L 568.81163 130.494349 
L 569.31941 130.010508 
L 569.827191 130.615309 
L 570.334971 130.222189 
L 570.842752 129.980268 
L 571.350532 131.22011 
L 571.858313 130.494349 
L 572.366093 130.403629 
L 572.873874 130.585069 
L 573.381654 131.25035 
L 573.889435 131.462031 
L 574.397215 131.09915 
L 574.904996 131.734191 
L 575.412776 130.82699 
L 575.920557 130.615309 
L 576.428337 130.675789 
L 576.936118 131.703951 
L 577.443898 131.552751 
L 577.951679 130.070988 
L 578.459459 130.706029 
L 579.47502 131.18987 
L 579.982801 131.703951 
L 580.490581 130.94795 
L 580.998362 130.403629 
L 581.506143 131.03867 
L 582.013923 130.94795 
L 582.521704 130.645549 
L 583.029484 130.91771 
L 583.537265 130.645549 
L 584.045045 131.03867 
L 584.552826 130.88747 
L 585.060606 130.554829 
L 585.568387 129.405707 
L 586.583948 131.00843 
L 587.091728 130.433869 
L 587.599509 131.794671 
L 588.107289 130.82699 
L 588.61507 130.615309 
L 589.12285 130.645549 
L 589.630631 130.191948 
L 590.138411 130.282669 
L 590.646192 130.494349 
L 591.153972 130.070988 
L 591.661753 130.91771 
L 592.169533 130.766509 
L 592.677314 131.22011 
L 593.185094 131.18987 
L 593.692875 130.494349 
L 594.200655 130.282669 
L 594.708436 130.645549 
L 595.723997 130.222189 
L 596.231777 130.494349 
L 596.739558 129.950028 
L 597.247338 131.915631 
L 597.755119 131.22011 
L 598.262899 130.82699 
L 599.27846 129.768588 
L 599.786241 131.12939 
L 600.294021 131.492271 
L 600.801802 130.464109 
L 601.309582 130.615309 
L 601.817363 130.252429 
L 602.325143 130.82699 
L 602.832924 129.526667 
L 603.340704 130.101228 
L 603.848485 130.343149 
L 604.356265 130.94795 
L 604.864046 130.554829 
L 605.371826 130.85723 
L 605.879607 130.706029 
L 606.387387 131.431791 
L 606.895168 130.82699 
L 607.402948 130.85723 
L 607.910729 130.615309 
L 608.418509 130.94795 
L 609.941851 130.282669 
L 610.449631 129.919788 
L 610.957412 130.282669 
L 611.972973 131.25035 
L 612.480753 130.766509 
L 612.988534 130.464109 
L 613.496314 130.91771 
L 614.004095 131.15963 
L 614.511876 130.222189 
L 615.019656 129.919788 
L 615.527437 130.88747 
L 616.035217 130.343149 
L 616.542998 131.03867 
L 617.050778 130.494349 
L 617.558559 131.431791 
L 618.066339 130.191948 
L 618.57412 130.615309 
L 619.0819 129.677868 
L 619.589681 130.554829 
L 620.605242 131.28059 
L 621.113022 130.494349 
L 621.620803 130.645549 
L 622.128583 130.131468 
L 622.636364 129.919788 
L 622.636364 129.919788 
" clip-path="url(#pdd04fb28d2)" style="fill: none; stroke: #ff7f0e; stroke-width: 1.5; stroke-linecap: square"/>
   </g>
   <g id="line2d_15">
    <path d="M 115.363636 358.496054 
L 116.379197 361.040908 
L 116.886978 361.748576 
L 118.410319 363.012448 
L 120.441441 364.191627 
L 124.503686 366.197522 
L 128.058149 367.755291 
L 130.089271 368.38202 
L 133.643735 368.891595 
L 141.768223 369.192495 
L 150.400491 369.274719 
L 153.954955 369.291536 
L 162.079443 369.309537 
L 185.945127 369.338594 
L 198.63964 369.334489 
L 214.888616 369.345011 
L 237.230958 369.347394 
L 269.728911 369.353699 
L 296.133497 369.352601 
L 310.859132 369.35457 
L 586.583948 369.358878 
L 610.449631 369.357794 
L 622.636364 369.359553 
L 622.636364 369.359553 
" clip-path="url(#pdd04fb28d2)" style="fill: none; stroke: #2ca02c; stroke-width: 1.5; stroke-linecap: square"/>
   </g>
   <g id="line2d_16">
    <path d="M 115.363636 358.577641 
L 115.871417 360.566941 
L 116.379197 361.468663 
L 117.394758 362.22536 
L 117.902539 362.425317 
L 118.410319 362.967635 
L 118.9181 362.911945 
L 119.933661 363.881944 
L 120.949222 364.183468 
L 122.472563 365.004426 
L 122.980344 365.049624 
L 123.488124 365.259894 
L 124.503686 365.369891 
L 125.519247 365.677883 
L 129.581491 365.080741 
L 131.104832 364.583791 
L 131.612613 363.774846 
L 132.120393 364.515182 
L 133.135954 364.105191 
L 133.643735 363.691176 
L 134.151515 363.779018 
L 134.659296 364.006088 
L 135.167076 363.715431 
L 136.182637 363.951903 
L 138.72154 363.573038 
L 139.22932 363.242612 
L 139.737101 363.446507 
L 140.244881 363.32973 
L 140.752662 363.378822 
L 141.260442 362.994756 
L 141.768223 363.386749 
L 142.276003 363.169251 
L 142.783784 363.370713 
L 143.291564 362.868223 
L 143.799345 362.992634 
L 144.307125 363.265853 
L 145.322686 363.05242 
L 145.830467 363.145812 
L 147.353808 362.831701 
L 147.861589 362.966107 
L 148.369369 362.83856 
L 148.87715 362.856013 
L 149.38493 362.533 
L 149.892711 362.868247 
L 150.400491 361.066812 
L 150.908272 362.387829 
L 151.416052 362.753671 
L 151.923833 362.791024 
L 152.431613 362.467922 
L 152.939394 362.635281 
L 153.447174 362.528129 
L 153.954955 362.722371 
L 154.462735 361.438318 
L 154.970516 362.381625 
L 155.478296 362.5811 
L 155.986077 362.1473 
L 156.493857 362.494218 
L 158.017199 362.306883 
L 158.52498 362.431625 
L 159.03276 362.317018 
L 160.048321 362.480915 
L 160.556102 361.916328 
L 161.571663 362.503749 
L 162.079443 362.260886 
L 162.587224 362.150683 
L 163.602785 362.460794 
L 165.633907 362.036358 
L 166.141687 361.737995 
L 166.649468 362.206416 
L 167.157248 362.307869 
L 167.665029 362.078211 
L 168.172809 362.248352 
L 169.18837 362.120853 
L 169.696151 361.905754 
L 170.203931 361.933074 
L 170.711712 362.145155 
L 171.219492 362.178939 
L 172.235053 361.904964 
L 172.742834 362.086694 
L 173.250614 362.025647 
L 173.758395 361.587301 
L 174.266175 361.816861 
L 174.773956 361.907669 
L 175.281736 361.730062 
L 175.789517 361.83854 
L 176.297297 361.37324 
L 176.805078 361.687545 
L 177.312858 361.798293 
L 177.820639 361.609732 
L 178.8362 361.621641 
L 179.34398 361.454789 
L 180.359541 361.925656 
L 181.882883 361.74266 
L 182.898444 361.78498 
L 183.406224 361.291732 
L 184.421785 361.665587 
L 184.929566 361.642901 
L 185.437346 361.78138 
L 186.452907 361.489874 
L 187.976249 361.547189 
L 188.484029 361.825374 
L 190.515152 361.422009 
L 191.022932 361.65366 
L 191.530713 361.610233 
L 192.038493 361.7128 
L 193.561835 361.486877 
L 194.577396 361.639679 
L 195.085176 361.431005 
L 195.592957 361.758738 
L 196.100737 361.461162 
L 197.116298 361.502638 
L 197.624079 361.034008 
L 198.131859 361.302024 
L 199.14742 361.489463 
L 200.162981 361.291333 
L 200.670762 361.443848 
L 202.194103 361.345697 
L 202.701884 361.226638 
L 203.209664 361.415072 
L 204.225225 361.409188 
L 205.240786 361.167341 
L 205.748567 361.214452 
L 206.256347 361.109165 
L 206.764128 361.353743 
L 207.779689 361.229729 
L 208.287469 361.389608 
L 208.79525 361.243262 
L 209.810811 361.196066 
L 210.318591 361.326286 
L 211.334152 361.106106 
L 212.349713 361.269834 
L 212.857494 361.010069 
L 214.380835 361.337366 
L 214.888616 361.10428 
L 215.396396 361.284363 
L 217.427518 360.980206 
L 217.935299 361.195235 
L 218.443079 360.804294 
L 218.95086 361.16765 
L 219.45864 360.84706 
L 219.966421 361.147817 
L 220.474201 360.847213 
L 220.981982 360.803352 
L 221.489762 360.906351 
L 221.997543 360.389197 
L 222.505324 360.945056 
L 223.013104 360.838562 
L 223.520885 360.539678 
L 224.536446 361.082039 
L 225.044226 360.790554 
L 225.552007 361.009961 
L 226.059787 360.701342 
L 226.567568 360.84408 
L 227.075348 360.675183 
L 228.59869 361.017375 
L 229.10647 360.918853 
L 229.614251 361.141554 
L 230.122031 360.903624 
L 231.137592 360.821122 
L 231.645373 361.004514 
L 232.153153 360.705355 
L 232.660934 360.984382 
L 233.676495 360.959417 
L 234.184275 360.807189 
L 234.692056 361.093963 
L 235.199836 360.627017 
L 235.707617 360.957516 
L 237.230958 360.922752 
L 237.738739 360.660469 
L 238.246519 360.837123 
L 238.7543 360.716908 
L 239.26208 360.835717 
L 239.769861 360.812905 
L 240.277641 361.050821 
L 241.800983 360.652767 
L 242.308763 360.931305 
L 244.339885 360.693789 
L 244.847666 360.342477 
L 245.355446 360.611158 
L 246.878788 360.670358 
L 247.386568 360.409434 
L 248.402129 360.774948 
L 248.90991 360.668791 
L 249.41769 360.681708 
L 249.925471 360.810169 
L 250.433251 360.538181 
L 250.941032 360.950166 
L 251.448812 360.537867 
L 251.956593 360.457981 
L 252.464373 360.770829 
L 252.972154 360.780558 
L 253.987715 360.526058 
L 255.003276 360.651119 
L 256.018837 360.849982 
L 256.526618 360.405821 
L 257.034398 360.689952 
L 257.542179 360.743187 
L 258.049959 360.522013 
L 259.06552 360.850018 
L 260.081081 360.695419 
L 260.588862 360.652461 
L 261.096642 360.464176 
L 261.604423 360.781644 
L 262.619984 360.846226 
L 263.127764 360.67768 
L 263.635545 360.890564 
L 264.143325 360.847561 
L 264.651106 360.223095 
L 265.158886 360.920281 
L 265.666667 360.724851 
L 266.682228 360.593026 
L 267.190008 360.798291 
L 267.697789 360.382561 
L 268.205569 360.501264 
L 269.22113 361.05932 
L 270.236691 360.398458 
L 270.744472 360.716448 
L 271.252252 360.738647 
L 272.267813 360.31619 
L 273.283374 360.605766 
L 273.791155 360.429393 
L 274.298935 360.603649 
L 275.314496 360.481078 
L 276.330057 360.473646 
L 277.345618 360.711891 
L 277.853399 360.312905 
L 278.86896 360.448906 
L 279.37674 360.229204 
L 280.392301 360.312742 
L 280.900082 360.071589 
L 281.407862 360.451859 
L 282.931204 360.392665 
L 283.438984 359.996429 
L 283.946765 347.130744 
L 284.454545 360.579567 
L 284.962326 360.393509 
L 285.470106 360.401197 
L 285.977887 360.727388 
L 287.501229 360.478645 
L 288.009009 360.596864 
L 289.02457 360.478337 
L 289.532351 360.794169 
L 290.040131 360.681758 
L 290.547912 360.313299 
L 291.055692 360.539589 
L 292.071253 360.48222 
L 292.579034 360.716044 
L 294.102375 360.388257 
L 294.610156 360.519983 
L 295.117936 360.180316 
L 295.625717 360.353964 
L 296.133497 360.32952 
L 296.641278 359.980772 
L 297.149058 360.340402 
L 298.164619 360.401783 
L 298.6724 360.256666 
L 299.18018 360.340241 
L 299.687961 360.230605 
L 300.195741 360.348041 
L 301.719083 360.075592 
L 302.226863 360.305265 
L 303.242424 360.169412 
L 303.750205 360.318992 
L 305.781327 360.044608 
L 307.304668 360.388707 
L 308.320229 360.400097 
L 308.82801 360.13828 
L 309.33579 360.092338 
L 309.843571 360.499037 
L 310.859132 360.327027 
L 311.874693 360.295977 
L 312.382473 360.477503 
L 313.398034 360.036874 
L 314.413595 360.117257 
L 314.921376 360.148367 
L 315.429156 360.31282 
L 315.936937 360.254314 
L 316.444717 360.31252 
L 316.952498 360.06936 
L 317.968059 360.307983 
L 318.98362 360.272108 
L 319.4914 360.434611 
L 319.999181 359.873697 
L 320.506962 360.24378 
L 323.045864 360.215072 
L 323.553645 360.519112 
L 324.061425 360.316773 
L 325.076986 360.373239 
L 325.584767 360.345411 
L 326.092547 359.976404 
L 326.600328 360.248227 
L 327.108108 360.385304 
L 327.615889 360.359809 
L 328.123669 360.196597 
L 328.63145 360.172285 
L 329.13923 360.271219 
L 330.662572 360.084114 
L 331.170352 360.17088 
L 332.693694 360.064858 
L 333.201474 360.228928 
L 334.217035 360.052499 
L 334.724816 360.333021 
L 335.232596 360.210986 
L 335.740377 360.27471 
L 336.248157 360.115085 
L 336.755938 359.621242 
L 337.263718 359.912904 
L 338.279279 360.158505 
L 339.29484 360.142098 
L 339.802621 360.030981 
L 340.310401 360.123118 
L 341.325962 360.075202 
L 342.341523 360.059372 
L 342.849304 360.247062 
L 343.357084 359.990776 
L 343.864865 359.934721 
L 344.880426 360.29481 
L 345.388206 360.069962 
L 345.895987 360.215656 
L 347.419328 359.969758 
L 347.927109 360.092442 
L 348.434889 359.98318 
L 349.958231 360.263334 
L 350.466011 360.176762 
L 350.973792 359.898454 
L 351.481572 360.120114 
L 351.989353 360.016944 
L 352.497133 360.154991 
L 353.512695 359.844124 
L 355.036036 360.300412 
L 356.051597 359.958878 
L 356.559378 359.920228 
L 357.067158 360.147681 
L 357.574939 359.859115 
L 358.5905 360.311576 
L 359.09828 360.008679 
L 359.606061 360.289821 
L 360.113841 360.123157 
L 360.621622 360.356282 
L 362.144963 359.79285 
L 362.652744 360.069292 
L 363.160524 360.112094 
L 363.668305 359.794695 
L 364.176085 360.046593 
L 365.699427 360.094651 
L 366.207207 359.983083 
L 366.714988 360.063994 
L 367.222768 359.763771 
L 367.730549 359.949683 
L 368.74611 359.894913 
L 369.25389 359.770472 
L 369.761671 360.219499 
L 370.777232 360.142829 
L 371.285012 360.055837 
L 371.792793 359.81994 
L 372.300573 359.778433 
L 372.808354 359.872439 
L 373.316134 359.774323 
L 373.823915 360.041873 
L 375.347256 359.798724 
L 375.855037 359.894405 
L 376.870598 359.907254 
L 378.393939 359.823401 
L 379.4095 359.520534 
L 379.917281 359.921581 
L 380.425061 360.007666 
L 380.932842 359.868607 
L 381.440622 360.058665 
L 382.963964 359.702884 
L 383.471744 359.975474 
L 383.979525 360.011387 
L 384.487305 359.766289 
L 386.010647 359.998421 
L 386.518428 360.199476 
L 387.026208 359.891401 
L 388.041769 359.919531 
L 388.54955 360.219627 
L 389.05733 359.850418 
L 389.565111 360.203808 
L 390.072891 360.09971 
L 390.580672 360.139114 
L 391.088452 360.035125 
L 391.596233 360.136906 
L 392.104013 359.868166 
L 392.611794 360.153578 
L 393.119574 359.933239 
L 394.642916 359.849395 
L 395.150696 359.739726 
L 395.658477 359.822979 
L 396.166257 359.746007 
L 396.674038 359.893129 
L 397.181818 359.712344 
L 398.70516 359.890035 
L 399.21294 359.850108 
L 400.228501 360.153671 
L 401.751843 359.99984 
L 402.259623 359.750162 
L 402.767404 359.862399 
L 403.275184 359.560901 
L 403.782965 359.697904 
L 404.798526 359.639141 
L 405.814087 359.947766 
L 406.321867 359.891646 
L 406.829648 359.500645 
L 407.337428 359.761883 
L 407.845209 359.80102 
L 408.352989 359.969172 
L 408.86077 360.013083 
L 410.891892 359.522917 
L 411.399672 359.67916 
L 411.907453 359.315123 
L 412.415233 359.916323 
L 412.923014 359.836557 
L 413.430794 359.94619 
L 413.938575 359.791548 
L 415.461916 359.871787 
L 416.477477 359.816717 
L 417.493038 359.822519 
L 418.000819 359.5563 
L 418.5086 359.798402 
L 419.01638 359.313132 
L 419.524161 359.595926 
L 420.031941 359.736071 
L 420.539722 359.617251 
L 421.047502 359.830565 
L 421.555283 359.821801 
L 422.063063 359.671299 
L 423.078624 359.722748 
L 423.586405 359.340643 
L 424.094185 359.520042 
L 424.601966 359.21835 
L 426.125307 359.870918 
L 426.633088 359.989879 
L 427.140868 359.880512 
L 427.648649 359.992114 
L 428.156429 359.769357 
L 428.66421 359.850197 
L 429.17199 359.621794 
L 429.679771 359.761602 
L 430.187551 359.756142 
L 430.695332 359.592751 
L 431.203112 359.819333 
L 431.710893 359.879914 
L 432.218673 359.683611 
L 433.234234 359.651812 
L 433.742015 359.531193 
L 434.249795 359.923187 
L 435.773137 359.675793 
L 436.280917 359.911756 
L 436.788698 359.734164 
L 437.296478 359.800675 
L 437.804259 359.732606 
L 438.312039 359.532916 
L 439.3276 359.421983 
L 439.835381 359.672844 
L 440.343161 359.723926 
L 440.850942 359.524009 
L 441.866503 359.758869 
L 442.374283 359.784082 
L 443.389844 359.689638 
L 444.913186 359.502738 
L 445.420966 359.439645 
L 445.928747 359.672121 
L 446.944308 359.455579 
L 447.452088 359.615918 
L 449.48321 359.521364 
L 449.990991 359.714319 
L 451.006552 359.470276 
L 452.022113 359.502666 
L 453.037674 359.534691 
L 453.545455 359.572221 
L 454.053235 359.342626 
L 454.561016 359.457685 
L 455.068796 359.791036 
L 456.084357 359.563419 
L 456.592138 359.574033 
L 457.099918 359.436269 
L 458.115479 359.685177 
L 458.62326 359.688148 
L 459.13104 359.9329 
L 459.638821 359.87598 
L 460.146601 359.501846 
L 460.654382 359.604917 
L 461.162162 359.438429 
L 461.669943 359.536696 
L 462.685504 359.467294 
L 463.193284 359.635061 
L 464.716626 359.383033 
L 465.732187 359.473225 
L 467.255528 359.612666 
L 467.763309 359.445755 
L 468.77887 359.706774 
L 469.28665 359.639018 
L 470.302211 359.729347 
L 470.809992 359.363225 
L 471.317772 359.576179 
L 472.333333 359.652376 
L 473.348894 359.769553 
L 473.856675 359.539639 
L 474.364455 359.696021 
L 476.903358 359.419331 
L 477.918919 359.513371 
L 478.426699 359.248238 
L 480.457821 359.654199 
L 480.965602 359.340603 
L 481.473382 359.736062 
L 482.488943 359.592209 
L 482.996724 359.730139 
L 483.504505 359.556444 
L 484.012285 359.527379 
L 485.535627 359.858115 
L 486.043407 359.821404 
L 486.551188 359.671764 
L 487.058968 359.387533 
L 487.566749 359.660029 
L 488.074529 359.39533 
L 489.09009 359.514678 
L 489.597871 359.40552 
L 490.105651 359.59445 
L 491.121212 359.599526 
L 493.152334 359.572123 
L 493.660115 359.265043 
L 495.183456 359.424874 
L 495.691237 359.528272 
L 496.199017 359.248076 
L 496.706798 359.618659 
L 497.214578 359.756604 
L 497.722359 359.677338 
L 498.230139 359.414308 
L 498.73792 359.554631 
L 499.2457 359.883227 
L 501.784603 359.47752 
L 502.292383 359.776857 
L 502.800164 359.791923 
L 503.307944 359.473008 
L 503.815725 359.497838 
L 504.323505 359.73714 
L 504.831286 359.617653 
L 505.339066 359.723318 
L 507.877969 359.425904 
L 508.89353 359.578473 
L 509.40131 359.471558 
L 509.909091 359.224745 
L 510.924652 359.551544 
L 511.432432 359.55842 
L 511.940213 359.823859 
L 512.447993 359.627994 
L 513.463554 359.608891 
L 514.479115 359.552617 
L 514.986896 359.762345 
L 516.002457 359.818725 
L 517.018018 359.667188 
L 517.525799 359.345001 
L 518.54136 359.57316 
L 519.04914 359.546314 
L 519.556921 359.381652 
L 520.064701 359.529091 
L 520.572482 359.308972 
L 521.588043 359.366873 
L 522.095823 359.334438 
L 523.111384 359.531188 
L 523.619165 359.40827 
L 524.126945 359.526684 
L 524.634726 359.438374 
L 525.142506 359.518646 
L 526.158067 359.088414 
L 526.665848 359.353785 
L 527.173628 359.079745 
L 528.69697 359.368758 
L 531.743653 359.591545 
L 532.251433 359.550394 
L 532.759214 359.228687 
L 533.266994 359.573915 
L 534.790336 359.087033 
L 535.298116 359.404091 
L 535.805897 359.386237 
L 536.313677 359.482773 
L 537.329238 359.348919 
L 540.375921 359.307372 
L 540.883702 359.523799 
L 541.391482 359.383895 
L 541.899263 359.612363 
L 543.422604 359.418958 
L 543.930385 359.587472 
L 544.438165 359.481538 
L 544.945946 359.610999 
L 545.453726 359.474362 
L 547.484848 359.437413 
L 548.50041 359.179757 
L 549.00819 359.61377 
L 550.023751 359.448613 
L 551.039312 359.523973 
L 551.547093 359.346026 
L 552.054873 359.525484 
L 553.070434 359.345015 
L 554.085995 359.466507 
L 554.593776 359.321066 
L 555.609337 359.379583 
L 557.132678 359.380926 
L 557.640459 359.638115 
L 558.65602 359.645454 
L 559.1638 359.431661 
L 561.194922 359.339951 
L 561.702703 359.455357 
L 562.210483 359.303869 
L 562.718264 359.410024 
L 563.226044 359.381979 
L 563.733825 359.191349 
L 564.241605 359.350418 
L 564.749386 359.372977 
L 565.257166 359.546231 
L 565.764947 359.525727 
L 566.272727 359.649637 
L 567.796069 359.304889 
L 568.303849 359.520962 
L 568.81163 359.257665 
L 569.31941 359.508425 
L 569.827191 359.198624 
L 570.334971 359.472264 
L 571.350532 359.286906 
L 572.366093 359.514661 
L 574.397215 359.509201 
L 574.904996 359.328934 
L 575.412776 359.43268 
L 575.920557 359.332158 
L 576.428337 358.942371 
L 577.951679 359.130001 
L 578.96724 359.015708 
L 579.47502 359.092605 
L 579.982801 359.358751 
L 580.490581 359.277562 
L 580.998362 359.423192 
L 581.506143 359.119829 
L 582.521704 359.197729 
L 583.029484 359.425028 
L 583.537265 359.403346 
L 584.045045 359.099706 
L 584.552826 359.273402 
L 585.568387 359.097016 
L 586.076167 359.235968 
L 586.583948 359.043613 
L 587.091728 358.970809 
L 587.599509 358.658082 
L 588.107289 359.224539 
L 588.61507 359.251006 
L 589.12285 359.393509 
L 591.661753 359.118673 
L 592.169533 358.898319 
L 593.692875 359.492706 
L 594.708436 359.405851 
L 595.216216 359.567629 
L 596.739558 359.05093 
L 597.247338 359.095814 
L 598.262899 359.40832 
L 599.786241 359.382145 
L 600.294021 359.092729 
L 600.801802 359.467062 
L 601.309582 359.148441 
L 601.817363 359.576857 
L 602.325143 359.307461 
L 603.340704 359.140377 
L 603.848485 359.25134 
L 604.356265 358.812568 
L 604.864046 359.166749 
L 605.879607 359.204012 
L 610.957412 359.31573 
L 611.465192 359.070804 
L 613.496314 359.310315 
L 614.004095 359.130279 
L 615.019656 359.368429 
L 615.527437 359.247423 
L 616.035217 359.353655 
L 617.050778 359.416938 
L 617.558559 359.455941 
L 618.066339 359.348955 
L 618.57412 359.108495 
L 619.0819 359.297825 
L 619.589681 359.334348 
L 620.097461 359.567095 
L 620.605242 359.404443 
L 621.113022 359.360143 
L 621.620803 359.502766 
L 622.128583 359.156331 
L 622.636364 359.301494 
L 622.636364 359.301494 
" clip-path="url(#pdd04fb28d2)" style="fill: none; stroke: #d62728; stroke-width: 1.5; stroke-linecap: square"/>
   </g>
   <g id="patch_3">
    <path d="M 90 384.48 
L 90 51.84 
" style="fill: none; stroke: #000000; stroke-width: 0.8; stroke-linejoin: miter; stroke-linecap: square"/>
   </g>
   <g id="patch_4">
    <path d="M 648 384.48 
L 648 51.84 
" style="fill: none; stroke: #000000; stroke-width: 0.8; stroke-linejoin: miter; stroke-linecap: square"/>
   </g>
   <g id="patch_5">
    <path d="M 90 384.48 
L 648 384.48 
" style="fill: none; stroke: #000000; stroke-width: 0.8; stroke-linejoin: miter; stroke-linecap: square"/>
   </g>
   <g id="patch_6">
    <path d="M 90 51.84 
L 648 51.84 
" style="fill: none; stroke: #000000; stroke-width: 0.8; stroke-linejoin: miter; stroke-linecap: square"/>
   </g>
   <g id="text_15">
    <!-- Accuracy -->
    <g transform="translate(341.60625 45.84) scale(0.12 -0.12)">
     <use xlink:href="#DejaVuSans-41"/>
     <use xlink:href="#DejaVuSans-63" x="66.658203"/>
     <use xlink:href="#DejaVuSans-63" x="121.638672"/>
     <use xlink:href="#DejaVuSans-75" x="176.619141"/>
     <use xlink:href="#DejaVuSans-72" x="239.998047"/>
     <use xlink:href="#DejaVuSans-61" x="281.111328"/>
     <use xlink:href="#DejaVuSans-63" x="342.390625"/>
     <use xlink:href="#DejaVuSans-79" x="397.371094"/>
    </g>
   </g>
   <g id="legend_1">
    <g id="patch_7">
     <path d="M 560.696875 249.5725 
L 641 249.5725 
Q 643 249.5725 643 247.5725 
L 643 188.7475 
Q 643 186.7475 641 186.7475 
L 560.696875 186.7475 
Q 558.696875 186.7475 558.696875 188.7475 
L 558.696875 247.5725 
Q 558.696875 249.5725 560.696875 249.5725 
z
" style="fill: #ffffff; opacity: 0.8; stroke: #cccccc; stroke-linejoin: miter"/>
    </g>
    <g id="line2d_17">
     <path d="M 562.696875 194.845937 
L 572.696875 194.845937 
L 582.696875 194.845937 
" style="fill: none; stroke: #1f77b4; stroke-width: 1.5; stroke-linecap: square"/>
    </g>
    <g id="text_16">
     <!-- Train_acc -->
     <g transform="translate(590.696875 198.345937) scale(0.1 -0.1)">
      <defs>
       <path id="DejaVuSans-54" d="M -19 4666 
L 3928 4666 
L 3928 4134 
L 2272 4134 
L 2272 0 
L 1638 0 
L 1638 4134 
L -19 4134 
L -19 4666 
z
" transform="scale(0.015625)"/>
       <path id="DejaVuSans-69" d="M 603 3500 
L 1178 3500 
L 1178 0 
L 603 0 
L 603 3500 
z
M 603 4863 
L 1178 4863 
L 1178 4134 
L 603 4134 
L 603 4863 
z
" transform="scale(0.015625)"/>
       <path id="DejaVuSans-6e" d="M 3513 2113 
L 3513 0 
L 2938 0 
L 2938 2094 
Q 2938 2591 2744 2837 
Q 2550 3084 2163 3084 
Q 1697 3084 1428 2787 
Q 1159 2491 1159 1978 
L 1159 0 
L 581 0 
L 581 3500 
L 1159 3500 
L 1159 2956 
Q 1366 3272 1645 3428 
Q 1925 3584 2291 3584 
Q 2894 3584 3203 3211 
Q 3513 2838 3513 2113 
z
" transform="scale(0.015625)"/>
       <path id="DejaVuSans-5f" d="M 3263 -1063 
L 3263 -1509 
L -63 -1509 
L -63 -1063 
L 3263 -1063 
z
" transform="scale(0.015625)"/>
      </defs>
      <use xlink:href="#DejaVuSans-54"/>
      <use xlink:href="#DejaVuSans-72" x="46.333984"/>
      <use xlink:href="#DejaVuSans-61" x="87.447266"/>
      <use xlink:href="#DejaVuSans-69" x="148.726562"/>
      <use xlink:href="#DejaVuSans-6e" x="176.509766"/>
      <use xlink:href="#DejaVuSans-5f" x="239.888672"/>
      <use xlink:href="#DejaVuSans-61" x="289.888672"/>
      <use xlink:href="#DejaVuSans-63" x="351.167969"/>
      <use xlink:href="#DejaVuSans-63" x="406.148438"/>
     </g>
    </g>
    <g id="line2d_18">
     <path d="M 562.696875 209.802188 
L 572.696875 209.802188 
L 582.696875 209.802188 
" style="fill: none; stroke: #ff7f0e; stroke-width: 1.5; stroke-linecap: square"/>
    </g>
    <g id="text_17">
     <!-- Test_acc -->
     <g transform="translate(590.696875 213.302188) scale(0.1 -0.1)">
      <defs>
       <path id="DejaVuSans-65" d="M 3597 1894 
L 3597 1613 
L 953 1613 
Q 991 1019 1311 708 
Q 1631 397 2203 397 
Q 2534 397 2845 478 
Q 3156 559 3463 722 
L 3463 178 
Q 3153 47 2828 -22 
Q 2503 -91 2169 -91 
Q 1331 -91 842 396 
Q 353 884 353 1716 
Q 353 2575 817 3079 
Q 1281 3584 2069 3584 
Q 2775 3584 3186 3129 
Q 3597 2675 3597 1894 
z
M 3022 2063 
Q 3016 2534 2758 2815 
Q 2500 3097 2075 3097 
Q 1594 3097 1305 2825 
Q 1016 2553 972 2059 
L 3022 2063 
z
" transform="scale(0.015625)"/>
       <path id="DejaVuSans-73" d="M 2834 3397 
L 2834 2853 
Q 2591 2978 2328 3040 
Q 2066 3103 1784 3103 
Q 1356 3103 1142 2972 
Q 928 2841 928 2578 
Q 928 2378 1081 2264 
Q 1234 2150 1697 2047 
L 1894 2003 
Q 2506 1872 2764 1633 
Q 3022 1394 3022 966 
Q 3022 478 2636 193 
Q 2250 -91 1575 -91 
Q 1294 -91 989 -36 
Q 684 19 347 128 
L 347 722 
Q 666 556 975 473 
Q 1284 391 1588 391 
Q 1994 391 2212 530 
Q 2431 669 2431 922 
Q 2431 1156 2273 1281 
Q 2116 1406 1581 1522 
L 1381 1569 
Q 847 1681 609 1914 
Q 372 2147 372 2553 
Q 372 3047 722 3315 
Q 1072 3584 1716 3584 
Q 2034 3584 2315 3537 
Q 2597 3491 2834 3397 
z
" transform="scale(0.015625)"/>
       <path id="DejaVuSans-74" d="M 1172 4494 
L 1172 3500 
L 2356 3500 
L 2356 3053 
L 1172 3053 
L 1172 1153 
Q 1172 725 1289 603 
Q 1406 481 1766 481 
L 2356 481 
L 2356 0 
L 1766 0 
Q 1100 0 847 248 
Q 594 497 594 1153 
L 594 3053 
L 172 3053 
L 172 3500 
L 594 3500 
L 594 4494 
L 1172 4494 
z
" transform="scale(0.015625)"/>
      </defs>
      <use xlink:href="#DejaVuSans-54"/>
      <use xlink:href="#DejaVuSans-65" x="44.083984"/>
      <use xlink:href="#DejaVuSans-73" x="105.607422"/>
      <use xlink:href="#DejaVuSans-74" x="157.707031"/>
      <use xlink:href="#DejaVuSans-5f" x="196.916016"/>
      <use xlink:href="#DejaVuSans-61" x="246.916016"/>
      <use xlink:href="#DejaVuSans-63" x="308.195312"/>
      <use xlink:href="#DejaVuSans-63" x="363.175781"/>
     </g>
    </g>
    <g id="line2d_19">
     <path d="M 562.696875 224.758437 
L 572.696875 224.758437 
L 582.696875 224.758437 
" style="fill: none; stroke: #2ca02c; stroke-width: 1.5; stroke-linecap: square"/>
    </g>
    <g id="text_18">
     <!-- Train_loss -->
     <g transform="translate(590.696875 228.258437) scale(0.1 -0.1)">
      <defs>
       <path id="DejaVuSans-6c" d="M 603 4863 
L 1178 4863 
L 1178 0 
L 603 0 
L 603 4863 
z
" transform="scale(0.015625)"/>
      </defs>
      <use xlink:href="#DejaVuSans-54"/>
      <use xlink:href="#DejaVuSans-72" x="46.333984"/>
      <use xlink:href="#DejaVuSans-61" x="87.447266"/>
      <use xlink:href="#DejaVuSans-69" x="148.726562"/>
      <use xlink:href="#DejaVuSans-6e" x="176.509766"/>
      <use xlink:href="#DejaVuSans-5f" x="239.888672"/>
      <use xlink:href="#DejaVuSans-6c" x="289.888672"/>
      <use xlink:href="#DejaVuSans-6f" x="317.671875"/>
      <use xlink:href="#DejaVuSans-73" x="378.853516"/>
      <use xlink:href="#DejaVuSans-73" x="430.953125"/>
     </g>
    </g>
    <g id="line2d_20">
     <path d="M 562.696875 239.714687 
L 572.696875 239.714687 
L 582.696875 239.714687 
" style="fill: none; stroke: #d62728; stroke-width: 1.5; stroke-linecap: square"/>
    </g>
    <g id="text_19">
     <!-- Test_loss -->
     <g transform="translate(590.696875 243.214687) scale(0.1 -0.1)">
      <use xlink:href="#DejaVuSans-54"/>
      <use xlink:href="#DejaVuSans-65" x="44.083984"/>
      <use xlink:href="#DejaVuSans-73" x="105.607422"/>
      <use xlink:href="#DejaVuSans-74" x="157.707031"/>
      <use xlink:href="#DejaVuSans-5f" x="196.916016"/>
      <use xlink:href="#DejaVuSans-6c" x="246.916016"/>
      <use xlink:href="#DejaVuSans-6f" x="274.699219"/>
      <use xlink:href="#DejaVuSans-73" x="335.880859"/>
      <use xlink:href="#DejaVuSans-73" x="387.980469"/>
     </g>
    </g>
   </g>
  </g>
 </g>
 <defs>
  <clipPath id="pdd04fb28d2">
   <rect x="90" y="51.84" width="558" height="332.64"/>
  </clipPath>
 </defs>
</svg>
