<?xml version="1.0" encoding="utf-8" standalone="no"?>
<!DOCTYPE svg PUBLIC "-//W3C//DTD SVG 1.1//EN"
  "http://www.w3.org/Graphics/SVG/1.1/DTD/svg11.dtd">
<svg xmlns:xlink="http://www.w3.org/1999/xlink" width="720pt" height="432pt" viewBox="0 0 720 432" xmlns="http://www.w3.org/2000/svg" version="1.1">
 <metadata>
  <rdf:RDF xmlns:dc="http://purl.org/dc/elements/1.1/" xmlns:cc="http://creativecommons.org/ns#" xmlns:rdf="http://www.w3.org/1999/02/22-rdf-syntax-ns#">
   <cc:Work>
    <dc:type rdf:resource="http://purl.org/dc/dcmitype/StillImage"/>
    <dc:date>2023-04-17T21:24:28.752740</dc:date>
    <dc:format>image/svg+xml</dc:format>
    <dc:creator>
     <cc:Agent>
      <dc:title>Matplotlib v3.7.1, https://matplotlib.org/</dc:title>
     </cc:Agent>
    </dc:creator>
   </cc:Work>
  </rdf:RDF>
 </metadata>
 <defs>
  <style type="text/css">*{stroke-linejoin: round; stroke-linecap: butt}</style>
 </defs>
 <g id="figure_1">
  <g id="patch_1">
   <path d="M 0 432 
L 720 432 
L 720 0 
L 0 0 
z
" style="fill: #ffffff"/>
  </g>
  <g id="axes_1">
   <g id="patch_2">
    <path d="M 90 384.48 
L 648 384.48 
L 648 51.84 
L 90 51.84 
z
" style="fill: #ffffff"/>
   </g>
   <g id="matplotlib.axis_1">
    <g id="xtick_1">
     <g id="line2d_1">
      <defs>
       <path id="me05895939b" d="M 0 0 
L 0 3.5 
" style="stroke: #000000; stroke-width: 0.8"/>
      </defs>
      <g>
       <use xlink:href="#me05895939b" x="115.363636" y="384.48" style="stroke: #000000; stroke-width: 0.8"/>
      </g>
     </g>
     <g id="text_1">
      <!-- 0 -->
      <g transform="translate(112.182386 399.078438) scale(0.1 -0.1)">
       <defs>
        <path id="DejaVuSans-30" d="M 2034 4250 
Q 1547 4250 1301 3770 
Q 1056 3291 1056 2328 
Q 1056 1369 1301 889 
Q 1547 409 2034 409 
Q 2525 409 2770 889 
Q 3016 1369 3016 2328 
Q 3016 3291 2770 3770 
Q 2525 4250 2034 4250 
z
M 2034 4750 
Q 2819 4750 3233 4129 
Q 3647 3509 3647 2328 
Q 3647 1150 3233 529 
Q 2819 -91 2034 -91 
Q 1250 -91 836 529 
Q 422 1150 422 2328 
Q 422 3509 836 4129 
Q 1250 4750 2034 4750 
z
" transform="scale(0.015625)"/>
       </defs>
       <use xlink:href="#DejaVuSans-30"/>
      </g>
     </g>
    </g>
    <g id="xtick_2">
     <g id="line2d_2">
      <g>
       <use xlink:href="#me05895939b" x="216.919738" y="384.48" style="stroke: #000000; stroke-width: 0.8"/>
      </g>
     </g>
     <g id="text_2">
      <!-- 200 -->
      <g transform="translate(207.375988 399.078438) scale(0.1 -0.1)">
       <defs>
        <path id="DejaVuSans-32" d="M 1228 531 
L 3431 531 
L 3431 0 
L 469 0 
L 469 531 
Q 828 903 1448 1529 
Q 2069 2156 2228 2338 
Q 2531 2678 2651 2914 
Q 2772 3150 2772 3378 
Q 2772 3750 2511 3984 
Q 2250 4219 1831 4219 
Q 1534 4219 1204 4116 
Q 875 4013 500 3803 
L 500 4441 
Q 881 4594 1212 4672 
Q 1544 4750 1819 4750 
Q 2544 4750 2975 4387 
Q 3406 4025 3406 3419 
Q 3406 3131 3298 2873 
Q 3191 2616 2906 2266 
Q 2828 2175 2409 1742 
Q 1991 1309 1228 531 
z
" transform="scale(0.015625)"/>
       </defs>
       <use xlink:href="#DejaVuSans-32"/>
       <use xlink:href="#DejaVuSans-30" x="63.623047"/>
       <use xlink:href="#DejaVuSans-30" x="127.246094"/>
      </g>
     </g>
    </g>
    <g id="xtick_3">
     <g id="line2d_3">
      <g>
       <use xlink:href="#me05895939b" x="318.475839" y="384.48" style="stroke: #000000; stroke-width: 0.8"/>
      </g>
     </g>
     <g id="text_3">
      <!-- 400 -->
      <g transform="translate(308.932089 399.078438) scale(0.1 -0.1)">
       <defs>
        <path id="DejaVuSans-34" d="M 2419 4116 
L 825 1625 
L 2419 1625 
L 2419 4116 
z
M 2253 4666 
L 3047 4666 
L 3047 1625 
L 3713 1625 
L 3713 1100 
L 3047 1100 
L 3047 0 
L 2419 0 
L 2419 1100 
L 313 1100 
L 313 1709 
L 2253 4666 
z
" transform="scale(0.015625)"/>
       </defs>
       <use xlink:href="#DejaVuSans-34"/>
       <use xlink:href="#DejaVuSans-30" x="63.623047"/>
       <use xlink:href="#DejaVuSans-30" x="127.246094"/>
      </g>
     </g>
    </g>
    <g id="xtick_4">
     <g id="line2d_4">
      <g>
       <use xlink:href="#me05895939b" x="420.031941" y="384.48" style="stroke: #000000; stroke-width: 0.8"/>
      </g>
     </g>
     <g id="text_4">
      <!-- 600 -->
      <g transform="translate(410.488191 399.078438) scale(0.1 -0.1)">
       <defs>
        <path id="DejaVuSans-36" d="M 2113 2584 
Q 1688 2584 1439 2293 
Q 1191 2003 1191 1497 
Q 1191 994 1439 701 
Q 1688 409 2113 409 
Q 2538 409 2786 701 
Q 3034 994 3034 1497 
Q 3034 2003 2786 2293 
Q 2538 2584 2113 2584 
z
M 3366 4563 
L 3366 3988 
Q 3128 4100 2886 4159 
Q 2644 4219 2406 4219 
Q 1781 4219 1451 3797 
Q 1122 3375 1075 2522 
Q 1259 2794 1537 2939 
Q 1816 3084 2150 3084 
Q 2853 3084 3261 2657 
Q 3669 2231 3669 1497 
Q 3669 778 3244 343 
Q 2819 -91 2113 -91 
Q 1303 -91 875 529 
Q 447 1150 447 2328 
Q 447 3434 972 4092 
Q 1497 4750 2381 4750 
Q 2619 4750 2861 4703 
Q 3103 4656 3366 4563 
z
" transform="scale(0.015625)"/>
       </defs>
       <use xlink:href="#DejaVuSans-36"/>
       <use xlink:href="#DejaVuSans-30" x="63.623047"/>
       <use xlink:href="#DejaVuSans-30" x="127.246094"/>
      </g>
     </g>
    </g>
    <g id="xtick_5">
     <g id="line2d_5">
      <g>
       <use xlink:href="#me05895939b" x="521.588043" y="384.48" style="stroke: #000000; stroke-width: 0.8"/>
      </g>
     </g>
     <g id="text_5">
      <!-- 800 -->
      <g transform="translate(512.044293 399.078438) scale(0.1 -0.1)">
       <defs>
        <path id="DejaVuSans-38" d="M 2034 2216 
Q 1584 2216 1326 1975 
Q 1069 1734 1069 1313 
Q 1069 891 1326 650 
Q 1584 409 2034 409 
Q 2484 409 2743 651 
Q 3003 894 3003 1313 
Q 3003 1734 2745 1975 
Q 2488 2216 2034 2216 
z
M 1403 2484 
Q 997 2584 770 2862 
Q 544 3141 544 3541 
Q 544 4100 942 4425 
Q 1341 4750 2034 4750 
Q 2731 4750 3128 4425 
Q 3525 4100 3525 3541 
Q 3525 3141 3298 2862 
Q 3072 2584 2669 2484 
Q 3125 2378 3379 2068 
Q 3634 1759 3634 1313 
Q 3634 634 3220 271 
Q 2806 -91 2034 -91 
Q 1263 -91 848 271 
Q 434 634 434 1313 
Q 434 1759 690 2068 
Q 947 2378 1403 2484 
z
M 1172 3481 
Q 1172 3119 1398 2916 
Q 1625 2713 2034 2713 
Q 2441 2713 2670 2916 
Q 2900 3119 2900 3481 
Q 2900 3844 2670 4047 
Q 2441 4250 2034 4250 
Q 1625 4250 1398 4047 
Q 1172 3844 1172 3481 
z
" transform="scale(0.015625)"/>
       </defs>
       <use xlink:href="#DejaVuSans-38"/>
       <use xlink:href="#DejaVuSans-30" x="63.623047"/>
       <use xlink:href="#DejaVuSans-30" x="127.246094"/>
      </g>
     </g>
    </g>
    <g id="xtick_6">
     <g id="line2d_6">
      <g>
       <use xlink:href="#me05895939b" x="623.144144" y="384.48" style="stroke: #000000; stroke-width: 0.8"/>
      </g>
     </g>
     <g id="text_6">
      <!-- 1000 -->
      <g transform="translate(610.419144 399.078438) scale(0.1 -0.1)">
       <defs>
        <path id="DejaVuSans-31" d="M 794 531 
L 1825 531 
L 1825 4091 
L 703 3866 
L 703 4441 
L 1819 4666 
L 2450 4666 
L 2450 531 
L 3481 531 
L 3481 0 
L 794 0 
L 794 531 
z
" transform="scale(0.015625)"/>
       </defs>
       <use xlink:href="#DejaVuSans-31"/>
       <use xlink:href="#DejaVuSans-30" x="63.623047"/>
       <use xlink:href="#DejaVuSans-30" x="127.246094"/>
       <use xlink:href="#DejaVuSans-30" x="190.869141"/>
      </g>
     </g>
    </g>
    <g id="text_7">
     <!-- Epoch -->
     <g transform="translate(353.689062 412.756563) scale(0.1 -0.1)">
      <defs>
       <path id="DejaVuSans-45" d="M 628 4666 
L 3578 4666 
L 3578 4134 
L 1259 4134 
L 1259 2753 
L 3481 2753 
L 3481 2222 
L 1259 2222 
L 1259 531 
L 3634 531 
L 3634 0 
L 628 0 
L 628 4666 
z
" transform="scale(0.015625)"/>
       <path id="DejaVuSans-70" d="M 1159 525 
L 1159 -1331 
L 581 -1331 
L 581 3500 
L 1159 3500 
L 1159 2969 
Q 1341 3281 1617 3432 
Q 1894 3584 2278 3584 
Q 2916 3584 3314 3078 
Q 3713 2572 3713 1747 
Q 3713 922 3314 415 
Q 2916 -91 2278 -91 
Q 1894 -91 1617 61 
Q 1341 213 1159 525 
z
M 3116 1747 
Q 3116 2381 2855 2742 
Q 2594 3103 2138 3103 
Q 1681 3103 1420 2742 
Q 1159 2381 1159 1747 
Q 1159 1113 1420 752 
Q 1681 391 2138 391 
Q 2594 391 2855 752 
Q 3116 1113 3116 1747 
z
" transform="scale(0.015625)"/>
       <path id="DejaVuSans-6f" d="M 1959 3097 
Q 1497 3097 1228 2736 
Q 959 2375 959 1747 
Q 959 1119 1226 758 
Q 1494 397 1959 397 
Q 2419 397 2687 759 
Q 2956 1122 2956 1747 
Q 2956 2369 2687 2733 
Q 2419 3097 1959 3097 
z
M 1959 3584 
Q 2709 3584 3137 3096 
Q 3566 2609 3566 1747 
Q 3566 888 3137 398 
Q 2709 -91 1959 -91 
Q 1206 -91 779 398 
Q 353 888 353 1747 
Q 353 2609 779 3096 
Q 1206 3584 1959 3584 
z
" transform="scale(0.015625)"/>
       <path id="DejaVuSans-63" d="M 3122 3366 
L 3122 2828 
Q 2878 2963 2633 3030 
Q 2388 3097 2138 3097 
Q 1578 3097 1268 2742 
Q 959 2388 959 1747 
Q 959 1106 1268 751 
Q 1578 397 2138 397 
Q 2388 397 2633 464 
Q 2878 531 3122 666 
L 3122 134 
Q 2881 22 2623 -34 
Q 2366 -91 2075 -91 
Q 1284 -91 818 406 
Q 353 903 353 1747 
Q 353 2603 823 3093 
Q 1294 3584 2113 3584 
Q 2378 3584 2631 3529 
Q 2884 3475 3122 3366 
z
" transform="scale(0.015625)"/>
       <path id="DejaVuSans-68" d="M 3513 2113 
L 3513 0 
L 2938 0 
L 2938 2094 
Q 2938 2591 2744 2837 
Q 2550 3084 2163 3084 
Q 1697 3084 1428 2787 
Q 1159 2491 1159 1978 
L 1159 0 
L 581 0 
L 581 4863 
L 1159 4863 
L 1159 2956 
Q 1366 3272 1645 3428 
Q 1925 3584 2291 3584 
Q 2894 3584 3203 3211 
Q 3513 2838 3513 2113 
z
" transform="scale(0.015625)"/>
      </defs>
      <use xlink:href="#DejaVuSans-45"/>
      <use xlink:href="#DejaVuSans-70" x="63.183594"/>
      <use xlink:href="#DejaVuSans-6f" x="126.660156"/>
      <use xlink:href="#DejaVuSans-63" x="187.841797"/>
      <use xlink:href="#DejaVuSans-68" x="242.822266"/>
     </g>
    </g>
   </g>
   <g id="matplotlib.axis_2">
    <g id="ytick_1">
     <g id="line2d_7">
      <defs>
       <path id="m96f7789781" d="M 0 0 
L -3.5 0 
" style="stroke: #000000; stroke-width: 0.8"/>
      </defs>
      <g>
       <use xlink:href="#m96f7789781" x="90" y="371.493285" style="stroke: #000000; stroke-width: 0.8"/>
      </g>
     </g>
     <g id="text_8">
      <!-- 0.0 -->
      <g transform="translate(67.096875 375.292504) scale(0.1 -0.1)">
       <defs>
        <path id="DejaVuSans-2e" d="M 684 794 
L 1344 794 
L 1344 0 
L 684 0 
L 684 794 
z
" transform="scale(0.015625)"/>
       </defs>
       <use xlink:href="#DejaVuSans-30"/>
       <use xlink:href="#DejaVuSans-2e" x="63.623047"/>
       <use xlink:href="#DejaVuSans-30" x="95.410156"/>
      </g>
     </g>
    </g>
    <g id="ytick_2">
     <g id="line2d_8">
      <g>
       <use xlink:href="#m96f7789781" x="90" y="301.884086" style="stroke: #000000; stroke-width: 0.8"/>
      </g>
     </g>
     <g id="text_9">
      <!-- 0.2 -->
      <g transform="translate(67.096875 305.683305) scale(0.1 -0.1)">
       <use xlink:href="#DejaVuSans-30"/>
       <use xlink:href="#DejaVuSans-2e" x="63.623047"/>
       <use xlink:href="#DejaVuSans-32" x="95.410156"/>
      </g>
     </g>
    </g>
    <g id="ytick_3">
     <g id="line2d_9">
      <g>
       <use xlink:href="#m96f7789781" x="90" y="232.274887" style="stroke: #000000; stroke-width: 0.8"/>
      </g>
     </g>
     <g id="text_10">
      <!-- 0.4 -->
      <g transform="translate(67.096875 236.074106) scale(0.1 -0.1)">
       <use xlink:href="#DejaVuSans-30"/>
       <use xlink:href="#DejaVuSans-2e" x="63.623047"/>
       <use xlink:href="#DejaVuSans-34" x="95.410156"/>
      </g>
     </g>
    </g>
    <g id="ytick_4">
     <g id="line2d_10">
      <g>
       <use xlink:href="#m96f7789781" x="90" y="162.665688" style="stroke: #000000; stroke-width: 0.8"/>
      </g>
     </g>
     <g id="text_11">
      <!-- 0.6 -->
      <g transform="translate(67.096875 166.464907) scale(0.1 -0.1)">
       <use xlink:href="#DejaVuSans-30"/>
       <use xlink:href="#DejaVuSans-2e" x="63.623047"/>
       <use xlink:href="#DejaVuSans-36" x="95.410156"/>
      </g>
     </g>
    </g>
    <g id="ytick_5">
     <g id="line2d_11">
      <g>
       <use xlink:href="#m96f7789781" x="90" y="93.056489" style="stroke: #000000; stroke-width: 0.8"/>
      </g>
     </g>
     <g id="text_12">
      <!-- 0.8 -->
      <g transform="translate(67.096875 96.855708) scale(0.1 -0.1)">
       <use xlink:href="#DejaVuSans-30"/>
       <use xlink:href="#DejaVuSans-2e" x="63.623047"/>
       <use xlink:href="#DejaVuSans-38" x="95.410156"/>
      </g>
     </g>
    </g>
    <g id="text_13">
     <!-- Accuracy -->
     <g transform="translate(61.017187 240.988125) rotate(-90) scale(0.1 -0.1)">
      <defs>
       <path id="DejaVuSans-41" d="M 2188 4044 
L 1331 1722 
L 3047 1722 
L 2188 4044 
z
M 1831 4666 
L 2547 4666 
L 4325 0 
L 3669 0 
L 3244 1197 
L 1141 1197 
L 716 0 
L 50 0 
L 1831 4666 
z
" transform="scale(0.015625)"/>
       <path id="DejaVuSans-75" d="M 544 1381 
L 544 3500 
L 1119 3500 
L 1119 1403 
Q 1119 906 1312 657 
Q 1506 409 1894 409 
Q 2359 409 2629 706 
Q 2900 1003 2900 1516 
L 2900 3500 
L 3475 3500 
L 3475 0 
L 2900 0 
L 2900 538 
Q 2691 219 2414 64 
Q 2138 -91 1772 -91 
Q 1169 -91 856 284 
Q 544 659 544 1381 
z
M 1991 3584 
L 1991 3584 
z
" transform="scale(0.015625)"/>
       <path id="DejaVuSans-72" d="M 2631 2963 
Q 2534 3019 2420 3045 
Q 2306 3072 2169 3072 
Q 1681 3072 1420 2755 
Q 1159 2438 1159 1844 
L 1159 0 
L 581 0 
L 581 3500 
L 1159 3500 
L 1159 2956 
Q 1341 3275 1631 3429 
Q 1922 3584 2338 3584 
Q 2397 3584 2469 3576 
Q 2541 3569 2628 3553 
L 2631 2963 
z
" transform="scale(0.015625)"/>
       <path id="DejaVuSans-61" d="M 2194 1759 
Q 1497 1759 1228 1600 
Q 959 1441 959 1056 
Q 959 750 1161 570 
Q 1363 391 1709 391 
Q 2188 391 2477 730 
Q 2766 1069 2766 1631 
L 2766 1759 
L 2194 1759 
z
M 3341 1997 
L 3341 0 
L 2766 0 
L 2766 531 
Q 2569 213 2275 61 
Q 1981 -91 1556 -91 
Q 1019 -91 701 211 
Q 384 513 384 1019 
Q 384 1609 779 1909 
Q 1175 2209 1959 2209 
L 2766 2209 
L 2766 2266 
Q 2766 2663 2505 2880 
Q 2244 3097 1772 3097 
Q 1472 3097 1187 3025 
Q 903 2953 641 2809 
L 641 3341 
Q 956 3463 1253 3523 
Q 1550 3584 1831 3584 
Q 2591 3584 2966 3190 
Q 3341 2797 3341 1997 
z
" transform="scale(0.015625)"/>
       <path id="DejaVuSans-79" d="M 2059 -325 
Q 1816 -950 1584 -1140 
Q 1353 -1331 966 -1331 
L 506 -1331 
L 506 -850 
L 844 -850 
Q 1081 -850 1212 -737 
Q 1344 -625 1503 -206 
L 1606 56 
L 191 3500 
L 800 3500 
L 1894 763 
L 2988 3500 
L 3597 3500 
L 2059 -325 
z
" transform="scale(0.015625)"/>
      </defs>
      <use xlink:href="#DejaVuSans-41"/>
      <use xlink:href="#DejaVuSans-63" x="66.658203"/>
      <use xlink:href="#DejaVuSans-63" x="121.638672"/>
      <use xlink:href="#DejaVuSans-75" x="176.619141"/>
      <use xlink:href="#DejaVuSans-72" x="239.998047"/>
      <use xlink:href="#DejaVuSans-61" x="281.111328"/>
      <use xlink:href="#DejaVuSans-63" x="342.390625"/>
      <use xlink:href="#DejaVuSans-79" x="397.371094"/>
     </g>
    </g>
   </g>
   <g id="line2d_12">
    <path d="M 115.363636 368.430481 
L 115.871417 367.915373 
L 116.886978 367.497717 
L 117.394758 367.67174 
L 117.902539 366.592798 
L 118.410319 364.998747 
L 119.933661 354.759234 
L 120.441441 350.812392 
L 120.949222 347.944493 
L 122.472563 336.507702 
L 124.503686 322.460566 
L 126.027027 313.919517 
L 126.534808 312.234974 
L 127.042588 309.074717 
L 127.550369 307.042128 
L 128.058149 304.118542 
L 128.56593 303.645199 
L 129.07371 300.603277 
L 129.581491 298.58461 
L 130.089271 295.918578 
L 130.597052 295.459157 
L 131.104832 292.340665 
L 131.612613 292.22929 
L 132.120393 290.015718 
L 132.628174 287.140858 
L 133.643735 284.349529 
L 134.151515 283.938835 
L 134.659296 281.168389 
L 135.167076 280.075524 
L 135.674857 278.182154 
L 136.182637 277.47214 
L 136.690418 275.321216 
L 137.198198 274.304922 
L 137.705979 272.634301 
L 138.213759 272.133115 
L 138.72154 269.195606 
L 139.22932 268.659615 
L 139.737101 267.197822 
L 140.244881 267.17694 
L 140.752662 266.285942 
L 141.260442 263.967955 
L 141.768223 263.780011 
L 142.276003 261.58036 
L 142.783784 260.97476 
L 143.291564 260.195137 
L 146.846028 251.556635 
L 147.353808 251.835072 
L 147.861589 250.568185 
L 148.369369 249.600617 
L 148.87715 248.201472 
L 149.892711 246.433398 
L 150.400491 246.064469 
L 151.416052 243.335789 
L 151.923833 243.356672 
L 152.431613 241.971449 
L 152.939394 241.254474 
L 153.447174 239.33326 
L 154.462735 237.920193 
L 154.970516 237.050078 
L 155.478296 236.444478 
L 155.986077 236.08251 
L 157.001638 233.145002 
L 157.509419 232.741269 
L 158.017199 232.880487 
L 158.52498 230.729563 
L 159.03276 230.813094 
L 159.540541 230.054354 
L 160.048321 228.954528 
L 160.556102 229.100708 
L 161.063882 227.492735 
L 161.571663 227.256064 
L 162.079443 226.650464 
L 162.587224 225.341811 
L 163.095004 225.522795 
L 163.602785 224.764054 
L 164.110565 223.768643 
L 164.618346 222.38342 
L 165.126126 221.596836 
L 165.633907 222.063218 
L 166.649468 220.225535 
L 167.157248 219.88445 
L 169.18837 216.870371 
L 170.203931 215.714859 
L 170.711712 213.814527 
L 171.219492 215.234555 
L 171.727273 214.009433 
L 172.235053 213.543052 
L 172.742834 212.833038 
L 173.250614 211.48958 
L 173.758395 211.496541 
L 174.266175 210.877019 
L 174.773956 211.162417 
L 175.281736 209.032375 
L 175.789517 208.705212 
L 176.297297 208.607759 
L 176.805078 208.7609 
L 177.312858 208.016081 
L 177.820639 207.960394 
L 178.328419 207.500973 
L 178.8362 205.983493 
L 179.34398 205.628486 
L 180.359541 204.424247 
L 180.867322 203.052945 
L 181.375102 203.881295 
L 181.882883 202.948531 
L 182.898444 201.737331 
L 183.406224 201.911354 
L 183.914005 201.834784 
L 184.421785 200.345147 
L 184.929566 200.352108 
L 185.437346 201.096927 
L 185.945127 200.51917 
L 186.452907 198.862471 
L 186.960688 197.818334 
L 187.468468 197.303225 
L 187.976249 197.999317 
L 188.484029 197.317147 
L 188.99181 195.618683 
L 189.49959 195.757901 
L 190.007371 195.117497 
L 190.515152 195.458582 
L 191.022932 194.783372 
L 191.530713 194.553662 
L 192.038493 194.713763 
L 192.546274 193.168439 
L 193.054054 193.40511 
L 193.561835 192.667253 
L 194.069615 192.959611 
L 194.577396 192.625487 
L 195.085176 191.212421 
L 195.592957 190.669469 
L 196.100737 190.572016 
L 197.116298 190.015142 
L 197.624079 189.889846 
L 198.131859 189.291207 
L 198.63964 188.093928 
L 199.14742 188.957082 
L 199.655201 188.128733 
L 200.162981 187.850296 
L 200.670762 186.736549 
L 202.194103 184.989358 
L 202.701884 184.857101 
L 203.209664 185.246912 
L 203.717445 183.56237 
L 204.225225 183.764236 
L 204.733006 183.499721 
L 205.240786 182.448622 
L 205.748567 183.506682 
L 206.256347 181.634195 
L 206.764128 182.267638 
L 208.79525 180.109753 
L 209.30303 180.534369 
L 209.810811 179.385818 
L 210.318591 178.689726 
L 210.826372 179.204834 
L 211.334152 178.369523 
L 211.841933 178.870709 
L 212.349713 177.241854 
L 212.857494 176.643215 
L 213.365274 177.109597 
L 213.873055 176.051537 
L 214.380835 175.828787 
L 214.888616 176.761551 
L 215.396396 174.798571 
L 215.904177 174.589744 
L 216.411957 174.596705 
L 216.919738 174.151206 
L 217.427518 176.00281 
L 217.935299 173.984144 
L 218.443079 173.239325 
L 218.95086 173.844925 
L 219.45864 172.494507 
L 219.966421 172.021164 
L 220.474201 172.919123 
L 221.489762 170.197403 
L 221.997543 172.055969 
L 222.505324 171.060557 
L 223.013104 170.3227 
L 224.028665 170.454957 
L 224.536446 169.487389 
L 225.044226 168.993164 
L 225.552007 169.647491 
L 226.059787 168.874828 
L 226.567568 167.761081 
L 227.075348 167.719316 
L 227.583129 168.039518 
L 228.090909 167.183325 
L 228.59869 167.085872 
L 229.10647 166.222718 
L 229.614251 166.870084 
L 230.122031 165.721532 
L 230.629812 165.206424 
L 231.137592 165.853789 
L 231.645373 165.665844 
L 232.153153 164.753964 
L 232.660934 165.032401 
L 234.184275 163.125109 
L 234.692056 163.375702 
L 235.199836 162.770102 
L 235.707617 162.644805 
L 236.215397 162.067049 
L 236.723178 162.261955 
L 237.738739 161.531058 
L 238.246519 161.308309 
L 238.7543 160.841927 
L 239.26208 160.688787 
L 239.769861 159.943968 
L 240.277641 159.762984 
L 240.785422 160.138874 
L 241.293202 159.742102 
L 241.800983 159.108658 
L 242.308763 159.27572 
L 242.816544 157.681669 
L 243.324324 158.175895 
L 243.832105 157.702552 
L 244.339885 158.085403 
L 244.847666 156.839398 
L 245.355446 157.479803 
L 245.863227 157.124796 
L 246.371007 156.595766 
L 246.878788 156.588805 
L 247.386568 157.257053 
L 247.894349 154.792888 
L 248.402129 155.906635 
L 248.90991 153.477274 
L 249.41769 154.625825 
L 249.925471 154.05503 
L 250.433251 154.778966 
L 251.448812 152.962166 
L 251.956593 154.514451 
L 252.464373 153.734828 
L 252.972154 151.806653 
L 253.479934 152.871674 
L 253.987715 153.059618 
L 254.495495 151.486451 
L 255.003276 151.388998 
L 255.511057 151.994598 
L 256.018837 149.328565 
L 257.034398 150.240446 
L 257.542179 150.031618 
L 258.049959 150.692906 
L 258.55774 149.426018 
L 259.06552 149.655729 
L 259.573301 148.618552 
L 260.081081 148.743848 
L 260.588862 148.186975 
L 261.096642 147.978147 
L 261.604423 148.52806 
L 262.619984 146.906165 
L 263.127764 146.613807 
L 263.635545 146.982735 
L 264.143325 146.947931 
L 264.651106 146.342331 
L 265.158886 145.486138 
L 265.666667 145.924676 
L 266.174447 146.585963 
L 266.682228 144.629944 
L 267.190008 144.407195 
L 267.697789 144.51857 
L 268.205569 144.483765 
L 268.71335 144.873577 
L 269.22113 144.831811 
L 269.728911 143.592767 
L 270.236691 144.052188 
L 270.744472 142.158818 
L 271.252252 143.425705 
L 271.760033 143.404823 
L 272.267813 142.263232 
L 272.775594 141.622827 
L 273.283374 142.590395 
L 273.791155 141.072914 
L 274.298935 141.372234 
L 274.806716 141.058993 
L 275.314496 140.084464 
L 275.822277 139.367489 
L 276.330057 140.989383 
L 276.837838 139.987011 
L 277.345618 140.495158 
L 277.853399 139.562395 
L 278.86896 140.446432 
L 279.37674 138.587866 
L 279.884521 138.274625 
L 280.392301 138.622671 
L 280.900082 137.522845 
L 281.915643 139.033365 
L 282.423423 137.55765 
L 282.931204 137.112151 
L 283.438984 137.300096 
L 283.946765 137.056464 
L 284.454545 136.214192 
L 284.962326 136.548316 
L 285.470106 134.801126 
L 285.977887 135.573788 
L 286.485667 135.685162 
L 286.993448 134.494845 
L 287.501229 135.218781 
L 288.009009 135.378882 
L 288.51679 135.36496 
L 289.02457 134.585337 
L 289.532351 134.313861 
L 290.040131 134.181604 
L 290.547912 133.889245 
L 291.055692 133.868362 
L 291.563473 134.007581 
L 292.071253 133.840519 
L 292.579034 132.914716 
L 293.086814 132.622358 
L 293.594595 133.123544 
L 294.102375 133.17227 
L 294.610156 131.954109 
L 295.117936 132.142054 
L 295.625717 131.348509 
L 296.133497 131.174486 
L 296.641278 131.264978 
L 297.149058 131.111838 
L 297.656839 130.36702 
L 298.164619 131.557337 
L 299.18018 130.318293 
L 299.687961 129.99113 
L 300.195741 130.116426 
L 300.703522 130.951737 
L 301.211302 128.431884 
L 301.719083 129.935442 
L 302.226863 128.62679 
L 302.734644 128.007268 
L 303.242424 128.654633 
L 303.750205 128.000307 
L 304.257985 128.313548 
L 304.765766 127.79844 
L 305.273546 127.72187 
L 305.781327 126.622045 
L 306.289107 127.42255 
L 306.796888 127.972463 
L 307.304668 126.545474 
L 307.812449 127.046661 
L 308.320229 127.742753 
L 308.82801 127.833245 
L 309.33579 126.468904 
L 309.843571 125.577907 
L 310.859132 126.482826 
L 311.366912 124.568573 
L 311.874693 125.738008 
L 312.382473 125.083681 
L 312.890254 125.118486 
L 313.398034 124.380628 
L 313.905815 124.993189 
L 314.413595 124.199644 
L 314.921376 123.858559 
L 315.429156 124.095231 
L 315.936937 124.930541 
L 316.444717 123.218155 
L 316.952498 122.285391 
L 317.968059 123.601005 
L 319.4914 121.192527 
L 319.999181 121.450081 
L 320.506962 123.085897 
L 321.014742 123.287764 
L 321.522523 120.294568 
L 322.030303 120.872325 
L 322.538084 122.278431 
L 323.045864 120.259764 
L 323.553645 121.624104 
L 324.061425 120.844481 
L 324.569206 121.359589 
L 325.076986 119.932601 
L 325.584767 120.134467 
L 326.092547 120.016132 
L 326.600328 120.976739 
L 327.108108 120.113584 
L 327.615889 118.484729 
L 328.123669 118.777088 
L 328.63145 119.445336 
L 329.13923 118.282863 
L 329.647011 119.521906 
L 330.154791 118.49169 
L 330.662572 119.048564 
L 331.170352 117.607653 
L 331.678133 118.832775 
L 332.185913 117.96266 
L 332.693694 118.408159 
L 333.709255 115.825658 
L 334.724816 118.825814 
L 335.232596 117.454513 
L 335.740377 116.410375 
L 336.248157 116.542633 
L 336.755938 116.549593 
L 337.263718 116.097134 
L 337.771499 116.772343 
L 338.279279 115.776931 
L 338.78706 115.999681 
L 339.29484 116.542633 
L 339.802621 114.962504 
L 340.818182 116.347727 
L 341.833743 114.370826 
L 342.341523 115.61683 
L 342.849304 114.419552 
L 343.357084 115.491534 
L 343.864865 114.70495 
L 344.880426 113.911405 
L 345.388206 112.707166 
L 345.895987 113.64689 
L 346.403767 113.737382 
L 346.911548 114.182881 
L 347.419328 112.268628 
L 347.927109 113.632968 
L 348.434889 111.857933 
L 348.94267 112.992563 
L 349.45045 112.366081 
L 349.958231 112.672361 
L 350.466011 112.352159 
L 350.973792 110.716343 
L 351.481572 111.516848 
L 351.989353 111.663028 
L 352.497133 110.8486 
L 353.004914 111.433317 
L 353.512695 110.646733 
L 354.020475 111.920582 
L 354.528256 110.862522 
L 355.036036 110.437906 
L 355.543817 110.249961 
L 356.051597 111.07135 
L 356.559378 110.131625 
L 357.067158 110.939092 
L 358.082719 108.983074 
L 358.5905 110.897327 
L 359.09828 110.966936 
L 359.606061 108.621106 
L 360.113841 108.370513 
L 360.621622 109.971524 
L 361.129402 108.300903 
L 361.637183 108.913464 
L 362.652744 107.646577 
L 363.668305 109.017878 
L 364.176085 108.976113 
L 364.683866 109.477299 
L 365.191646 107.841483 
L 365.699427 108.843855 
L 366.207207 106.804306 
L 366.714988 107.97374 
L 367.222768 107.660499 
L 367.730549 107.709225 
L 368.238329 107.437749 
L 368.74611 106.91568 
L 369.25389 106.679009 
L 369.761671 106.734696 
L 370.269451 107.082742 
L 370.777232 106.880876 
L 371.285012 107.006172 
L 371.792793 105.439965 
L 372.300573 106.191745 
L 372.808354 106.115175 
L 373.316134 105.760168 
L 373.823915 105.119763 
L 374.839476 106.68597 
L 375.347256 105.356434 
L 376.362817 104.312296 
L 376.870598 104.827404 
L 377.378378 104.221804 
L 377.886159 104.381905 
L 378.393939 105.433004 
L 378.90172 104.11043 
L 379.4095 104.270531 
L 379.917281 103.490908 
L 380.425061 103.831993 
L 380.932842 103.12894 
L 381.440622 103.678853 
L 381.948403 103.386494 
L 382.456183 104.242687 
L 382.963964 102.739128 
L 383.471744 101.875974 
L 383.979525 102.871386 
L 384.487305 101.84117 
L 384.995086 102.808738 
L 385.502867 102.098724 
L 386.010647 102.425887 
L 387.026208 101.562733 
L 387.533989 103.268158 
L 388.041769 102.203138 
L 389.05733 101.799404 
L 389.565111 102.154411 
L 390.072891 101.604498 
L 390.580672 100.602126 
L 391.088452 101.597538 
L 391.596233 101.632342 
L 392.104013 101.326062 
L 392.611794 100.588204 
L 393.119574 100.351533 
L 393.627355 101.409593 
L 394.135135 99.885151 
L 394.642916 99.133372 
L 395.150696 100.219275 
L 396.166257 99.564949 
L 396.674038 98.179726 
L 397.181818 100.588204 
L 397.689599 99.773776 
L 398.197379 99.411809 
L 398.70516 100.135744 
L 399.21294 99.411809 
L 399.720721 99.189059 
L 400.228501 98.019625 
L 400.736282 99.070724 
L 401.244062 98.639147 
L 401.751843 99.237786 
L 402.259623 99.209942 
L 402.767404 98.026586 
L 403.275184 98.068351 
L 403.782965 98.270218 
L 404.290745 98.611303 
L 404.798526 97.337455 
L 405.814087 96.85019 
L 406.321867 97.574126 
L 406.829648 97.107744 
L 407.337428 97.588048 
L 407.845209 97.177353 
L 408.352989 97.37922 
L 408.86077 97.427946 
L 409.36855 96.446457 
L 409.876331 96.523027 
L 410.384111 96.376848 
L 410.891892 97.330494 
L 411.399672 97.135588 
L 411.907453 97.065979 
L 412.415233 95.40928 
L 412.923014 95.576342 
L 413.430794 95.311827 
L 414.446355 96.133215 
L 414.954136 96.272434 
L 415.461916 96.24459 
L 415.969697 96.000958 
L 416.985258 94.205041 
L 417.493038 94.796719 
L 418.000819 95.645951 
L 418.5086 94.699266 
L 419.01638 94.601813 
L 420.031941 94.824562 
L 420.539722 93.620323 
L 421.047502 94.392985 
L 421.555283 94.518282 
L 422.063063 94.27465 
L 422.570844 94.573969 
L 423.078624 93.571597 
L 423.586405 94.358181 
L 424.094185 93.153942 
L 424.601966 93.648167 
L 425.109746 92.715404 
L 425.617527 93.766503 
L 426.125307 93.153942 
L 426.633088 94.27465 
L 427.648649 91.991468 
L 428.156429 93.321004 
L 428.66421 91.469399 
L 429.17199 91.991468 
L 429.679771 92.708443 
L 430.187551 91.824406 
L 430.695332 92.785013 
L 431.203112 91.671266 
L 432.218673 92.778052 
L 432.726454 92.054116 
L 433.742015 91.518125 
L 434.249795 91.761758 
L 434.757576 92.409123 
L 435.265356 92.701482 
L 435.773137 90.982135 
L 436.280917 92.38128 
L 436.788698 92.638834 
L 437.296478 90.383496 
L 437.804259 91.051744 
L 438.312039 89.652599 
L 438.81982 90.738502 
L 439.3276 91.037822 
L 439.835381 90.105059 
L 440.343161 90.989096 
L 441.358722 89.576029 
L 441.866503 91.0239 
L 442.374283 89.422889 
L 442.882064 89.826622 
L 443.389844 89.499459 
L 443.897625 89.979762 
L 444.405405 89.367201 
L 444.913186 90.369574 
L 445.420966 89.882309 
L 445.928747 89.861427 
L 446.436527 89.492498 
L 446.944308 89.617794 
L 447.452088 89.088764 
L 447.959869 88.740718 
L 448.97543 88.768562 
L 449.48321 89.443771 
L 449.990991 87.397261 
L 450.498771 88.886898 
L 451.006552 88.281298 
L 451.514333 89.088764 
L 452.022113 87.425105 
L 452.529894 88.218649 
L 453.037674 87.863643 
L 453.545455 87.981978 
L 454.053235 88.928663 
L 454.561016 87.258042 
L 455.068796 88.789445 
L 455.576577 87.863643 
L 456.592138 87.411183 
L 457.099918 88.197767 
L 457.607699 86.791661 
L 458.115479 86.380967 
L 458.62326 87.626971 
L 459.13104 85.65007 
L 459.638821 87.647854 
L 460.146601 86.993528 
L 461.162162 87.46687 
L 461.669943 86.478419 
L 462.177723 86.33224 
L 462.685504 85.865858 
L 463.193284 86.568911 
L 463.701065 86.269592 
L 464.208845 86.568911 
L 464.716626 86.367045 
L 465.224406 84.919173 
L 466.239967 86.269592 
L 466.747748 85.622226 
L 467.255528 84.710346 
L 467.763309 86.763817 
L 468.271089 85.281141 
L 469.28665 85.608304 
L 469.794431 84.926134 
L 470.809992 86.25567 
L 471.317772 85.94939 
L 472.333333 84.661619 
L 472.841114 84.028176 
L 473.348894 84.459753 
L 473.856675 85.176727 
L 474.364455 84.417987 
L 474.872236 84.188277 
L 475.380016 83.68013 
L 475.887797 84.28573 
L 476.395577 84.035137 
L 476.903358 83.130217 
L 477.411138 83.749739 
L 477.918919 83.701012 
L 478.426699 83.492185 
L 478.93448 84.501518 
L 479.44226 85.218493 
L 479.950041 83.547872 
L 480.457821 82.997959 
L 481.473382 82.5455 
L 481.981163 82.77521 
L 482.488943 83.408654 
L 482.996724 83.652286 
L 483.504505 83.366888 
L 484.012285 83.513068 
L 484.520066 83.060608 
L 485.027846 83.130217 
L 485.535627 82.552461 
L 486.043407 82.538539 
L 486.551188 83.346005 
L 487.058968 82.531578 
L 487.566749 83.60356 
L 488.074529 81.703228 
L 488.58231 82.552461 
L 489.09009 82.810015 
L 489.597871 82.134805 
L 490.105651 82.510695 
L 490.613432 81.355182 
L 491.121212 82.740405 
L 491.628993 82.663835 
L 492.136773 81.383026 
L 492.644554 82.002548 
L 493.152334 81.014097 
L 493.660115 81.473518 
L 494.167895 81.355182 
L 494.675676 81.696267 
L 495.183456 81.222925 
L 495.691237 80.067412 
L 496.199017 81.132433 
L 496.706798 81.403909 
L 497.214578 81.494401 
L 497.722359 80.951449 
L 498.73792 80.895762 
L 499.2457 81.703228 
L 499.753481 81.466557 
L 500.261261 81.48744 
L 500.769042 81.953821 
L 501.276822 80.624286 
L 501.784603 81.967743 
L 502.292383 80.415458 
L 502.800164 79.795936 
L 503.307944 81.285573 
L 503.815725 79.775054 
L 504.323505 80.018686 
L 504.831286 79.844663 
L 505.339066 78.703072 
L 505.846847 80.756543 
L 506.354627 79.134649 
L 506.862408 78.946704 
L 507.370188 80.610364 
L 507.877969 79.085922 
L 508.385749 79.914272 
L 508.89353 79.545343 
L 509.40131 79.475734 
L 509.909091 80.457224 
L 510.416871 80.095256 
L 510.924652 79.969959 
L 511.432432 79.037196 
L 511.940213 78.341104 
L 512.447993 78.23669 
L 512.955774 79.287789 
L 513.463554 79.273867 
L 513.971335 79.621913 
L 514.479115 79.621913 
L 514.986896 79.350437 
L 515.494676 78.668267 
L 516.002457 79.301711 
L 516.510238 79.037196 
L 517.018018 78.055706 
L 517.525799 79.413086 
L 518.033579 78.355026 
L 518.54136 77.812074 
L 519.04914 79.044157 
L 519.556921 77.923449 
L 520.064701 77.519716 
L 520.572482 78.870134 
L 521.080262 79.051118 
L 521.588043 78.139237 
L 522.095823 77.589325 
L 522.603604 77.93041 
L 523.111384 77.380497 
L 523.619165 76.329398 
L 524.126945 77.436184 
L 524.634726 77.603247 
L 525.142506 77.575403 
L 525.650287 76.865389 
L 526.158067 78.292378 
L 526.665848 77.060295 
L 527.173628 77.965214 
L 527.681409 76.962842 
L 528.189189 76.816663 
L 528.69697 77.457067 
L 529.712531 78.048745 
L 530.220311 77.018529 
L 530.728092 76.934998 
L 531.235872 76.440773 
L 531.743653 76.475578 
L 532.251433 75.960469 
L 532.759214 76.41989 
L 533.266994 75.695954 
L 533.774775 76.211063 
L 534.790336 76.788819 
L 535.805897 75.974391 
L 536.313677 75.744681 
L 536.821458 76.503421 
L 537.329238 75.702915 
L 537.837019 75.869977 
L 538.344799 75.758603 
L 538.85258 75.765564 
L 539.36036 76.990686 
L 539.868141 75.194768 
L 540.375921 74.554364 
L 540.883702 74.923292 
L 541.391482 76.308515 
L 541.899263 75.723798 
L 542.407043 75.988313 
L 542.914824 75.173886 
L 543.422604 74.965058 
L 543.930385 75.201729 
L 544.438165 74.797996 
L 544.945946 75.542814 
L 545.453726 74.568285 
L 545.961507 74.888488 
L 546.469287 75.598502 
L 546.977068 74.700543 
L 547.484848 74.916331 
L 549.00819 74.429067 
L 549.515971 73.781702 
L 550.023751 74.442989 
L 550.531532 74.700543 
L 551.039312 74.129748 
L 551.547093 74.275927 
L 552.054873 73.837389 
L 552.562654 74.289849 
L 553.070434 74.477794 
L 553.578215 73.962685 
L 554.085995 74.547403 
L 554.593776 74.136708 
L 555.101556 74.338575 
L 555.609337 73.134336 
L 556.117117 74.888488 
L 556.624898 73.482382 
L 557.132678 74.094943 
L 557.640459 73.670327 
L 558.148239 73.670327 
L 558.65602 73.551991 
L 559.1638 73.788662 
L 559.671581 73.774741 
L 560.179361 74.415145 
L 560.687142 73.301398 
L 561.194922 72.591384 
L 561.702703 73.705131 
L 562.210483 72.779329 
L 563.226044 73.252672 
L 563.733825 74.213279 
L 564.749386 72.744524 
L 565.257166 72.918547 
L 565.764947 73.677288 
L 566.272727 72.02755 
L 566.780508 73.141297 
L 567.288288 73.482382 
L 567.796069 72.361674 
L 568.303849 72.438244 
L 568.81163 72.312947 
L 569.31941 71.324497 
L 569.827191 73.454538 
L 570.334971 72.974235 
L 570.842752 72.821095 
L 571.350532 72.946391 
L 571.858313 71.616855 
L 572.366093 71.220083 
L 572.873874 72.445205 
L 573.381654 73.176101 
L 573.889435 71.964901 
L 574.397215 72.904626 
L 574.904996 71.589012 
L 575.412776 71.394106 
L 575.920557 72.069315 
L 576.428337 71.582051 
L 576.936118 70.732819 
L 577.443898 71.930097 
L 577.951679 70.67017 
L 578.459459 71.484598 
L 578.96724 71.49852 
L 579.47502 72.584423 
L 579.982801 70.544874 
L 580.490581 71.491559 
L 580.998362 71.665582 
L 581.506143 71.338419 
L 582.013923 71.310575 
L 582.521704 70.74674 
L 583.029484 70.530952 
L 584.045045 70.96949 
L 584.552826 70.802428 
L 585.060606 69.786133 
L 585.568387 70.391734 
L 586.076167 70.092414 
L 586.583948 70.343007 
L 587.599509 71.289692 
L 588.107289 70.489186 
L 588.61507 70.962529 
L 589.630631 69.389361 
L 590.138411 70.036727 
L 590.646192 69.890547 
L 591.153972 70.148101 
L 591.661753 69.68172 
L 592.169533 70.551835 
L 592.677314 70.642327 
L 593.185094 69.841821 
L 593.692875 71.414989 
L 594.200655 69.417205 
L 594.708436 70.830271 
L 595.723997 70.537913 
L 596.231777 68.860331 
L 596.739558 70.607522 
L 597.247338 69.472892 
L 597.755119 69.472892 
L 598.262899 70.579678 
L 598.77068 69.145729 
L 599.27846 68.99955 
L 599.786241 69.368478 
L 600.294021 69.055237 
L 600.801802 69.055237 
L 601.309582 69.883586 
L 601.817363 69.312791 
L 602.325143 69.208377 
L 602.832924 69.598189 
L 603.340704 68.797683 
L 603.848485 69.53554 
L 604.356265 68.317379 
L 604.864046 69.855743 
L 605.371826 68.630621 
L 605.879607 68.92994 
L 606.387387 68.832487 
L 606.895168 68.39395 
L 607.402948 69.041315 
L 607.910729 68.54709 
L 608.418509 68.54709 
L 608.92629 68.219927 
L 609.43407 68.212966 
L 609.941851 67.885802 
L 610.957412 68.386989 
L 611.465192 69.918391 
L 611.972973 68.985628 
L 612.480753 68.345223 
L 612.988534 69.396322 
L 613.496314 68.40091 
L 614.511876 67.308046 
L 615.019656 67.607366 
L 615.527437 67.398538 
L 616.035217 68.435715 
L 616.542998 68.616699 
L 617.050778 67.370694 
L 617.558559 68.818566 
L 618.066339 68.143356 
L 618.57412 67.273241 
L 619.0819 67.892763 
L 620.097461 66.96 
L 620.605242 67.398538 
L 621.113022 68.185122 
L 621.620803 67.064414 
L 622.128583 67.03657 
L 622.636364 67.857959 
L 622.636364 67.857959 
" clip-path="url(#p6fad737ecc)" style="fill: none; stroke: #1f77b4; stroke-width: 1.5; stroke-linecap: square"/>
   </g>
   <g id="line2d_13">
    <path d="M 115.363636 368.291262 
L 115.871417 367.803998 
L 116.379197 367.769193 
L 116.886978 368.256458 
L 117.394758 367.038297 
L 117.902539 367.247124 
L 119.42588 359.555308 
L 119.933661 358.650388 
L 120.441441 355.169928 
L 120.949222 350.540916 
L 121.964783 345.459445 
L 122.980344 336.967123 
L 123.488124 331.746433 
L 124.503686 329.936594 
L 125.011466 324.785513 
L 125.519247 322.732041 
L 126.027027 322.627628 
L 126.534808 319.216777 
L 127.042588 317.232915 
L 127.550369 311.246524 
L 128.058149 316.084363 
L 128.56593 309.680317 
L 129.07371 309.993558 
L 129.581491 312.743121 
L 130.089271 303.902753 
L 130.597052 304.63365 
L 131.104832 303.72873 
L 131.612613 301.675259 
L 132.120393 297.637925 
L 132.628174 303.241466 
L 134.151515 288.310292 
L 134.659296 290.294155 
L 135.167076 291.721143 
L 135.674857 289.250017 
L 136.690418 290.990247 
L 137.198198 285.630338 
L 137.705979 286.744085 
L 138.213759 283.959717 
L 138.72154 284.934246 
L 139.22932 285.108269 
L 139.737101 282.46312 
L 140.244881 283.890108 
L 140.752662 284.20335 
L 141.260442 278.808637 
L 141.768223 279.36551 
L 142.276003 273.935993 
L 142.783784 275.850246 
L 143.291564 281.523395 
L 143.799345 272.613418 
L 144.307125 271.151625 
L 144.814906 272.40459 
L 145.322686 274.492866 
L 145.830467 267.775579 
L 146.338247 267.914797 
L 146.846028 275.5022 
L 147.353808 268.610889 
L 147.861589 265.791716 
L 148.369369 264.329923 
L 148.87715 266.835854 
L 149.38493 264.886797 
L 149.892711 261.58036 
L 150.400491 262.798521 
L 150.908272 261.162705 
L 151.416052 267.044682 
L 151.923833 259.909739 
L 152.431613 256.846934 
L 153.447174 260.153371 
L 153.954955 258.970015 
L 154.462735 253.610107 
L 154.970516 261.267119 
L 155.478296 253.78413 
L 155.986077 257.26459 
L 156.493857 251.661049 
L 157.001638 250.68652 
L 157.509419 250.825739 
L 158.017199 255.698383 
L 158.52498 246.37075 
L 159.03276 251.904681 
L 159.540541 251.382612 
L 160.048321 247.240865 
L 160.556102 247.310474 
L 161.063882 245.291807 
L 161.571663 246.649187 
L 162.079443 246.82321 
L 162.587224 249.642382 
L 163.095004 248.94629 
L 164.110565 243.934428 
L 164.618346 246.440359 
L 165.126126 247.171256 
L 165.633907 242.681462 
L 166.141687 248.667853 
L 166.649468 245.187394 
L 167.157248 245.46583 
L 167.665029 249.955624 
L 168.172809 243.238336 
L 168.68059 245.953095 
L 169.18837 244.560911 
L 169.696151 245.291807 
L 170.203931 238.470106 
L 170.711712 247.832543 
L 171.219492 238.191669 
L 171.727273 242.611853 
L 172.235053 239.618658 
L 172.742834 238.330887 
L 173.250614 239.444635 
L 173.758395 235.233278 
L 174.266175 240.593186 
L 174.773956 238.852956 
L 175.281736 237.530382 
L 175.789517 238.609324 
L 176.297297 235.616129 
L 176.805078 239.40983 
L 177.312858 235.894565 
L 177.820639 236.555853 
L 178.328419 236.277416 
L 178.8362 236.347025 
L 179.34398 236.660267 
L 179.851761 238.609324 
L 180.359541 234.850427 
L 180.867322 237.321554 
L 181.375102 238.470106 
L 181.882883 233.771485 
L 182.390663 232.622933 
L 182.898444 232.796956 
L 183.406224 232.344496 
L 183.914005 236.729876 
L 184.421785 232.970979 
L 184.929566 234.954841 
L 185.437346 230.639071 
L 186.452907 232.622933 
L 186.960688 231.648404 
L 187.468468 234.537186 
L 187.976249 230.917508 
L 188.484029 234.18914 
L 188.99181 230.778289 
L 189.49959 229.316496 
L 190.007371 236.521048 
L 190.515152 228.759623 
L 191.022932 236.242611 
L 191.530713 230.047393 
L 192.546274 236.869094 
L 193.054054 228.864036 
L 193.561835 229.87337 
L 194.069615 234.467577 
L 194.577396 231.335163 
L 195.085176 231.99645 
L 195.592957 231.752818 
L 196.100737 232.309692 
L 197.624079 228.96845 
L 198.131859 236.38183 
L 198.63964 241.846152 
L 199.14742 231.335163 
L 199.655201 230.639071 
L 200.162981 230.987117 
L 200.670762 233.35383 
L 201.178542 227.715485 
L 201.686323 232.344496 
L 202.194103 233.005784 
L 202.701884 229.142473 
L 203.209664 233.145002 
L 203.717445 230.813094 
L 204.225225 233.005784 
L 204.733006 232.414105 
L 205.240786 230.987117 
L 205.748567 226.427714 
L 206.256347 229.490519 
L 206.764128 229.038059 
L 207.271908 229.142473 
L 207.779689 231.6136 
L 208.287469 230.534657 
L 208.79525 226.253691 
L 209.30303 229.908174 
L 209.810811 227.715485 
L 210.318591 228.307163 
L 210.826372 227.22822 
L 211.334152 229.734151 
L 211.841933 227.471852 
L 212.857494 232.344496 
L 213.365274 227.889508 
L 214.380835 230.465048 
L 214.888616 228.550795 
L 215.396396 233.875899 
L 215.904177 228.341967 
L 216.411957 225.731622 
L 217.427518 231.404772 
L 217.935299 232.066059 
L 218.443079 226.84537 
L 218.95086 225.627209 
L 219.45864 226.497324 
L 219.966421 227.054197 
L 220.474201 230.221416 
L 220.981982 228.446381 
L 221.489762 228.376772 
L 221.997543 227.506657 
L 222.505324 228.411577 
L 223.013104 229.942979 
L 223.520885 230.32583 
L 224.028665 226.601737 
L 224.536446 228.028726 
L 225.044226 229.107669 
L 225.552007 232.100864 
L 226.059787 229.42091 
L 226.567568 233.493048 
L 227.075348 228.167944 
L 227.583129 225.766427 
L 228.090909 225.94045 
L 228.59869 233.319025 
L 229.10647 230.082197 
L 229.614251 227.854703 
L 230.122031 227.993921 
L 230.629812 229.560128 
L 231.137592 228.690013 
L 231.645373 228.411577 
L 232.153153 227.263025 
L 232.660934 229.038059 
L 233.168714 232.796956 
L 233.676495 227.158611 
L 234.184275 227.750289 
L 234.692056 229.42091 
L 235.199836 228.028726 
L 236.215397 229.560128 
L 236.723178 227.993921 
L 237.230958 228.307163 
L 237.738739 224.896312 
L 238.246519 227.959117 
L 238.7543 225.139944 
L 239.26208 227.402243 
L 239.769861 225.975255 
L 240.277641 229.490519 
L 240.785422 228.272358 
L 241.293202 228.237554 
L 241.800983 226.358105 
L 242.308763 227.576266 
L 242.816544 228.202749 
L 243.324324 231.787623 
L 243.832105 230.221416 
L 244.339885 229.908174 
L 244.847666 231.718013 
L 245.355446 227.645875 
L 245.863227 229.734151 
L 246.371007 225.383576 
L 246.878788 227.402243 
L 247.386568 229.977784 
L 247.894349 229.107669 
L 248.402129 231.439577 
L 248.90991 227.367439 
L 249.41769 231.265554 
L 249.925471 227.959117 
L 250.433251 228.620404 
L 250.941032 230.047393 
L 251.448812 230.117002 
L 251.956593 229.629738 
L 252.464373 230.987117 
L 252.972154 227.993921 
L 253.479934 229.560128 
L 253.987715 227.645875 
L 254.495495 229.142473 
L 255.003276 234.432772 
L 255.511057 229.977784 
L 256.018837 230.499853 
L 256.526618 228.063531 
L 257.034398 228.376772 
L 257.542179 226.184082 
L 259.06552 233.632266 
L 259.573301 231.6136 
L 260.081081 226.949783 
L 260.588862 231.892036 
L 261.096642 226.218887 
L 261.604423 228.724818 
L 262.112203 222.982059 
L 262.619984 228.759623 
L 263.127764 229.455715 
L 263.635545 227.506657 
L 264.143325 231.404772 
L 264.651106 232.100864 
L 265.158886 233.910703 
L 266.174447 231.056726 
L 266.682228 232.379301 
L 267.697789 228.829232 
L 268.205569 231.056726 
L 268.71335 228.13314 
L 269.22113 228.898841 
L 269.728911 228.13314 
L 270.236691 234.328358 
L 270.744472 233.075393 
L 271.252252 232.170473 
L 271.760033 229.42091 
L 272.267813 233.388634 
L 272.775594 230.221416 
L 273.283374 229.699347 
L 273.791155 232.90137 
L 274.298935 237.530382 
L 274.806716 233.214611 
L 275.314496 233.005784 
L 275.822277 231.718013 
L 276.330057 232.309692 
L 276.837838 234.467577 
L 277.345618 231.683209 
L 277.853399 232.622933 
L 278.361179 233.875899 
L 278.86896 229.664542 
L 279.37674 234.015117 
L 279.884521 229.87337 
L 280.392301 229.734151 
L 280.900082 232.762151 
L 281.407862 229.942979 
L 281.915643 233.35383 
L 282.423423 231.091531 
L 283.438984 234.18914 
L 283.946765 231.752818 
L 284.454545 230.639071 
L 284.962326 234.293554 
L 285.470106 232.657738 
L 285.977887 233.249416 
L 286.485667 231.683209 
L 287.501229 236.138198 
L 288.009009 236.033784 
L 288.51679 235.650933 
L 289.02457 235.02445 
L 289.532351 232.831761 
L 290.040131 239.061784 
L 290.547912 234.223945 
L 291.055692 231.752818 
L 291.563473 233.910703 
L 292.071253 229.87337 
L 292.579034 228.376772 
L 293.086814 231.404772 
L 293.594595 231.718013 
L 294.102375 230.778289 
L 294.610156 233.005784 
L 295.117936 229.977784 
L 295.625717 234.432772 
L 296.133497 234.954841 
L 296.641278 231.787623 
L 297.149058 235.02445 
L 297.656839 230.882703 
L 298.164619 233.28422 
L 298.6724 231.021922 
L 299.18018 231.857232 
L 299.687961 235.198473 
L 300.195741 231.439577 
L 300.703522 230.604266 
L 301.211302 233.493048 
L 301.719083 232.90137 
L 302.226863 234.850427 
L 302.734644 234.850427 
L 303.242424 234.606795 
L 303.750205 234.18914 
L 304.257985 233.527853 
L 304.765766 232.135669 
L 305.273546 234.954841 
L 305.781327 233.28422 
L 306.289107 229.142473 
L 306.796888 234.467577 
L 307.304668 231.195945 
L 307.812449 231.683209 
L 308.320229 235.059255 
L 308.82801 233.35383 
L 309.33579 233.423439 
L 309.843571 230.743485 
L 310.351351 228.724818 
L 310.859132 232.344496 
L 311.366912 234.397968 
L 311.874693 234.18914 
L 312.382473 231.648404 
L 312.890254 236.695071 
L 313.398034 234.258749 
L 313.905815 232.866565 
L 314.413595 233.179807 
L 314.921376 231.99645 
L 315.429156 234.850427 
L 315.936937 233.73668 
L 316.444717 234.049922 
L 316.952498 236.416634 
L 317.460278 236.416634 
L 317.968059 237.460772 
L 318.475839 234.711209 
L 318.98362 237.182336 
L 319.4914 232.936174 
L 319.999181 235.059255 
L 320.506962 232.936174 
L 321.014742 234.363163 
L 321.522523 232.762151 
L 322.538084 234.223945 
L 323.045864 231.822427 
L 323.553645 233.841094 
L 324.061425 234.328358 
L 324.569206 230.499853 
L 325.076986 234.397968 
L 325.584767 234.223945 
L 326.092547 232.135669 
L 326.600328 233.667071 
L 327.108108 232.970979 
L 327.615889 231.752818 
L 328.123669 232.831761 
L 328.63145 233.458243 
L 329.13923 235.685738 
L 329.647011 234.606795 
L 330.154791 234.6416 
L 330.662572 235.442106 
L 331.170352 239.966704 
L 331.678133 236.347025 
L 332.185913 235.894565 
L 332.693694 231.892036 
L 333.201474 234.537186 
L 333.709255 231.683209 
L 334.217035 240.627991 
L 335.232596 235.859761 
L 335.740377 233.806289 
L 336.248157 235.233278 
L 336.755938 232.170473 
L 337.263718 232.483715 
L 337.771499 233.28422 
L 338.279279 236.903899 
L 338.78706 236.138198 
L 339.29484 236.799485 
L 339.802621 234.850427 
L 340.310401 234.606795 
L 340.818182 236.207807 
L 341.325962 235.92937 
L 341.833743 233.527853 
L 342.341523 237.634795 
L 342.849304 235.964175 
L 343.357084 232.727347 
L 343.864865 236.555853 
L 344.372645 234.328358 
L 344.880426 237.565186 
L 345.895987 236.138198 
L 346.403767 236.068588 
L 346.911548 234.258749 
L 347.419328 235.09406 
L 347.927109 236.242611 
L 348.434889 233.145002 
L 348.94267 235.720542 
L 349.45045 235.581324 
L 349.958231 238.017646 
L 350.466011 236.103393 
L 350.973792 235.02445 
L 351.481572 236.277416 
L 351.989353 232.936174 
L 352.497133 236.486244 
L 353.004914 236.068588 
L 354.020475 243.377554 
L 354.528256 237.878428 
L 355.036036 236.416634 
L 355.543817 237.008313 
L 356.051597 240.140727 
L 356.559378 235.233278 
L 357.067158 235.92937 
L 357.574939 234.328358 
L 358.082719 237.530382 
L 358.5905 235.964175 
L 359.09828 234.885232 
L 359.606061 236.973508 
L 360.621622 235.824956 
L 361.129402 235.059255 
L 361.637183 236.799485 
L 362.144963 239.931899 
L 362.652744 236.416634 
L 363.160524 234.18914 
L 363.668305 237.6696 
L 364.176085 236.103393 
L 364.683866 237.948037 
L 365.191646 238.678933 
L 365.699427 242.472635 
L 366.207207 236.76468 
L 366.714988 234.537186 
L 367.222768 234.328358 
L 367.730549 237.913232 
L 368.238329 239.653462 
L 368.74611 235.511715 
L 369.25389 237.043117 
L 369.761671 236.973508 
L 370.269451 235.511715 
L 370.777232 235.198473 
L 371.792793 237.774014 
L 372.300573 235.128864 
L 372.808354 237.251945 
L 373.316134 235.824956 
L 373.823915 235.442106 
L 374.331695 240.523577 
L 374.839476 236.729876 
L 375.347256 239.723071 
L 375.855037 237.739209 
L 376.362817 235.268083 
L 376.870598 235.268083 
L 377.378378 239.166198 
L 378.393939 232.970979 
L 378.90172 234.780818 
L 379.4095 238.330887 
L 379.917281 240.627991 
L 380.425061 235.302887 
L 380.932842 235.059255 
L 381.440622 237.565186 
L 381.948403 235.233278 
L 382.456183 238.365692 
L 382.963964 236.416634 
L 383.471744 239.061784 
L 383.979525 234.711209 
L 384.487305 240.523577 
L 384.995086 238.261278 
L 385.502867 238.678933 
L 386.010647 235.302887 
L 386.518428 237.913232 
L 387.026208 235.02445 
L 388.041769 242.124589 
L 388.54955 236.138198 
L 389.05733 238.713738 
L 389.565111 238.470106 
L 390.072891 235.790152 
L 390.580672 238.50491 
L 391.088452 234.989646 
L 391.596233 235.685738 
L 392.104013 236.103393 
L 392.611794 237.008313 
L 393.119574 235.998979 
L 393.627355 235.442106 
L 394.135135 235.546519 
L 394.642916 242.263807 
L 395.150696 234.293554 
L 395.658477 234.084726 
L 396.166257 236.068588 
L 396.674038 234.815623 
L 397.181818 237.391163 
L 397.689599 238.539715 
L 398.197379 240.279945 
L 398.70516 236.973508 
L 399.21294 239.340221 
L 399.720721 240.001508 
L 400.228501 238.330887 
L 400.736282 242.542244 
L 401.244062 235.859761 
L 401.751843 241.324083 
L 402.259623 239.305416 
L 402.767404 235.92937 
L 403.275184 241.219669 
L 403.782965 238.783347 
L 404.290745 237.356359 
L 404.798526 234.258749 
L 405.306306 236.625462 
L 405.814087 237.808818 
L 406.321867 241.846152 
L 406.829648 238.539715 
L 407.337428 238.818152 
L 407.845209 235.998979 
L 408.352989 241.219669 
L 408.86077 235.09406 
L 409.36855 233.527853 
L 409.876331 239.235807 
L 410.384111 239.827485 
L 410.891892 234.571991 
L 411.399672 239.166198 
L 411.907453 239.897094 
L 412.415233 233.562657 
L 412.923014 238.052451 
L 413.430794 239.653462 
L 413.938575 239.514244 
L 414.446355 236.729876 
L 414.954136 240.071117 
L 415.461916 235.824956 
L 415.969697 235.824956 
L 416.477477 240.24514 
L 416.985258 238.12206 
L 417.493038 244.526106 
L 418.000819 239.931899 
L 418.5086 238.57452 
L 419.01638 238.50491 
L 419.524161 237.878428 
L 420.031941 239.653462 
L 420.539722 238.156864 
L 421.047502 237.112726 
L 421.555283 234.432772 
L 422.570844 241.950566 
L 423.078624 239.375025 
L 423.586405 242.785876 
L 424.601966 236.729876 
L 425.109746 236.521048 
L 426.125307 239.061784 
L 426.633088 242.05498 
L 427.648649 237.634795 
L 428.156429 238.539715 
L 428.66421 238.087255 
L 429.17199 236.416634 
L 429.679771 236.033784 
L 430.187551 238.748543 
L 430.695332 236.38183 
L 431.203112 242.263807 
L 431.710893 240.767209 
L 432.218673 238.748543 
L 432.726454 242.542244 
L 433.234234 235.337692 
L 433.742015 240.071117 
L 434.249795 239.026979 
L 434.757576 239.166198 
L 435.265356 240.24514 
L 435.773137 238.818152 
L 436.280917 238.887761 
L 436.788698 243.203531 
L 437.296478 240.767209 
L 437.804259 239.549048 
L 438.312039 237.495577 
L 438.81982 241.080451 
L 439.3276 238.330887 
L 439.835381 239.340221 
L 440.343161 242.05498 
L 441.358722 239.549048 
L 441.866503 241.498106 
L 442.374283 242.403026 
L 442.882064 237.182336 
L 443.897625 241.15006 
L 444.405405 239.40983 
L 444.913186 239.583853 
L 445.420966 240.453968 
L 445.928747 238.191669 
L 446.436527 239.096589 
L 446.944308 238.50491 
L 447.452088 240.906428 
L 447.959869 239.897094 
L 448.467649 237.321554 
L 448.97543 238.818152 
L 449.48321 237.008313 
L 449.990991 238.191669 
L 450.498771 238.191669 
L 451.006552 238.852956 
L 451.514333 240.732405 
L 452.022113 240.419163 
L 452.529894 238.678933 
L 453.037674 240.767209 
L 453.545455 240.175531 
L 454.053235 239.931899 
L 454.561016 237.077922 
L 455.068796 238.95737 
L 455.576577 239.166198 
L 456.084357 241.811347 
L 456.592138 235.511715 
L 457.099918 241.498106 
L 457.607699 238.330887 
L 458.115479 239.86229 
L 458.62326 238.50491 
L 459.13104 239.757876 
L 459.638821 239.166198 
L 460.146601 242.020175 
L 460.654382 241.15006 
L 461.162162 239.201002 
L 461.669943 237.913232 
L 462.177723 239.096589 
L 462.685504 241.98537 
L 463.193284 238.330887 
L 463.701065 240.384359 
L 464.716626 237.286749 
L 465.224406 239.757876 
L 465.732187 239.792681 
L 466.239967 241.324083 
L 466.747748 238.748543 
L 467.255528 239.549048 
L 467.763309 241.115255 
L 468.271089 241.428497 
L 468.77887 238.713738 
L 469.28665 243.481968 
L 469.794431 238.748543 
L 470.302211 241.811347 
L 470.809992 243.34275 
L 471.317772 240.523577 
L 471.825553 239.931899 
L 472.841114 241.811347 
L 473.348894 239.618658 
L 473.856675 238.818152 
L 474.364455 240.558382 
L 474.872236 239.096589 
L 475.380016 241.184865 
L 476.395577 236.83429 
L 476.903358 241.915761 
L 477.411138 239.688267 
L 477.918919 238.017646 
L 478.426699 239.061784 
L 478.93448 240.802014 
L 479.44226 241.289278 
L 479.950041 242.020175 
L 480.965602 238.57452 
L 481.473382 237.530382 
L 481.981163 239.131393 
L 482.488943 243.203531 
L 482.996724 239.270612 
L 483.504505 239.653462 
L 484.012285 239.40983 
L 484.520066 240.906428 
L 485.027846 239.792681 
L 485.535627 238.95737 
L 486.043407 237.634795 
L 486.551188 242.577049 
L 487.058968 242.89029 
L 487.566749 242.020175 
L 488.074529 240.523577 
L 488.58231 240.071117 
L 489.09009 238.365692 
L 489.597871 243.899623 
L 490.105651 236.068588 
L 490.613432 238.156864 
L 491.121212 237.008313 
L 491.628993 239.444635 
L 492.136773 239.340221 
L 492.644554 239.444635 
L 493.152334 242.333416 
L 494.167895 237.774014 
L 494.675676 242.05498 
L 495.691237 239.86229 
L 496.199017 237.634795 
L 496.706798 240.279945 
L 497.214578 239.340221 
L 497.722359 241.776543 
L 498.230139 235.09406 
L 498.73792 239.897094 
L 499.2457 239.966704 
L 499.753481 243.168727 
L 500.261261 241.15006 
L 500.769042 236.625462 
L 501.276822 238.191669 
L 501.784603 240.871623 
L 502.292383 239.479439 
L 502.800164 238.992175 
L 503.307944 240.976037 
L 503.815725 240.523577 
L 504.323505 241.080451 
L 504.831286 238.713738 
L 505.339066 238.12206 
L 506.354627 241.010842 
L 506.862408 243.516773 
L 507.370188 239.931899 
L 507.877969 238.330887 
L 508.385749 237.21714 
L 508.89353 237.6696 
L 509.40131 240.802014 
L 509.909091 240.523577 
L 510.416871 238.50491 
L 510.924652 243.481968 
L 511.432432 240.488773 
L 512.447993 239.340221 
L 512.955774 235.92937 
L 513.463554 240.941232 
L 513.971335 241.776543 
L 514.479115 241.706934 
L 515.494676 239.235807 
L 516.002457 240.31475 
L 517.018018 238.017646 
L 517.525799 237.599991 
L 518.033579 240.210336 
L 518.54136 240.732405 
L 519.04914 245.91829 
L 519.556921 239.618658 
L 520.572482 243.447164 
L 521.080262 239.340221 
L 522.095823 241.289278 
L 523.111384 239.444635 
L 523.619165 242.785876 
L 524.634726 238.296083 
L 525.142506 240.523577 
L 525.650287 240.627991 
L 526.158067 241.358888 
L 526.665848 239.792681 
L 527.173628 238.748543 
L 527.681409 242.089784 
L 528.189189 239.375025 
L 529.20475 241.428497 
L 529.712531 238.156864 
L 530.220311 241.254474 
L 530.728092 240.662796 
L 531.235872 240.871623 
L 531.743653 236.625462 
L 532.251433 238.922566 
L 532.759214 247.20606 
L 533.266994 243.133922 
L 533.774775 236.590657 
L 534.282555 244.247669 
L 534.790336 240.732405 
L 535.298116 241.741738 
L 535.805897 245.46583 
L 536.313677 240.279945 
L 536.821458 240.001508 
L 537.329238 238.330887 
L 537.837019 241.846152 
L 538.344799 241.080451 
L 538.85258 240.941232 
L 539.36036 239.026979 
L 539.868141 240.627991 
L 540.883702 238.470106 
L 541.391482 239.026979 
L 541.899263 241.463301 
L 542.407043 239.340221 
L 542.914824 239.201002 
L 543.422604 242.020175 
L 543.930385 239.514244 
L 544.438165 239.653462 
L 544.945946 238.95737 
L 545.453726 240.941232 
L 545.961507 238.95737 
L 546.469287 240.6976 
L 546.977068 241.567715 
L 547.484848 242.89029 
L 547.992629 241.428497 
L 548.50041 238.400497 
L 549.00819 239.026979 
L 549.515971 243.029508 
L 550.023751 245.048175 
L 550.531532 241.080451 
L 551.039312 240.627991 
L 551.547093 241.219669 
L 552.054873 238.12206 
L 552.562654 239.583853 
L 553.070434 238.539715 
L 553.578215 241.115255 
L 554.085995 238.644129 
L 554.593776 242.716267 
L 555.101556 238.887761 
L 555.609337 241.254474 
L 556.117117 241.254474 
L 556.624898 239.583853 
L 557.132678 241.115255 
L 557.640459 239.270612 
L 558.148239 235.337692 
L 558.65602 239.514244 
L 559.1638 238.644129 
L 559.671581 239.966704 
L 560.179361 239.375025 
L 560.687142 239.549048 
L 561.194922 240.906428 
L 561.702703 239.061784 
L 562.210483 240.941232 
L 562.718264 241.672129 
L 563.226044 243.168727 
L 563.733825 240.488773 
L 564.241605 241.98537 
L 564.749386 238.052451 
L 565.257166 242.577049 
L 565.764947 240.488773 
L 566.272727 235.859761 
L 566.780508 243.377554 
L 567.796069 237.425968 
L 568.303849 242.716267 
L 568.81163 239.444635 
L 569.31941 240.662796 
L 569.827191 239.86229 
L 570.334971 239.618658 
L 570.842752 239.618658 
L 571.350532 241.324083 
L 571.858313 240.001508 
L 572.366093 239.340221 
L 572.873874 241.15006 
L 573.381654 242.159393 
L 573.889435 237.878428 
L 574.397215 239.166198 
L 574.904996 241.289278 
L 575.412776 239.583853 
L 575.920557 242.855485 
L 576.428337 238.12206 
L 577.443898 238.922566 
L 577.951679 241.672129 
L 578.459459 243.168727 
L 578.96724 239.583853 
L 579.47502 241.15006 
L 579.982801 242.333416 
L 580.490581 242.646658 
L 580.998362 239.026979 
L 581.506143 241.184865 
L 582.013923 241.045646 
L 582.521704 241.184865 
L 583.029484 239.618658 
L 584.045045 241.532911 
L 584.552826 239.723071 
L 585.060606 238.713738 
L 585.568387 242.472635 
L 586.076167 239.86229 
L 586.583948 241.115255 
L 587.599509 241.010842 
L 588.61507 243.516773 
L 589.12285 241.080451 
L 589.630631 240.627991 
L 590.138411 242.020175 
L 590.646192 240.001508 
L 591.153972 242.925095 
L 591.661753 236.207807 
L 592.169533 244.63052 
L 592.677314 238.470106 
L 593.185094 238.887761 
L 593.692875 242.298612 
L 594.200655 241.219669 
L 594.708436 243.7256 
L 595.216216 239.723071 
L 595.723997 237.495577 
L 596.231777 238.57452 
L 596.739558 237.982841 
L 597.247338 241.60252 
L 597.755119 242.159393 
L 598.262899 241.950566 
L 598.77068 240.836819 
L 599.27846 240.24514 
L 599.786241 241.010842 
L 600.294021 238.609324 
L 600.801802 242.751072 
L 601.309582 238.435301 
L 601.817363 241.428497 
L 602.325143 238.95737 
L 603.340704 245.953095 
L 603.848485 241.115255 
L 604.356265 239.096589 
L 604.864046 244.386888 
L 605.371826 241.045646 
L 605.879607 241.567715 
L 606.387387 243.655991 
L 606.895168 239.026979 
L 607.402948 241.358888 
L 607.910729 242.542244 
L 608.418509 238.470106 
L 608.92629 244.108451 
L 609.43407 241.880957 
L 609.941851 241.637324 
L 610.449631 238.330887 
L 610.957412 240.31475 
L 611.465192 241.741738 
L 611.972973 241.428497 
L 612.480753 240.836819 
L 612.988534 241.254474 
L 613.496314 239.340221 
L 614.004095 238.470106 
L 614.511876 239.792681 
L 615.019656 241.950566 
L 615.527437 242.43783 
L 616.035217 241.706934 
L 616.542998 238.330887 
L 617.050778 240.906428 
L 617.558559 242.577049 
L 618.066339 239.86229 
L 618.57412 239.235807 
L 619.0819 239.096589 
L 619.589681 238.678933 
L 620.097461 244.282474 
L 620.605242 242.542244 
L 621.113022 240.31475 
L 621.620803 240.384359 
L 622.128583 238.748543 
L 622.636364 243.481968 
L 622.636364 243.481968 
" clip-path="url(#p6fad737ecc)" style="fill: none; stroke: #ff7f0e; stroke-width: 1.5; stroke-linecap: square"/>
   </g>
   <g id="line2d_14">
    <path d="M 115.363636 346.425019 
L 117.394758 346.533784 
L 117.902539 346.699401 
L 118.410319 347.086623 
L 119.933661 347.65516 
L 121.964783 349.795106 
L 123.995905 351.150438 
L 127.042588 352.563584 
L 134.151515 354.714072 
L 135.674857 355.07366 
L 138.72154 355.737234 
L 141.260442 356.19435 
L 143.799345 356.664093 
L 144.814906 356.857772 
L 146.846028 357.18435 
L 148.369369 357.441338 
L 155.986077 358.490652 
L 157.509419 358.709082 
L 160.556102 359.05868 
L 167.157248 359.742119 
L 169.18837 359.917695 
L 172.742834 360.252743 
L 187.976249 361.359776 
L 190.515152 361.507358 
L 191.530713 361.574276 
L 193.054054 361.673125 
L 198.131859 361.956321 
L 199.14742 362.017427 
L 201.178542 362.12815 
L 204.225225 362.319304 
L 214.888616 362.864925 
L 216.411957 362.956856 
L 223.013104 363.245422 
L 264.143325 364.84104 
L 266.174447 364.878075 
L 267.190008 364.977215 
L 270.236691 365.00842 
L 270.744472 365.097312 
L 271.760033 365.092589 
L 274.298935 365.158496 
L 276.837838 365.247861 
L 279.37674 365.346512 
L 284.962326 365.476935 
L 285.977887 365.525979 
L 288.51679 365.568543 
L 291.563473 365.644997 
L 295.625717 365.748428 
L 297.149058 365.820326 
L 300.195741 365.891592 
L 300.703522 365.855097 
L 301.211302 366.004919 
L 301.719083 365.897993 
L 307.304668 366.076732 
L 309.843571 366.102744 
L 315.429156 366.251227 
L 316.444717 366.273901 
L 318.475839 366.313044 
L 319.999181 366.368764 
L 321.014742 366.315543 
L 322.030303 366.409577 
L 324.569206 366.430089 
L 326.092547 366.479862 
L 327.108108 366.476017 
L 328.123669 366.526799 
L 329.647011 366.530781 
L 332.693694 366.612042 
L 408.352989 367.765297 
L 409.876331 367.817755 
L 478.93448 368.459165 
L 479.44226 368.435238 
L 479.950041 368.528256 
L 482.996724 368.479158 
L 485.535627 368.556773 
L 504.831286 368.688788 
L 505.339066 368.753712 
L 505.846847 368.666881 
L 506.862408 368.737402 
L 507.877969 368.712786 
L 516.510238 368.75926 
L 518.54136 368.824225 
L 519.556921 368.787219 
L 530.728092 368.882434 
L 533.774775 368.899063 
L 535.805897 368.872484 
L 536.313677 368.933734 
L 537.837019 368.865294 
L 540.883702 368.969917 
L 541.899263 368.900054 
L 547.992629 368.977266 
L 571.858313 369.084014 
L 572.873874 369.091793 
L 574.904996 369.119117 
L 576.936118 369.158192 
L 578.96724 369.116899 
L 582.013923 369.139638 
L 591.661753 369.193606 
L 595.723997 369.191118 
L 596.231777 369.280885 
L 596.739558 369.183341 
L 597.755119 369.233946 
L 599.27846 369.24055 
L 604.864046 369.213452 
L 605.879607 369.253933 
L 608.418509 369.295686 
L 611.465192 369.238757 
L 615.019656 369.325256 
L 616.542998 369.305328 
L 620.097461 369.340969 
L 622.636364 369.314459 
L 622.636364 369.314459 
" clip-path="url(#p6fad737ecc)" style="fill: none; stroke: #2ca02c; stroke-width: 1.5; stroke-linecap: square"/>
   </g>
   <g id="line2d_15">
    <path d="M 115.363636 346.330383 
L 116.886978 346.376725 
L 117.394758 346.488221 
L 118.410319 347.026858 
L 118.9181 346.944683 
L 119.42588 347.00491 
L 119.933661 346.573879 
L 120.441441 347.127822 
L 120.949222 348.421537 
L 123.488124 350.456523 
L 123.995905 350.622408 
L 124.503686 350.662347 
L 125.011466 351.118924 
L 125.519247 351.168306 
L 126.534808 351.612764 
L 127.042588 351.579049 
L 127.550369 352.087587 
L 128.058149 351.910877 
L 128.56593 352.281358 
L 129.07371 352.380083 
L 129.581491 352.018259 
L 130.089271 352.839509 
L 131.104832 352.788063 
L 131.612613 352.955383 
L 132.120393 353.410014 
L 132.628174 352.907681 
L 134.151515 353.827286 
L 134.659296 353.780951 
L 135.167076 353.877073 
L 136.690418 353.768842 
L 137.198198 354.123662 
L 137.705979 354.17927 
L 138.213759 354.4662 
L 139.22932 354.236013 
L 139.737101 354.516525 
L 140.244881 354.279301 
L 140.752662 354.421428 
L 141.260442 354.721373 
L 141.768223 354.59071 
L 142.276003 355.125706 
L 142.783784 355.255466 
L 143.291564 354.639876 
L 143.799345 355.260971 
L 144.307125 355.344826 
L 144.814906 355.176136 
L 145.322686 355.246259 
L 145.830467 355.634976 
L 146.338247 355.788652 
L 146.846028 355.28221 
L 147.353808 355.896176 
L 147.861589 355.761494 
L 148.369369 356.054702 
L 149.38493 355.909542 
L 149.892711 356.314767 
L 150.400491 356.035403 
L 150.908272 356.190241 
L 151.416052 355.530167 
L 151.923833 356.379379 
L 152.431613 356.555032 
L 152.939394 356.472348 
L 153.447174 356.53777 
L 154.462735 357.020858 
L 154.970516 356.314642 
L 155.478296 356.984784 
L 155.986077 356.631334 
L 156.493857 357.142874 
L 158.017199 356.901897 
L 158.52498 357.38675 
L 159.03276 356.944454 
L 160.048321 357.377887 
L 161.063882 357.330086 
L 161.571663 357.487327 
L 163.095004 357.300039 
L 163.602785 357.655519 
L 164.110565 357.786846 
L 164.618346 357.496292 
L 165.633907 357.630366 
L 166.141687 357.345113 
L 166.649468 357.73326 
L 167.665029 357.328943 
L 168.172809 357.780015 
L 168.68059 357.542059 
L 170.203931 358.003956 
L 170.711712 357.318714 
L 171.219492 358.171249 
L 171.727273 357.836746 
L 172.742834 358.137368 
L 173.250614 358.102759 
L 173.758395 358.43492 
L 174.266175 357.798055 
L 175.281736 358.136282 
L 175.789517 358.044093 
L 176.297297 358.365543 
L 176.805078 358.002388 
L 177.820639 358.231579 
L 178.328419 358.124147 
L 178.8362 358.30903 
L 179.34398 358.139921 
L 179.851761 358.096966 
L 180.359541 358.355616 
L 180.867322 358.331823 
L 181.375102 357.963003 
L 181.882883 358.304445 
L 182.390663 358.461513 
L 183.406224 358.501501 
L 183.914005 358.272103 
L 184.421785 358.504354 
L 184.929566 358.3148 
L 185.437346 358.652958 
L 185.945127 358.422742 
L 186.452907 358.660006 
L 186.960688 358.53243 
L 187.468468 358.277853 
L 188.484029 358.511787 
L 188.99181 358.658799 
L 189.49959 358.623348 
L 190.007371 358.221271 
L 190.515152 358.669473 
L 191.022932 358.023313 
L 191.530713 358.629586 
L 192.038493 358.234272 
L 192.546274 358.213369 
L 193.054054 358.729889 
L 194.069615 358.348326 
L 194.577396 358.658991 
L 195.592957 358.438029 
L 196.100737 358.470644 
L 196.608518 358.385844 
L 197.116298 358.562578 
L 197.624079 358.570704 
L 198.131859 358.214789 
L 198.63964 357.535813 
L 199.14742 358.429335 
L 199.655201 358.490501 
L 200.670762 358.329157 
L 201.178542 358.567135 
L 201.686323 358.268004 
L 202.701884 358.457308 
L 203.209664 358.232656 
L 203.717445 358.337378 
L 205.240786 358.207377 
L 205.748567 358.678992 
L 206.256347 358.540767 
L 206.764128 358.76088 
L 207.271908 358.558685 
L 207.779689 358.573272 
L 208.287469 358.4043 
L 208.79525 358.509605 
L 209.30303 358.404961 
L 210.318591 358.598251 
L 210.826372 358.603274 
L 211.334152 358.495876 
L 211.841933 358.75612 
L 212.349713 358.52285 
L 212.857494 358.149304 
L 213.365274 358.54202 
L 213.873055 358.537115 
L 214.380835 358.324915 
L 214.888616 358.373905 
L 215.396396 357.934566 
L 215.904177 358.379324 
L 216.411957 358.621177 
L 216.919738 358.554908 
L 217.427518 358.064842 
L 217.935299 358.315717 
L 218.95086 358.566011 
L 219.45864 358.278302 
L 219.966421 358.54408 
L 220.474201 358.323774 
L 220.981982 358.248583 
L 221.997543 358.567728 
L 222.505324 358.262094 
L 223.013104 358.38586 
L 223.520885 358.175752 
L 224.028665 358.450496 
L 225.044226 358.186423 
L 225.552007 357.92476 
L 226.059787 358.323494 
L 226.567568 357.917312 
L 227.075348 358.277636 
L 228.090909 358.322525 
L 228.59869 358.037446 
L 229.10647 358.036447 
L 229.614251 358.476045 
L 230.629812 358.201662 
L 232.660934 358.20419 
L 233.168714 357.88551 
L 233.676495 358.318815 
L 234.184275 358.328104 
L 234.692056 358.107957 
L 236.215397 358.108503 
L 236.723178 358.139999 
L 237.230958 358.00033 
L 237.738739 358.509966 
L 238.246519 358.07737 
L 238.7543 358.250365 
L 239.26208 358.111436 
L 239.769861 358.321551 
L 240.277641 357.841535 
L 240.785422 358.215235 
L 241.293202 358.124963 
L 241.800983 358.288368 
L 242.308763 358.069482 
L 243.324324 357.996066 
L 244.339885 357.754938 
L 244.847666 357.96467 
L 245.355446 357.949746 
L 246.371007 358.211353 
L 247.386568 357.718481 
L 247.894349 357.816476 
L 248.402129 357.784871 
L 248.90991 358.080116 
L 249.41769 357.740725 
L 250.433251 357.816325 
L 250.941032 357.649522 
L 251.448812 357.847966 
L 251.956593 357.777883 
L 252.464373 357.873808 
L 252.972154 357.772847 
L 253.987715 357.942233 
L 255.003276 357.442564 
L 256.018837 357.689468 
L 256.526618 358.063026 
L 257.034398 357.565614 
L 257.542179 358.096449 
L 258.049959 357.764701 
L 259.573301 357.176904 
L 260.081081 358.090997 
L 260.588862 357.658938 
L 261.096642 357.936442 
L 261.604423 357.526637 
L 262.112203 358.321286 
L 262.619984 357.746266 
L 263.127764 357.489527 
L 263.635545 357.572813 
L 264.651106 357.210049 
L 265.158886 357.079013 
L 265.666667 357.493215 
L 266.682228 357.492241 
L 267.190008 357.261648 
L 267.697789 357.42182 
L 268.71335 357.41399 
L 269.22113 357.328765 
L 269.728911 357.46857 
L 271.252252 356.977212 
L 271.760033 357.657296 
L 272.267813 356.975802 
L 273.283374 357.219864 
L 274.298935 356.697802 
L 274.806716 356.967879 
L 275.314496 356.93794 
L 276.330057 357.189227 
L 276.837838 356.869106 
L 277.345618 357.191148 
L 278.361179 356.890848 
L 278.86896 357.06139 
L 279.37674 356.775375 
L 279.884521 356.904415 
L 280.392301 357.193343 
L 280.900082 356.704137 
L 281.407862 357.084186 
L 281.915643 356.494664 
L 282.423423 357.029236 
L 282.931204 356.925486 
L 283.438984 356.479937 
L 283.946765 357.000421 
L 284.454545 357.224166 
L 284.962326 356.664814 
L 285.470106 356.977188 
L 285.977887 356.479772 
L 286.485667 356.781455 
L 287.501229 356.450251 
L 288.009009 356.45627 
L 288.51679 355.995215 
L 289.02457 356.544608 
L 289.532351 356.821764 
L 290.040131 356.27071 
L 291.055692 357.035918 
L 291.563473 356.704125 
L 292.579034 357.054741 
L 293.594595 356.483089 
L 294.102375 356.600349 
L 294.610156 356.562833 
L 295.117936 356.790585 
L 295.625717 355.930602 
L 296.133497 356.726437 
L 296.641278 356.907545 
L 297.149058 356.440295 
L 297.656839 356.816966 
L 298.164619 356.519105 
L 298.6724 356.747178 
L 299.687961 356.242577 
L 300.195741 356.42788 
L 300.703522 356.40694 
L 301.211302 356.205357 
L 301.719083 356.357891 
L 302.226863 356.127421 
L 302.734644 356.366965 
L 303.242424 356.167791 
L 304.765766 356.245495 
L 305.273546 356.098945 
L 305.781327 356.22631 
L 306.289107 356.531535 
L 306.796888 356.305267 
L 307.304668 356.311741 
L 307.812449 356.542527 
L 308.320229 355.795067 
L 308.82801 356.370797 
L 309.33579 356.118853 
L 309.843571 356.516515 
L 310.351351 356.565142 
L 311.366912 356.189673 
L 311.874693 356.015119 
L 312.382473 356.241931 
L 312.890254 355.747897 
L 313.398034 355.931696 
L 313.905815 356.611904 
L 314.413595 356.151334 
L 315.429156 355.95325 
L 315.936937 355.88798 
L 316.444717 356.085676 
L 316.952498 356.082852 
L 317.460278 355.759299 
L 317.968059 355.925145 
L 318.475839 355.938808 
L 318.98362 355.653275 
L 319.4914 356.000467 
L 319.999181 355.748302 
L 320.506962 356.0515 
L 321.014742 355.715205 
L 321.522523 356.059058 
L 322.030303 355.826029 
L 322.538084 355.962143 
L 323.045864 355.818762 
L 323.553645 355.825846 
L 324.061425 355.440539 
L 324.569206 356.420844 
L 325.076986 355.726934 
L 325.584767 355.385139 
L 326.092547 356.086797 
L 327.108108 355.834118 
L 327.615889 356.050486 
L 328.123669 355.835436 
L 328.63145 355.176214 
L 329.13923 355.696306 
L 330.154791 355.675056 
L 330.662572 355.960041 
L 331.170352 354.971278 
L 331.678133 355.34098 
L 332.185913 355.372596 
L 332.693694 356.282531 
L 333.201474 355.818718 
L 335.232596 355.339244 
L 337.771499 355.992704 
L 338.279279 355.410152 
L 338.78706 355.460282 
L 339.29484 355.714126 
L 339.802621 355.274094 
L 340.310401 355.67442 
L 340.818182 355.249318 
L 341.833743 355.297971 
L 342.849304 355.244837 
L 343.357084 355.492902 
L 343.864865 355.283583 
L 344.372645 355.357373 
L 344.880426 354.451784 
L 345.388206 355.165245 
L 346.403767 355.296485 
L 347.419328 354.869225 
L 347.927109 354.958818 
L 348.434889 355.173973 
L 348.94267 355.604019 
L 349.45045 355.309859 
L 349.958231 355.192345 
L 350.466011 354.898338 
L 350.973792 355.226173 
L 351.481572 355.0825 
L 351.989353 355.338042 
L 352.497133 355.28121 
L 353.512695 354.744826 
L 354.020475 354.68841 
L 355.036036 354.931051 
L 356.051597 354.713065 
L 357.067158 355.315695 
L 357.574939 355.03112 
L 358.082719 354.228298 
L 358.5905 354.82464 
L 359.09828 355.037646 
L 360.113841 355.294969 
L 360.621622 355.049032 
L 361.129402 354.963213 
L 362.144963 354.569457 
L 362.652744 355.187457 
L 363.160524 354.748546 
L 363.668305 355.103638 
L 364.176085 354.956412 
L 364.683866 354.614467 
L 365.191646 354.09044 
L 366.207207 354.196468 
L 366.714988 355.151554 
L 367.222768 354.963643 
L 367.730549 354.447766 
L 368.238329 354.174821 
L 369.25389 355.235581 
L 369.761671 354.866106 
L 370.269451 354.903875 
L 370.777232 354.706107 
L 371.285012 354.973505 
L 371.792793 354.63644 
L 372.300573 354.991417 
L 372.808354 354.465181 
L 373.316134 354.973136 
L 373.823915 354.839135 
L 374.331695 353.91214 
L 374.839476 354.619479 
L 375.347256 354.18849 
L 375.855037 354.509209 
L 376.870598 354.627476 
L 377.378378 354.431667 
L 377.886159 355.22667 
L 378.393939 354.278999 
L 378.90172 354.450975 
L 379.917281 354.621172 
L 380.425061 354.868586 
L 380.932842 354.576456 
L 381.440622 354.584955 
L 381.948403 354.386047 
L 382.456183 354.610356 
L 383.471744 354.123599 
L 383.979525 354.592984 
L 384.487305 353.677756 
L 384.995086 354.568456 
L 385.502867 354.177349 
L 386.010647 354.423723 
L 386.518428 354.470166 
L 387.026208 354.119653 
L 387.533989 354.230051 
L 388.041769 354.064627 
L 388.54955 354.359701 
L 389.05733 354.249578 
L 390.072891 354.496773 
L 390.580672 353.830723 
L 391.088452 354.712635 
L 391.596233 354.340816 
L 392.104013 354.178129 
L 392.611794 354.393906 
L 393.119574 354.124859 
L 393.627355 354.0401 
L 394.135135 354.119926 
L 394.642916 353.56599 
L 395.150696 354.411393 
L 395.658477 354.462936 
L 396.166257 354.080708 
L 396.674038 354.166083 
L 397.181818 353.543218 
L 397.689599 353.892504 
L 398.70516 354.28119 
L 399.21294 353.660344 
L 399.720721 353.785378 
L 400.228501 354.354946 
L 400.736282 354.153184 
L 401.244062 354.486615 
L 401.751843 353.636759 
L 402.259623 353.928503 
L 402.767404 353.994005 
L 403.275184 353.447942 
L 403.782965 353.699244 
L 404.290745 354.25718 
L 404.798526 354.459662 
L 406.321867 353.433633 
L 406.829648 353.736429 
L 407.337428 353.474871 
L 407.845209 354.052065 
L 408.352989 353.292228 
L 408.86077 354.045854 
L 409.36855 354.287215 
L 410.384111 353.579559 
L 410.891892 354.214963 
L 411.399672 353.491961 
L 411.907453 353.534654 
L 412.415233 354.002769 
L 412.923014 353.636745 
L 413.430794 353.555236 
L 413.938575 353.701836 
L 414.446355 353.684294 
L 414.954136 353.432052 
L 415.461916 354.089747 
L 415.969697 354.004132 
L 416.477477 353.651038 
L 416.985258 353.862502 
L 417.493038 352.9105 
L 418.000819 354.02201 
L 418.5086 353.466256 
L 419.01638 353.917387 
L 419.524161 353.457351 
L 420.031941 353.695828 
L 420.539722 353.753852 
L 421.555283 353.634374 
L 422.063063 353.86421 
L 422.570844 353.291298 
L 423.078624 353.581467 
L 423.586405 353.619849 
L 424.094185 353.258602 
L 424.601966 353.687116 
L 425.109746 353.59184 
L 425.617527 353.674638 
L 426.125307 353.157754 
L 426.633088 353.020646 
L 427.140868 353.719045 
L 427.648649 353.504072 
L 428.156429 353.140039 
L 428.66421 353.170126 
L 429.17199 353.72637 
L 429.679771 353.664184 
L 430.187551 353.372692 
L 430.695332 353.806444 
L 431.203112 353.36436 
L 431.710893 353.617602 
L 432.218673 353.603073 
L 432.726454 353.272541 
L 433.234234 353.356911 
L 433.742015 353.018536 
L 434.249795 353.528291 
L 434.757576 353.450351 
L 435.265356 354.072868 
L 435.773137 353.286472 
L 436.280917 353.805343 
L 436.788698 352.472545 
L 437.296478 353.070588 
L 437.804259 353.051034 
L 438.312039 353.433875 
L 439.3276 352.813354 
L 439.835381 353.559379 
L 440.343161 353.430683 
L 440.850942 353.555259 
L 441.358722 352.768175 
L 441.866503 352.988269 
L 442.374283 352.465722 
L 442.882064 353.687657 
L 443.389844 353.170329 
L 443.897625 353.557499 
L 444.405405 353.38569 
L 445.420966 353.431576 
L 445.928747 353.154539 
L 446.944308 353.671823 
L 447.959869 353.078002 
L 448.467649 353.545989 
L 448.97543 353.071542 
L 449.48321 353.642465 
L 449.990991 353.600617 
L 450.498771 352.813238 
L 451.006552 353.451236 
L 451.514333 352.843061 
L 452.022113 353.060962 
L 452.529894 353.017443 
L 453.037674 352.758497 
L 453.545455 353.097854 
L 454.053235 353.08741 
L 454.561016 353.626017 
L 455.068796 353.286126 
L 456.084357 352.992207 
L 456.592138 353.755918 
L 457.099918 352.734235 
L 457.607699 353.003229 
L 458.115479 352.943439 
L 458.62326 353.338511 
L 459.13104 352.883159 
L 459.638821 352.762473 
L 460.146601 352.985974 
L 460.654382 353.37884 
L 461.162162 352.85435 
L 461.669943 353.259202 
L 462.177723 352.616524 
L 462.685504 352.524184 
L 463.193284 353.045335 
L 464.208845 352.633401 
L 464.716626 353.11583 
L 465.224406 352.65755 
L 465.732187 352.848396 
L 466.239967 352.758691 
L 466.747748 353.425278 
L 467.255528 353.526157 
L 467.763309 353.006342 
L 468.271089 352.914568 
L 468.77887 353.358502 
L 470.302211 352.243739 
L 471.317772 352.744487 
L 472.841114 352.767957 
L 473.856675 352.915241 
L 474.364455 352.445287 
L 474.872236 352.871507 
L 475.380016 352.412938 
L 476.395577 352.986906 
L 476.903358 352.532611 
L 477.411138 352.770041 
L 477.918919 352.780183 
L 478.93448 352.588779 
L 479.44226 352.654514 
L 479.950041 352.997311 
L 480.457821 352.880079 
L 480.965602 352.325438 
L 481.473382 352.71541 
L 481.981163 352.452568 
L 482.488943 351.774568 
L 483.504505 352.91191 
L 484.012285 352.420485 
L 484.520066 352.300805 
L 485.027846 352.928218 
L 485.535627 352.829754 
L 486.043407 353.055638 
L 486.551188 352.203553 
L 487.058968 352.410668 
L 487.566749 351.903329 
L 488.074529 352.101641 
L 488.58231 353.057422 
L 489.09009 352.557513 
L 489.597871 352.315846 
L 490.613432 352.654035 
L 491.121212 353.313596 
L 491.628993 352.760742 
L 492.136773 352.95737 
L 492.644554 352.321383 
L 493.152334 352.692852 
L 493.660115 352.680928 
L 494.167895 353.054881 
L 494.675676 352.369382 
L 495.183456 352.762827 
L 495.691237 352.837507 
L 496.199017 352.429308 
L 496.706798 352.820973 
L 497.214578 351.874948 
L 498.230139 352.521105 
L 498.73792 352.684647 
L 499.2457 352.702685 
L 499.753481 351.693756 
L 500.261261 352.571125 
L 500.769042 352.349682 
L 501.276822 352.518754 
L 502.292383 352.221665 
L 502.800164 352.355469 
L 503.307944 352.125293 
L 503.815725 352.05039 
L 504.323505 351.734179 
L 504.831286 352.397104 
L 505.846847 352.911974 
L 506.354627 352.628653 
L 506.862408 351.810654 
L 507.370188 352.2674 
L 507.877969 352.272496 
L 508.385749 352.838879 
L 509.40131 352.401048 
L 509.909091 352.424976 
L 510.416871 352.650412 
L 510.924652 351.079708 
L 511.432432 352.138224 
L 511.940213 352.743307 
L 512.447993 352.492797 
L 512.955774 352.391106 
L 513.463554 352.4872 
L 513.971335 352.183418 
L 514.479115 352.033618 
L 514.986896 352.086379 
L 515.494676 352.473656 
L 516.002457 352.041408 
L 516.510238 351.890926 
L 517.018018 352.28959 
L 518.033579 352.300077 
L 518.54136 352.032105 
L 519.04914 351.525973 
L 519.556921 352.481891 
L 520.064701 351.883791 
L 520.572482 351.902793 
L 521.080262 352.157858 
L 521.588043 351.55035 
L 522.095823 351.771742 
L 522.603604 352.621688 
L 523.111384 351.807186 
L 523.619165 351.789978 
L 524.126945 352.328865 
L 524.634726 352.607378 
L 525.142506 351.998634 
L 525.650287 351.835035 
L 526.158067 351.889893 
L 526.665848 352.162734 
L 528.189189 352.260445 
L 528.69697 351.909313 
L 529.20475 351.865575 
L 529.712531 352.37189 
L 530.220311 352.015938 
L 530.728092 351.905267 
L 531.235872 352.15723 
L 531.743653 352.251157 
L 532.251433 352.009259 
L 532.759214 350.816221 
L 533.266994 352.142425 
L 533.774775 352.844324 
L 534.282555 351.049079 
L 534.790336 351.88092 
L 535.298116 351.789118 
L 535.805897 351.095816 
L 536.313677 351.948512 
L 537.329238 351.927351 
L 537.837019 351.754537 
L 538.85258 351.715659 
L 539.36036 352.001582 
L 539.868141 351.367169 
L 540.883702 351.542101 
L 541.391482 351.405271 
L 541.899263 351.447029 
L 542.407043 352.155663 
L 542.914824 352.335533 
L 543.422604 351.748023 
L 543.930385 352.206503 
L 544.438165 351.542554 
L 544.945946 351.976341 
L 545.453726 352.022768 
L 545.961507 352.302718 
L 546.469287 351.567784 
L 546.977068 352.036299 
L 547.484848 351.475832 
L 547.992629 351.755325 
L 548.50041 352.278001 
L 549.00819 352.011356 
L 549.515971 351.108712 
L 550.023751 351.759082 
L 550.531532 351.919207 
L 551.039312 351.673888 
L 551.547093 352.058586 
L 552.054873 352.058903 
L 552.562654 351.688904 
L 553.070434 352.037742 
L 553.578215 351.183222 
L 554.085995 351.969014 
L 554.593776 351.216544 
L 555.101556 352.266144 
L 555.609337 351.439181 
L 556.117117 351.380649 
L 556.624898 351.462533 
L 557.132678 351.284072 
L 557.640459 351.731591 
L 558.148239 352.41452 
L 558.65602 351.609086 
L 559.1638 351.555289 
L 559.671581 351.322095 
L 560.179361 351.81568 
L 561.702703 351.757774 
L 562.210483 351.636288 
L 562.718264 350.797832 
L 563.733825 351.757096 
L 564.241605 351.541596 
L 564.749386 351.894495 
L 565.257166 351.396953 
L 565.764947 351.515003 
L 566.272727 352.112848 
L 566.780508 351.53256 
L 567.796069 352.227389 
L 568.303849 351.026832 
L 568.81163 351.331018 
L 569.31941 351.816298 
L 569.827191 351.388635 
L 570.334971 352.216237 
L 570.842752 351.538398 
L 571.350532 351.684321 
L 571.858313 351.652937 
L 572.873874 351.249647 
L 573.381654 351.636152 
L 573.889435 351.494909 
L 574.397215 352.461711 
L 574.904996 351.221493 
L 575.412776 351.796086 
L 575.920557 351.726765 
L 576.936118 351.918488 
L 577.951679 351.725653 
L 578.459459 351.334107 
L 578.96724 351.12001 
L 579.47502 351.725883 
L 579.982801 351.851653 
L 580.490581 350.826768 
L 580.998362 351.673181 
L 581.506143 351.034834 
L 582.013923 351.568207 
L 582.521704 351.914206 
L 583.029484 351.084453 
L 583.537265 350.839617 
L 584.045045 350.986197 
L 585.060606 351.934808 
L 585.568387 351.168914 
L 586.076167 351.371055 
L 586.583948 351.305794 
L 587.599509 350.581623 
L 588.107289 350.802867 
L 588.61507 351.758462 
L 589.12285 351.802617 
L 589.630631 351.629161 
L 590.138411 351.768577 
L 590.646192 351.727407 
L 591.153972 351.043712 
L 591.661753 352.041326 
L 592.169533 351.399528 
L 592.677314 351.539375 
L 593.692875 351.300897 
L 594.200655 351.249849 
L 594.708436 351.554751 
L 595.216216 351.199879 
L 595.723997 351.411749 
L 596.231777 351.429592 
L 596.739558 352.021144 
L 597.247338 351.756803 
L 597.755119 350.808189 
L 598.77068 351.476403 
L 599.27846 351.315401 
L 599.786241 350.727425 
L 600.294021 351.477861 
L 600.801802 350.633946 
L 601.309582 351.249901 
L 602.325143 351.60798 
L 603.340704 350.110228 
L 603.848485 351.642436 
L 604.356265 350.786831 
L 604.864046 350.711412 
L 605.371826 350.379891 
L 605.879607 351.115137 
L 606.387387 350.599003 
L 606.895168 351.070643 
L 607.402948 350.528149 
L 607.910729 350.442313 
L 608.418509 351.568879 
L 608.92629 350.525966 
L 609.43407 350.834019 
L 610.449631 351.062397 
L 610.957412 351.11924 
L 611.465192 350.965934 
L 611.972973 351.261743 
L 612.480753 351.270792 
L 612.988534 350.911109 
L 613.496314 351.131281 
L 614.004095 351.533748 
L 614.511876 351.272164 
L 615.019656 350.576238 
L 615.527437 351.468581 
L 616.035217 350.621321 
L 616.542998 351.042888 
L 617.050778 351.266654 
L 617.558559 350.872191 
L 618.066339 351.400918 
L 618.57412 351.19643 
L 619.0819 351.453684 
L 619.589681 351.907799 
L 620.097461 350.882623 
L 620.605242 351.423521 
L 621.113022 350.969051 
L 621.620803 351.120552 
L 622.128583 351.060288 
L 622.636364 350.678862 
L 622.636364 350.678862 
" clip-path="url(#p6fad737ecc)" style="fill: none; stroke: #d62728; stroke-width: 1.5; stroke-linecap: square"/>
   </g>
   <g id="patch_3">
    <path d="M 90 384.48 
L 90 51.84 
" style="fill: none; stroke: #000000; stroke-width: 0.8; stroke-linejoin: miter; stroke-linecap: square"/>
   </g>
   <g id="patch_4">
    <path d="M 648 384.48 
L 648 51.84 
" style="fill: none; stroke: #000000; stroke-width: 0.8; stroke-linejoin: miter; stroke-linecap: square"/>
   </g>
   <g id="patch_5">
    <path d="M 90 384.48 
L 648 384.48 
" style="fill: none; stroke: #000000; stroke-width: 0.8; stroke-linejoin: miter; stroke-linecap: square"/>
   </g>
   <g id="patch_6">
    <path d="M 90 51.84 
L 648 51.84 
" style="fill: none; stroke: #000000; stroke-width: 0.8; stroke-linejoin: miter; stroke-linecap: square"/>
   </g>
   <g id="text_14">
    <!-- Accuracy -->
    <g transform="translate(341.60625 45.84) scale(0.12 -0.12)">
     <use xlink:href="#DejaVuSans-41"/>
     <use xlink:href="#DejaVuSans-63" x="66.658203"/>
     <use xlink:href="#DejaVuSans-63" x="121.638672"/>
     <use xlink:href="#DejaVuSans-75" x="176.619141"/>
     <use xlink:href="#DejaVuSans-72" x="239.998047"/>
     <use xlink:href="#DejaVuSans-61" x="281.111328"/>
     <use xlink:href="#DejaVuSans-63" x="342.390625"/>
     <use xlink:href="#DejaVuSans-79" x="397.371094"/>
    </g>
   </g>
   <g id="legend_1">
    <g id="patch_7">
     <path d="M 97 119.665 
L 177.303125 119.665 
Q 179.303125 119.665 179.303125 117.665 
L 179.303125 58.84 
Q 179.303125 56.84 177.303125 56.84 
L 97 56.84 
Q 95 56.84 95 58.84 
L 95 117.665 
Q 95 119.665 97 119.665 
z
" style="fill: #ffffff; opacity: 0.8; stroke: #cccccc; stroke-linejoin: miter"/>
    </g>
    <g id="line2d_16">
     <path d="M 99 64.938437 
L 109 64.938437 
L 119 64.938437 
" style="fill: none; stroke: #1f77b4; stroke-width: 1.5; stroke-linecap: square"/>
    </g>
    <g id="text_15">
     <!-- Train_acc -->
     <g transform="translate(127 68.438437) scale(0.1 -0.1)">
      <defs>
       <path id="DejaVuSans-54" d="M -19 4666 
L 3928 4666 
L 3928 4134 
L 2272 4134 
L 2272 0 
L 1638 0 
L 1638 4134 
L -19 4134 
L -19 4666 
z
" transform="scale(0.015625)"/>
       <path id="DejaVuSans-69" d="M 603 3500 
L 1178 3500 
L 1178 0 
L 603 0 
L 603 3500 
z
M 603 4863 
L 1178 4863 
L 1178 4134 
L 603 4134 
L 603 4863 
z
" transform="scale(0.015625)"/>
       <path id="DejaVuSans-6e" d="M 3513 2113 
L 3513 0 
L 2938 0 
L 2938 2094 
Q 2938 2591 2744 2837 
Q 2550 3084 2163 3084 
Q 1697 3084 1428 2787 
Q 1159 2491 1159 1978 
L 1159 0 
L 581 0 
L 581 3500 
L 1159 3500 
L 1159 2956 
Q 1366 3272 1645 3428 
Q 1925 3584 2291 3584 
Q 2894 3584 3203 3211 
Q 3513 2838 3513 2113 
z
" transform="scale(0.015625)"/>
       <path id="DejaVuSans-5f" d="M 3263 -1063 
L 3263 -1509 
L -63 -1509 
L -63 -1063 
L 3263 -1063 
z
" transform="scale(0.015625)"/>
      </defs>
      <use xlink:href="#DejaVuSans-54"/>
      <use xlink:href="#DejaVuSans-72" x="46.333984"/>
      <use xlink:href="#DejaVuSans-61" x="87.447266"/>
      <use xlink:href="#DejaVuSans-69" x="148.726562"/>
      <use xlink:href="#DejaVuSans-6e" x="176.509766"/>
      <use xlink:href="#DejaVuSans-5f" x="239.888672"/>
      <use xlink:href="#DejaVuSans-61" x="289.888672"/>
      <use xlink:href="#DejaVuSans-63" x="351.167969"/>
      <use xlink:href="#DejaVuSans-63" x="406.148438"/>
     </g>
    </g>
    <g id="line2d_17">
     <path d="M 99 79.894687 
L 109 79.894687 
L 119 79.894687 
" style="fill: none; stroke: #ff7f0e; stroke-width: 1.5; stroke-linecap: square"/>
    </g>
    <g id="text_16">
     <!-- Test_acc -->
     <g transform="translate(127 83.394687) scale(0.1 -0.1)">
      <defs>
       <path id="DejaVuSans-65" d="M 3597 1894 
L 3597 1613 
L 953 1613 
Q 991 1019 1311 708 
Q 1631 397 2203 397 
Q 2534 397 2845 478 
Q 3156 559 3463 722 
L 3463 178 
Q 3153 47 2828 -22 
Q 2503 -91 2169 -91 
Q 1331 -91 842 396 
Q 353 884 353 1716 
Q 353 2575 817 3079 
Q 1281 3584 2069 3584 
Q 2775 3584 3186 3129 
Q 3597 2675 3597 1894 
z
M 3022 2063 
Q 3016 2534 2758 2815 
Q 2500 3097 2075 3097 
Q 1594 3097 1305 2825 
Q 1016 2553 972 2059 
L 3022 2063 
z
" transform="scale(0.015625)"/>
       <path id="DejaVuSans-73" d="M 2834 3397 
L 2834 2853 
Q 2591 2978 2328 3040 
Q 2066 3103 1784 3103 
Q 1356 3103 1142 2972 
Q 928 2841 928 2578 
Q 928 2378 1081 2264 
Q 1234 2150 1697 2047 
L 1894 2003 
Q 2506 1872 2764 1633 
Q 3022 1394 3022 966 
Q 3022 478 2636 193 
Q 2250 -91 1575 -91 
Q 1294 -91 989 -36 
Q 684 19 347 128 
L 347 722 
Q 666 556 975 473 
Q 1284 391 1588 391 
Q 1994 391 2212 530 
Q 2431 669 2431 922 
Q 2431 1156 2273 1281 
Q 2116 1406 1581 1522 
L 1381 1569 
Q 847 1681 609 1914 
Q 372 2147 372 2553 
Q 372 3047 722 3315 
Q 1072 3584 1716 3584 
Q 2034 3584 2315 3537 
Q 2597 3491 2834 3397 
z
" transform="scale(0.015625)"/>
       <path id="DejaVuSans-74" d="M 1172 4494 
L 1172 3500 
L 2356 3500 
L 2356 3053 
L 1172 3053 
L 1172 1153 
Q 1172 725 1289 603 
Q 1406 481 1766 481 
L 2356 481 
L 2356 0 
L 1766 0 
Q 1100 0 847 248 
Q 594 497 594 1153 
L 594 3053 
L 172 3053 
L 172 3500 
L 594 3500 
L 594 4494 
L 1172 4494 
z
" transform="scale(0.015625)"/>
      </defs>
      <use xlink:href="#DejaVuSans-54"/>
      <use xlink:href="#DejaVuSans-65" x="44.083984"/>
      <use xlink:href="#DejaVuSans-73" x="105.607422"/>
      <use xlink:href="#DejaVuSans-74" x="157.707031"/>
      <use xlink:href="#DejaVuSans-5f" x="196.916016"/>
      <use xlink:href="#DejaVuSans-61" x="246.916016"/>
      <use xlink:href="#DejaVuSans-63" x="308.195312"/>
      <use xlink:href="#DejaVuSans-63" x="363.175781"/>
     </g>
    </g>
    <g id="line2d_18">
     <path d="M 99 94.850937 
L 109 94.850937 
L 119 94.850937 
" style="fill: none; stroke: #2ca02c; stroke-width: 1.5; stroke-linecap: square"/>
    </g>
    <g id="text_17">
     <!-- Train_loss -->
     <g transform="translate(127 98.350937) scale(0.1 -0.1)">
      <defs>
       <path id="DejaVuSans-6c" d="M 603 4863 
L 1178 4863 
L 1178 0 
L 603 0 
L 603 4863 
z
" transform="scale(0.015625)"/>
      </defs>
      <use xlink:href="#DejaVuSans-54"/>
      <use xlink:href="#DejaVuSans-72" x="46.333984"/>
      <use xlink:href="#DejaVuSans-61" x="87.447266"/>
      <use xlink:href="#DejaVuSans-69" x="148.726562"/>
      <use xlink:href="#DejaVuSans-6e" x="176.509766"/>
      <use xlink:href="#DejaVuSans-5f" x="239.888672"/>
      <use xlink:href="#DejaVuSans-6c" x="289.888672"/>
      <use xlink:href="#DejaVuSans-6f" x="317.671875"/>
      <use xlink:href="#DejaVuSans-73" x="378.853516"/>
      <use xlink:href="#DejaVuSans-73" x="430.953125"/>
     </g>
    </g>
    <g id="line2d_19">
     <path d="M 99 109.807187 
L 109 109.807187 
L 119 109.807187 
" style="fill: none; stroke: #d62728; stroke-width: 1.5; stroke-linecap: square"/>
    </g>
    <g id="text_18">
     <!-- Test_loss -->
     <g transform="translate(127 113.307187) scale(0.1 -0.1)">
      <use xlink:href="#DejaVuSans-54"/>
      <use xlink:href="#DejaVuSans-65" x="44.083984"/>
      <use xlink:href="#DejaVuSans-73" x="105.607422"/>
      <use xlink:href="#DejaVuSans-74" x="157.707031"/>
      <use xlink:href="#DejaVuSans-5f" x="196.916016"/>
      <use xlink:href="#DejaVuSans-6c" x="246.916016"/>
      <use xlink:href="#DejaVuSans-6f" x="274.699219"/>
      <use xlink:href="#DejaVuSans-73" x="335.880859"/>
      <use xlink:href="#DejaVuSans-73" x="387.980469"/>
     </g>
    </g>
   </g>
  </g>
 </g>
 <defs>
  <clipPath id="p6fad737ecc">
   <rect x="90" y="51.84" width="558" height="332.64"/>
  </clipPath>
 </defs>
</svg>
