<?xml version="1.0" encoding="utf-8" standalone="no"?>
<!DOCTYPE svg PUBLIC "-//W3C//DTD SVG 1.1//EN"
  "http://www.w3.org/Graphics/SVG/1.1/DTD/svg11.dtd">
<svg xmlns:xlink="http://www.w3.org/1999/xlink" width="720pt" height="432pt" viewBox="0 0 720 432" xmlns="http://www.w3.org/2000/svg" version="1.1">
 <metadata>
  <rdf:RDF xmlns:dc="http://purl.org/dc/elements/1.1/" xmlns:cc="http://creativecommons.org/ns#" xmlns:rdf="http://www.w3.org/1999/02/22-rdf-syntax-ns#">
   <cc:Work>
    <dc:type rdf:resource="http://purl.org/dc/dcmitype/StillImage"/>
    <dc:date>2023-04-17T11:51:18.378877</dc:date>
    <dc:format>image/svg+xml</dc:format>
    <dc:creator>
     <cc:Agent>
      <dc:title>Matplotlib v3.7.1, https://matplotlib.org/</dc:title>
     </cc:Agent>
    </dc:creator>
   </cc:Work>
  </rdf:RDF>
 </metadata>
 <defs>
  <style type="text/css">*{stroke-linejoin: round; stroke-linecap: butt}</style>
 </defs>
 <g id="figure_1">
  <g id="patch_1">
   <path d="M 0 432 
L 720 432 
L 720 0 
L 0 0 
z
" style="fill: #ffffff"/>
  </g>
  <g id="axes_1">
   <g id="patch_2">
    <path d="M 90 384.48 
L 648 384.48 
L 648 51.84 
L 90 51.84 
z
" style="fill: #ffffff"/>
   </g>
   <g id="matplotlib.axis_1">
    <g id="xtick_1">
     <g id="line2d_1">
      <defs>
       <path id="mae061bc8d0" d="M 0 0 
L 0 3.5 
" style="stroke: #000000; stroke-width: 0.8"/>
      </defs>
      <g>
       <use xlink:href="#mae061bc8d0" x="115.363636" y="384.48" style="stroke: #000000; stroke-width: 0.8"/>
      </g>
     </g>
     <g id="text_1">
      <!-- 0 -->
      <g transform="translate(112.182386 399.078438) scale(0.1 -0.1)">
       <defs>
        <path id="DejaVuSans-30" d="M 2034 4250 
Q 1547 4250 1301 3770 
Q 1056 3291 1056 2328 
Q 1056 1369 1301 889 
Q 1547 409 2034 409 
Q 2525 409 2770 889 
Q 3016 1369 3016 2328 
Q 3016 3291 2770 3770 
Q 2525 4250 2034 4250 
z
M 2034 4750 
Q 2819 4750 3233 4129 
Q 3647 3509 3647 2328 
Q 3647 1150 3233 529 
Q 2819 -91 2034 -91 
Q 1250 -91 836 529 
Q 422 1150 422 2328 
Q 422 3509 836 4129 
Q 1250 4750 2034 4750 
z
" transform="scale(0.015625)"/>
       </defs>
       <use xlink:href="#DejaVuSans-30"/>
      </g>
     </g>
    </g>
    <g id="xtick_2">
     <g id="line2d_2">
      <g>
       <use xlink:href="#mae061bc8d0" x="216.919738" y="384.48" style="stroke: #000000; stroke-width: 0.8"/>
      </g>
     </g>
     <g id="text_2">
      <!-- 200 -->
      <g transform="translate(207.375988 399.078438) scale(0.1 -0.1)">
       <defs>
        <path id="DejaVuSans-32" d="M 1228 531 
L 3431 531 
L 3431 0 
L 469 0 
L 469 531 
Q 828 903 1448 1529 
Q 2069 2156 2228 2338 
Q 2531 2678 2651 2914 
Q 2772 3150 2772 3378 
Q 2772 3750 2511 3984 
Q 2250 4219 1831 4219 
Q 1534 4219 1204 4116 
Q 875 4013 500 3803 
L 500 4441 
Q 881 4594 1212 4672 
Q 1544 4750 1819 4750 
Q 2544 4750 2975 4387 
Q 3406 4025 3406 3419 
Q 3406 3131 3298 2873 
Q 3191 2616 2906 2266 
Q 2828 2175 2409 1742 
Q 1991 1309 1228 531 
z
" transform="scale(0.015625)"/>
       </defs>
       <use xlink:href="#DejaVuSans-32"/>
       <use xlink:href="#DejaVuSans-30" x="63.623047"/>
       <use xlink:href="#DejaVuSans-30" x="127.246094"/>
      </g>
     </g>
    </g>
    <g id="xtick_3">
     <g id="line2d_3">
      <g>
       <use xlink:href="#mae061bc8d0" x="318.475839" y="384.48" style="stroke: #000000; stroke-width: 0.8"/>
      </g>
     </g>
     <g id="text_3">
      <!-- 400 -->
      <g transform="translate(308.932089 399.078438) scale(0.1 -0.1)">
       <defs>
        <path id="DejaVuSans-34" d="M 2419 4116 
L 825 1625 
L 2419 1625 
L 2419 4116 
z
M 2253 4666 
L 3047 4666 
L 3047 1625 
L 3713 1625 
L 3713 1100 
L 3047 1100 
L 3047 0 
L 2419 0 
L 2419 1100 
L 313 1100 
L 313 1709 
L 2253 4666 
z
" transform="scale(0.015625)"/>
       </defs>
       <use xlink:href="#DejaVuSans-34"/>
       <use xlink:href="#DejaVuSans-30" x="63.623047"/>
       <use xlink:href="#DejaVuSans-30" x="127.246094"/>
      </g>
     </g>
    </g>
    <g id="xtick_4">
     <g id="line2d_4">
      <g>
       <use xlink:href="#mae061bc8d0" x="420.031941" y="384.48" style="stroke: #000000; stroke-width: 0.8"/>
      </g>
     </g>
     <g id="text_4">
      <!-- 600 -->
      <g transform="translate(410.488191 399.078438) scale(0.1 -0.1)">
       <defs>
        <path id="DejaVuSans-36" d="M 2113 2584 
Q 1688 2584 1439 2293 
Q 1191 2003 1191 1497 
Q 1191 994 1439 701 
Q 1688 409 2113 409 
Q 2538 409 2786 701 
Q 3034 994 3034 1497 
Q 3034 2003 2786 2293 
Q 2538 2584 2113 2584 
z
M 3366 4563 
L 3366 3988 
Q 3128 4100 2886 4159 
Q 2644 4219 2406 4219 
Q 1781 4219 1451 3797 
Q 1122 3375 1075 2522 
Q 1259 2794 1537 2939 
Q 1816 3084 2150 3084 
Q 2853 3084 3261 2657 
Q 3669 2231 3669 1497 
Q 3669 778 3244 343 
Q 2819 -91 2113 -91 
Q 1303 -91 875 529 
Q 447 1150 447 2328 
Q 447 3434 972 4092 
Q 1497 4750 2381 4750 
Q 2619 4750 2861 4703 
Q 3103 4656 3366 4563 
z
" transform="scale(0.015625)"/>
       </defs>
       <use xlink:href="#DejaVuSans-36"/>
       <use xlink:href="#DejaVuSans-30" x="63.623047"/>
       <use xlink:href="#DejaVuSans-30" x="127.246094"/>
      </g>
     </g>
    </g>
    <g id="xtick_5">
     <g id="line2d_5">
      <g>
       <use xlink:href="#mae061bc8d0" x="521.588043" y="384.48" style="stroke: #000000; stroke-width: 0.8"/>
      </g>
     </g>
     <g id="text_5">
      <!-- 800 -->
      <g transform="translate(512.044293 399.078438) scale(0.1 -0.1)">
       <defs>
        <path id="DejaVuSans-38" d="M 2034 2216 
Q 1584 2216 1326 1975 
Q 1069 1734 1069 1313 
Q 1069 891 1326 650 
Q 1584 409 2034 409 
Q 2484 409 2743 651 
Q 3003 894 3003 1313 
Q 3003 1734 2745 1975 
Q 2488 2216 2034 2216 
z
M 1403 2484 
Q 997 2584 770 2862 
Q 544 3141 544 3541 
Q 544 4100 942 4425 
Q 1341 4750 2034 4750 
Q 2731 4750 3128 4425 
Q 3525 4100 3525 3541 
Q 3525 3141 3298 2862 
Q 3072 2584 2669 2484 
Q 3125 2378 3379 2068 
Q 3634 1759 3634 1313 
Q 3634 634 3220 271 
Q 2806 -91 2034 -91 
Q 1263 -91 848 271 
Q 434 634 434 1313 
Q 434 1759 690 2068 
Q 947 2378 1403 2484 
z
M 1172 3481 
Q 1172 3119 1398 2916 
Q 1625 2713 2034 2713 
Q 2441 2713 2670 2916 
Q 2900 3119 2900 3481 
Q 2900 3844 2670 4047 
Q 2441 4250 2034 4250 
Q 1625 4250 1398 4047 
Q 1172 3844 1172 3481 
z
" transform="scale(0.015625)"/>
       </defs>
       <use xlink:href="#DejaVuSans-38"/>
       <use xlink:href="#DejaVuSans-30" x="63.623047"/>
       <use xlink:href="#DejaVuSans-30" x="127.246094"/>
      </g>
     </g>
    </g>
    <g id="xtick_6">
     <g id="line2d_6">
      <g>
       <use xlink:href="#mae061bc8d0" x="623.144144" y="384.48" style="stroke: #000000; stroke-width: 0.8"/>
      </g>
     </g>
     <g id="text_6">
      <!-- 1000 -->
      <g transform="translate(610.419144 399.078438) scale(0.1 -0.1)">
       <defs>
        <path id="DejaVuSans-31" d="M 794 531 
L 1825 531 
L 1825 4091 
L 703 3866 
L 703 4441 
L 1819 4666 
L 2450 4666 
L 2450 531 
L 3481 531 
L 3481 0 
L 794 0 
L 794 531 
z
" transform="scale(0.015625)"/>
       </defs>
       <use xlink:href="#DejaVuSans-31"/>
       <use xlink:href="#DejaVuSans-30" x="63.623047"/>
       <use xlink:href="#DejaVuSans-30" x="127.246094"/>
       <use xlink:href="#DejaVuSans-30" x="190.869141"/>
      </g>
     </g>
    </g>
    <g id="text_7">
     <!-- Epoch -->
     <g transform="translate(353.689062 412.756563) scale(0.1 -0.1)">
      <defs>
       <path id="DejaVuSans-45" d="M 628 4666 
L 3578 4666 
L 3578 4134 
L 1259 4134 
L 1259 2753 
L 3481 2753 
L 3481 2222 
L 1259 2222 
L 1259 531 
L 3634 531 
L 3634 0 
L 628 0 
L 628 4666 
z
" transform="scale(0.015625)"/>
       <path id="DejaVuSans-70" d="M 1159 525 
L 1159 -1331 
L 581 -1331 
L 581 3500 
L 1159 3500 
L 1159 2969 
Q 1341 3281 1617 3432 
Q 1894 3584 2278 3584 
Q 2916 3584 3314 3078 
Q 3713 2572 3713 1747 
Q 3713 922 3314 415 
Q 2916 -91 2278 -91 
Q 1894 -91 1617 61 
Q 1341 213 1159 525 
z
M 3116 1747 
Q 3116 2381 2855 2742 
Q 2594 3103 2138 3103 
Q 1681 3103 1420 2742 
Q 1159 2381 1159 1747 
Q 1159 1113 1420 752 
Q 1681 391 2138 391 
Q 2594 391 2855 752 
Q 3116 1113 3116 1747 
z
" transform="scale(0.015625)"/>
       <path id="DejaVuSans-6f" d="M 1959 3097 
Q 1497 3097 1228 2736 
Q 959 2375 959 1747 
Q 959 1119 1226 758 
Q 1494 397 1959 397 
Q 2419 397 2687 759 
Q 2956 1122 2956 1747 
Q 2956 2369 2687 2733 
Q 2419 3097 1959 3097 
z
M 1959 3584 
Q 2709 3584 3137 3096 
Q 3566 2609 3566 1747 
Q 3566 888 3137 398 
Q 2709 -91 1959 -91 
Q 1206 -91 779 398 
Q 353 888 353 1747 
Q 353 2609 779 3096 
Q 1206 3584 1959 3584 
z
" transform="scale(0.015625)"/>
       <path id="DejaVuSans-63" d="M 3122 3366 
L 3122 2828 
Q 2878 2963 2633 3030 
Q 2388 3097 2138 3097 
Q 1578 3097 1268 2742 
Q 959 2388 959 1747 
Q 959 1106 1268 751 
Q 1578 397 2138 397 
Q 2388 397 2633 464 
Q 2878 531 3122 666 
L 3122 134 
Q 2881 22 2623 -34 
Q 2366 -91 2075 -91 
Q 1284 -91 818 406 
Q 353 903 353 1747 
Q 353 2603 823 3093 
Q 1294 3584 2113 3584 
Q 2378 3584 2631 3529 
Q 2884 3475 3122 3366 
z
" transform="scale(0.015625)"/>
       <path id="DejaVuSans-68" d="M 3513 2113 
L 3513 0 
L 2938 0 
L 2938 2094 
Q 2938 2591 2744 2837 
Q 2550 3084 2163 3084 
Q 1697 3084 1428 2787 
Q 1159 2491 1159 1978 
L 1159 0 
L 581 0 
L 581 4863 
L 1159 4863 
L 1159 2956 
Q 1366 3272 1645 3428 
Q 1925 3584 2291 3584 
Q 2894 3584 3203 3211 
Q 3513 2838 3513 2113 
z
" transform="scale(0.015625)"/>
      </defs>
      <use xlink:href="#DejaVuSans-45"/>
      <use xlink:href="#DejaVuSans-70" x="63.183594"/>
      <use xlink:href="#DejaVuSans-6f" x="126.660156"/>
      <use xlink:href="#DejaVuSans-63" x="187.841797"/>
      <use xlink:href="#DejaVuSans-68" x="242.822266"/>
     </g>
    </g>
   </g>
   <g id="matplotlib.axis_2">
    <g id="ytick_1">
     <g id="line2d_7">
      <defs>
       <path id="maa685e4818" d="M 0 0 
L -3.5 0 
" style="stroke: #000000; stroke-width: 0.8"/>
      </defs>
      <g>
       <use xlink:href="#maa685e4818" x="90" y="369.361445" style="stroke: #000000; stroke-width: 0.8"/>
      </g>
     </g>
     <g id="text_8">
      <!-- 0.0 -->
      <g transform="translate(67.096875 373.160664) scale(0.1 -0.1)">
       <defs>
        <path id="DejaVuSans-2e" d="M 684 794 
L 1344 794 
L 1344 0 
L 684 0 
L 684 794 
z
" transform="scale(0.015625)"/>
       </defs>
       <use xlink:href="#DejaVuSans-30"/>
       <use xlink:href="#DejaVuSans-2e" x="63.623047"/>
       <use xlink:href="#DejaVuSans-30" x="95.410156"/>
      </g>
     </g>
    </g>
    <g id="ytick_2">
     <g id="line2d_8">
      <g>
       <use xlink:href="#maa685e4818" x="90" y="308.859375" style="stroke: #000000; stroke-width: 0.8"/>
      </g>
     </g>
     <g id="text_9">
      <!-- 0.2 -->
      <g transform="translate(67.096875 312.658594) scale(0.1 -0.1)">
       <use xlink:href="#DejaVuSans-30"/>
       <use xlink:href="#DejaVuSans-2e" x="63.623047"/>
       <use xlink:href="#DejaVuSans-32" x="95.410156"/>
      </g>
     </g>
    </g>
    <g id="ytick_3">
     <g id="line2d_9">
      <g>
       <use xlink:href="#maa685e4818" x="90" y="248.357306" style="stroke: #000000; stroke-width: 0.8"/>
      </g>
     </g>
     <g id="text_10">
      <!-- 0.4 -->
      <g transform="translate(67.096875 252.156524) scale(0.1 -0.1)">
       <use xlink:href="#DejaVuSans-30"/>
       <use xlink:href="#DejaVuSans-2e" x="63.623047"/>
       <use xlink:href="#DejaVuSans-34" x="95.410156"/>
      </g>
     </g>
    </g>
    <g id="ytick_4">
     <g id="line2d_10">
      <g>
       <use xlink:href="#maa685e4818" x="90" y="187.855236" style="stroke: #000000; stroke-width: 0.8"/>
      </g>
     </g>
     <g id="text_11">
      <!-- 0.6 -->
      <g transform="translate(67.096875 191.654455) scale(0.1 -0.1)">
       <use xlink:href="#DejaVuSans-30"/>
       <use xlink:href="#DejaVuSans-2e" x="63.623047"/>
       <use xlink:href="#DejaVuSans-36" x="95.410156"/>
      </g>
     </g>
    </g>
    <g id="ytick_5">
     <g id="line2d_11">
      <g>
       <use xlink:href="#maa685e4818" x="90" y="127.353166" style="stroke: #000000; stroke-width: 0.8"/>
      </g>
     </g>
     <g id="text_12">
      <!-- 0.8 -->
      <g transform="translate(67.096875 131.152385) scale(0.1 -0.1)">
       <use xlink:href="#DejaVuSans-30"/>
       <use xlink:href="#DejaVuSans-2e" x="63.623047"/>
       <use xlink:href="#DejaVuSans-38" x="95.410156"/>
      </g>
     </g>
    </g>
    <g id="ytick_6">
     <g id="line2d_12">
      <g>
       <use xlink:href="#maa685e4818" x="90" y="66.851096" style="stroke: #000000; stroke-width: 0.8"/>
      </g>
     </g>
     <g id="text_13">
      <!-- 1.0 -->
      <g transform="translate(67.096875 70.650315) scale(0.1 -0.1)">
       <use xlink:href="#DejaVuSans-31"/>
       <use xlink:href="#DejaVuSans-2e" x="63.623047"/>
       <use xlink:href="#DejaVuSans-30" x="95.410156"/>
      </g>
     </g>
    </g>
    <g id="text_14">
     <!-- Accuracy -->
     <g transform="translate(61.017187 240.988125) rotate(-90) scale(0.1 -0.1)">
      <defs>
       <path id="DejaVuSans-41" d="M 2188 4044 
L 1331 1722 
L 3047 1722 
L 2188 4044 
z
M 1831 4666 
L 2547 4666 
L 4325 0 
L 3669 0 
L 3244 1197 
L 1141 1197 
L 716 0 
L 50 0 
L 1831 4666 
z
" transform="scale(0.015625)"/>
       <path id="DejaVuSans-75" d="M 544 1381 
L 544 3500 
L 1119 3500 
L 1119 1403 
Q 1119 906 1312 657 
Q 1506 409 1894 409 
Q 2359 409 2629 706 
Q 2900 1003 2900 1516 
L 2900 3500 
L 3475 3500 
L 3475 0 
L 2900 0 
L 2900 538 
Q 2691 219 2414 64 
Q 2138 -91 1772 -91 
Q 1169 -91 856 284 
Q 544 659 544 1381 
z
M 1991 3584 
L 1991 3584 
z
" transform="scale(0.015625)"/>
       <path id="DejaVuSans-72" d="M 2631 2963 
Q 2534 3019 2420 3045 
Q 2306 3072 2169 3072 
Q 1681 3072 1420 2755 
Q 1159 2438 1159 1844 
L 1159 0 
L 581 0 
L 581 3500 
L 1159 3500 
L 1159 2956 
Q 1341 3275 1631 3429 
Q 1922 3584 2338 3584 
Q 2397 3584 2469 3576 
Q 2541 3569 2628 3553 
L 2631 2963 
z
" transform="scale(0.015625)"/>
       <path id="DejaVuSans-61" d="M 2194 1759 
Q 1497 1759 1228 1600 
Q 959 1441 959 1056 
Q 959 750 1161 570 
Q 1363 391 1709 391 
Q 2188 391 2477 730 
Q 2766 1069 2766 1631 
L 2766 1759 
L 2194 1759 
z
M 3341 1997 
L 3341 0 
L 2766 0 
L 2766 531 
Q 2569 213 2275 61 
Q 1981 -91 1556 -91 
Q 1019 -91 701 211 
Q 384 513 384 1019 
Q 384 1609 779 1909 
Q 1175 2209 1959 2209 
L 2766 2209 
L 2766 2266 
Q 2766 2663 2505 2880 
Q 2244 3097 1772 3097 
Q 1472 3097 1187 3025 
Q 903 2953 641 2809 
L 641 3341 
Q 956 3463 1253 3523 
Q 1550 3584 1831 3584 
Q 2591 3584 2966 3190 
Q 3341 2797 3341 1997 
z
" transform="scale(0.015625)"/>
       <path id="DejaVuSans-79" d="M 2059 -325 
Q 1816 -950 1584 -1140 
Q 1353 -1331 966 -1331 
L 506 -1331 
L 506 -850 
L 844 -850 
Q 1081 -850 1212 -737 
Q 1344 -625 1503 -206 
L 1606 56 
L 191 3500 
L 800 3500 
L 1894 763 
L 2988 3500 
L 3597 3500 
L 2059 -325 
z
" transform="scale(0.015625)"/>
      </defs>
      <use xlink:href="#DejaVuSans-41"/>
      <use xlink:href="#DejaVuSans-63" x="66.658203"/>
      <use xlink:href="#DejaVuSans-63" x="121.638672"/>
      <use xlink:href="#DejaVuSans-75" x="176.619141"/>
      <use xlink:href="#DejaVuSans-72" x="239.998047"/>
      <use xlink:href="#DejaVuSans-61" x="281.111328"/>
      <use xlink:href="#DejaVuSans-63" x="342.390625"/>
      <use xlink:href="#DejaVuSans-79" x="397.371094"/>
     </g>
    </g>
   </g>
   <g id="line2d_13">
    <path d="M 115.363636 365.70712 
L 115.871417 363.577447 
L 116.379197 354.859099 
L 116.886978 337.688612 
L 117.394758 326.610683 
L 120.441441 277.585855 
L 120.949222 265.412839 
L 121.457002 249.918259 
L 121.964783 228.754635 
L 122.980344 173.316588 
L 123.995905 134.074946 
L 124.503686 117.793839 
L 125.011466 106.492052 
L 125.519247 99.667419 
L 126.027027 91.312083 
L 126.534808 86.121005 
L 128.058149 78.201285 
L 129.07371 76.138164 
L 130.089271 74.135545 
L 130.597052 72.629044 
L 131.104832 72.036124 
L 131.612613 71.739664 
L 132.120393 72.459638 
L 132.628174 71.013639 
L 133.135954 71.03784 
L 133.643735 70.348116 
L 134.151515 70.039555 
L 135.674857 69.718894 
L 136.182637 70.021405 
L 136.690418 69.948802 
L 137.198198 69.712844 
L 138.213759 69.954852 
L 138.72154 69.392183 
L 139.22932 69.107823 
L 139.737101 69.00497 
L 140.244881 68.769012 
L 140.752662 69.246978 
L 141.260442 68.775062 
L 141.768223 68.587506 
L 142.276003 68.097439 
L 142.783784 68.539104 
L 143.291564 68.593556 
L 143.799345 68.254744 
L 145.830467 68.303146 
L 146.338247 67.794929 
L 146.846028 67.928033 
L 147.861589 67.55897 
L 148.369369 67.976435 
L 148.87715 68.049037 
L 151.416052 67.55292 
L 151.923833 67.710226 
L 153.447174 67.649724 
L 153.954955 67.82518 
L 154.462735 67.807029 
L 154.970516 67.982485 
L 155.478296 67.982485 
L 155.986077 67.619473 
L 156.493857 67.437966 
L 158.017199 67.383514 
L 159.03276 67.353263 
L 159.540541 67.55292 
L 160.556102 67.226209 
L 161.063882 67.395615 
L 161.571663 67.304862 
L 162.079443 67.704175 
L 164.110565 67.214109 
L 164.618346 67.304862 
L 165.126126 67.177807 
L 166.141687 67.316962 
L 167.157248 67.189908 
L 167.665029 67.25041 
L 168.172809 67.068904 
L 169.18837 67.770728 
L 169.696151 67.82518 
L 170.711712 67.401665 
L 171.219492 67.087054 
L 171.727273 67.032602 
L 174.266175 67.431916 
L 175.281736 67.123356 
L 178.328419 67.117305 
L 179.34398 67.401665 
L 182.390663 67.044703 
L 183.914005 67.159657 
L 185.945127 67.068904 
L 622.636364 66.9721 
L 622.636364 66.9721 
" clip-path="url(#p59284733ef)" style="fill: none; stroke: #1f77b4; stroke-width: 1.5; stroke-linecap: square"/>
   </g>
   <g id="line2d_14">
    <path d="M 115.363636 364.128016 
L 115.871417 365.852325 
L 116.886978 335.661792 
L 118.410319 314.576821 
L 120.441441 305.77377 
L 121.457002 303.44444 
L 121.964783 304.01921 
L 122.472563 305.683017 
L 122.980344 305.289753 
L 123.488124 306.530046 
L 123.995905 310.220672 
L 124.503686 305.804021 
L 125.011466 303.565444 
L 125.519247 298.120258 
L 126.027027 298.332015 
L 126.534808 296.4262 
L 127.042588 295.54892 
L 127.550369 295.367414 
L 128.56593 293.764109 
L 129.07371 294.36913 
L 130.089271 294.67164 
L 130.597052 294.490134 
L 131.104832 291.102018 
L 131.612613 293.612854 
L 132.628174 290.315491 
L 133.135954 290.496997 
L 133.643735 291.071767 
L 134.151515 291.041516 
L 134.659296 292.644821 
L 135.167076 292.372561 
L 135.674857 290.981014 
L 136.182637 292.251557 
L 136.690418 292.463314 
L 137.198198 294.641389 
L 137.705979 291.071767 
L 138.213759 292.0398 
L 138.72154 291.525532 
L 139.22932 291.73729 
L 139.737101 291.041516 
L 140.244881 289.10545 
L 140.752662 290.981014 
L 141.260442 295.609422 
L 141.768223 288.318923 
L 142.276003 287.774404 
L 143.291564 289.226454 
L 143.799345 289.014696 
L 144.307125 287.199634 
L 144.814906 288.863441 
L 145.322686 289.196203 
L 145.830467 290.224738 
L 146.338247 288.197919 
L 146.846028 289.044948 
L 147.353808 287.895408 
L 147.861589 293.643105 
L 148.369369 288.470178 
L 148.87715 289.135701 
L 149.38493 288.984445 
L 149.892711 288.591182 
L 150.400491 287.07863 
L 150.908272 286.140848 
L 151.416052 286.745869 
L 151.923833 287.713902 
L 152.431613 287.169383 
L 152.939394 286.171099 
L 153.954955 287.804655 
L 154.462735 287.471894 
L 154.970516 288.560931 
L 155.478296 286.77612 
L 155.986077 286.261852 
L 156.493857 286.413107 
L 157.001638 285.203066 
L 157.509419 285.445074 
L 158.017199 286.624865 
L 158.52498 288.107165 
L 159.03276 288.288672 
L 159.540541 286.171099 
L 160.048321 285.535827 
L 160.556102 285.808087 
L 161.063882 284.386288 
L 161.571663 285.505576 
L 162.079443 287.07863 
L 162.587224 287.320639 
L 163.095004 287.411392 
L 163.602785 284.507292 
L 164.110565 285.082062 
L 164.618346 285.172815 
L 165.126126 284.628296 
L 165.633907 284.870305 
L 166.141687 284.840054 
L 166.649468 286.655116 
L 167.157248 286.47361 
L 167.665029 284.749301 
L 168.172809 284.14428 
L 168.68059 283.993025 
L 169.18837 287.623149 
L 169.696151 285.777836 
L 170.203931 285.32407 
L 170.711712 285.626581 
L 171.219492 283.630012 
L 171.727273 283.418255 
L 172.235053 284.053527 
L 172.742834 284.083778 
L 173.250614 284.658547 
L 173.758395 285.414823 
L 174.266175 285.172815 
L 174.773956 284.658547 
L 175.281736 283.811518 
L 175.789517 284.174531 
L 176.297297 283.448506 
L 176.805078 283.660263 
L 177.312858 283.388004 
L 177.820639 283.660263 
L 178.328419 284.114029 
L 178.8362 283.357753 
L 179.34398 286.140848 
L 179.851761 284.628296 
L 180.359541 286.050095 
L 180.867322 284.325786 
L 181.375102 284.537543 
L 181.882883 284.386288 
L 182.898444 283.872021 
L 183.914005 283.448506 
L 184.421785 284.265284 
L 184.929566 283.872021 
L 185.945127 282.631728 
L 186.452907 282.782983 
L 186.960688 282.631728 
L 187.468468 282.964489 
L 187.976249 282.571226 
L 188.484029 282.510724 
L 189.49959 282.752732 
L 190.007371 282.722481 
L 190.515152 282.419971 
L 191.022932 282.631728 
L 193.561835 282.480473 
L 194.069615 282.571226 
L 194.577396 282.480473 
L 195.592957 282.601477 
L 196.100737 282.450222 
L 196.608518 282.571226 
L 197.116298 282.480473 
L 197.624079 282.540975 
L 198.63964 282.298967 
L 200.162981 282.298967 
L 200.670762 282.540975 
L 201.178542 282.450222 
L 202.194103 282.480473 
L 203.209664 282.268716 
L 206.256347 282.268716 
L 206.764128 282.087209 
L 207.271908 282.177963 
L 208.287469 282.026707 
L 209.810811 282.298967 
L 210.318591 282.147712 
L 212.349713 282.177963 
L 213.873055 282.177963 
L 214.888616 281.935954 
L 216.411957 281.996456 
L 216.919738 281.905703 
L 217.427518 282.087209 
L 218.443079 282.056958 
L 219.45864 282.147712 
L 219.966421 282.056958 
L 220.981982 282.026707 
L 221.489762 281.905703 
L 221.997543 282.056958 
L 223.013104 281.996456 
L 223.520885 282.208214 
L 225.044226 282.056958 
L 226.059787 282.147712 
L 226.567568 282.026707 
L 228.59869 282.147712 
L 229.10647 282.056958 
L 229.614251 282.238465 
L 230.122031 282.056958 
L 233.168714 282.147712 
L 234.692056 282.208214 
L 235.707617 282.329218 
L 237.230958 282.208214 
L 238.246519 282.298967 
L 239.26208 282.087209 
L 239.769861 282.238465 
L 240.785422 282.087209 
L 241.293202 282.117461 
L 241.800983 281.935954 
L 242.816544 282.238465 
L 244.847666 282.147712 
L 245.355446 282.268716 
L 248.402129 281.966205 
L 248.90991 281.996456 
L 249.41769 282.208214 
L 250.433251 282.117461 
L 250.941032 282.087209 
L 251.448812 282.298967 
L 255.511057 282.238465 
L 256.018837 282.056958 
L 256.526618 282.177963 
L 259.06552 282.117461 
L 261.096642 282.147712 
L 261.604423 282.056958 
L 262.112203 282.208214 
L 264.651106 282.147712 
L 265.666667 282.117461 
L 266.174447 282.026707 
L 266.682228 282.147712 
L 269.728911 282.026707 
L 270.236691 282.087209 
L 270.744472 282.026707 
L 271.252252 282.147712 
L 275.314496 281.905703 
L 275.822277 281.996456 
L 276.330057 281.845201 
L 276.837838 281.996456 
L 277.345618 281.966205 
L 277.853399 282.147712 
L 280.392301 282.208214 
L 282.931204 281.935954 
L 283.438984 282.147712 
L 285.977887 282.056958 
L 286.993448 281.996456 
L 287.501229 281.754448 
L 288.009009 281.935954 
L 288.51679 281.996456 
L 289.532351 281.875452 
L 291.563473 281.966205 
L 292.071253 281.905703 
L 292.579034 282.087209 
L 294.102375 281.905703 
L 294.610156 281.935954 
L 295.117936 281.845201 
L 295.625717 281.966205 
L 296.641278 281.845201 
L 297.149058 281.935954 
L 299.18018 281.905703 
L 300.195741 281.996456 
L 301.719083 281.845201 
L 302.226863 281.996456 
L 302.734644 281.845201 
L 303.750205 281.845201 
L 304.257985 281.905703 
L 305.273546 281.875452 
L 305.781327 281.935954 
L 306.289107 281.875452 
L 306.796888 281.996456 
L 308.320229 281.905703 
L 313.398034 281.996456 
L 313.905815 281.693946 
L 315.429156 281.845201 
L 316.444717 281.754448 
L 318.475839 281.845201 
L 319.999181 281.905703 
L 321.014742 281.724197 
L 321.522523 281.81495 
L 324.061425 281.754448 
L 325.584767 281.845201 
L 326.092547 281.905703 
L 326.600328 281.784699 
L 328.123669 281.81495 
L 329.647011 281.724197 
L 330.662572 281.754448 
L 331.678133 281.784699 
L 332.693694 281.845201 
L 333.709255 281.784699 
L 335.232596 281.875452 
L 335.740377 281.784699 
L 336.248157 281.935954 
L 337.771499 281.935954 
L 339.802621 281.905703 
L 344.372645 281.905703 
L 344.880426 282.026707 
L 346.911548 282.056958 
L 347.419328 281.905703 
L 348.94267 282.026707 
L 349.45045 281.754448 
L 349.958231 281.996456 
L 350.466011 282.056958 
L 351.481572 281.966205 
L 353.004914 281.905703 
L 353.512695 281.966205 
L 354.020475 281.905703 
L 354.528256 281.996456 
L 355.543817 281.966205 
L 359.09828 281.875452 
L 360.113841 281.845201 
L 360.621622 281.996456 
L 364.176085 281.935954 
L 364.683866 281.81495 
L 365.191646 281.845201 
L 365.699427 281.996456 
L 366.714988 281.905703 
L 367.730549 281.693946 
L 368.238329 281.845201 
L 368.74611 281.81495 
L 369.25389 281.935954 
L 370.269451 281.845201 
L 370.777232 281.935954 
L 372.300573 281.693946 
L 372.808354 281.81495 
L 381.440622 281.784699 
L 381.948403 281.693946 
L 382.456183 281.784699 
L 383.471744 281.81495 
L 389.05733 281.784699 
L 389.565111 281.935954 
L 391.596233 281.784699 
L 392.611794 281.875452 
L 393.119574 281.875452 
L 393.627355 281.633444 
L 394.135135 281.633444 
L 394.642916 281.935954 
L 395.150696 281.966205 
L 395.658477 281.784699 
L 396.166257 281.875452 
L 396.674038 281.754448 
L 397.181818 281.845201 
L 397.689599 281.724197 
L 398.197379 281.845201 
L 398.70516 281.693946 
L 399.21294 281.754448 
L 399.720721 281.572942 
L 400.228501 281.784699 
L 401.244062 281.693946 
L 401.751843 281.754448 
L 402.259623 281.633444 
L 402.767404 281.633444 
L 403.275184 281.81495 
L 404.290745 281.754448 
L 405.306306 281.754448 
L 405.814087 281.572942 
L 406.321867 281.784699 
L 407.337428 281.633444 
L 408.86077 281.693946 
L 410.384111 281.603193 
L 410.891892 281.784699 
L 412.415233 281.51244 
L 412.923014 281.572942 
L 413.938575 281.51244 
L 415.461916 281.603193 
L 417.493038 281.603193 
L 418.000819 281.784699 
L 418.5086 281.663695 
L 419.01638 281.693946 
L 420.031941 281.300683 
L 420.539722 281.542691 
L 421.047502 281.270432 
L 421.555283 281.482189 
L 422.063063 281.300683 
L 422.570844 281.270432 
L 423.586405 281.421687 
L 424.601966 281.240181 
L 425.617527 281.330934 
L 429.17199 281.209929 
L 431.203112 281.361185 
L 443.389844 281.330934 
L 443.897625 281.482189 
L 444.913186 281.391436 
L 445.928747 281.451938 
L 446.944308 281.421687 
L 447.959869 281.451938 
L 452.529894 281.51244 
L 453.037674 281.693946 
L 453.545455 281.754448 
L 454.561016 281.421687 
L 455.068796 281.542691 
L 456.084357 281.51244 
L 457.099918 281.51244 
L 457.607699 281.633444 
L 458.115479 281.451938 
L 459.13104 281.421687 
L 460.146601 281.603193 
L 460.654382 281.451938 
L 465.732187 281.482189 
L 466.239967 281.633444 
L 467.763309 281.693946 
L 468.77887 281.603193 
L 469.794431 281.663695 
L 470.302211 281.542691 
L 473.348894 281.542691 
L 473.856675 281.421687 
L 475.380016 281.724197 
L 475.887797 281.542691 
L 476.395577 281.572942 
L 476.903358 281.724197 
L 478.426699 281.724197 
L 479.44226 281.784699 
L 481.473382 281.754448 
L 482.488943 281.784699 
L 483.504505 281.693946 
L 484.012285 281.784699 
L 485.535627 281.633444 
L 486.043407 281.875452 
L 486.551188 281.572942 
L 489.09009 281.542691 
L 489.597871 281.724197 
L 490.105651 281.572942 
L 491.628993 281.603193 
L 492.644554 281.542691 
L 493.152334 281.633444 
L 493.660115 281.572942 
L 494.675676 281.633444 
L 497.214578 281.572942 
L 497.722359 281.633444 
L 498.230139 281.51244 
L 498.73792 281.633444 
L 499.753481 281.603193 
L 500.261261 281.663695 
L 501.276822 281.482189 
L 502.292383 281.482189 
L 503.307944 281.572942 
L 504.323505 281.542691 
L 504.831286 281.663695 
L 505.339066 281.572942 
L 505.846847 281.603193 
L 506.862408 281.330934 
L 508.385749 281.270432 
L 508.89353 281.421687 
L 510.416871 281.421687 
L 514.479115 281.482189 
L 514.986896 281.542691 
L 515.494676 281.391436 
L 516.002457 281.482189 
L 516.510238 281.330934 
L 517.018018 281.391436 
L 517.525799 281.330934 
L 519.04914 281.421687 
L 520.064701 281.361185 
L 521.588043 281.51244 
L 522.095823 281.300683 
L 525.142506 281.391436 
L 526.665848 281.330934 
L 528.189189 281.633444 
L 529.20475 281.421687 
L 530.220311 281.270432 
L 530.728092 281.421687 
L 533.266994 281.482189 
L 533.774775 281.542691 
L 535.298116 281.270432 
L 536.313677 281.300683 
L 536.821458 281.240181 
L 537.837019 281.51244 
L 539.868141 281.300683 
L 540.883702 281.330934 
L 542.914824 281.451938 
L 543.422604 281.330934 
L 545.961507 281.300683 
L 546.469287 281.542691 
L 547.484848 281.451938 
L 547.992629 281.482189 
L 548.50041 281.361185 
L 550.531532 281.51244 
L 553.578215 281.51244 
L 554.085995 281.633444 
L 554.593776 281.482189 
L 556.117117 281.542691 
L 556.624898 281.451938 
L 557.132678 281.542691 
L 557.640459 281.451938 
L 558.148239 281.542691 
L 558.65602 281.421687 
L 559.1638 281.482189 
L 559.671581 281.421687 
L 560.687142 281.51244 
L 562.210483 281.603193 
L 562.718264 281.633444 
L 563.733825 281.482189 
L 564.241605 281.572942 
L 567.288288 281.482189 
L 574.904996 281.51244 
L 575.412776 281.724197 
L 575.920557 281.693946 
L 576.428337 281.482189 
L 577.443898 281.693946 
L 577.951679 281.391436 
L 578.96724 281.603193 
L 580.490581 281.421687 
L 580.998362 281.51244 
L 581.506143 281.391436 
L 583.537265 281.451938 
L 584.045045 281.663695 
L 584.552826 281.572942 
L 585.568387 281.603193 
L 586.076167 281.451938 
L 586.583948 281.542691 
L 587.599509 281.482189 
L 588.107289 281.572942 
L 588.61507 281.51244 
L 589.12285 281.784699 
L 589.630631 281.542691 
L 590.646192 281.572942 
L 591.153972 281.81495 
L 591.661753 281.693946 
L 592.169533 281.693946 
L 592.677314 281.51244 
L 593.185094 281.542691 
L 593.692875 281.693946 
L 595.723997 281.603193 
L 596.231777 281.482189 
L 597.247338 281.542691 
L 597.755119 281.451938 
L 598.77068 281.754448 
L 599.786241 281.603193 
L 600.294021 281.81495 
L 600.801802 281.693946 
L 601.309582 281.754448 
L 601.817363 281.663695 
L 602.325143 281.724197 
L 603.848485 281.542691 
L 604.864046 281.633444 
L 605.879607 281.663695 
L 606.387387 281.51244 
L 608.418509 281.603193 
L 608.92629 281.542691 
L 610.449631 281.633444 
L 610.957412 281.542691 
L 611.465192 281.603193 
L 611.972973 281.482189 
L 612.480753 281.572942 
L 612.988534 281.482189 
L 614.004095 281.572942 
L 615.019656 281.391436 
L 616.035217 281.603193 
L 616.542998 281.542691 
L 617.050778 281.633444 
L 619.589681 281.572942 
L 622.636364 281.603193 
L 622.636364 281.603193 
" clip-path="url(#p59284733ef)" style="fill: none; stroke: #ff7f0e; stroke-width: 1.5; stroke-linecap: square"/>
   </g>
   <g id="line2d_15">
    <path d="M 115.363636 347.576636 
L 115.871417 347.633388 
L 116.379197 348.787064 
L 116.886978 350.715044 
L 117.394758 351.954048 
L 118.410319 353.385582 
L 119.933661 355.383574 
L 120.949222 357.141504 
L 121.457002 358.323096 
L 122.472563 361.64857 
L 122.980344 363.428396 
L 123.995905 365.7933 
L 124.503686 366.649859 
L 125.011466 367.24343 
L 126.534808 368.324783 
L 128.56593 368.794535 
L 131.612613 369.083403 
L 132.120393 369.030778 
L 133.135954 369.116679 
L 135.674857 369.188959 
L 138.213759 369.177483 
L 141.260442 369.241254 
L 154.462735 369.292417 
L 155.986077 369.303336 
L 160.048321 369.321228 
L 201.686323 369.358837 
L 622.636364 369.359943 
L 622.636364 369.359943 
" clip-path="url(#p59284733ef)" style="fill: none; stroke: #2ca02c; stroke-width: 1.5; stroke-linecap: square"/>
   </g>
   <g id="line2d_16">
    <path d="M 115.363636 347.500196 
L 115.871417 347.746223 
L 116.886978 351.164118 
L 117.902539 352.315283 
L 118.410319 352.729107 
L 119.42588 353.136252 
L 119.933661 353.110271 
L 120.441441 352.944411 
L 120.949222 352.528813 
L 121.457002 351.966846 
L 121.964783 350.731823 
L 122.472563 348.057826 
L 122.980344 346.417264 
L 123.488124 343.676446 
L 123.995905 339.634718 
L 124.503686 339.49534 
L 125.011466 340.126241 
L 125.519247 338.780151 
L 126.027027 338.364608 
L 126.534808 336.974436 
L 127.042588 336.420289 
L 127.550369 336.121855 
L 128.058149 335.516028 
L 128.56593 335.973029 
L 129.07371 333.848262 
L 129.581491 333.113886 
L 130.089271 333.766419 
L 130.597052 332.64441 
L 131.104832 331.866819 
L 131.612613 331.655307 
L 132.120393 332.141654 
L 133.135954 331.599934 
L 133.643735 331.038361 
L 134.151515 330.24584 
L 134.659296 330.308854 
L 135.167076 329.513758 
L 135.674857 329.605684 
L 136.182637 328.393129 
L 136.690418 328.6053 
L 137.198198 325.944887 
L 137.705979 328.835929 
L 138.213759 329.257488 
L 139.22932 328.214011 
L 139.737101 327.950096 
L 140.244881 327.873876 
L 140.752662 328.077844 
L 141.260442 324.04261 
L 141.768223 328.461781 
L 142.276003 327.11211 
L 143.291564 327.208299 
L 143.799345 327.110073 
L 144.307125 326.590775 
L 144.814906 327.263582 
L 145.322686 325.989559 
L 145.830467 326.649275 
L 146.338247 326.890562 
L 146.846028 326.629532 
L 147.353808 326.080465 
L 147.861589 319.380027 
L 148.369369 326.158246 
L 148.87715 326.58675 
L 149.38493 326.40168 
L 149.892711 325.674627 
L 150.908272 325.80161 
L 151.416052 325.326022 
L 151.923833 324.334753 
L 152.431613 325.296568 
L 152.939394 325.457482 
L 153.447174 325.36873 
L 154.462735 326.095512 
L 154.970516 326.310043 
L 155.478296 326.383663 
L 155.986077 325.766427 
L 156.493857 325.901809 
L 157.001638 326.407268 
L 158.017199 324.680823 
L 159.03276 325.255023 
L 159.540541 325.486339 
L 160.556102 325.339076 
L 161.063882 325.783629 
L 161.571663 324.316803 
L 162.079443 325.428748 
L 162.587224 324.76396 
L 163.095004 325.408758 
L 163.602785 325.477568 
L 164.110565 325.318616 
L 164.618346 324.912527 
L 165.633907 325.209716 
L 166.141687 324.988057 
L 166.649468 324.57022 
L 167.157248 324.910251 
L 168.172809 324.42452 
L 169.18837 325.605513 
L 169.696151 324.460995 
L 170.203931 325.231209 
L 170.711712 325.413738 
L 171.219492 324.610677 
L 171.727273 324.356056 
L 172.235053 324.250086 
L 172.742834 324.948671 
L 173.250614 324.773049 
L 174.773956 325.563588 
L 175.789517 325.386236 
L 176.297297 325.633407 
L 176.805078 325.317817 
L 178.8362 326.246343 
L 179.34398 325.435974 
L 179.851761 326.041387 
L 180.359541 326.243982 
L 180.867322 326.311166 
L 181.375102 325.980235 
L 182.390663 326.194796 
L 182.898444 326.242804 
L 183.406224 326.024957 
L 183.914005 326.259821 
L 184.421785 326.369928 
L 184.929566 326.161274 
L 185.437346 326.255109 
L 188.99181 325.766878 
L 193.054054 325.211632 
L 195.085176 324.970893 
L 200.670762 324.361505 
L 206.764128 323.826261 
L 209.30303 323.598759 
L 217.935299 323.002605 
L 222.505324 322.737843 
L 230.122031 322.332068 
L 239.26208 321.906282 
L 244.339885 321.682052 
L 263.127764 320.996926 
L 323.553645 319.640025 
L 329.13923 319.532113 
L 339.29484 319.371724 
L 397.689599 318.80048 
L 420.539722 318.747106 
L 421.047502 318.852877 
L 428.156429 318.765697 
L 438.312039 318.650403 
L 441.866503 318.61784 
L 445.928747 318.613626 
L 461.669943 318.522038 
L 464.716626 318.464173 
L 529.20475 318.109022 
L 530.220311 318.211694 
L 535.298116 318.151863 
L 537.837019 318.125527 
L 552.562654 318.011055 
L 565.257166 317.904002 
L 568.303849 317.862335 
L 572.366093 317.833895 
L 576.428337 317.818123 
L 577.443898 317.915321 
L 579.47502 317.887247 
L 580.490581 317.96221 
L 582.521704 317.935717 
L 584.045045 317.994181 
L 594.708436 318.163657 
L 607.910729 317.954078 
L 622.636364 317.747148 
L 622.636364 317.747148 
" clip-path="url(#p59284733ef)" style="fill: none; stroke: #d62728; stroke-width: 1.5; stroke-linecap: square"/>
   </g>
   <g id="patch_3">
    <path d="M 90 384.48 
L 90 51.84 
" style="fill: none; stroke: #000000; stroke-width: 0.8; stroke-linejoin: miter; stroke-linecap: square"/>
   </g>
   <g id="patch_4">
    <path d="M 648 384.48 
L 648 51.84 
" style="fill: none; stroke: #000000; stroke-width: 0.8; stroke-linejoin: miter; stroke-linecap: square"/>
   </g>
   <g id="patch_5">
    <path d="M 90 384.48 
L 648 384.48 
" style="fill: none; stroke: #000000; stroke-width: 0.8; stroke-linejoin: miter; stroke-linecap: square"/>
   </g>
   <g id="patch_6">
    <path d="M 90 51.84 
L 648 51.84 
" style="fill: none; stroke: #000000; stroke-width: 0.8; stroke-linejoin: miter; stroke-linecap: square"/>
   </g>
   <g id="text_15">
    <!-- Accuracy -->
    <g transform="translate(341.60625 45.84) scale(0.12 -0.12)">
     <use xlink:href="#DejaVuSans-41"/>
     <use xlink:href="#DejaVuSans-63" x="66.658203"/>
     <use xlink:href="#DejaVuSans-63" x="121.638672"/>
     <use xlink:href="#DejaVuSans-75" x="176.619141"/>
     <use xlink:href="#DejaVuSans-72" x="239.998047"/>
     <use xlink:href="#DejaVuSans-61" x="281.111328"/>
     <use xlink:href="#DejaVuSans-63" x="342.390625"/>
     <use xlink:href="#DejaVuSans-79" x="397.371094"/>
    </g>
   </g>
   <g id="legend_1">
    <g id="patch_7">
     <path d="M 560.696875 249.5725 
L 641 249.5725 
Q 643 249.5725 643 247.5725 
L 643 188.7475 
Q 643 186.7475 641 186.7475 
L 560.696875 186.7475 
Q 558.696875 186.7475 558.696875 188.7475 
L 558.696875 247.5725 
Q 558.696875 249.5725 560.696875 249.5725 
z
" style="fill: #ffffff; opacity: 0.8; stroke: #cccccc; stroke-linejoin: miter"/>
    </g>
    <g id="line2d_17">
     <path d="M 562.696875 194.845937 
L 572.696875 194.845937 
L 582.696875 194.845937 
" style="fill: none; stroke: #1f77b4; stroke-width: 1.5; stroke-linecap: square"/>
    </g>
    <g id="text_16">
     <!-- Train_acc -->
     <g transform="translate(590.696875 198.345937) scale(0.1 -0.1)">
      <defs>
       <path id="DejaVuSans-54" d="M -19 4666 
L 3928 4666 
L 3928 4134 
L 2272 4134 
L 2272 0 
L 1638 0 
L 1638 4134 
L -19 4134 
L -19 4666 
z
" transform="scale(0.015625)"/>
       <path id="DejaVuSans-69" d="M 603 3500 
L 1178 3500 
L 1178 0 
L 603 0 
L 603 3500 
z
M 603 4863 
L 1178 4863 
L 1178 4134 
L 603 4134 
L 603 4863 
z
" transform="scale(0.015625)"/>
       <path id="DejaVuSans-6e" d="M 3513 2113 
L 3513 0 
L 2938 0 
L 2938 2094 
Q 2938 2591 2744 2837 
Q 2550 3084 2163 3084 
Q 1697 3084 1428 2787 
Q 1159 2491 1159 1978 
L 1159 0 
L 581 0 
L 581 3500 
L 1159 3500 
L 1159 2956 
Q 1366 3272 1645 3428 
Q 1925 3584 2291 3584 
Q 2894 3584 3203 3211 
Q 3513 2838 3513 2113 
z
" transform="scale(0.015625)"/>
       <path id="DejaVuSans-5f" d="M 3263 -1063 
L 3263 -1509 
L -63 -1509 
L -63 -1063 
L 3263 -1063 
z
" transform="scale(0.015625)"/>
      </defs>
      <use xlink:href="#DejaVuSans-54"/>
      <use xlink:href="#DejaVuSans-72" x="46.333984"/>
      <use xlink:href="#DejaVuSans-61" x="87.447266"/>
      <use xlink:href="#DejaVuSans-69" x="148.726562"/>
      <use xlink:href="#DejaVuSans-6e" x="176.509766"/>
      <use xlink:href="#DejaVuSans-5f" x="239.888672"/>
      <use xlink:href="#DejaVuSans-61" x="289.888672"/>
      <use xlink:href="#DejaVuSans-63" x="351.167969"/>
      <use xlink:href="#DejaVuSans-63" x="406.148438"/>
     </g>
    </g>
    <g id="line2d_18">
     <path d="M 562.696875 209.802188 
L 572.696875 209.802188 
L 582.696875 209.802188 
" style="fill: none; stroke: #ff7f0e; stroke-width: 1.5; stroke-linecap: square"/>
    </g>
    <g id="text_17">
     <!-- Test_acc -->
     <g transform="translate(590.696875 213.302188) scale(0.1 -0.1)">
      <defs>
       <path id="DejaVuSans-65" d="M 3597 1894 
L 3597 1613 
L 953 1613 
Q 991 1019 1311 708 
Q 1631 397 2203 397 
Q 2534 397 2845 478 
Q 3156 559 3463 722 
L 3463 178 
Q 3153 47 2828 -22 
Q 2503 -91 2169 -91 
Q 1331 -91 842 396 
Q 353 884 353 1716 
Q 353 2575 817 3079 
Q 1281 3584 2069 3584 
Q 2775 3584 3186 3129 
Q 3597 2675 3597 1894 
z
M 3022 2063 
Q 3016 2534 2758 2815 
Q 2500 3097 2075 3097 
Q 1594 3097 1305 2825 
Q 1016 2553 972 2059 
L 3022 2063 
z
" transform="scale(0.015625)"/>
       <path id="DejaVuSans-73" d="M 2834 3397 
L 2834 2853 
Q 2591 2978 2328 3040 
Q 2066 3103 1784 3103 
Q 1356 3103 1142 2972 
Q 928 2841 928 2578 
Q 928 2378 1081 2264 
Q 1234 2150 1697 2047 
L 1894 2003 
Q 2506 1872 2764 1633 
Q 3022 1394 3022 966 
Q 3022 478 2636 193 
Q 2250 -91 1575 -91 
Q 1294 -91 989 -36 
Q 684 19 347 128 
L 347 722 
Q 666 556 975 473 
Q 1284 391 1588 391 
Q 1994 391 2212 530 
Q 2431 669 2431 922 
Q 2431 1156 2273 1281 
Q 2116 1406 1581 1522 
L 1381 1569 
Q 847 1681 609 1914 
Q 372 2147 372 2553 
Q 372 3047 722 3315 
Q 1072 3584 1716 3584 
Q 2034 3584 2315 3537 
Q 2597 3491 2834 3397 
z
" transform="scale(0.015625)"/>
       <path id="DejaVuSans-74" d="M 1172 4494 
L 1172 3500 
L 2356 3500 
L 2356 3053 
L 1172 3053 
L 1172 1153 
Q 1172 725 1289 603 
Q 1406 481 1766 481 
L 2356 481 
L 2356 0 
L 1766 0 
Q 1100 0 847 248 
Q 594 497 594 1153 
L 594 3053 
L 172 3053 
L 172 3500 
L 594 3500 
L 594 4494 
L 1172 4494 
z
" transform="scale(0.015625)"/>
      </defs>
      <use xlink:href="#DejaVuSans-54"/>
      <use xlink:href="#DejaVuSans-65" x="44.083984"/>
      <use xlink:href="#DejaVuSans-73" x="105.607422"/>
      <use xlink:href="#DejaVuSans-74" x="157.707031"/>
      <use xlink:href="#DejaVuSans-5f" x="196.916016"/>
      <use xlink:href="#DejaVuSans-61" x="246.916016"/>
      <use xlink:href="#DejaVuSans-63" x="308.195312"/>
      <use xlink:href="#DejaVuSans-63" x="363.175781"/>
     </g>
    </g>
    <g id="line2d_19">
     <path d="M 562.696875 224.758437 
L 572.696875 224.758437 
L 582.696875 224.758437 
" style="fill: none; stroke: #2ca02c; stroke-width: 1.5; stroke-linecap: square"/>
    </g>
    <g id="text_18">
     <!-- Train_loss -->
     <g transform="translate(590.696875 228.258437) scale(0.1 -0.1)">
      <defs>
       <path id="DejaVuSans-6c" d="M 603 4863 
L 1178 4863 
L 1178 0 
L 603 0 
L 603 4863 
z
" transform="scale(0.015625)"/>
      </defs>
      <use xlink:href="#DejaVuSans-54"/>
      <use xlink:href="#DejaVuSans-72" x="46.333984"/>
      <use xlink:href="#DejaVuSans-61" x="87.447266"/>
      <use xlink:href="#DejaVuSans-69" x="148.726562"/>
      <use xlink:href="#DejaVuSans-6e" x="176.509766"/>
      <use xlink:href="#DejaVuSans-5f" x="239.888672"/>
      <use xlink:href="#DejaVuSans-6c" x="289.888672"/>
      <use xlink:href="#DejaVuSans-6f" x="317.671875"/>
      <use xlink:href="#DejaVuSans-73" x="378.853516"/>
      <use xlink:href="#DejaVuSans-73" x="430.953125"/>
     </g>
    </g>
    <g id="line2d_20">
     <path d="M 562.696875 239.714687 
L 572.696875 239.714687 
L 582.696875 239.714687 
" style="fill: none; stroke: #d62728; stroke-width: 1.5; stroke-linecap: square"/>
    </g>
    <g id="text_19">
     <!-- Test_loss -->
     <g transform="translate(590.696875 243.214687) scale(0.1 -0.1)">
      <use xlink:href="#DejaVuSans-54"/>
      <use xlink:href="#DejaVuSans-65" x="44.083984"/>
      <use xlink:href="#DejaVuSans-73" x="105.607422"/>
      <use xlink:href="#DejaVuSans-74" x="157.707031"/>
      <use xlink:href="#DejaVuSans-5f" x="196.916016"/>
      <use xlink:href="#DejaVuSans-6c" x="246.916016"/>
      <use xlink:href="#DejaVuSans-6f" x="274.699219"/>
      <use xlink:href="#DejaVuSans-73" x="335.880859"/>
      <use xlink:href="#DejaVuSans-73" x="387.980469"/>
     </g>
    </g>
   </g>
  </g>
 </g>
 <defs>
  <clipPath id="p59284733ef">
   <rect x="90" y="51.84" width="558" height="332.64"/>
  </clipPath>
 </defs>
</svg>
