<?xml version="1.0" encoding="utf-8" standalone="no"?>
<!DOCTYPE svg PUBLIC "-//W3C//DTD SVG 1.1//EN"
  "http://www.w3.org/Graphics/SVG/1.1/DTD/svg11.dtd">
<svg xmlns:xlink="http://www.w3.org/1999/xlink" width="720pt" height="432pt" viewBox="0 0 720 432" xmlns="http://www.w3.org/2000/svg" version="1.1">
 <metadata>
  <rdf:RDF xmlns:dc="http://purl.org/dc/elements/1.1/" xmlns:cc="http://creativecommons.org/ns#" xmlns:rdf="http://www.w3.org/1999/02/22-rdf-syntax-ns#">
   <cc:Work>
    <dc:type rdf:resource="http://purl.org/dc/dcmitype/StillImage"/>
    <dc:date>2023-04-17T04:03:34.759579</dc:date>
    <dc:format>image/svg+xml</dc:format>
    <dc:creator>
     <cc:Agent>
      <dc:title>Matplotlib v3.7.1, https://matplotlib.org/</dc:title>
     </cc:Agent>
    </dc:creator>
   </cc:Work>
  </rdf:RDF>
 </metadata>
 <defs>
  <style type="text/css">*{stroke-linejoin: round; stroke-linecap: butt}</style>
 </defs>
 <g id="figure_1">
  <g id="patch_1">
   <path d="M 0 432 
L 720 432 
L 720 0 
L 0 0 
z
" style="fill: #ffffff"/>
  </g>
  <g id="axes_1">
   <g id="patch_2">
    <path d="M 90 384.48 
L 648 384.48 
L 648 51.84 
L 90 51.84 
z
" style="fill: #ffffff"/>
   </g>
   <g id="matplotlib.axis_1">
    <g id="xtick_1">
     <g id="line2d_1">
      <defs>
       <path id="m7e5bb8e9e0" d="M 0 0 
L 0 3.5 
" style="stroke: #000000; stroke-width: 0.8"/>
      </defs>
      <g>
       <use xlink:href="#m7e5bb8e9e0" x="115.363636" y="384.48" style="stroke: #000000; stroke-width: 0.8"/>
      </g>
     </g>
     <g id="text_1">
      <!-- 0 -->
      <g transform="translate(112.182386 399.078438) scale(0.1 -0.1)">
       <defs>
        <path id="DejaVuSans-30" d="M 2034 4250 
Q 1547 4250 1301 3770 
Q 1056 3291 1056 2328 
Q 1056 1369 1301 889 
Q 1547 409 2034 409 
Q 2525 409 2770 889 
Q 3016 1369 3016 2328 
Q 3016 3291 2770 3770 
Q 2525 4250 2034 4250 
z
M 2034 4750 
Q 2819 4750 3233 4129 
Q 3647 3509 3647 2328 
Q 3647 1150 3233 529 
Q 2819 -91 2034 -91 
Q 1250 -91 836 529 
Q 422 1150 422 2328 
Q 422 3509 836 4129 
Q 1250 4750 2034 4750 
z
" transform="scale(0.015625)"/>
       </defs>
       <use xlink:href="#DejaVuSans-30"/>
      </g>
     </g>
    </g>
    <g id="xtick_2">
     <g id="line2d_2">
      <g>
       <use xlink:href="#m7e5bb8e9e0" x="216.919738" y="384.48" style="stroke: #000000; stroke-width: 0.8"/>
      </g>
     </g>
     <g id="text_2">
      <!-- 200 -->
      <g transform="translate(207.375988 399.078438) scale(0.1 -0.1)">
       <defs>
        <path id="DejaVuSans-32" d="M 1228 531 
L 3431 531 
L 3431 0 
L 469 0 
L 469 531 
Q 828 903 1448 1529 
Q 2069 2156 2228 2338 
Q 2531 2678 2651 2914 
Q 2772 3150 2772 3378 
Q 2772 3750 2511 3984 
Q 2250 4219 1831 4219 
Q 1534 4219 1204 4116 
Q 875 4013 500 3803 
L 500 4441 
Q 881 4594 1212 4672 
Q 1544 4750 1819 4750 
Q 2544 4750 2975 4387 
Q 3406 4025 3406 3419 
Q 3406 3131 3298 2873 
Q 3191 2616 2906 2266 
Q 2828 2175 2409 1742 
Q 1991 1309 1228 531 
z
" transform="scale(0.015625)"/>
       </defs>
       <use xlink:href="#DejaVuSans-32"/>
       <use xlink:href="#DejaVuSans-30" x="63.623047"/>
       <use xlink:href="#DejaVuSans-30" x="127.246094"/>
      </g>
     </g>
    </g>
    <g id="xtick_3">
     <g id="line2d_3">
      <g>
       <use xlink:href="#m7e5bb8e9e0" x="318.475839" y="384.48" style="stroke: #000000; stroke-width: 0.8"/>
      </g>
     </g>
     <g id="text_3">
      <!-- 400 -->
      <g transform="translate(308.932089 399.078438) scale(0.1 -0.1)">
       <defs>
        <path id="DejaVuSans-34" d="M 2419 4116 
L 825 1625 
L 2419 1625 
L 2419 4116 
z
M 2253 4666 
L 3047 4666 
L 3047 1625 
L 3713 1625 
L 3713 1100 
L 3047 1100 
L 3047 0 
L 2419 0 
L 2419 1100 
L 313 1100 
L 313 1709 
L 2253 4666 
z
" transform="scale(0.015625)"/>
       </defs>
       <use xlink:href="#DejaVuSans-34"/>
       <use xlink:href="#DejaVuSans-30" x="63.623047"/>
       <use xlink:href="#DejaVuSans-30" x="127.246094"/>
      </g>
     </g>
    </g>
    <g id="xtick_4">
     <g id="line2d_4">
      <g>
       <use xlink:href="#m7e5bb8e9e0" x="420.031941" y="384.48" style="stroke: #000000; stroke-width: 0.8"/>
      </g>
     </g>
     <g id="text_4">
      <!-- 600 -->
      <g transform="translate(410.488191 399.078438) scale(0.1 -0.1)">
       <defs>
        <path id="DejaVuSans-36" d="M 2113 2584 
Q 1688 2584 1439 2293 
Q 1191 2003 1191 1497 
Q 1191 994 1439 701 
Q 1688 409 2113 409 
Q 2538 409 2786 701 
Q 3034 994 3034 1497 
Q 3034 2003 2786 2293 
Q 2538 2584 2113 2584 
z
M 3366 4563 
L 3366 3988 
Q 3128 4100 2886 4159 
Q 2644 4219 2406 4219 
Q 1781 4219 1451 3797 
Q 1122 3375 1075 2522 
Q 1259 2794 1537 2939 
Q 1816 3084 2150 3084 
Q 2853 3084 3261 2657 
Q 3669 2231 3669 1497 
Q 3669 778 3244 343 
Q 2819 -91 2113 -91 
Q 1303 -91 875 529 
Q 447 1150 447 2328 
Q 447 3434 972 4092 
Q 1497 4750 2381 4750 
Q 2619 4750 2861 4703 
Q 3103 4656 3366 4563 
z
" transform="scale(0.015625)"/>
       </defs>
       <use xlink:href="#DejaVuSans-36"/>
       <use xlink:href="#DejaVuSans-30" x="63.623047"/>
       <use xlink:href="#DejaVuSans-30" x="127.246094"/>
      </g>
     </g>
    </g>
    <g id="xtick_5">
     <g id="line2d_5">
      <g>
       <use xlink:href="#m7e5bb8e9e0" x="521.588043" y="384.48" style="stroke: #000000; stroke-width: 0.8"/>
      </g>
     </g>
     <g id="text_5">
      <!-- 800 -->
      <g transform="translate(512.044293 399.078438) scale(0.1 -0.1)">
       <defs>
        <path id="DejaVuSans-38" d="M 2034 2216 
Q 1584 2216 1326 1975 
Q 1069 1734 1069 1313 
Q 1069 891 1326 650 
Q 1584 409 2034 409 
Q 2484 409 2743 651 
Q 3003 894 3003 1313 
Q 3003 1734 2745 1975 
Q 2488 2216 2034 2216 
z
M 1403 2484 
Q 997 2584 770 2862 
Q 544 3141 544 3541 
Q 544 4100 942 4425 
Q 1341 4750 2034 4750 
Q 2731 4750 3128 4425 
Q 3525 4100 3525 3541 
Q 3525 3141 3298 2862 
Q 3072 2584 2669 2484 
Q 3125 2378 3379 2068 
Q 3634 1759 3634 1313 
Q 3634 634 3220 271 
Q 2806 -91 2034 -91 
Q 1263 -91 848 271 
Q 434 634 434 1313 
Q 434 1759 690 2068 
Q 947 2378 1403 2484 
z
M 1172 3481 
Q 1172 3119 1398 2916 
Q 1625 2713 2034 2713 
Q 2441 2713 2670 2916 
Q 2900 3119 2900 3481 
Q 2900 3844 2670 4047 
Q 2441 4250 2034 4250 
Q 1625 4250 1398 4047 
Q 1172 3844 1172 3481 
z
" transform="scale(0.015625)"/>
       </defs>
       <use xlink:href="#DejaVuSans-38"/>
       <use xlink:href="#DejaVuSans-30" x="63.623047"/>
       <use xlink:href="#DejaVuSans-30" x="127.246094"/>
      </g>
     </g>
    </g>
    <g id="xtick_6">
     <g id="line2d_6">
      <g>
       <use xlink:href="#m7e5bb8e9e0" x="623.144144" y="384.48" style="stroke: #000000; stroke-width: 0.8"/>
      </g>
     </g>
     <g id="text_6">
      <!-- 1000 -->
      <g transform="translate(610.419144 399.078438) scale(0.1 -0.1)">
       <defs>
        <path id="DejaVuSans-31" d="M 794 531 
L 1825 531 
L 1825 4091 
L 703 3866 
L 703 4441 
L 1819 4666 
L 2450 4666 
L 2450 531 
L 3481 531 
L 3481 0 
L 794 0 
L 794 531 
z
" transform="scale(0.015625)"/>
       </defs>
       <use xlink:href="#DejaVuSans-31"/>
       <use xlink:href="#DejaVuSans-30" x="63.623047"/>
       <use xlink:href="#DejaVuSans-30" x="127.246094"/>
       <use xlink:href="#DejaVuSans-30" x="190.869141"/>
      </g>
     </g>
    </g>
    <g id="text_7">
     <!-- Epoch -->
     <g transform="translate(353.689062 412.756563) scale(0.1 -0.1)">
      <defs>
       <path id="DejaVuSans-45" d="M 628 4666 
L 3578 4666 
L 3578 4134 
L 1259 4134 
L 1259 2753 
L 3481 2753 
L 3481 2222 
L 1259 2222 
L 1259 531 
L 3634 531 
L 3634 0 
L 628 0 
L 628 4666 
z
" transform="scale(0.015625)"/>
       <path id="DejaVuSans-70" d="M 1159 525 
L 1159 -1331 
L 581 -1331 
L 581 3500 
L 1159 3500 
L 1159 2969 
Q 1341 3281 1617 3432 
Q 1894 3584 2278 3584 
Q 2916 3584 3314 3078 
Q 3713 2572 3713 1747 
Q 3713 922 3314 415 
Q 2916 -91 2278 -91 
Q 1894 -91 1617 61 
Q 1341 213 1159 525 
z
M 3116 1747 
Q 3116 2381 2855 2742 
Q 2594 3103 2138 3103 
Q 1681 3103 1420 2742 
Q 1159 2381 1159 1747 
Q 1159 1113 1420 752 
Q 1681 391 2138 391 
Q 2594 391 2855 752 
Q 3116 1113 3116 1747 
z
" transform="scale(0.015625)"/>
       <path id="DejaVuSans-6f" d="M 1959 3097 
Q 1497 3097 1228 2736 
Q 959 2375 959 1747 
Q 959 1119 1226 758 
Q 1494 397 1959 397 
Q 2419 397 2687 759 
Q 2956 1122 2956 1747 
Q 2956 2369 2687 2733 
Q 2419 3097 1959 3097 
z
M 1959 3584 
Q 2709 3584 3137 3096 
Q 3566 2609 3566 1747 
Q 3566 888 3137 398 
Q 2709 -91 1959 -91 
Q 1206 -91 779 398 
Q 353 888 353 1747 
Q 353 2609 779 3096 
Q 1206 3584 1959 3584 
z
" transform="scale(0.015625)"/>
       <path id="DejaVuSans-63" d="M 3122 3366 
L 3122 2828 
Q 2878 2963 2633 3030 
Q 2388 3097 2138 3097 
Q 1578 3097 1268 2742 
Q 959 2388 959 1747 
Q 959 1106 1268 751 
Q 1578 397 2138 397 
Q 2388 397 2633 464 
Q 2878 531 3122 666 
L 3122 134 
Q 2881 22 2623 -34 
Q 2366 -91 2075 -91 
Q 1284 -91 818 406 
Q 353 903 353 1747 
Q 353 2603 823 3093 
Q 1294 3584 2113 3584 
Q 2378 3584 2631 3529 
Q 2884 3475 3122 3366 
z
" transform="scale(0.015625)"/>
       <path id="DejaVuSans-68" d="M 3513 2113 
L 3513 0 
L 2938 0 
L 2938 2094 
Q 2938 2591 2744 2837 
Q 2550 3084 2163 3084 
Q 1697 3084 1428 2787 
Q 1159 2491 1159 1978 
L 1159 0 
L 581 0 
L 581 4863 
L 1159 4863 
L 1159 2956 
Q 1366 3272 1645 3428 
Q 1925 3584 2291 3584 
Q 2894 3584 3203 3211 
Q 3513 2838 3513 2113 
z
" transform="scale(0.015625)"/>
      </defs>
      <use xlink:href="#DejaVuSans-45"/>
      <use xlink:href="#DejaVuSans-70" x="63.183594"/>
      <use xlink:href="#DejaVuSans-6f" x="126.660156"/>
      <use xlink:href="#DejaVuSans-63" x="187.841797"/>
      <use xlink:href="#DejaVuSans-68" x="242.822266"/>
     </g>
    </g>
   </g>
   <g id="matplotlib.axis_2">
    <g id="ytick_1">
     <g id="line2d_7">
      <defs>
       <path id="m6b7740870c" d="M 0 0 
L -3.5 0 
" style="stroke: #000000; stroke-width: 0.8"/>
      </defs>
      <g>
       <use xlink:href="#m6b7740870c" x="90" y="369.360712" style="stroke: #000000; stroke-width: 0.8"/>
      </g>
     </g>
     <g id="text_8">
      <!-- 0.0 -->
      <g transform="translate(67.096875 373.15993) scale(0.1 -0.1)">
       <defs>
        <path id="DejaVuSans-2e" d="M 684 794 
L 1344 794 
L 1344 0 
L 684 0 
L 684 794 
z
" transform="scale(0.015625)"/>
       </defs>
       <use xlink:href="#DejaVuSans-30"/>
       <use xlink:href="#DejaVuSans-2e" x="63.623047"/>
       <use xlink:href="#DejaVuSans-30" x="95.410156"/>
      </g>
     </g>
    </g>
    <g id="ytick_2">
     <g id="line2d_8">
      <g>
       <use xlink:href="#m6b7740870c" x="90" y="308.87936" style="stroke: #000000; stroke-width: 0.8"/>
      </g>
     </g>
     <g id="text_9">
      <!-- 0.2 -->
      <g transform="translate(67.096875 312.678578) scale(0.1 -0.1)">
       <use xlink:href="#DejaVuSans-30"/>
       <use xlink:href="#DejaVuSans-2e" x="63.623047"/>
       <use xlink:href="#DejaVuSans-32" x="95.410156"/>
      </g>
     </g>
    </g>
    <g id="ytick_3">
     <g id="line2d_9">
      <g>
       <use xlink:href="#m6b7740870c" x="90" y="248.398008" style="stroke: #000000; stroke-width: 0.8"/>
      </g>
     </g>
     <g id="text_10">
      <!-- 0.4 -->
      <g transform="translate(67.096875 252.197226) scale(0.1 -0.1)">
       <use xlink:href="#DejaVuSans-30"/>
       <use xlink:href="#DejaVuSans-2e" x="63.623047"/>
       <use xlink:href="#DejaVuSans-34" x="95.410156"/>
      </g>
     </g>
    </g>
    <g id="ytick_4">
     <g id="line2d_10">
      <g>
       <use xlink:href="#m6b7740870c" x="90" y="187.916656" style="stroke: #000000; stroke-width: 0.8"/>
      </g>
     </g>
     <g id="text_11">
      <!-- 0.6 -->
      <g transform="translate(67.096875 191.715874) scale(0.1 -0.1)">
       <use xlink:href="#DejaVuSans-30"/>
       <use xlink:href="#DejaVuSans-2e" x="63.623047"/>
       <use xlink:href="#DejaVuSans-36" x="95.410156"/>
      </g>
     </g>
    </g>
    <g id="ytick_5">
     <g id="line2d_11">
      <g>
       <use xlink:href="#m6b7740870c" x="90" y="127.435304" style="stroke: #000000; stroke-width: 0.8"/>
      </g>
     </g>
     <g id="text_12">
      <!-- 0.8 -->
      <g transform="translate(67.096875 131.234523) scale(0.1 -0.1)">
       <use xlink:href="#DejaVuSans-30"/>
       <use xlink:href="#DejaVuSans-2e" x="63.623047"/>
       <use xlink:href="#DejaVuSans-38" x="95.410156"/>
      </g>
     </g>
    </g>
    <g id="ytick_6">
     <g id="line2d_12">
      <g>
       <use xlink:href="#m6b7740870c" x="90" y="66.953952" style="stroke: #000000; stroke-width: 0.8"/>
      </g>
     </g>
     <g id="text_13">
      <!-- 1.0 -->
      <g transform="translate(67.096875 70.753171) scale(0.1 -0.1)">
       <use xlink:href="#DejaVuSans-31"/>
       <use xlink:href="#DejaVuSans-2e" x="63.623047"/>
       <use xlink:href="#DejaVuSans-30" x="95.410156"/>
      </g>
     </g>
    </g>
    <g id="text_14">
     <!-- Accuracy -->
     <g transform="translate(61.017187 240.988125) rotate(-90) scale(0.1 -0.1)">
      <defs>
       <path id="DejaVuSans-41" d="M 2188 4044 
L 1331 1722 
L 3047 1722 
L 2188 4044 
z
M 1831 4666 
L 2547 4666 
L 4325 0 
L 3669 0 
L 3244 1197 
L 1141 1197 
L 716 0 
L 50 0 
L 1831 4666 
z
" transform="scale(0.015625)"/>
       <path id="DejaVuSans-75" d="M 544 1381 
L 544 3500 
L 1119 3500 
L 1119 1403 
Q 1119 906 1312 657 
Q 1506 409 1894 409 
Q 2359 409 2629 706 
Q 2900 1003 2900 1516 
L 2900 3500 
L 3475 3500 
L 3475 0 
L 2900 0 
L 2900 538 
Q 2691 219 2414 64 
Q 2138 -91 1772 -91 
Q 1169 -91 856 284 
Q 544 659 544 1381 
z
M 1991 3584 
L 1991 3584 
z
" transform="scale(0.015625)"/>
       <path id="DejaVuSans-72" d="M 2631 2963 
Q 2534 3019 2420 3045 
Q 2306 3072 2169 3072 
Q 1681 3072 1420 2755 
Q 1159 2438 1159 1844 
L 1159 0 
L 581 0 
L 581 3500 
L 1159 3500 
L 1159 2956 
Q 1341 3275 1631 3429 
Q 1922 3584 2338 3584 
Q 2397 3584 2469 3576 
Q 2541 3569 2628 3553 
L 2631 2963 
z
" transform="scale(0.015625)"/>
       <path id="DejaVuSans-61" d="M 2194 1759 
Q 1497 1759 1228 1600 
Q 959 1441 959 1056 
Q 959 750 1161 570 
Q 1363 391 1709 391 
Q 2188 391 2477 730 
Q 2766 1069 2766 1631 
L 2766 1759 
L 2194 1759 
z
M 3341 1997 
L 3341 0 
L 2766 0 
L 2766 531 
Q 2569 213 2275 61 
Q 1981 -91 1556 -91 
Q 1019 -91 701 211 
Q 384 513 384 1019 
Q 384 1609 779 1909 
Q 1175 2209 1959 2209 
L 2766 2209 
L 2766 2266 
Q 2766 2663 2505 2880 
Q 2244 3097 1772 3097 
Q 1472 3097 1187 3025 
Q 903 2953 641 2809 
L 641 3341 
Q 956 3463 1253 3523 
Q 1550 3584 1831 3584 
Q 2591 3584 2966 3190 
Q 3341 2797 3341 1997 
z
" transform="scale(0.015625)"/>
       <path id="DejaVuSans-79" d="M 2059 -325 
Q 1816 -950 1584 -1140 
Q 1353 -1331 966 -1331 
L 506 -1331 
L 506 -850 
L 844 -850 
Q 1081 -850 1212 -737 
Q 1344 -625 1503 -206 
L 1606 56 
L 191 3500 
L 800 3500 
L 1894 763 
L 2988 3500 
L 3597 3500 
L 2059 -325 
z
" transform="scale(0.015625)"/>
      </defs>
      <use xlink:href="#DejaVuSans-41"/>
      <use xlink:href="#DejaVuSans-63" x="66.658203"/>
      <use xlink:href="#DejaVuSans-63" x="121.638672"/>
      <use xlink:href="#DejaVuSans-75" x="176.619141"/>
      <use xlink:href="#DejaVuSans-72" x="239.998047"/>
      <use xlink:href="#DejaVuSans-61" x="281.111328"/>
      <use xlink:href="#DejaVuSans-63" x="342.390625"/>
      <use xlink:href="#DejaVuSans-79" x="397.371094"/>
     </g>
    </g>
   </g>
   <g id="line2d_13">
    <path d="M 115.363636 332.793686 
L 115.871417 291.400249 
L 116.886978 247.835531 
L 117.902539 225.49372 
L 118.9181 206.266698 
L 119.42588 196.716692 
L 121.457002 169.832732 
L 122.472563 158.498526 
L 122.980344 152.734653 
L 123.995905 143.37214 
L 124.503686 137.033694 
L 127.550369 108.262715 
L 129.07371 96.245071 
L 129.581491 93.221003 
L 130.089271 89.235282 
L 131.612613 82.503707 
L 132.628174 80.169127 
L 133.135954 77.979702 
L 133.643735 77.562381 
L 135.167076 74.756046 
L 136.690418 73.189579 
L 137.198198 73.117002 
L 137.705979 72.735969 
L 138.213759 72.088819 
L 138.72154 71.913423 
L 139.22932 71.949712 
L 139.737101 71.604968 
L 140.752662 70.62517 
L 142.276003 70.26833 
L 142.783784 70.522352 
L 143.291564 69.81472 
L 143.799345 69.947779 
L 144.307125 69.778431 
L 145.830467 69.633276 
L 146.338247 69.161521 
L 147.353808 69.29458 
L 147.861589 68.961933 
L 148.369369 69.070799 
L 149.892711 68.671622 
L 150.400491 68.822826 
L 150.908272 68.55066 
L 151.416052 68.659526 
L 152.939394 68.532515 
L 153.447174 68.22406 
L 153.954955 68.496226 
L 154.462735 68.411552 
L 154.970516 68.629285 
L 155.478296 68.272445 
L 157.001638 68.447841 
L 157.509419 68.326879 
L 158.017199 68.38736 
L 158.52498 68.097049 
L 159.03276 68.115194 
L 159.540541 68.000279 
L 161.063882 68.175675 
L 161.571663 67.957942 
L 162.079443 68.078905 
L 162.587224 67.939798 
L 163.095004 68.109146 
L 164.110565 68.060761 
L 164.618346 68.103098 
L 166.141687 67.806739 
L 167.157248 67.794643 
L 167.665029 68.012376 
L 168.68059 67.764402 
L 171.219492 67.794643 
L 171.727273 67.697872 
L 172.235053 67.843028 
L 172.742834 67.782546 
L 173.250614 67.915605 
L 173.758395 67.716017 
L 174.266175 67.734161 
L 174.773956 67.540621 
L 175.789517 67.716017 
L 176.297297 67.776498 
L 176.805078 67.468043 
L 177.312858 67.746258 
L 177.820639 67.474091 
L 178.328419 67.461995 
L 178.8362 67.649487 
L 179.34398 67.595054 
L 180.359541 67.67368 
L 181.882883 67.540621 
L 182.390663 67.582958 
L 182.898444 67.443851 
L 183.406224 67.498284 
L 184.421785 67.371273 
L 184.929566 67.371273 
L 185.437346 67.522477 
L 186.960688 67.341033 
L 187.468468 67.468043 
L 187.976249 67.383369 
L 188.484029 67.601102 
L 188.99181 67.41361 
L 189.49959 67.534573 
L 193.054054 67.383369 
L 194.577396 67.395466 
L 195.085176 67.347081 
L 195.592957 67.522477 
L 196.100737 67.552717 
L 197.116298 67.359177 
L 197.624079 67.516428 
L 198.63964 67.431755 
L 202.701884 67.371273 
L 203.717445 67.51038 
L 204.733006 67.322888 
L 207.271908 67.341033 
L 208.287469 67.256359 
L 208.79525 67.359177 
L 210.318591 67.268455 
L 212.349713 67.341033 
L 212.857494 67.268455 
L 213.365274 67.322888 
L 213.873055 67.22007 
L 214.380835 67.310792 
L 214.888616 67.226118 
L 217.427518 67.334984 
L 217.935299 67.232166 
L 218.95086 67.286599 
L 219.45864 67.207974 
L 219.966421 67.328936 
L 220.981982 67.177733 
L 221.489762 67.25031 
L 221.997543 67.177733 
L 223.013104 67.292647 
L 223.520885 67.189829 
L 225.044226 67.201925 
L 229.614251 67.147492 
L 230.122031 67.25031 
L 231.137592 67.226118 
L 232.153153 67.147492 
L 232.660934 67.111203 
L 233.676495 67.22007 
L 234.184275 67.087011 
L 235.199836 67.062818 
L 235.707617 67.22007 
L 236.215397 67.099107 
L 243.832105 67.232166 
L 244.339885 67.147492 
L 244.847666 67.298696 
L 245.863227 67.135396 
L 250.433251 67.1233 
L 250.941032 67.195877 
L 252.464373 67.15354 
L 253.479934 67.304744 
L 253.987715 67.189829 
L 255.003276 67.244262 
L 268.71335 67.074915 
L 269.22113 67.189829 
L 269.728911 67.105155 
L 271.252252 67.135396 
L 273.283374 67.111203 
L 274.806716 67.171685 
L 275.822277 67.141444 
L 276.330057 67.183781 
L 277.345618 67.093059 
L 277.853399 67.159588 
L 278.361179 67.093059 
L 279.884521 67.195877 
L 280.392301 67.135396 
L 280.900082 67.201925 
L 281.407862 67.1233 
L 281.915643 67.232166 
L 282.931204 67.1233 
L 283.438984 67.207974 
L 283.946765 67.099107 
L 290.040131 67.159588 
L 291.055692 67.05677 
L 291.563473 67.159588 
L 292.579034 67.093059 
L 294.610156 67.159588 
L 305.273546 67.038626 
L 305.781327 67.141444 
L 307.812449 67.026529 
L 309.843571 67.068866 
L 310.351351 67.020481 
L 311.366912 67.111203 
L 311.874693 67.038626 
L 312.382473 67.080963 
L 312.890254 67.002337 
L 313.398034 67.111203 
L 313.905815 67.032578 
L 314.921376 67.177733 
L 315.936937 67.032578 
L 316.444717 67.159588 
L 319.4914 67.135396 
L 319.999181 67.159588 
L 320.506962 67.062818 
L 322.030303 67.050722 
L 332.185913 67.032578 
L 332.693694 67.165637 
L 333.709255 67.062818 
L 337.771499 67.05677 
L 338.279279 67.1233 
L 338.78706 67.044674 
L 340.310401 67.111203 
L 341.325962 67.111203 
L 342.341523 67.050722 
L 344.880426 67.002337 
L 345.895987 67.074915 
L 347.927109 67.050722 
L 349.45045 67.062818 
L 351.481572 67.038626 
L 359.09828 67.080963 
L 360.113841 67.050722 
L 622.636364 67.020481 
L 622.636364 67.020481 
" clip-path="url(#pa5aa70a2f6)" style="fill: none; stroke: #1f77b4; stroke-width: 1.5; stroke-linecap: square"/>
   </g>
   <g id="line2d_14">
    <path d="M 115.363636 310.724041 
L 116.379197 256.56299 
L 116.886978 254.355421 
L 117.394758 240.353988 
L 118.410319 223.419209 
L 118.9181 215.012301 
L 119.42588 204.518787 
L 119.933661 202.976512 
L 120.441441 183.561998 
L 120.949222 182.503575 
L 121.457002 174.036185 
L 121.964783 173.189447 
L 122.472563 167.594921 
L 122.980344 169.016233 
L 123.488124 158.946088 
L 123.995905 154.258783 
L 124.503686 156.042983 
L 125.519247 148.906184 
L 126.027027 152.232658 
L 126.534808 147.484872 
L 127.042588 146.335726 
L 127.550369 142.706845 
L 128.058149 142.706845 
L 129.07371 140.317832 
L 130.089271 145.670431 
L 130.597052 139.501334 
L 131.104832 141.164571 
L 131.612613 146.365967 
L 132.120393 140.710961 
L 132.628174 140.075906 
L 133.135954 139.80374 
L 133.643735 139.138445 
L 134.151515 141.376255 
L 134.659296 139.229167 
L 135.167076 139.380371 
L 135.674857 140.801683 
L 136.182637 138.775557 
L 136.690418 138.412669 
L 137.198198 137.838096 
L 137.705979 137.928818 
L 138.213759 138.775557 
L 138.72154 136.900635 
L 139.22932 135.842212 
L 139.737101 136.900635 
L 140.244881 137.233283 
L 140.752662 135.418842 
L 141.260442 137.414727 
L 141.768223 136.295822 
L 142.276003 138.715076 
L 142.783784 135.32812 
L 143.291564 135.963174 
L 143.799345 135.237398 
L 144.307125 136.386544 
L 144.814906 135.358361 
L 145.322686 135.630527 
L 145.830467 137.656652 
L 146.338247 135.600286 
L 146.846028 135.842212 
L 147.353808 136.356303 
L 147.861589 135.509564 
L 148.369369 136.991357 
L 148.87715 135.176917 
L 149.38493 134.541863 
L 149.892711 134.602344 
L 150.400491 134.4209 
L 150.908272 135.842212 
L 151.416052 135.358361 
L 151.923833 134.390659 
L 152.431613 135.600286 
L 152.939394 135.691008 
L 153.447174 135.055954 
L 153.954955 134.934991 
L 154.462735 134.995473 
L 154.970516 136.537747 
L 155.478296 134.269697 
L 155.986077 136.144618 
L 156.493857 134.783788 
L 157.001638 135.358361 
L 157.509419 135.207158 
L 158.017199 135.388602 
L 158.52498 135.055954 
L 159.03276 135.358361 
L 159.540541 134.693066 
L 160.048321 134.844269 
L 160.556102 134.753547 
L 161.063882 134.118493 
L 161.571663 133.695124 
L 162.079443 134.511622 
L 162.587224 133.362476 
L 163.095004 134.753547 
L 163.602785 133.937049 
L 164.110565 133.634642 
L 164.618346 135.509564 
L 165.126126 134.934991 
L 165.633907 135.418842 
L 166.141687 134.662825 
L 166.649468 135.055954 
L 167.157248 134.269697 
L 167.665029 134.572103 
L 168.172809 134.209215 
L 168.68059 133.392717 
L 169.18837 135.358361 
L 169.696151 134.965232 
L 170.203931 134.934991 
L 170.711712 134.058012 
L 171.727273 133.301995 
L 172.235053 136.174859 
L 172.742834 134.541863 
L 173.250614 135.055954 
L 173.758395 137.717134 
L 174.266175 134.632585 
L 174.773956 134.209215 
L 175.281736 134.844269 
L 175.789517 135.146676 
L 176.297297 133.876568 
L 176.805078 134.481381 
L 177.312858 133.906808 
L 177.820639 133.99753 
L 178.328419 133.755605 
L 178.8362 134.995473 
L 179.34398 133.271754 
L 180.359541 135.116436 
L 180.867322 133.96729 
L 181.375102 133.51368 
L 181.882883 133.362476 
L 182.390663 134.027771 
L 182.898444 133.725364 
L 183.914005 133.937049 
L 184.421785 133.06007 
L 184.929566 133.271754 
L 185.437346 133.664883 
L 185.945127 133.241514 
L 186.452907 133.211273 
L 186.960688 135.872452 
L 187.468468 133.150792 
L 187.976249 132.213331 
L 188.484029 133.029829 
L 188.99181 134.481381 
L 189.49959 133.876568 
L 190.515152 134.088253 
L 191.022932 134.209215 
L 191.530713 134.209215 
L 192.038493 133.51368 
L 192.546274 132.425015 
L 193.054054 133.604402 
L 193.561835 135.237398 
L 194.069615 133.181032 
L 194.577396 134.602344 
L 195.085176 134.390659 
L 195.592957 133.301995 
L 196.100737 132.545978 
L 196.608518 133.181032 
L 197.116298 134.753547 
L 197.624079 133.392717 
L 198.131859 133.362476 
L 198.63964 134.058012 
L 199.14742 133.06007 
L 199.655201 132.939107 
L 200.162981 134.481381 
L 200.670762 133.120551 
L 201.178542 132.999588 
L 201.686323 132.273812 
L 202.194103 133.150792 
L 202.701884 133.453198 
L 203.209664 132.878625 
L 203.717445 133.664883 
L 204.225225 133.241514 
L 204.733006 132.666941 
L 205.240786 132.908866 
L 205.748567 134.239456 
L 206.256347 134.058012 
L 206.764128 133.604402 
L 207.271908 133.846327 
L 208.287469 132.606459 
L 208.79525 132.334293 
L 209.30303 133.06007 
L 209.810811 132.878625 
L 210.318591 132.545978 
L 210.826372 133.422958 
L 211.334152 133.422958 
L 211.841933 132.576219 
L 212.349713 132.666941 
L 212.857494 132.576219 
L 213.365274 132.6367 
L 213.873055 133.301995 
L 214.888616 131.820202 
L 215.396396 132.999588 
L 215.904177 133.301995 
L 216.411957 133.09031 
L 216.919738 133.362476 
L 217.935299 132.666941 
L 218.443079 132.545978 
L 218.95086 132.908866 
L 219.45864 133.06007 
L 219.966421 132.969348 
L 220.474201 133.211273 
L 220.981982 132.878625 
L 221.489762 132.727422 
L 221.997543 132.848385 
L 222.505324 133.211273 
L 223.013104 132.908866 
L 223.520885 131.578276 
L 224.028665 132.6367 
L 224.536446 132.485497 
L 225.044226 132.213331 
L 225.552007 133.181032 
L 226.059787 131.850442 
L 226.567568 131.517795 
L 227.075348 132.304053 
L 227.583129 132.787903 
L 228.090909 132.304053 
L 228.59869 132.606459 
L 229.10647 132.727422 
L 229.614251 132.727422 
L 230.122031 132.213331 
L 230.629812 132.062127 
L 231.137592 133.271754 
L 231.645373 132.334293 
L 232.153153 132.001646 
L 232.660934 132.031887 
L 233.168714 135.691008 
L 233.676495 133.725364 
L 234.184275 133.06007 
L 234.692056 132.999588 
L 235.199836 133.725364 
L 235.707617 132.818144 
L 236.215397 133.51368 
L 236.723178 132.425015 
L 237.738739 132.939107 
L 238.246519 133.846327 
L 238.7543 133.150792 
L 239.26208 132.999588 
L 239.769861 132.697181 
L 240.277641 134.027771 
L 240.785422 132.545978 
L 241.293202 132.727422 
L 241.800983 131.75972 
L 242.816544 131.638758 
L 243.324324 132.787903 
L 243.832105 132.787903 
L 244.847666 133.332236 
L 246.371007 132.092368 
L 246.878788 132.787903 
L 247.386568 132.878625 
L 247.894349 133.725364 
L 248.402129 134.088253 
L 248.90991 132.6367 
L 249.41769 133.604402 
L 249.925471 132.818144 
L 250.433251 132.364534 
L 250.941032 132.455256 
L 251.448812 133.453198 
L 251.956593 132.666941 
L 252.464373 132.818144 
L 252.972154 133.422958 
L 253.479934 134.4209 
L 253.987715 133.271754 
L 254.495495 132.455256 
L 255.003276 132.364534 
L 255.511057 132.908866 
L 256.018837 132.304053 
L 256.526618 133.362476 
L 257.034398 132.818144 
L 257.542179 133.362476 
L 258.049959 132.122609 
L 259.06552 133.392717 
L 259.573301 132.092368 
L 260.081081 133.604402 
L 260.588862 133.181032 
L 261.604423 132.908866 
L 262.112203 133.755605 
L 262.619984 132.425015 
L 263.127764 132.697181 
L 263.635545 132.334293 
L 264.143325 133.876568 
L 265.158886 131.941165 
L 265.666667 132.273812 
L 266.174447 132.878625 
L 266.682228 132.455256 
L 267.190008 133.271754 
L 267.697789 132.455256 
L 268.205569 132.666941 
L 268.71335 132.364534 
L 269.22113 133.362476 
L 269.728911 132.999588 
L 270.236691 133.029829 
L 270.744472 133.483439 
L 271.252252 133.029829 
L 271.760033 132.878625 
L 272.267813 133.301995 
L 272.775594 133.392717 
L 273.283374 132.304053 
L 273.791155 133.332236 
L 274.298935 132.213331 
L 274.806716 133.906808 
L 276.330057 132.334293 
L 277.345618 132.908866 
L 278.361179 132.243571 
L 278.86896 132.485497 
L 279.37674 133.362476 
L 279.884521 132.576219 
L 280.392301 133.241514 
L 281.407862 132.515737 
L 281.915643 133.362476 
L 282.423423 131.457314 
L 282.931204 131.880683 
L 283.438984 132.545978 
L 283.946765 132.122609 
L 284.962326 133.54392 
L 285.470106 132.757663 
L 285.977887 133.483439 
L 286.485667 132.969348 
L 286.993448 132.939107 
L 287.501229 133.664883 
L 288.009009 132.334293 
L 288.51679 132.818144 
L 289.02457 133.54392 
L 289.532351 132.092368 
L 290.547912 133.51368 
L 291.055692 132.092368 
L 291.563473 132.999588 
L 292.071253 132.908866 
L 293.086814 133.150792 
L 293.594595 132.515737 
L 294.102375 133.181032 
L 294.610156 133.301995 
L 295.117936 132.939107 
L 295.625717 132.18309 
L 296.133497 134.451141 
L 296.641278 133.362476 
L 297.149058 133.96729 
L 297.656839 132.213331 
L 298.164619 133.09031 
L 298.6724 132.606459 
L 299.18018 132.666941 
L 299.687961 132.848385 
L 300.195741 132.606459 
L 300.703522 132.878625 
L 301.211302 131.880683 
L 301.719083 133.99753 
L 302.226863 132.304053 
L 302.734644 133.755605 
L 303.242424 132.969348 
L 303.750205 133.453198 
L 304.257985 133.54392 
L 305.781327 132.062127 
L 306.289107 132.6367 
L 306.796888 131.910924 
L 307.304668 131.608517 
L 307.812449 132.334293 
L 308.320229 131.72948 
L 308.82801 132.455256 
L 309.33579 132.062127 
L 309.843571 131.366592 
L 310.351351 131.245629 
L 310.859132 132.394775 
L 311.366912 130.701297 
L 311.874693 131.548036 
L 312.382473 131.850442 
L 313.398034 132.092368 
L 313.905815 132.092368 
L 314.413595 133.06007 
L 314.921376 132.818144 
L 315.429156 133.604402 
L 315.936937 131.72948 
L 316.444717 132.848385 
L 316.952498 132.908866 
L 317.460278 131.941165 
L 317.968059 133.332236 
L 318.475839 132.001646 
L 319.4914 131.185148 
L 319.999181 131.910924 
L 320.506962 132.001646 
L 321.014742 132.273812 
L 321.522523 132.364534 
L 322.030303 131.517795 
L 322.538084 131.668998 
L 323.045864 131.30611 
L 323.553645 132.092368 
L 324.061425 131.789961 
L 324.569206 132.092368 
L 325.076986 133.664883 
L 325.584767 133.211273 
L 326.092547 132.001646 
L 326.600328 132.606459 
L 327.108108 132.576219 
L 327.615889 133.09031 
L 328.123669 131.941165 
L 328.63145 132.001646 
L 329.13923 131.578276 
L 329.647011 130.8525 
L 330.154791 131.245629 
L 330.662572 131.880683 
L 331.170352 133.332236 
L 331.678133 131.27587 
L 332.185913 132.152849 
L 332.693694 131.124666 
L 333.201474 133.029829 
L 333.709255 132.152849 
L 334.217035 131.72948 
L 334.724816 132.485497 
L 335.740377 131.910924 
L 336.248157 131.971405 
L 336.755938 132.757663 
L 337.263718 132.062127 
L 337.771499 132.425015 
L 338.279279 132.606459 
L 338.78706 132.666941 
L 339.29484 133.06007 
L 339.802621 132.213331 
L 340.310401 131.789961 
L 340.818182 131.789961 
L 341.325962 131.971405 
L 341.833743 132.576219 
L 342.341523 131.427073 
L 342.849304 132.394775 
L 343.357084 131.154907 
L 343.864865 131.27587 
L 344.372645 131.003704 
L 344.880426 130.39889 
L 345.388206 130.156965 
L 345.895987 130.39889 
L 346.403767 131.185148 
L 346.911548 132.394775 
L 347.419328 131.336351 
L 347.927109 132.485497 
L 348.434889 131.850442 
L 348.94267 132.18309 
L 349.958231 131.396832 
L 350.973792 133.392717 
L 351.481572 131.789961 
L 351.989353 131.396832 
L 353.004914 131.27587 
L 353.512695 131.638758 
L 354.020475 131.27587 
L 355.036036 131.608517 
L 355.543817 131.185148 
L 356.051597 131.668998 
L 356.559378 131.75972 
L 357.067158 132.606459 
L 357.574939 131.30611 
L 358.082719 132.001646 
L 358.5905 131.72948 
L 359.09828 131.27587 
L 359.606061 131.30611 
L 360.113841 132.304053 
L 361.129402 130.610575 
L 361.637183 131.608517 
L 362.144963 131.880683 
L 362.652744 131.064185 
L 363.668305 131.427073 
L 364.176085 132.697181 
L 364.683866 131.668998 
L 365.191646 132.001646 
L 365.699427 131.638758 
L 366.207207 132.576219 
L 367.730549 131.427073 
L 368.238329 130.973463 
L 368.74611 132.545978 
L 369.25389 131.366592 
L 369.761671 131.064185 
L 370.777232 131.880683 
L 371.285012 131.336351 
L 371.792793 131.820202 
L 372.300573 130.973463 
L 372.808354 131.003704 
L 373.316134 130.519853 
L 373.823915 130.671056 
L 374.331695 131.75972 
L 374.839476 131.638758 
L 375.347256 130.610575 
L 375.855037 130.792019 
L 376.362817 130.459371 
L 377.378378 132.364534 
L 377.886159 131.30611 
L 378.393939 131.548036 
L 378.90172 132.001646 
L 379.4095 131.336351 
L 379.917281 131.578276 
L 380.425061 132.545978 
L 380.932842 131.396832 
L 381.440622 131.820202 
L 381.948403 131.880683 
L 382.456183 130.671056 
L 382.963964 131.154907 
L 383.471744 132.213331 
L 383.979525 131.638758 
L 384.487305 132.515737 
L 384.995086 132.273812 
L 385.502867 132.999588 
L 386.010647 131.578276 
L 386.518428 132.697181 
L 387.026208 131.548036 
L 387.533989 133.029829 
L 388.041769 131.910924 
L 388.54955 132.122609 
L 389.05733 133.06007 
L 389.565111 132.6367 
L 390.072891 132.787903 
L 390.580672 132.122609 
L 391.088452 132.576219 
L 391.596233 133.664883 
L 392.611794 132.394775 
L 393.119574 133.725364 
L 393.627355 132.273812 
L 394.135135 133.362476 
L 394.642916 131.608517 
L 395.150696 131.215388 
L 395.658477 133.422958 
L 396.166257 131.668998 
L 396.674038 132.455256 
L 397.181818 132.606459 
L 398.197379 132.515737 
L 398.70516 131.971405 
L 399.21294 132.576219 
L 399.720721 132.364534 
L 400.228501 133.211273 
L 400.736282 132.818144 
L 401.244062 132.213331 
L 401.751843 133.120551 
L 402.259623 132.757663 
L 402.767404 132.545978 
L 403.275184 132.515737 
L 403.782965 133.06007 
L 404.290745 132.666941 
L 404.798526 133.392717 
L 405.306306 131.880683 
L 405.814087 131.880683 
L 406.321867 132.969348 
L 407.337428 132.304053 
L 407.845209 131.941165 
L 408.352989 132.213331 
L 409.36855 132.425015 
L 409.876331 132.304053 
L 410.384111 131.971405 
L 410.891892 132.878625 
L 411.399672 132.515737 
L 411.907453 132.908866 
L 412.415233 132.364534 
L 412.923014 132.334293 
L 413.430794 132.062127 
L 413.938575 131.578276 
L 414.446355 132.092368 
L 414.954136 131.880683 
L 415.461916 132.122609 
L 415.969697 132.576219 
L 416.477477 132.122609 
L 416.985258 131.850442 
L 417.493038 131.336351 
L 418.000819 132.394775 
L 418.5086 131.638758 
L 419.01638 132.031887 
L 419.524161 135.207158 
L 420.031941 132.425015 
L 420.539722 131.517795 
L 421.047502 132.152849 
L 421.555283 131.396832 
L 422.063063 132.727422 
L 422.570844 131.910924 
L 423.078624 132.818144 
L 423.586405 131.668998 
L 424.094185 132.243571 
L 424.601966 131.638758 
L 425.109746 132.455256 
L 425.617527 131.75972 
L 426.125307 131.820202 
L 426.633088 131.003704 
L 427.140868 132.031887 
L 427.648649 132.485497 
L 428.156429 132.697181 
L 428.66421 131.72948 
L 429.17199 131.820202 
L 429.679771 132.062127 
L 430.187551 132.545978 
L 430.695332 131.820202 
L 431.203112 132.666941 
L 432.218673 131.971405 
L 433.234234 132.062127 
L 433.742015 132.485497 
L 434.249795 132.545978 
L 434.757576 133.150792 
L 435.265356 133.211273 
L 435.773137 132.878625 
L 436.280917 132.304053 
L 436.788698 132.364534 
L 437.296478 132.666941 
L 438.312039 132.152849 
L 438.81982 132.455256 
L 439.835381 132.122609 
L 440.343161 132.001646 
L 440.850942 131.699239 
L 441.866503 132.515737 
L 443.389844 131.608517 
L 443.897625 131.487554 
L 444.405405 131.75972 
L 444.913186 132.515737 
L 445.420966 131.72948 
L 446.436527 130.8525 
L 446.944308 132.848385 
L 447.452088 131.789961 
L 447.959869 131.245629 
L 448.467649 132.757663 
L 448.97543 131.910924 
L 449.48321 132.818144 
L 449.990991 131.548036 
L 450.498771 132.092368 
L 451.006552 132.243571 
L 451.514333 131.789961 
L 452.022113 132.092368 
L 452.529894 132.787903 
L 453.037674 131.820202 
L 453.545455 132.848385 
L 454.053235 131.971405 
L 454.561016 132.304053 
L 455.068796 132.334293 
L 455.576577 131.548036 
L 456.084357 132.334293 
L 456.592138 132.122609 
L 457.099918 132.213331 
L 457.607699 133.06007 
L 458.62326 132.848385 
L 459.13104 131.427073 
L 459.638821 132.001646 
L 460.146601 131.396832 
L 460.654382 131.487554 
L 461.162162 131.699239 
L 461.669943 130.943222 
L 462.177723 131.487554 
L 462.685504 131.27587 
L 463.193284 132.6367 
L 463.701065 132.001646 
L 464.208845 131.820202 
L 464.716626 131.941165 
L 465.224406 131.638758 
L 465.732187 131.608517 
L 466.239967 131.880683 
L 466.747748 132.545978 
L 467.255528 131.910924 
L 467.763309 132.213331 
L 468.271089 132.334293 
L 468.77887 132.6367 
L 469.28665 133.09031 
L 469.794431 131.487554 
L 470.302211 132.394775 
L 470.809992 132.062127 
L 471.317772 132.515737 
L 471.825553 131.75972 
L 472.333333 132.213331 
L 473.348894 131.638758 
L 474.364455 131.820202 
L 474.872236 131.064185 
L 475.380016 132.848385 
L 476.395577 131.215388 
L 476.903358 130.912982 
L 477.411138 131.064185 
L 477.918919 131.72948 
L 478.93448 134.360419 
L 479.44226 133.241514 
L 479.950041 131.427073 
L 480.457821 131.75972 
L 480.965602 131.396832 
L 481.473382 131.185148 
L 482.488943 132.364534 
L 482.996724 132.757663 
L 483.504505 131.457314 
L 484.012285 131.668998 
L 484.520066 132.152849 
L 485.027846 131.578276 
L 485.535627 131.971405 
L 486.043407 131.72948 
L 486.551188 132.394775 
L 487.058968 132.001646 
L 487.566749 131.185148 
L 488.074529 130.792019 
L 488.58231 131.789961 
L 489.09009 131.30611 
L 489.597871 131.668998 
L 490.105651 131.668998 
L 490.613432 131.396832 
L 491.121212 133.120551 
L 491.628993 131.699239 
L 492.136773 130.912982 
L 492.644554 130.8525 
L 493.152334 132.062127 
L 493.660115 131.27587 
L 494.167895 132.092368 
L 495.183456 132.304053 
L 495.691237 131.366592 
L 496.199017 132.576219 
L 496.706798 132.001646 
L 497.214578 133.725364 
L 497.722359 131.396832 
L 498.230139 132.848385 
L 498.73792 132.001646 
L 499.2457 132.394775 
L 499.753481 131.215388 
L 500.261261 132.455256 
L 500.769042 131.820202 
L 501.276822 132.334293 
L 501.784603 132.152849 
L 502.292383 130.550093 
L 502.800164 130.701297 
L 503.307944 131.094426 
L 503.815725 131.033944 
L 504.831286 132.455256 
L 505.846847 132.243571 
L 506.354627 131.850442 
L 506.862408 131.699239 
L 507.370188 132.122609 
L 507.877969 131.30611 
L 508.385749 132.152849 
L 508.89353 131.789961 
L 509.40131 131.850442 
L 509.909091 130.912982 
L 510.416871 131.72948 
L 510.924652 130.701297 
L 511.432432 131.638758 
L 511.940213 131.064185 
L 512.447993 131.094426 
L 512.955774 131.487554 
L 513.971335 131.578276 
L 514.479115 131.154907 
L 515.494676 132.031887 
L 516.002457 131.366592 
L 517.018018 131.941165 
L 517.525799 132.848385 
L 518.54136 132.394775 
L 519.04914 131.75972 
L 519.556921 131.578276 
L 520.064701 133.06007 
L 520.572482 132.334293 
L 521.080262 132.757663 
L 521.588043 132.122609 
L 522.095823 132.334293 
L 523.619165 131.638758 
L 524.634726 131.578276 
L 525.142506 132.969348 
L 525.650287 132.848385 
L 526.158067 131.396832 
L 526.665848 130.792019 
L 527.173628 131.850442 
L 527.681409 130.82226 
L 528.189189 131.578276 
L 528.69697 133.09031 
L 529.20475 132.213331 
L 529.712531 132.6367 
L 530.220311 131.850442 
L 530.728092 131.366592 
L 531.235872 131.941165 
L 532.251433 131.215388 
L 532.759214 131.72948 
L 533.266994 131.668998 
L 533.774775 131.971405 
L 534.282555 132.908866 
L 534.790336 132.515737 
L 535.298116 134.330178 
L 535.805897 132.697181 
L 536.313677 132.001646 
L 536.821458 132.243571 
L 537.329238 132.062127 
L 537.837019 132.666941 
L 538.344799 131.215388 
L 538.85258 131.396832 
L 539.36036 131.215388 
L 539.868141 131.820202 
L 540.375921 131.578276 
L 540.883702 132.273812 
L 541.391482 131.608517 
L 542.407043 133.453198 
L 543.422604 132.334293 
L 543.930385 133.54392 
L 544.438165 131.75972 
L 544.945946 132.122609 
L 545.453726 132.304053 
L 545.961507 131.910924 
L 546.469287 131.789961 
L 546.977068 131.910924 
L 547.484848 131.789961 
L 547.992629 131.336351 
L 548.50041 132.062127 
L 549.00819 132.545978 
L 549.515971 132.818144 
L 550.023751 131.850442 
L 550.531532 132.031887 
L 551.039312 132.364534 
L 551.547093 131.910924 
L 552.054873 132.757663 
L 552.562654 131.366592 
L 553.070434 131.124666 
L 553.578215 131.215388 
L 554.085995 131.850442 
L 554.593776 132.031887 
L 555.609337 131.124666 
L 556.117117 131.608517 
L 556.624898 132.787903 
L 557.132678 131.124666 
L 557.640459 131.094426 
L 558.148239 131.427073 
L 558.65602 131.30611 
L 559.1638 131.30611 
L 559.671581 130.943222 
L 560.179361 131.124666 
L 560.687142 131.185148 
L 561.194922 130.640815 
L 561.702703 129.915039 
L 562.718264 131.427073 
L 563.226044 130.429131 
L 563.733825 130.489612 
L 564.241605 132.425015 
L 564.749386 131.789961 
L 565.257166 131.457314 
L 565.764947 132.304053 
L 566.272727 131.215388 
L 566.780508 131.366592 
L 567.288288 131.27587 
L 567.796069 131.427073 
L 568.303849 131.789961 
L 568.81163 131.880683 
L 569.31941 131.578276 
L 569.827191 131.457314 
L 570.334971 131.003704 
L 571.350532 132.062127 
L 571.858313 132.243571 
L 572.366093 130.973463 
L 572.873874 131.880683 
L 573.381654 131.789961 
L 573.889435 131.094426 
L 575.412776 131.72948 
L 575.920557 131.548036 
L 576.428337 131.185148 
L 576.936118 131.517795 
L 577.443898 131.396832 
L 577.951679 131.910924 
L 578.96724 131.427073 
L 579.47502 131.820202 
L 579.982801 132.031887 
L 580.490581 131.215388 
L 580.998362 132.092368 
L 581.506143 132.455256 
L 582.013923 131.27587 
L 582.521704 132.243571 
L 583.537265 131.185148 
L 584.045045 131.033944 
L 584.552826 131.396832 
L 585.060606 131.215388 
L 585.568387 131.185148 
L 586.583948 131.910924 
L 587.091728 132.122609 
L 587.599509 131.910924 
L 588.107289 131.427073 
L 588.61507 131.789961 
L 589.12285 130.943222 
L 589.630631 131.820202 
L 590.646192 132.062127 
L 591.153972 131.064185 
L 591.661753 131.124666 
L 592.169533 132.062127 
L 592.677314 131.427073 
L 593.185094 132.606459 
L 593.692875 131.487554 
L 594.200655 131.245629 
L 594.708436 131.75972 
L 595.216216 131.548036 
L 595.723997 131.608517 
L 596.231777 131.850442 
L 596.739558 132.243571 
L 597.247338 131.608517 
L 597.755119 131.487554 
L 598.262899 131.789961 
L 598.77068 131.064185 
L 599.27846 131.789961 
L 600.294021 131.215388 
L 600.801802 130.792019 
L 601.309582 131.215388 
L 601.817363 130.943222 
L 602.325143 131.517795 
L 602.832924 131.215388 
L 603.340704 131.245629 
L 603.848485 130.368649 
L 604.356265 131.124666 
L 604.864046 130.973463 
L 605.371826 131.033944 
L 605.879607 131.517795 
L 606.387387 131.185148 
L 606.895168 131.003704 
L 607.402948 131.003704 
L 607.910729 130.550093 
L 608.418509 130.550093 
L 608.92629 130.882741 
L 609.43407 132.031887 
L 609.941851 130.640815 
L 610.449631 131.427073 
L 610.957412 131.396832 
L 611.465192 130.156965 
L 611.972973 131.75972 
L 612.480753 130.8525 
L 612.988534 131.003704 
L 613.496314 131.033944 
L 614.511876 131.487554 
L 615.019656 131.003704 
L 615.527437 131.245629 
L 616.035217 130.308168 
L 616.542998 131.457314 
L 617.050778 130.429131 
L 617.558559 131.699239 
L 618.066339 130.912982 
L 618.57412 132.092368 
L 619.589681 131.487554 
L 620.605242 130.277927 
L 621.113022 131.548036 
L 621.620803 131.517795 
L 622.128583 132.455256 
L 622.636364 130.973463 
L 622.636364 130.973463 
" clip-path="url(#pa5aa70a2f6)" style="fill: none; stroke: #ff7f0e; stroke-width: 1.5; stroke-linecap: square"/>
   </g>
   <g id="line2d_15">
    <path d="M 115.363636 358.572629 
L 116.379197 360.710828 
L 116.886978 361.625704 
L 117.902539 362.530869 
L 119.42588 363.629471 
L 121.457002 364.754172 
L 127.550369 367.524448 
L 129.581491 368.20461 
L 131.104832 368.571697 
L 133.135954 368.855165 
L 141.260442 369.194625 
L 222.505324 369.347085 
L 259.06552 369.349713 
L 286.993448 369.35334 
L 313.398034 369.35349 
L 336.248157 369.357698 
L 348.94267 369.355755 
L 393.627355 369.356132 
L 446.436527 369.357681 
L 501.276822 369.354445 
L 518.033579 369.358483 
L 535.805897 369.355146 
L 622.128583 369.358444 
L 622.636364 369.357457 
L 622.636364 369.357457 
" clip-path="url(#pa5aa70a2f6)" style="fill: none; stroke: #2ca02c; stroke-width: 1.5; stroke-linecap: square"/>
   </g>
   <g id="line2d_16">
    <path d="M 115.363636 358.977813 
L 116.379197 361.351375 
L 116.886978 361.52284 
L 117.902539 362.482763 
L 118.410319 362.636107 
L 119.42588 363.281755 
L 119.933661 363.312008 
L 120.441441 364.127075 
L 120.949222 364.144921 
L 121.457002 364.555673 
L 121.964783 364.537509 
L 122.472563 364.737385 
L 122.980344 364.636693 
L 123.488124 365.146173 
L 123.995905 365.344006 
L 124.503686 365.175013 
L 125.519247 365.462996 
L 126.027027 365.179917 
L 126.534808 365.394242 
L 127.042588 365.255273 
L 127.550369 365.350845 
L 129.07371 365.173516 
L 130.089271 364.391523 
L 130.597052 364.884425 
L 131.104832 364.573196 
L 131.612613 363.614478 
L 132.120393 364.310344 
L 132.628174 364.171126 
L 133.643735 364.144773 
L 134.151515 363.778795 
L 135.167076 363.91646 
L 135.674857 363.546162 
L 136.182637 363.740333 
L 136.690418 363.572747 
L 137.705979 363.620854 
L 138.213759 363.291399 
L 138.72154 363.336327 
L 139.22932 363.519091 
L 140.244881 363.050614 
L 140.752662 363.311371 
L 141.768223 363.203153 
L 142.276003 362.692787 
L 142.783784 363.182594 
L 143.291564 363.223584 
L 144.307125 362.867397 
L 144.814906 363.007409 
L 146.846028 362.849675 
L 147.353808 362.913051 
L 147.861589 362.679643 
L 148.87715 362.779374 
L 149.892711 362.558929 
L 150.400491 362.620803 
L 150.908272 362.29716 
L 151.416052 362.491157 
L 151.923833 362.368034 
L 152.431613 362.499185 
L 152.939394 362.491654 
L 153.447174 362.320518 
L 153.954955 362.449422 
L 154.462735 362.369475 
L 154.970516 362.081191 
L 155.478296 362.413569 
L 155.986077 362.158957 
L 156.493857 362.449394 
L 157.001638 362.232782 
L 157.509419 362.148198 
L 158.017199 362.358368 
L 158.52498 362.443633 
L 159.540541 362.213801 
L 160.048321 361.986798 
L 160.556102 362.215662 
L 161.571663 362.312793 
L 162.587224 361.959438 
L 163.095004 362.193961 
L 163.602785 362.21937 
L 164.110565 362.125263 
L 164.618346 362.170865 
L 165.126126 361.896673 
L 165.633907 362.050047 
L 166.141687 361.929325 
L 166.649468 362.140206 
L 167.157248 361.889093 
L 167.665029 362.108726 
L 168.68059 362.018572 
L 170.203931 361.614468 
L 170.711712 362.000246 
L 171.219492 361.811324 
L 171.727273 361.817381 
L 172.235053 361.649501 
L 173.250614 361.700531 
L 173.758395 361.363471 
L 174.266175 361.816773 
L 174.773956 361.874792 
L 175.789517 361.599848 
L 176.805078 361.684817 
L 177.820639 361.495732 
L 178.328419 361.647193 
L 178.8362 361.542471 
L 180.359541 361.620637 
L 180.867322 361.338215 
L 181.375102 361.63118 
L 183.406224 361.533917 
L 183.914005 361.340309 
L 184.421785 361.662627 
L 184.929566 361.559285 
L 185.437346 361.62654 
L 185.945127 361.366571 
L 186.452907 361.589834 
L 186.960688 360.683962 
L 187.468468 361.16896 
L 187.976249 361.307318 
L 188.99181 360.935973 
L 189.49959 361.289702 
L 190.007371 360.929363 
L 190.515152 361.130215 
L 191.022932 361.148764 
L 191.530713 361.397849 
L 192.038493 361.245115 
L 192.546274 361.419152 
L 193.054054 361.30397 
L 193.561835 360.978222 
L 194.069615 361.12351 
L 195.085176 361.184854 
L 195.592957 361.352844 
L 196.100737 361.169422 
L 196.608518 361.491866 
L 197.116298 360.997021 
L 198.131859 361.287793 
L 199.14742 361.447393 
L 199.655201 361.022501 
L 201.686323 361.340769 
L 202.701884 361.01841 
L 203.209664 361.235198 
L 204.225225 361.277787 
L 205.240786 361.088471 
L 205.748567 360.643227 
L 206.256347 361.227101 
L 206.764128 361.14992 
L 207.271908 361.25951 
L 207.779689 361.173262 
L 208.287469 361.272923 
L 209.30303 360.909107 
L 210.318591 360.931192 
L 210.826372 360.79828 
L 211.334152 361.14067 
L 211.841933 361.033008 
L 212.349713 361.208598 
L 212.857494 361.107874 
L 213.365274 361.264438 
L 213.873055 360.999973 
L 215.396396 361.151001 
L 215.904177 361.098009 
L 216.411957 360.77782 
L 216.919738 360.923378 
L 217.427518 360.796859 
L 217.935299 361.052874 
L 218.95086 360.815619 
L 219.45864 361.000565 
L 220.474201 360.917416 
L 220.981982 360.549054 
L 221.489762 360.942701 
L 221.997543 360.717143 
L 223.013104 360.961381 
L 224.536446 360.960278 
L 225.044226 361.017291 
L 226.059787 360.767955 
L 227.075348 360.7161 
L 228.090909 360.781685 
L 228.59869 360.48359 
L 229.10647 360.795014 
L 230.629812 360.969248 
L 231.137592 360.788939 
L 232.153153 360.899551 
L 233.168714 360.486345 
L 234.184275 360.544021 
L 234.692056 360.610506 
L 235.199836 360.35095 
L 235.707617 360.457698 
L 236.215397 360.423133 
L 237.738739 360.596867 
L 238.246519 360.329878 
L 238.7543 360.650597 
L 239.26208 360.439168 
L 239.769861 360.517793 
L 240.785422 360.379404 
L 241.293202 360.497888 
L 241.800983 360.319169 
L 242.308763 360.430177 
L 243.324324 360.418825 
L 243.832105 360.67049 
L 244.339885 360.558694 
L 244.847666 360.573177 
L 245.355446 360.418369 
L 245.863227 360.454564 
L 246.371007 360.294484 
L 247.386568 360.591218 
L 247.894349 360.599266 
L 248.402129 360.055598 
L 248.90991 360.051256 
L 249.925471 360.465223 
L 250.941032 360.167071 
L 251.448812 360.349308 
L 251.956593 360.360428 
L 252.464373 360.056856 
L 252.972154 360.288446 
L 253.987715 360.243528 
L 254.495495 359.884184 
L 255.003276 360.376569 
L 255.511057 360.548194 
L 256.018837 360.592592 
L 256.526618 360.504757 
L 257.034398 360.644692 
L 257.542179 360.431817 
L 258.049959 360.528747 
L 258.55774 360.499796 
L 259.06552 360.19293 
L 259.573301 360.602356 
L 260.588862 360.5042 
L 261.096642 360.697407 
L 261.604423 360.734029 
L 262.619984 360.527688 
L 263.635545 360.508753 
L 264.143325 360.283796 
L 264.651106 360.570926 
L 266.174447 360.253674 
L 266.682228 360.394552 
L 267.190008 360.143725 
L 267.697789 360.547718 
L 268.205569 360.39749 
L 268.71335 360.526001 
L 270.236691 360.179669 
L 271.252252 360.315515 
L 272.267813 360.38255 
L 272.775594 360.464102 
L 273.283374 360.427718 
L 273.791155 359.903343 
L 274.298935 360.257695 
L 274.806716 359.937067 
L 275.314496 360.301756 
L 276.837838 360.443636 
L 277.345618 360.275548 
L 277.853399 360.52419 
L 278.361179 360.245432 
L 278.86896 360.17269 
L 279.37674 360.329702 
L 279.884521 360.311463 
L 280.392301 359.986703 
L 281.915643 360.075031 
L 282.423423 360.067779 
L 282.931204 360.266766 
L 283.946765 360.368945 
L 284.962326 360.075163 
L 285.470106 360.256643 
L 285.977887 360.291419 
L 286.485667 359.891988 
L 286.993448 360.18764 
L 288.009009 360.104597 
L 288.51679 360.199808 
L 289.02457 360.046778 
L 289.532351 360.54957 
L 290.040131 360.547597 
L 290.547912 360.25194 
L 291.055692 360.49851 
L 292.071253 360.282977 
L 292.579034 360.247912 
L 293.086814 359.931114 
L 293.594595 360.156561 
L 294.102375 360.181104 
L 295.117936 359.914557 
L 296.641278 360.237494 
L 297.656839 360.100348 
L 298.164619 359.91165 
L 300.195741 360.273087 
L 300.703522 360.177935 
L 301.211302 360.199703 
L 301.719083 360.00517 
L 303.242424 360.347416 
L 303.750205 359.990243 
L 304.257985 359.897816 
L 304.765766 360.068157 
L 305.273546 359.950635 
L 305.781327 360.150051 
L 306.796888 359.894092 
L 307.812449 360.126885 
L 308.82801 359.965244 
L 309.33579 360.130566 
L 310.351351 360.08388 
L 310.859132 359.715071 
L 311.366912 360.21816 
L 311.874693 360.042067 
L 312.382473 359.692858 
L 313.398034 359.882357 
L 314.921376 359.555534 
L 315.429156 359.826076 
L 317.460278 360.044114 
L 317.968059 359.834287 
L 318.475839 359.968672 
L 320.506962 359.903967 
L 321.522523 359.896891 
L 322.030303 359.917705 
L 322.538084 359.757247 
L 323.045864 359.962049 
L 324.061425 359.687328 
L 324.569206 359.909865 
L 325.076986 359.540955 
L 325.584767 359.703791 
L 326.092547 359.635297 
L 326.600328 359.763798 
L 327.108108 359.520785 
L 327.615889 359.853118 
L 329.13923 359.804171 
L 329.647011 359.971302 
L 330.154791 359.9179 
L 330.662572 359.622964 
L 331.170352 359.702573 
L 331.678133 360.172793 
L 332.185913 360.091808 
L 332.693694 360.129513 
L 333.201474 359.941732 
L 334.217035 360.188656 
L 334.724816 359.764222 
L 335.232596 360.035133 
L 336.755938 359.937642 
L 337.771499 360.031564 
L 338.279279 359.958205 
L 338.78706 360.187127 
L 339.29484 360.032086 
L 339.802621 360.15392 
L 340.310401 360.107142 
L 340.818182 359.943191 
L 341.325962 360.036598 
L 341.833743 359.817911 
L 342.341523 360.084335 
L 342.849304 359.922001 
L 343.357084 360.115873 
L 343.864865 359.730106 
L 344.372645 360.090352 
L 344.880426 360.074931 
L 345.388206 359.929838 
L 345.895987 359.913172 
L 346.403767 359.554981 
L 348.434889 360.011032 
L 348.94267 359.949204 
L 349.45045 359.653309 
L 349.958231 359.811919 
L 350.466011 359.649271 
L 350.973792 359.824871 
L 351.481572 359.875463 
L 351.989353 360.093858 
L 352.497133 359.705414 
L 353.512695 359.989407 
L 354.020475 359.533004 
L 354.528256 359.595131 
L 355.543817 359.590142 
L 356.051597 359.768636 
L 358.082719 359.540924 
L 358.5905 359.597621 
L 359.09828 359.459553 
L 359.606061 359.564446 
L 360.113841 359.349457 
L 360.621622 359.535173 
L 361.129402 359.590242 
L 361.637183 359.306478 
L 362.652744 359.617194 
L 363.160524 359.520777 
L 363.668305 359.621746 
L 364.176085 359.391018 
L 364.683866 359.645365 
L 365.191646 359.394069 
L 365.699427 359.569106 
L 366.207207 359.466518 
L 368.238329 359.6516 
L 368.74611 359.52098 
L 369.761671 359.961807 
L 370.269451 359.584679 
L 371.792793 359.81792 
L 372.808354 359.98947 
L 373.823915 359.66824 
L 374.331695 359.754896 
L 374.839476 359.688909 
L 375.347256 359.736659 
L 375.855037 359.663769 
L 376.362817 359.871266 
L 376.870598 359.589668 
L 377.378378 359.615254 
L 377.886159 359.983869 
L 378.90172 359.439788 
L 379.4095 359.780055 
L 380.425061 359.39588 
L 380.932842 359.615149 
L 381.948403 359.617721 
L 382.963964 359.665396 
L 383.979525 359.577623 
L 384.487305 359.28119 
L 385.502867 359.536509 
L 386.010647 359.36807 
L 386.518428 359.325249 
L 387.533989 359.687465 
L 388.041769 359.541244 
L 388.54955 359.757443 
L 389.05733 359.351826 
L 389.565111 359.466829 
L 391.088452 359.332175 
L 391.596233 359.513305 
L 392.104013 359.127775 
L 392.611794 359.244406 
L 393.119574 359.097858 
L 393.627355 359.35698 
L 394.135135 359.143186 
L 395.150696 359.349057 
L 396.166257 359.186553 
L 396.674038 359.325459 
L 397.181818 359.176516 
L 397.689599 359.477654 
L 398.197379 359.528607 
L 398.70516 359.305896 
L 399.21294 359.251992 
L 399.720721 359.398301 
L 400.736282 359.256841 
L 401.244062 358.9272 
L 401.751843 359.053568 
L 402.259623 359.40885 
L 402.767404 359.328693 
L 403.275184 359.522986 
L 403.782965 358.450702 
L 404.290745 359.266596 
L 404.798526 359.110228 
L 405.306306 359.339601 
L 405.814087 359.386665 
L 406.321867 359.245045 
L 406.829648 359.590869 
L 407.845209 359.763441 
L 408.352989 359.320919 
L 408.86077 359.666077 
L 409.36855 359.56335 
L 412.415233 359.815122 
L 412.923014 359.58627 
L 413.938575 359.489329 
L 414.954136 359.744458 
L 415.969697 359.539743 
L 419.01638 359.802849 
L 419.524161 359.056467 
L 420.031941 359.576204 
L 420.539722 359.181458 
L 421.047502 359.576849 
L 421.555283 359.655273 
L 422.063063 359.443916 
L 422.570844 359.610541 
L 423.078624 359.380565 
L 423.586405 359.496912 
L 424.601966 359.243682 
L 425.617527 359.633928 
L 426.125307 359.423154 
L 426.633088 359.447748 
L 427.140868 359.298708 
L 427.648649 359.416686 
L 428.66421 359.305262 
L 429.17199 359.490137 
L 429.679771 359.359591 
L 430.187551 359.573913 
L 430.695332 359.442715 
L 431.203112 359.649366 
L 432.218673 359.417216 
L 432.726454 359.410792 
L 433.234234 359.288288 
L 436.788698 359.339717 
L 437.296478 359.469792 
L 437.804259 359.36495 
L 438.312039 359.044568 
L 438.81982 359.031044 
L 439.3276 359.402768 
L 439.835381 359.137368 
L 440.343161 359.485131 
L 440.850942 359.22165 
L 441.358722 359.226362 
L 441.866503 359.115906 
L 442.882064 359.395569 
L 443.389844 359.238803 
L 444.405405 359.347079 
L 444.913186 359.221939 
L 445.420966 359.45358 
L 446.436527 359.237581 
L 446.944308 359.057598 
L 447.452088 359.062621 
L 447.959869 359.302549 
L 448.467649 358.75144 
L 448.97543 359.199812 
L 449.990991 359.418475 
L 450.498771 359.106254 
L 454.561016 359.379134 
L 455.576577 358.9163 
L 456.084357 359.239774 
L 456.592138 359.284101 
L 457.099918 359.094323 
L 458.115479 359.226947 
L 458.62326 358.999575 
L 459.13104 359.286097 
L 460.146601 359.267387 
L 463.193284 359.281684 
L 464.716626 359.174261 
L 465.732187 359.394606 
L 466.239967 359.192542 
L 466.747748 359.237954 
L 467.255528 358.973871 
L 468.271089 359.124747 
L 468.77887 359.254201 
L 469.28665 359.143343 
L 469.794431 359.235204 
L 470.302211 359.075168 
L 471.317772 359.134569 
L 473.348894 359.099281 
L 474.364455 358.872266 
L 474.872236 359.068838 
L 476.395577 359.215373 
L 476.903358 359.396601 
L 477.411138 359.153021 
L 477.918919 359.075885 
L 478.426699 359.173573 
L 478.93448 358.915622 
L 479.44226 359.301954 
L 480.457821 359.239567 
L 481.473382 359.357697 
L 481.981163 359.166903 
L 482.488943 359.22707 
L 482.996724 359.156942 
L 483.504505 359.44009 
L 484.012285 359.326508 
L 485.027846 359.274717 
L 485.535627 359.562039 
L 486.043407 359.493985 
L 486.551188 359.300011 
L 488.074529 359.327965 
L 489.09009 359.212419 
L 490.105651 359.339742 
L 490.613432 358.994754 
L 491.121212 359.318524 
L 491.628993 359.11463 
L 492.136773 359.202991 
L 492.644554 358.965949 
L 494.167895 359.224782 
L 495.183456 358.799189 
L 495.691237 359.188209 
L 497.214578 359.296401 
L 497.722359 359.082792 
L 498.230139 359.036804 
L 499.753481 359.210431 
L 502.292383 359.202214 
L 502.800164 359.257817 
L 503.307944 359.158183 
L 503.815725 359.21863 
L 504.323505 359.056857 
L 505.339066 359.090629 
L 505.846847 358.941342 
L 506.354627 359.036378 
L 506.862408 358.936617 
L 507.370188 359.138815 
L 508.385749 359.199155 
L 508.89353 359.085743 
L 509.40131 359.248025 
L 510.416871 359.255381 
L 510.924652 358.913164 
L 511.432432 359.036074 
L 511.940213 359.325271 
L 512.447993 359.261842 
L 512.955774 359.355038 
L 513.463554 359.187 
L 514.479115 359.474377 
L 515.494676 359.004921 
L 516.002457 359.179027 
L 517.018018 359.137816 
L 519.04914 359.172788 
L 519.556921 359.099363 
L 520.064701 359.193748 
L 520.572482 358.88369 
L 521.080262 359.14996 
L 521.588043 359.245938 
L 522.095823 359.119091 
L 522.603604 359.238518 
L 523.619165 359.027201 
L 525.142506 359.079368 
L 525.650287 358.99377 
L 527.681409 359.266436 
L 528.69697 359.106578 
L 529.20475 359.151714 
L 529.712531 358.990534 
L 531.235872 359.232835 
L 531.743653 359.096713 
L 532.251433 359.43697 
L 533.266994 359.176891 
L 533.774775 359.278008 
L 534.790336 358.997847 
L 535.298116 358.605327 
L 535.805897 358.592396 
L 536.313677 359.048363 
L 537.329238 359.207064 
L 537.837019 358.895176 
L 538.344799 359.05852 
L 539.36036 359.098452 
L 539.868141 358.827096 
L 540.375921 359.299817 
L 540.883702 359.251677 
L 541.899263 358.896939 
L 542.914824 359.199426 
L 544.438165 359.036725 
L 544.945946 359.103826 
L 545.961507 359.105937 
L 546.469287 359.2238 
L 546.977068 358.989312 
L 547.484848 359.23524 
L 547.992629 359.317845 
L 548.50041 359.101865 
L 549.00819 359.142971 
L 549.515971 358.993605 
L 550.023751 359.177596 
L 550.531532 359.182094 
L 551.039312 359.00083 
L 551.547093 359.158813 
L 552.562654 358.927112 
L 553.578215 359.209928 
L 554.085995 359.150706 
L 554.593776 359.219932 
L 555.101556 359.083254 
L 555.609337 359.263511 
L 556.117117 359.028349 
L 556.624898 359.236642 
L 557.132678 359.281417 
L 558.65602 359.028033 
L 559.1638 359.234206 
L 560.179361 359.082113 
L 560.687142 359.34689 
L 561.194922 359.063607 
L 561.702703 359.247265 
L 562.210483 359.067691 
L 562.718264 359.261816 
L 563.226044 359.193875 
L 563.733825 358.96653 
L 564.749386 359.093135 
L 565.764947 359.327007 
L 566.780508 359.241468 
L 567.288288 359.314274 
L 567.796069 358.905933 
L 568.303849 358.886484 
L 569.827191 359.141034 
L 570.334971 358.751679 
L 571.350532 359.027934 
L 571.858313 359.142558 
L 572.366093 359.095593 
L 572.873874 358.84718 
L 573.381654 359.196666 
L 573.889435 359.092559 
L 574.904996 359.301501 
L 575.412776 359.02747 
L 576.428337 359.395835 
L 576.936118 359.056609 
L 580.490581 358.987723 
L 581.506143 359.327498 
L 582.013923 359.026676 
L 582.521704 359.306483 
L 584.552826 359.20612 
L 585.568387 359.295402 
L 586.583948 358.945244 
L 587.091728 359.014952 
L 587.599509 359.240532 
L 588.61507 359.139215 
L 589.630631 359.267218 
L 590.646192 358.751617 
L 591.661753 359.26119 
L 592.169533 359.137275 
L 592.677314 359.154029 
L 593.185094 358.91187 
L 593.692875 358.93538 
L 594.708436 359.270906 
L 595.216216 358.789211 
L 595.723997 359.201292 
L 596.231777 359.249047 
L 597.247338 358.913302 
L 597.755119 359.041091 
L 599.27846 358.955767 
L 599.786241 359.24413 
L 600.294021 358.920873 
L 600.801802 359.047035 
L 601.309582 359.009493 
L 601.817363 359.143558 
L 602.325143 358.922854 
L 602.832924 359.03409 
L 604.864046 358.864571 
L 605.371826 358.882314 
L 605.879607 358.443508 
L 606.387387 358.862361 
L 606.895168 359.077887 
L 607.910729 359.089262 
L 608.92629 358.945459 
L 609.941851 358.88856 
L 610.449631 358.813907 
L 610.957412 358.87164 
L 612.480753 358.681743 
L 613.496314 359.070465 
L 615.019656 359.089612 
L 615.527437 358.709453 
L 616.035217 358.74338 
L 616.542998 359.077653 
L 618.066339 358.905505 
L 618.57412 359.121084 
L 619.0819 358.815144 
L 620.097461 358.950758 
L 620.605242 359.144868 
L 621.113022 358.786459 
L 621.620803 359.172461 
L 622.128583 358.754232 
L 622.636364 358.999181 
L 622.636364 358.999181 
" clip-path="url(#pa5aa70a2f6)" style="fill: none; stroke: #d62728; stroke-width: 1.5; stroke-linecap: square"/>
   </g>
   <g id="patch_3">
    <path d="M 90 384.48 
L 90 51.84 
" style="fill: none; stroke: #000000; stroke-width: 0.8; stroke-linejoin: miter; stroke-linecap: square"/>
   </g>
   <g id="patch_4">
    <path d="M 648 384.48 
L 648 51.84 
" style="fill: none; stroke: #000000; stroke-width: 0.8; stroke-linejoin: miter; stroke-linecap: square"/>
   </g>
   <g id="patch_5">
    <path d="M 90 384.48 
L 648 384.48 
" style="fill: none; stroke: #000000; stroke-width: 0.8; stroke-linejoin: miter; stroke-linecap: square"/>
   </g>
   <g id="patch_6">
    <path d="M 90 51.84 
L 648 51.84 
" style="fill: none; stroke: #000000; stroke-width: 0.8; stroke-linejoin: miter; stroke-linecap: square"/>
   </g>
   <g id="text_15">
    <!-- Accuracy -->
    <g transform="translate(341.60625 45.84) scale(0.12 -0.12)">
     <use xlink:href="#DejaVuSans-41"/>
     <use xlink:href="#DejaVuSans-63" x="66.658203"/>
     <use xlink:href="#DejaVuSans-63" x="121.638672"/>
     <use xlink:href="#DejaVuSans-75" x="176.619141"/>
     <use xlink:href="#DejaVuSans-72" x="239.998047"/>
     <use xlink:href="#DejaVuSans-61" x="281.111328"/>
     <use xlink:href="#DejaVuSans-63" x="342.390625"/>
     <use xlink:href="#DejaVuSans-79" x="397.371094"/>
    </g>
   </g>
   <g id="legend_1">
    <g id="patch_7">
     <path d="M 560.696875 249.5725 
L 641 249.5725 
Q 643 249.5725 643 247.5725 
L 643 188.7475 
Q 643 186.7475 641 186.7475 
L 560.696875 186.7475 
Q 558.696875 186.7475 558.696875 188.7475 
L 558.696875 247.5725 
Q 558.696875 249.5725 560.696875 249.5725 
z
" style="fill: #ffffff; opacity: 0.8; stroke: #cccccc; stroke-linejoin: miter"/>
    </g>
    <g id="line2d_17">
     <path d="M 562.696875 194.845937 
L 572.696875 194.845937 
L 582.696875 194.845937 
" style="fill: none; stroke: #1f77b4; stroke-width: 1.5; stroke-linecap: square"/>
    </g>
    <g id="text_16">
     <!-- Train_acc -->
     <g transform="translate(590.696875 198.345937) scale(0.1 -0.1)">
      <defs>
       <path id="DejaVuSans-54" d="M -19 4666 
L 3928 4666 
L 3928 4134 
L 2272 4134 
L 2272 0 
L 1638 0 
L 1638 4134 
L -19 4134 
L -19 4666 
z
" transform="scale(0.015625)"/>
       <path id="DejaVuSans-69" d="M 603 3500 
L 1178 3500 
L 1178 0 
L 603 0 
L 603 3500 
z
M 603 4863 
L 1178 4863 
L 1178 4134 
L 603 4134 
L 603 4863 
z
" transform="scale(0.015625)"/>
       <path id="DejaVuSans-6e" d="M 3513 2113 
L 3513 0 
L 2938 0 
L 2938 2094 
Q 2938 2591 2744 2837 
Q 2550 3084 2163 3084 
Q 1697 3084 1428 2787 
Q 1159 2491 1159 1978 
L 1159 0 
L 581 0 
L 581 3500 
L 1159 3500 
L 1159 2956 
Q 1366 3272 1645 3428 
Q 1925 3584 2291 3584 
Q 2894 3584 3203 3211 
Q 3513 2838 3513 2113 
z
" transform="scale(0.015625)"/>
       <path id="DejaVuSans-5f" d="M 3263 -1063 
L 3263 -1509 
L -63 -1509 
L -63 -1063 
L 3263 -1063 
z
" transform="scale(0.015625)"/>
      </defs>
      <use xlink:href="#DejaVuSans-54"/>
      <use xlink:href="#DejaVuSans-72" x="46.333984"/>
      <use xlink:href="#DejaVuSans-61" x="87.447266"/>
      <use xlink:href="#DejaVuSans-69" x="148.726562"/>
      <use xlink:href="#DejaVuSans-6e" x="176.509766"/>
      <use xlink:href="#DejaVuSans-5f" x="239.888672"/>
      <use xlink:href="#DejaVuSans-61" x="289.888672"/>
      <use xlink:href="#DejaVuSans-63" x="351.167969"/>
      <use xlink:href="#DejaVuSans-63" x="406.148438"/>
     </g>
    </g>
    <g id="line2d_18">
     <path d="M 562.696875 209.802188 
L 572.696875 209.802188 
L 582.696875 209.802188 
" style="fill: none; stroke: #ff7f0e; stroke-width: 1.5; stroke-linecap: square"/>
    </g>
    <g id="text_17">
     <!-- Test_acc -->
     <g transform="translate(590.696875 213.302188) scale(0.1 -0.1)">
      <defs>
       <path id="DejaVuSans-65" d="M 3597 1894 
L 3597 1613 
L 953 1613 
Q 991 1019 1311 708 
Q 1631 397 2203 397 
Q 2534 397 2845 478 
Q 3156 559 3463 722 
L 3463 178 
Q 3153 47 2828 -22 
Q 2503 -91 2169 -91 
Q 1331 -91 842 396 
Q 353 884 353 1716 
Q 353 2575 817 3079 
Q 1281 3584 2069 3584 
Q 2775 3584 3186 3129 
Q 3597 2675 3597 1894 
z
M 3022 2063 
Q 3016 2534 2758 2815 
Q 2500 3097 2075 3097 
Q 1594 3097 1305 2825 
Q 1016 2553 972 2059 
L 3022 2063 
z
" transform="scale(0.015625)"/>
       <path id="DejaVuSans-73" d="M 2834 3397 
L 2834 2853 
Q 2591 2978 2328 3040 
Q 2066 3103 1784 3103 
Q 1356 3103 1142 2972 
Q 928 2841 928 2578 
Q 928 2378 1081 2264 
Q 1234 2150 1697 2047 
L 1894 2003 
Q 2506 1872 2764 1633 
Q 3022 1394 3022 966 
Q 3022 478 2636 193 
Q 2250 -91 1575 -91 
Q 1294 -91 989 -36 
Q 684 19 347 128 
L 347 722 
Q 666 556 975 473 
Q 1284 391 1588 391 
Q 1994 391 2212 530 
Q 2431 669 2431 922 
Q 2431 1156 2273 1281 
Q 2116 1406 1581 1522 
L 1381 1569 
Q 847 1681 609 1914 
Q 372 2147 372 2553 
Q 372 3047 722 3315 
Q 1072 3584 1716 3584 
Q 2034 3584 2315 3537 
Q 2597 3491 2834 3397 
z
" transform="scale(0.015625)"/>
       <path id="DejaVuSans-74" d="M 1172 4494 
L 1172 3500 
L 2356 3500 
L 2356 3053 
L 1172 3053 
L 1172 1153 
Q 1172 725 1289 603 
Q 1406 481 1766 481 
L 2356 481 
L 2356 0 
L 1766 0 
Q 1100 0 847 248 
Q 594 497 594 1153 
L 594 3053 
L 172 3053 
L 172 3500 
L 594 3500 
L 594 4494 
L 1172 4494 
z
" transform="scale(0.015625)"/>
      </defs>
      <use xlink:href="#DejaVuSans-54"/>
      <use xlink:href="#DejaVuSans-65" x="44.083984"/>
      <use xlink:href="#DejaVuSans-73" x="105.607422"/>
      <use xlink:href="#DejaVuSans-74" x="157.707031"/>
      <use xlink:href="#DejaVuSans-5f" x="196.916016"/>
      <use xlink:href="#DejaVuSans-61" x="246.916016"/>
      <use xlink:href="#DejaVuSans-63" x="308.195312"/>
      <use xlink:href="#DejaVuSans-63" x="363.175781"/>
     </g>
    </g>
    <g id="line2d_19">
     <path d="M 562.696875 224.758437 
L 572.696875 224.758437 
L 582.696875 224.758437 
" style="fill: none; stroke: #2ca02c; stroke-width: 1.5; stroke-linecap: square"/>
    </g>
    <g id="text_18">
     <!-- Train_loss -->
     <g transform="translate(590.696875 228.258437) scale(0.1 -0.1)">
      <defs>
       <path id="DejaVuSans-6c" d="M 603 4863 
L 1178 4863 
L 1178 0 
L 603 0 
L 603 4863 
z
" transform="scale(0.015625)"/>
      </defs>
      <use xlink:href="#DejaVuSans-54"/>
      <use xlink:href="#DejaVuSans-72" x="46.333984"/>
      <use xlink:href="#DejaVuSans-61" x="87.447266"/>
      <use xlink:href="#DejaVuSans-69" x="148.726562"/>
      <use xlink:href="#DejaVuSans-6e" x="176.509766"/>
      <use xlink:href="#DejaVuSans-5f" x="239.888672"/>
      <use xlink:href="#DejaVuSans-6c" x="289.888672"/>
      <use xlink:href="#DejaVuSans-6f" x="317.671875"/>
      <use xlink:href="#DejaVuSans-73" x="378.853516"/>
      <use xlink:href="#DejaVuSans-73" x="430.953125"/>
     </g>
    </g>
    <g id="line2d_20">
     <path d="M 562.696875 239.714687 
L 572.696875 239.714687 
L 582.696875 239.714687 
" style="fill: none; stroke: #d62728; stroke-width: 1.5; stroke-linecap: square"/>
    </g>
    <g id="text_19">
     <!-- Test_loss -->
     <g transform="translate(590.696875 243.214687) scale(0.1 -0.1)">
      <use xlink:href="#DejaVuSans-54"/>
      <use xlink:href="#DejaVuSans-65" x="44.083984"/>
      <use xlink:href="#DejaVuSans-73" x="105.607422"/>
      <use xlink:href="#DejaVuSans-74" x="157.707031"/>
      <use xlink:href="#DejaVuSans-5f" x="196.916016"/>
      <use xlink:href="#DejaVuSans-6c" x="246.916016"/>
      <use xlink:href="#DejaVuSans-6f" x="274.699219"/>
      <use xlink:href="#DejaVuSans-73" x="335.880859"/>
      <use xlink:href="#DejaVuSans-73" x="387.980469"/>
     </g>
    </g>
   </g>
  </g>
 </g>
 <defs>
  <clipPath id="pa5aa70a2f6">
   <rect x="90" y="51.84" width="558" height="332.64"/>
  </clipPath>
 </defs>
</svg>
