<?xml version="1.0" encoding="utf-8" standalone="no"?>
<!DOCTYPE svg PUBLIC "-//W3C//DTD SVG 1.1//EN"
  "http://www.w3.org/Graphics/SVG/1.1/DTD/svg11.dtd">
<svg xmlns:xlink="http://www.w3.org/1999/xlink" width="720pt" height="432pt" viewBox="0 0 720 432" xmlns="http://www.w3.org/2000/svg" version="1.1">
 <metadata>
  <rdf:RDF xmlns:dc="http://purl.org/dc/elements/1.1/" xmlns:cc="http://creativecommons.org/ns#" xmlns:rdf="http://www.w3.org/1999/02/22-rdf-syntax-ns#">
   <cc:Work>
    <dc:type rdf:resource="http://purl.org/dc/dcmitype/StillImage"/>
    <dc:date>2023-04-15T06:55:27.006007</dc:date>
    <dc:format>image/svg+xml</dc:format>
    <dc:creator>
     <cc:Agent>
      <dc:title>Matplotlib v3.7.1, https://matplotlib.org/</dc:title>
     </cc:Agent>
    </dc:creator>
   </cc:Work>
  </rdf:RDF>
 </metadata>
 <defs>
  <style type="text/css">*{stroke-linejoin: round; stroke-linecap: butt}</style>
 </defs>
 <g id="figure_1">
  <g id="patch_1">
   <path d="M 0 432 
L 720 432 
L 720 0 
L 0 0 
z
" style="fill: #ffffff"/>
  </g>
  <g id="axes_1">
   <g id="patch_2">
    <path d="M 90 384.48 
L 648 384.48 
L 648 51.84 
L 90 51.84 
z
" style="fill: #ffffff"/>
   </g>
   <g id="matplotlib.axis_1">
    <g id="xtick_1">
     <g id="line2d_1">
      <defs>
       <path id="m9e5e8b05b0" d="M 0 0 
L 0 3.5 
" style="stroke: #000000; stroke-width: 0.8"/>
      </defs>
      <g>
       <use xlink:href="#m9e5e8b05b0" x="115.363636" y="384.48" style="stroke: #000000; stroke-width: 0.8"/>
      </g>
     </g>
     <g id="text_1">
      <!-- 0 -->
      <g transform="translate(112.182386 399.078438) scale(0.1 -0.1)">
       <defs>
        <path id="DejaVuSans-30" d="M 2034 4250 
Q 1547 4250 1301 3770 
Q 1056 3291 1056 2328 
Q 1056 1369 1301 889 
Q 1547 409 2034 409 
Q 2525 409 2770 889 
Q 3016 1369 3016 2328 
Q 3016 3291 2770 3770 
Q 2525 4250 2034 4250 
z
M 2034 4750 
Q 2819 4750 3233 4129 
Q 3647 3509 3647 2328 
Q 3647 1150 3233 529 
Q 2819 -91 2034 -91 
Q 1250 -91 836 529 
Q 422 1150 422 2328 
Q 422 3509 836 4129 
Q 1250 4750 2034 4750 
z
" transform="scale(0.015625)"/>
       </defs>
       <use xlink:href="#DejaVuSans-30"/>
      </g>
     </g>
    </g>
    <g id="xtick_2">
     <g id="line2d_2">
      <g>
       <use xlink:href="#m9e5e8b05b0" x="216.919738" y="384.48" style="stroke: #000000; stroke-width: 0.8"/>
      </g>
     </g>
     <g id="text_2">
      <!-- 200 -->
      <g transform="translate(207.375988 399.078438) scale(0.1 -0.1)">
       <defs>
        <path id="DejaVuSans-32" d="M 1228 531 
L 3431 531 
L 3431 0 
L 469 0 
L 469 531 
Q 828 903 1448 1529 
Q 2069 2156 2228 2338 
Q 2531 2678 2651 2914 
Q 2772 3150 2772 3378 
Q 2772 3750 2511 3984 
Q 2250 4219 1831 4219 
Q 1534 4219 1204 4116 
Q 875 4013 500 3803 
L 500 4441 
Q 881 4594 1212 4672 
Q 1544 4750 1819 4750 
Q 2544 4750 2975 4387 
Q 3406 4025 3406 3419 
Q 3406 3131 3298 2873 
Q 3191 2616 2906 2266 
Q 2828 2175 2409 1742 
Q 1991 1309 1228 531 
z
" transform="scale(0.015625)"/>
       </defs>
       <use xlink:href="#DejaVuSans-32"/>
       <use xlink:href="#DejaVuSans-30" x="63.623047"/>
       <use xlink:href="#DejaVuSans-30" x="127.246094"/>
      </g>
     </g>
    </g>
    <g id="xtick_3">
     <g id="line2d_3">
      <g>
       <use xlink:href="#m9e5e8b05b0" x="318.475839" y="384.48" style="stroke: #000000; stroke-width: 0.8"/>
      </g>
     </g>
     <g id="text_3">
      <!-- 400 -->
      <g transform="translate(308.932089 399.078438) scale(0.1 -0.1)">
       <defs>
        <path id="DejaVuSans-34" d="M 2419 4116 
L 825 1625 
L 2419 1625 
L 2419 4116 
z
M 2253 4666 
L 3047 4666 
L 3047 1625 
L 3713 1625 
L 3713 1100 
L 3047 1100 
L 3047 0 
L 2419 0 
L 2419 1100 
L 313 1100 
L 313 1709 
L 2253 4666 
z
" transform="scale(0.015625)"/>
       </defs>
       <use xlink:href="#DejaVuSans-34"/>
       <use xlink:href="#DejaVuSans-30" x="63.623047"/>
       <use xlink:href="#DejaVuSans-30" x="127.246094"/>
      </g>
     </g>
    </g>
    <g id="xtick_4">
     <g id="line2d_4">
      <g>
       <use xlink:href="#m9e5e8b05b0" x="420.031941" y="384.48" style="stroke: #000000; stroke-width: 0.8"/>
      </g>
     </g>
     <g id="text_4">
      <!-- 600 -->
      <g transform="translate(410.488191 399.078438) scale(0.1 -0.1)">
       <defs>
        <path id="DejaVuSans-36" d="M 2113 2584 
Q 1688 2584 1439 2293 
Q 1191 2003 1191 1497 
Q 1191 994 1439 701 
Q 1688 409 2113 409 
Q 2538 409 2786 701 
Q 3034 994 3034 1497 
Q 3034 2003 2786 2293 
Q 2538 2584 2113 2584 
z
M 3366 4563 
L 3366 3988 
Q 3128 4100 2886 4159 
Q 2644 4219 2406 4219 
Q 1781 4219 1451 3797 
Q 1122 3375 1075 2522 
Q 1259 2794 1537 2939 
Q 1816 3084 2150 3084 
Q 2853 3084 3261 2657 
Q 3669 2231 3669 1497 
Q 3669 778 3244 343 
Q 2819 -91 2113 -91 
Q 1303 -91 875 529 
Q 447 1150 447 2328 
Q 447 3434 972 4092 
Q 1497 4750 2381 4750 
Q 2619 4750 2861 4703 
Q 3103 4656 3366 4563 
z
" transform="scale(0.015625)"/>
       </defs>
       <use xlink:href="#DejaVuSans-36"/>
       <use xlink:href="#DejaVuSans-30" x="63.623047"/>
       <use xlink:href="#DejaVuSans-30" x="127.246094"/>
      </g>
     </g>
    </g>
    <g id="xtick_5">
     <g id="line2d_5">
      <g>
       <use xlink:href="#m9e5e8b05b0" x="521.588043" y="384.48" style="stroke: #000000; stroke-width: 0.8"/>
      </g>
     </g>
     <g id="text_5">
      <!-- 800 -->
      <g transform="translate(512.044293 399.078438) scale(0.1 -0.1)">
       <defs>
        <path id="DejaVuSans-38" d="M 2034 2216 
Q 1584 2216 1326 1975 
Q 1069 1734 1069 1313 
Q 1069 891 1326 650 
Q 1584 409 2034 409 
Q 2484 409 2743 651 
Q 3003 894 3003 1313 
Q 3003 1734 2745 1975 
Q 2488 2216 2034 2216 
z
M 1403 2484 
Q 997 2584 770 2862 
Q 544 3141 544 3541 
Q 544 4100 942 4425 
Q 1341 4750 2034 4750 
Q 2731 4750 3128 4425 
Q 3525 4100 3525 3541 
Q 3525 3141 3298 2862 
Q 3072 2584 2669 2484 
Q 3125 2378 3379 2068 
Q 3634 1759 3634 1313 
Q 3634 634 3220 271 
Q 2806 -91 2034 -91 
Q 1263 -91 848 271 
Q 434 634 434 1313 
Q 434 1759 690 2068 
Q 947 2378 1403 2484 
z
M 1172 3481 
Q 1172 3119 1398 2916 
Q 1625 2713 2034 2713 
Q 2441 2713 2670 2916 
Q 2900 3119 2900 3481 
Q 2900 3844 2670 4047 
Q 2441 4250 2034 4250 
Q 1625 4250 1398 4047 
Q 1172 3844 1172 3481 
z
" transform="scale(0.015625)"/>
       </defs>
       <use xlink:href="#DejaVuSans-38"/>
       <use xlink:href="#DejaVuSans-30" x="63.623047"/>
       <use xlink:href="#DejaVuSans-30" x="127.246094"/>
      </g>
     </g>
    </g>
    <g id="xtick_6">
     <g id="line2d_6">
      <g>
       <use xlink:href="#m9e5e8b05b0" x="623.144144" y="384.48" style="stroke: #000000; stroke-width: 0.8"/>
      </g>
     </g>
     <g id="text_6">
      <!-- 1000 -->
      <g transform="translate(610.419144 399.078438) scale(0.1 -0.1)">
       <defs>
        <path id="DejaVuSans-31" d="M 794 531 
L 1825 531 
L 1825 4091 
L 703 3866 
L 703 4441 
L 1819 4666 
L 2450 4666 
L 2450 531 
L 3481 531 
L 3481 0 
L 794 0 
L 794 531 
z
" transform="scale(0.015625)"/>
       </defs>
       <use xlink:href="#DejaVuSans-31"/>
       <use xlink:href="#DejaVuSans-30" x="63.623047"/>
       <use xlink:href="#DejaVuSans-30" x="127.246094"/>
       <use xlink:href="#DejaVuSans-30" x="190.869141"/>
      </g>
     </g>
    </g>
    <g id="text_7">
     <!-- Epoch -->
     <g transform="translate(353.689062 412.756563) scale(0.1 -0.1)">
      <defs>
       <path id="DejaVuSans-45" d="M 628 4666 
L 3578 4666 
L 3578 4134 
L 1259 4134 
L 1259 2753 
L 3481 2753 
L 3481 2222 
L 1259 2222 
L 1259 531 
L 3634 531 
L 3634 0 
L 628 0 
L 628 4666 
z
" transform="scale(0.015625)"/>
       <path id="DejaVuSans-70" d="M 1159 525 
L 1159 -1331 
L 581 -1331 
L 581 3500 
L 1159 3500 
L 1159 2969 
Q 1341 3281 1617 3432 
Q 1894 3584 2278 3584 
Q 2916 3584 3314 3078 
Q 3713 2572 3713 1747 
Q 3713 922 3314 415 
Q 2916 -91 2278 -91 
Q 1894 -91 1617 61 
Q 1341 213 1159 525 
z
M 3116 1747 
Q 3116 2381 2855 2742 
Q 2594 3103 2138 3103 
Q 1681 3103 1420 2742 
Q 1159 2381 1159 1747 
Q 1159 1113 1420 752 
Q 1681 391 2138 391 
Q 2594 391 2855 752 
Q 3116 1113 3116 1747 
z
" transform="scale(0.015625)"/>
       <path id="DejaVuSans-6f" d="M 1959 3097 
Q 1497 3097 1228 2736 
Q 959 2375 959 1747 
Q 959 1119 1226 758 
Q 1494 397 1959 397 
Q 2419 397 2687 759 
Q 2956 1122 2956 1747 
Q 2956 2369 2687 2733 
Q 2419 3097 1959 3097 
z
M 1959 3584 
Q 2709 3584 3137 3096 
Q 3566 2609 3566 1747 
Q 3566 888 3137 398 
Q 2709 -91 1959 -91 
Q 1206 -91 779 398 
Q 353 888 353 1747 
Q 353 2609 779 3096 
Q 1206 3584 1959 3584 
z
" transform="scale(0.015625)"/>
       <path id="DejaVuSans-63" d="M 3122 3366 
L 3122 2828 
Q 2878 2963 2633 3030 
Q 2388 3097 2138 3097 
Q 1578 3097 1268 2742 
Q 959 2388 959 1747 
Q 959 1106 1268 751 
Q 1578 397 2138 397 
Q 2388 397 2633 464 
Q 2878 531 3122 666 
L 3122 134 
Q 2881 22 2623 -34 
Q 2366 -91 2075 -91 
Q 1284 -91 818 406 
Q 353 903 353 1747 
Q 353 2603 823 3093 
Q 1294 3584 2113 3584 
Q 2378 3584 2631 3529 
Q 2884 3475 3122 3366 
z
" transform="scale(0.015625)"/>
       <path id="DejaVuSans-68" d="M 3513 2113 
L 3513 0 
L 2938 0 
L 2938 2094 
Q 2938 2591 2744 2837 
Q 2550 3084 2163 3084 
Q 1697 3084 1428 2787 
Q 1159 2491 1159 1978 
L 1159 0 
L 581 0 
L 581 4863 
L 1159 4863 
L 1159 2956 
Q 1366 3272 1645 3428 
Q 1925 3584 2291 3584 
Q 2894 3584 3203 3211 
Q 3513 2838 3513 2113 
z
" transform="scale(0.015625)"/>
      </defs>
      <use xlink:href="#DejaVuSans-45"/>
      <use xlink:href="#DejaVuSans-70" x="63.183594"/>
      <use xlink:href="#DejaVuSans-6f" x="126.660156"/>
      <use xlink:href="#DejaVuSans-63" x="187.841797"/>
      <use xlink:href="#DejaVuSans-68" x="242.822266"/>
     </g>
    </g>
   </g>
   <g id="matplotlib.axis_2">
    <g id="ytick_1">
     <g id="line2d_7">
      <defs>
       <path id="mdccceae56f" d="M 0 0 
L -3.5 0 
" style="stroke: #000000; stroke-width: 0.8"/>
      </defs>
      <g>
       <use xlink:href="#mdccceae56f" x="90" y="369.366682" style="stroke: #000000; stroke-width: 0.8"/>
      </g>
     </g>
     <g id="text_8">
      <!-- 0.0 -->
      <g transform="translate(67.096875 373.165901) scale(0.1 -0.1)">
       <defs>
        <path id="DejaVuSans-2e" d="M 684 794 
L 1344 794 
L 1344 0 
L 684 0 
L 684 794 
z
" transform="scale(0.015625)"/>
       </defs>
       <use xlink:href="#DejaVuSans-30"/>
       <use xlink:href="#DejaVuSans-2e" x="63.623047"/>
       <use xlink:href="#DejaVuSans-30" x="95.410156"/>
      </g>
     </g>
    </g>
    <g id="ytick_2">
     <g id="line2d_8">
      <g>
       <use xlink:href="#mdccceae56f" x="90" y="308.859126" style="stroke: #000000; stroke-width: 0.8"/>
      </g>
     </g>
     <g id="text_9">
      <!-- 0.2 -->
      <g transform="translate(67.096875 312.658344) scale(0.1 -0.1)">
       <use xlink:href="#DejaVuSans-30"/>
       <use xlink:href="#DejaVuSans-2e" x="63.623047"/>
       <use xlink:href="#DejaVuSans-32" x="95.410156"/>
      </g>
     </g>
    </g>
    <g id="ytick_3">
     <g id="line2d_9">
      <g>
       <use xlink:href="#mdccceae56f" x="90" y="248.351569" style="stroke: #000000; stroke-width: 0.8"/>
      </g>
     </g>
     <g id="text_10">
      <!-- 0.4 -->
      <g transform="translate(67.096875 252.150788) scale(0.1 -0.1)">
       <use xlink:href="#DejaVuSans-30"/>
       <use xlink:href="#DejaVuSans-2e" x="63.623047"/>
       <use xlink:href="#DejaVuSans-34" x="95.410156"/>
      </g>
     </g>
    </g>
    <g id="ytick_4">
     <g id="line2d_10">
      <g>
       <use xlink:href="#mdccceae56f" x="90" y="187.844013" style="stroke: #000000; stroke-width: 0.8"/>
      </g>
     </g>
     <g id="text_11">
      <!-- 0.6 -->
      <g transform="translate(67.096875 191.643232) scale(0.1 -0.1)">
       <use xlink:href="#DejaVuSans-30"/>
       <use xlink:href="#DejaVuSans-2e" x="63.623047"/>
       <use xlink:href="#DejaVuSans-36" x="95.410156"/>
      </g>
     </g>
    </g>
    <g id="ytick_5">
     <g id="line2d_11">
      <g>
       <use xlink:href="#mdccceae56f" x="90" y="127.336457" style="stroke: #000000; stroke-width: 0.8"/>
      </g>
     </g>
     <g id="text_12">
      <!-- 0.8 -->
      <g transform="translate(67.096875 131.135675) scale(0.1 -0.1)">
       <use xlink:href="#DejaVuSans-30"/>
       <use xlink:href="#DejaVuSans-2e" x="63.623047"/>
       <use xlink:href="#DejaVuSans-38" x="95.410156"/>
      </g>
     </g>
    </g>
    <g id="ytick_6">
     <g id="line2d_12">
      <g>
       <use xlink:href="#mdccceae56f" x="90" y="66.8289" style="stroke: #000000; stroke-width: 0.8"/>
      </g>
     </g>
     <g id="text_13">
      <!-- 1.0 -->
      <g transform="translate(67.096875 70.628119) scale(0.1 -0.1)">
       <use xlink:href="#DejaVuSans-31"/>
       <use xlink:href="#DejaVuSans-2e" x="63.623047"/>
       <use xlink:href="#DejaVuSans-30" x="95.410156"/>
      </g>
     </g>
    </g>
    <g id="text_14">
     <!-- Accuracy -->
     <g transform="translate(61.017187 240.988125) rotate(-90) scale(0.1 -0.1)">
      <defs>
       <path id="DejaVuSans-41" d="M 2188 4044 
L 1331 1722 
L 3047 1722 
L 2188 4044 
z
M 1831 4666 
L 2547 4666 
L 4325 0 
L 3669 0 
L 3244 1197 
L 1141 1197 
L 716 0 
L 50 0 
L 1831 4666 
z
" transform="scale(0.015625)"/>
       <path id="DejaVuSans-75" d="M 544 1381 
L 544 3500 
L 1119 3500 
L 1119 1403 
Q 1119 906 1312 657 
Q 1506 409 1894 409 
Q 2359 409 2629 706 
Q 2900 1003 2900 1516 
L 2900 3500 
L 3475 3500 
L 3475 0 
L 2900 0 
L 2900 538 
Q 2691 219 2414 64 
Q 2138 -91 1772 -91 
Q 1169 -91 856 284 
Q 544 659 544 1381 
z
M 1991 3584 
L 1991 3584 
z
" transform="scale(0.015625)"/>
       <path id="DejaVuSans-72" d="M 2631 2963 
Q 2534 3019 2420 3045 
Q 2306 3072 2169 3072 
Q 1681 3072 1420 2755 
Q 1159 2438 1159 1844 
L 1159 0 
L 581 0 
L 581 3500 
L 1159 3500 
L 1159 2956 
Q 1341 3275 1631 3429 
Q 1922 3584 2338 3584 
Q 2397 3584 2469 3576 
Q 2541 3569 2628 3553 
L 2631 2963 
z
" transform="scale(0.015625)"/>
       <path id="DejaVuSans-61" d="M 2194 1759 
Q 1497 1759 1228 1600 
Q 959 1441 959 1056 
Q 959 750 1161 570 
Q 1363 391 1709 391 
Q 2188 391 2477 730 
Q 2766 1069 2766 1631 
L 2766 1759 
L 2194 1759 
z
M 3341 1997 
L 3341 0 
L 2766 0 
L 2766 531 
Q 2569 213 2275 61 
Q 1981 -91 1556 -91 
Q 1019 -91 701 211 
Q 384 513 384 1019 
Q 384 1609 779 1909 
Q 1175 2209 1959 2209 
L 2766 2209 
L 2766 2266 
Q 2766 2663 2505 2880 
Q 2244 3097 1772 3097 
Q 1472 3097 1187 3025 
Q 903 2953 641 2809 
L 641 3341 
Q 956 3463 1253 3523 
Q 1550 3584 1831 3584 
Q 2591 3584 2966 3190 
Q 3341 2797 3341 1997 
z
" transform="scale(0.015625)"/>
       <path id="DejaVuSans-79" d="M 2059 -325 
Q 1816 -950 1584 -1140 
Q 1353 -1331 966 -1331 
L 506 -1331 
L 506 -850 
L 844 -850 
Q 1081 -850 1212 -737 
Q 1344 -625 1503 -206 
L 1606 56 
L 191 3500 
L 800 3500 
L 1894 763 
L 2988 3500 
L 3597 3500 
L 2059 -325 
z
" transform="scale(0.015625)"/>
      </defs>
      <use xlink:href="#DejaVuSans-41"/>
      <use xlink:href="#DejaVuSans-63" x="66.658203"/>
      <use xlink:href="#DejaVuSans-63" x="121.638672"/>
      <use xlink:href="#DejaVuSans-75" x="176.619141"/>
      <use xlink:href="#DejaVuSans-72" x="239.998047"/>
      <use xlink:href="#DejaVuSans-61" x="281.111328"/>
      <use xlink:href="#DejaVuSans-63" x="342.390625"/>
      <use xlink:href="#DejaVuSans-79" x="397.371094"/>
     </g>
    </g>
   </g>
   <g id="line2d_13">
    <path d="M 115.363636 253.020736 
L 115.871417 104.767138 
L 116.379197 90.204986 
L 116.886978 85.182859 
L 117.902539 80.932203 
L 118.9181 78.118602 
L 119.933661 76.903408 
L 122.980344 74.573868 
L 123.488124 74.427641 
L 123.995905 74.099892 
L 124.503686 73.918369 
L 125.011466 74.014173 
L 126.027027 73.550281 
L 126.534808 72.899825 
L 127.550369 73.121686 
L 128.058149 72.703176 
L 129.07371 72.375426 
L 129.581491 72.219115 
L 131.104832 72.138438 
L 132.120393 71.936747 
L 132.628174 72.128354 
L 133.643735 71.558574 
L 134.151515 71.714885 
L 134.659296 71.377052 
L 135.167076 71.649336 
L 135.674857 71.437559 
L 136.182637 71.402263 
L 136.690418 71.185444 
L 137.198198 71.205614 
L 137.705979 71.412348 
L 138.213759 71.316544 
L 138.72154 71.099725 
L 139.22932 71.210656 
L 139.737101 70.938372 
L 140.752662 70.898033 
L 141.260442 70.696342 
L 141.768223 71.059387 
L 142.276003 70.580369 
L 142.783784 70.706426 
L 143.291564 70.454311 
L 143.799345 70.771976 
L 144.307125 70.439184 
L 145.322686 70.640876 
L 145.830467 70.474481 
L 146.338247 70.509777 
L 146.846028 70.338339 
L 147.861589 70.277831 
L 148.369369 70.545073 
L 148.87715 70.131604 
L 149.38493 70.323212 
L 150.400491 70.156816 
L 150.908272 70.18707 
L 151.923833 70.081181 
L 152.431613 70.212281 
L 153.447174 70.071097 
L 153.954955 69.884532 
L 154.462735 70.000505 
L 155.986077 69.849236 
L 158.017199 69.960166 
L 158.52498 69.703009 
L 159.03276 69.803855 
L 159.540541 69.657629 
L 160.048321 69.844194 
L 160.556102 69.652586 
L 161.063882 69.692925 
L 161.571663 69.516444 
L 162.079443 69.652586 
L 162.587224 69.672755 
L 163.095004 69.466021 
L 163.602785 69.501317 
L 164.110565 69.697967 
L 164.618346 69.632417 
L 165.126126 69.314752 
L 165.633907 69.314752 
L 166.141687 69.627375 
L 166.649468 69.324837 
L 167.665029 69.466021 
L 168.172809 69.627375 
L 168.68059 69.385345 
L 169.18837 69.405514 
L 169.696151 69.234076 
L 170.203931 69.405514 
L 170.711712 69.118103 
L 171.727273 69.334922 
L 172.235053 69.17861 
L 172.742834 69.289541 
L 173.758395 69.128187 
L 174.266175 69.168526 
L 174.773956 69.541656 
L 175.281736 69.229033 
L 175.789517 69.158441 
L 176.805078 69.234076 
L 177.312858 69.097934 
L 177.820639 69.153399 
L 178.328419 69.032384 
L 178.8362 69.148357 
L 179.851761 68.881115 
L 180.359541 69.128187 
L 180.867322 68.8912 
L 181.882883 69.037426 
L 182.390663 68.906326 
L 183.406224 68.956749 
L 183.914005 69.097934 
L 186.452907 68.865988 
L 186.960688 68.931538 
L 187.468468 68.840777 
L 188.484029 69.047511 
L 188.99181 68.795396 
L 189.49959 68.775227 
L 190.007371 68.946665 
L 190.515152 68.956749 
L 191.022932 68.815565 
L 191.530713 68.997088 
L 192.038493 68.810523 
L 192.546274 68.87103 
L 193.561835 68.588662 
L 194.069615 68.896242 
L 194.577396 68.714719 
L 195.085176 68.82565 
L 195.592957 68.724804 
L 196.608518 68.770184 
L 197.624079 68.669338 
L 198.131859 68.785311 
L 198.63964 68.623958 
L 200.670762 68.7601 
L 201.178542 68.558408 
L 201.686323 68.507985 
L 202.194103 68.755058 
L 203.717445 68.674381 
L 204.225225 68.477731 
L 205.748567 68.533196 
L 206.764128 68.457562 
L 207.271908 68.56345 
L 207.779689 68.553366 
L 208.287469 68.699592 
L 208.79525 68.336547 
L 209.30303 68.4979 
L 209.810811 68.371843 
L 210.826372 68.457562 
L 211.334152 68.306293 
L 211.841933 68.513027 
L 212.349713 68.361758 
L 212.857494 68.422266 
L 213.365274 68.235701 
L 214.888616 68.573535 
L 215.904177 68.356716 
L 216.411957 68.311335 
L 216.919738 68.402097 
L 217.427518 68.32142 
L 217.935299 68.412181 
L 218.443079 68.265955 
L 219.45864 68.45252 
L 219.966421 68.331505 
L 220.474201 68.397054 
L 221.489762 68.265955 
L 221.997543 68.240743 
L 223.013104 68.397054 
L 223.520885 68.235701 
L 224.536446 68.311335 
L 226.059787 68.12477 
L 226.567568 68.220574 
L 227.075348 68.139897 
L 227.583129 68.326462 
L 229.10647 68.165109 
L 229.614251 68.220574 
L 230.122031 68.129813 
L 230.629812 68.270997 
L 231.137592 68.149982 
L 231.645373 68.326462 
L 232.153153 68.160067 
L 233.168714 68.260912 
L 233.676495 68.028967 
L 234.184275 68.260912 
L 234.692056 68.028967 
L 236.215397 68.155024 
L 236.723178 67.933163 
L 237.230958 68.149982 
L 238.246519 68.109644 
L 240.785422 67.993671 
L 241.293202 68.139897 
L 242.308763 68.210489 
L 243.324324 67.94829 
L 243.832105 68.129813 
L 244.339885 68.003755 
L 245.863227 68.039051 
L 246.371007 67.918036 
L 246.878788 68.01384 
L 247.386568 67.968459 
L 248.402129 68.139897 
L 248.90991 67.993671 
L 249.925471 68.028967 
L 250.433251 68.165109 
L 253.479934 67.867613 
L 253.987715 68.119728 
L 255.003276 67.807106 
L 256.018837 67.907952 
L 256.526618 67.832317 
L 257.034398 68.114686 
L 258.55774 67.862571 
L 259.06552 67.786937 
L 260.081081 68.003755 
L 260.588862 67.822233 
L 262.112203 67.953332 
L 265.158886 67.807106 
L 267.190008 67.847444 
L 267.697789 67.781894 
L 268.205569 68.039051 
L 268.71335 67.902909 
L 275.314496 67.756683 
L 275.822277 67.892825 
L 277.345618 67.721387 
L 278.361179 67.781894 
L 279.884521 67.711302 
L 281.407862 67.665921 
L 281.915643 67.615499 
L 282.931204 67.781894 
L 283.946765 67.776852 
L 284.454545 67.892825 
L 284.962326 67.751641 
L 291.563473 67.686091 
L 292.071253 67.802063 
L 292.579034 67.565076 
L 293.086814 67.721387 
L 297.149058 67.549949 
L 297.656839 67.650795 
L 298.164619 67.590287 
L 298.6724 67.660879 
L 299.18018 67.560033 
L 299.687961 67.721387 
L 302.226863 67.529779 
L 302.734644 67.650795 
L 303.242424 67.544906 
L 303.750205 67.70626 
L 307.812449 67.595329 
L 308.320229 67.514653 
L 310.859132 67.650795 
L 311.366912 67.595329 
L 311.874693 67.731471 
L 312.382473 67.615499 
L 312.890254 67.660879 
L 313.905815 67.50961 
L 314.413595 67.741556 
L 314.921376 67.726429 
L 315.936937 67.554991 
L 316.952498 67.524737 
L 317.460278 67.418849 
L 318.475839 67.645752 
L 318.98362 67.449103 
L 319.4914 67.615499 
L 320.506962 67.439018 
L 321.522523 67.474314 
L 322.030303 67.403722 
L 322.538084 67.549949 
L 323.045864 67.454145 
L 323.553645 67.580202 
L 324.061425 67.474314 
L 326.600328 67.570118 
L 327.615889 67.499526 
L 329.13923 67.474314 
L 329.647011 67.408764 
L 330.154791 67.514653 
L 332.693694 67.474314 
L 333.201474 67.560033 
L 334.217035 67.408764 
L 334.724816 67.544906 
L 335.232596 67.544906 
L 335.740377 67.413807 
L 337.263718 67.474314 
L 337.771499 67.33313 
L 338.279279 67.499526 
L 338.78706 67.524737 
L 339.29484 67.378511 
L 339.802621 67.494483 
L 340.818182 67.499526 
L 348.434889 67.373468 
L 348.94267 67.534822 
L 349.45045 67.383553 
L 349.958231 67.489441 
L 350.466011 67.368426 
L 350.973792 67.489441 
L 353.004914 67.479357 
L 353.512695 67.388595 
L 354.020475 67.57516 
L 355.036036 67.318003 
L 356.559378 67.433976 
L 357.574939 67.449103 
L 358.5905 67.519695 
L 359.606061 67.449103 
L 360.113841 67.378511 
L 360.621622 67.504568 
L 361.129402 67.388595 
L 362.144963 67.449103 
L 363.160524 67.413807 
L 364.683866 67.378511 
L 370.777232 67.307918 
L 371.285012 67.494483 
L 371.792793 67.494483 
L 372.300573 67.378511 
L 373.823915 67.39868 
L 376.870598 67.318003 
L 378.90172 67.373468 
L 380.932842 67.378511 
L 382.456183 67.348257 
L 382.963964 67.302876 
L 383.471744 67.418849 
L 383.979525 67.257495 
L 384.995086 67.368426 
L 385.502867 67.26758 
L 387.533989 67.484399 
L 388.041769 67.323045 
L 391.088452 67.282707 
L 391.596233 67.217157 
L 392.104013 67.358341 
L 393.119574 67.292792 
L 393.627355 67.449103 
L 394.135135 67.287749 
L 395.150696 67.413807 
L 396.674038 67.353299 
L 397.181818 67.20203 
L 398.197379 67.39868 
L 398.70516 67.272622 
L 401.751843 67.312961 
L 402.259623 67.151607 
L 404.798526 67.363384 
L 406.321867 67.176819 
L 406.829648 67.328088 
L 407.337428 67.207073 
L 408.352989 67.338172 
L 408.86077 67.186903 
L 409.876331 67.323045 
L 410.891892 67.338172 
L 411.399672 67.232284 
L 413.430794 67.302876 
L 413.938575 67.227242 
L 414.954136 67.252453 
L 415.461916 67.191946 
L 415.969697 67.287749 
L 418.000819 67.277665 
L 419.524161 67.358341 
L 420.031941 67.237326 
L 423.078624 67.373468 
L 424.094185 67.227242 
L 427.648649 67.282707 
L 428.156429 67.181861 
L 430.695332 67.292792 
L 431.710893 67.212115 
L 437.296478 67.247411 
L 438.81982 67.237326 
L 447.959869 67.20203 
L 448.467649 67.262538 
L 449.48321 67.15665 
L 449.990991 67.222199 
L 450.498771 67.106227 
L 452.022113 67.272622 
L 452.529894 67.146565 
L 453.545455 67.252453 
L 455.576577 67.176819 
L 461.162162 67.312961 
L 461.669943 67.166734 
L 463.193284 67.237326 
L 463.701065 67.161692 
L 465.224406 67.262538 
L 465.732187 67.121353 
L 468.77887 67.176819 
L 474.364455 67.196988 
L 474.872236 67.277665 
L 475.887797 67.13648 
L 479.950041 67.186903 
L 485.027846 67.146565 
L 487.566749 67.207073 
L 491.121212 67.141523 
L 491.628993 67.186903 
L 492.136773 67.065888 
L 493.152334 67.13648 
L 493.660115 67.055804 
L 495.691237 67.181861 
L 498.73792 67.060846 
L 499.753481 67.166734 
L 500.769042 67.101184 
L 501.276822 67.166734 
L 501.784603 67.106227 
L 502.800164 67.13648 
L 506.862408 67.081015 
L 507.370188 67.212115 
L 508.385749 67.096142 
L 511.432432 67.146565 
L 511.940213 67.081015 
L 512.447993 67.176819 
L 513.463554 67.081015 
L 513.971335 67.070931 
L 514.479115 67.227242 
L 514.986896 67.101184 
L 516.002457 67.126396 
L 517.525799 67.161692 
L 519.04914 67.151607 
L 529.20475 67.151607 
L 529.712531 67.181861 
L 530.728092 67.060846 
L 532.251433 67.15665 
L 533.266994 67.000338 
L 533.774775 67.161692 
L 534.790336 67.126396 
L 535.805897 67.146565 
L 537.329238 67.106227 
L 540.375921 67.081015 
L 540.883702 67.055804 
L 541.899263 67.15665 
L 542.407043 67.081015 
L 543.930385 67.196988 
L 544.438165 67.126396 
L 545.453726 67.111269 
L 545.961507 67.035634 
L 546.977068 67.146565 
L 549.00819 67.121353 
L 549.515971 66.995296 
L 551.039312 67.121353 
L 551.547093 67.000338 
L 556.117117 67.0911 
L 560.687142 67.035634 
L 561.702703 67.081015 
L 562.718264 67.055804 
L 563.226044 67.141523 
L 563.733825 67.020508 
L 564.241605 67.0911 
L 564.749386 67.030592 
L 565.764947 67.161692 
L 566.780508 67.060846 
L 567.288288 67.13648 
L 567.796069 67.02555 
L 571.350532 67.166734 
L 572.366093 67.075973 
L 575.412776 67.070931 
L 581.506143 67.02555 
L 582.013923 67.13648 
L 582.521704 67.02555 
L 583.029484 67.101184 
L 585.060606 67.045719 
L 587.091728 67.111269 
L 588.107289 67.045719 
L 588.61507 67.106227 
L 589.12285 66.96 
L 589.630631 67.045719 
L 590.138411 67.000338 
L 591.153972 67.086057 
L 591.661753 66.96 
L 592.677314 67.081015 
L 593.185094 66.990254 
L 594.708436 67.060846 
L 595.723997 67.060846 
L 596.231777 66.965042 
L 597.755119 67.106227 
L 599.786241 67.02555 
L 603.340704 67.060846 
L 605.879607 67.030592 
L 606.387387 67.086057 
L 606.895168 66.975127 
L 607.402948 67.065888 
L 608.418509 66.985211 
L 609.941851 67.086057 
L 611.465192 66.995296 
L 612.988534 67.040677 
L 622.636364 67.035634 
L 622.636364 67.035634 
" clip-path="url(#p5529f92993)" style="fill: none; stroke: #1f77b4; stroke-width: 1.5; stroke-linecap: square"/>
   </g>
   <g id="line2d_14">
    <path d="M 115.363636 124.885901 
L 115.871417 93.57324 
L 116.379197 88.460352 
L 116.886978 84.981167 
L 117.902539 82.016297 
L 118.410319 79.202696 
L 118.9181 77.841276 
L 119.42588 75.027674 
L 119.933661 75.299958 
L 120.441441 74.99742 
L 120.949222 73.847777 
L 121.457002 75.148689 
L 121.964783 73.545239 
L 122.472563 72.940163 
L 122.980344 72.698133 
L 123.995905 73.303209 
L 124.503686 72.153565 
L 125.011466 73.878031 
L 125.519247 73.061179 
L 126.027027 72.819148 
L 126.534808 73.182194 
L 127.042588 73.878031 
L 128.058149 71.366967 
L 128.56593 72.03255 
L 129.07371 71.911535 
L 130.089271 73.061179 
L 130.597052 72.335088 
L 131.104832 72.90991 
L 131.612613 70.91316 
L 132.120393 71.215698 
L 132.628174 72.516611 
L 133.135954 72.062804 
L 133.643735 71.306459 
L 134.151515 71.487982 
L 134.659296 71.336713 
L 135.167076 72.90991 
L 135.674857 71.366967 
L 136.182637 71.54849 
L 136.690418 71.155191 
L 137.198198 71.427475 
L 137.705979 71.064429 
L 138.213759 71.124937 
L 139.737101 70.489607 
L 140.244881 71.155191 
L 140.752662 71.245952 
L 141.260442 72.819148 
L 141.768223 71.155191 
L 142.276003 71.79052 
L 142.783784 70.489607 
L 143.291564 70.792145 
L 143.799345 71.578743 
L 144.814906 71.245952 
L 145.322686 70.368592 
L 145.830467 70.701384 
L 146.338247 71.639251 
L 146.846028 70.550115 
L 147.353808 70.489607 
L 147.861589 70.701384 
L 148.369369 70.640876 
L 148.87715 70.701384 
L 149.38493 71.124937 
L 149.892711 70.066055 
L 150.400491 70.580369 
L 150.908272 70.852653 
L 151.416052 71.366967 
L 151.923833 72.27458 
L 152.431613 70.91316 
L 152.939394 71.034175 
L 153.954955 70.247577 
L 154.462735 71.155191 
L 154.970516 71.155191 
L 155.478296 70.308085 
L 155.986077 70.701384 
L 156.493857 71.245952 
L 157.001638 70.459354 
L 157.509419 70.005547 
L 158.017199 71.336713 
L 158.52498 70.277831 
L 159.03276 70.731638 
L 159.540541 70.67113 
L 160.048321 70.005547 
L 160.556102 70.882907 
L 161.063882 70.066055 
L 161.571663 70.943414 
L 162.079443 69.914786 
L 162.587224 70.882907 
L 163.095004 69.884532 
L 163.602785 70.640876 
L 164.110565 70.519861 
L 164.618346 70.640876 
L 165.126126 70.338339 
L 165.633907 70.610623 
L 166.141687 70.519861 
L 166.649468 70.91316 
L 167.665029 70.550115 
L 168.172809 70.035801 
L 169.18837 71.397221 
L 170.203931 70.550115 
L 170.711712 69.854278 
L 171.727273 70.610623 
L 172.235053 70.066055 
L 172.742834 70.459354 
L 173.250614 71.881281 
L 173.758395 70.731638 
L 174.266175 70.368592 
L 174.773956 70.550115 
L 175.281736 71.003922 
L 175.789517 71.215698 
L 176.297297 70.005547 
L 176.805078 70.18707 
L 177.312858 71.245952 
L 177.820639 70.459354 
L 178.328419 71.215698 
L 178.8362 69.854278 
L 179.34398 69.824024 
L 179.851761 70.096308 
L 180.359541 70.217323 
L 180.867322 71.518236 
L 181.375102 70.005547 
L 182.390663 70.67113 
L 182.898444 69.491233 
L 183.406224 69.945039 
L 183.914005 69.884532 
L 184.421785 69.642502 
L 184.929566 70.973668 
L 185.437346 69.854278 
L 185.945127 70.005547 
L 186.960688 69.763517 
L 187.468468 69.945039 
L 187.976249 71.003922 
L 188.484029 70.550115 
L 188.99181 69.945039 
L 190.007371 69.642502 
L 190.515152 69.884532 
L 191.022932 69.672755 
L 191.530713 70.368592 
L 192.038493 69.914786 
L 193.054054 70.066055 
L 193.561835 70.640876 
L 194.069615 70.005547 
L 194.577396 70.126562 
L 195.085176 69.491233 
L 195.592957 70.217323 
L 196.100737 69.55174 
L 196.608518 70.550115 
L 197.116298 70.459354 
L 198.131859 70.035801 
L 198.63964 69.975293 
L 199.14742 70.096308 
L 199.655201 69.430725 
L 200.162981 71.094683 
L 200.670762 69.854278 
L 201.686323 70.4291 
L 202.194103 69.581994 
L 202.701884 70.398846 
L 203.209664 69.854278 
L 203.717445 69.854278 
L 204.225225 70.247577 
L 204.733006 70.096308 
L 205.240786 70.156816 
L 205.748567 70.338339 
L 206.256347 70.338339 
L 206.764128 70.852653 
L 207.271908 69.430725 
L 207.779689 70.096308 
L 208.287469 69.914786 
L 208.79525 69.612248 
L 209.30303 70.156816 
L 209.810811 69.793771 
L 210.318591 70.489607 
L 211.334152 69.370218 
L 211.841933 69.914786 
L 212.349713 69.55174 
L 212.857494 70.096308 
L 213.365274 69.733263 
L 213.873055 69.097934 
L 214.380835 69.945039 
L 214.888616 70.398846 
L 215.396396 71.851027 
L 215.904177 69.400471 
L 216.411957 70.096308 
L 216.919738 71.124937 
L 217.427518 69.672755 
L 217.935299 70.096308 
L 218.443079 69.793771 
L 219.966421 70.035801 
L 220.981982 69.188695 
L 221.489762 69.703009 
L 221.997543 69.158441 
L 223.013104 69.763517 
L 224.028665 69.30971 
L 224.536446 69.55174 
L 225.044226 70.035801 
L 225.552007 69.370218 
L 226.059787 69.339964 
L 228.090909 70.277831 
L 228.59869 70.18707 
L 229.10647 69.55174 
L 229.614251 70.398846 
L 230.122031 69.824024 
L 231.137592 70.005547 
L 232.153153 69.249203 
L 232.660934 69.763517 
L 233.168714 69.430725 
L 233.676495 69.30971 
L 234.184275 69.491233 
L 234.692056 69.793771 
L 235.199836 69.400471 
L 235.707617 70.4291 
L 236.215397 69.975293 
L 236.723178 69.763517 
L 237.738739 69.793771 
L 238.246519 69.824024 
L 238.7543 69.30971 
L 239.26208 70.792145 
L 239.769861 69.581994 
L 240.277641 70.459354 
L 240.785422 69.824024 
L 241.293202 70.066055 
L 241.800983 69.884532 
L 242.308763 69.30971 
L 242.816544 69.975293 
L 243.324324 69.128187 
L 243.832105 70.459354 
L 244.339885 69.30971 
L 245.355446 70.035801 
L 245.863227 69.884532 
L 246.371007 69.854278 
L 247.386568 69.612248 
L 248.402129 70.4291 
L 249.41769 69.339964 
L 249.925471 69.521487 
L 250.433251 69.975293 
L 251.448812 70.035801 
L 251.956593 69.793771 
L 252.972154 69.581994 
L 253.479934 70.035801 
L 253.987715 69.460979 
L 255.511057 69.854278 
L 256.018837 70.4291 
L 256.526618 69.581994 
L 257.034398 70.489607 
L 257.542179 69.460979 
L 258.049959 69.945039 
L 258.55774 69.642502 
L 259.06552 69.854278 
L 259.573301 69.703009 
L 260.588862 69.733263 
L 261.096642 69.672755 
L 261.604423 69.279456 
L 262.112203 70.610623 
L 262.619984 69.793771 
L 263.127764 69.824024 
L 263.635545 69.491233 
L 264.651106 70.368592 
L 265.158886 70.277831 
L 265.666667 70.489607 
L 266.682228 69.642502 
L 267.190008 69.763517 
L 267.697789 69.491233 
L 268.205569 70.247577 
L 268.71335 70.18707 
L 269.22113 69.55174 
L 269.728911 69.733263 
L 270.744472 69.370218 
L 271.252252 69.793771 
L 271.760033 69.460979 
L 272.267813 70.459354 
L 272.775594 69.642502 
L 273.283374 69.30971 
L 273.791155 69.793771 
L 274.298935 69.672755 
L 274.806716 70.096308 
L 275.314496 69.30971 
L 275.822277 69.400471 
L 276.330057 69.763517 
L 277.345618 68.976919 
L 277.853399 69.854278 
L 278.361179 69.672755 
L 278.86896 69.612248 
L 279.884521 70.308085 
L 280.900082 69.703009 
L 281.407862 69.279456 
L 281.915643 69.55174 
L 282.423423 70.550115 
L 282.931204 69.097934 
L 283.438984 69.612248 
L 283.946765 69.793771 
L 285.977887 69.339964 
L 286.485667 69.824024 
L 286.993448 69.581994 
L 288.009009 69.854278 
L 288.51679 69.733263 
L 289.02457 69.460979 
L 289.532351 69.430725 
L 290.547912 70.247577 
L 291.055692 69.55174 
L 292.071253 69.703009 
L 292.579034 69.521487 
L 293.086814 69.612248 
L 293.594595 69.279456 
L 294.102375 69.30971 
L 294.610156 69.097934 
L 295.117936 69.914786 
L 295.625717 69.279456 
L 296.133497 69.824024 
L 296.641278 69.854278 
L 297.149058 70.18707 
L 297.656839 69.370218 
L 298.6724 70.066055 
L 299.18018 69.400471 
L 300.195741 69.763517 
L 300.703522 69.249203 
L 301.211302 69.612248 
L 301.719083 70.308085 
L 302.226863 69.370218 
L 302.734644 69.491233 
L 303.242424 69.824024 
L 303.750205 69.642502 
L 304.257985 69.945039 
L 305.273546 69.158441 
L 305.781327 70.4291 
L 306.289107 70.489607 
L 306.796888 69.733263 
L 307.304668 69.733263 
L 307.812449 69.55174 
L 308.320229 69.249203 
L 308.82801 69.975293 
L 309.33579 69.370218 
L 309.843571 69.491233 
L 310.351351 69.430725 
L 310.859132 69.521487 
L 311.366912 69.400471 
L 312.382473 69.733263 
L 312.890254 69.672755 
L 313.398034 69.733263 
L 313.905815 69.400471 
L 314.413595 69.854278 
L 314.921376 69.975293 
L 315.429156 70.67113 
L 315.936937 69.612248 
L 316.444717 69.30971 
L 316.952498 70.308085 
L 317.460278 69.55174 
L 317.968059 70.096308 
L 318.475839 70.066055 
L 318.98362 69.400471 
L 319.4914 70.156816 
L 319.999181 69.763517 
L 320.506962 69.763517 
L 321.522523 69.339964 
L 322.030303 69.914786 
L 322.538084 68.82565 
L 323.045864 68.916411 
L 323.553645 69.339964 
L 324.061425 69.55174 
L 324.569206 68.976919 
L 325.076986 69.824024 
L 325.584767 69.460979 
L 326.092547 69.30971 
L 326.600328 70.126562 
L 327.108108 69.521487 
L 327.615889 69.55174 
L 328.123669 69.975293 
L 328.63145 69.672755 
L 329.13923 70.338339 
L 329.647011 69.279456 
L 330.154791 70.035801 
L 330.662572 69.975293 
L 331.170352 69.430725 
L 331.678133 70.005547 
L 332.185913 69.339964 
L 332.693694 69.128187 
L 333.201474 69.612248 
L 333.709255 69.793771 
L 334.217035 69.854278 
L 335.740377 69.06768 
L 336.248157 69.945039 
L 337.263718 69.037426 
L 338.279279 69.370218 
L 338.78706 69.188695 
L 339.29484 69.30971 
L 340.310401 69.097934 
L 340.818182 69.854278 
L 341.325962 69.06768 
L 342.341523 70.338339 
L 342.849304 69.158441 
L 343.864865 69.884532 
L 344.372645 69.460979 
L 344.880426 69.460979 
L 345.388206 70.338339 
L 345.895987 69.06768 
L 346.403767 69.339964 
L 346.911548 70.035801 
L 347.419328 69.642502 
L 347.927109 69.884532 
L 348.434889 69.733263 
L 348.94267 69.824024 
L 349.45045 68.855903 
L 349.958231 69.672755 
L 350.466011 69.370218 
L 350.973792 69.581994 
L 351.481572 69.460979 
L 352.497133 69.763517 
L 353.512695 69.007172 
L 354.020475 69.158441 
L 354.528256 69.55174 
L 355.036036 68.946665 
L 355.543817 69.703009 
L 356.051597 69.55174 
L 356.559378 69.128187 
L 357.067158 69.491233 
L 357.574939 69.672755 
L 358.5905 69.430725 
L 359.09828 69.914786 
L 359.606061 69.642502 
L 360.113841 69.521487 
L 360.621622 69.55174 
L 361.129402 69.370218 
L 361.637183 69.642502 
L 362.144963 68.523112 
L 362.652744 69.884532 
L 363.160524 69.097934 
L 363.668305 69.249203 
L 364.176085 69.55174 
L 364.683866 69.672755 
L 365.191646 69.370218 
L 365.699427 69.430725 
L 366.207207 69.339964 
L 366.714988 69.703009 
L 367.222768 69.430725 
L 367.730549 69.460979 
L 368.238329 69.06768 
L 368.74611 69.763517 
L 369.25389 69.30971 
L 369.761671 69.491233 
L 370.269451 69.339964 
L 370.777232 69.793771 
L 371.285012 69.249203 
L 371.792793 69.884532 
L 372.300573 69.279456 
L 372.808354 69.30971 
L 373.316134 69.037426 
L 373.823915 71.124937 
L 374.331695 69.793771 
L 375.347256 69.339964 
L 375.855037 69.491233 
L 376.362817 69.763517 
L 376.870598 69.279456 
L 377.378378 69.521487 
L 377.886159 69.249203 
L 378.393939 69.521487 
L 378.90172 69.06768 
L 379.4095 69.007172 
L 380.932842 69.733263 
L 381.948403 69.491233 
L 382.456183 69.884532 
L 382.963964 70.005547 
L 383.471744 68.855903 
L 383.979525 68.795396 
L 384.487305 70.005547 
L 384.995086 69.521487 
L 385.502867 69.581994 
L 386.010647 69.914786 
L 386.518428 69.884532 
L 387.026208 69.612248 
L 387.533989 70.005547 
L 388.041769 69.339964 
L 388.54955 69.672755 
L 389.05733 70.580369 
L 389.565111 68.886157 
L 390.580672 69.733263 
L 391.088452 69.460979 
L 392.104013 69.430725 
L 392.611794 69.914786 
L 393.119574 69.763517 
L 393.627355 69.854278 
L 394.135135 69.430725 
L 394.642916 69.55174 
L 395.150696 69.370218 
L 395.658477 69.370218 
L 396.674038 69.218949 
L 397.181818 69.128187 
L 397.689599 68.765142 
L 398.197379 69.339964 
L 398.70516 69.642502 
L 399.720721 69.037426 
L 400.228501 69.581994 
L 400.736282 69.30971 
L 401.244062 69.30971 
L 401.751843 69.581994 
L 402.259623 68.704635 
L 402.767404 68.82565 
L 403.275184 69.279456 
L 403.782965 69.158441 
L 404.290745 69.460979 
L 404.798526 69.430725 
L 405.814087 69.55174 
L 406.321867 69.188695 
L 406.829648 69.279456 
L 407.337428 69.914786 
L 407.845209 70.18707 
L 408.352989 69.279456 
L 408.86077 69.30971 
L 409.36855 68.734888 
L 409.876331 70.005547 
L 410.384111 69.763517 
L 410.891892 69.945039 
L 411.399672 69.430725 
L 411.907453 69.521487 
L 412.415233 69.188695 
L 413.938575 69.703009 
L 414.446355 69.491233 
L 414.954136 69.400471 
L 415.461916 68.976919 
L 415.969697 69.279456 
L 416.477477 69.218949 
L 416.985258 68.765142 
L 418.000819 69.491233 
L 418.5086 69.30971 
L 419.01638 69.612248 
L 419.524161 69.007172 
L 420.031941 69.370218 
L 420.539722 69.249203 
L 421.047502 69.007172 
L 421.555283 69.491233 
L 422.063063 69.249203 
L 423.078624 70.066055 
L 423.586405 70.126562 
L 424.094185 69.218949 
L 424.601966 69.339964 
L 425.109746 68.855903 
L 425.617527 69.672755 
L 426.125307 68.795396 
L 426.633088 68.916411 
L 427.140868 69.218949 
L 427.648649 69.30971 
L 428.156429 69.612248 
L 428.66421 69.430725 
L 429.17199 69.581994 
L 429.679771 69.30971 
L 430.695332 69.945039 
L 431.203112 69.097934 
L 431.710893 69.824024 
L 432.218673 69.218949 
L 432.726454 69.158441 
L 433.234234 69.249203 
L 434.249795 68.916411 
L 434.757576 69.824024 
L 435.265356 69.339964 
L 435.773137 69.430725 
L 436.280917 69.370218 
L 436.788698 69.188695 
L 437.296478 69.763517 
L 437.804259 69.188695 
L 438.312039 69.370218 
L 438.81982 69.30971 
L 439.3276 69.007172 
L 439.835381 69.06768 
L 440.343161 68.916411 
L 440.850942 69.30971 
L 441.358722 69.188695 
L 441.866503 70.247577 
L 442.374283 69.037426 
L 443.389844 69.128187 
L 443.897625 69.854278 
L 444.405405 69.672755 
L 444.913186 69.249203 
L 445.420966 69.06768 
L 445.928747 68.765142 
L 446.436527 69.55174 
L 446.944308 68.644127 
L 447.452088 69.007172 
L 447.959869 69.642502 
L 448.467649 69.218949 
L 448.97543 69.914786 
L 449.48321 69.914786 
L 449.990991 68.976919 
L 450.498771 69.854278 
L 451.514333 69.007172 
L 452.022113 69.521487 
L 452.529894 69.430725 
L 453.037674 69.642502 
L 453.545455 69.097934 
L 455.068796 69.55174 
L 455.576577 69.460979 
L 456.084357 68.946665 
L 456.592138 68.765142 
L 457.607699 69.884532 
L 458.62326 69.279456 
L 459.13104 69.612248 
L 460.146601 68.765142 
L 460.654382 69.128187 
L 461.669943 69.30971 
L 462.177723 69.793771 
L 463.193284 69.30971 
L 463.701065 69.824024 
L 464.208845 69.581994 
L 464.716626 69.55174 
L 465.224406 69.914786 
L 465.732187 69.370218 
L 466.239967 69.612248 
L 467.255528 68.82565 
L 467.763309 68.795396 
L 468.271089 69.30971 
L 468.77887 69.128187 
L 469.794431 69.703009 
L 470.302211 69.037426 
L 470.809992 69.854278 
L 471.317772 69.06768 
L 471.825553 68.976919 
L 472.333333 69.370218 
L 472.841114 69.581994 
L 473.348894 69.158441 
L 473.856675 69.037426 
L 474.364455 69.763517 
L 474.872236 69.430725 
L 475.380016 69.642502 
L 475.887797 69.400471 
L 476.395577 69.430725 
L 476.903358 68.916411 
L 477.918919 69.06768 
L 478.426699 69.55174 
L 478.93448 69.007172 
L 479.44226 69.218949 
L 479.950041 68.82565 
L 480.457821 70.096308 
L 480.965602 69.703009 
L 481.473382 69.55174 
L 481.981163 69.824024 
L 482.488943 69.400471 
L 482.996724 69.218949 
L 483.504505 69.430725 
L 484.012285 69.128187 
L 484.520066 69.55174 
L 485.027846 69.188695 
L 485.535627 69.914786 
L 486.043407 69.218949 
L 486.551188 69.521487 
L 487.058968 69.097934 
L 487.566749 68.855903 
L 488.074529 68.795396 
L 489.09009 69.824024 
L 490.105651 69.158441 
L 490.613432 69.30971 
L 491.121212 69.703009 
L 492.136773 69.097934 
L 493.152334 69.400471 
L 493.660115 69.007172 
L 494.167895 69.218949 
L 494.675676 69.097934 
L 495.183456 69.672755 
L 496.199017 68.855903 
L 496.706798 68.765142 
L 497.214578 69.642502 
L 497.722359 68.795396 
L 498.230139 68.795396 
L 499.2457 69.55174 
L 499.753481 69.097934 
L 500.261261 69.188695 
L 500.769042 69.854278 
L 501.276822 69.854278 
L 501.784603 69.703009 
L 502.292383 69.30971 
L 502.800164 69.30971 
L 503.307944 69.007172 
L 504.323505 69.491233 
L 504.831286 68.976919 
L 505.846847 69.491233 
L 506.354627 69.188695 
L 506.862408 69.128187 
L 507.370188 69.339964 
L 507.877969 69.249203 
L 508.385749 70.126562 
L 508.89353 69.128187 
L 509.40131 69.460979 
L 509.909091 69.279456 
L 510.416871 68.916411 
L 511.432432 69.128187 
L 511.940213 69.007172 
L 512.447993 69.128187 
L 512.955774 69.491233 
L 513.463554 69.672755 
L 513.971335 69.128187 
L 514.479115 69.703009 
L 514.986896 69.158441 
L 515.494676 69.007172 
L 516.002457 69.218949 
L 516.510238 68.82565 
L 517.018018 69.491233 
L 518.033579 69.460979 
L 518.54136 69.097934 
L 519.04914 69.55174 
L 519.556921 69.30971 
L 520.064701 69.430725 
L 520.572482 69.430725 
L 521.080262 68.916411 
L 521.588043 69.491233 
L 522.095823 69.793771 
L 522.603604 69.55174 
L 523.111384 69.037426 
L 523.619165 69.763517 
L 524.634726 69.218949 
L 525.142506 69.370218 
L 526.158067 69.521487 
L 526.665848 69.158441 
L 527.173628 69.249203 
L 528.189189 68.916411 
L 528.69697 69.128187 
L 529.20475 69.158441 
L 529.712531 69.642502 
L 530.728092 69.581994 
L 531.743653 69.188695 
L 532.251433 69.55174 
L 532.759214 69.339964 
L 533.266994 69.914786 
L 533.774775 68.976919 
L 534.282555 69.339964 
L 534.790336 69.037426 
L 535.298116 69.521487 
L 535.805897 69.430725 
L 536.313677 70.4291 
L 536.821458 69.037426 
L 537.329238 69.430725 
L 537.837019 69.06768 
L 538.344799 68.886157 
L 538.85258 69.55174 
L 539.36036 69.521487 
L 539.868141 69.218949 
L 540.375921 69.400471 
L 540.883702 68.82565 
L 541.391482 69.945039 
L 541.899263 68.765142 
L 542.407043 69.370218 
L 542.914824 69.581994 
L 543.422604 69.460979 
L 543.930385 70.580369 
L 544.438165 69.097934 
L 544.945946 69.55174 
L 545.453726 69.430725 
L 545.961507 69.06768 
L 546.469287 69.339964 
L 546.977068 69.097934 
L 547.484848 69.703009 
L 547.992629 69.581994 
L 549.00819 68.765142 
L 549.515971 69.430725 
L 550.023751 68.916411 
L 550.531532 69.430725 
L 551.547093 69.158441 
L 552.054873 68.916411 
L 552.562654 69.642502 
L 553.070434 69.037426 
L 553.578215 69.491233 
L 554.085995 68.644127 
L 554.593776 69.370218 
L 555.101556 69.128187 
L 555.609337 69.30971 
L 556.117117 69.279456 
L 556.624898 69.430725 
L 557.132678 69.128187 
L 557.640459 69.279456 
L 558.148239 68.976919 
L 558.65602 69.612248 
L 559.1638 68.946665 
L 559.671581 70.247577 
L 560.179361 69.007172 
L 560.687142 69.279456 
L 561.194922 69.128187 
L 561.702703 69.097934 
L 562.210483 69.370218 
L 562.718264 68.855903 
L 563.226044 69.218949 
L 563.733825 70.035801 
L 564.241605 69.55174 
L 564.749386 69.279456 
L 565.257166 69.400471 
L 565.764947 68.946665 
L 566.272727 69.400471 
L 566.780508 69.55174 
L 567.796069 68.946665 
L 568.303849 69.188695 
L 568.81163 69.037426 
L 569.827191 69.158441 
L 570.334971 69.128187 
L 570.842752 69.521487 
L 571.350532 69.370218 
L 571.858313 69.581994 
L 572.366093 69.188695 
L 573.381654 69.128187 
L 573.889435 68.886157 
L 574.904996 69.097934 
L 575.412776 69.491233 
L 575.920557 69.188695 
L 576.428337 69.703009 
L 576.936118 69.158441 
L 577.443898 69.158441 
L 577.951679 69.521487 
L 578.459459 69.642502 
L 578.96724 69.279456 
L 579.47502 69.279456 
L 579.982801 68.976919 
L 580.490581 69.037426 
L 580.998362 68.886157 
L 581.506143 68.946665 
L 582.013923 69.733263 
L 582.521704 68.734888 
L 583.029484 69.30971 
L 583.537265 68.916411 
L 584.045045 69.400471 
L 584.552826 69.460979 
L 585.060606 69.007172 
L 585.568387 69.612248 
L 586.076167 68.916411 
L 586.583948 68.916411 
L 587.091728 69.06768 
L 587.599509 68.855903 
L 588.107289 69.218949 
L 588.61507 69.400471 
L 589.12285 69.249203 
L 590.138411 69.672755 
L 590.646192 69.218949 
L 591.153972 69.037426 
L 591.661753 69.703009 
L 592.169533 69.612248 
L 592.677314 68.765142 
L 594.200655 69.55174 
L 594.708436 68.734888 
L 595.216216 69.279456 
L 595.723997 69.491233 
L 596.231777 68.795396 
L 596.739558 69.733263 
L 597.247338 68.855903 
L 597.755119 68.946665 
L 598.262899 69.430725 
L 598.77068 69.491233 
L 599.27846 69.037426 
L 600.294021 69.097934 
L 600.801802 68.613873 
L 601.309582 69.279456 
L 601.817363 69.339964 
L 602.325143 68.946665 
L 602.832924 69.733263 
L 604.864046 68.795396 
L 605.371826 69.097934 
L 605.879607 68.946665 
L 606.387387 68.946665 
L 606.895168 68.765142 
L 607.402948 69.218949 
L 607.910729 69.097934 
L 608.418509 69.672755 
L 609.43407 68.795396 
L 609.941851 68.765142 
L 610.449631 69.581994 
L 610.957412 69.037426 
L 611.465192 69.430725 
L 611.972973 69.581994 
L 612.480753 68.765142 
L 613.496314 69.30971 
L 614.004095 68.855903 
L 614.511876 69.30971 
L 615.019656 69.339964 
L 615.527437 69.097934 
L 616.035217 68.674381 
L 616.542998 69.218949 
L 617.050778 69.339964 
L 617.558559 69.037426 
L 618.57412 69.128187 
L 619.0819 69.037426 
L 619.589681 69.400471 
L 620.097461 69.037426 
L 620.605242 69.097934 
L 621.113022 69.037426 
L 621.620803 68.855903 
L 622.128583 69.763517 
L 622.636364 69.30971 
L 622.636364 69.30971 
" clip-path="url(#p5529f92993)" style="fill: none; stroke: #ff7f0e; stroke-width: 1.5; stroke-linecap: square"/>
   </g>
   <g id="line2d_15">
    <path d="M 115.363636 360.96748 
L 115.871417 367.484182 
L 116.379197 368.192105 
L 116.886978 368.442177 
L 118.410319 368.736553 
L 121.964783 368.94201 
L 126.534808 369.053966 
L 224.028665 369.299312 
L 238.7543 369.307007 
L 249.41769 369.3158 
L 263.635545 369.321135 
L 323.045864 369.336079 
L 353.004914 369.337398 
L 362.144963 369.337576 
L 376.870598 369.343857 
L 622.636364 369.357347 
L 622.636364 369.357347 
" clip-path="url(#p5529f92993)" style="fill: none; stroke: #2ca02c; stroke-width: 1.5; stroke-linecap: square"/>
   </g>
   <g id="line2d_16">
    <path d="M 115.363636 366.6069 
L 115.871417 368.014446 
L 116.886978 368.49345 
L 118.9181 368.822727 
L 119.42588 368.964182 
L 120.441441 368.962199 
L 121.964783 369.017963 
L 124.503686 369.104612 
L 125.011466 369.018607 
L 126.534808 369.058267 
L 127.550369 369.074908 
L 129.07371 369.134622 
L 131.104832 369.084123 
L 131.612613 369.1726 
L 134.151515 369.130046 
L 139.22932 369.190485 
L 276.837838 369.22178 
L 278.361179 369.222772 
L 280.900082 369.199851 
L 284.962326 369.22275 
L 297.149058 369.182201 
L 298.164619 369.220962 
L 299.18018 369.214943 
L 543.422604 369.192074 
L 543.930385 369.096595 
L 544.438165 369.197549 
L 546.469287 369.202491 
L 552.054873 369.226539 
L 553.070434 369.197499 
L 556.624898 369.200465 
L 589.12285 369.211489 
L 590.646192 369.200166 
L 602.325143 369.21901 
L 602.832924 369.144799 
L 604.864046 369.223927 
L 607.402948 369.20936 
L 609.941851 369.220511 
L 610.449631 369.153721 
L 610.957412 369.226527 
L 611.972973 369.172104 
L 612.988534 369.210082 
L 620.605242 369.210323 
L 622.636364 369.181285 
L 622.636364 369.181285 
" clip-path="url(#p5529f92993)" style="fill: none; stroke: #d62728; stroke-width: 1.5; stroke-linecap: square"/>
   </g>
   <g id="patch_3">
    <path d="M 90 384.48 
L 90 51.84 
" style="fill: none; stroke: #000000; stroke-width: 0.8; stroke-linejoin: miter; stroke-linecap: square"/>
   </g>
   <g id="patch_4">
    <path d="M 648 384.48 
L 648 51.84 
" style="fill: none; stroke: #000000; stroke-width: 0.8; stroke-linejoin: miter; stroke-linecap: square"/>
   </g>
   <g id="patch_5">
    <path d="M 90 384.48 
L 648 384.48 
" style="fill: none; stroke: #000000; stroke-width: 0.8; stroke-linejoin: miter; stroke-linecap: square"/>
   </g>
   <g id="patch_6">
    <path d="M 90 51.84 
L 648 51.84 
" style="fill: none; stroke: #000000; stroke-width: 0.8; stroke-linejoin: miter; stroke-linecap: square"/>
   </g>
   <g id="text_15">
    <!-- Accuracy -->
    <g transform="translate(341.60625 45.84) scale(0.12 -0.12)">
     <use xlink:href="#DejaVuSans-41"/>
     <use xlink:href="#DejaVuSans-63" x="66.658203"/>
     <use xlink:href="#DejaVuSans-63" x="121.638672"/>
     <use xlink:href="#DejaVuSans-75" x="176.619141"/>
     <use xlink:href="#DejaVuSans-72" x="239.998047"/>
     <use xlink:href="#DejaVuSans-61" x="281.111328"/>
     <use xlink:href="#DejaVuSans-63" x="342.390625"/>
     <use xlink:href="#DejaVuSans-79" x="397.371094"/>
    </g>
   </g>
   <g id="legend_1">
    <g id="patch_7">
     <path d="M 560.696875 249.5725 
L 641 249.5725 
Q 643 249.5725 643 247.5725 
L 643 188.7475 
Q 643 186.7475 641 186.7475 
L 560.696875 186.7475 
Q 558.696875 186.7475 558.696875 188.7475 
L 558.696875 247.5725 
Q 558.696875 249.5725 560.696875 249.5725 
z
" style="fill: #ffffff; opacity: 0.8; stroke: #cccccc; stroke-linejoin: miter"/>
    </g>
    <g id="line2d_17">
     <path d="M 562.696875 194.845937 
L 572.696875 194.845937 
L 582.696875 194.845937 
" style="fill: none; stroke: #1f77b4; stroke-width: 1.5; stroke-linecap: square"/>
    </g>
    <g id="text_16">
     <!-- Train_acc -->
     <g transform="translate(590.696875 198.345937) scale(0.1 -0.1)">
      <defs>
       <path id="DejaVuSans-54" d="M -19 4666 
L 3928 4666 
L 3928 4134 
L 2272 4134 
L 2272 0 
L 1638 0 
L 1638 4134 
L -19 4134 
L -19 4666 
z
" transform="scale(0.015625)"/>
       <path id="DejaVuSans-69" d="M 603 3500 
L 1178 3500 
L 1178 0 
L 603 0 
L 603 3500 
z
M 603 4863 
L 1178 4863 
L 1178 4134 
L 603 4134 
L 603 4863 
z
" transform="scale(0.015625)"/>
       <path id="DejaVuSans-6e" d="M 3513 2113 
L 3513 0 
L 2938 0 
L 2938 2094 
Q 2938 2591 2744 2837 
Q 2550 3084 2163 3084 
Q 1697 3084 1428 2787 
Q 1159 2491 1159 1978 
L 1159 0 
L 581 0 
L 581 3500 
L 1159 3500 
L 1159 2956 
Q 1366 3272 1645 3428 
Q 1925 3584 2291 3584 
Q 2894 3584 3203 3211 
Q 3513 2838 3513 2113 
z
" transform="scale(0.015625)"/>
       <path id="DejaVuSans-5f" d="M 3263 -1063 
L 3263 -1509 
L -63 -1509 
L -63 -1063 
L 3263 -1063 
z
" transform="scale(0.015625)"/>
      </defs>
      <use xlink:href="#DejaVuSans-54"/>
      <use xlink:href="#DejaVuSans-72" x="46.333984"/>
      <use xlink:href="#DejaVuSans-61" x="87.447266"/>
      <use xlink:href="#DejaVuSans-69" x="148.726562"/>
      <use xlink:href="#DejaVuSans-6e" x="176.509766"/>
      <use xlink:href="#DejaVuSans-5f" x="239.888672"/>
      <use xlink:href="#DejaVuSans-61" x="289.888672"/>
      <use xlink:href="#DejaVuSans-63" x="351.167969"/>
      <use xlink:href="#DejaVuSans-63" x="406.148438"/>
     </g>
    </g>
    <g id="line2d_18">
     <path d="M 562.696875 209.802188 
L 572.696875 209.802188 
L 582.696875 209.802188 
" style="fill: none; stroke: #ff7f0e; stroke-width: 1.5; stroke-linecap: square"/>
    </g>
    <g id="text_17">
     <!-- Test_acc -->
     <g transform="translate(590.696875 213.302188) scale(0.1 -0.1)">
      <defs>
       <path id="DejaVuSans-65" d="M 3597 1894 
L 3597 1613 
L 953 1613 
Q 991 1019 1311 708 
Q 1631 397 2203 397 
Q 2534 397 2845 478 
Q 3156 559 3463 722 
L 3463 178 
Q 3153 47 2828 -22 
Q 2503 -91 2169 -91 
Q 1331 -91 842 396 
Q 353 884 353 1716 
Q 353 2575 817 3079 
Q 1281 3584 2069 3584 
Q 2775 3584 3186 3129 
Q 3597 2675 3597 1894 
z
M 3022 2063 
Q 3016 2534 2758 2815 
Q 2500 3097 2075 3097 
Q 1594 3097 1305 2825 
Q 1016 2553 972 2059 
L 3022 2063 
z
" transform="scale(0.015625)"/>
       <path id="DejaVuSans-73" d="M 2834 3397 
L 2834 2853 
Q 2591 2978 2328 3040 
Q 2066 3103 1784 3103 
Q 1356 3103 1142 2972 
Q 928 2841 928 2578 
Q 928 2378 1081 2264 
Q 1234 2150 1697 2047 
L 1894 2003 
Q 2506 1872 2764 1633 
Q 3022 1394 3022 966 
Q 3022 478 2636 193 
Q 2250 -91 1575 -91 
Q 1294 -91 989 -36 
Q 684 19 347 128 
L 347 722 
Q 666 556 975 473 
Q 1284 391 1588 391 
Q 1994 391 2212 530 
Q 2431 669 2431 922 
Q 2431 1156 2273 1281 
Q 2116 1406 1581 1522 
L 1381 1569 
Q 847 1681 609 1914 
Q 372 2147 372 2553 
Q 372 3047 722 3315 
Q 1072 3584 1716 3584 
Q 2034 3584 2315 3537 
Q 2597 3491 2834 3397 
z
" transform="scale(0.015625)"/>
       <path id="DejaVuSans-74" d="M 1172 4494 
L 1172 3500 
L 2356 3500 
L 2356 3053 
L 1172 3053 
L 1172 1153 
Q 1172 725 1289 603 
Q 1406 481 1766 481 
L 2356 481 
L 2356 0 
L 1766 0 
Q 1100 0 847 248 
Q 594 497 594 1153 
L 594 3053 
L 172 3053 
L 172 3500 
L 594 3500 
L 594 4494 
L 1172 4494 
z
" transform="scale(0.015625)"/>
      </defs>
      <use xlink:href="#DejaVuSans-54"/>
      <use xlink:href="#DejaVuSans-65" x="44.083984"/>
      <use xlink:href="#DejaVuSans-73" x="105.607422"/>
      <use xlink:href="#DejaVuSans-74" x="157.707031"/>
      <use xlink:href="#DejaVuSans-5f" x="196.916016"/>
      <use xlink:href="#DejaVuSans-61" x="246.916016"/>
      <use xlink:href="#DejaVuSans-63" x="308.195312"/>
      <use xlink:href="#DejaVuSans-63" x="363.175781"/>
     </g>
    </g>
    <g id="line2d_19">
     <path d="M 562.696875 224.758437 
L 572.696875 224.758437 
L 582.696875 224.758437 
" style="fill: none; stroke: #2ca02c; stroke-width: 1.5; stroke-linecap: square"/>
    </g>
    <g id="text_18">
     <!-- Train_loss -->
     <g transform="translate(590.696875 228.258437) scale(0.1 -0.1)">
      <defs>
       <path id="DejaVuSans-6c" d="M 603 4863 
L 1178 4863 
L 1178 0 
L 603 0 
L 603 4863 
z
" transform="scale(0.015625)"/>
      </defs>
      <use xlink:href="#DejaVuSans-54"/>
      <use xlink:href="#DejaVuSans-72" x="46.333984"/>
      <use xlink:href="#DejaVuSans-61" x="87.447266"/>
      <use xlink:href="#DejaVuSans-69" x="148.726562"/>
      <use xlink:href="#DejaVuSans-6e" x="176.509766"/>
      <use xlink:href="#DejaVuSans-5f" x="239.888672"/>
      <use xlink:href="#DejaVuSans-6c" x="289.888672"/>
      <use xlink:href="#DejaVuSans-6f" x="317.671875"/>
      <use xlink:href="#DejaVuSans-73" x="378.853516"/>
      <use xlink:href="#DejaVuSans-73" x="430.953125"/>
     </g>
    </g>
    <g id="line2d_20">
     <path d="M 562.696875 239.714687 
L 572.696875 239.714687 
L 582.696875 239.714687 
" style="fill: none; stroke: #d62728; stroke-width: 1.5; stroke-linecap: square"/>
    </g>
    <g id="text_19">
     <!-- Test_loss -->
     <g transform="translate(590.696875 243.214687) scale(0.1 -0.1)">
      <use xlink:href="#DejaVuSans-54"/>
      <use xlink:href="#DejaVuSans-65" x="44.083984"/>
      <use xlink:href="#DejaVuSans-73" x="105.607422"/>
      <use xlink:href="#DejaVuSans-74" x="157.707031"/>
      <use xlink:href="#DejaVuSans-5f" x="196.916016"/>
      <use xlink:href="#DejaVuSans-6c" x="246.916016"/>
      <use xlink:href="#DejaVuSans-6f" x="274.699219"/>
      <use xlink:href="#DejaVuSans-73" x="335.880859"/>
      <use xlink:href="#DejaVuSans-73" x="387.980469"/>
     </g>
    </g>
   </g>
  </g>
 </g>
 <defs>
  <clipPath id="p5529f92993">
   <rect x="90" y="51.84" width="558" height="332.64"/>
  </clipPath>
 </defs>
</svg>
