<?xml version="1.0" encoding="utf-8" standalone="no"?>
<!DOCTYPE svg PUBLIC "-//W3C//DTD SVG 1.1//EN"
  "http://www.w3.org/Graphics/SVG/1.1/DTD/svg11.dtd">
<svg xmlns:xlink="http://www.w3.org/1999/xlink" width="720pt" height="432pt" viewBox="0 0 720 432" xmlns="http://www.w3.org/2000/svg" version="1.1">
 <metadata>
  <rdf:RDF xmlns:dc="http://purl.org/dc/elements/1.1/" xmlns:cc="http://creativecommons.org/ns#" xmlns:rdf="http://www.w3.org/1999/02/22-rdf-syntax-ns#">
   <cc:Work>
    <dc:type rdf:resource="http://purl.org/dc/dcmitype/StillImage"/>
    <dc:date>2023-04-15T02:58:57.838578</dc:date>
    <dc:format>image/svg+xml</dc:format>
    <dc:creator>
     <cc:Agent>
      <dc:title>Matplotlib v3.7.1, https://matplotlib.org/</dc:title>
     </cc:Agent>
    </dc:creator>
   </cc:Work>
  </rdf:RDF>
 </metadata>
 <defs>
  <style type="text/css">*{stroke-linejoin: round; stroke-linecap: butt}</style>
 </defs>
 <g id="figure_1">
  <g id="patch_1">
   <path d="M 0 432 
L 720 432 
L 720 0 
L 0 0 
z
" style="fill: #ffffff"/>
  </g>
  <g id="axes_1">
   <g id="patch_2">
    <path d="M 90 384.48 
L 648 384.48 
L 648 51.84 
L 90 51.84 
z
" style="fill: #ffffff"/>
   </g>
   <g id="matplotlib.axis_1">
    <g id="xtick_1">
     <g id="line2d_1">
      <defs>
       <path id="m1fe956be95" d="M 0 0 
L 0 3.5 
" style="stroke: #000000; stroke-width: 0.8"/>
      </defs>
      <g>
       <use xlink:href="#m1fe956be95" x="115.363636" y="384.48" style="stroke: #000000; stroke-width: 0.8"/>
      </g>
     </g>
     <g id="text_1">
      <!-- 0 -->
      <g transform="translate(112.182386 399.078438) scale(0.1 -0.1)">
       <defs>
        <path id="DejaVuSans-30" d="M 2034 4250 
Q 1547 4250 1301 3770 
Q 1056 3291 1056 2328 
Q 1056 1369 1301 889 
Q 1547 409 2034 409 
Q 2525 409 2770 889 
Q 3016 1369 3016 2328 
Q 3016 3291 2770 3770 
Q 2525 4250 2034 4250 
z
M 2034 4750 
Q 2819 4750 3233 4129 
Q 3647 3509 3647 2328 
Q 3647 1150 3233 529 
Q 2819 -91 2034 -91 
Q 1250 -91 836 529 
Q 422 1150 422 2328 
Q 422 3509 836 4129 
Q 1250 4750 2034 4750 
z
" transform="scale(0.015625)"/>
       </defs>
       <use xlink:href="#DejaVuSans-30"/>
      </g>
     </g>
    </g>
    <g id="xtick_2">
     <g id="line2d_2">
      <g>
       <use xlink:href="#m1fe956be95" x="216.919738" y="384.48" style="stroke: #000000; stroke-width: 0.8"/>
      </g>
     </g>
     <g id="text_2">
      <!-- 200 -->
      <g transform="translate(207.375988 399.078438) scale(0.1 -0.1)">
       <defs>
        <path id="DejaVuSans-32" d="M 1228 531 
L 3431 531 
L 3431 0 
L 469 0 
L 469 531 
Q 828 903 1448 1529 
Q 2069 2156 2228 2338 
Q 2531 2678 2651 2914 
Q 2772 3150 2772 3378 
Q 2772 3750 2511 3984 
Q 2250 4219 1831 4219 
Q 1534 4219 1204 4116 
Q 875 4013 500 3803 
L 500 4441 
Q 881 4594 1212 4672 
Q 1544 4750 1819 4750 
Q 2544 4750 2975 4387 
Q 3406 4025 3406 3419 
Q 3406 3131 3298 2873 
Q 3191 2616 2906 2266 
Q 2828 2175 2409 1742 
Q 1991 1309 1228 531 
z
" transform="scale(0.015625)"/>
       </defs>
       <use xlink:href="#DejaVuSans-32"/>
       <use xlink:href="#DejaVuSans-30" x="63.623047"/>
       <use xlink:href="#DejaVuSans-30" x="127.246094"/>
      </g>
     </g>
    </g>
    <g id="xtick_3">
     <g id="line2d_3">
      <g>
       <use xlink:href="#m1fe956be95" x="318.475839" y="384.48" style="stroke: #000000; stroke-width: 0.8"/>
      </g>
     </g>
     <g id="text_3">
      <!-- 400 -->
      <g transform="translate(308.932089 399.078438) scale(0.1 -0.1)">
       <defs>
        <path id="DejaVuSans-34" d="M 2419 4116 
L 825 1625 
L 2419 1625 
L 2419 4116 
z
M 2253 4666 
L 3047 4666 
L 3047 1625 
L 3713 1625 
L 3713 1100 
L 3047 1100 
L 3047 0 
L 2419 0 
L 2419 1100 
L 313 1100 
L 313 1709 
L 2253 4666 
z
" transform="scale(0.015625)"/>
       </defs>
       <use xlink:href="#DejaVuSans-34"/>
       <use xlink:href="#DejaVuSans-30" x="63.623047"/>
       <use xlink:href="#DejaVuSans-30" x="127.246094"/>
      </g>
     </g>
    </g>
    <g id="xtick_4">
     <g id="line2d_4">
      <g>
       <use xlink:href="#m1fe956be95" x="420.031941" y="384.48" style="stroke: #000000; stroke-width: 0.8"/>
      </g>
     </g>
     <g id="text_4">
      <!-- 600 -->
      <g transform="translate(410.488191 399.078438) scale(0.1 -0.1)">
       <defs>
        <path id="DejaVuSans-36" d="M 2113 2584 
Q 1688 2584 1439 2293 
Q 1191 2003 1191 1497 
Q 1191 994 1439 701 
Q 1688 409 2113 409 
Q 2538 409 2786 701 
Q 3034 994 3034 1497 
Q 3034 2003 2786 2293 
Q 2538 2584 2113 2584 
z
M 3366 4563 
L 3366 3988 
Q 3128 4100 2886 4159 
Q 2644 4219 2406 4219 
Q 1781 4219 1451 3797 
Q 1122 3375 1075 2522 
Q 1259 2794 1537 2939 
Q 1816 3084 2150 3084 
Q 2853 3084 3261 2657 
Q 3669 2231 3669 1497 
Q 3669 778 3244 343 
Q 2819 -91 2113 -91 
Q 1303 -91 875 529 
Q 447 1150 447 2328 
Q 447 3434 972 4092 
Q 1497 4750 2381 4750 
Q 2619 4750 2861 4703 
Q 3103 4656 3366 4563 
z
" transform="scale(0.015625)"/>
       </defs>
       <use xlink:href="#DejaVuSans-36"/>
       <use xlink:href="#DejaVuSans-30" x="63.623047"/>
       <use xlink:href="#DejaVuSans-30" x="127.246094"/>
      </g>
     </g>
    </g>
    <g id="xtick_5">
     <g id="line2d_5">
      <g>
       <use xlink:href="#m1fe956be95" x="521.588043" y="384.48" style="stroke: #000000; stroke-width: 0.8"/>
      </g>
     </g>
     <g id="text_5">
      <!-- 800 -->
      <g transform="translate(512.044293 399.078438) scale(0.1 -0.1)">
       <defs>
        <path id="DejaVuSans-38" d="M 2034 2216 
Q 1584 2216 1326 1975 
Q 1069 1734 1069 1313 
Q 1069 891 1326 650 
Q 1584 409 2034 409 
Q 2484 409 2743 651 
Q 3003 894 3003 1313 
Q 3003 1734 2745 1975 
Q 2488 2216 2034 2216 
z
M 1403 2484 
Q 997 2584 770 2862 
Q 544 3141 544 3541 
Q 544 4100 942 4425 
Q 1341 4750 2034 4750 
Q 2731 4750 3128 4425 
Q 3525 4100 3525 3541 
Q 3525 3141 3298 2862 
Q 3072 2584 2669 2484 
Q 3125 2378 3379 2068 
Q 3634 1759 3634 1313 
Q 3634 634 3220 271 
Q 2806 -91 2034 -91 
Q 1263 -91 848 271 
Q 434 634 434 1313 
Q 434 1759 690 2068 
Q 947 2378 1403 2484 
z
M 1172 3481 
Q 1172 3119 1398 2916 
Q 1625 2713 2034 2713 
Q 2441 2713 2670 2916 
Q 2900 3119 2900 3481 
Q 2900 3844 2670 4047 
Q 2441 4250 2034 4250 
Q 1625 4250 1398 4047 
Q 1172 3844 1172 3481 
z
" transform="scale(0.015625)"/>
       </defs>
       <use xlink:href="#DejaVuSans-38"/>
       <use xlink:href="#DejaVuSans-30" x="63.623047"/>
       <use xlink:href="#DejaVuSans-30" x="127.246094"/>
      </g>
     </g>
    </g>
    <g id="xtick_6">
     <g id="line2d_6">
      <g>
       <use xlink:href="#m1fe956be95" x="623.144144" y="384.48" style="stroke: #000000; stroke-width: 0.8"/>
      </g>
     </g>
     <g id="text_6">
      <!-- 1000 -->
      <g transform="translate(610.419144 399.078438) scale(0.1 -0.1)">
       <defs>
        <path id="DejaVuSans-31" d="M 794 531 
L 1825 531 
L 1825 4091 
L 703 3866 
L 703 4441 
L 1819 4666 
L 2450 4666 
L 2450 531 
L 3481 531 
L 3481 0 
L 794 0 
L 794 531 
z
" transform="scale(0.015625)"/>
       </defs>
       <use xlink:href="#DejaVuSans-31"/>
       <use xlink:href="#DejaVuSans-30" x="63.623047"/>
       <use xlink:href="#DejaVuSans-30" x="127.246094"/>
       <use xlink:href="#DejaVuSans-30" x="190.869141"/>
      </g>
     </g>
    </g>
    <g id="text_7">
     <!-- Epoch -->
     <g transform="translate(353.689062 412.756563) scale(0.1 -0.1)">
      <defs>
       <path id="DejaVuSans-45" d="M 628 4666 
L 3578 4666 
L 3578 4134 
L 1259 4134 
L 1259 2753 
L 3481 2753 
L 3481 2222 
L 1259 2222 
L 1259 531 
L 3634 531 
L 3634 0 
L 628 0 
L 628 4666 
z
" transform="scale(0.015625)"/>
       <path id="DejaVuSans-70" d="M 1159 525 
L 1159 -1331 
L 581 -1331 
L 581 3500 
L 1159 3500 
L 1159 2969 
Q 1341 3281 1617 3432 
Q 1894 3584 2278 3584 
Q 2916 3584 3314 3078 
Q 3713 2572 3713 1747 
Q 3713 922 3314 415 
Q 2916 -91 2278 -91 
Q 1894 -91 1617 61 
Q 1341 213 1159 525 
z
M 3116 1747 
Q 3116 2381 2855 2742 
Q 2594 3103 2138 3103 
Q 1681 3103 1420 2742 
Q 1159 2381 1159 1747 
Q 1159 1113 1420 752 
Q 1681 391 2138 391 
Q 2594 391 2855 752 
Q 3116 1113 3116 1747 
z
" transform="scale(0.015625)"/>
       <path id="DejaVuSans-6f" d="M 1959 3097 
Q 1497 3097 1228 2736 
Q 959 2375 959 1747 
Q 959 1119 1226 758 
Q 1494 397 1959 397 
Q 2419 397 2687 759 
Q 2956 1122 2956 1747 
Q 2956 2369 2687 2733 
Q 2419 3097 1959 3097 
z
M 1959 3584 
Q 2709 3584 3137 3096 
Q 3566 2609 3566 1747 
Q 3566 888 3137 398 
Q 2709 -91 1959 -91 
Q 1206 -91 779 398 
Q 353 888 353 1747 
Q 353 2609 779 3096 
Q 1206 3584 1959 3584 
z
" transform="scale(0.015625)"/>
       <path id="DejaVuSans-63" d="M 3122 3366 
L 3122 2828 
Q 2878 2963 2633 3030 
Q 2388 3097 2138 3097 
Q 1578 3097 1268 2742 
Q 959 2388 959 1747 
Q 959 1106 1268 751 
Q 1578 397 2138 397 
Q 2388 397 2633 464 
Q 2878 531 3122 666 
L 3122 134 
Q 2881 22 2623 -34 
Q 2366 -91 2075 -91 
Q 1284 -91 818 406 
Q 353 903 353 1747 
Q 353 2603 823 3093 
Q 1294 3584 2113 3584 
Q 2378 3584 2631 3529 
Q 2884 3475 3122 3366 
z
" transform="scale(0.015625)"/>
       <path id="DejaVuSans-68" d="M 3513 2113 
L 3513 0 
L 2938 0 
L 2938 2094 
Q 2938 2591 2744 2837 
Q 2550 3084 2163 3084 
Q 1697 3084 1428 2787 
Q 1159 2491 1159 1978 
L 1159 0 
L 581 0 
L 581 4863 
L 1159 4863 
L 1159 2956 
Q 1366 3272 1645 3428 
Q 1925 3584 2291 3584 
Q 2894 3584 3203 3211 
Q 3513 2838 3513 2113 
z
" transform="scale(0.015625)"/>
      </defs>
      <use xlink:href="#DejaVuSans-45"/>
      <use xlink:href="#DejaVuSans-70" x="63.183594"/>
      <use xlink:href="#DejaVuSans-6f" x="126.660156"/>
      <use xlink:href="#DejaVuSans-63" x="187.841797"/>
      <use xlink:href="#DejaVuSans-68" x="242.822266"/>
     </g>
    </g>
   </g>
   <g id="matplotlib.axis_2">
    <g id="ytick_1">
     <g id="line2d_7">
      <defs>
       <path id="m1567a793ef" d="M 0 0 
L -3.5 0 
" style="stroke: #000000; stroke-width: 0.8"/>
      </defs>
      <g>
       <use xlink:href="#m1567a793ef" x="90" y="369.360035" style="stroke: #000000; stroke-width: 0.8"/>
      </g>
     </g>
     <g id="text_8">
      <!-- 0.0 -->
      <g transform="translate(67.096875 373.159254) scale(0.1 -0.1)">
       <defs>
        <path id="DejaVuSans-2e" d="M 684 794 
L 1344 794 
L 1344 0 
L 684 0 
L 684 794 
z
" transform="scale(0.015625)"/>
       </defs>
       <use xlink:href="#DejaVuSans-30"/>
       <use xlink:href="#DejaVuSans-2e" x="63.623047"/>
       <use xlink:href="#DejaVuSans-30" x="95.410156"/>
      </g>
     </g>
    </g>
    <g id="ytick_2">
     <g id="line2d_8">
      <g>
       <use xlink:href="#m1567a793ef" x="90" y="308.880028" style="stroke: #000000; stroke-width: 0.8"/>
      </g>
     </g>
     <g id="text_9">
      <!-- 0.2 -->
      <g transform="translate(67.096875 312.679247) scale(0.1 -0.1)">
       <use xlink:href="#DejaVuSans-30"/>
       <use xlink:href="#DejaVuSans-2e" x="63.623047"/>
       <use xlink:href="#DejaVuSans-32" x="95.410156"/>
      </g>
     </g>
    </g>
    <g id="ytick_3">
     <g id="line2d_9">
      <g>
       <use xlink:href="#m1567a793ef" x="90" y="248.400021" style="stroke: #000000; stroke-width: 0.8"/>
      </g>
     </g>
     <g id="text_10">
      <!-- 0.4 -->
      <g transform="translate(67.096875 252.19924) scale(0.1 -0.1)">
       <use xlink:href="#DejaVuSans-30"/>
       <use xlink:href="#DejaVuSans-2e" x="63.623047"/>
       <use xlink:href="#DejaVuSans-34" x="95.410156"/>
      </g>
     </g>
    </g>
    <g id="ytick_4">
     <g id="line2d_10">
      <g>
       <use xlink:href="#m1567a793ef" x="90" y="187.920014" style="stroke: #000000; stroke-width: 0.8"/>
      </g>
     </g>
     <g id="text_11">
      <!-- 0.6 -->
      <g transform="translate(67.096875 191.719233) scale(0.1 -0.1)">
       <use xlink:href="#DejaVuSans-30"/>
       <use xlink:href="#DejaVuSans-2e" x="63.623047"/>
       <use xlink:href="#DejaVuSans-36" x="95.410156"/>
      </g>
     </g>
    </g>
    <g id="ytick_5">
     <g id="line2d_11">
      <g>
       <use xlink:href="#m1567a793ef" x="90" y="127.440007" style="stroke: #000000; stroke-width: 0.8"/>
      </g>
     </g>
     <g id="text_12">
      <!-- 0.8 -->
      <g transform="translate(67.096875 131.239226) scale(0.1 -0.1)">
       <use xlink:href="#DejaVuSans-30"/>
       <use xlink:href="#DejaVuSans-2e" x="63.623047"/>
       <use xlink:href="#DejaVuSans-38" x="95.410156"/>
      </g>
     </g>
    </g>
    <g id="ytick_6">
     <g id="line2d_12">
      <g>
       <use xlink:href="#m1567a793ef" x="90" y="66.96" style="stroke: #000000; stroke-width: 0.8"/>
      </g>
     </g>
     <g id="text_13">
      <!-- 1.0 -->
      <g transform="translate(67.096875 70.759219) scale(0.1 -0.1)">
       <use xlink:href="#DejaVuSans-31"/>
       <use xlink:href="#DejaVuSans-2e" x="63.623047"/>
       <use xlink:href="#DejaVuSans-30" x="95.410156"/>
      </g>
     </g>
    </g>
    <g id="text_14">
     <!-- Accuracy -->
     <g transform="translate(61.017187 240.988125) rotate(-90) scale(0.1 -0.1)">
      <defs>
       <path id="DejaVuSans-41" d="M 2188 4044 
L 1331 1722 
L 3047 1722 
L 2188 4044 
z
M 1831 4666 
L 2547 4666 
L 4325 0 
L 3669 0 
L 3244 1197 
L 1141 1197 
L 716 0 
L 50 0 
L 1831 4666 
z
" transform="scale(0.015625)"/>
       <path id="DejaVuSans-75" d="M 544 1381 
L 544 3500 
L 1119 3500 
L 1119 1403 
Q 1119 906 1312 657 
Q 1506 409 1894 409 
Q 2359 409 2629 706 
Q 2900 1003 2900 1516 
L 2900 3500 
L 3475 3500 
L 3475 0 
L 2900 0 
L 2900 538 
Q 2691 219 2414 64 
Q 2138 -91 1772 -91 
Q 1169 -91 856 284 
Q 544 659 544 1381 
z
M 1991 3584 
L 1991 3584 
z
" transform="scale(0.015625)"/>
       <path id="DejaVuSans-72" d="M 2631 2963 
Q 2534 3019 2420 3045 
Q 2306 3072 2169 3072 
Q 1681 3072 1420 2755 
Q 1159 2438 1159 1844 
L 1159 0 
L 581 0 
L 581 3500 
L 1159 3500 
L 1159 2956 
Q 1341 3275 1631 3429 
Q 1922 3584 2338 3584 
Q 2397 3584 2469 3576 
Q 2541 3569 2628 3553 
L 2631 2963 
z
" transform="scale(0.015625)"/>
       <path id="DejaVuSans-61" d="M 2194 1759 
Q 1497 1759 1228 1600 
Q 959 1441 959 1056 
Q 959 750 1161 570 
Q 1363 391 1709 391 
Q 2188 391 2477 730 
Q 2766 1069 2766 1631 
L 2766 1759 
L 2194 1759 
z
M 3341 1997 
L 3341 0 
L 2766 0 
L 2766 531 
Q 2569 213 2275 61 
Q 1981 -91 1556 -91 
Q 1019 -91 701 211 
Q 384 513 384 1019 
Q 384 1609 779 1909 
Q 1175 2209 1959 2209 
L 2766 2209 
L 2766 2266 
Q 2766 2663 2505 2880 
Q 2244 3097 1772 3097 
Q 1472 3097 1187 3025 
Q 903 2953 641 2809 
L 641 3341 
Q 956 3463 1253 3523 
Q 1550 3584 1831 3584 
Q 2591 3584 2966 3190 
Q 3341 2797 3341 1997 
z
" transform="scale(0.015625)"/>
       <path id="DejaVuSans-79" d="M 2059 -325 
Q 1816 -950 1584 -1140 
Q 1353 -1331 966 -1331 
L 506 -1331 
L 506 -850 
L 844 -850 
Q 1081 -850 1212 -737 
Q 1344 -625 1503 -206 
L 1606 56 
L 191 3500 
L 800 3500 
L 1894 763 
L 2988 3500 
L 3597 3500 
L 2059 -325 
z
" transform="scale(0.015625)"/>
      </defs>
      <use xlink:href="#DejaVuSans-41"/>
      <use xlink:href="#DejaVuSans-63" x="66.658203"/>
      <use xlink:href="#DejaVuSans-63" x="121.638672"/>
      <use xlink:href="#DejaVuSans-75" x="176.619141"/>
      <use xlink:href="#DejaVuSans-72" x="239.998047"/>
      <use xlink:href="#DejaVuSans-61" x="281.111328"/>
      <use xlink:href="#DejaVuSans-63" x="342.390625"/>
      <use xlink:href="#DejaVuSans-79" x="397.371094"/>
     </g>
    </g>
   </g>
   <g id="line2d_13">
    <path d="M 115.363636 154.78705 
L 115.871417 80.910722 
L 116.379197 76.122721 
L 116.886978 74.046241 
L 117.394758 73.033201 
L 117.902539 72.297361 
L 118.410319 71.354881 
L 118.9181 71.21376 
L 119.933661 70.36704 
L 120.441441 70.22592 
L 121.964783 69.33384 
L 122.472563 69.29856 
L 123.488124 68.86512 
L 123.995905 68.94072 
L 124.503686 68.60808 
L 125.011466 68.47704 
L 125.519247 68.5728 
L 126.534808 68.24016 
L 129.07371 68.02848 
L 129.581491 67.87224 
L 130.089271 67.96296 
L 132.628174 67.58496 
L 138.72154 67.40352 
L 139.22932 67.30272 
L 139.737101 67.4388 
L 140.752662 67.37832 
L 141.260442 67.30776 
L 141.768223 67.35816 
L 142.783784 67.2372 
L 143.799345 67.2876 
L 144.814906 67.23216 
L 145.322686 67.3128 
L 147.353808 67.17672 
L 151.416052 67.19688 
L 151.923833 67.09104 
L 152.939394 67.24224 
L 153.447174 67.11624 
L 155.478296 67.1364 
L 155.986077 67.07088 
L 156.493857 67.14648 
L 157.509419 67.05072 
L 160.556102 67.12632 
L 161.571663 67.05072 
L 162.587224 67.13136 
L 173.250614 67.04568 
L 174.773956 67.00536 
L 177.312858 67.12128 
L 178.328419 67.03056 
L 181.882883 67.04064 
L 183.406224 67.00032 
L 185.437346 67.04064 
L 187.468468 67.02048 
L 193.054054 67.00032 
L 197.624079 67.04568 
L 200.162981 66.99528 
L 211.334152 66.99528 
L 214.380835 66.98016 
L 227.075348 67.0104 
L 229.614251 66.99528 
L 232.153153 66.99528 
L 236.215397 67.0104 
L 237.738739 66.98016 
L 243.324324 67.00032 
L 245.355446 66.97008 
L 246.878788 66.97008 
L 255.511057 66.97008 
L 257.034398 66.97512 
L 268.205569 66.96504 
L 273.791155 66.97512 
L 284.454545 66.97512 
L 295.625717 66.97512 
L 305.781327 66.9852 
L 308.82801 66.96504 
L 315.429156 66.99024 
L 317.460278 66.97008 
L 321.014742 66.98016 
L 324.061425 66.96504 
L 330.154791 66.99024 
L 332.693694 66.97008 
L 337.771499 66.96 
L 350.973792 66.99024 
L 353.512695 66.97512 
L 364.683866 66.96504 
L 370.269451 66.98016 
L 374.331695 66.96504 
L 386.010647 66.96 
L 397.181818 66.96 
L 622.636364 66.96 
L 622.636364 66.96 
" clip-path="url(#p8b0a7b42e6)" style="fill: none; stroke: #1f77b4; stroke-width: 1.5; stroke-linecap: square"/>
   </g>
   <g id="line2d_14">
    <path d="M 115.363636 83.924642 
L 115.871417 75.487681 
L 116.886978 72.342721 
L 117.394758 72.403201 
L 117.902539 71.496001 
L 118.410319 71.314561 
L 118.9181 71.254081 
L 119.42588 70.83072 
L 120.441441 70.19568 
L 120.949222 70.22592 
L 121.457002 70.04448 
L 122.980344 69.92352 
L 123.488124 69.65136 
L 123.995905 69.59088 
L 124.503686 69.71184 
L 125.011466 69.65136 
L 125.519247 69.43968 
L 126.027027 69.74208 
L 128.058149 69.28848 
L 128.56593 69.59088 
L 129.581491 69.34896 
L 130.089271 69.62112 
L 130.597052 69.6816 
L 131.104832 69.43968 
L 131.612613 69.3792 
L 132.120393 69.6816 
L 132.628174 69.50016 
L 133.135954 69.5304 
L 133.643735 69.40944 
L 134.151515 69.74208 
L 134.659296 69.5304 
L 135.167076 69.43968 
L 137.198198 69.46992 
L 137.705979 69.46992 
L 138.72154 69.6816 
L 139.22932 69.46992 
L 140.244881 69.25824 
L 140.752662 69.5304 
L 141.260442 69.31872 
L 141.768223 69.50016 
L 142.276003 69.31872 
L 142.783784 69.46992 
L 144.307125 69.3792 
L 144.814906 69.50016 
L 146.338247 69.3792 
L 146.846028 69.50016 
L 147.353808 69.43968 
L 147.861589 69.50016 
L 148.369369 69.16752 
L 148.87715 69.25824 
L 149.38493 69.46992 
L 149.892711 69.40944 
L 150.400491 69.46992 
L 151.416052 69.34896 
L 151.923833 69.16752 
L 152.431613 69.40944 
L 153.447174 69.46992 
L 153.954955 69.65136 
L 154.462735 69.34896 
L 154.970516 69.31872 
L 155.478296 69.43968 
L 155.986077 69.40944 
L 156.493857 69.59088 
L 157.001638 69.31872 
L 158.017199 69.3792 
L 158.52498 69.28848 
L 159.03276 69.31872 
L 159.540541 69.01632 
L 160.048321 69.40944 
L 160.556102 69.31872 
L 161.063882 68.95584 
L 161.571663 69.43968 
L 162.079443 69.31872 
L 162.587224 69.62112 
L 163.602785 69.43968 
L 164.110565 69.3792 
L 164.618346 69.46992 
L 165.126126 69.31872 
L 165.633907 69.40944 
L 166.141687 69.19776 
L 166.649468 69.34896 
L 167.157248 69.25824 
L 167.665029 69.31872 
L 168.172809 69.13728 
L 168.68059 69.10704 
L 169.696151 69.43968 
L 171.219492 69.13728 
L 171.727273 69.34896 
L 172.742834 69.28848 
L 173.250614 69.28848 
L 173.758395 69.16752 
L 174.266175 69.3792 
L 175.281736 69.28848 
L 175.789517 69.56064 
L 176.297297 69.34896 
L 177.312858 69.43968 
L 177.820639 69.25824 
L 182.390663 69.28848 
L 182.898444 69.40944 
L 183.406224 69.19776 
L 183.914005 69.228 
L 184.421785 69.40944 
L 185.437346 68.95584 
L 185.945127 69.13728 
L 187.468468 69.04656 
L 187.976249 69.19776 
L 190.515152 69.28848 
L 191.530713 69.34896 
L 193.054054 69.228 
L 193.561835 69.04656 
L 195.085176 69.04656 
L 195.592957 69.228 
L 196.100737 69.16752 
L 196.608518 69.28848 
L 197.116298 69.28848 
L 197.624079 69.0768 
L 198.131859 69.3792 
L 199.14742 69.228 
L 202.194103 69.10704 
L 203.209664 69.3792 
L 203.717445 69.16752 
L 204.225225 69.228 
L 204.733006 69.13728 
L 205.240786 69.46992 
L 205.748567 69.19776 
L 206.256347 69.228 
L 206.764128 69.10704 
L 207.271908 69.31872 
L 207.779689 69.25824 
L 208.287469 69.0768 
L 208.79525 69.13728 
L 209.30303 69.01632 
L 211.334152 69.19776 
L 211.841933 69.46992 
L 212.349713 69.25824 
L 212.857494 69.40944 
L 213.365274 69.31872 
L 214.380835 69.31872 
L 214.888616 69.5304 
L 215.396396 69.228 
L 220.981982 69.31872 
L 221.489762 69.40944 
L 221.997543 69.19776 
L 223.520885 69.19776 
L 224.028665 69.19776 
L 224.536446 69.34896 
L 225.044226 69.34896 
L 226.059787 69.04656 
L 227.583129 69.43968 
L 228.090909 69.10704 
L 230.122031 69.04656 
L 230.629812 69.25824 
L 231.137592 69.01632 
L 231.645373 69.28848 
L 232.153153 69.40944 
L 232.660934 69.28848 
L 233.168714 69.40944 
L 234.184275 69.228 
L 234.692056 69.40944 
L 235.199836 69.25824 
L 236.723178 69.25824 
L 237.230958 69.5304 
L 238.246519 69.0768 
L 238.7543 69.10704 
L 239.26208 69.46992 
L 239.769861 69.25824 
L 240.277641 69.40944 
L 240.785422 69.19776 
L 241.293202 69.43968 
L 242.308763 69.04656 
L 242.816544 69.19776 
L 243.324324 69.228 
L 243.832105 69.13728 
L 244.339885 69.25824 
L 245.355446 69.13728 
L 245.863227 69.25824 
L 246.371007 69.04656 
L 247.894349 69.13728 
L 248.402129 69.3792 
L 248.90991 69.25824 
L 249.41769 69.3792 
L 250.433251 69.10704 
L 250.941032 69.34896 
L 251.448812 69.228 
L 251.956593 69.25824 
L 252.464373 69.10704 
L 252.972154 69.16752 
L 253.479934 68.98608 
L 253.987715 68.95584 
L 254.495495 69.13728 
L 256.018837 69.10704 
L 256.526618 69.19776 
L 257.034398 69.04656 
L 257.542179 69.228 
L 258.55774 69.16752 
L 259.06552 69.25824 
L 259.573301 69.19776 
L 260.081081 69.31872 
L 261.096642 69.04656 
L 262.112203 69.25824 
L 262.619984 69.10704 
L 263.127764 69.25824 
L 264.143325 69.13728 
L 264.651106 69.19776 
L 266.174447 69.01632 
L 268.205569 69.25824 
L 268.71335 69.13728 
L 269.22113 69.25824 
L 269.728911 69.19776 
L 270.236691 68.95584 
L 270.744472 69.228 
L 271.252252 69.10704 
L 272.775594 69.10704 
L 273.283374 69.01632 
L 273.791155 69.10704 
L 274.298935 68.98608 
L 274.806716 69.34896 
L 276.330057 69.10704 
L 277.853399 69.228 
L 278.361179 69.0768 
L 279.37674 69.19776 
L 281.407862 69.01632 
L 281.915643 69.0768 
L 282.423423 68.89536 
L 282.931204 69.16752 
L 283.438984 69.01632 
L 284.962326 69.0768 
L 285.470106 69.28848 
L 285.977887 69.0768 
L 286.485667 69.16752 
L 286.993448 69.04656 
L 287.501229 69.13728 
L 289.02457 69.10704 
L 289.532351 69.19776 
L 290.547912 69.04656 
L 292.071253 69.16752 
L 293.594595 69.0768 
L 294.102375 69.04656 
L 294.610156 69.13728 
L 295.117936 69.04656 
L 295.625717 69.0768 
L 296.133497 68.95584 
L 297.149058 68.98608 
L 297.656839 69.0768 
L 298.164619 68.95584 
L 298.6724 69.04656 
L 300.703522 69.01632 
L 301.211302 69.10704 
L 302.226863 68.98608 
L 302.734644 69.10704 
L 304.765766 68.83488 
L 305.273546 69.0768 
L 305.781327 68.86512 
L 306.289107 69.13728 
L 307.304668 69.01632 
L 307.812449 68.9256 
L 308.320229 69.0768 
L 310.351351 69.19776 
L 311.366912 68.9256 
L 311.874693 68.95584 
L 312.382473 69.16752 
L 312.890254 69.04656 
L 314.921376 69.10704 
L 315.429156 69.31872 
L 316.444717 69.19776 
L 317.460278 69.01632 
L 318.98362 69.19776 
L 319.4914 69.13728 
L 321.014742 69.31872 
L 322.030303 69.228 
L 324.061425 69.04656 
L 324.569206 69.228 
L 325.076986 69.0768 
L 326.092547 69.25824 
L 327.108108 69.10704 
L 328.123669 69.16752 
L 328.63145 69.28848 
L 329.647011 68.86512 
L 330.662572 68.95584 
L 331.170352 68.9256 
L 331.678133 69.04656 
L 332.185913 68.98608 
L 333.709255 69.228 
L 334.217035 69.10704 
L 336.248157 69.16752 
L 337.771499 69.04656 
L 338.279279 69.16752 
L 339.802621 68.98608 
L 340.310401 69.34896 
L 340.818182 69.0768 
L 342.341523 69.25824 
L 342.849304 69.28848 
L 344.372645 69.10704 
L 344.880426 69.31872 
L 345.388206 69.34896 
L 345.895987 69.16752 
L 346.403767 69.28848 
L 346.911548 69.13728 
L 347.419328 69.25824 
L 351.989353 69.228 
L 352.497133 69.10704 
L 353.004914 69.43968 
L 353.512695 69.228 
L 354.020475 69.16752 
L 354.528256 69.28848 
L 356.559378 69.228 
L 357.067158 69.34896 
L 357.574939 69.28848 
L 358.082719 69.04656 
L 359.09828 69.16752 
L 360.113841 69.19776 
L 360.621622 68.98608 
L 361.637183 69.0768 
L 362.144963 68.95584 
L 363.160524 69.10704 
L 364.176085 69.01632 
L 367.730549 69.13728 
L 369.761671 69.10704 
L 370.269451 69.34896 
L 370.777232 69.13728 
L 372.300573 69.01632 
L 373.316134 69.10704 
L 374.331695 69.01632 
L 377.886159 69.16752 
L 378.90172 69.01632 
L 379.4095 69.13728 
L 379.917281 69.04656 
L 380.425061 69.0768 
L 380.932842 69.228 
L 381.948403 69.10704 
L 382.456183 69.16752 
L 383.979525 68.98608 
L 386.010647 69.16752 
L 386.518428 69.16752 
L 387.026208 69.31872 
L 387.533989 69.10704 
L 388.54955 69.25824 
L 389.05733 69.04656 
L 389.565111 68.95584 
L 391.596233 69.13728 
L 392.104013 68.98608 
L 394.135135 68.89536 
L 394.642916 68.95584 
L 395.150696 69.19776 
L 395.658477 69.0768 
L 396.166257 69.19776 
L 398.197379 69.13728 
L 398.70516 69.25824 
L 399.720721 69.04656 
L 400.228501 69.04656 
L 400.736282 69.19776 
L 401.244062 68.95584 
L 402.259623 69.10704 
L 402.767404 69.01632 
L 403.275184 69.19776 
L 403.782965 68.98608 
L 406.829648 69.0768 
L 407.845209 68.98608 
L 408.86077 69.13728 
L 409.876331 69.13728 
L 410.891892 68.98608 
L 414.446355 69.13728 
L 414.954136 69.01632 
L 415.969697 69.10704 
L 418.000819 69.13728 
L 418.5086 69.0768 
L 419.01638 69.25824 
L 419.524161 69.31872 
L 420.031941 69.10704 
L 424.094185 69.34896 
L 425.617527 69.10704 
L 426.125307 69.31872 
L 427.648649 69.28848 
L 428.156429 69.40944 
L 429.17199 69.28848 
L 431.203112 69.16752 
L 431.710893 69.50016 
L 433.742015 69.228 
L 434.249795 69.40944 
L 436.788698 69.34896 
L 437.296478 69.43968 
L 437.804259 69.40944 
L 438.312039 69.25824 
L 439.835381 69.228 
L 440.850942 69.31872 
L 441.358722 69.10704 
L 442.374283 69.0768 
L 443.389844 69.40944 
L 444.913186 69.10704 
L 445.928747 69.25824 
L 446.436527 69.16752 
L 447.959869 69.43968 
L 448.97543 69.25824 
L 449.990991 69.28848 
L 450.498771 69.3792 
L 452.529894 69.228 
L 461.669943 69.25824 
L 462.177723 69.10704 
L 462.685504 69.228 
L 463.701065 69.13728 
L 464.716626 69.40944 
L 465.732187 69.04656 
L 466.239967 69.228 
L 466.747748 69.04656 
L 467.763309 69.228 
L 468.271089 69.04656 
L 468.77887 69.16752 
L 470.302211 69.16752 
L 471.317772 69.228 
L 471.825553 69.04656 
L 472.333333 69.228 
L 472.841114 69.228 
L 473.348894 69.10704 
L 476.903358 69.19776 
L 478.93448 69.28848 
L 479.44226 69.19776 
L 479.950041 69.31872 
L 480.457821 69.16752 
L 480.965602 69.228 
L 481.473382 69.0768 
L 482.488943 69.13728 
L 482.996724 69.04656 
L 484.012285 69.16752 
L 484.520066 69.04656 
L 485.027846 69.19776 
L 488.074529 69.19776 
L 488.58231 69.34896 
L 489.09009 69.25824 
L 489.597871 69.28848 
L 490.613432 69.13728 
L 491.121212 69.228 
L 492.644554 69.10704 
L 493.152334 69.16752 
L 493.660115 68.98608 
L 494.167895 68.98608 
L 494.675676 69.16752 
L 495.183456 69.0768 
L 497.214578 69.10704 
L 498.73792 68.89536 
L 499.2457 69.04656 
L 499.753481 68.89536 
L 502.292383 69.01632 
L 503.815725 68.9256 
L 504.323505 69.04656 
L 507.877969 69.04656 
L 508.385749 69.28848 
L 508.89353 69.10704 
L 510.416871 69.228 
L 510.924652 68.98608 
L 511.432432 69.13728 
L 511.940213 68.98608 
L 512.447993 69.10704 
L 512.955774 68.9256 
L 514.479115 69.0768 
L 514.986896 69.01632 
L 515.494676 69.16752 
L 516.002457 69.04656 
L 516.510238 69.10704 
L 517.525799 69.01632 
L 520.064701 69.13728 
L 520.572482 69.04656 
L 522.095823 69.228 
L 522.603604 69.04656 
L 526.158067 69.19776 
L 529.712531 69.04656 
L 530.220311 69.19776 
L 531.235872 69.25824 
L 532.251433 69.16752 
L 532.759214 69.25824 
L 535.298116 68.95584 
L 535.805897 69.04656 
L 536.313677 69.01632 
L 536.821458 69.10704 
L 538.344799 69.01632 
L 538.85258 69.13728 
L 539.868141 69.01632 
L 540.883702 69.34896 
L 541.391482 69.0768 
L 541.899263 69.01632 
L 543.422604 69.10704 
L 544.945946 69.13728 
L 545.961507 69.25824 
L 547.992629 69.228 
L 548.50041 69.28848 
L 549.00819 69.13728 
L 549.515971 69.228 
L 550.531532 69.10704 
L 551.547093 69.13728 
L 553.070434 69.28848 
L 553.578215 69.10704 
L 555.101556 69.13728 
L 555.609337 69.0768 
L 556.117117 69.19776 
L 556.624898 69.10704 
L 557.132678 69.13728 
L 557.640459 69.34896 
L 558.148239 69.04656 
L 558.65602 69.16752 
L 559.671581 69.13728 
L 560.179361 69.01632 
L 561.194922 69.16752 
L 561.702703 69.01632 
L 562.718264 69.19776 
L 563.226044 69.43968 
L 563.733825 69.16752 
L 567.796069 69.0768 
L 568.303849 69.3792 
L 569.827191 69.25824 
L 570.334971 69.0768 
L 572.366093 69.228 
L 576.428337 69.04656 
L 577.443898 69.25824 
L 577.951679 69.25824 
L 578.459459 69.0768 
L 582.013923 69.0768 
L 582.521704 69.228 
L 584.045045 69.13728 
L 585.060606 69.04656 
L 587.091728 68.98608 
L 587.599509 69.16752 
L 588.107289 69.04656 
L 588.61507 69.16752 
L 589.630631 69.04656 
L 591.153972 69.228 
L 592.169533 69.0768 
L 592.677314 69.04656 
L 593.692875 69.19776 
L 594.708436 69.04656 
L 595.216216 69.228 
L 596.231777 69.19776 
L 596.739558 69.16752 
L 597.247338 69.28848 
L 598.262899 69.19776 
L 600.801802 69.10704 
L 601.817363 68.98608 
L 602.325143 69.13728 
L 604.356265 69.10704 
L 605.879607 69.16752 
L 607.402948 69.04656 
L 607.910729 69.13728 
L 609.941851 69.0768 
L 611.972973 69.10704 
L 612.988534 69.13728 
L 613.496314 69.19776 
L 614.004095 69.01632 
L 615.019656 69.10704 
L 615.527437 69.0768 
L 616.035217 69.19776 
L 616.542998 68.98608 
L 618.066339 69.19776 
L 619.0819 69.10704 
L 620.605242 69.16752 
L 621.113022 69.01632 
L 622.636364 69.13728 
L 622.636364 69.13728 
" clip-path="url(#p8b0a7b42e6)" style="fill: none; stroke: #ff7f0e; stroke-width: 1.5; stroke-linecap: square"/>
   </g>
   <g id="line2d_15">
    <path d="M 115.363636 365.165399 
L 115.871417 368.651933 
L 116.379197 368.896983 
L 117.902539 369.096427 
L 120.441441 369.206027 
L 133.135954 369.331593 
L 191.022932 369.357852 
L 280.900082 369.359513 
L 592.169533 369.358847 
L 622.636364 369.35991 
L 622.636364 369.35991 
" clip-path="url(#p8b0a7b42e6)" style="fill: none; stroke: #2ca02c; stroke-width: 1.5; stroke-linecap: square"/>
   </g>
   <g id="line2d_16">
    <path d="M 115.363636 368.558322 
L 115.871417 368.944266 
L 116.886978 369.106934 
L 136.182637 369.203741 
L 142.783784 369.193509 
L 145.322686 369.181414 
L 159.03276 369.164205 
L 161.063882 369.183584 
L 164.618346 369.170234 
L 171.219492 369.179528 
L 175.281736 369.150222 
L 182.390663 369.169733 
L 192.546274 369.155061 
L 201.686323 369.173328 
L 207.271908 369.161592 
L 231.137592 369.15877 
L 236.215397 369.126254 
L 245.355446 369.148003 
L 247.894349 369.122368 
L 255.511057 369.137479 
L 260.081081 369.10456 
L 262.619984 369.128836 
L 271.252252 369.129703 
L 290.040131 369.131062 
L 295.117936 369.136501 
L 299.18018 369.138237 
L 336.248157 369.129078 
L 339.29484 369.12584 
L 344.372645 369.126964 
L 362.652744 369.128573 
L 368.74611 369.125012 
L 383.979525 369.124673 
L 403.782965 369.115813 
L 407.845209 369.12834 
L 410.891892 369.117703 
L 433.742015 369.096741 
L 443.389844 369.08194 
L 462.177723 369.08449 
L 469.28665 369.095 
L 493.660115 369.097101 
L 500.261261 369.101314 
L 510.416871 369.078567 
L 513.463554 369.106988 
L 517.018018 369.097669 
L 523.111384 369.100407 
L 530.728092 369.090865 
L 535.805897 369.105417 
L 564.749386 369.08524 
L 571.350532 369.109876 
L 583.029484 369.115771 
L 610.957412 369.103854 
L 617.558559 369.102589 
L 622.636364 369.094289 
L 622.636364 369.094289 
" clip-path="url(#p8b0a7b42e6)" style="fill: none; stroke: #d62728; stroke-width: 1.5; stroke-linecap: square"/>
   </g>
   <g id="patch_3">
    <path d="M 90 384.48 
L 90 51.84 
" style="fill: none; stroke: #000000; stroke-width: 0.8; stroke-linejoin: miter; stroke-linecap: square"/>
   </g>
   <g id="patch_4">
    <path d="M 648 384.48 
L 648 51.84 
" style="fill: none; stroke: #000000; stroke-width: 0.8; stroke-linejoin: miter; stroke-linecap: square"/>
   </g>
   <g id="patch_5">
    <path d="M 90 384.48 
L 648 384.48 
" style="fill: none; stroke: #000000; stroke-width: 0.8; stroke-linejoin: miter; stroke-linecap: square"/>
   </g>
   <g id="patch_6">
    <path d="M 90 51.84 
L 648 51.84 
" style="fill: none; stroke: #000000; stroke-width: 0.8; stroke-linejoin: miter; stroke-linecap: square"/>
   </g>
   <g id="text_15">
    <!-- Accuracy -->
    <g transform="translate(341.60625 45.84) scale(0.12 -0.12)">
     <use xlink:href="#DejaVuSans-41"/>
     <use xlink:href="#DejaVuSans-63" x="66.658203"/>
     <use xlink:href="#DejaVuSans-63" x="121.638672"/>
     <use xlink:href="#DejaVuSans-75" x="176.619141"/>
     <use xlink:href="#DejaVuSans-72" x="239.998047"/>
     <use xlink:href="#DejaVuSans-61" x="281.111328"/>
     <use xlink:href="#DejaVuSans-63" x="342.390625"/>
     <use xlink:href="#DejaVuSans-79" x="397.371094"/>
    </g>
   </g>
   <g id="legend_1">
    <g id="patch_7">
     <path d="M 560.696875 249.5725 
L 641 249.5725 
Q 643 249.5725 643 247.5725 
L 643 188.7475 
Q 643 186.7475 641 186.7475 
L 560.696875 186.7475 
Q 558.696875 186.7475 558.696875 188.7475 
L 558.696875 247.5725 
Q 558.696875 249.5725 560.696875 249.5725 
z
" style="fill: #ffffff; opacity: 0.8; stroke: #cccccc; stroke-linejoin: miter"/>
    </g>
    <g id="line2d_17">
     <path d="M 562.696875 194.845937 
L 572.696875 194.845937 
L 582.696875 194.845937 
" style="fill: none; stroke: #1f77b4; stroke-width: 1.5; stroke-linecap: square"/>
    </g>
    <g id="text_16">
     <!-- Train_acc -->
     <g transform="translate(590.696875 198.345937) scale(0.1 -0.1)">
      <defs>
       <path id="DejaVuSans-54" d="M -19 4666 
L 3928 4666 
L 3928 4134 
L 2272 4134 
L 2272 0 
L 1638 0 
L 1638 4134 
L -19 4134 
L -19 4666 
z
" transform="scale(0.015625)"/>
       <path id="DejaVuSans-69" d="M 603 3500 
L 1178 3500 
L 1178 0 
L 603 0 
L 603 3500 
z
M 603 4863 
L 1178 4863 
L 1178 4134 
L 603 4134 
L 603 4863 
z
" transform="scale(0.015625)"/>
       <path id="DejaVuSans-6e" d="M 3513 2113 
L 3513 0 
L 2938 0 
L 2938 2094 
Q 2938 2591 2744 2837 
Q 2550 3084 2163 3084 
Q 1697 3084 1428 2787 
Q 1159 2491 1159 1978 
L 1159 0 
L 581 0 
L 581 3500 
L 1159 3500 
L 1159 2956 
Q 1366 3272 1645 3428 
Q 1925 3584 2291 3584 
Q 2894 3584 3203 3211 
Q 3513 2838 3513 2113 
z
" transform="scale(0.015625)"/>
       <path id="DejaVuSans-5f" d="M 3263 -1063 
L 3263 -1509 
L -63 -1509 
L -63 -1063 
L 3263 -1063 
z
" transform="scale(0.015625)"/>
      </defs>
      <use xlink:href="#DejaVuSans-54"/>
      <use xlink:href="#DejaVuSans-72" x="46.333984"/>
      <use xlink:href="#DejaVuSans-61" x="87.447266"/>
      <use xlink:href="#DejaVuSans-69" x="148.726562"/>
      <use xlink:href="#DejaVuSans-6e" x="176.509766"/>
      <use xlink:href="#DejaVuSans-5f" x="239.888672"/>
      <use xlink:href="#DejaVuSans-61" x="289.888672"/>
      <use xlink:href="#DejaVuSans-63" x="351.167969"/>
      <use xlink:href="#DejaVuSans-63" x="406.148438"/>
     </g>
    </g>
    <g id="line2d_18">
     <path d="M 562.696875 209.802188 
L 572.696875 209.802188 
L 582.696875 209.802188 
" style="fill: none; stroke: #ff7f0e; stroke-width: 1.5; stroke-linecap: square"/>
    </g>
    <g id="text_17">
     <!-- Test_acc -->
     <g transform="translate(590.696875 213.302188) scale(0.1 -0.1)">
      <defs>
       <path id="DejaVuSans-65" d="M 3597 1894 
L 3597 1613 
L 953 1613 
Q 991 1019 1311 708 
Q 1631 397 2203 397 
Q 2534 397 2845 478 
Q 3156 559 3463 722 
L 3463 178 
Q 3153 47 2828 -22 
Q 2503 -91 2169 -91 
Q 1331 -91 842 396 
Q 353 884 353 1716 
Q 353 2575 817 3079 
Q 1281 3584 2069 3584 
Q 2775 3584 3186 3129 
Q 3597 2675 3597 1894 
z
M 3022 2063 
Q 3016 2534 2758 2815 
Q 2500 3097 2075 3097 
Q 1594 3097 1305 2825 
Q 1016 2553 972 2059 
L 3022 2063 
z
" transform="scale(0.015625)"/>
       <path id="DejaVuSans-73" d="M 2834 3397 
L 2834 2853 
Q 2591 2978 2328 3040 
Q 2066 3103 1784 3103 
Q 1356 3103 1142 2972 
Q 928 2841 928 2578 
Q 928 2378 1081 2264 
Q 1234 2150 1697 2047 
L 1894 2003 
Q 2506 1872 2764 1633 
Q 3022 1394 3022 966 
Q 3022 478 2636 193 
Q 2250 -91 1575 -91 
Q 1294 -91 989 -36 
Q 684 19 347 128 
L 347 722 
Q 666 556 975 473 
Q 1284 391 1588 391 
Q 1994 391 2212 530 
Q 2431 669 2431 922 
Q 2431 1156 2273 1281 
Q 2116 1406 1581 1522 
L 1381 1569 
Q 847 1681 609 1914 
Q 372 2147 372 2553 
Q 372 3047 722 3315 
Q 1072 3584 1716 3584 
Q 2034 3584 2315 3537 
Q 2597 3491 2834 3397 
z
" transform="scale(0.015625)"/>
       <path id="DejaVuSans-74" d="M 1172 4494 
L 1172 3500 
L 2356 3500 
L 2356 3053 
L 1172 3053 
L 1172 1153 
Q 1172 725 1289 603 
Q 1406 481 1766 481 
L 2356 481 
L 2356 0 
L 1766 0 
Q 1100 0 847 248 
Q 594 497 594 1153 
L 594 3053 
L 172 3053 
L 172 3500 
L 594 3500 
L 594 4494 
L 1172 4494 
z
" transform="scale(0.015625)"/>
      </defs>
      <use xlink:href="#DejaVuSans-54"/>
      <use xlink:href="#DejaVuSans-65" x="44.083984"/>
      <use xlink:href="#DejaVuSans-73" x="105.607422"/>
      <use xlink:href="#DejaVuSans-74" x="157.707031"/>
      <use xlink:href="#DejaVuSans-5f" x="196.916016"/>
      <use xlink:href="#DejaVuSans-61" x="246.916016"/>
      <use xlink:href="#DejaVuSans-63" x="308.195312"/>
      <use xlink:href="#DejaVuSans-63" x="363.175781"/>
     </g>
    </g>
    <g id="line2d_19">
     <path d="M 562.696875 224.758437 
L 572.696875 224.758437 
L 582.696875 224.758437 
" style="fill: none; stroke: #2ca02c; stroke-width: 1.5; stroke-linecap: square"/>
    </g>
    <g id="text_18">
     <!-- Train_loss -->
     <g transform="translate(590.696875 228.258437) scale(0.1 -0.1)">
      <defs>
       <path id="DejaVuSans-6c" d="M 603 4863 
L 1178 4863 
L 1178 0 
L 603 0 
L 603 4863 
z
" transform="scale(0.015625)"/>
      </defs>
      <use xlink:href="#DejaVuSans-54"/>
      <use xlink:href="#DejaVuSans-72" x="46.333984"/>
      <use xlink:href="#DejaVuSans-61" x="87.447266"/>
      <use xlink:href="#DejaVuSans-69" x="148.726562"/>
      <use xlink:href="#DejaVuSans-6e" x="176.509766"/>
      <use xlink:href="#DejaVuSans-5f" x="239.888672"/>
      <use xlink:href="#DejaVuSans-6c" x="289.888672"/>
      <use xlink:href="#DejaVuSans-6f" x="317.671875"/>
      <use xlink:href="#DejaVuSans-73" x="378.853516"/>
      <use xlink:href="#DejaVuSans-73" x="430.953125"/>
     </g>
    </g>
    <g id="line2d_20">
     <path d="M 562.696875 239.714687 
L 572.696875 239.714687 
L 582.696875 239.714687 
" style="fill: none; stroke: #d62728; stroke-width: 1.5; stroke-linecap: square"/>
    </g>
    <g id="text_19">
     <!-- Test_loss -->
     <g transform="translate(590.696875 243.214687) scale(0.1 -0.1)">
      <use xlink:href="#DejaVuSans-54"/>
      <use xlink:href="#DejaVuSans-65" x="44.083984"/>
      <use xlink:href="#DejaVuSans-73" x="105.607422"/>
      <use xlink:href="#DejaVuSans-74" x="157.707031"/>
      <use xlink:href="#DejaVuSans-5f" x="196.916016"/>
      <use xlink:href="#DejaVuSans-6c" x="246.916016"/>
      <use xlink:href="#DejaVuSans-6f" x="274.699219"/>
      <use xlink:href="#DejaVuSans-73" x="335.880859"/>
      <use xlink:href="#DejaVuSans-73" x="387.980469"/>
     </g>
    </g>
   </g>
  </g>
 </g>
 <defs>
  <clipPath id="p8b0a7b42e6">
   <rect x="90" y="51.84" width="558" height="332.64"/>
  </clipPath>
 </defs>
</svg>
